<?xml version="1.0" encoding="utf-8" standalone="no"?>
<!DOCTYPE svg PUBLIC "-//W3C//DTD SVG 1.1//EN"
  "http://www.w3.org/Graphics/SVG/1.1/DTD/svg11.dtd">
<!-- Created with matplotlib (https://matplotlib.org/) -->
<svg height="345.6pt" version="1.1" viewBox="0 0 460.8 345.6" width="460.8pt" xmlns="http://www.w3.org/2000/svg" xmlns:xlink="http://www.w3.org/1999/xlink">
 <defs>
  <style type="text/css">
*{stroke-linecap:butt;stroke-linejoin:round;}
  </style>
 </defs>
 <g id="figure_1">
  <g id="patch_1">
   <path d="M 0 345.6 
L 460.8 345.6 
L 460.8 0 
L 0 0 
z
" style="fill:#ffffff;"/>
  </g>
  <g id="axes_1">
   <g id="patch_2">
    <path d="M 57.6 298.944 
L 338.688 298.944 
L 338.688 3.456 
L 57.6 3.456 
z
" style="fill:#ffffff;"/>
   </g>
   <g id="line2d_1">
    <path d="M 38.440992 298.944 
L 38.440992 292.060179 
L 50.52898 292.060179 
L 50.52898 289.765573 
L 57.6 289.765573 
L 57.6 288.618269 
L 62.616969 288.618269 
L 62.616969 286.323662 
L 66.508432 286.323662 
L 66.508432 282.881752 
L 69.687988 282.881752 
L 69.687988 279.439842 
L 72.376266 279.439842 
L 72.376266 226.663884 
L 74.704957 226.663884 
L 74.704957 178.477139 
L 78.59642 178.477139 
L 78.59642 176.182532 
L 90.684409 176.182532 
L 90.684409 175.035229 
L 91.535274 175.035229 
L 91.535274 173.887925 
L 98.880934 173.887925 
L 98.880934 171.593319 
L 99.938184 171.593319 
L 99.938184 169.298712 
L 100.934985 169.298712 
L 100.934985 168.151408 
L 101.877879 168.151408 
L 101.877879 163.562195 
L 102.330873 163.562195 
L 102.330873 161.267588 
L 102.772397 161.267588 
L 102.772397 156.678374 
L 103.203018 156.678374 
L 103.203018 155.53107 
L 103.623262 155.53107 
L 103.623262 153.236464 
L 104.033617 153.236464 
L 104.033617 146.352643 
L 104.434538 146.352643 
L 104.434538 138.321519 
L 104.826449 138.321519 
L 104.826449 133.732305 
L 105.209745 133.732305 
L 105.209745 127.995788 
L 105.584798 127.995788 
L 105.584798 118.817361 
L 105.951954 118.817361 
L 105.951954 110.786236 
L 106.311539 110.786236 
L 106.311539 107.344326 
L 138.981779 107.344326 
L 138.981779 106.197023 
L 139.572998 106.197023 
L 139.572998 105.049719 
L 150.486088 105.049719 
L 150.486088 103.902416 
L 154.972161 103.902416 
L 155.081089 101.607809 
L 155.189341 101.607809 
L 155.189341 100.460506 
L 155.382516 100.460506 
L 155.488919 98.165899 
L 155.573575 98.165899 
L 155.657823 91.282078 
L 155.699795 91.282078 
L 155.804285 84.398257 
L 155.86668 84.398257 
L 155.970177 74.072526 
L 155.990803 74.072526 
L 156.073064 60.304885 
L 156.114049 60.304885 
L 156.175347 48.831851 
L 156.337763 48.831851 
L 156.398281 46.537244 
L 156.875011 46.537244 
L 156.875011 45.389941 
L 157.319964 45.389941 
L 157.339055 41.94803 
L 157.472107 41.94803 
L 157.472107 40.800727 
L 157.809652 40.800727 
L 157.920731 36.211513 
L 158.049435 36.211513 
L 158.049435 35.06421 
L 158.267884 35.06421 
L 158.267884 33.916906 
L 158.69674 33.916906 
L 158.714382 28.180389 
L 159.132527 28.180389 
L 159.184097 22.443872 
L 159.439685 22.443872 
L 159.439685 19.001962 
L 159.557689 19.001962 
L 159.658204 10.970838 
L 159.758143 10.970838 
L 159.758143 7.528927 
L 174.633778 7.528927 
L 174.633778 6.381624 
L 338.688 6.381624 
L 338.688 6.381624 
" style="fill:none;stroke:#f5deb3;stroke-linecap:square;stroke-width:4;"/>
   </g>
   <g id="line2d_2">
    <defs>
     <path d="M -0 7.778175 
L 7.778175 0 
L 0 -7.778175 
L -7.778175 -0 
z
" id="maa8ed4e05e" style="stroke:#f5deb3;stroke-linejoin:miter;stroke-width:1.5;"/>
    </defs>
    <g>
     <use style="fill:#f5deb3;stroke:#f5deb3;stroke-linejoin:miter;stroke-width:1.5;" x="72.376266" xlink:href="#maa8ed4e05e" y="226.663884"/>
     <use style="fill:#f5deb3;stroke:#f5deb3;stroke-linejoin:miter;stroke-width:1.5;" x="105.951954" xlink:href="#maa8ed4e05e" y="110.786236"/>
     <use style="fill:#f5deb3;stroke:#f5deb3;stroke-linejoin:miter;stroke-width:1.5;" x="159.166924" xlink:href="#maa8ed4e05e" y="24.738479"/>
     <use style="fill:#f5deb3;stroke:#f5deb3;stroke-linejoin:miter;stroke-width:1.5;" x="174.633778" xlink:href="#maa8ed4e05e" y="6.381624"/>
     <use style="fill:#f5deb3;stroke:#f5deb3;stroke-linejoin:miter;stroke-width:1.5;" x="174.633778" xlink:href="#maa8ed4e05e" y="6.381624"/>
     <use style="fill:#f5deb3;stroke:#f5deb3;stroke-linejoin:miter;stroke-width:1.5;" x="338.688" xlink:href="#maa8ed4e05e" y="6.381624"/>
    </g>
   </g>
   <g id="line2d_3">
    <path style="fill:none;stroke:#f5deb3;stroke-linecap:square;stroke-width:4;"/>
    <g/>
   </g>
   <g id="line2d_4">
    <path d="M 338.688 6.381624 
L 369.60768 12.232871 
" style="fill:none;stroke:#f5deb3;stroke-linecap:square;stroke-width:4;"/>
    <g>
     <use style="fill:#f5deb3;stroke:#f5deb3;stroke-linejoin:miter;stroke-width:1.5;" x="338.688" xlink:href="#maa8ed4e05e" y="6.381624"/>
     <use style="fill:#f5deb3;stroke:#f5deb3;stroke-linejoin:miter;stroke-width:1.5;" x="369.60768" xlink:href="#maa8ed4e05e" y="12.232871"/>
    </g>
   </g>
   <g id="matplotlib.axis_1">
    <g id="xtick_1">
     <g id="line2d_5">
      <path clip-path="url(#pe1deb9cdc2)" d="M 57.6 298.944 
L 57.6 3.456 
" style="fill:none;stroke:#b0b0b0;stroke-linecap:square;stroke-width:0.8;"/>
     </g>
     <g id="line2d_6">
      <defs>
       <path d="M 0 0 
L 0 3.5 
" id="m4691070f88" style="stroke:#000000;stroke-width:0.8;"/>
      </defs>
      <g>
       <use style="stroke:#000000;stroke-width:0.8;" x="57.6" xlink:href="#m4691070f88" y="298.944"/>
      </g>
     </g>
     <g id="text_1">
      <!-- 0 -->
      <defs>
       <path d="M 31.78125 66.40625 
Q 24.171875 66.40625 20.328125 58.90625 
Q 16.5 51.421875 16.5 36.375 
Q 16.5 21.390625 20.328125 13.890625 
Q 24.171875 6.390625 31.78125 6.390625 
Q 39.453125 6.390625 43.28125 13.890625 
Q 47.125 21.390625 47.125 36.375 
Q 47.125 51.421875 43.28125 58.90625 
Q 39.453125 66.40625 31.78125 66.40625 
z
M 31.78125 74.21875 
Q 44.046875 74.21875 50.515625 64.515625 
Q 56.984375 54.828125 56.984375 36.375 
Q 56.984375 17.96875 50.515625 8.265625 
Q 44.046875 -1.421875 31.78125 -1.421875 
Q 19.53125 -1.421875 13.0625 8.265625 
Q 6.59375 17.96875 6.59375 36.375 
Q 6.59375 54.828125 13.0625 64.515625 
Q 19.53125 74.21875 31.78125 74.21875 
z
" id="DejaVuSans-48"/>
      </defs>
      <g transform="translate(51.2375 321.140875)scale(0.2 -0.2)">
       <use xlink:href="#DejaVuSans-48"/>
      </g>
     </g>
    </g>
    <g id="xtick_2">
     <g id="line2d_7">
      <path clip-path="url(#pe1deb9cdc2)" d="M 137.910857 298.944 
L 137.910857 3.456 
" style="fill:none;stroke:#b0b0b0;stroke-linecap:square;stroke-width:0.8;"/>
     </g>
     <g id="line2d_8">
      <g>
       <use style="stroke:#000000;stroke-width:0.8;" x="137.910857" xlink:href="#m4691070f88" y="298.944"/>
      </g>
     </g>
     <g id="text_2">
      <!-- 2 -->
      <defs>
       <path d="M 19.1875 8.296875 
L 53.609375 8.296875 
L 53.609375 0 
L 7.328125 0 
L 7.328125 8.296875 
Q 12.9375 14.109375 22.625 23.890625 
Q 32.328125 33.6875 34.8125 36.53125 
Q 39.546875 41.84375 41.421875 45.53125 
Q 43.3125 49.21875 43.3125 52.78125 
Q 43.3125 58.59375 39.234375 62.25 
Q 35.15625 65.921875 28.609375 65.921875 
Q 23.96875 65.921875 18.8125 64.3125 
Q 13.671875 62.703125 7.8125 59.421875 
L 7.8125 69.390625 
Q 13.765625 71.78125 18.9375 73 
Q 24.125 74.21875 28.421875 74.21875 
Q 39.75 74.21875 46.484375 68.546875 
Q 53.21875 62.890625 53.21875 53.421875 
Q 53.21875 48.921875 51.53125 44.890625 
Q 49.859375 40.875 45.40625 35.40625 
Q 44.1875 33.984375 37.640625 27.21875 
Q 31.109375 20.453125 19.1875 8.296875 
z
" id="DejaVuSans-50"/>
      </defs>
      <g transform="translate(131.548357 321.140875)scale(0.2 -0.2)">
       <use xlink:href="#DejaVuSans-50"/>
      </g>
     </g>
    </g>
    <g id="xtick_3">
     <g id="line2d_9">
      <path clip-path="url(#pe1deb9cdc2)" d="M 218.221714 298.944 
L 218.221714 3.456 
" style="fill:none;stroke:#b0b0b0;stroke-linecap:square;stroke-width:0.8;"/>
     </g>
     <g id="line2d_10">
      <g>
       <use style="stroke:#000000;stroke-width:0.8;" x="218.221714" xlink:href="#m4691070f88" y="298.944"/>
      </g>
     </g>
     <g id="text_3">
      <!-- 4 -->
      <defs>
       <path d="M 37.796875 64.3125 
L 12.890625 25.390625 
L 37.796875 25.390625 
z
M 35.203125 72.90625 
L 47.609375 72.90625 
L 47.609375 25.390625 
L 58.015625 25.390625 
L 58.015625 17.1875 
L 47.609375 17.1875 
L 47.609375 0 
L 37.796875 0 
L 37.796875 17.1875 
L 4.890625 17.1875 
L 4.890625 26.703125 
z
" id="DejaVuSans-52"/>
      </defs>
      <g transform="translate(211.859214 321.140875)scale(0.2 -0.2)">
       <use xlink:href="#DejaVuSans-52"/>
      </g>
     </g>
    </g>
    <g id="xtick_4">
     <g id="line2d_11">
      <path clip-path="url(#pe1deb9cdc2)" d="M 298.532571 298.944 
L 298.532571 3.456 
" style="fill:none;stroke:#b0b0b0;stroke-linecap:square;stroke-width:0.8;"/>
     </g>
     <g id="line2d_12">
      <g>
       <use style="stroke:#000000;stroke-width:0.8;" x="298.532571" xlink:href="#m4691070f88" y="298.944"/>
      </g>
     </g>
     <g id="text_4">
      <!-- 6 -->
      <defs>
       <path d="M 33.015625 40.375 
Q 26.375 40.375 22.484375 35.828125 
Q 18.609375 31.296875 18.609375 23.390625 
Q 18.609375 15.53125 22.484375 10.953125 
Q 26.375 6.390625 33.015625 6.390625 
Q 39.65625 6.390625 43.53125 10.953125 
Q 47.40625 15.53125 47.40625 23.390625 
Q 47.40625 31.296875 43.53125 35.828125 
Q 39.65625 40.375 33.015625 40.375 
z
M 52.59375 71.296875 
L 52.59375 62.3125 
Q 48.875 64.0625 45.09375 64.984375 
Q 41.3125 65.921875 37.59375 65.921875 
Q 27.828125 65.921875 22.671875 59.328125 
Q 17.53125 52.734375 16.796875 39.40625 
Q 19.671875 43.65625 24.015625 45.921875 
Q 28.375 48.1875 33.59375 48.1875 
Q 44.578125 48.1875 50.953125 41.515625 
Q 57.328125 34.859375 57.328125 23.390625 
Q 57.328125 12.15625 50.6875 5.359375 
Q 44.046875 -1.421875 33.015625 -1.421875 
Q 20.359375 -1.421875 13.671875 8.265625 
Q 6.984375 17.96875 6.984375 36.375 
Q 6.984375 53.65625 15.1875 63.9375 
Q 23.390625 74.21875 37.203125 74.21875 
Q 40.921875 74.21875 44.703125 73.484375 
Q 48.484375 72.75 52.59375 71.296875 
z
" id="DejaVuSans-54"/>
      </defs>
      <g transform="translate(292.170071 321.140875)scale(0.2 -0.2)">
       <use xlink:href="#DejaVuSans-54"/>
      </g>
     </g>
    </g>
    <g id="xtick_5">
     <g id="line2d_13">
      <path clip-path="url(#pe1deb9cdc2)" d="M 97.755429 298.944 
L 97.755429 3.456 
" style="fill:none;stroke:#b0b0b0;stroke-linecap:square;stroke-width:0.8;"/>
     </g>
     <g id="line2d_14">
      <defs>
       <path d="M 0 0 
L 0 2 
" id="meefbba14b6" style="stroke:#000000;stroke-width:0.6;"/>
      </defs>
      <g>
       <use style="stroke:#000000;stroke-width:0.6;" x="97.755429" xlink:href="#meefbba14b6" y="298.944"/>
      </g>
     </g>
    </g>
    <g id="xtick_6">
     <g id="line2d_15">
      <path clip-path="url(#pe1deb9cdc2)" d="M 178.066286 298.944 
L 178.066286 3.456 
" style="fill:none;stroke:#b0b0b0;stroke-linecap:square;stroke-width:0.8;"/>
     </g>
     <g id="line2d_16">
      <g>
       <use style="stroke:#000000;stroke-width:0.6;" x="178.066286" xlink:href="#meefbba14b6" y="298.944"/>
      </g>
     </g>
    </g>
    <g id="xtick_7">
     <g id="line2d_17">
      <path clip-path="url(#pe1deb9cdc2)" d="M 258.377143 298.944 
L 258.377143 3.456 
" style="fill:none;stroke:#b0b0b0;stroke-linecap:square;stroke-width:0.8;"/>
     </g>
     <g id="line2d_18">
      <g>
       <use style="stroke:#000000;stroke-width:0.6;" x="258.377143" xlink:href="#meefbba14b6" y="298.944"/>
      </g>
     </g>
    </g>
    <g id="xtick_8">
     <g id="line2d_19">
      <path clip-path="url(#pe1deb9cdc2)" d="M 338.688 298.944 
L 338.688 3.456 
" style="fill:none;stroke:#b0b0b0;stroke-linecap:square;stroke-width:0.8;"/>
     </g>
     <g id="line2d_20">
      <g>
       <use style="stroke:#000000;stroke-width:0.6;" x="338.688" xlink:href="#meefbba14b6" y="298.944"/>
      </g>
     </g>
    </g>
    <g id="text_5">
     <!-- log10(# f-evals / dimension) -->
     <defs>
      <path d="M 9.421875 75.984375 
L 18.40625 75.984375 
L 18.40625 0 
L 9.421875 0 
z
" id="DejaVuSans-108"/>
      <path d="M 30.609375 48.390625 
Q 23.390625 48.390625 19.1875 42.75 
Q 14.984375 37.109375 14.984375 27.296875 
Q 14.984375 17.484375 19.15625 11.84375 
Q 23.34375 6.203125 30.609375 6.203125 
Q 37.796875 6.203125 41.984375 11.859375 
Q 46.1875 17.53125 46.1875 27.296875 
Q 46.1875 37.015625 41.984375 42.703125 
Q 37.796875 48.390625 30.609375 48.390625 
z
M 30.609375 56 
Q 42.328125 56 49.015625 48.375 
Q 55.71875 40.765625 55.71875 27.296875 
Q 55.71875 13.875 49.015625 6.21875 
Q 42.328125 -1.421875 30.609375 -1.421875 
Q 18.84375 -1.421875 12.171875 6.21875 
Q 5.515625 13.875 5.515625 27.296875 
Q 5.515625 40.765625 12.171875 48.375 
Q 18.84375 56 30.609375 56 
z
" id="DejaVuSans-111"/>
      <path d="M 45.40625 27.984375 
Q 45.40625 37.75 41.375 43.109375 
Q 37.359375 48.484375 30.078125 48.484375 
Q 22.859375 48.484375 18.828125 43.109375 
Q 14.796875 37.75 14.796875 27.984375 
Q 14.796875 18.265625 18.828125 12.890625 
Q 22.859375 7.515625 30.078125 7.515625 
Q 37.359375 7.515625 41.375 12.890625 
Q 45.40625 18.265625 45.40625 27.984375 
z
M 54.390625 6.78125 
Q 54.390625 -7.171875 48.1875 -13.984375 
Q 42 -20.796875 29.203125 -20.796875 
Q 24.46875 -20.796875 20.265625 -20.09375 
Q 16.0625 -19.390625 12.109375 -17.921875 
L 12.109375 -9.1875 
Q 16.0625 -11.328125 19.921875 -12.34375 
Q 23.78125 -13.375 27.78125 -13.375 
Q 36.625 -13.375 41.015625 -8.765625 
Q 45.40625 -4.15625 45.40625 5.171875 
L 45.40625 9.625 
Q 42.625 4.78125 38.28125 2.390625 
Q 33.9375 0 27.875 0 
Q 17.828125 0 11.671875 7.65625 
Q 5.515625 15.328125 5.515625 27.984375 
Q 5.515625 40.671875 11.671875 48.328125 
Q 17.828125 56 27.875 56 
Q 33.9375 56 38.28125 53.609375 
Q 42.625 51.21875 45.40625 46.390625 
L 45.40625 54.6875 
L 54.390625 54.6875 
z
" id="DejaVuSans-103"/>
      <path d="M 12.40625 8.296875 
L 28.515625 8.296875 
L 28.515625 63.921875 
L 10.984375 60.40625 
L 10.984375 69.390625 
L 28.421875 72.90625 
L 38.28125 72.90625 
L 38.28125 8.296875 
L 54.390625 8.296875 
L 54.390625 0 
L 12.40625 0 
z
" id="DejaVuSans-49"/>
      <path d="M 31 75.875 
Q 24.46875 64.65625 21.28125 53.65625 
Q 18.109375 42.671875 18.109375 31.390625 
Q 18.109375 20.125 21.3125 9.0625 
Q 24.515625 -2 31 -13.1875 
L 23.1875 -13.1875 
Q 15.875 -1.703125 12.234375 9.375 
Q 8.59375 20.453125 8.59375 31.390625 
Q 8.59375 42.28125 12.203125 53.3125 
Q 15.828125 64.359375 23.1875 75.875 
z
" id="DejaVuSans-40"/>
      <path d="M 51.125 44 
L 36.921875 44 
L 32.8125 27.6875 
L 47.125 27.6875 
z
M 43.796875 71.78125 
L 38.71875 51.515625 
L 52.984375 51.515625 
L 58.109375 71.78125 
L 65.921875 71.78125 
L 60.890625 51.515625 
L 76.125 51.515625 
L 76.125 44 
L 58.984375 44 
L 54.984375 27.6875 
L 70.515625 27.6875 
L 70.515625 20.21875 
L 53.078125 20.21875 
L 48 0 
L 40.1875 0 
L 45.21875 20.21875 
L 30.90625 20.21875 
L 25.875 0 
L 18.015625 0 
L 23.09375 20.21875 
L 7.71875 20.21875 
L 7.71875 27.6875 
L 24.90625 27.6875 
L 29 44 
L 13.28125 44 
L 13.28125 51.515625 
L 30.90625 51.515625 
L 35.890625 71.78125 
z
" id="DejaVuSans-35"/>
      <path id="DejaVuSans-32"/>
      <path d="M 37.109375 75.984375 
L 37.109375 68.5 
L 28.515625 68.5 
Q 23.6875 68.5 21.796875 66.546875 
Q 19.921875 64.59375 19.921875 59.515625 
L 19.921875 54.6875 
L 34.71875 54.6875 
L 34.71875 47.703125 
L 19.921875 47.703125 
L 19.921875 0 
L 10.890625 0 
L 10.890625 47.703125 
L 2.296875 47.703125 
L 2.296875 54.6875 
L 10.890625 54.6875 
L 10.890625 58.5 
Q 10.890625 67.625 15.140625 71.796875 
Q 19.390625 75.984375 28.609375 75.984375 
z
" id="DejaVuSans-102"/>
      <path d="M 4.890625 31.390625 
L 31.203125 31.390625 
L 31.203125 23.390625 
L 4.890625 23.390625 
z
" id="DejaVuSans-45"/>
      <path d="M 56.203125 29.59375 
L 56.203125 25.203125 
L 14.890625 25.203125 
Q 15.484375 15.921875 20.484375 11.0625 
Q 25.484375 6.203125 34.421875 6.203125 
Q 39.59375 6.203125 44.453125 7.46875 
Q 49.3125 8.734375 54.109375 11.28125 
L 54.109375 2.78125 
Q 49.265625 0.734375 44.1875 -0.34375 
Q 39.109375 -1.421875 33.890625 -1.421875 
Q 20.796875 -1.421875 13.15625 6.1875 
Q 5.515625 13.8125 5.515625 26.8125 
Q 5.515625 40.234375 12.765625 48.109375 
Q 20.015625 56 32.328125 56 
Q 43.359375 56 49.78125 48.890625 
Q 56.203125 41.796875 56.203125 29.59375 
z
M 47.21875 32.234375 
Q 47.125 39.59375 43.09375 43.984375 
Q 39.0625 48.390625 32.421875 48.390625 
Q 24.90625 48.390625 20.390625 44.140625 
Q 15.875 39.890625 15.1875 32.171875 
z
" id="DejaVuSans-101"/>
      <path d="M 2.984375 54.6875 
L 12.5 54.6875 
L 29.59375 8.796875 
L 46.6875 54.6875 
L 56.203125 54.6875 
L 35.6875 0 
L 23.484375 0 
z
" id="DejaVuSans-118"/>
      <path d="M 34.28125 27.484375 
Q 23.390625 27.484375 19.1875 25 
Q 14.984375 22.515625 14.984375 16.5 
Q 14.984375 11.71875 18.140625 8.90625 
Q 21.296875 6.109375 26.703125 6.109375 
Q 34.1875 6.109375 38.703125 11.40625 
Q 43.21875 16.703125 43.21875 25.484375 
L 43.21875 27.484375 
z
M 52.203125 31.203125 
L 52.203125 0 
L 43.21875 0 
L 43.21875 8.296875 
Q 40.140625 3.328125 35.546875 0.953125 
Q 30.953125 -1.421875 24.3125 -1.421875 
Q 15.921875 -1.421875 10.953125 3.296875 
Q 6 8.015625 6 15.921875 
Q 6 25.140625 12.171875 29.828125 
Q 18.359375 34.515625 30.609375 34.515625 
L 43.21875 34.515625 
L 43.21875 35.40625 
Q 43.21875 41.609375 39.140625 45 
Q 35.0625 48.390625 27.6875 48.390625 
Q 23 48.390625 18.546875 47.265625 
Q 14.109375 46.140625 10.015625 43.890625 
L 10.015625 52.203125 
Q 14.9375 54.109375 19.578125 55.046875 
Q 24.21875 56 28.609375 56 
Q 40.484375 56 46.34375 49.84375 
Q 52.203125 43.703125 52.203125 31.203125 
z
" id="DejaVuSans-97"/>
      <path d="M 44.28125 53.078125 
L 44.28125 44.578125 
Q 40.484375 46.53125 36.375 47.5 
Q 32.28125 48.484375 27.875 48.484375 
Q 21.1875 48.484375 17.84375 46.4375 
Q 14.5 44.390625 14.5 40.28125 
Q 14.5 37.15625 16.890625 35.375 
Q 19.28125 33.59375 26.515625 31.984375 
L 29.59375 31.296875 
Q 39.15625 29.25 43.1875 25.515625 
Q 47.21875 21.78125 47.21875 15.09375 
Q 47.21875 7.46875 41.1875 3.015625 
Q 35.15625 -1.421875 24.609375 -1.421875 
Q 20.21875 -1.421875 15.453125 -0.5625 
Q 10.6875 0.296875 5.421875 2 
L 5.421875 11.28125 
Q 10.40625 8.6875 15.234375 7.390625 
Q 20.0625 6.109375 24.8125 6.109375 
Q 31.15625 6.109375 34.5625 8.28125 
Q 37.984375 10.453125 37.984375 14.40625 
Q 37.984375 18.0625 35.515625 20.015625 
Q 33.0625 21.96875 24.703125 23.78125 
L 21.578125 24.515625 
Q 13.234375 26.265625 9.515625 29.90625 
Q 5.8125 33.546875 5.8125 39.890625 
Q 5.8125 47.609375 11.28125 51.796875 
Q 16.75 56 26.8125 56 
Q 31.78125 56 36.171875 55.265625 
Q 40.578125 54.546875 44.28125 53.078125 
z
" id="DejaVuSans-115"/>
      <path d="M 25.390625 72.90625 
L 33.6875 72.90625 
L 8.296875 -9.28125 
L 0 -9.28125 
z
" id="DejaVuSans-47"/>
      <path d="M 45.40625 46.390625 
L 45.40625 75.984375 
L 54.390625 75.984375 
L 54.390625 0 
L 45.40625 0 
L 45.40625 8.203125 
Q 42.578125 3.328125 38.25 0.953125 
Q 33.9375 -1.421875 27.875 -1.421875 
Q 17.96875 -1.421875 11.734375 6.484375 
Q 5.515625 14.40625 5.515625 27.296875 
Q 5.515625 40.1875 11.734375 48.09375 
Q 17.96875 56 27.875 56 
Q 33.9375 56 38.25 53.625 
Q 42.578125 51.265625 45.40625 46.390625 
z
M 14.796875 27.296875 
Q 14.796875 17.390625 18.875 11.75 
Q 22.953125 6.109375 30.078125 6.109375 
Q 37.203125 6.109375 41.296875 11.75 
Q 45.40625 17.390625 45.40625 27.296875 
Q 45.40625 37.203125 41.296875 42.84375 
Q 37.203125 48.484375 30.078125 48.484375 
Q 22.953125 48.484375 18.875 42.84375 
Q 14.796875 37.203125 14.796875 27.296875 
z
" id="DejaVuSans-100"/>
      <path d="M 9.421875 54.6875 
L 18.40625 54.6875 
L 18.40625 0 
L 9.421875 0 
z
M 9.421875 75.984375 
L 18.40625 75.984375 
L 18.40625 64.59375 
L 9.421875 64.59375 
z
" id="DejaVuSans-105"/>
      <path d="M 52 44.1875 
Q 55.375 50.25 60.0625 53.125 
Q 64.75 56 71.09375 56 
Q 79.640625 56 84.28125 50.015625 
Q 88.921875 44.046875 88.921875 33.015625 
L 88.921875 0 
L 79.890625 0 
L 79.890625 32.71875 
Q 79.890625 40.578125 77.09375 44.375 
Q 74.3125 48.1875 68.609375 48.1875 
Q 61.625 48.1875 57.5625 43.546875 
Q 53.515625 38.921875 53.515625 30.90625 
L 53.515625 0 
L 44.484375 0 
L 44.484375 32.71875 
Q 44.484375 40.625 41.703125 44.40625 
Q 38.921875 48.1875 33.109375 48.1875 
Q 26.21875 48.1875 22.15625 43.53125 
Q 18.109375 38.875 18.109375 30.90625 
L 18.109375 0 
L 9.078125 0 
L 9.078125 54.6875 
L 18.109375 54.6875 
L 18.109375 46.1875 
Q 21.1875 51.21875 25.484375 53.609375 
Q 29.78125 56 35.6875 56 
Q 41.65625 56 45.828125 52.96875 
Q 50 49.953125 52 44.1875 
z
" id="DejaVuSans-109"/>
      <path d="M 54.890625 33.015625 
L 54.890625 0 
L 45.90625 0 
L 45.90625 32.71875 
Q 45.90625 40.484375 42.875 44.328125 
Q 39.84375 48.1875 33.796875 48.1875 
Q 26.515625 48.1875 22.3125 43.546875 
Q 18.109375 38.921875 18.109375 30.90625 
L 18.109375 0 
L 9.078125 0 
L 9.078125 54.6875 
L 18.109375 54.6875 
L 18.109375 46.1875 
Q 21.34375 51.125 25.703125 53.5625 
Q 30.078125 56 35.796875 56 
Q 45.21875 56 50.046875 50.171875 
Q 54.890625 44.34375 54.890625 33.015625 
z
" id="DejaVuSans-110"/>
      <path d="M 8.015625 75.875 
L 15.828125 75.875 
Q 23.140625 64.359375 26.78125 53.3125 
Q 30.421875 42.28125 30.421875 31.390625 
Q 30.421875 20.453125 26.78125 9.375 
Q 23.140625 -1.703125 15.828125 -13.1875 
L 8.015625 -13.1875 
Q 14.5 -2 17.703125 9.0625 
Q 20.90625 20.125 20.90625 31.390625 
Q 20.90625 42.671875 17.703125 53.65625 
Q 14.5 64.65625 8.015625 75.875 
z
" id="DejaVuSans-41"/>
     </defs>
     <g transform="translate(77.764078 342.217594)scale(0.17 -0.17)">
      <use xlink:href="#DejaVuSans-108"/>
      <use x="27.783203" xlink:href="#DejaVuSans-111"/>
      <use x="88.964844" xlink:href="#DejaVuSans-103"/>
      <use x="152.441406" xlink:href="#DejaVuSans-49"/>
      <use x="216.064453" xlink:href="#DejaVuSans-48"/>
      <use x="279.6875" xlink:href="#DejaVuSans-40"/>
      <use x="318.701172" xlink:href="#DejaVuSans-35"/>
      <use x="402.490234" xlink:href="#DejaVuSans-32"/>
      <use x="434.277344" xlink:href="#DejaVuSans-102"/>
      <use x="463.982422" xlink:href="#DejaVuSans-45"/>
      <use x="500.066406" xlink:href="#DejaVuSans-101"/>
      <use x="561.589844" xlink:href="#DejaVuSans-118"/>
      <use x="620.769531" xlink:href="#DejaVuSans-97"/>
      <use x="682.048828" xlink:href="#DejaVuSans-108"/>
      <use x="709.832031" xlink:href="#DejaVuSans-115"/>
      <use x="761.931641" xlink:href="#DejaVuSans-32"/>
      <use x="793.71875" xlink:href="#DejaVuSans-47"/>
      <use x="827.410156" xlink:href="#DejaVuSans-32"/>
      <use x="859.197266" xlink:href="#DejaVuSans-100"/>
      <use x="922.673828" xlink:href="#DejaVuSans-105"/>
      <use x="950.457031" xlink:href="#DejaVuSans-109"/>
      <use x="1047.869141" xlink:href="#DejaVuSans-101"/>
      <use x="1109.392578" xlink:href="#DejaVuSans-110"/>
      <use x="1172.771484" xlink:href="#DejaVuSans-115"/>
      <use x="1224.871094" xlink:href="#DejaVuSans-105"/>
      <use x="1252.654297" xlink:href="#DejaVuSans-111"/>
      <use x="1313.835938" xlink:href="#DejaVuSans-110"/>
      <use x="1377.214844" xlink:href="#DejaVuSans-41"/>
     </g>
    </g>
   </g>
   <g id="matplotlib.axis_2">
    <g id="ytick_1">
     <g id="line2d_21">
      <path clip-path="url(#pe1deb9cdc2)" d="M 57.6 298.944 
L 338.688 298.944 
" style="fill:none;stroke:#b0b0b0;stroke-linecap:square;stroke-width:0.8;"/>
     </g>
     <g id="line2d_22">
      <defs>
       <path d="M 0 0 
L -3.5 0 
" id="m1927a26438" style="stroke:#000000;stroke-width:0.8;"/>
      </defs>
      <g>
       <use style="stroke:#000000;stroke-width:0.8;" x="57.6" xlink:href="#m1927a26438" y="298.944"/>
      </g>
     </g>
     <g id="text_6">
      <!-- 0.0 -->
      <defs>
       <path d="M 10.6875 12.40625 
L 21 12.40625 
L 21 0 
L 10.6875 0 
z
" id="DejaVuSans-46"/>
      </defs>
      <g transform="translate(25.155 305.02275)scale(0.16 -0.16)">
       <use xlink:href="#DejaVuSans-48"/>
       <use x="63.623047" xlink:href="#DejaVuSans-46"/>
       <use x="95.410156" xlink:href="#DejaVuSans-48"/>
      </g>
     </g>
    </g>
    <g id="ytick_2">
     <g id="line2d_23">
      <path clip-path="url(#pe1deb9cdc2)" d="M 57.6 240.431525 
L 338.688 240.431525 
" style="fill:none;stroke:#b0b0b0;stroke-linecap:square;stroke-width:0.8;"/>
     </g>
     <g id="line2d_24">
      <g>
       <use style="stroke:#000000;stroke-width:0.8;" x="57.6" xlink:href="#m1927a26438" y="240.431525"/>
      </g>
     </g>
     <g id="text_7">
      <!-- 0.2 -->
      <g transform="translate(25.155 246.510275)scale(0.16 -0.16)">
       <use xlink:href="#DejaVuSans-48"/>
       <use x="63.623047" xlink:href="#DejaVuSans-46"/>
       <use x="95.410156" xlink:href="#DejaVuSans-50"/>
      </g>
     </g>
    </g>
    <g id="ytick_3">
     <g id="line2d_25">
      <path clip-path="url(#pe1deb9cdc2)" d="M 57.6 181.91905 
L 338.688 181.91905 
" style="fill:none;stroke:#b0b0b0;stroke-linecap:square;stroke-width:0.8;"/>
     </g>
     <g id="line2d_26">
      <g>
       <use style="stroke:#000000;stroke-width:0.8;" x="57.6" xlink:href="#m1927a26438" y="181.91905"/>
      </g>
     </g>
     <g id="text_8">
      <!-- 0.4 -->
      <g transform="translate(25.155 187.9978)scale(0.16 -0.16)">
       <use xlink:href="#DejaVuSans-48"/>
       <use x="63.623047" xlink:href="#DejaVuSans-46"/>
       <use x="95.410156" xlink:href="#DejaVuSans-52"/>
      </g>
     </g>
    </g>
    <g id="ytick_4">
     <g id="line2d_27">
      <path clip-path="url(#pe1deb9cdc2)" d="M 57.6 123.406574 
L 338.688 123.406574 
" style="fill:none;stroke:#b0b0b0;stroke-linecap:square;stroke-width:0.8;"/>
     </g>
     <g id="line2d_28">
      <g>
       <use style="stroke:#000000;stroke-width:0.8;" x="57.6" xlink:href="#m1927a26438" y="123.406574"/>
      </g>
     </g>
     <g id="text_9">
      <!-- 0.6 -->
      <g transform="translate(25.155 129.485324)scale(0.16 -0.16)">
       <use xlink:href="#DejaVuSans-48"/>
       <use x="63.623047" xlink:href="#DejaVuSans-46"/>
       <use x="95.410156" xlink:href="#DejaVuSans-54"/>
      </g>
     </g>
    </g>
    <g id="ytick_5">
     <g id="line2d_29">
      <path clip-path="url(#pe1deb9cdc2)" d="M 57.6 64.894099 
L 338.688 64.894099 
" style="fill:none;stroke:#b0b0b0;stroke-linecap:square;stroke-width:0.8;"/>
     </g>
     <g id="line2d_30">
      <g>
       <use style="stroke:#000000;stroke-width:0.8;" x="57.6" xlink:href="#m1927a26438" y="64.894099"/>
      </g>
     </g>
     <g id="text_10">
      <!-- 0.8 -->
      <defs>
       <path d="M 31.78125 34.625 
Q 24.75 34.625 20.71875 30.859375 
Q 16.703125 27.09375 16.703125 20.515625 
Q 16.703125 13.921875 20.71875 10.15625 
Q 24.75 6.390625 31.78125 6.390625 
Q 38.8125 6.390625 42.859375 10.171875 
Q 46.921875 13.96875 46.921875 20.515625 
Q 46.921875 27.09375 42.890625 30.859375 
Q 38.875 34.625 31.78125 34.625 
z
M 21.921875 38.8125 
Q 15.578125 40.375 12.03125 44.71875 
Q 8.5 49.078125 8.5 55.328125 
Q 8.5 64.0625 14.71875 69.140625 
Q 20.953125 74.21875 31.78125 74.21875 
Q 42.671875 74.21875 48.875 69.140625 
Q 55.078125 64.0625 55.078125 55.328125 
Q 55.078125 49.078125 51.53125 44.71875 
Q 48 40.375 41.703125 38.8125 
Q 48.828125 37.15625 52.796875 32.3125 
Q 56.78125 27.484375 56.78125 20.515625 
Q 56.78125 9.90625 50.3125 4.234375 
Q 43.84375 -1.421875 31.78125 -1.421875 
Q 19.734375 -1.421875 13.25 4.234375 
Q 6.78125 9.90625 6.78125 20.515625 
Q 6.78125 27.484375 10.78125 32.3125 
Q 14.796875 37.15625 21.921875 38.8125 
z
M 18.3125 54.390625 
Q 18.3125 48.734375 21.84375 45.5625 
Q 25.390625 42.390625 31.78125 42.390625 
Q 38.140625 42.390625 41.71875 45.5625 
Q 45.3125 48.734375 45.3125 54.390625 
Q 45.3125 60.0625 41.71875 63.234375 
Q 38.140625 66.40625 31.78125 66.40625 
Q 25.390625 66.40625 21.84375 63.234375 
Q 18.3125 60.0625 18.3125 54.390625 
z
" id="DejaVuSans-56"/>
      </defs>
      <g transform="translate(25.155 70.972849)scale(0.16 -0.16)">
       <use xlink:href="#DejaVuSans-48"/>
       <use x="63.623047" xlink:href="#DejaVuSans-46"/>
       <use x="95.410156" xlink:href="#DejaVuSans-56"/>
      </g>
     </g>
    </g>
    <g id="ytick_6">
     <g id="line2d_31">
      <path clip-path="url(#pe1deb9cdc2)" d="M 57.6 6.381624 
L 338.688 6.381624 
" style="fill:none;stroke:#b0b0b0;stroke-linecap:square;stroke-width:0.8;"/>
     </g>
     <g id="line2d_32">
      <g>
       <use style="stroke:#000000;stroke-width:0.8;" x="57.6" xlink:href="#m1927a26438" y="6.381624"/>
      </g>
     </g>
     <g id="text_11">
      <!-- 1.0 -->
      <g transform="translate(25.155 12.460374)scale(0.16 -0.16)">
       <use xlink:href="#DejaVuSans-49"/>
       <use x="63.623047" xlink:href="#DejaVuSans-46"/>
       <use x="95.410156" xlink:href="#DejaVuSans-48"/>
      </g>
     </g>
    </g>
    <g id="text_12">
     <!-- Fraction of function,target pairs -->
     <defs>
      <path d="M 9.8125 72.90625 
L 51.703125 72.90625 
L 51.703125 64.59375 
L 19.671875 64.59375 
L 19.671875 43.109375 
L 48.578125 43.109375 
L 48.578125 34.8125 
L 19.671875 34.8125 
L 19.671875 0 
L 9.8125 0 
z
" id="DejaVuSans-70"/>
      <path d="M 41.109375 46.296875 
Q 39.59375 47.171875 37.8125 47.578125 
Q 36.03125 48 33.890625 48 
Q 26.265625 48 22.1875 43.046875 
Q 18.109375 38.09375 18.109375 28.8125 
L 18.109375 0 
L 9.078125 0 
L 9.078125 54.6875 
L 18.109375 54.6875 
L 18.109375 46.1875 
Q 20.953125 51.171875 25.484375 53.578125 
Q 30.03125 56 36.53125 56 
Q 37.453125 56 38.578125 55.875 
Q 39.703125 55.765625 41.0625 55.515625 
z
" id="DejaVuSans-114"/>
      <path d="M 48.78125 52.59375 
L 48.78125 44.1875 
Q 44.96875 46.296875 41.140625 47.34375 
Q 37.3125 48.390625 33.40625 48.390625 
Q 24.65625 48.390625 19.8125 42.84375 
Q 14.984375 37.3125 14.984375 27.296875 
Q 14.984375 17.28125 19.8125 11.734375 
Q 24.65625 6.203125 33.40625 6.203125 
Q 37.3125 6.203125 41.140625 7.25 
Q 44.96875 8.296875 48.78125 10.40625 
L 48.78125 2.09375 
Q 45.015625 0.34375 40.984375 -0.53125 
Q 36.96875 -1.421875 32.421875 -1.421875 
Q 20.0625 -1.421875 12.78125 6.34375 
Q 5.515625 14.109375 5.515625 27.296875 
Q 5.515625 40.671875 12.859375 48.328125 
Q 20.21875 56 33.015625 56 
Q 37.15625 56 41.109375 55.140625 
Q 45.0625 54.296875 48.78125 52.59375 
z
" id="DejaVuSans-99"/>
      <path d="M 18.3125 70.21875 
L 18.3125 54.6875 
L 36.8125 54.6875 
L 36.8125 47.703125 
L 18.3125 47.703125 
L 18.3125 18.015625 
Q 18.3125 11.328125 20.140625 9.421875 
Q 21.96875 7.515625 27.59375 7.515625 
L 36.8125 7.515625 
L 36.8125 0 
L 27.59375 0 
Q 17.1875 0 13.234375 3.875 
Q 9.28125 7.765625 9.28125 18.015625 
L 9.28125 47.703125 
L 2.6875 47.703125 
L 2.6875 54.6875 
L 9.28125 54.6875 
L 9.28125 70.21875 
z
" id="DejaVuSans-116"/>
      <path d="M 8.5 21.578125 
L 8.5 54.6875 
L 17.484375 54.6875 
L 17.484375 21.921875 
Q 17.484375 14.15625 20.5 10.265625 
Q 23.53125 6.390625 29.59375 6.390625 
Q 36.859375 6.390625 41.078125 11.03125 
Q 45.3125 15.671875 45.3125 23.6875 
L 45.3125 54.6875 
L 54.296875 54.6875 
L 54.296875 0 
L 45.3125 0 
L 45.3125 8.40625 
Q 42.046875 3.421875 37.71875 1 
Q 33.40625 -1.421875 27.6875 -1.421875 
Q 18.265625 -1.421875 13.375 4.4375 
Q 8.5 10.296875 8.5 21.578125 
z
M 31.109375 56 
z
" id="DejaVuSans-117"/>
      <path d="M 11.71875 12.40625 
L 22.015625 12.40625 
L 22.015625 4 
L 14.015625 -11.625 
L 7.71875 -11.625 
L 11.71875 4 
z
" id="DejaVuSans-44"/>
      <path d="M 18.109375 8.203125 
L 18.109375 -20.796875 
L 9.078125 -20.796875 
L 9.078125 54.6875 
L 18.109375 54.6875 
L 18.109375 46.390625 
Q 20.953125 51.265625 25.265625 53.625 
Q 29.59375 56 35.59375 56 
Q 45.5625 56 51.78125 48.09375 
Q 58.015625 40.1875 58.015625 27.296875 
Q 58.015625 14.40625 51.78125 6.484375 
Q 45.5625 -1.421875 35.59375 -1.421875 
Q 29.59375 -1.421875 25.265625 0.953125 
Q 20.953125 3.328125 18.109375 8.203125 
z
M 48.6875 27.296875 
Q 48.6875 37.203125 44.609375 42.84375 
Q 40.53125 48.484375 33.40625 48.484375 
Q 26.265625 48.484375 22.1875 42.84375 
Q 18.109375 37.203125 18.109375 27.296875 
Q 18.109375 17.390625 22.1875 11.75 
Q 26.265625 6.109375 33.40625 6.109375 
Q 40.53125 6.109375 44.609375 11.75 
Q 48.6875 17.390625 48.6875 27.296875 
z
" id="DejaVuSans-112"/>
     </defs>
     <g transform="translate(17.619531 285.585)rotate(-90)scale(0.17 -0.17)">
      <use xlink:href="#DejaVuSans-70"/>
      <use x="50.269531" xlink:href="#DejaVuSans-114"/>
      <use x="91.382812" xlink:href="#DejaVuSans-97"/>
      <use x="152.662109" xlink:href="#DejaVuSans-99"/>
      <use x="207.642578" xlink:href="#DejaVuSans-116"/>
      <use x="246.851562" xlink:href="#DejaVuSans-105"/>
      <use x="274.634766" xlink:href="#DejaVuSans-111"/>
      <use x="335.816406" xlink:href="#DejaVuSans-110"/>
      <use x="399.195312" xlink:href="#DejaVuSans-32"/>
      <use x="430.982422" xlink:href="#DejaVuSans-111"/>
      <use x="492.164062" xlink:href="#DejaVuSans-102"/>
      <use x="527.369141" xlink:href="#DejaVuSans-32"/>
      <use x="559.15625" xlink:href="#DejaVuSans-102"/>
      <use x="594.361328" xlink:href="#DejaVuSans-117"/>
      <use x="657.740234" xlink:href="#DejaVuSans-110"/>
      <use x="721.119141" xlink:href="#DejaVuSans-99"/>
      <use x="776.099609" xlink:href="#DejaVuSans-116"/>
      <use x="815.308594" xlink:href="#DejaVuSans-105"/>
      <use x="843.091797" xlink:href="#DejaVuSans-111"/>
      <use x="904.273438" xlink:href="#DejaVuSans-110"/>
      <use x="967.652344" xlink:href="#DejaVuSans-44"/>
      <use x="999.439453" xlink:href="#DejaVuSans-116"/>
      <use x="1038.648438" xlink:href="#DejaVuSans-97"/>
      <use x="1099.927734" xlink:href="#DejaVuSans-114"/>
      <use x="1139.291016" xlink:href="#DejaVuSans-103"/>
      <use x="1202.767578" xlink:href="#DejaVuSans-101"/>
      <use x="1264.291016" xlink:href="#DejaVuSans-116"/>
      <use x="1303.5" xlink:href="#DejaVuSans-32"/>
      <use x="1335.287109" xlink:href="#DejaVuSans-112"/>
      <use x="1398.763672" xlink:href="#DejaVuSans-97"/>
      <use x="1460.042969" xlink:href="#DejaVuSans-105"/>
      <use x="1487.826172" xlink:href="#DejaVuSans-114"/>
      <use x="1528.939453" xlink:href="#DejaVuSans-115"/>
     </g>
    </g>
   </g>
   <g id="line2d_33">
    <defs>
     <path d="M 0 1.5 
C 0.397805 1.5 0.77937 1.341951 1.06066 1.06066 
C 1.341951 0.77937 1.5 0.397805 1.5 0 
C 1.5 -0.397805 1.341951 -0.77937 1.06066 -1.06066 
C 0.77937 -1.341951 0.397805 -1.5 0 -1.5 
C -0.397805 -1.5 -0.77937 -1.341951 -1.06066 -1.06066 
C -1.341951 -0.77937 -1.5 -0.397805 -1.5 0 
C -1.5 0.397805 -1.341951 0.77937 -1.06066 1.06066 
C -0.77937 1.341951 -0.397805 1.5 0 1.5 
z
" id="mb78a8afe90" style="stroke:#f5deb3;"/>
    </defs>
    <g>
     <use style="fill:#f5deb3;stroke:#f5deb3;" x="174.633778" xlink:href="#mb78a8afe90" y="6.381624"/>
     <use style="fill:#f5deb3;stroke:#f5deb3;" x="174.633778" xlink:href="#mb78a8afe90" y="6.381624"/>
    </g>
   </g>
   <g id="line2d_34">
    <defs>
     <path d="M 0 1.5 
C 0.397805 1.5 0.77937 1.341951 1.06066 1.06066 
C 1.341951 0.77937 1.5 0.397805 1.5 0 
C 1.5 -0.397805 1.341951 -0.77937 1.06066 -1.06066 
C 0.77937 -1.341951 0.397805 -1.5 0 -1.5 
C -0.397805 -1.5 -0.77937 -1.341951 -1.06066 -1.06066 
C -1.341951 -0.77937 -1.5 -0.397805 -1.5 0 
C -1.5 0.397805 -1.341951 0.77937 -1.06066 1.06066 
C -0.77937 1.341951 -0.397805 1.5 0 1.5 
z
" id="medba7853a9" style="stroke:#000080;"/>
    </defs>
    <g>
     <use style="fill:#000080;stroke:#000080;" x="163.656248" xlink:href="#medba7853a9" y="191.097477"/>
     <use style="fill:#000080;stroke:#000080;" x="163.656248" xlink:href="#medba7853a9" y="191.097477"/>
    </g>
   </g>
   <g id="line2d_35">
    <path d="M 38.440992 298.944 
L 38.440992 293.781135 
L 50.52898 293.781135 
L 50.52898 291.257067 
L 57.6 291.257067 
L 57.6 289.191921 
L 62.616969 289.191921 
L 62.616969 288.044617 
L 66.508432 288.044617 
L 66.508432 287.815157 
L 69.687988 287.815157 
L 69.687988 267.163695 
L 72.376266 267.163695 
L 72.376266 246.512233 
L 74.704957 246.512233 
L 74.704957 240.087334 
L 76.759008 240.087334 
L 76.759008 235.957041 
L 78.59642 235.957041 
L 78.59642 234.695008 
L 80.258561 234.695008 
L 80.258561 233.662434 
L 81.775977 233.662434 
L 81.775977 231.941479 
L 83.171864 231.941479 
L 83.171864 231.138367 
L 84.464254 231.138367 
L 84.464254 229.646872 
L 85.66744 229.646872 
L 85.66744 227.696457 
L 86.792945 227.696457 
L 86.792945 225.63131 
L 87.850195 225.63131 
L 87.850195 221.386288 
L 88.846997 221.386288 
L 88.846997 217.944377 
L 89.78989 217.944377 
L 89.78989 215.42031 
L 90.684409 215.42031 
L 90.684409 214.846658 
L 91.535274 214.846658 
L 91.535274 213.814085 
L 92.34655 213.814085 
L 92.34655 213.469894 
L 93.121756 213.469894 
L 93.121756 213.240433 
L 93.863965 213.240433 
L 93.863965 212.781512 
L 94.575872 212.781512 
L 94.575872 212.666782 
L 96.552242 212.666782 
L 96.552242 212.552051 
L 97.16421 212.552051 
L 97.16421 212.20786 
L 97.755429 212.20786 
L 97.755429 212.09313 
L 98.880934 212.09313 
L 98.880934 211.9784 
L 100.443706 211.9784 
L 100.443706 211.748939 
L 103.203018 211.748939 
L 103.203018 209.224871 
L 103.623262 209.224871 
L 103.623262 205.897691 
L 104.033617 205.897691 
L 104.033617 205.094579 
L 104.434538 205.094579 
L 104.434538 204.635658 
L 105.209745 204.635658 
L 105.209745 204.520927 
L 107.347841 204.520927 
L 107.347841 204.406197 
L 107.680028 204.406197 
L 107.680028 203.258893 
L 108.006005 203.258893 
L 108.006005 202.455781 
L 108.326001 202.455781 
L 108.326001 202.341051 
L 108.640231 202.341051 
L 108.640231 201.99686 
L 108.948899 201.99686 
L 108.948899 201.882129 
L 109.252198 201.882129 
L 109.252198 201.652669 
L 110.968922 201.652669 
L 110.968922 201.423208 
L 111.239304 201.423208 
L 111.239304 201.308478 
L 113.965867 201.308478 
L 113.965867 200.620096 
L 114.193835 200.620096 
L 114.193835 200.161174 
L 114.418861 200.161174 
L 114.418861 200.046444 
L 114.641021 200.046444 
L 114.641021 199.931713 
L 115.502395 199.931713 
L 115.502395 199.702253 
L 116.522527 199.702253 
L 116.522527 198.89914 
L 116.719583 198.89914 
L 116.719583 198.78441 
L 117.107138 198.78441 
L 117.107138 198.325489 
L 117.486268 198.325489 
L 117.486268 198.096028 
L 120.728219 198.096028 
L 120.728219 197.981298 
L 122.219665 197.981298 
L 122.219665 197.866567 
L 122.362027 197.866567 
L 122.362027 197.178185 
L 122.503236 197.178185 
L 122.503236 196.719264 
L 122.782271 196.719264 
L 122.782271 196.604533 
L 122.920132 196.604533 
L 122.920132 196.489803 
L 126.729009 196.489803 
L 126.839037 196.030882 
L 127.165014 196.030882 
L 127.165014 195.916151 
L 130.487516 195.916151 
L 130.576266 195.57196 
L 130.664567 195.57196 
L 130.664567 195.45723 
L 131.185181 195.45723 
L 131.185181 195.3425 
L 133.124876 195.3425 
L 133.124876 194.883578 
L 133.352844 194.883578 
L 133.352844 194.539387 
L 135.280614 194.539387 
L 135.280614 194.424657 
L 135.813153 194.424657 
L 135.813153 194.309927 
L 135.943785 194.309927 
L 135.943785 194.195196 
L 137.794206 194.195196 
L 137.794206 193.851005 
L 137.968891 193.851005 
L 137.968891 193.736275 
L 139.887228 193.736275 
L 139.887228 193.621545 
L 140.89556 193.621545 
L 140.89556 193.506814 
L 141.47371 193.506814 
L 141.47371 193.162623 
L 141.615302 193.162623 
L 141.615302 193.047893 
L 143.187472 193.047893 
L 143.187472 192.933162 
L 144.629556 192.933162 
L 144.629556 192.818432 
L 148.354135 192.818432 
L 148.354135 192.703702 
L 149.437669 192.703702 
L 149.437669 192.588971 
L 150.372662 192.588971 
L 150.457801 192.359511 
L 151.340991 192.359511 
L 151.340991 192.24478 
L 153.129893 192.24478 
L 153.202607 192.01532 
L 154.029268 192.01532 
L 154.029268 191.900589 
L 155.510121 191.900589 
L 155.510121 191.785859 
L 157.604152 191.785859 
L 157.604152 191.671129 
L 158.924708 191.671129 
L 158.924708 191.556398 
L 160.054568 191.556398 
L 160.054568 191.441668 
L 160.69579 191.441668 
L 160.69579 191.326938 
L 162.742845 191.326938 
L 162.742845 191.212207 
L 163.656248 191.212207 
L 163.656248 191.097477 
L 338.688 191.097477 
L 338.688 191.097477 
" style="fill:none;stroke:#000080;stroke-linecap:square;stroke-width:1.5;"/>
   </g>
   <g id="line2d_36">
    <defs>
     <path d="M 0 6 
C 1.591219 6 3.117479 5.367802 4.242641 4.242641 
C 5.367802 3.117479 6 1.591219 6 0 
C 6 -1.591219 5.367802 -3.117479 4.242641 -4.242641 
C 3.117479 -5.367802 1.591219 -6 0 -6 
C -1.591219 -6 -3.117479 -5.367802 -4.242641 -4.242641 
C -5.367802 -3.117479 -6 -1.591219 -6 0 
C -6 1.591219 -5.367802 3.117479 -4.242641 4.242641 
C -3.117479 5.367802 -1.591219 6 0 6 
z
" id="m36ce25ef30" style="stroke:#000080;stroke-width:1.5;"/>
    </defs>
    <g>
     <use style="fill-opacity:0;stroke:#000080;stroke-width:1.5;" x="72.376266" xlink:href="#m36ce25ef30" y="267.163695"/>
     <use style="fill-opacity:0;stroke:#000080;stroke-width:1.5;" x="104.033617" xlink:href="#m36ce25ef30" y="205.897691"/>
     <use style="fill-opacity:0;stroke:#000080;stroke-width:1.5;" x="163.656248" xlink:href="#m36ce25ef30" y="191.212207"/>
     <use style="fill-opacity:0;stroke:#000080;stroke-width:1.5;" x="163.656248" xlink:href="#m36ce25ef30" y="191.097477"/>
     <use style="fill-opacity:0;stroke:#000080;stroke-width:1.5;" x="163.656248" xlink:href="#m36ce25ef30" y="191.097477"/>
     <use style="fill-opacity:0;stroke:#000080;stroke-width:1.5;" x="338.688" xlink:href="#m36ce25ef30" y="191.097477"/>
    </g>
   </g>
   <g id="line2d_37">
    <path style="fill:none;stroke:#000080;stroke-linecap:square;stroke-width:1.5;"/>
    <g/>
   </g>
   <g id="line2d_38">
    <path clip-path="url(#pe1deb9cdc2)" d="M 100.443706 211.748939 
" style="fill:none;stroke:#000080;stroke-linecap:square;stroke-width:1.5;"/>
    <defs>
     <path d="M -12 12 
L 12 -12 
M -12 -12 
L 12 12 
" id="mb1bc302c53" style="stroke:#000080;"/>
    </defs>
    <g clip-path="url(#pe1deb9cdc2)">
     <use style="fill:#000080;stroke:#000080;" x="100.443706" xlink:href="#mb1bc302c53" y="211.748939"/>
    </g>
   </g>
   <g id="line2d_39">
    <defs>
     <path d="M 0 1.5 
C 0.397805 1.5 0.77937 1.341951 1.06066 1.06066 
C 1.341951 0.77937 1.5 0.397805 1.5 0 
C 1.5 -0.397805 1.341951 -0.77937 1.06066 -1.06066 
C 0.77937 -1.341951 0.397805 -1.5 0 -1.5 
C -0.397805 -1.5 -0.77937 -1.341951 -1.06066 -1.06066 
C -1.341951 -0.77937 -1.5 -0.397805 -1.5 0 
C -1.5 0.397805 -1.341951 0.77937 -1.06066 1.06066 
C -0.77937 1.341951 -0.397805 1.5 0 1.5 
z
" id="m3886e285d9" style="stroke:#ff00ff;"/>
    </defs>
    <g>
     <use style="fill:#ff00ff;stroke:#ff00ff;" x="231.853863" xlink:href="#m3886e285d9" y="101.607809"/>
     <use style="fill:#ff00ff;stroke:#ff00ff;" x="231.853863" xlink:href="#m3886e285d9" y="101.607809"/>
    </g>
   </g>
   <g id="line2d_40">
    <path d="M 38.440992 298.944 
L 38.440992 289.995033 
L 84.464254 289.995033 
L 84.464254 289.880303 
L 93.121756 289.880303 
L 93.121756 289.765573 
L 93.863965 289.765573 
L 93.863965 289.536112 
L 94.575872 289.536112 
L 94.575872 289.421381 
L 95.918017 289.421381 
L 95.918017 289.306651 
L 96.552242 289.306651 
L 96.552242 289.191921 
L 97.16421 289.191921 
L 97.16421 289.07719 
L 97.755429 289.07719 
L 97.755429 288.84773 
L 98.32726 288.84773 
L 98.32726 288.618269 
L 98.880934 288.618269 
L 98.880934 288.503539 
L 99.938184 288.503539 
L 99.938184 288.388808 
L 100.443706 288.388808 
L 100.443706 288.159348 
L 100.934985 288.159348 
L 100.934985 287.929887 
L 101.412804 287.929887 
L 101.412804 287.815157 
L 101.877879 287.815157 
L 101.877879 287.700426 
L 102.772397 287.700426 
L 102.772397 287.470966 
L 103.203018 287.470966 
L 103.203018 287.012044 
L 103.623262 287.012044 
L 103.623262 285.864741 
L 104.434538 285.864741 
L 104.434538 285.176359 
L 104.826449 285.176359 
L 104.826449 284.373246 
L 105.209745 284.373246 
L 105.209745 284.143786 
L 105.584798 284.143786 
L 105.584798 282.996482 
L 105.951954 282.996482 
L 105.951954 282.3081 
L 106.311539 282.3081 
L 106.311539 281.504988 
L 106.66386 281.504988 
L 106.66386 280.931336 
L 107.009204 280.931336 
L 107.009204 280.472415 
L 107.347841 280.472415 
L 107.347841 280.357684 
L 107.680028 280.357684 
L 107.680028 280.128224 
L 108.006005 280.128224 
L 108.006005 279.784033 
L 108.326001 279.784033 
L 108.326001 279.325111 
L 108.640231 279.325111 
L 108.640231 276.227392 
L 108.948899 276.227392 
L 108.948899 275.997931 
L 109.252198 275.997931 
L 109.252198 275.883201 
L 109.550313 275.883201 
L 109.550313 275.768471 
L 110.131676 275.768471 
L 110.131676 268.99938 
L 111.505558 268.99938 
L 111.505558 268.88465 
L 112.026172 268.88465 
L 112.026172 268.76992 
L 113.022974 268.76992 
L 113.022974 268.655189 
L 113.500792 268.655189 
L 113.500792 268.540459 
L 113.73488 268.540459 
L 113.73488 268.425729 
L 114.418861 268.425729 
L 114.418861 268.310998 
L 115.077025 268.310998 
L 115.077025 268.196268 
L 115.291007 268.196268 
L 115.291007 268.081538 
L 115.917635 268.081538 
L 115.917635 267.852077 
L 116.914437 267.852077 
L 116.914437 267.737347 
L 117.297733 267.737347 
L 117.297733 267.507886 
L 118.576578 267.507886 
L 118.576578 267.393156 
L 118.751849 267.393156 
L 118.751849 267.163695 
L 119.097192 267.163695 
L 119.097192 267.048964 
L 119.267333 267.048964 
L 119.267333 266.934234 
L 119.43583 266.934234 
L 119.43583 266.704773 
L 119.931767 266.704773 
L 119.931767 266.360582 
L 120.093994 266.360582 
L 120.093994 266.245852 
L 120.254726 266.245852 
L 120.254726 265.901661 
L 120.41399 265.901661 
L 120.41399 265.786931 
L 120.571812 265.786931 
L 120.571812 265.55747 
L 120.728219 265.55747 
L 120.728219 265.098549 
L 120.883236 265.098549 
L 120.883236 264.754358 
L 121.036887 264.754358 
L 121.036887 264.410167 
L 121.189196 264.410167 
L 121.189196 264.295436 
L 121.340187 264.295436 
L 121.340187 264.180706 
L 121.489881 264.180706 
L 121.489881 264.065976 
L 121.638301 264.065976 
L 121.638301 263.951245 
L 122.076131 263.951245 
L 122.076131 263.836515 
L 122.219665 263.836515 
L 122.219665 263.607054 
L 122.362027 263.607054 
L 122.362027 263.492324 
L 122.503236 263.492324 
L 122.503236 263.148133 
L 122.643312 263.148133 
L 122.643312 263.033402 
L 122.782271 263.033402 
L 122.782271 262.918672 
L 123.056911 262.918672 
L 123.056911 262.803942 
L 123.725164 262.803942 
L 123.725164 262.574481 
L 123.985457 262.574481 
L 123.985457 262.23029 
L 124.114161 262.23029 
L 124.114161 262.11556 
L 124.241922 262.11556 
L 124.241922 262.000829 
L 124.368753 262.000829 
L 124.368753 261.886099 
L 124.494669 261.886099 
L 124.494669 261.541908 
L 124.619683 261.541908 
L 124.619683 261.427178 
L 126.053856 261.427178 
L 126.053856 261.312447 
L 126.50685 261.312447 
L 126.50685 261.082987 
L 126.618283 261.082987 
L 126.729009 260.279874 
L 126.948374 260.279874 
L 127.05703 259.820953 
L 127.165014 259.820953 
L 127.272333 259.362031 
L 127.378995 259.362031 
L 127.48501 259.01784 
L 127.590383 259.01784 
L 127.590383 258.444189 
L 127.799239 258.444189 
L 127.902737 248.577379 
L 128.005624 248.577379 
L 128.005624 248.347918 
L 128.209594 248.347918 
L 128.310692 248.118458 
L 128.511146 248.118458 
L 128.610515 247.430076 
L 128.709321 247.430076 
L 128.709321 247.200615 
L 129.002426 247.200615 
L 129.099042 246.971154 
L 129.290685 246.971154 
L 129.385722 246.397503 
L 129.480244 246.397503 
L 129.574256 245.709121 
L 129.667765 245.709121 
L 129.760775 245.020738 
L 129.853291 245.020738 
L 129.853291 244.676547 
L 130.036864 244.676547 
L 130.127931 244.332356 
L 130.218525 244.332356 
L 130.30865 243.299783 
L 130.398313 243.299783 
L 130.487516 242.840862 
L 130.576266 242.840862 
L 130.576266 242.611401 
L 130.752422 242.611401 
L 130.839837 241.923019 
L 130.926816 241.923019 
L 130.926816 240.660985 
L 131.099484 240.660985 
L 131.185181 240.316794 
L 131.270459 240.316794 
L 131.355321 239.628412 
L 131.439773 239.628412 
L 131.439773 239.169491 
L 131.60746 239.169491 
L 131.690703 237.792727 
L 131.856005 237.792727 
L 131.938072 236.874884 
L 132.101058 236.874884 
L 132.181982 236.415963 
L 132.262533 236.415963 
L 132.342714 235.61285 
L 132.422528 235.61285 
L 132.501978 235.039199 
L 132.581068 235.039199 
L 132.659801 234.580277 
L 132.73818 234.580277 
L 132.816208 233.777165 
L 132.893889 233.777165 
L 132.971225 232.744592 
L 133.04822 232.744592 
L 133.04822 232.400401 
L 133.201197 232.400401 
L 133.277185 232.05621 
L 133.352844 232.05621 
L 133.428175 231.367828 
L 133.503183 231.367828 
L 133.57787 230.679446 
L 133.652238 230.679446 
L 133.72629 230.105794 
L 133.800029 230.105794 
L 133.873458 228.614299 
L 134.019394 228.614299 
L 134.091907 227.581726 
L 134.164119 227.581726 
L 134.236034 226.893344 
L 134.307653 226.893344 
L 134.37898 226.090232 
L 134.450015 226.090232 
L 134.520763 225.63131 
L 134.591225 225.63131 
L 134.661403 224.942928 
L 134.7313 224.942928 
L 134.800918 224.025086 
L 134.870259 224.025086 
L 134.939326 223.566164 
L 135.00812 223.566164 
L 135.076644 223.107243 
L 135.144899 223.107243 
L 135.212889 222.1894 
L 135.280614 222.1894 
L 135.348078 220.812636 
L 135.415281 220.812636 
L 135.482227 219.550602 
L 135.548916 219.550602 
L 135.615352 218.403299 
L 135.681535 218.403299 
L 135.747468 217.370726 
L 135.813153 217.370726 
L 135.878591 216.452883 
L 135.943785 216.452883 
L 136.008736 215.879231 
L 136.073445 215.879231 
L 136.137916 215.190849 
L 136.202149 215.190849 
L 136.266147 213.584624 
L 136.32991 213.584624 
L 136.393441 212.781512 
L 136.456742 212.781512 
L 136.519813 211.175287 
L 136.645276 211.175287 
L 136.707671 210.257444 
L 136.769843 210.257444 
L 136.831795 209.454332 
L 136.893527 209.454332 
L 136.955041 208.65122 
L 137.016339 208.65122 
L 137.077422 208.192298 
L 137.259399 208.192298 
L 137.319638 207.618646 
L 137.439497 207.618646 
L 137.439497 206.700804 
L 137.558536 206.700804 
L 137.617753 206.241882 
L 137.676769 206.241882 
L 137.676769 205.782961 
L 137.794206 205.782961 
L 137.852629 205.209309 
L 137.910857 205.209309 
L 137.968891 201.652669 
L 138.026733 201.652669 
L 138.084384 200.161174 
L 138.141844 200.161174 
L 138.141844 199.816983 
L 138.256201 199.816983 
L 138.313099 199.358062 
L 138.369812 199.358062 
L 138.426341 196.489803 
L 138.482688 196.489803 
L 138.538853 196.030882 
L 138.594838 196.030882 
L 138.650644 195.686691 
L 138.706272 195.686691 
L 138.816998 195.113039 
L 138.872098 195.113039 
L 138.981779 191.326938 
L 139.036363 191.326938 
L 139.145019 190.409095 
L 139.306744 190.409095 
L 139.413734 189.835443 
L 139.466984 189.835443 
L 139.520072 189.147061 
L 139.625765 189.147061 
L 139.730821 187.770297 
L 139.783113 187.770297 
L 139.887228 183.525274 
L 139.939053 183.525274 
L 140.042245 179.739173 
L 140.093612 179.739173 
L 140.195896 175.838341 
L 140.246813 175.838341 
L 140.348205 174.920499 
L 140.39868 174.920499 
L 140.44901 170.101824 
L 140.549236 170.101824 
L 140.64889 169.528172 
L 140.698504 169.528172 
L 140.747977 169.069251 
L 140.846504 169.069251 
L 140.944478 168.266139 
L 141.090414 168.266139 
L 141.187031 167.463026 
L 141.235139 167.463026 
L 141.283115 167.004105 
L 141.378673 167.004105 
L 141.47371 166.200992 
L 141.521035 166.200992 
L 141.568232 165.39788 
L 141.709062 165.39788 
L 141.755753 164.824228 
L 141.895083 164.824228 
L 141.987354 164.021116 
L 142.07914 164.021116 
L 142.07914 163.791655 
L 142.215919 163.791655 
L 142.306513 163.103273 
L 142.351634 163.103273 
L 142.441528 159.087711 
L 142.53096 159.087711 
L 142.619936 158.74352 
L 142.664255 158.74352 
L 142.752555 157.481486 
L 142.796538 157.481486 
L 142.884173 156.907835 
L 142.927826 156.907835 
L 142.927826 156.563644 
L 143.058132 156.563644 
L 143.144465 155.989992 
L 143.187472 155.989992 
L 143.273169 155.186879 
L 143.358447 155.186879 
L 143.40093 154.842688 
L 143.485587 154.842688 
L 143.569835 154.154306 
L 143.611807 154.154306 
L 143.695448 152.662812 
L 143.778691 152.662812 
L 143.820164 152.203891 
L 143.902815 152.203891 
L 143.985075 151.515508 
L 144.026061 151.515508 
L 144.107744 150.712396 
L 144.148442 150.712396 
L 144.148442 147.270486 
L 144.269971 147.270486 
L 144.269971 146.811564 
L 144.390658 146.811564 
L 144.470655 145.778991 
L 144.510517 145.778991 
L 144.589967 144.746418 
L 144.787023 144.746418 
L 144.787023 144.402227 
L 145.020588 144.402227 
L 145.020588 144.172766 
L 145.174578 144.172766 
L 145.251067 143.943306 
L 145.327221 143.943306 
L 145.403044 143.713845 
L 145.440832 143.713845 
L 145.478539 143.254924 
L 145.591172 143.254924 
L 145.628555 142.796002 
L 145.703082 142.796002 
L 145.777292 142.451811 
L 145.814278 142.451811 
L 145.924771 141.763429 
L 145.998045 141.763429 
L 146.107383 141.189778 
L 146.143677 141.189778 
L 146.252108 140.501395 
L 146.288102 140.501395 
L 146.324022 139.927744 
L 146.431341 139.927744 
L 146.538004 139.468822 
L 146.608752 139.468822 
L 146.644018 139.009901 
L 146.749392 139.009901 
L 146.854132 138.78044 
L 146.888907 138.78044 
L 146.992815 138.092058 
L 147.027314 138.092058 
L 147.130404 137.518407 
L 147.164632 137.518407 
L 147.232888 136.600564 
L 147.300877 136.600564 
L 147.402367 136.026912 
L 147.4697 136.026912 
L 147.570215 135.2238 
L 147.603592 135.2238 
L 147.70334 134.764878 
L 147.736463 134.764878 
L 147.802521 134.420687 
L 147.86833 134.420687 
L 147.96658 133.388114 
L 148.064279 133.388114 
L 148.129109 132.814462 
L 148.290138 132.814462 
L 148.354135 132.240811 
L 148.417899 132.240811 
L 148.513109 131.208238 
L 148.607802 131.208238 
L 148.639252 130.634586 
L 148.76449 130.634586 
L 148.857832 130.060934 
L 148.888835 130.060934 
L 148.981515 128.913631 
L 149.012299 128.913631 
L 149.104327 128.339979 
L 149.134896 128.339979 
L 149.195872 127.536867 
L 149.256637 127.536867 
L 149.347388 126.389563 
L 149.407627 126.389563 
L 149.497598 126.160103 
L 149.557321 126.160103 
L 149.646525 125.47172 
L 149.676158 125.47172 
L 149.764758 125.012799 
L 149.823575 125.012799 
L 149.882194 124.783338 
L 149.940618 124.783338 
L 150.027887 124.094956 
L 150.085825 124.094956 
L 150.114722 123.865496 
L 150.201126 123.865496 
L 150.229833 123.521305 
L 150.429467 123.521305 
L 150.429467 123.406574 
L 150.598782 123.406574 
L 150.654857 122.947653 
L 150.849711 122.947653 
L 150.932558 122.603462 
L 151.042412 122.603462 
L 151.097081 122.374001 
L 151.205907 122.374001 
L 151.314058 122.02981 
L 151.367883 122.02981 
L 151.421542 121.800349 
L 151.660987 121.800349 
L 151.660987 121.685619 
L 152.334802 121.685619 
L 152.385571 121.456158 
L 152.835965 121.456158 
L 152.835965 121.341428 
L 152.983548 121.341428 
L 153.008024 121.111967 
L 153.105587 121.111967 
L 153.202607 120.767776 
L 153.347132 120.767776 
L 153.395042 120.423585 
L 153.49047 120.423585 
L 153.585377 120.194125 
L 153.679772 120.194125 
L 153.726778 119.964664 
L 153.936752 119.964664 
L 154.029268 119.735203 
L 154.098334 119.735203 
L 154.098334 119.276282 
L 154.507086 119.276282 
L 154.57429 119.046821 
L 154.707925 119.046821 
L 154.707925 118.932091 
L 154.884527 118.932091 
L 154.994001 118.5879 
L 155.059358 118.5879 
L 155.059358 118.473169 
L 155.382516 118.473169 
L 155.46769 118.014248 
L 155.61575 118.014248 
L 155.699795 117.670057 
L 155.741666 117.670057 
L 155.741666 117.440596 
L 155.908152 117.440596 
L 155.990803 117.211136 
L 156.073064 117.211136 
L 156.175347 116.752214 
L 156.317544 116.752214 
L 156.378132 116.178563 
L 156.498681 116.178563 
L 156.598505 115.834372 
L 156.638275 115.834372 
L 156.677955 115.490181 
L 156.757045 115.490181 
L 156.835778 114.687068 
L 157.1279 114.687068 
L 157.147202 114.113416 
L 157.415209 114.113416 
L 157.415209 113.769225 
L 157.566527 113.769225 
L 157.622935 113.539765 
L 157.772468 113.539765 
L 157.809652 113.080843 
L 157.957601 113.080843 
L 158.049435 112.621922 
L 158.159001 112.621922 
L 158.249784 112.163001 
L 158.322071 112.163001 
L 158.322071 112.04827 
L 158.889829 112.04827 
L 158.889829 111.93354 
L 159.524055 111.93354 
L 159.524055 111.81881 
L 160.038232 111.81881 
L 160.038232 111.704079 
L 160.80562 111.704079 
L 160.80562 111.589349 
L 161.911563 111.589349 
L 161.911563 111.474619 
L 162.043181 111.474619 
L 162.043181 111.359888 
L 162.868358 111.359888 
L 162.896128 111.130427 
L 162.992975 111.130427 
L 162.992975 111.015697 
L 163.144084 111.015697 
L 163.144084 110.900967 
L 163.280329 110.900967 
L 163.280329 110.786236 
L 163.656248 110.786236 
L 163.656248 110.671506 
L 163.867476 110.671506 
L 163.867476 110.556776 
L 164.911599 110.556776 
L 165.022481 110.327315 
L 165.169236 110.327315 
L 165.169236 110.212585 
L 165.697012 110.212585 
L 165.697012 110.097854 
L 165.885039 110.097854 
L 165.920069 109.868394 
L 170.265184 109.868394 
L 170.265184 109.753663 
L 170.784729 109.753663 
L 170.784729 109.638933 
L 171.108254 109.638933 
L 171.160157 109.409472 
L 171.46837 109.409472 
L 171.46837 109.294742 
L 172.019658 109.294742 
L 172.019658 109.180012 
L 172.377733 109.180012 
L 172.377733 109.065281 
L 172.498143 109.065281 
L 172.498143 108.950551 
L 172.62567 108.950551 
L 172.696997 108.72109 
L 174.319548 108.72109 
L 174.319548 108.60636 
L 174.534408 108.60636 
L 174.534408 108.49163 
L 174.963293 108.49163 
L 174.963293 108.376899 
L 175.381884 108.376899 
L 175.381884 108.262169 
L 177.438948 108.262169 
L 177.438948 108.147439 
L 177.690222 108.147439 
L 177.737676 107.917978 
L 178.054656 107.917978 
L 178.054656 107.803248 
L 178.850589 107.803248 
L 178.917151 107.573787 
L 179.098898 107.573787 
L 179.098898 107.459056 
L 179.462173 107.459056 
L 179.553156 107.229596 
L 179.786461 107.229596 
L 179.786461 107.114865 
L 180.873738 107.114865 
L 180.873738 107.000135 
L 183.078894 107.000135 
L 183.078894 106.885405 
L 183.992154 106.885405 
L 183.992154 106.770674 
L 184.384984 106.770674 
L 184.384984 106.655944 
L 184.725567 106.655944 
L 184.725567 106.541214 
L 185.88452 106.541214 
L 185.88452 106.426483 
L 188.105672 106.426483 
L 188.105672 106.311753 
L 189.548015 106.311753 
L 189.632075 106.082292 
L 190.745784 106.082292 
L 190.745784 105.967562 
L 191.82434 105.967562 
L 191.82434 105.852832 
L 192.354972 105.852832 
L 192.354972 105.738101 
L 192.689914 105.738101 
L 192.689914 105.623371 
L 193.60302 105.623371 
L 193.60302 105.508641 
L 195.454498 105.508641 
L 195.454498 105.39391 
L 195.783811 105.39391 
L 195.783811 105.27918 
L 197.419912 105.27918 
L 197.419912 105.16445 
L 197.532602 105.16445 
L 197.532602 105.049719 
L 198.857463 105.049719 
L 198.857463 104.934989 
L 198.985804 104.934989 
L 198.985804 104.820259 
L 199.414887 104.820259 
L 199.414887 104.705528 
L 199.709757 104.705528 
L 199.709757 104.590798 
L 201.912172 104.590798 
L 201.912172 104.476068 
L 202.336471 104.476068 
L 202.336471 104.361337 
L 202.521943 104.361337 
L 202.521943 104.246607 
L 203.469653 104.246607 
L 203.469653 104.131877 
L 204.765332 104.131877 
L 204.765332 104.017146 
L 205.951408 104.017146 
L 205.951408 103.902416 
L 206.861251 103.902416 
L 206.861251 103.787685 
L 207.006722 103.787685 
L 207.006722 103.672955 
L 207.962067 103.672955 
L 207.962067 103.558225 
L 208.281568 103.558225 
L 208.281568 103.443494 
L 209.224894 103.443494 
L 209.224894 103.328764 
L 210.823269 103.328764 
L 210.823269 103.214034 
L 211.717743 103.214034 
L 211.717743 103.099303 
L 211.867343 103.099303 
L 211.867343 102.984573 
L 213.22566 102.984573 
L 213.22566 102.869843 
L 213.481566 102.869843 
L 213.481566 102.755112 
L 213.906604 102.755112 
L 213.906604 102.640382 
L 216.539274 102.640382 
L 216.539274 102.525652 
L 217.706701 102.525652 
L 217.706701 102.410921 
L 217.971122 102.410921 
L 217.971122 102.296191 
L 219.63262 102.296191 
L 219.63262 102.181461 
L 220.010752 102.181461 
L 220.010752 102.06673 
L 220.308804 102.06673 
L 220.308804 101.952 
L 222.008227 101.952 
L 222.008227 101.83727 
L 225.333765 101.83727 
L 225.333765 101.722539 
L 231.853863 101.722539 
L 231.853863 101.607809 
L 338.688 101.607809 
L 338.688 101.607809 
" style="fill:none;stroke:#ff00ff;stroke-linecap:square;stroke-width:1.5;"/>
   </g>
   <g id="line2d_41">
    <defs>
     <path d="M -0 8.485281 
L 5.091169 0 
L 0 -8.485281 
L -5.091169 -0 
z
" id="m30a9bae26c" style="stroke:#ff00ff;stroke-linejoin:miter;stroke-width:1.5;"/>
    </defs>
    <g>
     <use style="fill-opacity:0;stroke:#ff00ff;stroke-linejoin:miter;stroke-width:1.5;" x="136.202149" xlink:href="#m30a9bae26c" y="214.387737"/>
     <use style="fill-opacity:0;stroke:#ff00ff;stroke-linejoin:miter;stroke-width:1.5;" x="156.598505" xlink:href="#m30a9bae26c" y="115.834372"/>
     <use style="fill-opacity:0;stroke:#ff00ff;stroke-linejoin:miter;stroke-width:1.5;" x="231.853863" xlink:href="#m30a9bae26c" y="101.722539"/>
     <use style="fill-opacity:0;stroke:#ff00ff;stroke-linejoin:miter;stroke-width:1.5;" x="231.853863" xlink:href="#m30a9bae26c" y="101.607809"/>
     <use style="fill-opacity:0;stroke:#ff00ff;stroke-linejoin:miter;stroke-width:1.5;" x="231.853863" xlink:href="#m30a9bae26c" y="101.607809"/>
     <use style="fill-opacity:0;stroke:#ff00ff;stroke-linejoin:miter;stroke-width:1.5;" x="338.688" xlink:href="#m30a9bae26c" y="101.607809"/>
    </g>
   </g>
   <g id="line2d_42">
    <path style="fill:none;stroke:#ff00ff;stroke-linecap:square;stroke-width:1.5;"/>
    <g/>
   </g>
   <g id="line2d_43">
    <path clip-path="url(#pe1deb9cdc2)" d="M 158.213527 112.277731 
" style="fill:none;stroke:#ff00ff;stroke-linecap:square;stroke-width:1.5;"/>
    <defs>
     <path d="M -12 12 
L 12 -12 
M -12 -12 
L 12 12 
" id="m6b7c2cb3ae" style="stroke:#ff00ff;"/>
    </defs>
    <g clip-path="url(#pe1deb9cdc2)">
     <use style="fill:#ff00ff;stroke:#ff00ff;" x="158.213527" xlink:href="#m6b7c2cb3ae" y="112.277731"/>
    </g>
   </g>
   <g id="line2d_44">
    <path d="M 338.688 191.097477 
L 369.60768 293.092752 
" style="fill:none;stroke:#000080;stroke-linecap:square;stroke-width:1.5;"/>
    <g>
     <use style="fill-opacity:0;stroke:#000080;stroke-width:1.5;" x="338.688" xlink:href="#m36ce25ef30" y="191.097477"/>
     <use style="fill-opacity:0;stroke:#000080;stroke-width:1.5;" x="369.60768" xlink:href="#m36ce25ef30" y="293.092752"/>
    </g>
   </g>
   <g id="line2d_45">
    <path d="M 338.688 101.607809 
L 369.60768 152.662812 
" style="fill:none;stroke:#ff00ff;stroke-linecap:square;stroke-width:1.5;"/>
    <g>
     <use style="fill-opacity:0;stroke:#ff00ff;stroke-linejoin:miter;stroke-width:1.5;" x="338.688" xlink:href="#m30a9bae26c" y="101.607809"/>
     <use style="fill-opacity:0;stroke:#ff00ff;stroke-linejoin:miter;stroke-width:1.5;" x="369.60768" xlink:href="#m30a9bae26c" y="152.662812"/>
    </g>
   </g>
   <g id="line2d_46">
    <path d="M 338.688 298.944 
L 338.688 6.381624 
" style="fill:none;stroke:#000000;stroke-linecap:square;stroke-width:1.5;"/>
   </g>
   <g id="patch_3">
    <path d="M 57.6 298.944 
L 57.6 3.456 
" style="fill:none;stroke:#000000;stroke-linecap:square;stroke-linejoin:miter;stroke-width:0.8;"/>
   </g>
   <g id="patch_4">
    <path d="M 338.688 298.944 
L 338.688 3.456 
" style="fill:none;stroke:#000000;stroke-linecap:square;stroke-linejoin:miter;stroke-width:0.8;"/>
   </g>
   <g id="patch_5">
    <path d="M 57.6 298.944 
L 338.688 298.944 
" style="fill:none;stroke:#000000;stroke-linecap:square;stroke-linejoin:miter;stroke-width:0.8;"/>
   </g>
   <g id="patch_6">
    <path d="M 57.6 3.456 
L 338.688 3.456 
" style="fill:none;stroke:#000000;stroke-linecap:square;stroke-linejoin:miter;stroke-width:0.8;"/>
   </g>
   <g id="text_13">
    <!-- gpy lcb -->
    <defs>
     <path d="M 32.171875 -5.078125 
Q 28.375 -14.84375 24.75 -17.8125 
Q 21.140625 -20.796875 15.09375 -20.796875 
L 7.90625 -20.796875 
L 7.90625 -13.28125 
L 13.1875 -13.28125 
Q 16.890625 -13.28125 18.9375 -11.515625 
Q 21 -9.765625 23.484375 -3.21875 
L 25.09375 0.875 
L 2.984375 54.6875 
L 12.5 54.6875 
L 29.59375 11.921875 
L 46.6875 54.6875 
L 56.203125 54.6875 
z
" id="DejaVuSans-121"/>
     <path d="M 48.6875 27.296875 
Q 48.6875 37.203125 44.609375 42.84375 
Q 40.53125 48.484375 33.40625 48.484375 
Q 26.265625 48.484375 22.1875 42.84375 
Q 18.109375 37.203125 18.109375 27.296875 
Q 18.109375 17.390625 22.1875 11.75 
Q 26.265625 6.109375 33.40625 6.109375 
Q 40.53125 6.109375 44.609375 11.75 
Q 48.6875 17.390625 48.6875 27.296875 
z
M 18.109375 46.390625 
Q 20.953125 51.265625 25.265625 53.625 
Q 29.59375 56 35.59375 56 
Q 45.5625 56 51.78125 48.09375 
Q 58.015625 40.1875 58.015625 27.296875 
Q 58.015625 14.40625 51.78125 6.484375 
Q 45.5625 -1.421875 35.59375 -1.421875 
Q 29.59375 -1.421875 25.265625 0.953125 
Q 20.953125 3.328125 18.109375 8.203125 
L 18.109375 0 
L 9.078125 0 
L 9.078125 75.984375 
L 18.109375 75.984375 
z
" id="DejaVuSans-98"/>
    </defs>
    <g transform="translate(375.22944 297.78369)scale(0.17 -0.17)">
     <use xlink:href="#DejaVuSans-103"/>
     <use x="63.476562" xlink:href="#DejaVuSans-112"/>
     <use x="126.953125" xlink:href="#DejaVuSans-121"/>
     <use x="186.132812" xlink:href="#DejaVuSans-32"/>
     <use x="217.919922" xlink:href="#DejaVuSans-108"/>
     <use x="245.703125" xlink:href="#DejaVuSans-99"/>
     <use x="300.683594" xlink:href="#DejaVuSans-98"/>
    </g>
   </g>
   <g id="text_14">
    <!-- scp fmin -->
    <g transform="translate(375.22944 157.353749)scale(0.17 -0.17)">
     <use xlink:href="#DejaVuSans-115"/>
     <use x="52.099609" xlink:href="#DejaVuSans-99"/>
     <use x="107.080078" xlink:href="#DejaVuSans-112"/>
     <use x="170.556641" xlink:href="#DejaVuSans-32"/>
     <use x="202.34375" xlink:href="#DejaVuSans-102"/>
     <use x="237.548828" xlink:href="#DejaVuSans-109"/>
     <use x="334.960938" xlink:href="#DejaVuSans-105"/>
     <use x="362.744141" xlink:href="#DejaVuSans-110"/>
    </g>
   </g>
   <g id="text_15">
    <!-- best 2009 -->
    <defs>
     <path d="M 10.984375 1.515625 
L 10.984375 10.5 
Q 14.703125 8.734375 18.5 7.8125 
Q 22.3125 6.890625 25.984375 6.890625 
Q 35.75 6.890625 40.890625 13.453125 
Q 46.046875 20.015625 46.78125 33.40625 
Q 43.953125 29.203125 39.59375 26.953125 
Q 35.25 24.703125 29.984375 24.703125 
Q 19.046875 24.703125 12.671875 31.3125 
Q 6.296875 37.9375 6.296875 49.421875 
Q 6.296875 60.640625 12.9375 67.421875 
Q 19.578125 74.21875 30.609375 74.21875 
Q 43.265625 74.21875 49.921875 64.515625 
Q 56.59375 54.828125 56.59375 36.375 
Q 56.59375 19.140625 48.40625 8.859375 
Q 40.234375 -1.421875 26.421875 -1.421875 
Q 22.703125 -1.421875 18.890625 -0.6875 
Q 15.09375 0.046875 10.984375 1.515625 
z
M 30.609375 32.421875 
Q 37.25 32.421875 41.125 36.953125 
Q 45.015625 41.5 45.015625 49.421875 
Q 45.015625 57.28125 41.125 61.84375 
Q 37.25 66.40625 30.609375 66.40625 
Q 23.96875 66.40625 20.09375 61.84375 
Q 16.21875 57.28125 16.21875 49.421875 
Q 16.21875 41.5 20.09375 36.953125 
Q 23.96875 32.421875 30.609375 32.421875 
z
" id="DejaVuSans-57"/>
    </defs>
    <g transform="translate(375.22944 16.923809)scale(0.17 -0.17)">
     <use xlink:href="#DejaVuSans-98"/>
     <use x="63.476562" xlink:href="#DejaVuSans-101"/>
     <use x="125" xlink:href="#DejaVuSans-115"/>
     <use x="177.099609" xlink:href="#DejaVuSans-116"/>
     <use x="216.308594" xlink:href="#DejaVuSans-32"/>
     <use x="248.095703" xlink:href="#DejaVuSans-50"/>
     <use x="311.71875" xlink:href="#DejaVuSans-48"/>
     <use x="375.341797" xlink:href="#DejaVuSans-48"/>
     <use x="438.964844" xlink:href="#DejaVuSans-57"/>
    </g>
   </g>
   <g id="text_16">
    <!-- bbob f1-f5, 3-D -->
    <defs>
     <path d="M 10.796875 72.90625 
L 49.515625 72.90625 
L 49.515625 64.59375 
L 19.828125 64.59375 
L 19.828125 46.734375 
Q 21.96875 47.46875 24.109375 47.828125 
Q 26.265625 48.1875 28.421875 48.1875 
Q 40.625 48.1875 47.75 41.5 
Q 54.890625 34.8125 54.890625 23.390625 
Q 54.890625 11.625 47.5625 5.09375 
Q 40.234375 -1.421875 26.90625 -1.421875 
Q 22.3125 -1.421875 17.546875 -0.640625 
Q 12.796875 0.140625 7.71875 1.703125 
L 7.71875 11.625 
Q 12.109375 9.234375 16.796875 8.0625 
Q 21.484375 6.890625 26.703125 6.890625 
Q 35.15625 6.890625 40.078125 11.328125 
Q 45.015625 15.765625 45.015625 23.390625 
Q 45.015625 31 40.078125 35.4375 
Q 35.15625 39.890625 26.703125 39.890625 
Q 22.75 39.890625 18.8125 39.015625 
Q 14.890625 38.140625 10.796875 36.28125 
z
" id="DejaVuSans-53"/>
     <path d="M 40.578125 39.3125 
Q 47.65625 37.796875 51.625 33 
Q 55.609375 28.21875 55.609375 21.1875 
Q 55.609375 10.40625 48.1875 4.484375 
Q 40.765625 -1.421875 27.09375 -1.421875 
Q 22.515625 -1.421875 17.65625 -0.515625 
Q 12.796875 0.390625 7.625 2.203125 
L 7.625 11.71875 
Q 11.71875 9.328125 16.59375 8.109375 
Q 21.484375 6.890625 26.8125 6.890625 
Q 36.078125 6.890625 40.9375 10.546875 
Q 45.796875 14.203125 45.796875 21.1875 
Q 45.796875 27.640625 41.28125 31.265625 
Q 36.765625 34.90625 28.71875 34.90625 
L 20.21875 34.90625 
L 20.21875 43.015625 
L 29.109375 43.015625 
Q 36.375 43.015625 40.234375 45.921875 
Q 44.09375 48.828125 44.09375 54.296875 
Q 44.09375 59.90625 40.109375 62.90625 
Q 36.140625 65.921875 28.71875 65.921875 
Q 24.65625 65.921875 20.015625 65.03125 
Q 15.375 64.15625 9.8125 62.3125 
L 9.8125 71.09375 
Q 15.4375 72.65625 20.34375 73.4375 
Q 25.25 74.21875 29.59375 74.21875 
Q 40.828125 74.21875 47.359375 69.109375 
Q 53.90625 64.015625 53.90625 55.328125 
Q 53.90625 49.265625 50.4375 45.09375 
Q 46.96875 40.921875 40.578125 39.3125 
z
" id="DejaVuSans-51"/>
     <path d="M 19.671875 64.796875 
L 19.671875 8.109375 
L 31.59375 8.109375 
Q 46.6875 8.109375 53.6875 14.9375 
Q 60.6875 21.78125 60.6875 36.53125 
Q 60.6875 51.171875 53.6875 57.984375 
Q 46.6875 64.796875 31.59375 64.796875 
z
M 9.8125 72.90625 
L 30.078125 72.90625 
Q 51.265625 72.90625 61.171875 64.09375 
Q 71.09375 55.28125 71.09375 36.53125 
Q 71.09375 17.671875 61.125 8.828125 
Q 51.171875 0 30.078125 0 
L 9.8125 0 
z
" id="DejaVuSans-68"/>
    </defs>
    <g transform="translate(60.41088 14.161286)scale(0.102 -0.102)">
     <use xlink:href="#DejaVuSans-98"/>
     <use x="63.476562" xlink:href="#DejaVuSans-98"/>
     <use x="126.953125" xlink:href="#DejaVuSans-111"/>
     <use x="188.134766" xlink:href="#DejaVuSans-98"/>
     <use x="251.611328" xlink:href="#DejaVuSans-32"/>
     <use x="283.398438" xlink:href="#DejaVuSans-102"/>
     <use x="318.603516" xlink:href="#DejaVuSans-49"/>
     <use x="382.226562" xlink:href="#DejaVuSans-45"/>
     <use x="418.310547" xlink:href="#DejaVuSans-102"/>
     <use x="453.515625" xlink:href="#DejaVuSans-53"/>
     <use x="517.138672" xlink:href="#DejaVuSans-44"/>
     <use x="548.925781" xlink:href="#DejaVuSans-32"/>
     <use x="580.712891" xlink:href="#DejaVuSans-51"/>
     <use x="644.335938" xlink:href="#DejaVuSans-45"/>
     <use x="680.419922" xlink:href="#DejaVuSans-68"/>
    </g>
    <!-- 51 targets: 100..1e-08 -->
    <defs>
     <path d="M 11.71875 12.40625 
L 22.015625 12.40625 
L 22.015625 0 
L 11.71875 0 
z
M 11.71875 51.703125 
L 22.015625 51.703125 
L 22.015625 39.3125 
L 11.71875 39.3125 
z
" id="DejaVuSans-58"/>
    </defs>
    <g transform="translate(60.41088 25.583055)scale(0.102 -0.102)">
     <use xlink:href="#DejaVuSans-53"/>
     <use x="63.623047" xlink:href="#DejaVuSans-49"/>
     <use x="127.246094" xlink:href="#DejaVuSans-32"/>
     <use x="159.033203" xlink:href="#DejaVuSans-116"/>
     <use x="198.242188" xlink:href="#DejaVuSans-97"/>
     <use x="259.521484" xlink:href="#DejaVuSans-114"/>
     <use x="298.884766" xlink:href="#DejaVuSans-103"/>
     <use x="362.361328" xlink:href="#DejaVuSans-101"/>
     <use x="423.884766" xlink:href="#DejaVuSans-116"/>
     <use x="463.09375" xlink:href="#DejaVuSans-115"/>
     <use x="515.193359" xlink:href="#DejaVuSans-58"/>
     <use x="548.884766" xlink:href="#DejaVuSans-32"/>
     <use x="580.671875" xlink:href="#DejaVuSans-49"/>
     <use x="644.294922" xlink:href="#DejaVuSans-48"/>
     <use x="707.917969" xlink:href="#DejaVuSans-48"/>
     <use x="771.541016" xlink:href="#DejaVuSans-46"/>
     <use x="803.328125" xlink:href="#DejaVuSans-46"/>
     <use x="835.115234" xlink:href="#DejaVuSans-49"/>
     <use x="898.738281" xlink:href="#DejaVuSans-101"/>
     <use x="960.261719" xlink:href="#DejaVuSans-45"/>
     <use x="996.345703" xlink:href="#DejaVuSans-48"/>
     <use x="1059.96875" xlink:href="#DejaVuSans-56"/>
    </g>
    <!-- 15 instances -->
    <g transform="translate(60.41088 37.004824)scale(0.102 -0.102)">
     <use xlink:href="#DejaVuSans-49"/>
     <use x="63.623047" xlink:href="#DejaVuSans-53"/>
     <use x="127.246094" xlink:href="#DejaVuSans-32"/>
     <use x="159.033203" xlink:href="#DejaVuSans-105"/>
     <use x="186.816406" xlink:href="#DejaVuSans-110"/>
     <use x="250.195312" xlink:href="#DejaVuSans-115"/>
     <use x="302.294922" xlink:href="#DejaVuSans-116"/>
     <use x="341.503906" xlink:href="#DejaVuSans-97"/>
     <use x="402.783203" xlink:href="#DejaVuSans-110"/>
     <use x="466.162109" xlink:href="#DejaVuSans-99"/>
     <use x="521.142578" xlink:href="#DejaVuSans-101"/>
     <use x="582.666016" xlink:href="#DejaVuSans-115"/>
    </g>
   </g>
   <g id="text_17">
    <!-- v2.3.3.5 -->
    <g style="fill:#808080;" transform="translate(177.692437 293.909432)scale(0.1 -0.1)">
     <use xlink:href="#DejaVuSans-118"/>
     <use x="59.179688" xlink:href="#DejaVuSans-50"/>
     <use x="122.802734" xlink:href="#DejaVuSans-46"/>
     <use x="154.589844" xlink:href="#DejaVuSans-51"/>
     <use x="218.212891" xlink:href="#DejaVuSans-46"/>
     <use x="250" xlink:href="#DejaVuSans-51"/>
     <use x="313.623047" xlink:href="#DejaVuSans-46"/>
     <use x="345.410156" xlink:href="#DejaVuSans-53"/>
    </g>
   </g>
  </g>
 </g>
 <defs>
  <clipPath id="pe1deb9cdc2">
   <rect height="295.488" width="281.088" x="57.6" y="3.456"/>
  </clipPath>
 </defs>
</svg>
