<?xml version="1.0" encoding="utf-8" standalone="no"?>
<!DOCTYPE svg PUBLIC "-//W3C//DTD SVG 1.1//EN"
  "http://www.w3.org/Graphics/SVG/1.1/DTD/svg11.dtd">
<!-- Created with matplotlib (https://matplotlib.org/) -->
<svg height="345.6pt" version="1.1" viewBox="0 0 460.8 345.6" width="460.8pt" xmlns="http://www.w3.org/2000/svg" xmlns:xlink="http://www.w3.org/1999/xlink">
 <defs>
  <style type="text/css">
*{stroke-linecap:butt;stroke-linejoin:round;}
  </style>
 </defs>
 <g id="figure_1">
  <g id="patch_1">
   <path d="M 0 345.6 
L 460.8 345.6 
L 460.8 0 
L 0 0 
z
" style="fill:#ffffff;"/>
  </g>
  <g id="axes_1">
   <g id="patch_2">
    <path d="M 57.6 298.944 
L 338.688 298.944 
L 338.688 3.456 
L 57.6 3.456 
z
" style="fill:#ffffff;"/>
   </g>
   <g id="line2d_1">
    <path d="M 45.512012 298.944 
L 45.512012 284.029055 
L 57.6 284.029055 
L 57.6 280.587145 
L 64.67102 280.587145 
L 64.67102 274.850628 
L 69.687988 274.850628 
L 69.687988 266.819504 
L 73.579452 266.819504 
L 73.579452 264.524897 
L 76.759008 264.524897 
L 76.759008 263.377593 
L 81.775977 263.377593 
L 81.775977 259.935683 
L 83.830028 259.935683 
L 83.830028 258.78838 
L 90.242884 258.78838 
L 90.242884 257.641076 
L 93.863965 257.641076 
L 93.863965 256.493773 
L 95.918017 256.493773 
L 95.918017 254.199166 
L 98.606294 254.199166 
L 98.606294 253.051863 
L 101.646892 253.051863 
L 101.646892 251.904559 
L 102.989037 251.904559 
L 102.989037 250.757256 
L 104.826449 250.757256 
L 104.826449 249.609952 
L 106.48859 249.609952 
L 106.48859 248.462649 
L 109.843417 248.462649 
L 109.843417 246.168042 
L 111.505558 246.168042 
L 111.505558 245.020738 
L 114.080224 245.020738 
L 114.080224 243.873435 
L 115.397021 243.873435 
L 115.397021 242.726132 
L 117.202696 242.726132 
L 117.202696 241.578828 
L 119.602714 241.578828 
L 119.602714 240.431525 
L 120.571812 240.431525 
L 120.571812 236.989614 
L 126.338353 236.989614 
L 126.338353 235.842311 
L 126.673734 235.842311 
L 126.673734 234.695008 
L 127.954256 234.695008 
L 127.954256 233.547704 
L 131.565689 233.547704 
L 131.565689 231.253097 
L 134.870259 231.253097 
L 134.870259 230.105794 
L 135.482227 230.105794 
L 135.482227 228.95849 
L 136.645276 228.95849 
L 136.645276 227.811187 
L 136.831795 227.811187 
L 136.831795 225.51658 
L 137.107884 225.51658 
L 137.107884 224.369277 
L 137.289545 224.369277 
L 137.289545 223.221973 
L 137.647286 223.221973 
L 137.647286 222.07467 
L 138.256201 222.07467 
L 138.256201 220.927366 
L 138.594838 220.927366 
L 138.594838 219.780063 
L 138.927025 219.780063 
L 138.927025 218.632759 
L 139.413734 218.632759 
L 139.413734 216.338153 
L 139.572998 216.338153 
L 139.652088 214.043546 
L 139.8092 214.043546 
L 139.8092 212.896242 
L 140.042245 212.896242 
L 140.11924 210.601635 
L 140.272217 210.601635 
L 140.272217 209.454332 
L 140.64889 209.454332 
L 140.64889 208.307029 
L 141.090414 208.307029 
L 141.090414 207.159725 
L 141.378673 207.159725 
L 141.378673 206.012422 
L 141.732423 206.012422 
L 141.732423 203.717815 
L 141.871938 203.717815 
L 141.871938 202.570511 
L 142.010346 202.570511 
L 142.010346 201.423208 
L 142.351634 201.423208 
L 142.351634 200.275904 
L 142.686372 200.275904 
L 142.686372 197.981298 
L 142.884173 197.981298 
L 142.949611 195.686691 
L 143.208936 195.686691 
L 143.208936 194.539387 
L 143.464461 194.539387 
L 143.527762 191.097477 
L 143.716296 191.097477 
L 143.778691 186.508263 
L 143.964547 186.508263 
L 143.964547 184.213656 
L 144.087359 184.213656 
L 144.148442 181.91905 
L 144.209312 181.91905 
L 144.269971 179.624443 
L 144.330419 179.624443 
L 144.390658 173.887925 
L 144.45069 173.887925 
L 144.45069 172.740622 
L 144.570138 172.740622 
L 144.629556 169.298712 
L 144.747789 169.298712 
L 144.747789 168.151408 
L 144.865226 168.151408 
L 144.923649 163.562195 
L 144.981877 163.562195 
L 145.039911 161.267588 
L 145.155404 161.267588 
L 145.212864 158.972981 
L 145.270136 158.972981 
L 145.327221 154.383767 
L 145.384119 154.383767 
L 145.440832 152.08916 
L 145.609873 152.08916 
L 145.609873 150.941857 
L 145.721664 150.941857 
L 145.721664 149.794553 
L 145.998045 149.794553 
L 146.107383 147.499946 
L 146.161795 147.499946 
L 146.270114 139.468822 
L 146.324022 139.468822 
L 146.431341 132.585002 
L 146.484754 132.585002 
L 146.591092 127.995788 
L 146.644018 127.995788 
L 146.749392 121.111967 
L 146.906268 121.111967 
L 146.906268 119.964664 
L 147.215849 119.964664 
L 147.215849 118.817361 
L 147.368603 118.817361 
L 147.368603 117.670057 
L 147.570215 117.670057 
L 147.570215 116.522754 
L 147.71991 116.522754 
L 147.71991 115.37545 
L 147.917524 115.37545 
L 148.015498 111.93354 
L 148.064279 111.93354 
L 148.161434 108.49163 
L 148.354135 108.49163 
L 148.449693 90.134775 
L 148.497276 90.134775 
L 148.592055 83.250954 
L 148.639252 83.250954 
L 148.686322 74.072526 
L 148.780082 74.072526 
L 148.87334 62.599492 
L 148.919783 62.599492 
L 148.919783 61.452189 
L 149.058374 61.452189 
L 149.15016 59.157582 
L 149.332295 59.157582 
L 149.332295 58.010278 
L 149.467659 58.010278 
L 149.557321 55.715672 
L 153.395042 55.715672 
L 153.395042 54.568368 
L 162.432178 54.568368 
L 162.432178 53.421065 
L 163.287113 53.421065 
L 163.287113 52.273761 
L 177.390674 52.273761 
L 177.390674 51.126458 
L 192.542267 51.126458 
L 192.542267 49.979154 
L 194.017812 49.979154 
L 194.017812 48.831851 
L 199.59173 48.831851 
L 199.59173 47.684547 
L 203.330261 47.684547 
L 203.330261 46.537244 
L 214.187978 46.537244 
L 214.187978 45.389941 
L 217.429694 45.389941 
L 217.447023 43.095334 
L 220.833339 43.095334 
L 220.833339 41.94803 
L 220.959002 41.94803 
L 220.995483 39.653423 
L 221.085245 39.653423 
L 221.162027 37.358817 
L 221.319697 37.358817 
L 221.319697 36.211513 
L 221.483188 36.211513 
L 221.53302 33.916906 
L 221.915344 33.916906 
L 221.918872 6.381624 
L 338.688 6.381624 
L 338.688 6.381624 
" style="fill:none;stroke:#f5deb3;stroke-linecap:square;stroke-width:4;"/>
   </g>
   <g id="line2d_2">
    <defs>
     <path d="M -0 7.778175 
L 7.778175 0 
L 0 -7.778175 
L -7.778175 -0 
z
" id="ma307112017" style="stroke:#f5deb3;stroke-linejoin:miter;stroke-width:1.5;"/>
    </defs>
    <g>
     <use style="fill:#f5deb3;stroke:#f5deb3;stroke-linejoin:miter;stroke-width:1.5;" x="111.505558" xlink:href="#ma307112017" y="246.168042"/>
     <use style="fill:#f5deb3;stroke:#f5deb3;stroke-linejoin:miter;stroke-width:1.5;" x="148.064279" xlink:href="#ma307112017" y="111.93354"/>
     <use style="fill:#f5deb3;stroke:#f5deb3;stroke-linejoin:miter;stroke-width:1.5;" x="214.187978" xlink:href="#ma307112017" y="46.537244"/>
     <use style="fill:#f5deb3;stroke:#f5deb3;stroke-linejoin:miter;stroke-width:1.5;" x="221.918872" xlink:href="#ma307112017" y="10.970838"/>
     <use style="fill:#f5deb3;stroke:#f5deb3;stroke-linejoin:miter;stroke-width:1.5;" x="221.918872" xlink:href="#ma307112017" y="6.381624"/>
     <use style="fill:#f5deb3;stroke:#f5deb3;stroke-linejoin:miter;stroke-width:1.5;" x="338.688" xlink:href="#ma307112017" y="6.381624"/>
    </g>
   </g>
   <g id="line2d_3">
    <path style="fill:none;stroke:#f5deb3;stroke-linecap:square;stroke-width:4;"/>
    <g/>
   </g>
   <g id="line2d_4">
    <path d="M 338.688 6.381624 
L 369.60768 12.232871 
" style="fill:none;stroke:#f5deb3;stroke-linecap:square;stroke-width:4;"/>
    <g>
     <use style="fill:#f5deb3;stroke:#f5deb3;stroke-linejoin:miter;stroke-width:1.5;" x="338.688" xlink:href="#ma307112017" y="6.381624"/>
     <use style="fill:#f5deb3;stroke:#f5deb3;stroke-linejoin:miter;stroke-width:1.5;" x="369.60768" xlink:href="#ma307112017" y="12.232871"/>
    </g>
   </g>
   <g id="matplotlib.axis_1">
    <g id="xtick_1">
     <g id="line2d_5">
      <path clip-path="url(#p48fad1e1fe)" d="M 57.6 298.944 
L 57.6 3.456 
" style="fill:none;stroke:#b0b0b0;stroke-linecap:square;stroke-width:0.8;"/>
     </g>
     <g id="line2d_6">
      <defs>
       <path d="M 0 0 
L 0 3.5 
" id="m4dcb0886dd" style="stroke:#000000;stroke-width:0.8;"/>
      </defs>
      <g>
       <use style="stroke:#000000;stroke-width:0.8;" x="57.6" xlink:href="#m4dcb0886dd" y="298.944"/>
      </g>
     </g>
     <g id="text_1">
      <!-- 0 -->
      <defs>
       <path d="M 31.78125 66.40625 
Q 24.171875 66.40625 20.328125 58.90625 
Q 16.5 51.421875 16.5 36.375 
Q 16.5 21.390625 20.328125 13.890625 
Q 24.171875 6.390625 31.78125 6.390625 
Q 39.453125 6.390625 43.28125 13.890625 
Q 47.125 21.390625 47.125 36.375 
Q 47.125 51.421875 43.28125 58.90625 
Q 39.453125 66.40625 31.78125 66.40625 
z
M 31.78125 74.21875 
Q 44.046875 74.21875 50.515625 64.515625 
Q 56.984375 54.828125 56.984375 36.375 
Q 56.984375 17.96875 50.515625 8.265625 
Q 44.046875 -1.421875 31.78125 -1.421875 
Q 19.53125 -1.421875 13.0625 8.265625 
Q 6.59375 17.96875 6.59375 36.375 
Q 6.59375 54.828125 13.0625 64.515625 
Q 19.53125 74.21875 31.78125 74.21875 
z
" id="DejaVuSans-48"/>
      </defs>
      <g transform="translate(51.2375 321.140875)scale(0.2 -0.2)">
       <use xlink:href="#DejaVuSans-48"/>
      </g>
     </g>
    </g>
    <g id="xtick_2">
     <g id="line2d_7">
      <path clip-path="url(#p48fad1e1fe)" d="M 137.910857 298.944 
L 137.910857 3.456 
" style="fill:none;stroke:#b0b0b0;stroke-linecap:square;stroke-width:0.8;"/>
     </g>
     <g id="line2d_8">
      <g>
       <use style="stroke:#000000;stroke-width:0.8;" x="137.910857" xlink:href="#m4dcb0886dd" y="298.944"/>
      </g>
     </g>
     <g id="text_2">
      <!-- 2 -->
      <defs>
       <path d="M 19.1875 8.296875 
L 53.609375 8.296875 
L 53.609375 0 
L 7.328125 0 
L 7.328125 8.296875 
Q 12.9375 14.109375 22.625 23.890625 
Q 32.328125 33.6875 34.8125 36.53125 
Q 39.546875 41.84375 41.421875 45.53125 
Q 43.3125 49.21875 43.3125 52.78125 
Q 43.3125 58.59375 39.234375 62.25 
Q 35.15625 65.921875 28.609375 65.921875 
Q 23.96875 65.921875 18.8125 64.3125 
Q 13.671875 62.703125 7.8125 59.421875 
L 7.8125 69.390625 
Q 13.765625 71.78125 18.9375 73 
Q 24.125 74.21875 28.421875 74.21875 
Q 39.75 74.21875 46.484375 68.546875 
Q 53.21875 62.890625 53.21875 53.421875 
Q 53.21875 48.921875 51.53125 44.890625 
Q 49.859375 40.875 45.40625 35.40625 
Q 44.1875 33.984375 37.640625 27.21875 
Q 31.109375 20.453125 19.1875 8.296875 
z
" id="DejaVuSans-50"/>
      </defs>
      <g transform="translate(131.548357 321.140875)scale(0.2 -0.2)">
       <use xlink:href="#DejaVuSans-50"/>
      </g>
     </g>
    </g>
    <g id="xtick_3">
     <g id="line2d_9">
      <path clip-path="url(#p48fad1e1fe)" d="M 218.221714 298.944 
L 218.221714 3.456 
" style="fill:none;stroke:#b0b0b0;stroke-linecap:square;stroke-width:0.8;"/>
     </g>
     <g id="line2d_10">
      <g>
       <use style="stroke:#000000;stroke-width:0.8;" x="218.221714" xlink:href="#m4dcb0886dd" y="298.944"/>
      </g>
     </g>
     <g id="text_3">
      <!-- 4 -->
      <defs>
       <path d="M 37.796875 64.3125 
L 12.890625 25.390625 
L 37.796875 25.390625 
z
M 35.203125 72.90625 
L 47.609375 72.90625 
L 47.609375 25.390625 
L 58.015625 25.390625 
L 58.015625 17.1875 
L 47.609375 17.1875 
L 47.609375 0 
L 37.796875 0 
L 37.796875 17.1875 
L 4.890625 17.1875 
L 4.890625 26.703125 
z
" id="DejaVuSans-52"/>
      </defs>
      <g transform="translate(211.859214 321.140875)scale(0.2 -0.2)">
       <use xlink:href="#DejaVuSans-52"/>
      </g>
     </g>
    </g>
    <g id="xtick_4">
     <g id="line2d_11">
      <path clip-path="url(#p48fad1e1fe)" d="M 298.532571 298.944 
L 298.532571 3.456 
" style="fill:none;stroke:#b0b0b0;stroke-linecap:square;stroke-width:0.8;"/>
     </g>
     <g id="line2d_12">
      <g>
       <use style="stroke:#000000;stroke-width:0.8;" x="298.532571" xlink:href="#m4dcb0886dd" y="298.944"/>
      </g>
     </g>
     <g id="text_4">
      <!-- 6 -->
      <defs>
       <path d="M 33.015625 40.375 
Q 26.375 40.375 22.484375 35.828125 
Q 18.609375 31.296875 18.609375 23.390625 
Q 18.609375 15.53125 22.484375 10.953125 
Q 26.375 6.390625 33.015625 6.390625 
Q 39.65625 6.390625 43.53125 10.953125 
Q 47.40625 15.53125 47.40625 23.390625 
Q 47.40625 31.296875 43.53125 35.828125 
Q 39.65625 40.375 33.015625 40.375 
z
M 52.59375 71.296875 
L 52.59375 62.3125 
Q 48.875 64.0625 45.09375 64.984375 
Q 41.3125 65.921875 37.59375 65.921875 
Q 27.828125 65.921875 22.671875 59.328125 
Q 17.53125 52.734375 16.796875 39.40625 
Q 19.671875 43.65625 24.015625 45.921875 
Q 28.375 48.1875 33.59375 48.1875 
Q 44.578125 48.1875 50.953125 41.515625 
Q 57.328125 34.859375 57.328125 23.390625 
Q 57.328125 12.15625 50.6875 5.359375 
Q 44.046875 -1.421875 33.015625 -1.421875 
Q 20.359375 -1.421875 13.671875 8.265625 
Q 6.984375 17.96875 6.984375 36.375 
Q 6.984375 53.65625 15.1875 63.9375 
Q 23.390625 74.21875 37.203125 74.21875 
Q 40.921875 74.21875 44.703125 73.484375 
Q 48.484375 72.75 52.59375 71.296875 
z
" id="DejaVuSans-54"/>
      </defs>
      <g transform="translate(292.170071 321.140875)scale(0.2 -0.2)">
       <use xlink:href="#DejaVuSans-54"/>
      </g>
     </g>
    </g>
    <g id="xtick_5">
     <g id="line2d_13">
      <path clip-path="url(#p48fad1e1fe)" d="M 97.755429 298.944 
L 97.755429 3.456 
" style="fill:none;stroke:#b0b0b0;stroke-linecap:square;stroke-width:0.8;"/>
     </g>
     <g id="line2d_14">
      <defs>
       <path d="M 0 0 
L 0 2 
" id="mee90aabe8c" style="stroke:#000000;stroke-width:0.6;"/>
      </defs>
      <g>
       <use style="stroke:#000000;stroke-width:0.6;" x="97.755429" xlink:href="#mee90aabe8c" y="298.944"/>
      </g>
     </g>
    </g>
    <g id="xtick_6">
     <g id="line2d_15">
      <path clip-path="url(#p48fad1e1fe)" d="M 178.066286 298.944 
L 178.066286 3.456 
" style="fill:none;stroke:#b0b0b0;stroke-linecap:square;stroke-width:0.8;"/>
     </g>
     <g id="line2d_16">
      <g>
       <use style="stroke:#000000;stroke-width:0.6;" x="178.066286" xlink:href="#mee90aabe8c" y="298.944"/>
      </g>
     </g>
    </g>
    <g id="xtick_7">
     <g id="line2d_17">
      <path clip-path="url(#p48fad1e1fe)" d="M 258.377143 298.944 
L 258.377143 3.456 
" style="fill:none;stroke:#b0b0b0;stroke-linecap:square;stroke-width:0.8;"/>
     </g>
     <g id="line2d_18">
      <g>
       <use style="stroke:#000000;stroke-width:0.6;" x="258.377143" xlink:href="#mee90aabe8c" y="298.944"/>
      </g>
     </g>
    </g>
    <g id="xtick_8">
     <g id="line2d_19">
      <path clip-path="url(#p48fad1e1fe)" d="M 338.688 298.944 
L 338.688 3.456 
" style="fill:none;stroke:#b0b0b0;stroke-linecap:square;stroke-width:0.8;"/>
     </g>
     <g id="line2d_20">
      <g>
       <use style="stroke:#000000;stroke-width:0.6;" x="338.688" xlink:href="#mee90aabe8c" y="298.944"/>
      </g>
     </g>
    </g>
    <g id="text_5">
     <!-- log10(# f-evals / dimension) -->
     <defs>
      <path d="M 9.421875 75.984375 
L 18.40625 75.984375 
L 18.40625 0 
L 9.421875 0 
z
" id="DejaVuSans-108"/>
      <path d="M 30.609375 48.390625 
Q 23.390625 48.390625 19.1875 42.75 
Q 14.984375 37.109375 14.984375 27.296875 
Q 14.984375 17.484375 19.15625 11.84375 
Q 23.34375 6.203125 30.609375 6.203125 
Q 37.796875 6.203125 41.984375 11.859375 
Q 46.1875 17.53125 46.1875 27.296875 
Q 46.1875 37.015625 41.984375 42.703125 
Q 37.796875 48.390625 30.609375 48.390625 
z
M 30.609375 56 
Q 42.328125 56 49.015625 48.375 
Q 55.71875 40.765625 55.71875 27.296875 
Q 55.71875 13.875 49.015625 6.21875 
Q 42.328125 -1.421875 30.609375 -1.421875 
Q 18.84375 -1.421875 12.171875 6.21875 
Q 5.515625 13.875 5.515625 27.296875 
Q 5.515625 40.765625 12.171875 48.375 
Q 18.84375 56 30.609375 56 
z
" id="DejaVuSans-111"/>
      <path d="M 45.40625 27.984375 
Q 45.40625 37.75 41.375 43.109375 
Q 37.359375 48.484375 30.078125 48.484375 
Q 22.859375 48.484375 18.828125 43.109375 
Q 14.796875 37.75 14.796875 27.984375 
Q 14.796875 18.265625 18.828125 12.890625 
Q 22.859375 7.515625 30.078125 7.515625 
Q 37.359375 7.515625 41.375 12.890625 
Q 45.40625 18.265625 45.40625 27.984375 
z
M 54.390625 6.78125 
Q 54.390625 -7.171875 48.1875 -13.984375 
Q 42 -20.796875 29.203125 -20.796875 
Q 24.46875 -20.796875 20.265625 -20.09375 
Q 16.0625 -19.390625 12.109375 -17.921875 
L 12.109375 -9.1875 
Q 16.0625 -11.328125 19.921875 -12.34375 
Q 23.78125 -13.375 27.78125 -13.375 
Q 36.625 -13.375 41.015625 -8.765625 
Q 45.40625 -4.15625 45.40625 5.171875 
L 45.40625 9.625 
Q 42.625 4.78125 38.28125 2.390625 
Q 33.9375 0 27.875 0 
Q 17.828125 0 11.671875 7.65625 
Q 5.515625 15.328125 5.515625 27.984375 
Q 5.515625 40.671875 11.671875 48.328125 
Q 17.828125 56 27.875 56 
Q 33.9375 56 38.28125 53.609375 
Q 42.625 51.21875 45.40625 46.390625 
L 45.40625 54.6875 
L 54.390625 54.6875 
z
" id="DejaVuSans-103"/>
      <path d="M 12.40625 8.296875 
L 28.515625 8.296875 
L 28.515625 63.921875 
L 10.984375 60.40625 
L 10.984375 69.390625 
L 28.421875 72.90625 
L 38.28125 72.90625 
L 38.28125 8.296875 
L 54.390625 8.296875 
L 54.390625 0 
L 12.40625 0 
z
" id="DejaVuSans-49"/>
      <path d="M 31 75.875 
Q 24.46875 64.65625 21.28125 53.65625 
Q 18.109375 42.671875 18.109375 31.390625 
Q 18.109375 20.125 21.3125 9.0625 
Q 24.515625 -2 31 -13.1875 
L 23.1875 -13.1875 
Q 15.875 -1.703125 12.234375 9.375 
Q 8.59375 20.453125 8.59375 31.390625 
Q 8.59375 42.28125 12.203125 53.3125 
Q 15.828125 64.359375 23.1875 75.875 
z
" id="DejaVuSans-40"/>
      <path d="M 51.125 44 
L 36.921875 44 
L 32.8125 27.6875 
L 47.125 27.6875 
z
M 43.796875 71.78125 
L 38.71875 51.515625 
L 52.984375 51.515625 
L 58.109375 71.78125 
L 65.921875 71.78125 
L 60.890625 51.515625 
L 76.125 51.515625 
L 76.125 44 
L 58.984375 44 
L 54.984375 27.6875 
L 70.515625 27.6875 
L 70.515625 20.21875 
L 53.078125 20.21875 
L 48 0 
L 40.1875 0 
L 45.21875 20.21875 
L 30.90625 20.21875 
L 25.875 0 
L 18.015625 0 
L 23.09375 20.21875 
L 7.71875 20.21875 
L 7.71875 27.6875 
L 24.90625 27.6875 
L 29 44 
L 13.28125 44 
L 13.28125 51.515625 
L 30.90625 51.515625 
L 35.890625 71.78125 
z
" id="DejaVuSans-35"/>
      <path id="DejaVuSans-32"/>
      <path d="M 37.109375 75.984375 
L 37.109375 68.5 
L 28.515625 68.5 
Q 23.6875 68.5 21.796875 66.546875 
Q 19.921875 64.59375 19.921875 59.515625 
L 19.921875 54.6875 
L 34.71875 54.6875 
L 34.71875 47.703125 
L 19.921875 47.703125 
L 19.921875 0 
L 10.890625 0 
L 10.890625 47.703125 
L 2.296875 47.703125 
L 2.296875 54.6875 
L 10.890625 54.6875 
L 10.890625 58.5 
Q 10.890625 67.625 15.140625 71.796875 
Q 19.390625 75.984375 28.609375 75.984375 
z
" id="DejaVuSans-102"/>
      <path d="M 4.890625 31.390625 
L 31.203125 31.390625 
L 31.203125 23.390625 
L 4.890625 23.390625 
z
" id="DejaVuSans-45"/>
      <path d="M 56.203125 29.59375 
L 56.203125 25.203125 
L 14.890625 25.203125 
Q 15.484375 15.921875 20.484375 11.0625 
Q 25.484375 6.203125 34.421875 6.203125 
Q 39.59375 6.203125 44.453125 7.46875 
Q 49.3125 8.734375 54.109375 11.28125 
L 54.109375 2.78125 
Q 49.265625 0.734375 44.1875 -0.34375 
Q 39.109375 -1.421875 33.890625 -1.421875 
Q 20.796875 -1.421875 13.15625 6.1875 
Q 5.515625 13.8125 5.515625 26.8125 
Q 5.515625 40.234375 12.765625 48.109375 
Q 20.015625 56 32.328125 56 
Q 43.359375 56 49.78125 48.890625 
Q 56.203125 41.796875 56.203125 29.59375 
z
M 47.21875 32.234375 
Q 47.125 39.59375 43.09375 43.984375 
Q 39.0625 48.390625 32.421875 48.390625 
Q 24.90625 48.390625 20.390625 44.140625 
Q 15.875 39.890625 15.1875 32.171875 
z
" id="DejaVuSans-101"/>
      <path d="M 2.984375 54.6875 
L 12.5 54.6875 
L 29.59375 8.796875 
L 46.6875 54.6875 
L 56.203125 54.6875 
L 35.6875 0 
L 23.484375 0 
z
" id="DejaVuSans-118"/>
      <path d="M 34.28125 27.484375 
Q 23.390625 27.484375 19.1875 25 
Q 14.984375 22.515625 14.984375 16.5 
Q 14.984375 11.71875 18.140625 8.90625 
Q 21.296875 6.109375 26.703125 6.109375 
Q 34.1875 6.109375 38.703125 11.40625 
Q 43.21875 16.703125 43.21875 25.484375 
L 43.21875 27.484375 
z
M 52.203125 31.203125 
L 52.203125 0 
L 43.21875 0 
L 43.21875 8.296875 
Q 40.140625 3.328125 35.546875 0.953125 
Q 30.953125 -1.421875 24.3125 -1.421875 
Q 15.921875 -1.421875 10.953125 3.296875 
Q 6 8.015625 6 15.921875 
Q 6 25.140625 12.171875 29.828125 
Q 18.359375 34.515625 30.609375 34.515625 
L 43.21875 34.515625 
L 43.21875 35.40625 
Q 43.21875 41.609375 39.140625 45 
Q 35.0625 48.390625 27.6875 48.390625 
Q 23 48.390625 18.546875 47.265625 
Q 14.109375 46.140625 10.015625 43.890625 
L 10.015625 52.203125 
Q 14.9375 54.109375 19.578125 55.046875 
Q 24.21875 56 28.609375 56 
Q 40.484375 56 46.34375 49.84375 
Q 52.203125 43.703125 52.203125 31.203125 
z
" id="DejaVuSans-97"/>
      <path d="M 44.28125 53.078125 
L 44.28125 44.578125 
Q 40.484375 46.53125 36.375 47.5 
Q 32.28125 48.484375 27.875 48.484375 
Q 21.1875 48.484375 17.84375 46.4375 
Q 14.5 44.390625 14.5 40.28125 
Q 14.5 37.15625 16.890625 35.375 
Q 19.28125 33.59375 26.515625 31.984375 
L 29.59375 31.296875 
Q 39.15625 29.25 43.1875 25.515625 
Q 47.21875 21.78125 47.21875 15.09375 
Q 47.21875 7.46875 41.1875 3.015625 
Q 35.15625 -1.421875 24.609375 -1.421875 
Q 20.21875 -1.421875 15.453125 -0.5625 
Q 10.6875 0.296875 5.421875 2 
L 5.421875 11.28125 
Q 10.40625 8.6875 15.234375 7.390625 
Q 20.0625 6.109375 24.8125 6.109375 
Q 31.15625 6.109375 34.5625 8.28125 
Q 37.984375 10.453125 37.984375 14.40625 
Q 37.984375 18.0625 35.515625 20.015625 
Q 33.0625 21.96875 24.703125 23.78125 
L 21.578125 24.515625 
Q 13.234375 26.265625 9.515625 29.90625 
Q 5.8125 33.546875 5.8125 39.890625 
Q 5.8125 47.609375 11.28125 51.796875 
Q 16.75 56 26.8125 56 
Q 31.78125 56 36.171875 55.265625 
Q 40.578125 54.546875 44.28125 53.078125 
z
" id="DejaVuSans-115"/>
      <path d="M 25.390625 72.90625 
L 33.6875 72.90625 
L 8.296875 -9.28125 
L 0 -9.28125 
z
" id="DejaVuSans-47"/>
      <path d="M 45.40625 46.390625 
L 45.40625 75.984375 
L 54.390625 75.984375 
L 54.390625 0 
L 45.40625 0 
L 45.40625 8.203125 
Q 42.578125 3.328125 38.25 0.953125 
Q 33.9375 -1.421875 27.875 -1.421875 
Q 17.96875 -1.421875 11.734375 6.484375 
Q 5.515625 14.40625 5.515625 27.296875 
Q 5.515625 40.1875 11.734375 48.09375 
Q 17.96875 56 27.875 56 
Q 33.9375 56 38.25 53.625 
Q 42.578125 51.265625 45.40625 46.390625 
z
M 14.796875 27.296875 
Q 14.796875 17.390625 18.875 11.75 
Q 22.953125 6.109375 30.078125 6.109375 
Q 37.203125 6.109375 41.296875 11.75 
Q 45.40625 17.390625 45.40625 27.296875 
Q 45.40625 37.203125 41.296875 42.84375 
Q 37.203125 48.484375 30.078125 48.484375 
Q 22.953125 48.484375 18.875 42.84375 
Q 14.796875 37.203125 14.796875 27.296875 
z
" id="DejaVuSans-100"/>
      <path d="M 9.421875 54.6875 
L 18.40625 54.6875 
L 18.40625 0 
L 9.421875 0 
z
M 9.421875 75.984375 
L 18.40625 75.984375 
L 18.40625 64.59375 
L 9.421875 64.59375 
z
" id="DejaVuSans-105"/>
      <path d="M 52 44.1875 
Q 55.375 50.25 60.0625 53.125 
Q 64.75 56 71.09375 56 
Q 79.640625 56 84.28125 50.015625 
Q 88.921875 44.046875 88.921875 33.015625 
L 88.921875 0 
L 79.890625 0 
L 79.890625 32.71875 
Q 79.890625 40.578125 77.09375 44.375 
Q 74.3125 48.1875 68.609375 48.1875 
Q 61.625 48.1875 57.5625 43.546875 
Q 53.515625 38.921875 53.515625 30.90625 
L 53.515625 0 
L 44.484375 0 
L 44.484375 32.71875 
Q 44.484375 40.625 41.703125 44.40625 
Q 38.921875 48.1875 33.109375 48.1875 
Q 26.21875 48.1875 22.15625 43.53125 
Q 18.109375 38.875 18.109375 30.90625 
L 18.109375 0 
L 9.078125 0 
L 9.078125 54.6875 
L 18.109375 54.6875 
L 18.109375 46.1875 
Q 21.1875 51.21875 25.484375 53.609375 
Q 29.78125 56 35.6875 56 
Q 41.65625 56 45.828125 52.96875 
Q 50 49.953125 52 44.1875 
z
" id="DejaVuSans-109"/>
      <path d="M 54.890625 33.015625 
L 54.890625 0 
L 45.90625 0 
L 45.90625 32.71875 
Q 45.90625 40.484375 42.875 44.328125 
Q 39.84375 48.1875 33.796875 48.1875 
Q 26.515625 48.1875 22.3125 43.546875 
Q 18.109375 38.921875 18.109375 30.90625 
L 18.109375 0 
L 9.078125 0 
L 9.078125 54.6875 
L 18.109375 54.6875 
L 18.109375 46.1875 
Q 21.34375 51.125 25.703125 53.5625 
Q 30.078125 56 35.796875 56 
Q 45.21875 56 50.046875 50.171875 
Q 54.890625 44.34375 54.890625 33.015625 
z
" id="DejaVuSans-110"/>
      <path d="M 8.015625 75.875 
L 15.828125 75.875 
Q 23.140625 64.359375 26.78125 53.3125 
Q 30.421875 42.28125 30.421875 31.390625 
Q 30.421875 20.453125 26.78125 9.375 
Q 23.140625 -1.703125 15.828125 -13.1875 
L 8.015625 -13.1875 
Q 14.5 -2 17.703125 9.0625 
Q 20.90625 20.125 20.90625 31.390625 
Q 20.90625 42.671875 17.703125 53.65625 
Q 14.5 64.65625 8.015625 75.875 
z
" id="DejaVuSans-41"/>
     </defs>
     <g transform="translate(77.764078 342.217594)scale(0.17 -0.17)">
      <use xlink:href="#DejaVuSans-108"/>
      <use x="27.783203" xlink:href="#DejaVuSans-111"/>
      <use x="88.964844" xlink:href="#DejaVuSans-103"/>
      <use x="152.441406" xlink:href="#DejaVuSans-49"/>
      <use x="216.064453" xlink:href="#DejaVuSans-48"/>
      <use x="279.6875" xlink:href="#DejaVuSans-40"/>
      <use x="318.701172" xlink:href="#DejaVuSans-35"/>
      <use x="402.490234" xlink:href="#DejaVuSans-32"/>
      <use x="434.277344" xlink:href="#DejaVuSans-102"/>
      <use x="463.982422" xlink:href="#DejaVuSans-45"/>
      <use x="500.066406" xlink:href="#DejaVuSans-101"/>
      <use x="561.589844" xlink:href="#DejaVuSans-118"/>
      <use x="620.769531" xlink:href="#DejaVuSans-97"/>
      <use x="682.048828" xlink:href="#DejaVuSans-108"/>
      <use x="709.832031" xlink:href="#DejaVuSans-115"/>
      <use x="761.931641" xlink:href="#DejaVuSans-32"/>
      <use x="793.71875" xlink:href="#DejaVuSans-47"/>
      <use x="827.410156" xlink:href="#DejaVuSans-32"/>
      <use x="859.197266" xlink:href="#DejaVuSans-100"/>
      <use x="922.673828" xlink:href="#DejaVuSans-105"/>
      <use x="950.457031" xlink:href="#DejaVuSans-109"/>
      <use x="1047.869141" xlink:href="#DejaVuSans-101"/>
      <use x="1109.392578" xlink:href="#DejaVuSans-110"/>
      <use x="1172.771484" xlink:href="#DejaVuSans-115"/>
      <use x="1224.871094" xlink:href="#DejaVuSans-105"/>
      <use x="1252.654297" xlink:href="#DejaVuSans-111"/>
      <use x="1313.835938" xlink:href="#DejaVuSans-110"/>
      <use x="1377.214844" xlink:href="#DejaVuSans-41"/>
     </g>
    </g>
   </g>
   <g id="matplotlib.axis_2">
    <g id="ytick_1">
     <g id="line2d_21">
      <path clip-path="url(#p48fad1e1fe)" d="M 57.6 298.944 
L 338.688 298.944 
" style="fill:none;stroke:#b0b0b0;stroke-linecap:square;stroke-width:0.8;"/>
     </g>
     <g id="line2d_22">
      <defs>
       <path d="M 0 0 
L -3.5 0 
" id="m6963e60aa8" style="stroke:#000000;stroke-width:0.8;"/>
      </defs>
      <g>
       <use style="stroke:#000000;stroke-width:0.8;" x="57.6" xlink:href="#m6963e60aa8" y="298.944"/>
      </g>
     </g>
     <g id="text_6">
      <!-- 0.0 -->
      <defs>
       <path d="M 10.6875 12.40625 
L 21 12.40625 
L 21 0 
L 10.6875 0 
z
" id="DejaVuSans-46"/>
      </defs>
      <g transform="translate(25.155 305.02275)scale(0.16 -0.16)">
       <use xlink:href="#DejaVuSans-48"/>
       <use x="63.623047" xlink:href="#DejaVuSans-46"/>
       <use x="95.410156" xlink:href="#DejaVuSans-48"/>
      </g>
     </g>
    </g>
    <g id="ytick_2">
     <g id="line2d_23">
      <path clip-path="url(#p48fad1e1fe)" d="M 57.6 240.431525 
L 338.688 240.431525 
" style="fill:none;stroke:#b0b0b0;stroke-linecap:square;stroke-width:0.8;"/>
     </g>
     <g id="line2d_24">
      <g>
       <use style="stroke:#000000;stroke-width:0.8;" x="57.6" xlink:href="#m6963e60aa8" y="240.431525"/>
      </g>
     </g>
     <g id="text_7">
      <!-- 0.2 -->
      <g transform="translate(25.155 246.510275)scale(0.16 -0.16)">
       <use xlink:href="#DejaVuSans-48"/>
       <use x="63.623047" xlink:href="#DejaVuSans-46"/>
       <use x="95.410156" xlink:href="#DejaVuSans-50"/>
      </g>
     </g>
    </g>
    <g id="ytick_3">
     <g id="line2d_25">
      <path clip-path="url(#p48fad1e1fe)" d="M 57.6 181.91905 
L 338.688 181.91905 
" style="fill:none;stroke:#b0b0b0;stroke-linecap:square;stroke-width:0.8;"/>
     </g>
     <g id="line2d_26">
      <g>
       <use style="stroke:#000000;stroke-width:0.8;" x="57.6" xlink:href="#m6963e60aa8" y="181.91905"/>
      </g>
     </g>
     <g id="text_8">
      <!-- 0.4 -->
      <g transform="translate(25.155 187.9978)scale(0.16 -0.16)">
       <use xlink:href="#DejaVuSans-48"/>
       <use x="63.623047" xlink:href="#DejaVuSans-46"/>
       <use x="95.410156" xlink:href="#DejaVuSans-52"/>
      </g>
     </g>
    </g>
    <g id="ytick_4">
     <g id="line2d_27">
      <path clip-path="url(#p48fad1e1fe)" d="M 57.6 123.406574 
L 338.688 123.406574 
" style="fill:none;stroke:#b0b0b0;stroke-linecap:square;stroke-width:0.8;"/>
     </g>
     <g id="line2d_28">
      <g>
       <use style="stroke:#000000;stroke-width:0.8;" x="57.6" xlink:href="#m6963e60aa8" y="123.406574"/>
      </g>
     </g>
     <g id="text_9">
      <!-- 0.6 -->
      <g transform="translate(25.155 129.485324)scale(0.16 -0.16)">
       <use xlink:href="#DejaVuSans-48"/>
       <use x="63.623047" xlink:href="#DejaVuSans-46"/>
       <use x="95.410156" xlink:href="#DejaVuSans-54"/>
      </g>
     </g>
    </g>
    <g id="ytick_5">
     <g id="line2d_29">
      <path clip-path="url(#p48fad1e1fe)" d="M 57.6 64.894099 
L 338.688 64.894099 
" style="fill:none;stroke:#b0b0b0;stroke-linecap:square;stroke-width:0.8;"/>
     </g>
     <g id="line2d_30">
      <g>
       <use style="stroke:#000000;stroke-width:0.8;" x="57.6" xlink:href="#m6963e60aa8" y="64.894099"/>
      </g>
     </g>
     <g id="text_10">
      <!-- 0.8 -->
      <defs>
       <path d="M 31.78125 34.625 
Q 24.75 34.625 20.71875 30.859375 
Q 16.703125 27.09375 16.703125 20.515625 
Q 16.703125 13.921875 20.71875 10.15625 
Q 24.75 6.390625 31.78125 6.390625 
Q 38.8125 6.390625 42.859375 10.171875 
Q 46.921875 13.96875 46.921875 20.515625 
Q 46.921875 27.09375 42.890625 30.859375 
Q 38.875 34.625 31.78125 34.625 
z
M 21.921875 38.8125 
Q 15.578125 40.375 12.03125 44.71875 
Q 8.5 49.078125 8.5 55.328125 
Q 8.5 64.0625 14.71875 69.140625 
Q 20.953125 74.21875 31.78125 74.21875 
Q 42.671875 74.21875 48.875 69.140625 
Q 55.078125 64.0625 55.078125 55.328125 
Q 55.078125 49.078125 51.53125 44.71875 
Q 48 40.375 41.703125 38.8125 
Q 48.828125 37.15625 52.796875 32.3125 
Q 56.78125 27.484375 56.78125 20.515625 
Q 56.78125 9.90625 50.3125 4.234375 
Q 43.84375 -1.421875 31.78125 -1.421875 
Q 19.734375 -1.421875 13.25 4.234375 
Q 6.78125 9.90625 6.78125 20.515625 
Q 6.78125 27.484375 10.78125 32.3125 
Q 14.796875 37.15625 21.921875 38.8125 
z
M 18.3125 54.390625 
Q 18.3125 48.734375 21.84375 45.5625 
Q 25.390625 42.390625 31.78125 42.390625 
Q 38.140625 42.390625 41.71875 45.5625 
Q 45.3125 48.734375 45.3125 54.390625 
Q 45.3125 60.0625 41.71875 63.234375 
Q 38.140625 66.40625 31.78125 66.40625 
Q 25.390625 66.40625 21.84375 63.234375 
Q 18.3125 60.0625 18.3125 54.390625 
z
" id="DejaVuSans-56"/>
      </defs>
      <g transform="translate(25.155 70.972849)scale(0.16 -0.16)">
       <use xlink:href="#DejaVuSans-48"/>
       <use x="63.623047" xlink:href="#DejaVuSans-46"/>
       <use x="95.410156" xlink:href="#DejaVuSans-56"/>
      </g>
     </g>
    </g>
    <g id="ytick_6">
     <g id="line2d_31">
      <path clip-path="url(#p48fad1e1fe)" d="M 57.6 6.381624 
L 338.688 6.381624 
" style="fill:none;stroke:#b0b0b0;stroke-linecap:square;stroke-width:0.8;"/>
     </g>
     <g id="line2d_32">
      <g>
       <use style="stroke:#000000;stroke-width:0.8;" x="57.6" xlink:href="#m6963e60aa8" y="6.381624"/>
      </g>
     </g>
     <g id="text_11">
      <!-- 1.0 -->
      <g transform="translate(25.155 12.460374)scale(0.16 -0.16)">
       <use xlink:href="#DejaVuSans-49"/>
       <use x="63.623047" xlink:href="#DejaVuSans-46"/>
       <use x="95.410156" xlink:href="#DejaVuSans-48"/>
      </g>
     </g>
    </g>
    <g id="text_12">
     <!-- Fraction of function,target pairs -->
     <defs>
      <path d="M 9.8125 72.90625 
L 51.703125 72.90625 
L 51.703125 64.59375 
L 19.671875 64.59375 
L 19.671875 43.109375 
L 48.578125 43.109375 
L 48.578125 34.8125 
L 19.671875 34.8125 
L 19.671875 0 
L 9.8125 0 
z
" id="DejaVuSans-70"/>
      <path d="M 41.109375 46.296875 
Q 39.59375 47.171875 37.8125 47.578125 
Q 36.03125 48 33.890625 48 
Q 26.265625 48 22.1875 43.046875 
Q 18.109375 38.09375 18.109375 28.8125 
L 18.109375 0 
L 9.078125 0 
L 9.078125 54.6875 
L 18.109375 54.6875 
L 18.109375 46.1875 
Q 20.953125 51.171875 25.484375 53.578125 
Q 30.03125 56 36.53125 56 
Q 37.453125 56 38.578125 55.875 
Q 39.703125 55.765625 41.0625 55.515625 
z
" id="DejaVuSans-114"/>
      <path d="M 48.78125 52.59375 
L 48.78125 44.1875 
Q 44.96875 46.296875 41.140625 47.34375 
Q 37.3125 48.390625 33.40625 48.390625 
Q 24.65625 48.390625 19.8125 42.84375 
Q 14.984375 37.3125 14.984375 27.296875 
Q 14.984375 17.28125 19.8125 11.734375 
Q 24.65625 6.203125 33.40625 6.203125 
Q 37.3125 6.203125 41.140625 7.25 
Q 44.96875 8.296875 48.78125 10.40625 
L 48.78125 2.09375 
Q 45.015625 0.34375 40.984375 -0.53125 
Q 36.96875 -1.421875 32.421875 -1.421875 
Q 20.0625 -1.421875 12.78125 6.34375 
Q 5.515625 14.109375 5.515625 27.296875 
Q 5.515625 40.671875 12.859375 48.328125 
Q 20.21875 56 33.015625 56 
Q 37.15625 56 41.109375 55.140625 
Q 45.0625 54.296875 48.78125 52.59375 
z
" id="DejaVuSans-99"/>
      <path d="M 18.3125 70.21875 
L 18.3125 54.6875 
L 36.8125 54.6875 
L 36.8125 47.703125 
L 18.3125 47.703125 
L 18.3125 18.015625 
Q 18.3125 11.328125 20.140625 9.421875 
Q 21.96875 7.515625 27.59375 7.515625 
L 36.8125 7.515625 
L 36.8125 0 
L 27.59375 0 
Q 17.1875 0 13.234375 3.875 
Q 9.28125 7.765625 9.28125 18.015625 
L 9.28125 47.703125 
L 2.6875 47.703125 
L 2.6875 54.6875 
L 9.28125 54.6875 
L 9.28125 70.21875 
z
" id="DejaVuSans-116"/>
      <path d="M 8.5 21.578125 
L 8.5 54.6875 
L 17.484375 54.6875 
L 17.484375 21.921875 
Q 17.484375 14.15625 20.5 10.265625 
Q 23.53125 6.390625 29.59375 6.390625 
Q 36.859375 6.390625 41.078125 11.03125 
Q 45.3125 15.671875 45.3125 23.6875 
L 45.3125 54.6875 
L 54.296875 54.6875 
L 54.296875 0 
L 45.3125 0 
L 45.3125 8.40625 
Q 42.046875 3.421875 37.71875 1 
Q 33.40625 -1.421875 27.6875 -1.421875 
Q 18.265625 -1.421875 13.375 4.4375 
Q 8.5 10.296875 8.5 21.578125 
z
M 31.109375 56 
z
" id="DejaVuSans-117"/>
      <path d="M 11.71875 12.40625 
L 22.015625 12.40625 
L 22.015625 4 
L 14.015625 -11.625 
L 7.71875 -11.625 
L 11.71875 4 
z
" id="DejaVuSans-44"/>
      <path d="M 18.109375 8.203125 
L 18.109375 -20.796875 
L 9.078125 -20.796875 
L 9.078125 54.6875 
L 18.109375 54.6875 
L 18.109375 46.390625 
Q 20.953125 51.265625 25.265625 53.625 
Q 29.59375 56 35.59375 56 
Q 45.5625 56 51.78125 48.09375 
Q 58.015625 40.1875 58.015625 27.296875 
Q 58.015625 14.40625 51.78125 6.484375 
Q 45.5625 -1.421875 35.59375 -1.421875 
Q 29.59375 -1.421875 25.265625 0.953125 
Q 20.953125 3.328125 18.109375 8.203125 
z
M 48.6875 27.296875 
Q 48.6875 37.203125 44.609375 42.84375 
Q 40.53125 48.484375 33.40625 48.484375 
Q 26.265625 48.484375 22.1875 42.84375 
Q 18.109375 37.203125 18.109375 27.296875 
Q 18.109375 17.390625 22.1875 11.75 
Q 26.265625 6.109375 33.40625 6.109375 
Q 40.53125 6.109375 44.609375 11.75 
Q 48.6875 17.390625 48.6875 27.296875 
z
" id="DejaVuSans-112"/>
     </defs>
     <g transform="translate(17.619531 285.585)rotate(-90)scale(0.17 -0.17)">
      <use xlink:href="#DejaVuSans-70"/>
      <use x="50.269531" xlink:href="#DejaVuSans-114"/>
      <use x="91.382812" xlink:href="#DejaVuSans-97"/>
      <use x="152.662109" xlink:href="#DejaVuSans-99"/>
      <use x="207.642578" xlink:href="#DejaVuSans-116"/>
      <use x="246.851562" xlink:href="#DejaVuSans-105"/>
      <use x="274.634766" xlink:href="#DejaVuSans-111"/>
      <use x="335.816406" xlink:href="#DejaVuSans-110"/>
      <use x="399.195312" xlink:href="#DejaVuSans-32"/>
      <use x="430.982422" xlink:href="#DejaVuSans-111"/>
      <use x="492.164062" xlink:href="#DejaVuSans-102"/>
      <use x="527.369141" xlink:href="#DejaVuSans-32"/>
      <use x="559.15625" xlink:href="#DejaVuSans-102"/>
      <use x="594.361328" xlink:href="#DejaVuSans-117"/>
      <use x="657.740234" xlink:href="#DejaVuSans-110"/>
      <use x="721.119141" xlink:href="#DejaVuSans-99"/>
      <use x="776.099609" xlink:href="#DejaVuSans-116"/>
      <use x="815.308594" xlink:href="#DejaVuSans-105"/>
      <use x="843.091797" xlink:href="#DejaVuSans-111"/>
      <use x="904.273438" xlink:href="#DejaVuSans-110"/>
      <use x="967.652344" xlink:href="#DejaVuSans-44"/>
      <use x="999.439453" xlink:href="#DejaVuSans-116"/>
      <use x="1038.648438" xlink:href="#DejaVuSans-97"/>
      <use x="1099.927734" xlink:href="#DejaVuSans-114"/>
      <use x="1139.291016" xlink:href="#DejaVuSans-103"/>
      <use x="1202.767578" xlink:href="#DejaVuSans-101"/>
      <use x="1264.291016" xlink:href="#DejaVuSans-116"/>
      <use x="1303.5" xlink:href="#DejaVuSans-32"/>
      <use x="1335.287109" xlink:href="#DejaVuSans-112"/>
      <use x="1398.763672" xlink:href="#DejaVuSans-97"/>
      <use x="1460.042969" xlink:href="#DejaVuSans-105"/>
      <use x="1487.826172" xlink:href="#DejaVuSans-114"/>
      <use x="1528.939453" xlink:href="#DejaVuSans-115"/>
     </g>
    </g>
   </g>
   <g id="line2d_33">
    <defs>
     <path d="M 0 1.5 
C 0.397805 1.5 0.77937 1.341951 1.06066 1.06066 
C 1.341951 0.77937 1.5 0.397805 1.5 0 
C 1.5 -0.397805 1.341951 -0.77937 1.06066 -1.06066 
C 0.77937 -1.341951 0.397805 -1.5 0 -1.5 
C -0.397805 -1.5 -0.77937 -1.341951 -1.06066 -1.06066 
C -1.341951 -0.77937 -1.5 -0.397805 -1.5 0 
C -1.5 0.397805 -1.341951 0.77937 -1.06066 1.06066 
C -0.77937 1.341951 -0.397805 1.5 0 1.5 
z
" id="mc94b43db72" style="stroke:#f5deb3;"/>
    </defs>
    <g>
     <use style="fill:#f5deb3;stroke:#f5deb3;" x="221.918872" xlink:href="#mc94b43db72" y="6.381624"/>
     <use style="fill:#f5deb3;stroke:#f5deb3;" x="221.918872" xlink:href="#mc94b43db72" y="6.381624"/>
    </g>
   </g>
   <g id="line2d_34">
    <defs>
     <path d="M 0 1.5 
C 0.397805 1.5 0.77937 1.341951 1.06066 1.06066 
C 1.341951 0.77937 1.5 0.397805 1.5 0 
C 1.5 -0.397805 1.341951 -0.77937 1.06066 -1.06066 
C 0.77937 -1.341951 0.397805 -1.5 0 -1.5 
C -0.397805 -1.5 -0.77937 -1.341951 -1.06066 -1.06066 
C -1.341951 -0.77937 -1.5 -0.397805 -1.5 0 
C -1.5 0.397805 -1.341951 0.77937 -1.06066 1.06066 
C -0.77937 1.341951 -0.397805 1.5 0 1.5 
z
" id="m2b1c2e5be5" style="stroke:#000080;"/>
    </defs>
    <g>
     <use style="fill:#000080;stroke:#000080;" x="181.238575" xlink:href="#m2b1c2e5be5" y="206.012422"/>
     <use style="fill:#000080;stroke:#000080;" x="181.238575" xlink:href="#m2b1c2e5be5" y="206.012422"/>
    </g>
   </g>
   <g id="line2d_35">
    <path d="M 45.512012 298.944 
L 45.512012 282.996482 
L 57.6 282.996482 
L 57.6 277.259965 
L 64.67102 277.259965 
L 64.67102 272.0971 
L 69.687988 272.0971 
L 69.687988 270.031953 
L 73.579452 270.031953 
L 73.579452 267.737347 
L 76.759008 267.737347 
L 76.759008 265.786931 
L 79.447285 265.786931 
L 79.447285 262.803942 
L 81.775977 262.803942 
L 81.775977 261.082987 
L 83.830028 261.082987 
L 83.830028 259.132571 
L 85.66744 259.132571 
L 85.66744 258.214728 
L 87.329581 258.214728 
L 87.329581 256.379043 
L 88.846997 256.379043 
L 88.846997 255.4612 
L 90.242884 255.4612 
L 90.242884 254.772818 
L 91.535274 254.772818 
L 91.535274 254.084436 
L 92.73846 254.084436 
L 92.73846 253.510784 
L 93.863965 253.510784 
L 93.863965 253.396054 
L 94.921215 253.396054 
L 94.921215 252.13402 
L 95.918017 252.13402 
L 95.918017 251.904559 
L 97.755429 251.904559 
L 97.755429 251.445638 
L 98.606294 251.445638 
L 98.606294 251.330907 
L 99.41757 251.330907 
L 99.41757 250.757256 
L 100.192776 250.757256 
L 100.192776 250.642525 
L 100.934985 250.642525 
L 100.934985 249.151031 
L 102.330873 249.151031 
L 102.330873 249.036301 
L 102.989037 249.036301 
L 102.989037 248.577379 
L 103.623262 248.577379 
L 103.623262 248.233188 
L 104.23523 248.233188 
L 104.23523 248.003727 
L 104.826449 248.003727 
L 104.826449 247.888997 
L 105.951954 247.888997 
L 105.951954 247.659536 
L 106.48859 247.659536 
L 106.48859 247.544806 
L 107.009204 247.544806 
L 107.009204 247.315345 
L 108.006005 247.315345 
L 108.006005 246.856424 
L 108.483824 246.856424 
L 108.483824 246.282772 
L 108.948899 246.282772 
L 108.948899 245.59439 
L 109.401893 245.59439 
L 109.401893 245.36493 
L 109.843417 245.36493 
L 109.843417 245.135469 
L 110.694282 245.135469 
L 110.694282 244.676547 
L 111.897469 244.676547 
L 111.897469 244.561817 
L 112.655818 244.561817 
L 112.655818 244.217626 
L 113.022974 244.217626 
L 113.022974 244.102896 
L 113.382559 244.102896 
L 113.382559 242.496671 
L 114.080224 242.496671 
L 114.080224 242.381941 
L 116.019919 242.381941 
L 116.019919 242.26721 
L 116.323218 242.26721 
L 116.323218 242.15248 
L 116.621333 242.15248 
L 116.621333 241.808289 
L 117.202696 241.808289 
L 117.202696 241.234637 
L 117.486268 241.234637 
L 117.486268 240.890446 
L 117.765302 240.890446 
L 117.765302 240.202064 
L 118.039942 240.202064 
L 118.039942 240.087334 
L 118.310324 240.087334 
L 118.310324 239.972603 
L 118.838828 239.972603 
L 118.838828 239.284221 
L 119.097192 239.284221 
L 119.097192 239.169491 
L 119.602714 239.169491 
L 119.602714 239.054761 
L 119.850084 239.054761 
L 119.850084 238.94003 
L 120.093994 238.94003 
L 120.093994 238.71057 
L 120.571812 238.71057 
L 120.571812 237.448536 
L 121.712041 237.448536 
L 121.712041 237.333805 
L 122.362027 237.333805 
L 122.362027 236.874884 
L 122.782271 236.874884 
L 122.782271 236.530693 
L 123.192626 236.530693 
L 123.192626 236.301232 
L 123.394238 236.301232 
L 123.394238 236.071772 
L 123.593547 236.071772 
L 123.593547 235.842311 
L 123.790603 235.842311 
L 123.790603 235.727581 
L 123.985457 235.727581 
L 123.985457 235.61285 
L 124.368753 235.61285 
L 124.368753 235.49812 
L 124.557288 235.49812 
L 124.557288 235.268659 
L 125.291682 235.268659 
L 125.291682 235.039199 
L 125.470548 235.039199 
L 125.470548 234.695008 
L 125.647598 234.695008 
L 125.647598 233.318243 
L 127.325746 233.318243 
L 127.325746 233.088783 
L 127.642832 233.088783 
L 127.642832 232.629861 
L 127.799239 232.629861 
L 127.799239 232.515131 
L 127.954256 232.515131 
L 127.954256 232.05621 
L 128.107907 232.05621 
L 128.107907 231.826749 
L 128.709321 231.826749 
L 128.709321 231.712019 
L 129.433047 231.712019 
L 129.433047 231.597288 
L 129.574256 231.597288 
L 129.574256 231.138367 
L 130.664567 231.138367 
L 130.664567 231.023637 
L 130.926816 231.023637 
L 130.926816 230.679446 
L 131.185181 230.679446 
L 131.185181 230.105794 
L 131.439773 230.105794 
L 131.439773 229.876333 
L 131.565689 229.876333 
L 131.565689 229.761603 
L 132.060454 229.761603 
L 132.060454 229.646872 
L 132.181982 229.646872 
L 132.181982 229.417412 
L 132.30267 229.417412 
L 132.30267 229.187951 
L 132.541568 229.187951 
L 132.541568 229.073221 
L 132.777237 229.073221 
L 132.777237 227.925917 
L 133.46572 227.925917 
L 133.46572 227.811187 
L 133.910056 227.811187 
L 133.910056 226.893344 
L 134.12805 226.893344 
L 134.12805 226.778614 
L 134.343353 226.778614 
L 134.450015 226.549153 
L 134.55603 226.549153 
L 134.55603 226.434423 
L 134.766144 226.434423 
L 134.766144 226.319692 
L 134.973757 226.319692 
L 134.973757 226.204962 
L 135.280614 226.204962 
L 135.280614 226.090232 
L 135.482227 226.090232 
L 135.482227 225.287119 
L 136.266147 225.287119 
L 136.266147 225.172389 
L 136.456742 225.172389 
L 136.456742 224.484007 
L 136.645276 224.484007 
L 136.738785 224.025086 
L 136.924311 224.025086 
L 136.924311 223.910355 
L 137.198951 223.910355 
L 137.198951 223.566164 
L 137.823442 223.566164 
L 137.823442 222.648321 
L 138.510793 222.648321 
L 138.510793 222.533591 
L 138.67848 222.533591 
L 138.67848 222.1894 
L 138.84457 222.1894 
L 138.84457 221.959939 
L 139.090775 221.959939 
L 139.090775 221.730479 
L 139.887228 221.730479 
L 139.887228 220.812636 
L 140.499195 220.812636 
L 140.499195 220.697906 
L 140.79731 220.697906 
L 140.79731 220.583175 
L 141.235139 220.583175 
L 141.235139 220.468445 
L 141.378673 220.468445 
L 141.378673 220.353715 
L 141.732423 220.353715 
L 141.732423 220.124254 
L 142.283909 220.124254 
L 142.283909 219.894793 
L 142.419098 219.894793 
L 142.419098 219.550602 
L 142.686372 219.550602 
L 142.752555 219.321142 
L 143.079756 219.321142 
L 143.079756 219.206411 
L 143.40093 219.206411 
L 143.40093 218.86222 
L 143.902815 218.86222 
L 143.902815 218.74749 
L 144.026061 218.74749 
L 144.026061 218.632759 
L 144.148442 218.632759 
L 144.148442 218.173838 
L 144.629556 218.173838 
L 144.629556 217.829647 
L 144.923649 217.829647 
L 144.923649 217.370726 
L 145.384119 217.370726 
L 145.440832 217.026535 
L 145.497361 217.026535 
L 145.497361 216.797074 
L 145.609873 216.797074 
L 145.609873 216.567613 
L 145.777292 216.567613 
L 145.777292 216.452883 
L 146.854132 216.452883 
L 146.854132 216.223422 
L 147.061745 216.223422 
L 147.061745 216.108692 
L 147.368603 216.108692 
L 147.368603 215.993962 
L 148.064279 215.993962 
L 148.112924 215.649771 
L 148.826773 215.649771 
L 148.826773 215.53504 
L 149.286939 215.53504 
L 149.286939 215.42031 
L 149.735275 215.42031 
L 149.735275 215.190849 
L 149.955193 215.190849 
L 149.955193 215.076119 
L 150.38688 215.076119 
L 150.47195 214.617197 
L 150.556607 214.617197 
L 150.556607 214.502467 
L 150.724698 214.502467 
L 150.724698 214.387737 
L 151.421542 214.387737 
L 151.421542 213.928815 
L 151.621307 213.928815 
L 151.621307 213.814085 
L 151.818809 213.814085 
L 151.818809 213.469894 
L 152.0141 213.469894 
L 152.0141 213.355164 
L 152.360205 213.355164 
L 152.360205 213.240433 
L 152.549559 213.240433 
L 152.549559 213.125703 
L 152.774102 213.125703 
L 152.774102 212.781512 
L 152.959038 212.781512 
L 152.959038 212.552051 
L 153.142033 212.552051 
L 153.142033 212.437321 
L 153.323128 212.437321 
L 153.395042 211.9784 
L 153.679772 211.9784 
L 153.679772 211.748939 
L 154.201424 211.748939 
L 154.201424 211.634209 
L 154.54072 211.634209 
L 154.54072 211.519478 
L 154.873541 211.519478 
L 154.873541 211.404748 
L 155.0376 211.404748 
L 155.0376 211.290017 
L 155.167744 211.290017 
L 155.167744 211.175287 
L 155.520713 211.175287 
L 155.520713 211.060557 
L 155.678822 211.060557 
L 155.773004 210.831096 
L 155.83551 210.831096 
L 155.83551 210.716366 
L 156.894595 210.716366 
L 156.894595 210.601635 
L 157.272146 210.601635 
L 157.272146 210.486905 
L 157.38669 210.486905 
L 157.38669 210.257444 
L 157.613546 210.257444 
L 157.613546 210.142714 
L 157.753847 210.142714 
L 157.753847 210.027984 
L 157.893028 210.027984 
L 157.893028 209.913253 
L 158.086033 209.913253 
L 158.168101 209.683793 
L 158.572743 209.683793 
L 158.572743 209.569062 
L 158.705563 209.569062 
L 158.705563 209.454332 
L 159.098062 209.454332 
L 159.098062 209.339602 
L 159.608019 209.339602 
L 159.608019 209.224871 
L 159.980933 209.224871 
L 159.980933 209.110141 
L 160.321935 209.110141 
L 160.321935 208.995411 
L 160.466062 208.995411 
L 160.466062 208.88068 
L 160.632719 208.88068 
L 160.632719 208.65122 
L 160.821253 208.65122 
L 160.821253 208.536489 
L 160.938061 208.536489 
L 160.938061 208.421759 
L 161.734513 208.421759 
L 161.778945 208.192298 
L 161.955547 208.192298 
L 162.065021 207.962838 
L 162.281931 207.962838 
L 162.281931 207.848107 
L 162.496175 207.848107 
L 162.496175 207.733377 
L 162.707819 207.733377 
L 162.707819 207.618646 
L 162.854457 207.618646 
L 162.854457 207.503916 
L 163.287113 207.503916 
L 163.287113 207.389186 
L 163.629664 207.389186 
L 163.629664 207.274455 
L 164.218222 207.274455 
L 164.218222 207.159725 
L 164.410075 207.159725 
L 164.410075 207.044995 
L 164.787563 207.044995 
L 164.787563 206.930264 
L 165.608172 206.930264 
L 165.608172 206.815534 
L 166.812546 206.815534 
L 166.812546 206.700804 
L 169.143315 206.700804 
L 169.143315 206.586073 
L 169.574291 206.586073 
L 169.574291 206.471343 
L 169.855803 206.471343 
L 169.855803 206.356613 
L 170.872762 206.356613 
L 170.872762 206.241882 
L 173.268827 206.241882 
L 173.268827 206.127152 
L 181.238575 206.127152 
L 181.238575 206.012422 
L 338.688 206.012422 
L 338.688 206.012422 
" style="fill:none;stroke:#000080;stroke-linecap:square;stroke-width:1.5;"/>
   </g>
   <g id="line2d_36">
    <defs>
     <path d="M 0 6 
C 1.591219 6 3.117479 5.367802 4.242641 4.242641 
C 5.367802 3.117479 6 1.591219 6 0 
C 6 -1.591219 5.367802 -3.117479 4.242641 -4.242641 
C 3.117479 -5.367802 1.591219 -6 0 -6 
C -1.591219 -6 -3.117479 -5.367802 -4.242641 -4.242641 
C -5.367802 -3.117479 -6 -1.591219 -6 0 
C -6 1.591219 -5.367802 3.117479 -4.242641 4.242641 
C -3.117479 5.367802 -1.591219 6 0 6 
z
" id="m5252667726" style="stroke:#000080;stroke-width:1.5;"/>
    </defs>
    <g>
     <use style="fill-opacity:0;stroke:#000080;stroke-width:1.5;" x="81.775977" xlink:href="#m5252667726" y="262.803942"/>
     <use style="fill-opacity:0;stroke:#000080;stroke-width:1.5;" x="142.419098" xlink:href="#m5252667726" y="219.894793"/>
     <use style="fill-opacity:0;stroke:#000080;stroke-width:1.5;" x="181.238575" xlink:href="#m5252667726" y="206.127152"/>
     <use style="fill-opacity:0;stroke:#000080;stroke-width:1.5;" x="181.238575" xlink:href="#m5252667726" y="206.012422"/>
     <use style="fill-opacity:0;stroke:#000080;stroke-width:1.5;" x="181.238575" xlink:href="#m5252667726" y="206.012422"/>
     <use style="fill-opacity:0;stroke:#000080;stroke-width:1.5;" x="338.688" xlink:href="#m5252667726" y="206.012422"/>
    </g>
   </g>
   <g id="line2d_37">
    <path style="fill:none;stroke:#000080;stroke-linecap:square;stroke-width:1.5;"/>
    <g/>
   </g>
   <g id="line2d_38">
    <path clip-path="url(#p48fad1e1fe)" d="M 101.646892 249.151031 
" style="fill:none;stroke:#000080;stroke-linecap:square;stroke-width:1.5;"/>
    <defs>
     <path d="M -12 12 
L 12 -12 
M -12 -12 
L 12 12 
" id="maa6eaebdd7" style="stroke:#000080;"/>
    </defs>
    <g clip-path="url(#p48fad1e1fe)">
     <use style="fill:#000080;stroke:#000080;" x="101.646892" xlink:href="#maa6eaebdd7" y="249.151031"/>
    </g>
   </g>
   <g id="line2d_39">
    <defs>
     <path d="M 0 1.5 
C 0.397805 1.5 0.77937 1.341951 1.06066 1.06066 
C 1.341951 0.77937 1.5 0.397805 1.5 0 
C 1.5 -0.397805 1.341951 -0.77937 1.06066 -1.06066 
C 0.77937 -1.341951 0.397805 -1.5 0 -1.5 
C -0.397805 -1.5 -0.77937 -1.341951 -1.06066 -1.06066 
C -1.341951 -0.77937 -1.5 -0.397805 -1.5 0 
C -1.5 0.397805 -1.341951 0.77937 -1.06066 1.06066 
C -0.77937 1.341951 -0.397805 1.5 0 1.5 
z
" id="m4c8966cc25" style="stroke:#ff00ff;"/>
    </defs>
    <g>
     <use style="fill:#ff00ff;stroke:#ff00ff;" x="226.519312" xlink:href="#m4c8966cc25" y="78.66174"/>
     <use style="fill:#ff00ff;stroke:#ff00ff;" x="226.519312" xlink:href="#m4c8966cc25" y="78.66174"/>
    </g>
   </g>
   <g id="line2d_40">
    <path d="M 45.512012 298.944 
L 45.512012 282.078639 
L 76.759008 282.078639 
L 76.759008 281.849179 
L 81.775977 281.849179 
L 81.775977 281.734448 
L 87.329581 281.734448 
L 87.329581 281.619718 
L 88.846997 281.619718 
L 88.846997 281.160797 
L 91.535274 281.160797 
L 91.535274 281.046066 
L 92.73846 281.046066 
L 92.73846 280.701875 
L 93.863965 280.701875 
L 93.863965 280.242954 
L 94.921215 280.242954 
L 94.921215 279.784033 
L 95.918017 279.784033 
L 95.918017 279.554572 
L 96.86091 279.554572 
L 96.86091 279.325111 
L 97.755429 279.325111 
L 97.755429 279.210381 
L 98.606294 279.210381 
L 98.606294 279.095651 
L 99.41757 279.095651 
L 99.41757 278.75146 
L 100.192776 278.75146 
L 100.192776 277.948347 
L 100.934985 277.948347 
L 100.934985 277.833617 
L 102.330873 277.833617 
L 102.330873 277.718886 
L 102.989037 277.718886 
L 102.989037 277.030504 
L 103.623262 277.030504 
L 103.623262 276.571583 
L 104.23523 276.571583 
L 104.23523 275.883201 
L 104.826449 275.883201 
L 104.826449 275.65374 
L 105.398279 275.65374 
L 105.398279 275.194819 
L 105.951954 275.194819 
L 105.951954 274.850628 
L 106.48859 274.850628 
L 106.48859 268.310998 
L 107.009204 268.310998 
L 107.009204 265.44274 
L 107.514726 265.44274 
L 107.514726 264.869088 
L 108.006005 264.869088 
L 108.006005 264.754358 
L 109.401893 264.754358 
L 109.401893 264.295436 
L 109.843417 264.295436 
L 109.843417 264.180706 
L 110.274038 264.180706 
L 110.274038 264.065976 
L 110.694282 264.065976 
L 110.694282 263.836515 
L 111.104637 263.836515 
L 111.104637 263.607054 
L 112.655818 263.607054 
L 112.655818 263.148133 
L 113.382559 263.148133 
L 113.382559 263.033402 
L 113.73488 263.033402 
L 113.73488 262.918672 
L 114.418861 262.918672 
L 114.418861 262.689211 
L 114.751048 262.689211 
L 114.751048 262.23029 
L 115.077025 262.23029 
L 115.077025 262.11556 
L 115.711251 262.11556 
L 115.711251 261.771369 
L 116.323218 261.771369 
L 116.323218 261.541908 
L 116.621333 261.541908 
L 116.621333 261.197717 
L 116.914437 261.197717 
L 116.914437 260.050414 
L 117.202696 260.050414 
L 117.202696 259.820953 
L 117.486268 259.820953 
L 117.486268 259.706222 
L 117.765302 259.706222 
L 117.765302 259.476762 
L 118.310324 259.476762 
L 118.310324 259.362031 
L 118.576578 259.362031 
L 118.576578 259.247301 
L 118.838828 259.247301 
L 118.838828 259.132571 
L 119.097192 259.132571 
L 119.097192 258.90311 
L 119.351785 258.90311 
L 119.351785 258.444189 
L 119.602714 258.444189 
L 119.602714 258.214728 
L 119.850084 258.214728 
L 119.850084 258.099998 
L 120.093994 258.099998 
L 120.093994 257.526346 
L 120.33454 257.526346 
L 120.33454 255.920121 
L 120.571812 255.920121 
L 120.571812 255.346469 
L 120.8059 255.346469 
L 120.8059 255.117009 
L 121.036887 255.117009 
L 121.036887 254.772818 
L 121.264855 254.772818 
L 121.264855 254.543357 
L 121.489881 254.543357 
L 121.489881 254.313896 
L 121.712041 254.313896 
L 121.712041 253.969705 
L 121.931406 253.969705 
L 121.931406 252.478211 
L 122.148045 252.478211 
L 122.148045 252.24875 
L 122.362027 252.24875 
L 122.362027 251.560368 
L 122.573415 251.560368 
L 122.573415 250.642525 
L 122.782271 250.642525 
L 122.782271 250.413065 
L 122.988655 250.413065 
L 122.988655 250.183604 
L 123.192626 250.183604 
L 123.192626 249.954143 
L 123.394238 249.954143 
L 123.394238 249.724683 
L 123.593547 249.724683 
L 123.593547 248.118458 
L 123.790603 248.118458 
L 123.790603 247.888997 
L 123.985457 247.888997 
L 123.985457 246.512233 
L 124.178158 246.512233 
L 124.178158 245.709121 
L 124.368753 245.709121 
L 124.368753 244.906008 
L 124.557288 244.906008 
L 124.557288 244.447087 
L 124.743806 244.447087 
L 124.743806 243.758705 
L 124.92835 243.758705 
L 124.92835 243.299783 
L 125.110962 243.299783 
L 125.110962 242.611401 
L 125.291682 242.611401 
L 125.291682 242.381941 
L 125.470548 242.381941 
L 125.470548 241.578828 
L 125.647598 241.578828 
L 125.647598 240.890446 
L 125.996395 240.890446 
L 125.996395 240.775716 
L 126.168212 240.775716 
L 126.168212 240.431525 
L 126.338353 240.431525 
L 126.338353 239.857873 
L 126.50685 239.857873 
L 126.50685 239.398952 
L 126.673734 239.398952 
L 126.673734 239.284221 
L 126.839037 239.284221 
L 126.839037 238.94003 
L 127.002787 238.94003 
L 127.002787 238.595839 
L 127.165014 238.595839 
L 127.165014 237.677997 
L 127.325746 237.677997 
L 127.325746 237.563266 
L 127.48501 237.563266 
L 127.48501 237.219075 
L 127.642832 237.219075 
L 127.642832 237.104345 
L 127.799239 237.104345 
L 127.799239 236.989614 
L 127.954256 236.989614 
L 127.954256 236.301232 
L 128.107907 236.301232 
L 128.107907 235.153929 
L 128.260216 235.153929 
L 128.260216 234.350817 
L 128.411207 234.350817 
L 128.411207 234.121356 
L 128.709321 234.121356 
L 128.709321 233.432974 
L 129.002426 233.432974 
L 129.002426 232.28567 
L 129.147151 232.28567 
L 129.147151 231.826749 
L 129.290685 231.826749 
L 129.290685 231.482558 
L 129.433047 231.482558 
L 129.433047 231.253097 
L 129.574256 231.253097 
L 129.574256 230.679446 
L 129.853291 230.679446 
L 129.853291 229.876333 
L 129.991152 229.876333 
L 129.991152 229.417412 
L 130.263646 229.417412 
L 130.263646 229.302681 
L 130.531948 229.302681 
L 130.531948 229.073221 
L 130.664567 229.073221 
L 130.664567 228.95849 
L 130.926816 228.95849 
L 130.926816 227.811187 
L 131.056477 227.811187 
L 131.056477 227.581726 
L 131.185181 227.581726 
L 131.185181 226.090232 
L 131.312942 226.090232 
L 131.312942 225.975501 
L 131.439773 225.975501 
L 131.439773 225.860771 
L 131.565689 225.860771 
L 131.565689 225.63131 
L 131.814826 225.63131 
L 131.814826 225.172389 
L 131.938072 225.172389 
L 131.938072 225.057659 
L 132.060454 225.057659 
L 132.060454 224.942928 
L 132.181982 224.942928 
L 132.181982 223.221973 
L 132.30267 223.221973 
L 132.30267 222.877782 
L 132.541568 222.877782 
L 132.541568 222.648321 
L 132.893889 222.648321 
L 132.893889 222.1894 
L 133.009765 222.1894 
L 133.009765 222.07467 
L 133.124876 222.07467 
L 133.124876 221.730479 
L 133.239232 221.730479 
L 133.239232 221.501018 
L 133.352844 221.501018 
L 133.352844 220.697906 
L 133.46572 220.697906 
L 133.46572 220.583175 
L 133.57787 220.583175 
L 133.57787 220.468445 
L 133.800029 220.468445 
L 133.910056 218.97695 
L 134.019394 218.97695 
L 134.12805 218.403299 
L 134.236034 218.403299 
L 134.343353 217.255995 
L 134.450015 217.255995 
L 134.450015 216.797074 
L 134.661403 216.797074 
L 134.661403 216.567613 
L 134.870259 216.567613 
L 134.870259 215.993962 
L 135.076644 215.993962 
L 135.178927 214.731928 
L 135.280614 214.731928 
L 135.381712 214.043546 
L 135.482227 214.043546 
L 135.582166 213.010973 
L 135.681535 213.010973 
L 135.780341 212.666782 
L 135.97629 212.666782 
L 135.97629 212.20786 
L 136.170062 212.20786 
L 136.170062 210.945826 
L 136.361705 210.945826 
L 136.361705 210.601635 
L 136.551264 210.601635 
L 136.645276 209.798523 
L 136.738785 209.798523 
L 136.831795 209.224871 
L 136.924311 209.224871 
L 137.016339 207.389186 
L 137.107884 207.389186 
L 137.198951 206.356613 
L 137.289545 206.356613 
L 137.37967 204.520927 
L 137.469333 204.520927 
L 137.469333 202.914702 
L 137.647286 202.914702 
L 137.735587 202.685242 
L 137.823442 202.685242 
L 137.910857 201.882129 
L 137.997836 201.882129 
L 138.084384 201.423208 
L 138.170504 201.423208 
L 138.170504 200.964287 
L 138.341479 200.964287 
L 138.341479 200.734826 
L 138.510793 200.734826 
L 138.594838 200.390635 
L 138.67848 200.390635 
L 138.761723 199.472792 
L 138.84457 199.472792 
L 138.927025 198.78441 
L 139.009092 198.78441 
L 139.090775 198.554949 
L 139.172077 198.554949 
L 139.253002 197.407646 
L 139.333553 197.407646 
L 139.413734 196.489803 
L 139.652088 196.489803 
L 139.730821 196.145612 
L 139.8092 196.145612 
L 139.8092 195.801421 
L 139.964909 195.801421 
L 140.042245 195.57196 
L 140.11924 195.57196 
L 140.195896 195.3425 
L 140.272217 195.3425 
L 140.348205 194.998309 
L 140.499195 194.998309 
L 140.574203 194.195196 
L 140.64889 194.195196 
L 140.723258 193.851005 
L 140.79731 193.851005 
L 140.871049 193.621545 
L 140.944478 193.621545 
L 141.017599 193.392084 
L 141.090414 193.392084 
L 141.162927 192.588971 
L 141.235139 192.588971 
L 141.307054 191.785859 
L 141.378673 191.785859 
L 141.45 191.326938 
L 141.521035 191.326938 
L 141.591783 190.638556 
L 141.732423 190.638556 
L 141.732423 190.179634 
L 141.871938 190.179634 
L 141.941279 189.376522 
L 142.010346 189.376522 
L 142.07914 189.147061 
L 142.147664 189.147061 
L 142.215919 188.343949 
L 142.283909 188.343949 
L 142.283909 188.114488 
L 142.419098 188.114488 
L 142.419098 187.655567 
L 142.553247 187.655567 
L 142.553247 187.540836 
L 142.752555 187.540836 
L 142.818488 186.967185 
L 142.884173 186.967185 
L 142.949611 186.278803 
L 143.014805 186.278803 
L 143.079756 185.47569 
L 143.144465 185.47569 
L 143.208936 185.246229 
L 143.273169 185.246229 
L 143.337167 184.672578 
L 143.464461 184.672578 
L 143.464461 184.443117 
L 143.590833 184.443117 
L 143.653678 184.213656 
L 143.716296 184.213656 
L 143.716296 184.098926 
L 143.902815 184.098926 
L 143.964547 183.525274 
L 144.026061 183.525274 
L 144.087359 182.607432 
L 144.148442 182.607432 
L 144.148442 182.263241 
L 144.269971 182.263241 
L 144.330419 182.03378 
L 144.390658 182.03378 
L 144.390658 181.689589 
L 144.510517 181.689589 
L 144.570138 181.001207 
L 144.629556 181.001207 
L 144.688773 180.312825 
L 144.747789 180.312825 
L 144.806606 179.739173 
L 144.865226 179.739173 
L 144.865226 179.509712 
L 144.981877 179.509712 
L 145.039911 179.165521 
L 145.097753 179.165521 
L 145.097753 178.477139 
L 145.609873 178.477139 
L 145.609873 178.247679 
L 145.721664 178.247679 
L 145.832743 177.788757 
L 146.107383 177.788757 
L 146.107383 177.674027 
L 146.484754 177.674027 
L 146.484754 177.559296 
L 146.749392 177.559296 
L 146.854132 176.756184 
L 146.906268 176.756184 
L 146.906268 175.953072 
L 147.164632 175.953072 
L 147.164632 175.608881 
L 147.317833 175.608881 
L 147.419225 175.37942 
L 147.620256 175.37942 
L 147.71991 175.035229 
L 147.769524 175.035229 
L 147.818997 174.461577 
L 147.96658 174.461577 
L 148.064279 173.084813 
L 148.258051 173.084813 
L 148.354135 172.625892 
L 148.497276 172.625892 
L 148.592055 172.281701 
L 148.733265 172.281701 
L 148.733265 172.16697 
L 149.012299 172.16697 
L 149.104327 171.593319 
L 149.286939 171.593319 
L 149.377533 171.249128 
L 149.467659 171.249128 
L 149.557321 171.019667 
L 149.646525 171.019667 
L 149.735275 169.298712 
L 149.911431 169.298712 
L 149.998846 168.61033 
L 150.085825 168.61033 
L 150.129152 168.266139 
L 150.215485 168.266139 
L 150.258492 168.036678 
L 150.344189 168.036678 
L 150.344189 167.807217 
L 150.51433 167.807217 
L 150.51433 167.692487 
L 150.640855 167.692487 
L 150.724698 166.889374 
L 150.849711 166.889374 
L 150.891184 166.086262 
L 150.973835 166.086262 
L 151.015013 165.856801 
L 151.13797 165.856801 
L 151.178764 165.168419 
L 151.381313 165.168419 
L 151.461678 164.250577 
L 151.541675 164.250577 
L 151.621307 163.332734 
L 151.660987 163.332734 
L 151.700576 162.300161 
L 151.818809 162.300161 
L 151.897188 161.95597 
L 151.975216 161.95597 
L 152.052897 161.038127 
L 152.207228 161.038127 
L 152.283884 160.235015 
L 152.360205 160.235015 
L 152.436193 159.661363 
L 152.474064 159.661363 
L 152.549559 159.202441 
L 152.699575 159.202441 
L 152.774102 158.972981 
L 152.922207 158.972981 
L 153.032466 158.514059 
L 153.105587 158.514059 
L 153.105587 158.399329 
L 153.287059 158.399329 
L 153.287059 158.284599 
L 153.466662 158.284599 
L 153.573542 157.710947 
L 153.609024 157.710947 
L 153.679772 157.137295 
L 153.750233 157.137295 
L 153.855395 156.678374 
L 153.994632 156.678374 
L 154.063835 156.448913 
L 154.132765 156.448913 
L 154.201424 155.875262 
L 154.269814 155.875262 
L 154.337936 155.41634 
L 154.405793 155.41634 
L 154.507086 154.727958 
L 154.54072 154.727958 
L 154.641235 153.924846 
L 154.674612 153.924846 
L 154.77436 153.351194 
L 154.807483 153.351194 
L 154.873541 152.892273 
L 154.93935 152.892273 
L 155.0376 152.548082 
L 155.070227 152.548082 
L 155.167744 151.171317 
L 155.200129 151.171317 
L 155.296925 150.368205 
L 155.361158 150.368205 
L 155.457066 148.76198 
L 155.520713 148.76198 
L 155.61575 148.303059 
L 155.647315 148.303059 
L 155.741666 147.385216 
L 155.773004 147.385216 
L 155.773004 147.270486 
L 155.959855 147.270486 
L 156.021696 146.811564 
L 156.083319 146.811564 
L 156.175347 146.123182 
L 156.236431 146.123182 
L 156.327657 145.664261 
L 156.38821 145.664261 
L 156.448553 145.20534 
L 156.658127 145.20534 
L 156.747178 144.402227 
L 156.776762 144.402227 
L 156.865211 143.713845 
L 156.923929 143.713845 
L 157.011638 143.140193 
L 157.098907 143.140193 
L 157.185742 142.566542 
L 157.214591 142.566542 
L 157.300853 142.222351 
L 157.329512 142.222351 
L 157.38669 141.87816 
L 157.443681 141.87816 
L 157.500487 140.960317 
L 157.557108 140.960317 
L 157.641697 140.386665 
L 157.669802 140.386665 
L 157.753847 139.813013 
L 157.781772 139.813013 
L 157.781772 139.698283 
L 157.920731 139.698283 
L 158.031107 139.124631 
L 158.113432 139.124631 
L 158.168101 138.321519 
L 158.304027 138.321519 
L 158.412011 137.862598 
L 158.438903 137.862598 
L 158.51933 137.403676 
L 158.572743 137.403676 
L 158.652556 137.059485 
L 158.705563 137.059485 
L 158.811096 136.830024 
L 158.83738 136.830024 
L 158.942121 136.371103 
L 159.072168 136.371103 
L 159.149734 136.141642 
L 159.303838 136.141642 
L 159.354904 135.797451 
L 159.582872 135.797451 
L 159.658204 135.567991 
L 159.708245 135.567991 
L 159.708245 135.33853 
L 159.857512 135.33853 
L 159.956318 134.879609 
L 160.005512 134.879609 
L 160.103486 134.420687 
L 160.176607 134.420687 
L 160.225184 133.961766 
L 160.321935 133.961766 
L 160.37011 133.732305 
L 160.466062 133.732305 
L 160.56149 133.502844 
L 160.656397 133.502844 
L 160.656397 133.388114 
L 160.844678 133.388114 
L 160.86807 133.158653 
L 160.961329 133.158653 
L 160.961329 133.043923 
L 161.077205 133.043923 
L 161.100288 132.814462 
L 161.238149 132.814462 
L 161.329454 132.470271 
L 161.352206 132.470271 
L 161.442917 132.12608 
L 161.667653 132.12608 
L 161.689969 131.667159 
L 162.021314 131.667159 
L 162.130378 131.322968 
L 162.19549 131.322968 
L 162.303474 131.093507 
L 162.410793 131.093507 
L 162.517456 130.405125 
L 162.62347 130.405125 
L 162.728843 129.716743 
L 162.812686 129.716743 
L 162.896128 129.143091 
L 162.9377 129.143091 
L 163.020547 128.68417 
L 163.205526 128.68417 
L 163.266752 128.225249 
L 163.348054 128.225249 
L 163.449152 127.995788 
L 163.50953 127.995788 
L 163.589711 127.651597 
L 163.748975 127.651597 
L 163.847782 126.963215 
L 163.867476 126.963215 
L 163.965615 126.619024 
L 164.004716 126.619024 
L 164.102088 126.045372 
L 164.121498 126.045372 
L 164.19892 125.701181 
L 164.237502 125.701181 
L 164.314412 125.35699 
L 164.35274 125.35699 
L 164.390984 125.012799 
L 164.467222 125.012799 
L 164.562052 124.324417 
L 164.599841 124.324417 
L 164.675172 123.750765 
L 164.768882 123.750765 
L 164.86209 123.177114 
L 164.880672 123.177114 
L 164.954803 122.718192 
L 165.02862 122.718192 
L 165.138764 122.259271 
L 165.157053 122.259271 
L 165.266391 121.800349 
L 165.320804 121.800349 
L 165.338904 121.570889 
L 165.55465 121.570889 
L 165.643763 121.341428 
L 165.732422 121.341428 
L 165.820633 120.882507 
L 165.873346 120.882507 
L 165.943384 120.653046 
L 166.047915 120.653046 
L 166.117256 120.423585 
L 166.203547 120.423585 
L 166.203547 120.194125 
L 166.34073 120.194125 
L 166.408919 119.620473 
L 166.561376 119.620473 
L 166.662278 118.817361 
L 166.695783 118.817361 
L 166.7626 118.5879 
L 166.829163 118.5879 
L 166.928532 118.128978 
L 166.994465 118.128978 
L 167.027338 117.555327 
L 167.141909 117.555327 
L 167.190782 117.211136 
L 167.304287 117.211136 
L 167.400994 116.637484 
L 167.417059 116.637484 
L 167.497166 116.408023 
L 167.560988 116.408023 
L 167.656285 115.949102 
L 167.782543 115.949102 
L 167.87664 115.719641 
L 167.923499 115.719641 
L 168.001318 115.26072 
L 168.140524 115.26072 
L 168.18668 115.031259 
L 168.309168 115.031259 
L 168.309168 114.916529 
L 168.445948 114.916529 
L 168.506396 114.457607 
L 168.566635 114.457607 
L 168.566635 114.342877 
L 168.982583 114.342877 
L 168.982583 114.228147 
L 169.099626 114.228147 
L 169.099626 114.113416 
L 169.230367 114.113416 
L 169.27373 113.883956 
L 169.673338 113.883956 
L 169.701534 113.539765 
L 169.827856 113.539765 
L 169.827856 113.425034 
L 169.967148 113.425034 
L 170.050192 112.851383 
L 170.378471 112.851383 
L 170.378471 112.736652 
L 170.51345 112.736652 
L 170.58055 112.277731 
L 170.647393 112.277731 
L 170.660731 112.04827 
L 170.767069 112.04827 
L 170.872762 111.589349 
L 170.899085 111.589349 
L 171.003983 110.671506 
L 171.017051 110.671506 
L 171.017051 110.556776 
L 171.237722 110.556776 
L 171.314944 109.868394 
L 171.353428 109.868394 
L 171.455636 109.409472 
L 171.46837 109.409472 
L 171.531901 109.065281 
L 171.645677 109.065281 
L 171.708567 108.72109 
L 171.783736 108.72109 
L 171.783736 108.60636 
L 171.895887 108.60636 
L 171.957882 108.376899 
L 172.056618 108.376899 
L 172.142557 107.917978 
L 172.301041 107.917978 
L 172.301041 107.803248 
L 172.482136 107.803248 
L 172.506141 107.573787 
L 172.613754 107.573787 
L 172.66137 107.229596 
L 172.815229 107.229596 
L 172.909242 107.000135 
L 173.06094 107.000135 
L 173.06094 106.885405 
L 173.303236 106.885405 
L 173.383259 106.655944 
L 173.733298 106.655944 
L 173.744474 106.426483 
L 173.922314 106.426483 
L 173.922314 106.311753 
L 174.142093 106.311753 
L 174.250953 105.852832 
L 174.412979 105.852832 
L 174.412979 105.738101 
L 174.616074 105.738101 
L 174.722024 105.508641 
L 174.764225 105.508641 
L 174.869281 105.16445 
L 175.098201 105.16445 
L 175.129186 104.934989 
L 175.252577 104.934989 
L 175.324155 104.476068 
L 175.466434 104.476068 
L 175.537141 104.131877 
L 175.6777 104.131877 
L 175.78735 103.672955 
L 175.896315 103.672955 
L 175.994786 103.328764 
L 176.063387 103.328764 
L 176.160922 102.869843 
L 176.219183 102.869843 
L 176.296562 102.181461 
L 176.354372 102.181461 
L 176.411991 101.83727 
L 176.46942 101.83727 
L 176.564717 101.607809 
L 176.583714 101.607809 
L 176.61217 101.378348 
L 176.977944 101.378348 
L 176.977944 101.263618 
L 177.50811 101.263618 
L 177.579988 100.919427 
L 177.882205 100.919427 
L 177.970105 100.689966 
L 178.013889 100.689966 
L 178.040107 100.460506 
L 178.265693 100.460506 
L 178.368833 100.001584 
L 178.607149 100.001584 
L 178.649364 99.542663 
L 178.725096 99.542663 
L 178.808858 98.969011 
L 178.850589 98.969011 
L 178.850589 98.854281 
L 179.098898 98.854281 
L 179.19724 98.62482 
L 179.262495 98.62482 
L 179.262495 98.51009 
L 179.400355 98.51009 
L 179.400355 98.395359 
L 179.553156 98.395359 
L 179.633043 97.936438 
L 179.752191 97.936438 
L 179.775924 97.592247 
L 179.925483 97.592247 
L 179.948981 97.362786 
L 180.135832 97.362786 
L 180.189955 97.133326 
L 180.259296 97.133326 
L 180.259296 97.018595 
L 180.442869 97.018595 
L 180.518792 96.674404 
L 180.684666 96.674404 
L 180.707163 96.330213 
L 180.893522 96.330213 
L 180.893522 96.215483 
L 181.026478 96.215483 
L 181.026478 96.100752 
L 181.180322 96.100752 
L 181.231304 95.871292 
L 181.303877 95.871292 
L 181.390568 95.641831 
L 181.448123 95.641831 
L 181.469658 95.41237 
L 181.576933 95.41237 
L 181.648084 95.18291 
L 181.704798 95.18291 
L 181.796565 94.838719 
L 181.971695 94.838719 
L 182.075935 94.609258 
L 182.117457 94.609258 
L 182.151983 94.379797 
L 182.323597 94.379797 
L 182.344078 94.035606 
L 182.459683 94.035606 
L 182.459683 93.920876 
L 182.587988 93.920876 
L 182.587988 93.806146 
L 182.78202 93.806146 
L 182.868304 93.461955 
L 182.980496 93.461955 
L 182.980496 93.347224 
L 183.11157 93.347224 
L 183.150701 93.117764 
L 183.254622 93.117764 
L 183.254622 92.888303 
L 184.181489 92.888303 
L 184.279463 92.658842 
L 184.382961 92.658842 
L 184.382961 92.544112 
L 184.528037 92.544112 
L 184.528037 92.429381 
L 184.784985 92.429381 
L 184.873735 92.199921 
L 184.897325 92.199921 
L 184.950287 91.85573 
L 185.108216 91.85573 
L 185.108216 91.740999 
L 185.264727 91.740999 
L 185.270497 91.396808 
L 185.385494 91.396808 
L 185.385494 91.282078 
L 185.607581 91.282078 
L 185.647145 91.052617 
L 185.731624 91.052617 
L 185.731624 90.937887 
L 185.916051 90.937887 
L 186.021357 90.593696 
L 186.037927 90.593696 
L 186.120538 90.364235 
L 186.169918 90.364235 
L 186.246454 90.020044 
L 186.322656 90.020044 
L 186.322656 89.905314 
L 186.495591 89.905314 
L 186.495591 89.790584 
L 186.645515 89.790584 
L 186.645515 89.675853 
L 186.773004 89.675853 
L 186.778295 89.446393 
L 187.05649 89.446393 
L 187.155149 89.216932 
L 187.43254 89.216932 
L 187.43254 89.102202 
L 187.745678 89.102202 
L 187.745678 88.987471 
L 188.053292 88.987471 
L 188.161154 88.75801 
L 188.566961 88.75801 
L 188.657456 88.413819 
L 189.038067 88.413819 
L 189.144645 88.069628 
L 189.218403 88.069628 
L 189.218403 87.954898 
L 189.623088 87.954898 
L 189.708278 87.725437 
L 189.752948 87.725437 
L 189.752948 87.610707 
L 189.95256 87.610707 
L 189.979004 87.381246 
L 190.275924 87.381246 
L 190.370914 87.037055 
L 190.580642 87.037055 
L 190.682452 86.807595 
L 190.771052 86.807595 
L 190.779466 86.578134 
L 190.946912 86.578134 
L 190.946912 86.463404 
L 191.374891 86.463404 
L 191.374891 86.348673 
L 191.585005 86.348673 
L 191.585005 86.233943 
L 192.044795 86.233943 
L 192.044795 86.119213 
L 192.169529 86.119213 
L 192.258633 85.775022 
L 192.408691 85.775022 
L 192.408691 85.660291 
L 192.621925 85.660291 
L 192.708753 85.3161 
L 192.959252 85.3161 
L 192.959252 85.20137 
L 193.220837 85.20137 
L 193.220837 85.086639 
L 193.629236 85.086639 
L 193.629236 84.971909 
L 194.267544 84.971909 
L 194.295072 84.742448 
L 194.527326 84.742448 
L 194.547671 84.512988 
L 195.055323 84.512988 
L 195.055323 84.398257 
L 195.274482 84.398257 
L 195.274482 84.283527 
L 195.555013 84.283527 
L 195.555013 84.168797 
L 195.736392 84.168797 
L 195.837398 83.939336 
L 195.975333 83.939336 
L 195.975333 83.824606 
L 196.260265 83.824606 
L 196.260265 83.709875 
L 196.861106 83.709875 
L 196.861106 83.595145 
L 197.21948 83.595145 
L 197.312273 83.250954 
L 197.94278 83.250954 
L 197.94278 83.136224 
L 198.183784 83.136224 
L 198.277072 82.792033 
L 198.339897 82.792033 
L 198.339897 82.677302 
L 198.540506 82.677302 
L 198.583579 82.333111 
L 198.992809 82.333111 
L 199.063578 82.103651 
L 200.880313 82.103651 
L 200.910926 81.87419 
L 201.170156 81.87419 
L 201.170156 81.75946 
L 201.285679 81.75946 
L 201.285679 81.644729 
L 201.587033 81.644729 
L 201.587033 81.529999 
L 201.798502 81.529999 
L 201.867684 81.300538 
L 201.918835 81.300538 
L 201.929935 81.071077 
L 202.097792 81.071077 
L 202.097792 80.956347 
L 202.619634 80.956347 
L 202.619634 80.841617 
L 202.768326 80.841617 
L 202.768326 80.726886 
L 202.978567 80.726886 
L 202.978567 80.612156 
L 203.136672 80.612156 
L 203.136672 80.497426 
L 203.264599 80.497426 
L 203.264599 80.382695 
L 203.466944 80.382695 
L 203.466944 80.267965 
L 204.853137 80.267965 
L 204.853137 80.153235 
L 205.423636 80.153235 
L 205.423636 80.038504 
L 205.579151 80.038504 
L 205.579151 79.923774 
L 205.879005 79.923774 
L 205.879005 79.809044 
L 206.267494 79.809044 
L 206.267494 79.694313 
L 206.737032 79.694313 
L 206.737032 79.579583 
L 207.277751 79.579583 
L 207.277751 79.464853 
L 208.033632 79.464853 
L 208.033632 79.350122 
L 211.063717 79.350122 
L 211.156797 79.120662 
L 211.684793 79.120662 
L 211.684793 79.005931 
L 212.309004 79.005931 
L 212.309004 78.891201 
L 219.365739 78.891201 
L 219.365739 78.776471 
L 226.519312 78.776471 
L 226.519312 78.66174 
L 338.688 78.66174 
L 338.688 78.66174 
" style="fill:none;stroke:#ff00ff;stroke-linecap:square;stroke-width:1.5;"/>
   </g>
   <g id="line2d_41">
    <defs>
     <path d="M -0 8.485281 
L 5.091169 0 
L 0 -8.485281 
L -5.091169 -0 
z
" id="m9ac7116ce7" style="stroke:#ff00ff;stroke-linejoin:miter;stroke-width:1.5;"/>
    </defs>
    <g>
     <use style="fill-opacity:0;stroke:#ff00ff;stroke-linejoin:miter;stroke-width:1.5;" x="112.655818" xlink:href="#m9ac7116ce7" y="263.607054"/>
     <use style="fill-opacity:0;stroke:#ff00ff;stroke-linejoin:miter;stroke-width:1.5;" x="153.466662" xlink:href="#m9ac7116ce7" y="158.055138"/>
     <use style="fill-opacity:0;stroke:#ff00ff;stroke-linejoin:miter;stroke-width:1.5;" x="207.277751" xlink:href="#m9ac7116ce7" y="79.579583"/>
     <use style="fill-opacity:0;stroke:#ff00ff;stroke-linejoin:miter;stroke-width:1.5;" x="226.519312" xlink:href="#m9ac7116ce7" y="78.66174"/>
     <use style="fill-opacity:0;stroke:#ff00ff;stroke-linejoin:miter;stroke-width:1.5;" x="226.519312" xlink:href="#m9ac7116ce7" y="78.66174"/>
     <use style="fill-opacity:0;stroke:#ff00ff;stroke-linejoin:miter;stroke-width:1.5;" x="338.688" xlink:href="#m9ac7116ce7" y="78.66174"/>
    </g>
   </g>
   <g id="line2d_42">
    <path style="fill:none;stroke:#ff00ff;stroke-linecap:square;stroke-width:1.5;"/>
    <g/>
   </g>
   <g id="line2d_43">
    <path clip-path="url(#p48fad1e1fe)" d="M 151.740076 162.300161 
" style="fill:none;stroke:#ff00ff;stroke-linecap:square;stroke-width:1.5;"/>
    <defs>
     <path d="M -12 12 
L 12 -12 
M -12 -12 
L 12 12 
" id="m66aea34468" style="stroke:#ff00ff;"/>
    </defs>
    <g clip-path="url(#p48fad1e1fe)">
     <use style="fill:#ff00ff;stroke:#ff00ff;" x="151.740076" xlink:href="#m66aea34468" y="162.300161"/>
    </g>
   </g>
   <g id="line2d_44">
    <path d="M 338.688 206.012422 
L 369.60768 293.092752 
" style="fill:none;stroke:#000080;stroke-linecap:square;stroke-width:1.5;"/>
    <g>
     <use style="fill-opacity:0;stroke:#000080;stroke-width:1.5;" x="338.688" xlink:href="#m5252667726" y="206.012422"/>
     <use style="fill-opacity:0;stroke:#000080;stroke-width:1.5;" x="369.60768" xlink:href="#m5252667726" y="293.092752"/>
    </g>
   </g>
   <g id="line2d_45">
    <path d="M 338.688 78.66174 
L 369.60768 152.662812 
" style="fill:none;stroke:#ff00ff;stroke-linecap:square;stroke-width:1.5;"/>
    <g>
     <use style="fill-opacity:0;stroke:#ff00ff;stroke-linejoin:miter;stroke-width:1.5;" x="338.688" xlink:href="#m9ac7116ce7" y="78.66174"/>
     <use style="fill-opacity:0;stroke:#ff00ff;stroke-linejoin:miter;stroke-width:1.5;" x="369.60768" xlink:href="#m9ac7116ce7" y="152.662812"/>
    </g>
   </g>
   <g id="line2d_46">
    <path d="M 338.688 298.944 
L 338.688 6.381624 
" style="fill:none;stroke:#000000;stroke-linecap:square;stroke-width:1.5;"/>
   </g>
   <g id="patch_3">
    <path d="M 57.6 298.944 
L 57.6 3.456 
" style="fill:none;stroke:#000000;stroke-linecap:square;stroke-linejoin:miter;stroke-width:0.8;"/>
   </g>
   <g id="patch_4">
    <path d="M 338.688 298.944 
L 338.688 3.456 
" style="fill:none;stroke:#000000;stroke-linecap:square;stroke-linejoin:miter;stroke-width:0.8;"/>
   </g>
   <g id="patch_5">
    <path d="M 57.6 298.944 
L 338.688 298.944 
" style="fill:none;stroke:#000000;stroke-linecap:square;stroke-linejoin:miter;stroke-width:0.8;"/>
   </g>
   <g id="patch_6">
    <path d="M 57.6 3.456 
L 338.688 3.456 
" style="fill:none;stroke:#000000;stroke-linecap:square;stroke-linejoin:miter;stroke-width:0.8;"/>
   </g>
   <g id="text_13">
    <!-- gpy lcb -->
    <defs>
     <path d="M 32.171875 -5.078125 
Q 28.375 -14.84375 24.75 -17.8125 
Q 21.140625 -20.796875 15.09375 -20.796875 
L 7.90625 -20.796875 
L 7.90625 -13.28125 
L 13.1875 -13.28125 
Q 16.890625 -13.28125 18.9375 -11.515625 
Q 21 -9.765625 23.484375 -3.21875 
L 25.09375 0.875 
L 2.984375 54.6875 
L 12.5 54.6875 
L 29.59375 11.921875 
L 46.6875 54.6875 
L 56.203125 54.6875 
z
" id="DejaVuSans-121"/>
     <path d="M 48.6875 27.296875 
Q 48.6875 37.203125 44.609375 42.84375 
Q 40.53125 48.484375 33.40625 48.484375 
Q 26.265625 48.484375 22.1875 42.84375 
Q 18.109375 37.203125 18.109375 27.296875 
Q 18.109375 17.390625 22.1875 11.75 
Q 26.265625 6.109375 33.40625 6.109375 
Q 40.53125 6.109375 44.609375 11.75 
Q 48.6875 17.390625 48.6875 27.296875 
z
M 18.109375 46.390625 
Q 20.953125 51.265625 25.265625 53.625 
Q 29.59375 56 35.59375 56 
Q 45.5625 56 51.78125 48.09375 
Q 58.015625 40.1875 58.015625 27.296875 
Q 58.015625 14.40625 51.78125 6.484375 
Q 45.5625 -1.421875 35.59375 -1.421875 
Q 29.59375 -1.421875 25.265625 0.953125 
Q 20.953125 3.328125 18.109375 8.203125 
L 18.109375 0 
L 9.078125 0 
L 9.078125 75.984375 
L 18.109375 75.984375 
z
" id="DejaVuSans-98"/>
    </defs>
    <g transform="translate(375.22944 297.78369)scale(0.17 -0.17)">
     <use xlink:href="#DejaVuSans-103"/>
     <use x="63.476562" xlink:href="#DejaVuSans-112"/>
     <use x="126.953125" xlink:href="#DejaVuSans-121"/>
     <use x="186.132812" xlink:href="#DejaVuSans-32"/>
     <use x="217.919922" xlink:href="#DejaVuSans-108"/>
     <use x="245.703125" xlink:href="#DejaVuSans-99"/>
     <use x="300.683594" xlink:href="#DejaVuSans-98"/>
    </g>
   </g>
   <g id="text_14">
    <!-- scp fmin -->
    <g transform="translate(375.22944 157.353749)scale(0.17 -0.17)">
     <use xlink:href="#DejaVuSans-115"/>
     <use x="52.099609" xlink:href="#DejaVuSans-99"/>
     <use x="107.080078" xlink:href="#DejaVuSans-112"/>
     <use x="170.556641" xlink:href="#DejaVuSans-32"/>
     <use x="202.34375" xlink:href="#DejaVuSans-102"/>
     <use x="237.548828" xlink:href="#DejaVuSans-109"/>
     <use x="334.960938" xlink:href="#DejaVuSans-105"/>
     <use x="362.744141" xlink:href="#DejaVuSans-110"/>
    </g>
   </g>
   <g id="text_15">
    <!-- best 2009 -->
    <defs>
     <path d="M 10.984375 1.515625 
L 10.984375 10.5 
Q 14.703125 8.734375 18.5 7.8125 
Q 22.3125 6.890625 25.984375 6.890625 
Q 35.75 6.890625 40.890625 13.453125 
Q 46.046875 20.015625 46.78125 33.40625 
Q 43.953125 29.203125 39.59375 26.953125 
Q 35.25 24.703125 29.984375 24.703125 
Q 19.046875 24.703125 12.671875 31.3125 
Q 6.296875 37.9375 6.296875 49.421875 
Q 6.296875 60.640625 12.9375 67.421875 
Q 19.578125 74.21875 30.609375 74.21875 
Q 43.265625 74.21875 49.921875 64.515625 
Q 56.59375 54.828125 56.59375 36.375 
Q 56.59375 19.140625 48.40625 8.859375 
Q 40.234375 -1.421875 26.421875 -1.421875 
Q 22.703125 -1.421875 18.890625 -0.6875 
Q 15.09375 0.046875 10.984375 1.515625 
z
M 30.609375 32.421875 
Q 37.25 32.421875 41.125 36.953125 
Q 45.015625 41.5 45.015625 49.421875 
Q 45.015625 57.28125 41.125 61.84375 
Q 37.25 66.40625 30.609375 66.40625 
Q 23.96875 66.40625 20.09375 61.84375 
Q 16.21875 57.28125 16.21875 49.421875 
Q 16.21875 41.5 20.09375 36.953125 
Q 23.96875 32.421875 30.609375 32.421875 
z
" id="DejaVuSans-57"/>
    </defs>
    <g transform="translate(375.22944 16.923809)scale(0.17 -0.17)">
     <use xlink:href="#DejaVuSans-98"/>
     <use x="63.476562" xlink:href="#DejaVuSans-101"/>
     <use x="125" xlink:href="#DejaVuSans-115"/>
     <use x="177.099609" xlink:href="#DejaVuSans-116"/>
     <use x="216.308594" xlink:href="#DejaVuSans-32"/>
     <use x="248.095703" xlink:href="#DejaVuSans-50"/>
     <use x="311.71875" xlink:href="#DejaVuSans-48"/>
     <use x="375.341797" xlink:href="#DejaVuSans-48"/>
     <use x="438.964844" xlink:href="#DejaVuSans-57"/>
    </g>
   </g>
   <g id="text_16">
    <!-- bbob f20-f24, 2-D -->
    <defs>
     <path d="M 19.671875 64.796875 
L 19.671875 8.109375 
L 31.59375 8.109375 
Q 46.6875 8.109375 53.6875 14.9375 
Q 60.6875 21.78125 60.6875 36.53125 
Q 60.6875 51.171875 53.6875 57.984375 
Q 46.6875 64.796875 31.59375 64.796875 
z
M 9.8125 72.90625 
L 30.078125 72.90625 
Q 51.265625 72.90625 61.171875 64.09375 
Q 71.09375 55.28125 71.09375 36.53125 
Q 71.09375 17.671875 61.125 8.828125 
Q 51.171875 0 30.078125 0 
L 9.8125 0 
z
" id="DejaVuSans-68"/>
    </defs>
    <g transform="translate(60.41088 14.161286)scale(0.102 -0.102)">
     <use xlink:href="#DejaVuSans-98"/>
     <use x="63.476562" xlink:href="#DejaVuSans-98"/>
     <use x="126.953125" xlink:href="#DejaVuSans-111"/>
     <use x="188.134766" xlink:href="#DejaVuSans-98"/>
     <use x="251.611328" xlink:href="#DejaVuSans-32"/>
     <use x="283.398438" xlink:href="#DejaVuSans-102"/>
     <use x="318.603516" xlink:href="#DejaVuSans-50"/>
     <use x="382.226562" xlink:href="#DejaVuSans-48"/>
     <use x="445.849609" xlink:href="#DejaVuSans-45"/>
     <use x="481.933594" xlink:href="#DejaVuSans-102"/>
     <use x="517.138672" xlink:href="#DejaVuSans-50"/>
     <use x="580.761719" xlink:href="#DejaVuSans-52"/>
     <use x="644.384766" xlink:href="#DejaVuSans-44"/>
     <use x="676.171875" xlink:href="#DejaVuSans-32"/>
     <use x="707.958984" xlink:href="#DejaVuSans-50"/>
     <use x="771.582031" xlink:href="#DejaVuSans-45"/>
     <use x="807.666016" xlink:href="#DejaVuSans-68"/>
    </g>
    <!-- 51 targets: 100..1e-08 -->
    <defs>
     <path d="M 10.796875 72.90625 
L 49.515625 72.90625 
L 49.515625 64.59375 
L 19.828125 64.59375 
L 19.828125 46.734375 
Q 21.96875 47.46875 24.109375 47.828125 
Q 26.265625 48.1875 28.421875 48.1875 
Q 40.625 48.1875 47.75 41.5 
Q 54.890625 34.8125 54.890625 23.390625 
Q 54.890625 11.625 47.5625 5.09375 
Q 40.234375 -1.421875 26.90625 -1.421875 
Q 22.3125 -1.421875 17.546875 -0.640625 
Q 12.796875 0.140625 7.71875 1.703125 
L 7.71875 11.625 
Q 12.109375 9.234375 16.796875 8.0625 
Q 21.484375 6.890625 26.703125 6.890625 
Q 35.15625 6.890625 40.078125 11.328125 
Q 45.015625 15.765625 45.015625 23.390625 
Q 45.015625 31 40.078125 35.4375 
Q 35.15625 39.890625 26.703125 39.890625 
Q 22.75 39.890625 18.8125 39.015625 
Q 14.890625 38.140625 10.796875 36.28125 
z
" id="DejaVuSans-53"/>
     <path d="M 11.71875 12.40625 
L 22.015625 12.40625 
L 22.015625 0 
L 11.71875 0 
z
M 11.71875 51.703125 
L 22.015625 51.703125 
L 22.015625 39.3125 
L 11.71875 39.3125 
z
" id="DejaVuSans-58"/>
    </defs>
    <g transform="translate(60.41088 25.583055)scale(0.102 -0.102)">
     <use xlink:href="#DejaVuSans-53"/>
     <use x="63.623047" xlink:href="#DejaVuSans-49"/>
     <use x="127.246094" xlink:href="#DejaVuSans-32"/>
     <use x="159.033203" xlink:href="#DejaVuSans-116"/>
     <use x="198.242188" xlink:href="#DejaVuSans-97"/>
     <use x="259.521484" xlink:href="#DejaVuSans-114"/>
     <use x="298.884766" xlink:href="#DejaVuSans-103"/>
     <use x="362.361328" xlink:href="#DejaVuSans-101"/>
     <use x="423.884766" xlink:href="#DejaVuSans-116"/>
     <use x="463.09375" xlink:href="#DejaVuSans-115"/>
     <use x="515.193359" xlink:href="#DejaVuSans-58"/>
     <use x="548.884766" xlink:href="#DejaVuSans-32"/>
     <use x="580.671875" xlink:href="#DejaVuSans-49"/>
     <use x="644.294922" xlink:href="#DejaVuSans-48"/>
     <use x="707.917969" xlink:href="#DejaVuSans-48"/>
     <use x="771.541016" xlink:href="#DejaVuSans-46"/>
     <use x="803.328125" xlink:href="#DejaVuSans-46"/>
     <use x="835.115234" xlink:href="#DejaVuSans-49"/>
     <use x="898.738281" xlink:href="#DejaVuSans-101"/>
     <use x="960.261719" xlink:href="#DejaVuSans-45"/>
     <use x="996.345703" xlink:href="#DejaVuSans-48"/>
     <use x="1059.96875" xlink:href="#DejaVuSans-56"/>
    </g>
    <!-- 15 instances -->
    <g transform="translate(60.41088 37.004824)scale(0.102 -0.102)">
     <use xlink:href="#DejaVuSans-49"/>
     <use x="63.623047" xlink:href="#DejaVuSans-53"/>
     <use x="127.246094" xlink:href="#DejaVuSans-32"/>
     <use x="159.033203" xlink:href="#DejaVuSans-105"/>
     <use x="186.816406" xlink:href="#DejaVuSans-110"/>
     <use x="250.195312" xlink:href="#DejaVuSans-115"/>
     <use x="302.294922" xlink:href="#DejaVuSans-116"/>
     <use x="341.503906" xlink:href="#DejaVuSans-97"/>
     <use x="402.783203" xlink:href="#DejaVuSans-110"/>
     <use x="466.162109" xlink:href="#DejaVuSans-99"/>
     <use x="521.142578" xlink:href="#DejaVuSans-101"/>
     <use x="582.666016" xlink:href="#DejaVuSans-115"/>
    </g>
   </g>
   <g id="text_17">
    <!-- v2.3.3.5 -->
    <defs>
     <path d="M 40.578125 39.3125 
Q 47.65625 37.796875 51.625 33 
Q 55.609375 28.21875 55.609375 21.1875 
Q 55.609375 10.40625 48.1875 4.484375 
Q 40.765625 -1.421875 27.09375 -1.421875 
Q 22.515625 -1.421875 17.65625 -0.515625 
Q 12.796875 0.390625 7.625 2.203125 
L 7.625 11.71875 
Q 11.71875 9.328125 16.59375 8.109375 
Q 21.484375 6.890625 26.8125 6.890625 
Q 36.078125 6.890625 40.9375 10.546875 
Q 45.796875 14.203125 45.796875 21.1875 
Q 45.796875 27.640625 41.28125 31.265625 
Q 36.765625 34.90625 28.71875 34.90625 
L 20.21875 34.90625 
L 20.21875 43.015625 
L 29.109375 43.015625 
Q 36.375 43.015625 40.234375 45.921875 
Q 44.09375 48.828125 44.09375 54.296875 
Q 44.09375 59.90625 40.109375 62.90625 
Q 36.140625 65.921875 28.71875 65.921875 
Q 24.65625 65.921875 20.015625 65.03125 
Q 15.375 64.15625 9.8125 62.3125 
L 9.8125 71.09375 
Q 15.4375 72.65625 20.34375 73.4375 
Q 25.25 74.21875 29.59375 74.21875 
Q 40.828125 74.21875 47.359375 69.109375 
Q 53.90625 64.015625 53.90625 55.328125 
Q 53.90625 49.265625 50.4375 45.09375 
Q 46.96875 40.921875 40.578125 39.3125 
z
" id="DejaVuSans-51"/>
    </defs>
    <g style="fill:#808080;" transform="translate(177.692437 293.909432)scale(0.1 -0.1)">
     <use xlink:href="#DejaVuSans-118"/>
     <use x="59.179688" xlink:href="#DejaVuSans-50"/>
     <use x="122.802734" xlink:href="#DejaVuSans-46"/>
     <use x="154.589844" xlink:href="#DejaVuSans-51"/>
     <use x="218.212891" xlink:href="#DejaVuSans-46"/>
     <use x="250" xlink:href="#DejaVuSans-51"/>
     <use x="313.623047" xlink:href="#DejaVuSans-46"/>
     <use x="345.410156" xlink:href="#DejaVuSans-53"/>
    </g>
   </g>
  </g>
 </g>
 <defs>
  <clipPath id="p48fad1e1fe">
   <rect height="295.488" width="281.088" x="57.6" y="3.456"/>
  </clipPath>
 </defs>
</svg>
