<?xml version="1.0" encoding="utf-8" standalone="no"?>
<!DOCTYPE svg PUBLIC "-//W3C//DTD SVG 1.1//EN"
  "http://www.w3.org/Graphics/SVG/1.1/DTD/svg11.dtd">
<!-- Created with matplotlib (https://matplotlib.org/) -->
<svg height="345.6pt" version="1.1" viewBox="0 0 460.8 345.6" width="460.8pt" xmlns="http://www.w3.org/2000/svg" xmlns:xlink="http://www.w3.org/1999/xlink">
 <defs>
  <style type="text/css">
*{stroke-linecap:butt;stroke-linejoin:round;}
  </style>
 </defs>
 <g id="figure_1">
  <g id="patch_1">
   <path d="M 0 345.6 
L 460.8 345.6 
L 460.8 0 
L 0 0 
z
" style="fill:#ffffff;"/>
  </g>
  <g id="axes_1">
   <g id="patch_2">
    <path d="M 57.6 298.944 
L 338.688 298.944 
L 338.688 3.456 
L 57.6 3.456 
z
" style="fill:#ffffff;"/>
   </g>
   <g id="line2d_1">
    <path d="M 45.512012 298.944 
L 45.512012 285.558793 
L 57.6 285.558793 
L 57.6 281.256405 
L 64.67102 281.256405 
L 64.67102 277.671082 
L 69.687988 277.671082 
L 69.687988 263.807832 
L 73.579452 263.807832 
L 73.579452 260.700552 
L 76.759008 260.700552 
L 76.759008 249.944582 
L 79.447285 249.944582 
L 79.447285 248.988496 
L 81.775977 248.988496 
L 81.775977 248.03241 
L 83.830028 248.03241 
L 83.830028 247.076324 
L 85.66744 247.076324 
L 85.66744 246.120238 
L 87.329581 246.120238 
L 87.329581 245.164151 
L 88.846997 245.164151 
L 88.846997 243.730022 
L 90.242884 243.730022 
L 90.242884 242.773936 
L 91.535274 242.773936 
L 91.535274 241.339807 
L 92.73846 241.339807 
L 92.73846 239.188613 
L 93.863965 239.188613 
L 93.863965 238.232526 
L 94.921215 238.232526 
L 94.921215 237.754483 
L 95.918017 237.754483 
L 95.918017 235.364268 
L 96.86091 235.364268 
L 96.86091 232.974052 
L 97.755429 232.974052 
L 97.755429 231.539923 
L 98.606294 231.539923 
L 98.606294 230.105794 
L 99.41757 230.105794 
L 99.41757 229.388729 
L 100.192776 229.388729 
L 100.192776 228.432643 
L 100.934985 228.432643 
L 100.934985 226.998514 
L 101.646892 226.998514 
L 101.646892 225.086341 
L 102.330873 225.086341 
L 102.330873 222.696126 
L 102.989037 222.696126 
L 102.989037 220.544932 
L 103.623262 220.544932 
L 103.623262 217.915695 
L 104.23523 217.915695 
L 104.23523 216.720587 
L 104.826449 216.720587 
L 104.826449 215.047436 
L 105.398279 215.047436 
L 105.398279 213.852328 
L 105.951954 213.852328 
L 105.951954 213.135264 
L 106.48859 213.135264 
L 106.48859 212.418199 
L 107.514726 212.418199 
L 107.514726 210.98407 
L 108.483824 210.98407 
L 108.483824 210.267005 
L 108.948899 210.267005 
L 108.948899 208.593854 
L 109.401893 208.593854 
L 109.401893 208.115811 
L 109.843417 208.115811 
L 109.843417 206.203639 
L 110.274038 206.203639 
L 110.274038 205.486574 
L 110.694282 205.486574 
L 110.694282 204.052445 
L 111.104637 204.052445 
L 111.104637 203.096359 
L 111.505558 203.096359 
L 111.505558 201.662229 
L 111.897469 201.662229 
L 111.897469 200.945165 
L 112.280765 200.945165 
L 112.280765 198.076906 
L 112.655818 198.076906 
L 112.655818 197.359842 
L 113.022974 197.359842 
L 113.022974 196.642777 
L 113.382559 196.642777 
L 113.382559 195.925712 
L 113.73488 195.925712 
L 113.73488 194.491583 
L 114.080224 194.491583 
L 114.080224 193.296475 
L 114.418861 193.296475 
L 114.418861 193.057454 
L 114.751048 193.057454 
L 114.751048 192.579411 
L 115.077025 192.579411 
L 115.077025 191.862346 
L 115.397021 191.862346 
L 115.397021 191.145281 
L 115.711251 191.145281 
L 115.711251 190.189195 
L 116.019919 190.189195 
L 116.019919 189.711152 
L 116.323218 189.711152 
L 116.323218 188.994087 
L 116.621333 188.994087 
L 116.621333 188.277023 
L 116.914437 188.277023 
L 116.914437 187.559958 
L 117.202696 187.559958 
L 117.202696 186.36485 
L 117.486268 186.36485 
L 117.486268 185.169743 
L 117.765302 185.169743 
L 117.765302 184.452678 
L 118.039942 184.452678 
L 118.039942 183.735613 
L 118.310324 183.735613 
L 118.310324 182.779527 
L 118.576578 182.779527 
L 118.576578 182.062462 
L 118.838828 182.062462 
L 118.838828 180.628333 
L 119.097192 180.628333 
L 119.097192 179.672247 
L 119.351785 179.672247 
L 119.351785 179.194204 
L 119.602714 179.194204 
L 119.602714 178.238118 
L 119.850084 178.238118 
L 119.850084 177.999096 
L 120.093994 177.999096 
L 120.093994 177.282031 
L 120.33454 177.282031 
L 120.33454 176.086924 
L 120.571812 176.086924 
L 120.571812 174.652794 
L 120.8059 174.652794 
L 120.8059 173.93573 
L 121.036887 173.93573 
L 121.036887 172.979644 
L 121.264855 172.979644 
L 121.264855 172.262579 
L 121.489881 172.262579 
L 121.489881 171.306493 
L 121.712041 171.306493 
L 121.712041 170.589428 
L 121.931406 170.589428 
L 121.931406 168.916277 
L 122.148045 168.916277 
L 122.148045 166.28704 
L 122.362027 166.28704 
L 122.362027 165.569976 
L 122.573415 165.569976 
L 122.573415 165.091932 
L 122.782271 165.091932 
L 122.782271 164.135846 
L 122.988655 164.135846 
L 122.988655 163.657803 
L 123.192626 163.657803 
L 123.192626 162.462695 
L 123.394238 162.462695 
L 123.394238 161.506609 
L 123.593547 161.506609 
L 123.593547 160.550523 
L 123.790603 160.550523 
L 123.790603 158.877372 
L 123.985457 158.877372 
L 123.985457 157.443243 
L 124.178158 157.443243 
L 124.178158 156.009114 
L 124.368753 156.009114 
L 124.368753 154.335963 
L 124.557288 154.335963 
L 124.557288 152.901833 
L 124.743806 152.901833 
L 124.743806 151.228683 
L 124.92835 151.228683 
L 124.92835 150.272596 
L 125.110962 150.272596 
L 125.110962 148.838467 
L 125.291682 148.838467 
L 125.291682 148.360424 
L 125.470548 148.360424 
L 125.470548 147.404338 
L 125.647598 147.404338 
L 125.647598 146.448252 
L 125.822869 146.448252 
L 125.822869 145.253144 
L 125.996395 145.253144 
L 125.996395 144.297058 
L 126.168212 144.297058 
L 126.168212 143.579993 
L 126.338353 143.579993 
L 126.338353 142.862928 
L 126.50685 142.862928 
L 126.50685 142.145864 
L 126.673734 142.145864 
L 126.673734 141.428799 
L 126.839037 141.428799 
L 126.839037 140.950756 
L 127.002787 140.950756 
L 127.002787 140.472713 
L 127.165014 140.472713 
L 127.165014 139.99467 
L 127.48501 139.99467 
L 127.48501 139.516627 
L 127.799239 139.516627 
L 127.799239 137.843476 
L 127.954256 137.843476 
L 127.954256 137.604454 
L 128.107907 137.604454 
L 128.107907 136.648368 
L 128.411207 136.648368 
L 128.411207 135.931303 
L 128.709321 135.931303 
L 128.709321 135.214239 
L 128.856489 135.214239 
L 128.856489 134.975217 
L 129.002426 134.975217 
L 129.002426 134.497174 
L 129.147151 134.497174 
L 129.147151 134.258153 
L 129.290685 134.258153 
L 129.290685 134.019131 
L 129.574256 134.019131 
L 129.574256 133.541088 
L 129.714332 133.541088 
L 129.714332 133.063045 
L 129.853291 133.063045 
L 129.853291 132.824023 
L 129.991152 132.824023 
L 129.991152 132.34598 
L 130.127931 132.34598 
L 130.127931 132.106959 
L 130.398313 132.106959 
L 130.398313 131.628916 
L 130.664567 131.628916 
L 130.664567 131.389894 
L 130.796184 131.389894 
L 130.796184 130.433808 
L 130.926816 130.433808 
L 130.926816 130.194786 
L 131.056477 130.194786 
L 131.056477 129.955765 
L 131.185181 129.955765 
L 131.185181 129.716743 
L 131.565689 129.716743 
L 131.565689 129.2387 
L 131.938072 129.2387 
L 131.938072 128.999679 
L 132.422528 128.999679 
L 132.422528 128.760657 
L 132.659801 128.760657 
L 132.659801 128.521635 
L 133.239232 128.521635 
L 133.239232 128.282614 
L 133.57787 128.282614 
L 133.57787 127.804571 
L 134.019394 127.804571 
L 134.019394 127.565549 
L 134.55603 127.565549 
L 134.661403 127.087506 
L 134.870259 127.087506 
L 134.870259 126.848485 
L 135.076644 126.848485 
L 135.076644 126.609463 
L 135.482227 126.609463 
L 135.582166 125.892398 
L 135.780341 125.892398 
L 135.780341 125.653377 
L 136.073445 125.653377 
L 136.073445 125.414355 
L 136.456742 125.414355 
L 136.456742 125.175334 
L 136.645276 125.175334 
L 136.738785 124.697291 
L 136.831795 124.697291 
L 136.831795 123.980226 
L 137.107884 123.980226 
L 137.107884 123.502183 
L 137.289545 123.502183 
L 137.289545 123.02414 
L 137.469333 123.02414 
L 137.558536 122.546097 
L 137.647286 122.546097 
L 137.647286 122.307075 
L 137.910857 122.307075 
L 137.910857 122.068054 
L 138.084384 122.068054 
L 138.084384 121.829032 
L 138.256201 121.829032 
L 138.256201 121.111967 
L 138.426341 121.111967 
L 138.426341 120.872946 
L 138.594838 120.872946 
L 138.67848 120.155881 
L 138.84457 120.155881 
L 138.927025 119.438817 
L 139.172077 119.438817 
L 139.253002 118.960773 
L 139.333553 118.960773 
L 139.413734 113.702299 
L 139.493548 113.702299 
L 139.572998 113.224256 
L 139.652088 113.224256 
L 139.652088 112.985235 
L 139.8092 112.985235 
L 139.887228 112.029149 
L 140.042245 112.029149 
L 140.11924 111.073062 
L 140.272217 111.073062 
L 140.272217 110.595019 
L 140.499195 110.595019 
L 140.574203 110.116976 
L 140.64889 110.116976 
L 140.723258 109.399911 
L 140.944478 109.399911 
L 140.944478 109.16089 
L 141.090414 109.16089 
L 141.162927 108.443825 
L 141.235139 108.443825 
L 141.307054 107.487739 
L 141.378673 107.487739 
L 141.378673 107.248718 
L 141.521035 107.248718 
L 141.521035 107.009696 
L 141.732423 107.009696 
L 141.80232 106.05361 
L 141.871938 106.05361 
L 141.941279 105.575567 
L 142.010346 105.575567 
L 142.010346 104.858502 
L 142.147664 104.858502 
L 142.215919 104.380459 
L 142.351634 104.380459 
L 142.419098 103.424373 
L 142.686372 103.424373 
L 142.752555 102.468287 
L 142.884173 102.468287 
L 142.949611 101.751222 
L 143.014805 101.751222 
L 143.014805 101.5122 
L 143.144465 101.5122 
L 143.208936 100.795136 
L 143.464461 100.795136 
L 143.527762 99.361006 
L 143.590833 99.361006 
L 143.653678 98.643942 
L 143.716296 98.643942 
L 143.778691 97.687856 
L 143.840863 97.687856 
L 143.902815 97.209812 
L 143.964547 97.209812 
L 143.964547 96.731769 
L 144.087359 96.731769 
L 144.148442 96.253726 
L 144.209312 96.253726 
L 144.269971 95.775683 
L 144.330419 95.775683 
L 144.390658 94.580575 
L 144.45069 94.580575 
L 144.45069 94.102532 
L 144.570138 94.102532 
L 144.629556 93.385468 
L 144.747789 93.385468 
L 144.747789 93.146446 
L 144.865226 93.146446 
L 144.923649 92.19036 
L 144.981877 92.19036 
L 145.039911 91.712317 
L 145.097753 91.712317 
L 145.155404 91.234274 
L 145.212864 91.234274 
L 145.270136 90.756231 
L 145.327221 90.756231 
L 145.384119 89.800144 
L 145.440832 89.800144 
L 145.440832 89.561123 
L 145.553708 89.561123 
L 145.609873 89.08308 
L 145.721664 89.08308 
L 145.721664 88.844058 
L 145.998045 88.844058 
L 146.107383 88.126994 
L 146.161795 88.126994 
L 146.270114 86.214821 
L 146.324022 86.214821 
L 146.431341 84.54167 
L 146.484754 84.54167 
L 146.591092 83.346563 
L 146.644018 83.346563 
L 146.749392 81.912433 
L 146.906268 81.912433 
L 146.958248 81.43439 
L 147.215849 81.43439 
L 147.266916 80.956347 
L 147.368603 80.956347 
L 147.368603 80.478304 
L 147.570215 80.478304 
L 147.570215 80.000261 
L 147.71991 80.000261 
L 147.71991 79.761239 
L 147.917524 79.761239 
L 148.015498 78.566132 
L 148.064279 78.566132 
L 148.161434 77.610045 
L 148.354135 77.610045 
L 148.449693 73.785701 
L 148.497276 73.785701 
L 148.592055 72.11255 
L 148.639252 72.11255 
L 148.686322 70.200377 
L 148.780082 70.200377 
L 148.87334 67.810162 
L 148.919783 67.810162 
L 148.919783 67.57114 
L 149.058374 67.57114 
L 149.15016 67.093097 
L 149.286939 67.093097 
L 149.332295 66.615054 
L 149.422654 66.615054 
L 149.467659 65.89799 
L 149.557321 65.89799 
L 149.60198 65.180925 
L 149.690956 65.180925 
L 149.690956 64.941903 
L 149.823575 64.941903 
L 149.823575 64.702882 
L 150.085825 64.702882 
L 150.085825 64.46386 
L 150.215485 64.46386 
L 150.215485 64.224839 
L 150.344189 64.224839 
L 150.38688 63.507774 
L 150.556607 63.507774 
L 150.598782 63.029731 
L 151.818809 63.029731 
L 151.897188 60.878537 
L 151.936246 60.878537 
L 151.975216 59.922451 
L 152.052897 59.922451 
L 152.130233 58.010278 
L 152.168773 58.010278 
L 152.245598 55.381041 
L 152.398241 55.381041 
L 152.474064 54.902998 
L 152.511852 54.902998 
L 152.587184 53.468869 
L 152.624728 53.468869 
L 152.662192 52.03474 
L 153.178403 52.03474 
L 153.214697 51.317675 
L 153.395042 51.317675 
L 153.395042 51.078653 
L 153.750233 51.078653 
L 153.785358 50.361589 
L 153.925152 50.361589 
L 153.925152 50.122567 
L 154.167129 50.122567 
L 154.167129 49.883546 
L 154.674612 49.883546 
L 154.741174 49.405503 
L 154.807483 49.405503 
L 154.906477 48.688438 
L 154.972161 48.688438 
L 155.070227 47.971373 
L 155.102793 47.971373 
L 155.200129 46.298222 
L 155.232454 46.298222 
L 155.329071 45.342136 
L 155.361158 45.342136 
L 155.361158 44.864093 
L 155.61575 44.864093 
L 155.710272 43.668985 
L 155.741666 43.668985 
L 155.83551 42.712899 
L 155.86668 42.712899 
L 155.959855 41.995835 
L 155.990803 41.995835 
L 156.083319 41.039748 
L 156.114049 41.039748 
L 156.144725 40.083662 
L 157.557108 40.083662 
L 157.557108 39.844641 
L 158.889829 39.844641 
L 158.889829 39.605619 
L 159.507213 39.605619 
L 159.507213 39.366598 
L 160.346039 39.366598 
L 160.346039 39.127576 
L 160.632719 39.127576 
L 160.703658 38.649533 
L 160.821253 38.649533 
L 160.821253 38.410511 
L 161.007772 38.410511 
L 161.007772 38.17149 
L 161.169354 38.17149 
L 161.169354 37.932468 
L 162.432178 37.932468 
L 162.432178 37.693447 
L 162.854457 37.693447 
L 162.958448 37.215404 
L 163.287113 37.215404 
L 163.287113 36.976382 
L 163.985177 36.976382 
L 163.985177 36.737361 
L 166.544502 36.737361 
L 166.544502 36.498339 
L 166.695783 36.498339 
L 166.729224 36.020296 
L 166.878918 36.020296 
L 166.878918 35.781274 
L 167.010909 35.781274 
L 167.0929 35.06421 
L 167.141909 35.06421 
L 167.174506 34.586167 
L 167.304287 34.586167 
L 167.304287 34.347145 
L 167.417059 34.347145 
L 167.43311 33.869102 
L 167.782543 33.869102 
L 167.84533 33.152037 
L 167.985782 33.152037 
L 167.985782 32.913016 
L 168.278627 32.913016 
L 168.354881 32.195951 
L 168.506396 32.195951 
L 168.506396 31.95693 
L 168.626667 31.95693 
L 168.626667 31.717908 
L 169.316986 31.717908 
L 169.316986 31.478886 
L 169.431813 31.478886 
L 169.53167 30.5228 
L 169.602648 30.5228 
L 169.602648 30.283779 
L 169.75779 30.283779 
L 169.855803 29.566714 
L 170.077786 29.566714 
L 170.091567 29.088671 
L 170.59394 29.088671 
L 170.59394 28.849649 
L 170.990905 28.849649 
L 170.990905 28.610628 
L 171.18605 28.610628 
L 171.18605 28.371606 
L 171.391826 28.371606 
L 171.391826 28.132585 
L 171.67086 28.132585 
L 171.67086 27.893563 
L 171.908303 27.893563 
L 171.994974 27.41552 
L 172.42198 27.41552 
L 172.530112 26.459434 
L 172.542086 26.459434 
L 172.577957 25.742369 
L 172.791647 25.742369 
L 172.791647 25.503348 
L 173.222844 25.503348 
L 173.245851 25.025305 
L 173.349008 25.025305 
L 173.349008 24.786283 
L 173.83362 24.786283 
L 173.911252 24.30824 
L 174.218366 24.30824 
L 174.218366 24.069218 
L 174.359138 24.069218 
L 174.359138 23.830197 
L 174.541525 23.830197 
L 174.541525 23.591175 
L 174.785287 23.591175 
L 174.785287 23.352154 
L 175.046437 23.352154 
L 175.046437 23.113132 
L 175.313947 23.113132 
L 175.313947 22.874111 
L 175.965303 22.874111 
L 175.965303 22.635089 
L 176.219183 22.635089 
L 176.219183 22.396068 
L 176.383205 22.396068 
L 176.392805 21.918024 
L 176.507601 21.918024 
L 176.52666 21.439981 
L 176.922168 21.439981 
L 176.922168 21.20096 
L 177.390674 21.20096 
L 177.426892 20.722917 
L 178.691478 20.722917 
L 178.691478 20.483895 
L 178.825562 20.483895 
L 178.858923 20.005852 
L 181.267628 20.005852 
L 181.32559 19.527809 
L 181.519801 19.527809 
L 181.519801 19.288787 
L 181.697718 19.288787 
L 181.697718 19.049766 
L 182.554315 19.049766 
L 182.635021 18.571723 
L 182.715356 18.571723 
L 182.788672 18.09368 
L 183.370799 18.09368 
L 183.370799 17.854658 
L 183.670549 17.854658 
L 183.670549 17.615637 
L 183.915425 17.615637 
L 183.915425 17.376615 
L 184.199902 17.376615 
L 184.291671 16.898572 
L 184.401161 16.898572 
L 184.491881 16.420529 
L 184.546087 16.420529 
L 184.546087 16.181507 
L 184.665945 16.181507 
L 184.725567 15.703464 
L 192.542267 15.703464 
L 192.542267 15.464443 
L 194.017812 15.464443 
L 194.017812 15.225421 
L 199.59173 15.225421 
L 199.59173 14.9864 
L 203.330261 14.9864 
L 203.330261 14.747378 
L 214.187978 14.747378 
L 214.187978 14.508356 
L 217.429694 14.508356 
L 217.447023 14.030313 
L 220.833339 14.030313 
L 220.833339 13.791292 
L 220.959002 13.791292 
L 220.995483 13.313249 
L 221.085245 13.313249 
L 221.162027 12.835206 
L 221.319697 12.835206 
L 221.319697 12.596184 
L 221.483188 12.596184 
L 221.53302 12.118141 
L 221.915344 12.118141 
L 221.918872 6.381624 
L 338.688 6.381624 
L 338.688 6.381624 
" style="fill:none;stroke:#f5deb3;stroke-linecap:square;stroke-width:4;"/>
   </g>
   <g id="line2d_2">
    <defs>
     <path d="M -0 7.778175 
L 7.778175 0 
L 0 -7.778175 
L -7.778175 -0 
z
" id="mbf24748cfc" style="stroke:#f5deb3;stroke-linejoin:miter;stroke-width:1.5;"/>
    </defs>
    <g>
     <use style="fill:#f5deb3;stroke:#f5deb3;stroke-linejoin:miter;stroke-width:1.5;" x="101.646892" xlink:href="#mbf24748cfc" y="226.998514"/>
     <use style="fill:#f5deb3;stroke:#f5deb3;stroke-linejoin:miter;stroke-width:1.5;" x="128.856489" xlink:href="#mbf24748cfc" y="134.975217"/>
     <use style="fill:#f5deb3;stroke:#f5deb3;stroke-linejoin:miter;stroke-width:1.5;" x="162.958448" xlink:href="#mbf24748cfc" y="37.215404"/>
     <use style="fill:#f5deb3;stroke:#f5deb3;stroke-linejoin:miter;stroke-width:1.5;" x="221.918872" xlink:href="#mbf24748cfc" y="6.381624"/>
     <use style="fill:#f5deb3;stroke:#f5deb3;stroke-linejoin:miter;stroke-width:1.5;" x="221.918872" xlink:href="#mbf24748cfc" y="6.381624"/>
     <use style="fill:#f5deb3;stroke:#f5deb3;stroke-linejoin:miter;stroke-width:1.5;" x="338.688" xlink:href="#mbf24748cfc" y="6.381624"/>
    </g>
   </g>
   <g id="line2d_3">
    <path style="fill:none;stroke:#f5deb3;stroke-linecap:square;stroke-width:4;"/>
    <g/>
   </g>
   <g id="line2d_4">
    <path d="M 338.688 6.381624 
L 369.60768 12.232871 
" style="fill:none;stroke:#f5deb3;stroke-linecap:square;stroke-width:4;"/>
    <g>
     <use style="fill:#f5deb3;stroke:#f5deb3;stroke-linejoin:miter;stroke-width:1.5;" x="338.688" xlink:href="#mbf24748cfc" y="6.381624"/>
     <use style="fill:#f5deb3;stroke:#f5deb3;stroke-linejoin:miter;stroke-width:1.5;" x="369.60768" xlink:href="#mbf24748cfc" y="12.232871"/>
    </g>
   </g>
   <g id="matplotlib.axis_1">
    <g id="xtick_1">
     <g id="line2d_5">
      <path clip-path="url(#pb06a26ae77)" d="M 57.6 298.944 
L 57.6 3.456 
" style="fill:none;stroke:#b0b0b0;stroke-linecap:square;stroke-width:0.8;"/>
     </g>
     <g id="line2d_6">
      <defs>
       <path d="M 0 0 
L 0 3.5 
" id="m776cd1b459" style="stroke:#000000;stroke-width:0.8;"/>
      </defs>
      <g>
       <use style="stroke:#000000;stroke-width:0.8;" x="57.6" xlink:href="#m776cd1b459" y="298.944"/>
      </g>
     </g>
     <g id="text_1">
      <!-- 0 -->
      <defs>
       <path d="M 31.78125 66.40625 
Q 24.171875 66.40625 20.328125 58.90625 
Q 16.5 51.421875 16.5 36.375 
Q 16.5 21.390625 20.328125 13.890625 
Q 24.171875 6.390625 31.78125 6.390625 
Q 39.453125 6.390625 43.28125 13.890625 
Q 47.125 21.390625 47.125 36.375 
Q 47.125 51.421875 43.28125 58.90625 
Q 39.453125 66.40625 31.78125 66.40625 
z
M 31.78125 74.21875 
Q 44.046875 74.21875 50.515625 64.515625 
Q 56.984375 54.828125 56.984375 36.375 
Q 56.984375 17.96875 50.515625 8.265625 
Q 44.046875 -1.421875 31.78125 -1.421875 
Q 19.53125 -1.421875 13.0625 8.265625 
Q 6.59375 17.96875 6.59375 36.375 
Q 6.59375 54.828125 13.0625 64.515625 
Q 19.53125 74.21875 31.78125 74.21875 
z
" id="DejaVuSans-48"/>
      </defs>
      <g transform="translate(51.2375 321.140875)scale(0.2 -0.2)">
       <use xlink:href="#DejaVuSans-48"/>
      </g>
     </g>
    </g>
    <g id="xtick_2">
     <g id="line2d_7">
      <path clip-path="url(#pb06a26ae77)" d="M 137.910857 298.944 
L 137.910857 3.456 
" style="fill:none;stroke:#b0b0b0;stroke-linecap:square;stroke-width:0.8;"/>
     </g>
     <g id="line2d_8">
      <g>
       <use style="stroke:#000000;stroke-width:0.8;" x="137.910857" xlink:href="#m776cd1b459" y="298.944"/>
      </g>
     </g>
     <g id="text_2">
      <!-- 2 -->
      <defs>
       <path d="M 19.1875 8.296875 
L 53.609375 8.296875 
L 53.609375 0 
L 7.328125 0 
L 7.328125 8.296875 
Q 12.9375 14.109375 22.625 23.890625 
Q 32.328125 33.6875 34.8125 36.53125 
Q 39.546875 41.84375 41.421875 45.53125 
Q 43.3125 49.21875 43.3125 52.78125 
Q 43.3125 58.59375 39.234375 62.25 
Q 35.15625 65.921875 28.609375 65.921875 
Q 23.96875 65.921875 18.8125 64.3125 
Q 13.671875 62.703125 7.8125 59.421875 
L 7.8125 69.390625 
Q 13.765625 71.78125 18.9375 73 
Q 24.125 74.21875 28.421875 74.21875 
Q 39.75 74.21875 46.484375 68.546875 
Q 53.21875 62.890625 53.21875 53.421875 
Q 53.21875 48.921875 51.53125 44.890625 
Q 49.859375 40.875 45.40625 35.40625 
Q 44.1875 33.984375 37.640625 27.21875 
Q 31.109375 20.453125 19.1875 8.296875 
z
" id="DejaVuSans-50"/>
      </defs>
      <g transform="translate(131.548357 321.140875)scale(0.2 -0.2)">
       <use xlink:href="#DejaVuSans-50"/>
      </g>
     </g>
    </g>
    <g id="xtick_3">
     <g id="line2d_9">
      <path clip-path="url(#pb06a26ae77)" d="M 218.221714 298.944 
L 218.221714 3.456 
" style="fill:none;stroke:#b0b0b0;stroke-linecap:square;stroke-width:0.8;"/>
     </g>
     <g id="line2d_10">
      <g>
       <use style="stroke:#000000;stroke-width:0.8;" x="218.221714" xlink:href="#m776cd1b459" y="298.944"/>
      </g>
     </g>
     <g id="text_3">
      <!-- 4 -->
      <defs>
       <path d="M 37.796875 64.3125 
L 12.890625 25.390625 
L 37.796875 25.390625 
z
M 35.203125 72.90625 
L 47.609375 72.90625 
L 47.609375 25.390625 
L 58.015625 25.390625 
L 58.015625 17.1875 
L 47.609375 17.1875 
L 47.609375 0 
L 37.796875 0 
L 37.796875 17.1875 
L 4.890625 17.1875 
L 4.890625 26.703125 
z
" id="DejaVuSans-52"/>
      </defs>
      <g transform="translate(211.859214 321.140875)scale(0.2 -0.2)">
       <use xlink:href="#DejaVuSans-52"/>
      </g>
     </g>
    </g>
    <g id="xtick_4">
     <g id="line2d_11">
      <path clip-path="url(#pb06a26ae77)" d="M 298.532571 298.944 
L 298.532571 3.456 
" style="fill:none;stroke:#b0b0b0;stroke-linecap:square;stroke-width:0.8;"/>
     </g>
     <g id="line2d_12">
      <g>
       <use style="stroke:#000000;stroke-width:0.8;" x="298.532571" xlink:href="#m776cd1b459" y="298.944"/>
      </g>
     </g>
     <g id="text_4">
      <!-- 6 -->
      <defs>
       <path d="M 33.015625 40.375 
Q 26.375 40.375 22.484375 35.828125 
Q 18.609375 31.296875 18.609375 23.390625 
Q 18.609375 15.53125 22.484375 10.953125 
Q 26.375 6.390625 33.015625 6.390625 
Q 39.65625 6.390625 43.53125 10.953125 
Q 47.40625 15.53125 47.40625 23.390625 
Q 47.40625 31.296875 43.53125 35.828125 
Q 39.65625 40.375 33.015625 40.375 
z
M 52.59375 71.296875 
L 52.59375 62.3125 
Q 48.875 64.0625 45.09375 64.984375 
Q 41.3125 65.921875 37.59375 65.921875 
Q 27.828125 65.921875 22.671875 59.328125 
Q 17.53125 52.734375 16.796875 39.40625 
Q 19.671875 43.65625 24.015625 45.921875 
Q 28.375 48.1875 33.59375 48.1875 
Q 44.578125 48.1875 50.953125 41.515625 
Q 57.328125 34.859375 57.328125 23.390625 
Q 57.328125 12.15625 50.6875 5.359375 
Q 44.046875 -1.421875 33.015625 -1.421875 
Q 20.359375 -1.421875 13.671875 8.265625 
Q 6.984375 17.96875 6.984375 36.375 
Q 6.984375 53.65625 15.1875 63.9375 
Q 23.390625 74.21875 37.203125 74.21875 
Q 40.921875 74.21875 44.703125 73.484375 
Q 48.484375 72.75 52.59375 71.296875 
z
" id="DejaVuSans-54"/>
      </defs>
      <g transform="translate(292.170071 321.140875)scale(0.2 -0.2)">
       <use xlink:href="#DejaVuSans-54"/>
      </g>
     </g>
    </g>
    <g id="xtick_5">
     <g id="line2d_13">
      <path clip-path="url(#pb06a26ae77)" d="M 97.755429 298.944 
L 97.755429 3.456 
" style="fill:none;stroke:#b0b0b0;stroke-linecap:square;stroke-width:0.8;"/>
     </g>
     <g id="line2d_14">
      <defs>
       <path d="M 0 0 
L 0 2 
" id="mb566adf284" style="stroke:#000000;stroke-width:0.6;"/>
      </defs>
      <g>
       <use style="stroke:#000000;stroke-width:0.6;" x="97.755429" xlink:href="#mb566adf284" y="298.944"/>
      </g>
     </g>
    </g>
    <g id="xtick_6">
     <g id="line2d_15">
      <path clip-path="url(#pb06a26ae77)" d="M 178.066286 298.944 
L 178.066286 3.456 
" style="fill:none;stroke:#b0b0b0;stroke-linecap:square;stroke-width:0.8;"/>
     </g>
     <g id="line2d_16">
      <g>
       <use style="stroke:#000000;stroke-width:0.6;" x="178.066286" xlink:href="#mb566adf284" y="298.944"/>
      </g>
     </g>
    </g>
    <g id="xtick_7">
     <g id="line2d_17">
      <path clip-path="url(#pb06a26ae77)" d="M 258.377143 298.944 
L 258.377143 3.456 
" style="fill:none;stroke:#b0b0b0;stroke-linecap:square;stroke-width:0.8;"/>
     </g>
     <g id="line2d_18">
      <g>
       <use style="stroke:#000000;stroke-width:0.6;" x="258.377143" xlink:href="#mb566adf284" y="298.944"/>
      </g>
     </g>
    </g>
    <g id="xtick_8">
     <g id="line2d_19">
      <path clip-path="url(#pb06a26ae77)" d="M 338.688 298.944 
L 338.688 3.456 
" style="fill:none;stroke:#b0b0b0;stroke-linecap:square;stroke-width:0.8;"/>
     </g>
     <g id="line2d_20">
      <g>
       <use style="stroke:#000000;stroke-width:0.6;" x="338.688" xlink:href="#mb566adf284" y="298.944"/>
      </g>
     </g>
    </g>
    <g id="text_5">
     <!-- log10(# f-evals / dimension) -->
     <defs>
      <path d="M 9.421875 75.984375 
L 18.40625 75.984375 
L 18.40625 0 
L 9.421875 0 
z
" id="DejaVuSans-108"/>
      <path d="M 30.609375 48.390625 
Q 23.390625 48.390625 19.1875 42.75 
Q 14.984375 37.109375 14.984375 27.296875 
Q 14.984375 17.484375 19.15625 11.84375 
Q 23.34375 6.203125 30.609375 6.203125 
Q 37.796875 6.203125 41.984375 11.859375 
Q 46.1875 17.53125 46.1875 27.296875 
Q 46.1875 37.015625 41.984375 42.703125 
Q 37.796875 48.390625 30.609375 48.390625 
z
M 30.609375 56 
Q 42.328125 56 49.015625 48.375 
Q 55.71875 40.765625 55.71875 27.296875 
Q 55.71875 13.875 49.015625 6.21875 
Q 42.328125 -1.421875 30.609375 -1.421875 
Q 18.84375 -1.421875 12.171875 6.21875 
Q 5.515625 13.875 5.515625 27.296875 
Q 5.515625 40.765625 12.171875 48.375 
Q 18.84375 56 30.609375 56 
z
" id="DejaVuSans-111"/>
      <path d="M 45.40625 27.984375 
Q 45.40625 37.75 41.375 43.109375 
Q 37.359375 48.484375 30.078125 48.484375 
Q 22.859375 48.484375 18.828125 43.109375 
Q 14.796875 37.75 14.796875 27.984375 
Q 14.796875 18.265625 18.828125 12.890625 
Q 22.859375 7.515625 30.078125 7.515625 
Q 37.359375 7.515625 41.375 12.890625 
Q 45.40625 18.265625 45.40625 27.984375 
z
M 54.390625 6.78125 
Q 54.390625 -7.171875 48.1875 -13.984375 
Q 42 -20.796875 29.203125 -20.796875 
Q 24.46875 -20.796875 20.265625 -20.09375 
Q 16.0625 -19.390625 12.109375 -17.921875 
L 12.109375 -9.1875 
Q 16.0625 -11.328125 19.921875 -12.34375 
Q 23.78125 -13.375 27.78125 -13.375 
Q 36.625 -13.375 41.015625 -8.765625 
Q 45.40625 -4.15625 45.40625 5.171875 
L 45.40625 9.625 
Q 42.625 4.78125 38.28125 2.390625 
Q 33.9375 0 27.875 0 
Q 17.828125 0 11.671875 7.65625 
Q 5.515625 15.328125 5.515625 27.984375 
Q 5.515625 40.671875 11.671875 48.328125 
Q 17.828125 56 27.875 56 
Q 33.9375 56 38.28125 53.609375 
Q 42.625 51.21875 45.40625 46.390625 
L 45.40625 54.6875 
L 54.390625 54.6875 
z
" id="DejaVuSans-103"/>
      <path d="M 12.40625 8.296875 
L 28.515625 8.296875 
L 28.515625 63.921875 
L 10.984375 60.40625 
L 10.984375 69.390625 
L 28.421875 72.90625 
L 38.28125 72.90625 
L 38.28125 8.296875 
L 54.390625 8.296875 
L 54.390625 0 
L 12.40625 0 
z
" id="DejaVuSans-49"/>
      <path d="M 31 75.875 
Q 24.46875 64.65625 21.28125 53.65625 
Q 18.109375 42.671875 18.109375 31.390625 
Q 18.109375 20.125 21.3125 9.0625 
Q 24.515625 -2 31 -13.1875 
L 23.1875 -13.1875 
Q 15.875 -1.703125 12.234375 9.375 
Q 8.59375 20.453125 8.59375 31.390625 
Q 8.59375 42.28125 12.203125 53.3125 
Q 15.828125 64.359375 23.1875 75.875 
z
" id="DejaVuSans-40"/>
      <path d="M 51.125 44 
L 36.921875 44 
L 32.8125 27.6875 
L 47.125 27.6875 
z
M 43.796875 71.78125 
L 38.71875 51.515625 
L 52.984375 51.515625 
L 58.109375 71.78125 
L 65.921875 71.78125 
L 60.890625 51.515625 
L 76.125 51.515625 
L 76.125 44 
L 58.984375 44 
L 54.984375 27.6875 
L 70.515625 27.6875 
L 70.515625 20.21875 
L 53.078125 20.21875 
L 48 0 
L 40.1875 0 
L 45.21875 20.21875 
L 30.90625 20.21875 
L 25.875 0 
L 18.015625 0 
L 23.09375 20.21875 
L 7.71875 20.21875 
L 7.71875 27.6875 
L 24.90625 27.6875 
L 29 44 
L 13.28125 44 
L 13.28125 51.515625 
L 30.90625 51.515625 
L 35.890625 71.78125 
z
" id="DejaVuSans-35"/>
      <path id="DejaVuSans-32"/>
      <path d="M 37.109375 75.984375 
L 37.109375 68.5 
L 28.515625 68.5 
Q 23.6875 68.5 21.796875 66.546875 
Q 19.921875 64.59375 19.921875 59.515625 
L 19.921875 54.6875 
L 34.71875 54.6875 
L 34.71875 47.703125 
L 19.921875 47.703125 
L 19.921875 0 
L 10.890625 0 
L 10.890625 47.703125 
L 2.296875 47.703125 
L 2.296875 54.6875 
L 10.890625 54.6875 
L 10.890625 58.5 
Q 10.890625 67.625 15.140625 71.796875 
Q 19.390625 75.984375 28.609375 75.984375 
z
" id="DejaVuSans-102"/>
      <path d="M 4.890625 31.390625 
L 31.203125 31.390625 
L 31.203125 23.390625 
L 4.890625 23.390625 
z
" id="DejaVuSans-45"/>
      <path d="M 56.203125 29.59375 
L 56.203125 25.203125 
L 14.890625 25.203125 
Q 15.484375 15.921875 20.484375 11.0625 
Q 25.484375 6.203125 34.421875 6.203125 
Q 39.59375 6.203125 44.453125 7.46875 
Q 49.3125 8.734375 54.109375 11.28125 
L 54.109375 2.78125 
Q 49.265625 0.734375 44.1875 -0.34375 
Q 39.109375 -1.421875 33.890625 -1.421875 
Q 20.796875 -1.421875 13.15625 6.1875 
Q 5.515625 13.8125 5.515625 26.8125 
Q 5.515625 40.234375 12.765625 48.109375 
Q 20.015625 56 32.328125 56 
Q 43.359375 56 49.78125 48.890625 
Q 56.203125 41.796875 56.203125 29.59375 
z
M 47.21875 32.234375 
Q 47.125 39.59375 43.09375 43.984375 
Q 39.0625 48.390625 32.421875 48.390625 
Q 24.90625 48.390625 20.390625 44.140625 
Q 15.875 39.890625 15.1875 32.171875 
z
" id="DejaVuSans-101"/>
      <path d="M 2.984375 54.6875 
L 12.5 54.6875 
L 29.59375 8.796875 
L 46.6875 54.6875 
L 56.203125 54.6875 
L 35.6875 0 
L 23.484375 0 
z
" id="DejaVuSans-118"/>
      <path d="M 34.28125 27.484375 
Q 23.390625 27.484375 19.1875 25 
Q 14.984375 22.515625 14.984375 16.5 
Q 14.984375 11.71875 18.140625 8.90625 
Q 21.296875 6.109375 26.703125 6.109375 
Q 34.1875 6.109375 38.703125 11.40625 
Q 43.21875 16.703125 43.21875 25.484375 
L 43.21875 27.484375 
z
M 52.203125 31.203125 
L 52.203125 0 
L 43.21875 0 
L 43.21875 8.296875 
Q 40.140625 3.328125 35.546875 0.953125 
Q 30.953125 -1.421875 24.3125 -1.421875 
Q 15.921875 -1.421875 10.953125 3.296875 
Q 6 8.015625 6 15.921875 
Q 6 25.140625 12.171875 29.828125 
Q 18.359375 34.515625 30.609375 34.515625 
L 43.21875 34.515625 
L 43.21875 35.40625 
Q 43.21875 41.609375 39.140625 45 
Q 35.0625 48.390625 27.6875 48.390625 
Q 23 48.390625 18.546875 47.265625 
Q 14.109375 46.140625 10.015625 43.890625 
L 10.015625 52.203125 
Q 14.9375 54.109375 19.578125 55.046875 
Q 24.21875 56 28.609375 56 
Q 40.484375 56 46.34375 49.84375 
Q 52.203125 43.703125 52.203125 31.203125 
z
" id="DejaVuSans-97"/>
      <path d="M 44.28125 53.078125 
L 44.28125 44.578125 
Q 40.484375 46.53125 36.375 47.5 
Q 32.28125 48.484375 27.875 48.484375 
Q 21.1875 48.484375 17.84375 46.4375 
Q 14.5 44.390625 14.5 40.28125 
Q 14.5 37.15625 16.890625 35.375 
Q 19.28125 33.59375 26.515625 31.984375 
L 29.59375 31.296875 
Q 39.15625 29.25 43.1875 25.515625 
Q 47.21875 21.78125 47.21875 15.09375 
Q 47.21875 7.46875 41.1875 3.015625 
Q 35.15625 -1.421875 24.609375 -1.421875 
Q 20.21875 -1.421875 15.453125 -0.5625 
Q 10.6875 0.296875 5.421875 2 
L 5.421875 11.28125 
Q 10.40625 8.6875 15.234375 7.390625 
Q 20.0625 6.109375 24.8125 6.109375 
Q 31.15625 6.109375 34.5625 8.28125 
Q 37.984375 10.453125 37.984375 14.40625 
Q 37.984375 18.0625 35.515625 20.015625 
Q 33.0625 21.96875 24.703125 23.78125 
L 21.578125 24.515625 
Q 13.234375 26.265625 9.515625 29.90625 
Q 5.8125 33.546875 5.8125 39.890625 
Q 5.8125 47.609375 11.28125 51.796875 
Q 16.75 56 26.8125 56 
Q 31.78125 56 36.171875 55.265625 
Q 40.578125 54.546875 44.28125 53.078125 
z
" id="DejaVuSans-115"/>
      <path d="M 25.390625 72.90625 
L 33.6875 72.90625 
L 8.296875 -9.28125 
L 0 -9.28125 
z
" id="DejaVuSans-47"/>
      <path d="M 45.40625 46.390625 
L 45.40625 75.984375 
L 54.390625 75.984375 
L 54.390625 0 
L 45.40625 0 
L 45.40625 8.203125 
Q 42.578125 3.328125 38.25 0.953125 
Q 33.9375 -1.421875 27.875 -1.421875 
Q 17.96875 -1.421875 11.734375 6.484375 
Q 5.515625 14.40625 5.515625 27.296875 
Q 5.515625 40.1875 11.734375 48.09375 
Q 17.96875 56 27.875 56 
Q 33.9375 56 38.25 53.625 
Q 42.578125 51.265625 45.40625 46.390625 
z
M 14.796875 27.296875 
Q 14.796875 17.390625 18.875 11.75 
Q 22.953125 6.109375 30.078125 6.109375 
Q 37.203125 6.109375 41.296875 11.75 
Q 45.40625 17.390625 45.40625 27.296875 
Q 45.40625 37.203125 41.296875 42.84375 
Q 37.203125 48.484375 30.078125 48.484375 
Q 22.953125 48.484375 18.875 42.84375 
Q 14.796875 37.203125 14.796875 27.296875 
z
" id="DejaVuSans-100"/>
      <path d="M 9.421875 54.6875 
L 18.40625 54.6875 
L 18.40625 0 
L 9.421875 0 
z
M 9.421875 75.984375 
L 18.40625 75.984375 
L 18.40625 64.59375 
L 9.421875 64.59375 
z
" id="DejaVuSans-105"/>
      <path d="M 52 44.1875 
Q 55.375 50.25 60.0625 53.125 
Q 64.75 56 71.09375 56 
Q 79.640625 56 84.28125 50.015625 
Q 88.921875 44.046875 88.921875 33.015625 
L 88.921875 0 
L 79.890625 0 
L 79.890625 32.71875 
Q 79.890625 40.578125 77.09375 44.375 
Q 74.3125 48.1875 68.609375 48.1875 
Q 61.625 48.1875 57.5625 43.546875 
Q 53.515625 38.921875 53.515625 30.90625 
L 53.515625 0 
L 44.484375 0 
L 44.484375 32.71875 
Q 44.484375 40.625 41.703125 44.40625 
Q 38.921875 48.1875 33.109375 48.1875 
Q 26.21875 48.1875 22.15625 43.53125 
Q 18.109375 38.875 18.109375 30.90625 
L 18.109375 0 
L 9.078125 0 
L 9.078125 54.6875 
L 18.109375 54.6875 
L 18.109375 46.1875 
Q 21.1875 51.21875 25.484375 53.609375 
Q 29.78125 56 35.6875 56 
Q 41.65625 56 45.828125 52.96875 
Q 50 49.953125 52 44.1875 
z
" id="DejaVuSans-109"/>
      <path d="M 54.890625 33.015625 
L 54.890625 0 
L 45.90625 0 
L 45.90625 32.71875 
Q 45.90625 40.484375 42.875 44.328125 
Q 39.84375 48.1875 33.796875 48.1875 
Q 26.515625 48.1875 22.3125 43.546875 
Q 18.109375 38.921875 18.109375 30.90625 
L 18.109375 0 
L 9.078125 0 
L 9.078125 54.6875 
L 18.109375 54.6875 
L 18.109375 46.1875 
Q 21.34375 51.125 25.703125 53.5625 
Q 30.078125 56 35.796875 56 
Q 45.21875 56 50.046875 50.171875 
Q 54.890625 44.34375 54.890625 33.015625 
z
" id="DejaVuSans-110"/>
      <path d="M 8.015625 75.875 
L 15.828125 75.875 
Q 23.140625 64.359375 26.78125 53.3125 
Q 30.421875 42.28125 30.421875 31.390625 
Q 30.421875 20.453125 26.78125 9.375 
Q 23.140625 -1.703125 15.828125 -13.1875 
L 8.015625 -13.1875 
Q 14.5 -2 17.703125 9.0625 
Q 20.90625 20.125 20.90625 31.390625 
Q 20.90625 42.671875 17.703125 53.65625 
Q 14.5 64.65625 8.015625 75.875 
z
" id="DejaVuSans-41"/>
     </defs>
     <g transform="translate(77.764078 342.217594)scale(0.17 -0.17)">
      <use xlink:href="#DejaVuSans-108"/>
      <use x="27.783203" xlink:href="#DejaVuSans-111"/>
      <use x="88.964844" xlink:href="#DejaVuSans-103"/>
      <use x="152.441406" xlink:href="#DejaVuSans-49"/>
      <use x="216.064453" xlink:href="#DejaVuSans-48"/>
      <use x="279.6875" xlink:href="#DejaVuSans-40"/>
      <use x="318.701172" xlink:href="#DejaVuSans-35"/>
      <use x="402.490234" xlink:href="#DejaVuSans-32"/>
      <use x="434.277344" xlink:href="#DejaVuSans-102"/>
      <use x="463.982422" xlink:href="#DejaVuSans-45"/>
      <use x="500.066406" xlink:href="#DejaVuSans-101"/>
      <use x="561.589844" xlink:href="#DejaVuSans-118"/>
      <use x="620.769531" xlink:href="#DejaVuSans-97"/>
      <use x="682.048828" xlink:href="#DejaVuSans-108"/>
      <use x="709.832031" xlink:href="#DejaVuSans-115"/>
      <use x="761.931641" xlink:href="#DejaVuSans-32"/>
      <use x="793.71875" xlink:href="#DejaVuSans-47"/>
      <use x="827.410156" xlink:href="#DejaVuSans-32"/>
      <use x="859.197266" xlink:href="#DejaVuSans-100"/>
      <use x="922.673828" xlink:href="#DejaVuSans-105"/>
      <use x="950.457031" xlink:href="#DejaVuSans-109"/>
      <use x="1047.869141" xlink:href="#DejaVuSans-101"/>
      <use x="1109.392578" xlink:href="#DejaVuSans-110"/>
      <use x="1172.771484" xlink:href="#DejaVuSans-115"/>
      <use x="1224.871094" xlink:href="#DejaVuSans-105"/>
      <use x="1252.654297" xlink:href="#DejaVuSans-111"/>
      <use x="1313.835938" xlink:href="#DejaVuSans-110"/>
      <use x="1377.214844" xlink:href="#DejaVuSans-41"/>
     </g>
    </g>
   </g>
   <g id="matplotlib.axis_2">
    <g id="ytick_1">
     <g id="line2d_21">
      <path clip-path="url(#pb06a26ae77)" d="M 57.6 298.944 
L 338.688 298.944 
" style="fill:none;stroke:#b0b0b0;stroke-linecap:square;stroke-width:0.8;"/>
     </g>
     <g id="line2d_22">
      <defs>
       <path d="M 0 0 
L -3.5 0 
" id="m125f960e72" style="stroke:#000000;stroke-width:0.8;"/>
      </defs>
      <g>
       <use style="stroke:#000000;stroke-width:0.8;" x="57.6" xlink:href="#m125f960e72" y="298.944"/>
      </g>
     </g>
     <g id="text_6">
      <!-- 0.0 -->
      <defs>
       <path d="M 10.6875 12.40625 
L 21 12.40625 
L 21 0 
L 10.6875 0 
z
" id="DejaVuSans-46"/>
      </defs>
      <g transform="translate(25.155 305.02275)scale(0.16 -0.16)">
       <use xlink:href="#DejaVuSans-48"/>
       <use x="63.623047" xlink:href="#DejaVuSans-46"/>
       <use x="95.410156" xlink:href="#DejaVuSans-48"/>
      </g>
     </g>
    </g>
    <g id="ytick_2">
     <g id="line2d_23">
      <path clip-path="url(#pb06a26ae77)" d="M 57.6 240.431525 
L 338.688 240.431525 
" style="fill:none;stroke:#b0b0b0;stroke-linecap:square;stroke-width:0.8;"/>
     </g>
     <g id="line2d_24">
      <g>
       <use style="stroke:#000000;stroke-width:0.8;" x="57.6" xlink:href="#m125f960e72" y="240.431525"/>
      </g>
     </g>
     <g id="text_7">
      <!-- 0.2 -->
      <g transform="translate(25.155 246.510275)scale(0.16 -0.16)">
       <use xlink:href="#DejaVuSans-48"/>
       <use x="63.623047" xlink:href="#DejaVuSans-46"/>
       <use x="95.410156" xlink:href="#DejaVuSans-50"/>
      </g>
     </g>
    </g>
    <g id="ytick_3">
     <g id="line2d_25">
      <path clip-path="url(#pb06a26ae77)" d="M 57.6 181.91905 
L 338.688 181.91905 
" style="fill:none;stroke:#b0b0b0;stroke-linecap:square;stroke-width:0.8;"/>
     </g>
     <g id="line2d_26">
      <g>
       <use style="stroke:#000000;stroke-width:0.8;" x="57.6" xlink:href="#m125f960e72" y="181.91905"/>
      </g>
     </g>
     <g id="text_8">
      <!-- 0.4 -->
      <g transform="translate(25.155 187.9978)scale(0.16 -0.16)">
       <use xlink:href="#DejaVuSans-48"/>
       <use x="63.623047" xlink:href="#DejaVuSans-46"/>
       <use x="95.410156" xlink:href="#DejaVuSans-52"/>
      </g>
     </g>
    </g>
    <g id="ytick_4">
     <g id="line2d_27">
      <path clip-path="url(#pb06a26ae77)" d="M 57.6 123.406574 
L 338.688 123.406574 
" style="fill:none;stroke:#b0b0b0;stroke-linecap:square;stroke-width:0.8;"/>
     </g>
     <g id="line2d_28">
      <g>
       <use style="stroke:#000000;stroke-width:0.8;" x="57.6" xlink:href="#m125f960e72" y="123.406574"/>
      </g>
     </g>
     <g id="text_9">
      <!-- 0.6 -->
      <g transform="translate(25.155 129.485324)scale(0.16 -0.16)">
       <use xlink:href="#DejaVuSans-48"/>
       <use x="63.623047" xlink:href="#DejaVuSans-46"/>
       <use x="95.410156" xlink:href="#DejaVuSans-54"/>
      </g>
     </g>
    </g>
    <g id="ytick_5">
     <g id="line2d_29">
      <path clip-path="url(#pb06a26ae77)" d="M 57.6 64.894099 
L 338.688 64.894099 
" style="fill:none;stroke:#b0b0b0;stroke-linecap:square;stroke-width:0.8;"/>
     </g>
     <g id="line2d_30">
      <g>
       <use style="stroke:#000000;stroke-width:0.8;" x="57.6" xlink:href="#m125f960e72" y="64.894099"/>
      </g>
     </g>
     <g id="text_10">
      <!-- 0.8 -->
      <defs>
       <path d="M 31.78125 34.625 
Q 24.75 34.625 20.71875 30.859375 
Q 16.703125 27.09375 16.703125 20.515625 
Q 16.703125 13.921875 20.71875 10.15625 
Q 24.75 6.390625 31.78125 6.390625 
Q 38.8125 6.390625 42.859375 10.171875 
Q 46.921875 13.96875 46.921875 20.515625 
Q 46.921875 27.09375 42.890625 30.859375 
Q 38.875 34.625 31.78125 34.625 
z
M 21.921875 38.8125 
Q 15.578125 40.375 12.03125 44.71875 
Q 8.5 49.078125 8.5 55.328125 
Q 8.5 64.0625 14.71875 69.140625 
Q 20.953125 74.21875 31.78125 74.21875 
Q 42.671875 74.21875 48.875 69.140625 
Q 55.078125 64.0625 55.078125 55.328125 
Q 55.078125 49.078125 51.53125 44.71875 
Q 48 40.375 41.703125 38.8125 
Q 48.828125 37.15625 52.796875 32.3125 
Q 56.78125 27.484375 56.78125 20.515625 
Q 56.78125 9.90625 50.3125 4.234375 
Q 43.84375 -1.421875 31.78125 -1.421875 
Q 19.734375 -1.421875 13.25 4.234375 
Q 6.78125 9.90625 6.78125 20.515625 
Q 6.78125 27.484375 10.78125 32.3125 
Q 14.796875 37.15625 21.921875 38.8125 
z
M 18.3125 54.390625 
Q 18.3125 48.734375 21.84375 45.5625 
Q 25.390625 42.390625 31.78125 42.390625 
Q 38.140625 42.390625 41.71875 45.5625 
Q 45.3125 48.734375 45.3125 54.390625 
Q 45.3125 60.0625 41.71875 63.234375 
Q 38.140625 66.40625 31.78125 66.40625 
Q 25.390625 66.40625 21.84375 63.234375 
Q 18.3125 60.0625 18.3125 54.390625 
z
" id="DejaVuSans-56"/>
      </defs>
      <g transform="translate(25.155 70.972849)scale(0.16 -0.16)">
       <use xlink:href="#DejaVuSans-48"/>
       <use x="63.623047" xlink:href="#DejaVuSans-46"/>
       <use x="95.410156" xlink:href="#DejaVuSans-56"/>
      </g>
     </g>
    </g>
    <g id="ytick_6">
     <g id="line2d_31">
      <path clip-path="url(#pb06a26ae77)" d="M 57.6 6.381624 
L 338.688 6.381624 
" style="fill:none;stroke:#b0b0b0;stroke-linecap:square;stroke-width:0.8;"/>
     </g>
     <g id="line2d_32">
      <g>
       <use style="stroke:#000000;stroke-width:0.8;" x="57.6" xlink:href="#m125f960e72" y="6.381624"/>
      </g>
     </g>
     <g id="text_11">
      <!-- 1.0 -->
      <g transform="translate(25.155 12.460374)scale(0.16 -0.16)">
       <use xlink:href="#DejaVuSans-49"/>
       <use x="63.623047" xlink:href="#DejaVuSans-46"/>
       <use x="95.410156" xlink:href="#DejaVuSans-48"/>
      </g>
     </g>
    </g>
    <g id="text_12">
     <!-- Fraction of function,target pairs -->
     <defs>
      <path d="M 9.8125 72.90625 
L 51.703125 72.90625 
L 51.703125 64.59375 
L 19.671875 64.59375 
L 19.671875 43.109375 
L 48.578125 43.109375 
L 48.578125 34.8125 
L 19.671875 34.8125 
L 19.671875 0 
L 9.8125 0 
z
" id="DejaVuSans-70"/>
      <path d="M 41.109375 46.296875 
Q 39.59375 47.171875 37.8125 47.578125 
Q 36.03125 48 33.890625 48 
Q 26.265625 48 22.1875 43.046875 
Q 18.109375 38.09375 18.109375 28.8125 
L 18.109375 0 
L 9.078125 0 
L 9.078125 54.6875 
L 18.109375 54.6875 
L 18.109375 46.1875 
Q 20.953125 51.171875 25.484375 53.578125 
Q 30.03125 56 36.53125 56 
Q 37.453125 56 38.578125 55.875 
Q 39.703125 55.765625 41.0625 55.515625 
z
" id="DejaVuSans-114"/>
      <path d="M 48.78125 52.59375 
L 48.78125 44.1875 
Q 44.96875 46.296875 41.140625 47.34375 
Q 37.3125 48.390625 33.40625 48.390625 
Q 24.65625 48.390625 19.8125 42.84375 
Q 14.984375 37.3125 14.984375 27.296875 
Q 14.984375 17.28125 19.8125 11.734375 
Q 24.65625 6.203125 33.40625 6.203125 
Q 37.3125 6.203125 41.140625 7.25 
Q 44.96875 8.296875 48.78125 10.40625 
L 48.78125 2.09375 
Q 45.015625 0.34375 40.984375 -0.53125 
Q 36.96875 -1.421875 32.421875 -1.421875 
Q 20.0625 -1.421875 12.78125 6.34375 
Q 5.515625 14.109375 5.515625 27.296875 
Q 5.515625 40.671875 12.859375 48.328125 
Q 20.21875 56 33.015625 56 
Q 37.15625 56 41.109375 55.140625 
Q 45.0625 54.296875 48.78125 52.59375 
z
" id="DejaVuSans-99"/>
      <path d="M 18.3125 70.21875 
L 18.3125 54.6875 
L 36.8125 54.6875 
L 36.8125 47.703125 
L 18.3125 47.703125 
L 18.3125 18.015625 
Q 18.3125 11.328125 20.140625 9.421875 
Q 21.96875 7.515625 27.59375 7.515625 
L 36.8125 7.515625 
L 36.8125 0 
L 27.59375 0 
Q 17.1875 0 13.234375 3.875 
Q 9.28125 7.765625 9.28125 18.015625 
L 9.28125 47.703125 
L 2.6875 47.703125 
L 2.6875 54.6875 
L 9.28125 54.6875 
L 9.28125 70.21875 
z
" id="DejaVuSans-116"/>
      <path d="M 8.5 21.578125 
L 8.5 54.6875 
L 17.484375 54.6875 
L 17.484375 21.921875 
Q 17.484375 14.15625 20.5 10.265625 
Q 23.53125 6.390625 29.59375 6.390625 
Q 36.859375 6.390625 41.078125 11.03125 
Q 45.3125 15.671875 45.3125 23.6875 
L 45.3125 54.6875 
L 54.296875 54.6875 
L 54.296875 0 
L 45.3125 0 
L 45.3125 8.40625 
Q 42.046875 3.421875 37.71875 1 
Q 33.40625 -1.421875 27.6875 -1.421875 
Q 18.265625 -1.421875 13.375 4.4375 
Q 8.5 10.296875 8.5 21.578125 
z
M 31.109375 56 
z
" id="DejaVuSans-117"/>
      <path d="M 11.71875 12.40625 
L 22.015625 12.40625 
L 22.015625 4 
L 14.015625 -11.625 
L 7.71875 -11.625 
L 11.71875 4 
z
" id="DejaVuSans-44"/>
      <path d="M 18.109375 8.203125 
L 18.109375 -20.796875 
L 9.078125 -20.796875 
L 9.078125 54.6875 
L 18.109375 54.6875 
L 18.109375 46.390625 
Q 20.953125 51.265625 25.265625 53.625 
Q 29.59375 56 35.59375 56 
Q 45.5625 56 51.78125 48.09375 
Q 58.015625 40.1875 58.015625 27.296875 
Q 58.015625 14.40625 51.78125 6.484375 
Q 45.5625 -1.421875 35.59375 -1.421875 
Q 29.59375 -1.421875 25.265625 0.953125 
Q 20.953125 3.328125 18.109375 8.203125 
z
M 48.6875 27.296875 
Q 48.6875 37.203125 44.609375 42.84375 
Q 40.53125 48.484375 33.40625 48.484375 
Q 26.265625 48.484375 22.1875 42.84375 
Q 18.109375 37.203125 18.109375 27.296875 
Q 18.109375 17.390625 22.1875 11.75 
Q 26.265625 6.109375 33.40625 6.109375 
Q 40.53125 6.109375 44.609375 11.75 
Q 48.6875 17.390625 48.6875 27.296875 
z
" id="DejaVuSans-112"/>
     </defs>
     <g transform="translate(17.619531 285.585)rotate(-90)scale(0.17 -0.17)">
      <use xlink:href="#DejaVuSans-70"/>
      <use x="50.269531" xlink:href="#DejaVuSans-114"/>
      <use x="91.382812" xlink:href="#DejaVuSans-97"/>
      <use x="152.662109" xlink:href="#DejaVuSans-99"/>
      <use x="207.642578" xlink:href="#DejaVuSans-116"/>
      <use x="246.851562" xlink:href="#DejaVuSans-105"/>
      <use x="274.634766" xlink:href="#DejaVuSans-111"/>
      <use x="335.816406" xlink:href="#DejaVuSans-110"/>
      <use x="399.195312" xlink:href="#DejaVuSans-32"/>
      <use x="430.982422" xlink:href="#DejaVuSans-111"/>
      <use x="492.164062" xlink:href="#DejaVuSans-102"/>
      <use x="527.369141" xlink:href="#DejaVuSans-32"/>
      <use x="559.15625" xlink:href="#DejaVuSans-102"/>
      <use x="594.361328" xlink:href="#DejaVuSans-117"/>
      <use x="657.740234" xlink:href="#DejaVuSans-110"/>
      <use x="721.119141" xlink:href="#DejaVuSans-99"/>
      <use x="776.099609" xlink:href="#DejaVuSans-116"/>
      <use x="815.308594" xlink:href="#DejaVuSans-105"/>
      <use x="843.091797" xlink:href="#DejaVuSans-111"/>
      <use x="904.273438" xlink:href="#DejaVuSans-110"/>
      <use x="967.652344" xlink:href="#DejaVuSans-44"/>
      <use x="999.439453" xlink:href="#DejaVuSans-116"/>
      <use x="1038.648438" xlink:href="#DejaVuSans-97"/>
      <use x="1099.927734" xlink:href="#DejaVuSans-114"/>
      <use x="1139.291016" xlink:href="#DejaVuSans-103"/>
      <use x="1202.767578" xlink:href="#DejaVuSans-101"/>
      <use x="1264.291016" xlink:href="#DejaVuSans-116"/>
      <use x="1303.5" xlink:href="#DejaVuSans-32"/>
      <use x="1335.287109" xlink:href="#DejaVuSans-112"/>
      <use x="1398.763672" xlink:href="#DejaVuSans-97"/>
      <use x="1460.042969" xlink:href="#DejaVuSans-105"/>
      <use x="1487.826172" xlink:href="#DejaVuSans-114"/>
      <use x="1528.939453" xlink:href="#DejaVuSans-115"/>
     </g>
    </g>
   </g>
   <g id="line2d_33">
    <defs>
     <path d="M 0 1.5 
C 0.397805 1.5 0.77937 1.341951 1.06066 1.06066 
C 1.341951 0.77937 1.5 0.397805 1.5 0 
C 1.5 -0.397805 1.341951 -0.77937 1.06066 -1.06066 
C 0.77937 -1.341951 0.397805 -1.5 0 -1.5 
C -0.397805 -1.5 -0.77937 -1.341951 -1.06066 -1.06066 
C -1.341951 -0.77937 -1.5 -0.397805 -1.5 0 
C -1.5 0.397805 -1.341951 0.77937 -1.06066 1.06066 
C -0.77937 1.341951 -0.397805 1.5 0 1.5 
z
" id="mf60245a245" style="stroke:#f5deb3;"/>
    </defs>
    <g>
     <use style="fill:#f5deb3;stroke:#f5deb3;" x="221.918872" xlink:href="#mf60245a245" y="6.381624"/>
     <use style="fill:#f5deb3;stroke:#f5deb3;" x="221.918872" xlink:href="#mf60245a245" y="6.381624"/>
    </g>
   </g>
   <g id="line2d_34">
    <defs>
     <path d="M 0 1.5 
C 0.397805 1.5 0.77937 1.341951 1.06066 1.06066 
C 1.341951 0.77937 1.5 0.397805 1.5 0 
C 1.5 -0.397805 1.341951 -0.77937 1.06066 -1.06066 
C 0.77937 -1.341951 0.397805 -1.5 0 -1.5 
C -0.397805 -1.5 -0.77937 -1.341951 -1.06066 -1.06066 
C -1.341951 -0.77937 -1.5 -0.397805 -1.5 0 
C -1.5 0.397805 -1.341951 0.77937 -1.06066 1.06066 
C -0.77937 1.341951 -0.397805 1.5 0 1.5 
z
" id="m1d0d71c930" style="stroke:#000080;"/>
    </defs>
    <g>
     <use style="fill:#000080;stroke:#000080;" x="179.400355" xlink:href="#m1d0d71c930" y="211.462113"/>
     <use style="fill:#000080;stroke:#000080;" x="179.400355" xlink:href="#m1d0d71c930" y="211.462113"/>
    </g>
   </g>
   <g id="line2d_35">
    <path d="M 45.512012 298.944 
L 45.512012 289.40704 
L 57.6 289.40704 
L 57.6 285.056848 
L 64.67102 285.056848 
L 64.67102 281.375916 
L 69.687988 281.375916 
L 69.687988 279.296429 
L 73.579452 279.296429 
L 73.579452 277.742789 
L 76.759008 277.742789 
L 76.759008 269.090209 
L 79.447285 269.090209 
L 79.447285 265.6722 
L 81.775977 265.6722 
L 81.775977 263.855637 
L 83.830028 263.855637 
L 83.830028 262.039073 
L 85.66744 262.039073 
L 85.66744 260.174705 
L 87.329581 260.174705 
L 87.329581 258.358141 
L 88.846997 258.358141 
L 88.846997 256.278653 
L 90.242884 256.278653 
L 90.242884 254.318677 
L 91.535274 254.318677 
L 91.535274 252.454309 
L 92.73846 252.454309 
L 92.73846 251.187494 
L 93.863965 251.187494 
L 93.863965 250.279213 
L 94.921215 250.279213 
L 94.921215 249.227518 
L 95.918017 249.227518 
L 95.918017 248.128019 
L 96.86091 248.128019 
L 96.86091 247.267541 
L 97.755429 247.267541 
L 97.755429 246.263651 
L 98.606294 246.263651 
L 98.606294 245.80951 
L 99.41757 245.80951 
L 99.41757 244.279772 
L 100.192776 244.279772 
L 100.192776 243.634414 
L 100.934985 243.634414 
L 100.934985 241.81785 
L 101.646892 241.81785 
L 101.646892 241.315904 
L 103.623262 241.220296 
L 103.623262 241.029079 
L 105.398279 240.93347 
L 105.398279 240.574938 
L 106.48859 240.479329 
L 106.48859 240.335916 
L 107.514726 240.26421 
L 107.514726 240.072992 
L 108.006005 240.072992 
L 108.006005 239.810069 
L 108.483824 239.810069 
L 108.483824 239.523243 
L 108.948899 239.523243 
L 108.948899 239.021298 
L 109.401893 239.021298 
L 109.401893 238.328135 
L 109.843417 238.328135 
L 109.843417 237.82619 
L 110.274038 237.82619 
L 110.274038 237.682777 
L 110.694282 237.682777 
L 110.694282 237.467658 
L 111.104637 237.467658 
L 111.104637 237.085223 
L 111.505558 237.085223 
L 111.505558 236.798397 
L 111.897469 236.798397 
L 111.897469 236.392061 
L 112.655818 236.344256 
L 112.655818 235.93792 
L 113.022974 235.93792 
L 113.022974 235.483779 
L 113.382559 235.483779 
L 113.382559 234.71891 
L 113.73488 234.71891 
L 113.73488 234.527692 
L 114.751048 234.479888 
L 114.751048 234.312573 
L 115.711251 234.264769 
L 115.711251 234.121356 
L 116.323218 234.025747 
L 116.323218 233.954041 
L 116.914437 233.906236 
L 116.914437 233.810628 
L 117.202696 233.810628 
L 117.202696 233.667215 
L 117.486268 233.667215 
L 117.486268 233.452096 
L 117.765302 233.452096 
L 117.765302 233.141368 
L 118.039942 233.141368 
L 118.039942 232.902346 
L 118.310324 232.902346 
L 118.310324 232.758933 
L 118.838828 232.711129 
L 118.838828 232.448205 
L 119.097192 232.448205 
L 119.097192 232.113575 
L 119.602714 232.017966 
L 119.602714 231.635532 
L 120.093994 231.61163 
L 120.093994 231.348706 
L 120.33454 231.348706 
L 120.33454 230.918467 
L 120.571812 230.918467 
L 120.571812 230.39262 
L 120.8059 230.39262 
L 120.8059 230.273109 
L 121.489881 230.273109 
L 121.489881 230.153598 
L 122.573415 230.105794 
L 122.573415 230.034087 
L 123.394238 229.962381 
L 123.394238 229.890674 
L 123.593547 229.890674 
L 123.593547 229.723359 
L 123.790603 229.723359 
L 123.790603 229.556044 
L 123.985457 229.556044 
L 123.985457 229.436533 
L 124.368753 229.388729 
L 124.368753 229.221414 
L 124.557288 229.221414 
L 124.557288 229.006295 
L 124.92835 228.95849 
L 124.92835 228.671665 
L 125.291682 228.62386 
L 125.291682 228.528252 
L 125.470548 228.528252 
L 125.470548 228.193621 
L 125.647598 228.193621 
L 125.647598 227.930698 
L 126.50685 227.858991 
L 126.50685 227.811187 
L 127.325746 227.715578 
L 127.325746 227.667774 
L 127.642832 227.643872 
L 127.642832 227.548263 
L 127.954256 227.524361 
L 127.954256 227.40485 
L 128.107907 227.40485 
L 128.107907 227.261437 
L 128.560901 227.213633 
L 128.560901 227.046318 
L 128.709321 227.046318 
L 128.709321 226.807296 
L 129.002426 226.73559 
L 129.002426 226.472666 
L 129.290685 226.424862 
L 129.290685 226.353156 
L 129.433047 226.353156 
L 129.433047 226.18584 
L 129.574256 226.18584 
L 129.574256 225.803406 
L 130.531948 225.707797 
L 130.531948 225.612189 
L 131.185181 225.51658 
L 131.185181 225.420971 
L 131.565689 225.373167 
L 131.565689 225.277559 
L 131.814826 225.18195 
L 131.814826 225.134146 
L 131.938072 225.134146 
L 131.938072 224.942928 
L 132.181982 224.871222 
L 132.181982 224.799515 
L 132.30267 224.799515 
L 132.30267 224.656103 
L 132.659801 224.584396 
L 132.659801 224.440983 
L 132.777237 224.440983 
L 132.777237 224.178059 
L 133.689303 224.082451 
L 133.800029 223.96294 
L 134.12805 223.939038 
L 134.236034 223.795625 
L 134.766144 223.700016 
L 134.870259 223.604408 
L 135.076644 223.508799 
L 135.178927 223.41319 
L 135.381712 223.389288 
L 135.482227 222.95905 
L 136.456742 222.863441 
L 136.456742 222.74393 
L 136.924311 222.648321 
L 136.924311 222.576615 
L 137.198951 222.576615 
L 137.198951 222.457104 
L 137.469333 222.433202 
L 137.469333 222.289789 
L 137.735587 222.218083 
L 137.823442 221.835648 
L 138.67848 221.74004 
L 138.67848 221.668333 
L 139.172077 221.620529 
L 139.172077 221.52492 
L 139.413734 221.453214 
L 139.413734 221.357605 
L 139.572998 221.357605 
L 139.572998 221.238094 
L 139.8092 221.19029 
L 139.887228 220.807856 
L 140.574203 220.736149 
L 140.64889 220.616638 
L 141.017599 220.52103 
L 141.090414 220.449323 
L 141.307054 220.377617 
L 141.378673 220.30591 
L 141.662245 220.210302 
L 141.732423 219.780063 
L 142.351634 219.684454 
L 142.419098 219.445433 
L 142.686372 219.349824 
L 142.752555 219.30202 
L 142.949611 219.254215 
L 143.014805 219.134705 
L 143.144465 219.0869 
L 143.144465 218.991292 
L 143.40093 218.919585 
L 143.464461 218.728368 
L 144.026061 218.680564 
L 144.026061 218.584955 
L 144.510517 218.537151 
L 144.570138 218.41764 
L 144.688773 218.369836 
L 144.688773 218.274227 
L 144.865226 218.274227 
L 144.923649 218.035206 
L 145.497361 217.963499 
L 145.497361 217.915695 
L 145.998045 217.820086 
L 146.107383 217.700575 
L 146.270114 217.700575 
L 146.377764 217.509358 
L 146.854132 217.41375 
L 146.958248 217.294239 
L 147.317833 217.246434 
L 147.368603 217.126924 
L 147.570215 217.126924 
L 147.620256 216.864 
L 148.064279 216.768391 
L 148.112924 216.696685 
L 148.54473 216.624978 
L 148.592055 216.505468 
L 149.058374 216.409859 
L 149.15016 216.362055 
L 149.646525 216.266446 
L 149.735275 216.19474 
L 149.955193 216.099131 
L 149.955193 216.075229 
L 150.556607 215.97962 
L 150.556607 215.955718 
L 150.849711 215.860109 
L 150.932558 215.812305 
L 151.340991 215.716697 
L 151.421542 215.597186 
L 151.740076 215.525479 
L 151.818809 215.429871 
L 151.975216 215.429871 
L 152.0141 215.286458 
L 152.398241 215.190849 
L 152.474064 215.143045 
L 152.848312 215.047436 
L 152.959038 214.97573 
L 153.609024 214.880121 
L 153.609024 214.832317 
L 154.098334 214.736708 
L 154.201424 214.665002 
L 154.674612 214.569393 
L 154.741174 214.449882 
L 155.296925 214.378176 
L 155.393186 214.234763 
L 155.897793 214.139154 
L 155.897793 214.115252 
L 156.114049 214.019644 
L 156.144725 213.947937 
L 156.448553 213.876231 
L 156.448553 213.828426 
L 156.894595 213.732818 
L 156.894595 213.685013 
L 157.329512 213.589405 
L 157.329512 213.565503 
L 158.168101 213.469894 
L 158.276927 213.42209 
L 158.863624 213.326481 
L 158.968208 213.230872 
L 159.733212 213.135264 
L 159.733212 213.063557 
L 160.321935 212.967949 
L 160.321935 212.896242 
L 161.169354 212.800634 
L 161.169354 212.776732 
L 161.955547 212.681123 
L 162.043181 212.633319 
L 162.812686 212.53771 
L 162.916926 212.466003 
L 163.489428 212.370395 
L 163.489428 212.346493 
L 164.429145 212.250884 
L 164.467222 212.20308 
L 165.643763 212.107471 
L 165.643763 212.083569 
L 167.368818 211.98796 
L 167.465168 211.940156 
L 169.360135 211.844547 
L 169.360135 211.820645 
L 171.442893 211.725037 
L 171.442893 211.701135 
L 173.878023 211.605526 
L 173.988539 211.557722 
L 338.688 211.462113 
L 338.688 211.462113 
" style="fill:none;stroke:#000080;stroke-linecap:square;stroke-width:1.5;"/>
   </g>
   <g id="line2d_36">
    <defs>
     <path d="M 0 6 
C 1.591219 6 3.117479 5.367802 4.242641 4.242641 
C 5.367802 3.117479 6 1.591219 6 0 
C 6 -1.591219 5.367802 -3.117479 4.242641 -4.242641 
C 3.117479 -5.367802 1.591219 -6 0 -6 
C -1.591219 -6 -3.117479 -5.367802 -4.242641 -4.242641 
C -5.367802 -3.117479 -6 -1.591219 -6 0 
C -6 1.591219 -5.367802 3.117479 -4.242641 4.242641 
C -3.117479 5.367802 -1.591219 6 0 6 
z
" id="m94d3733e3a" style="stroke:#000080;stroke-width:1.5;"/>
    </defs>
    <g>
     <use style="fill-opacity:0;stroke:#000080;stroke-width:1.5;" x="96.86091" xlink:href="#m94d3733e3a" y="248.128019"/>
     <use style="fill-opacity:0;stroke:#000080;stroke-width:1.5;" x="147.620256" xlink:href="#m94d3733e3a" y="216.983511"/>
     <use style="fill-opacity:0;stroke:#000080;stroke-width:1.5;" x="179.400355" xlink:href="#m94d3733e3a" y="211.486015"/>
     <use style="fill-opacity:0;stroke:#000080;stroke-width:1.5;" x="179.400355" xlink:href="#m94d3733e3a" y="211.462113"/>
     <use style="fill-opacity:0;stroke:#000080;stroke-width:1.5;" x="179.400355" xlink:href="#m94d3733e3a" y="211.462113"/>
     <use style="fill-opacity:0;stroke:#000080;stroke-width:1.5;" x="338.688" xlink:href="#m94d3733e3a" y="211.462113"/>
    </g>
   </g>
   <g id="line2d_37">
    <path style="fill:none;stroke:#000080;stroke-linecap:square;stroke-width:1.5;"/>
    <g/>
   </g>
   <g id="line2d_38">
    <path clip-path="url(#pb06a26ae77)" d="M 101.646892 241.315904 
" style="fill:none;stroke:#000080;stroke-linecap:square;stroke-width:1.5;"/>
    <defs>
     <path d="M -12 12 
L 12 -12 
M -12 -12 
L 12 12 
" id="m127ef83056" style="stroke:#000080;"/>
    </defs>
    <g clip-path="url(#pb06a26ae77)">
     <use style="fill:#000080;stroke:#000080;" x="101.646892" xlink:href="#m127ef83056" y="241.315904"/>
    </g>
   </g>
   <g id="line2d_39">
    <defs>
     <path d="M 0 1.5 
C 0.397805 1.5 0.77937 1.341951 1.06066 1.06066 
C 1.341951 0.77937 1.5 0.397805 1.5 0 
C 1.5 -0.397805 1.341951 -0.77937 1.06066 -1.06066 
C 0.77937 -1.341951 0.397805 -1.5 0 -1.5 
C -0.397805 -1.5 -0.77937 -1.341951 -1.06066 -1.06066 
C -1.341951 -0.77937 -1.5 -0.397805 -1.5 0 
C -1.5 0.397805 -1.341951 0.77937 -1.06066 1.06066 
C -0.77937 1.341951 -0.397805 1.5 0 1.5 
z
" id="md670a4f56b" style="stroke:#ff00ff;"/>
    </defs>
    <g>
     <use style="fill:#ff00ff;stroke:#ff00ff;" x="235.308569" xlink:href="#md670a4f56b" y="75.21983"/>
     <use style="fill:#ff00ff;stroke:#ff00ff;" x="235.308569" xlink:href="#md670a4f56b" y="75.21983"/>
    </g>
   </g>
   <g id="line2d_40">
    <path d="M 45.512012 298.944 
L 45.512012 282.953458 
L 76.759008 282.929556 
L 76.759008 282.833948 
L 79.447285 282.833948 
L 79.447285 282.690535 
L 83.830028 282.594926 
L 83.830028 282.260296 
L 85.66744 282.260296 
L 85.66744 281.97347 
L 87.329581 281.97347 
L 87.329581 281.519329 
L 88.846997 281.519329 
L 88.846997 281.184699 
L 91.535274 281.136895 
L 91.535274 281.041286 
L 92.73846 281.041286 
L 92.73846 280.921775 
L 93.863965 280.921775 
L 93.863965 280.778362 
L 94.921215 280.778362 
L 94.921215 280.563243 
L 95.918017 280.563243 
L 95.918017 280.443732 
L 96.86091 280.443732 
L 96.86091 280.109102 
L 97.755429 280.109102 
L 97.755429 279.87008 
L 98.606294 279.87008 
L 98.606294 279.583255 
L 99.41757 279.583255 
L 99.41757 279.009603 
L 100.192776 279.009603 
L 100.192776 278.244734 
L 100.934985 278.244734 
L 100.934985 277.814495 
L 101.646892 277.814495 
L 101.646892 276.97792 
L 102.330873 276.97792 
L 102.330873 276.475974 
L 102.989037 276.475974 
L 102.989037 275.997931 
L 103.623262 275.997931 
L 103.623262 275.54379 
L 104.23523 275.54379 
L 104.23523 275.256964 
L 104.826449 275.256964 
L 104.826449 275.017943 
L 105.398279 275.017943 
L 105.398279 274.468193 
L 105.951954 274.468193 
L 105.951954 274.157465 
L 106.48859 274.157465 
L 106.48859 271.838956 
L 107.009204 271.838956 
L 107.009204 270.739457 
L 107.514726 270.739457 
L 107.514726 269.592154 
L 108.006005 269.592154 
L 108.006005 268.970698 
L 108.483824 268.970698 
L 108.483824 268.277535 
L 108.948899 268.277535 
L 108.948899 267.44096 
L 109.401893 267.44096 
L 109.401893 266.365363 
L 109.843417 266.365363 
L 109.843417 260.581041 
L 110.274038 260.581041 
L 110.274038 260.198607 
L 110.694282 260.198607 
L 110.694282 259.648857 
L 111.104637 259.648857 
L 111.104637 259.099108 
L 111.505558 259.099108 
L 111.505558 258.78838 
L 111.897469 258.78838 
L 111.897469 258.334239 
L 112.280765 258.334239 
L 112.280765 257.951804 
L 112.655818 257.951804 
L 112.655818 255.920121 
L 113.022974 255.920121 
L 113.022974 255.585491 
L 113.382559 255.585491 
L 113.382559 255.250861 
L 113.73488 255.250861 
L 113.73488 254.79672 
L 114.080224 254.79672 
L 114.080224 254.46209 
L 114.418861 254.46209 
L 114.418861 254.079655 
L 114.751048 254.079655 
L 114.751048 253.338688 
L 115.077025 253.338688 
L 115.077025 252.69333 
L 115.397021 252.69333 
L 115.397021 252.047972 
L 115.711251 252.047972 
L 115.711251 251.617733 
L 116.019919 251.617733 
L 116.019919 250.924571 
L 116.323218 250.924571 
L 116.323218 250.016289 
L 116.621333 250.016289 
L 116.621333 249.466539 
L 116.914437 249.466539 
L 116.914437 249.036301 
L 117.202696 249.036301 
L 117.202696 248.629964 
L 117.486268 248.629964 
L 117.486268 248.223627 
L 117.765302 248.223627 
L 117.765302 247.865095 
L 118.039942 247.865095 
L 118.039942 247.458758 
L 118.310324 247.458758 
L 118.310324 246.909009 
L 118.576578 246.909009 
L 118.576578 246.574379 
L 118.838828 246.574379 
L 118.838828 246.239748 
L 119.097192 246.239748 
L 119.097192 245.905118 
L 119.351785 245.905118 
L 119.351785 245.546586 
L 119.602714 245.546586 
L 119.602714 245.283662 
L 119.850084 245.283662 
L 119.850084 244.733913 
L 120.093994 244.733913 
L 120.093994 244.518793 
L 120.33454 244.518793 
L 120.33454 243.753924 
L 120.571812 243.753924 
L 120.571812 243.467098 
L 120.8059 243.467098 
L 120.8059 242.869545 
L 121.036887 242.869545 
L 121.036887 242.48711 
L 121.264855 242.48711 
L 121.264855 242.224186 
L 121.489881 242.224186 
L 121.489881 241.841752 
L 121.712041 241.841752 
L 121.712041 241.387611 
L 121.931406 241.387611 
L 121.931406 240.574938 
L 122.148045 240.574938 
L 122.148045 240.192503 
L 122.362027 240.192503 
L 122.362027 239.666656 
L 122.573415 239.666656 
L 122.573415 239.093004 
L 122.782271 239.093004 
L 122.782271 238.591059 
L 122.988655 238.591059 
L 122.988655 238.256429 
L 123.192626 238.256429 
L 123.192626 237.730581 
L 123.394238 237.730581 
L 123.394238 237.372049 
L 123.593547 237.372049 
L 123.593547 236.129137 
L 123.790603 236.129137 
L 123.790603 235.674996 
L 123.985457 235.674996 
L 123.985457 235.173051 
L 124.178158 235.173051 
L 124.178158 234.312573 
L 124.368753 234.312573 
L 124.368753 233.452096 
L 124.557288 233.452096 
L 124.557288 232.806737 
L 124.743806 232.806737 
L 124.743806 231.587727 
L 124.92835 231.587727 
L 124.92835 231.229195 
L 125.110962 231.229195 
L 125.110962 230.488228 
L 125.291682 230.488228 
L 125.291682 230.034087 
L 125.470548 230.034087 
L 125.470548 229.317023 
L 125.647598 229.317023 
L 125.647598 228.456545 
L 125.822869 228.456545 
L 125.822869 227.811187 
L 125.996395 227.811187 
L 125.996395 226.902905 
L 126.168212 226.902905 
L 126.168212 226.281449 
L 126.338353 226.281449 
L 126.338353 225.636091 
L 126.50685 225.636091 
L 126.50685 225.014635 
L 126.673734 225.014635 
L 126.673734 224.034646 
L 126.839037 224.034646 
L 126.839037 223.317582 
L 127.002787 223.317582 
L 127.002787 222.528811 
L 127.165014 222.528811 
L 127.165014 221.931257 
L 127.325746 221.931257 
L 127.325746 220.760051 
L 127.48501 220.760051 
L 127.48501 219.756161 
L 127.642832 219.756161 
L 127.642832 218.704466 
L 127.799239 218.704466 
L 127.799239 217.74838 
L 127.954256 217.74838 
L 127.954256 216.601076 
L 128.107907 216.601076 
L 128.107907 215.907914 
L 128.260216 215.907914 
L 128.260216 215.071338 
L 128.411207 215.071338 
L 128.411207 214.258665 
L 128.560901 214.258665 
L 128.560901 212.681123 
L 128.709321 212.681123 
L 128.709321 211.964058 
L 128.856489 211.964058 
L 128.856489 211.342602 
L 129.002426 211.342602 
L 129.002426 209.980179 
L 129.147151 209.980179 
L 129.147151 209.43043 
L 129.290685 209.43043 
L 129.290685 208.020203 
L 129.433047 208.020203 
L 129.433047 206.896801 
L 129.574256 206.896801 
L 129.574256 205.677791 
L 129.714332 205.677791 
L 129.714332 204.387075 
L 129.853291 204.387075 
L 129.853291 203.454891 
L 129.991152 203.454891 
L 129.991152 202.474903 
L 130.127931 202.474903 
L 130.127931 201.829545 
L 130.263646 201.829545 
L 130.263646 200.658339 
L 130.398313 200.658339 
L 130.398313 199.415427 
L 130.531948 199.415427 
L 130.531948 198.124711 
L 130.664567 198.124711 
L 130.664567 197.001309 
L 130.796184 197.001309 
L 130.796184 196.045223 
L 130.926816 196.045223 
L 130.926816 194.969626 
L 131.056477 194.969626 
L 131.056477 194.085246 
L 131.185181 194.085246 
L 131.185181 192.937943 
L 131.312942 192.937943 
L 131.312942 192.053563 
L 131.439773 192.053563 
L 131.439773 191.145281 
L 131.565689 191.145281 
L 131.565689 189.974076 
L 131.690703 189.974076 
L 131.690703 189.1375 
L 131.814826 189.1375 
L 131.814826 187.822882 
L 131.938072 187.822882 
L 131.938072 187.058013 
L 132.060454 187.058013 
L 132.060454 186.36485 
L 132.181982 186.36485 
L 132.181982 185.241449 
L 132.30267 185.241449 
L 132.30267 184.285363 
L 132.422528 184.285363 
L 132.422528 183.353179 
L 132.541568 183.353179 
L 132.541568 182.492701 
L 132.659801 182.492701 
L 132.659801 180.078584 
L 132.777237 180.078584 
L 132.777237 179.218106 
L 132.893889 179.218106 
L 132.893889 177.999096 
L 133.009765 177.999096 
L 133.009765 177.521053 
L 133.124876 177.521053 
L 133.124876 176.803988 
L 133.239232 176.803988 
L 133.239232 175.465468 
L 133.352844 175.465468 
L 133.352844 174.246458 
L 133.46572 174.246458 
L 133.46572 172.71672 
L 133.57787 172.71672 
L 133.57787 171.927949 
L 133.689303 171.927949 
L 133.800029 169.442125 
L 133.910056 169.442125 
L 134.019394 167.314833 
L 134.12805 167.314833 
L 134.236034 165.522171 
L 134.343353 165.522171 
L 134.450015 163.753412 
L 134.55603 163.753412 
L 134.661403 162.534402 
L 134.766144 162.534402 
L 134.870259 161.243685 
L 134.973757 161.243685 
L 135.076644 159.881263 
L 135.178927 159.881263 
L 135.280614 158.327623 
L 135.381712 158.327623 
L 135.482227 156.797885 
L 135.582166 156.797885 
L 135.681535 155.770092 
L 135.780341 155.770092 
L 135.878591 154.551082 
L 135.97629 154.551082 
L 136.073445 153.523289 
L 136.170062 153.523289 
L 136.266147 152.63891 
L 136.361705 152.63891 
L 136.456742 151.348193 
L 136.551264 151.348193 
L 136.645276 150.439911 
L 136.738785 150.439911 
L 136.831795 149.698945 
L 136.924311 149.698945 
L 137.016339 148.456033 
L 137.107884 148.456033 
L 137.198951 147.499946 
L 137.289545 147.499946 
L 137.37967 146.639469 
L 137.469333 146.639469 
L 137.558536 145.707285 
L 137.647286 145.707285 
L 137.735587 144.870709 
L 137.823442 144.870709 
L 137.910857 144.129743 
L 137.997836 144.129743 
L 138.084384 143.388776 
L 138.170504 143.388776 
L 138.256201 143.006341 
L 138.341479 143.006341 
L 138.426341 142.289277 
L 138.510793 142.289277 
L 138.594838 141.596114 
L 138.67848 141.596114 
L 138.761723 141.189778 
L 138.84457 141.189778 
L 138.927025 140.401006 
L 139.009092 140.401006 
L 139.090775 140.233691 
L 139.172077 140.233691 
L 139.253002 139.540529 
L 139.333553 139.540529 
L 139.413734 138.942975 
L 139.493548 138.942975 
L 139.572998 138.680051 
L 139.652088 138.680051 
L 139.730821 138.22591 
L 139.8092 138.22591 
L 139.887228 137.723965 
L 139.964909 137.723965 
L 140.042245 137.341531 
L 140.11924 137.341531 
L 140.195896 136.982998 
L 140.272217 136.982998 
L 140.348205 136.600564 
L 140.499195 136.528857 
L 140.574203 136.146423 
L 140.64889 136.146423 
L 140.723258 135.811793 
L 140.871049 135.763988 
L 140.944478 135.477162 
L 141.090414 135.381554 
L 141.162927 134.927413 
L 141.235139 134.927413 
L 141.307054 134.521076 
L 141.521035 134.425468 
L 141.591783 133.995229 
L 141.871938 133.971327 
L 141.941279 133.684501 
L 142.010346 133.684501 
L 142.07914 133.421577 
L 142.147664 133.421577 
L 142.215919 132.967436 
L 142.283909 132.967436 
L 142.351634 132.728415 
L 142.419098 132.728415 
L 142.419098 132.5611 
L 142.619936 132.489393 
L 142.686372 132.250372 
L 142.818488 132.154763 
L 142.884173 131.915741 
L 143.014805 131.844035 
L 143.079756 131.557209 
L 143.208936 131.4616 
L 143.273169 131.150872 
L 143.337167 131.150872 
L 143.40093 130.935753 
L 143.590833 130.864047 
L 143.653678 130.672829 
L 143.716296 130.672829 
L 143.778691 130.433808 
L 143.902815 130.409906 
L 143.964547 130.075275 
L 144.026061 130.075275 
L 144.087359 129.860156 
L 144.269971 129.764547 
L 144.330419 129.597232 
L 144.510517 129.525526 
L 144.570138 129.453819 
L 144.688773 129.358211 
L 144.747789 129.214798 
L 144.865226 129.143091 
L 144.923649 128.927972 
L 144.981877 128.927972 
L 144.981877 128.808461 
L 145.097753 128.808461 
L 145.155404 128.665048 
L 145.327221 128.593342 
L 145.384119 128.426027 
L 145.553708 128.35432 
L 145.609873 128.067494 
L 145.832743 127.971886 
L 145.943118 127.756766 
L 146.161795 127.661158 
L 146.216039 127.613354 
L 146.431341 127.589451 
L 146.484754 127.422136 
L 146.644018 127.35043 
L 146.749392 127.159213 
L 146.906268 127.087506 
L 147.010073 126.920191 
L 147.317833 126.824582 
L 147.419225 126.728974 
L 147.670154 126.657267 
L 147.769524 126.394344 
L 148.015498 126.298735 
L 148.064279 126.059713 
L 148.258051 125.988007 
L 148.354135 125.844594 
L 148.639252 125.748985 
L 148.733265 125.653377 
L 148.87334 125.557768 
L 148.966103 125.390453 
L 149.058374 125.294844 
L 149.104327 125.151432 
L 149.286939 125.127529 
L 149.377533 124.936312 
L 149.557321 124.864606 
L 149.646525 124.57778 
L 149.735275 124.57778 
L 149.823575 124.195345 
L 149.911431 124.171443 
L 149.998846 123.836813 
L 150.085825 123.741204 
L 150.172372 123.621694 
L 150.301393 123.526085 
L 150.38688 123.334868 
L 150.51433 123.287063 
L 150.556607 123.167553 
L 150.682827 123.095846 
L 150.724698 122.952433 
L 150.849711 122.952433 
L 150.932558 122.713412 
L 151.13797 122.617803 
L 151.219462 122.354879 
L 151.381313 122.307075 
L 151.461678 121.972445 
L 151.621307 121.900738 
L 151.700576 121.446598 
L 151.818809 121.350989 
L 151.897188 121.088065 
L 152.052897 121.040261 
L 152.052897 120.849044 
L 152.245598 120.777337 
L 152.322086 120.514414 
L 152.474064 120.418805 
L 152.549559 120.203685 
L 152.736878 120.108077 
L 152.811246 119.940762 
L 152.959038 119.869055 
L 153.069065 119.653936 
L 153.142033 119.582229 
L 153.214697 119.462719 
L 153.573542 119.438817 
L 153.679772 119.199795 
L 153.750233 119.151991 
L 153.855395 118.936871 
L 153.959927 118.841263 
L 154.029268 118.769556 
L 154.167129 118.673948 
L 154.269814 118.48273 
L 154.371897 118.411024 
L 154.473387 118.076394 
L 154.57429 118.052492 
L 154.674612 117.789568 
L 154.873541 117.693959 
L 154.972161 117.574448 
L 155.070227 117.526644 
L 155.167744 117.26372 
L 155.232454 117.192014 
L 155.329071 117.024699 
L 155.55245 116.952992 
L 155.647315 116.666167 
L 155.741666 116.570558 
L 155.804285 116.451047 
L 155.959855 116.355439 
L 156.052535 116.188123 
L 156.175347 116.092515 
L 156.266892 115.877395 
L 156.327657 115.805689 
L 156.418408 115.566667 
L 156.538679 115.471059 
L 156.598505 115.279842 
L 156.687861 115.232037 
L 156.776762 115.016918 
L 156.865211 114.921309 
L 156.953214 114.849603 
L 157.069866 114.777896 
L 157.156845 114.562777 
L 157.300853 114.467168 
L 157.38669 114.323755 
L 157.472107 114.252049 
L 157.557108 114.108636 
L 157.669802 114.013027 
L 157.669802 113.989125 
L 157.837488 113.893517 
L 157.94839 113.702299 
L 157.976006 113.702299 
L 158.086033 113.391571 
L 158.168101 113.319865 
L 158.276927 113.056941 
L 158.358103 112.985235 
L 158.465753 112.81792 
L 158.51933 112.770115 
L 158.625992 112.531094 
L 158.705563 112.435485 
L 158.75841 112.363779 
L 158.915995 112.26817 
L 158.915995 112.244268 
L 159.098062 112.148659 
L 159.175513 111.957442 
L 159.303838 111.885736 
L 159.405822 111.718421 
L 159.658204 111.622812 
L 159.733212 111.407692 
L 159.882266 111.312084 
L 159.956318 111.192573 
L 160.225184 111.096964 
L 160.321935 110.977454 
L 160.394148 110.905747 
L 160.466062 110.810139 
L 160.632719 110.71453 
L 160.727241 110.595019 
L 161.007772 110.499411 
L 161.100288 110.3799 
L 161.374928 110.284291 
L 161.465522 110.16478 
L 161.555647 110.093074 
L 161.64531 109.949661 
L 161.778945 109.854052 
L 161.867469 109.686737 
L 162.065021 109.591129 
L 162.173813 109.519422 
L 162.19549 109.519422 
L 162.303474 109.280401 
L 162.410793 109.184792 
L 162.496175 109.065281 
L 162.62347 108.993575 
L 162.728843 108.802358 
L 162.791763 108.706749 
L 162.896128 108.49163 
L 162.979172 108.396021 
L 163.041197 108.300412 
L 163.185069 108.204804 
L 163.287113 107.965782 
L 163.388564 107.894076 
L 163.489428 107.678956 
L 163.50953 107.678956 
L 163.569701 107.439935 
L 163.669525 107.368228 
L 163.748975 107.105305 
L 163.867476 107.009696 
L 163.946031 106.794577 
L 164.024234 106.746772 
L 164.121498 106.579457 
L 164.237502 106.483849 
L 164.276 106.412142 
L 164.448194 106.316533 
L 164.543127 106.149218 
L 164.86209 106.05361 
L 164.954803 105.910197 
L 165.193576 105.814588 
L 165.302685 105.647273 
L 165.356985 105.551665 
L 165.411116 105.456056 
L 165.608172 105.360447 
L 165.714726 105.121426 
L 165.995728 105.025817 
L 166.065276 104.930209 
L 166.272273 104.8346 
L 166.34073 104.738991 
L 166.6119 104.667285 
L 166.679039 104.452165 
L 166.829163 104.356557 
L 166.928532 104.213144 
L 167.043752 104.117535 
L 167.141909 103.974122 
L 167.255733 103.878514 
L 167.352708 103.711199 
L 167.481174 103.61559 
L 167.576907 103.472177 
L 167.703739 103.400471 
L 167.735303 103.28096 
L 167.954668 103.185351 
L 168.063324 102.970232 
L 168.324419 102.874623 
L 168.385289 102.779015 
L 168.686493 102.707308 
L 168.731229 102.611699 
L 169.099626 102.516091 
L 169.201398 102.39658 
L 169.574291 102.300971 
L 169.673338 102.157559 
L 169.883706 102.06195 
L 169.981016 101.751222 
L 170.022555 101.703418 
L 170.132843 101.464396 
L 170.228776 101.368787 
L 170.337772 101.081962 
L 170.40555 100.986353 
L 170.51345 100.747331 
L 170.607318 100.651723 
L 170.660731 100.50831 
L 170.819995 100.412701 
L 170.912232 100.245386 
L 171.030109 100.149778 
L 171.121244 100.006365 
L 171.237722 99.934658 
L 171.327782 99.815147 
L 171.506517 99.719539 
L 171.569909 99.600028 
L 171.783736 99.504419 
L 171.883461 99.432713 
L 172.044307 99.361006 
L 172.142557 99.241496 
L 172.506141 99.145887 
L 172.506141 99.098083 
L 172.744386 99.026376 
L 172.803442 98.835159 
L 173.06094 98.73955 
L 173.165193 98.548333 
L 173.326137 98.452725 
L 173.417442 98.285409 
L 173.519593 98.189801 
L 173.621148 98.141997 
L 174.043535 98.046388 
L 174.12024 97.950779 
L 174.229235 97.855171 
L 174.283479 97.711758 
L 174.616074 97.616149 
L 174.722024 97.544443 
L 174.83783 97.448834 
L 174.932012 97.305421 
L 175.056802 97.209812 
L 175.160115 97.090302 
L 175.232072 96.994693 
L 175.324155 96.899084 
L 175.446179 96.803476 
L 175.537141 96.636161 
L 175.617599 96.564454 
L 175.717652 96.397139 
L 175.827052 96.325433 
L 175.916053 96.062509 
L 176.053603 95.9669 
L 176.112223 95.871292 
L 176.392805 95.775683 
L 176.46942 95.656172 
L 176.753762 95.560564 
L 176.847522 95.464955 
L 177.005766 95.369347 
L 177.042792 95.29764 
L 177.36346 95.202031 
L 177.454007 95.130325 
L 177.642639 95.034716 
L 177.705065 94.867401 
L 177.899821 94.771793 
L 177.943781 94.700086 
L 178.213893 94.604478 
L 178.25707 94.508869 
L 178.598693 94.41326 
L 178.674645 94.365456 
L 178.883902 94.269847 
L 178.991731 94.126434 
L 179.090678 94.054728 
L 179.19724 93.887413 
L 179.27877 93.815706 
L 179.384193 93.576685 
L 179.416503 93.481076 
L 179.513075 93.337663 
L 179.609115 93.265957 
L 179.70463 93.050838 
L 179.775924 92.955229 
L 179.886249 92.85962 
L 180.011487 92.764012 
L 180.08154 92.716207 
L 180.189955 92.620599 
L 180.243911 92.548892 
L 180.556629 92.453284 
L 180.579292 92.381577 
L 180.886106 92.285969 
L 180.974893 92.166458 
L 181.260369 92.070849 
L 181.267628 92.023045 
L 181.562667 91.927436 
L 181.655184 91.807925 
L 181.747212 91.712317 
L 181.831732 91.568904 
L 182.117457 91.473295 
L 182.227701 91.282078 
L 182.30993 91.186469 
L 182.371348 91.138665 
L 182.574526 91.066959 
L 182.621596 90.947448 
L 182.861682 90.851839 
L 182.954163 90.756231 
L 183.11157 90.660622 
L 183.215724 90.397698 
L 183.312807 90.30209 
L 183.383659 90.206481 
L 183.543625 90.110872 
L 183.651569 89.943557 
L 183.802832 89.847949 
L 183.90295 89.728438 
L 184.052058 89.632829 
L 184.150759 89.465514 
L 184.382961 89.369906 
L 184.382961 89.346003 
L 184.779052 89.250395 
L 184.826458 89.178688 
L 184.938532 89.106982 
L 185.026506 88.963569 
L 185.084909 88.86796 
L 185.102392 88.796254 
L 185.2185 88.700645 
L 185.32809 88.628939 
L 185.425565 88.53333 
L 185.511122 88.461624 
L 185.65279 88.366015 
L 185.65279 88.342113 
L 186.093044 88.246504 
L 186.19182 88.126994 
L 186.284597 88.031385 
L 186.360632 87.959679 
L 186.613497 87.86407 
L 186.677475 87.816266 
L 187.035648 87.720657 
L 187.118866 87.577244 
L 187.309799 87.481635 
L 187.39683 87.31432 
L 187.559482 87.218712 
L 187.650312 87.051397 
L 187.835545 86.955788 
L 187.929906 86.836277 
L 188.278065 86.740669 
L 188.365238 86.549451 
L 188.528717 86.453843 
L 188.614649 86.334332 
L 188.851149 86.238723 
L 188.940185 86.167017 
L 189.181563 86.071408 
L 189.268932 85.9758 
L 189.39234 85.880191 
L 189.496781 85.736778 
L 189.650035 85.641169 
L 189.752948 85.545561 
L 189.970194 85.449952 
L 190.07124 85.378246 
L 190.542309 85.282637 
L 190.546572 85.234833 
L 191.030035 85.139224 
L 191.11689 85.043616 
L 191.358623 84.948007 
L 191.443861 84.75679 
L 191.576971 84.661181 
L 191.645148 84.589475 
L 191.776735 84.493866 
L 191.856005 84.374355 
L 192.138429 84.278747 
L 192.138429 84.254844 
L 192.56886 84.159236 
L 192.56886 84.135334 
L 193.059191 84.039725 
L 193.140201 83.920214 
L 193.290178 83.824606 
L 193.380999 83.705095 
L 193.639949 83.609486 
L 193.739623 83.53778 
L 194.10493 83.442171 
L 194.17085 83.394367 
L 194.530718 83.32266 
L 194.628816 83.179248 
L 194.789981 83.083639 
L 194.876661 82.916324 
L 195.251713 82.820715 
L 195.362027 82.749009 
L 195.622056 82.6534 
L 195.666609 82.605596 
L 195.878265 82.509987 
L 195.987819 82.414379 
L 196.105988 82.31877 
L 196.180211 82.223161 
L 196.501273 82.127553 
L 196.504303 82.079748 
L 196.881869 81.98414 
L 196.881869 81.960238 
L 197.129113 81.864629 
L 197.21948 81.76902 
L 197.482077 81.673412 
L 197.576336 81.577803 
L 198.001259 81.482195 
L 198.031813 81.43439 
L 198.290749 81.362684 
L 198.290749 81.314879 
L 198.470284 81.243173 
L 198.58089 81.147564 
L 198.674758 81.051956 
L 198.776103 80.980249 
L 199.068809 80.884641 
L 199.167896 80.836836 
L 199.387521 80.741228 
L 199.438797 80.693423 
L 199.670223 80.621717 
L 199.781029 80.526108 
L 200.032747 80.4305 
L 200.032747 80.406598 
L 200.431474 80.310989 
L 200.527944 80.21538 
L 200.652562 80.119772 
L 200.721676 80.071967 
L 201.018823 79.976359 
L 201.077183 79.928554 
L 201.60513 79.832946 
L 201.684087 79.737337 
L 201.972051 79.641729 
L 201.972051 79.617826 
L 202.486869 79.522218 
L 202.486869 79.498316 
L 202.721731 79.402707 
L 202.778898 79.331001 
L 203.138743 79.235392 
L 203.138743 79.21149 
L 203.515646 79.115881 
L 203.574313 78.99637 
L 204.208899 78.900762 
L 204.216687 78.852957 
L 204.466003 78.757349 
L 204.502425 78.709545 
L 205.172996 78.613936 
L 205.272219 78.470523 
L 205.600741 78.374914 
L 205.600741 78.351012 
L 205.909062 78.255404 
L 205.910829 78.207599 
L 206.348643 78.111991 
L 206.444841 78.016382 
L 206.718491 77.920773 
L 206.826089 77.801263 
L 207.360845 77.705654 
L 207.469411 77.65785 
L 208.019551 77.562241 
L 208.025811 77.514437 
L 208.488992 77.418828 
L 208.593806 77.371024 
L 208.938704 77.275415 
L 208.997996 77.227611 
L 209.998661 77.132002 
L 210.046103 77.084198 
L 210.760072 76.988589 
L 210.853452 76.940785 
L 211.489625 76.845176 
L 211.489625 76.821274 
L 212.406642 76.725666 
L 212.406642 76.701764 
L 213.065842 76.606155 
L 213.102134 76.558351 
L 213.883136 76.462742 
L 213.883136 76.43884 
L 214.584528 76.343231 
L 214.584528 76.319329 
L 215.676433 76.22372 
L 215.676433 76.199818 
L 216.32413 76.10421 
L 216.32413 76.080308 
L 217.00856 75.984699 
L 217.030047 75.912992 
L 218.477065 75.817384 
L 218.561928 75.745677 
L 219.723791 75.650069 
L 219.723791 75.626167 
L 221.563283 75.530558 
L 221.563283 75.506656 
L 222.85341 75.411047 
L 222.85341 75.387145 
L 230.841264 75.291536 
L 230.841264 75.267634 
L 338.688 75.21983 
L 338.688 75.21983 
" style="fill:none;stroke:#ff00ff;stroke-linecap:square;stroke-width:1.5;"/>
   </g>
   <g id="line2d_41">
    <defs>
     <path d="M -0 8.485281 
L 5.091169 0 
L 0 -8.485281 
L -5.091169 -0 
z
" id="m63a06c758c" style="stroke:#ff00ff;stroke-linejoin:miter;stroke-width:1.5;"/>
    </defs>
    <g>
     <use style="fill-opacity:0;stroke:#ff00ff;stroke-linejoin:miter;stroke-width:1.5;" x="112.655818" xlink:href="#m63a06c758c" y="257.951804"/>
     <use style="fill-opacity:0;stroke:#ff00ff;stroke-linejoin:miter;stroke-width:1.5;" x="136.361705" xlink:href="#m63a06c758c" y="152.63891"/>
     <use style="fill-opacity:0;stroke:#ff00ff;stroke-linejoin:miter;stroke-width:1.5;" x="220.60058" xlink:href="#m63a06c758c" y="75.55446"/>
     <use style="fill-opacity:0;stroke:#ff00ff;stroke-linejoin:miter;stroke-width:1.5;" x="235.308569" xlink:href="#m63a06c758c" y="75.21983"/>
     <use style="fill-opacity:0;stroke:#ff00ff;stroke-linejoin:miter;stroke-width:1.5;" x="235.308569" xlink:href="#m63a06c758c" y="75.21983"/>
     <use style="fill-opacity:0;stroke:#ff00ff;stroke-linejoin:miter;stroke-width:1.5;" x="338.688" xlink:href="#m63a06c758c" y="75.21983"/>
    </g>
   </g>
   <g id="line2d_42">
    <path style="fill:none;stroke:#ff00ff;stroke-linecap:square;stroke-width:1.5;"/>
    <g/>
   </g>
   <g id="line2d_43">
    <path clip-path="url(#pb06a26ae77)" d="M 151.381313 122.13976 
" style="fill:none;stroke:#ff00ff;stroke-linecap:square;stroke-width:1.5;"/>
    <defs>
     <path d="M -12 12 
L 12 -12 
M -12 -12 
L 12 12 
" id="m662f1ee1bb" style="stroke:#ff00ff;"/>
    </defs>
    <g clip-path="url(#pb06a26ae77)">
     <use style="fill:#ff00ff;stroke:#ff00ff;" x="151.381313" xlink:href="#m662f1ee1bb" y="122.13976"/>
    </g>
   </g>
   <g id="line2d_44">
    <path d="M 338.688 211.462113 
L 369.60768 293.092752 
" style="fill:none;stroke:#000080;stroke-linecap:square;stroke-width:1.5;"/>
    <g>
     <use style="fill-opacity:0;stroke:#000080;stroke-width:1.5;" x="338.688" xlink:href="#m94d3733e3a" y="211.462113"/>
     <use style="fill-opacity:0;stroke:#000080;stroke-width:1.5;" x="369.60768" xlink:href="#m94d3733e3a" y="293.092752"/>
    </g>
   </g>
   <g id="line2d_45">
    <path d="M 338.688 75.21983 
L 369.60768 152.662812 
" style="fill:none;stroke:#ff00ff;stroke-linecap:square;stroke-width:1.5;"/>
    <g>
     <use style="fill-opacity:0;stroke:#ff00ff;stroke-linejoin:miter;stroke-width:1.5;" x="338.688" xlink:href="#m63a06c758c" y="75.21983"/>
     <use style="fill-opacity:0;stroke:#ff00ff;stroke-linejoin:miter;stroke-width:1.5;" x="369.60768" xlink:href="#m63a06c758c" y="152.662812"/>
    </g>
   </g>
   <g id="line2d_46">
    <path d="M 338.688 298.944 
L 338.688 6.381624 
" style="fill:none;stroke:#000000;stroke-linecap:square;stroke-width:1.5;"/>
   </g>
   <g id="patch_3">
    <path d="M 57.6 298.944 
L 57.6 3.456 
" style="fill:none;stroke:#000000;stroke-linecap:square;stroke-linejoin:miter;stroke-width:0.8;"/>
   </g>
   <g id="patch_4">
    <path d="M 338.688 298.944 
L 338.688 3.456 
" style="fill:none;stroke:#000000;stroke-linecap:square;stroke-linejoin:miter;stroke-width:0.8;"/>
   </g>
   <g id="patch_5">
    <path d="M 57.6 298.944 
L 338.688 298.944 
" style="fill:none;stroke:#000000;stroke-linecap:square;stroke-linejoin:miter;stroke-width:0.8;"/>
   </g>
   <g id="patch_6">
    <path d="M 57.6 3.456 
L 338.688 3.456 
" style="fill:none;stroke:#000000;stroke-linecap:square;stroke-linejoin:miter;stroke-width:0.8;"/>
   </g>
   <g id="text_13">
    <!-- gpy lcb -->
    <defs>
     <path d="M 32.171875 -5.078125 
Q 28.375 -14.84375 24.75 -17.8125 
Q 21.140625 -20.796875 15.09375 -20.796875 
L 7.90625 -20.796875 
L 7.90625 -13.28125 
L 13.1875 -13.28125 
Q 16.890625 -13.28125 18.9375 -11.515625 
Q 21 -9.765625 23.484375 -3.21875 
L 25.09375 0.875 
L 2.984375 54.6875 
L 12.5 54.6875 
L 29.59375 11.921875 
L 46.6875 54.6875 
L 56.203125 54.6875 
z
" id="DejaVuSans-121"/>
     <path d="M 48.6875 27.296875 
Q 48.6875 37.203125 44.609375 42.84375 
Q 40.53125 48.484375 33.40625 48.484375 
Q 26.265625 48.484375 22.1875 42.84375 
Q 18.109375 37.203125 18.109375 27.296875 
Q 18.109375 17.390625 22.1875 11.75 
Q 26.265625 6.109375 33.40625 6.109375 
Q 40.53125 6.109375 44.609375 11.75 
Q 48.6875 17.390625 48.6875 27.296875 
z
M 18.109375 46.390625 
Q 20.953125 51.265625 25.265625 53.625 
Q 29.59375 56 35.59375 56 
Q 45.5625 56 51.78125 48.09375 
Q 58.015625 40.1875 58.015625 27.296875 
Q 58.015625 14.40625 51.78125 6.484375 
Q 45.5625 -1.421875 35.59375 -1.421875 
Q 29.59375 -1.421875 25.265625 0.953125 
Q 20.953125 3.328125 18.109375 8.203125 
L 18.109375 0 
L 9.078125 0 
L 9.078125 75.984375 
L 18.109375 75.984375 
z
" id="DejaVuSans-98"/>
    </defs>
    <g transform="translate(375.22944 297.78369)scale(0.17 -0.17)">
     <use xlink:href="#DejaVuSans-103"/>
     <use x="63.476562" xlink:href="#DejaVuSans-112"/>
     <use x="126.953125" xlink:href="#DejaVuSans-121"/>
     <use x="186.132812" xlink:href="#DejaVuSans-32"/>
     <use x="217.919922" xlink:href="#DejaVuSans-108"/>
     <use x="245.703125" xlink:href="#DejaVuSans-99"/>
     <use x="300.683594" xlink:href="#DejaVuSans-98"/>
    </g>
   </g>
   <g id="text_14">
    <!-- scp fmin -->
    <g transform="translate(375.22944 157.353749)scale(0.17 -0.17)">
     <use xlink:href="#DejaVuSans-115"/>
     <use x="52.099609" xlink:href="#DejaVuSans-99"/>
     <use x="107.080078" xlink:href="#DejaVuSans-112"/>
     <use x="170.556641" xlink:href="#DejaVuSans-32"/>
     <use x="202.34375" xlink:href="#DejaVuSans-102"/>
     <use x="237.548828" xlink:href="#DejaVuSans-109"/>
     <use x="334.960938" xlink:href="#DejaVuSans-105"/>
     <use x="362.744141" xlink:href="#DejaVuSans-110"/>
    </g>
   </g>
   <g id="text_15">
    <!-- best 2009 -->
    <defs>
     <path d="M 10.984375 1.515625 
L 10.984375 10.5 
Q 14.703125 8.734375 18.5 7.8125 
Q 22.3125 6.890625 25.984375 6.890625 
Q 35.75 6.890625 40.890625 13.453125 
Q 46.046875 20.015625 46.78125 33.40625 
Q 43.953125 29.203125 39.59375 26.953125 
Q 35.25 24.703125 29.984375 24.703125 
Q 19.046875 24.703125 12.671875 31.3125 
Q 6.296875 37.9375 6.296875 49.421875 
Q 6.296875 60.640625 12.9375 67.421875 
Q 19.578125 74.21875 30.609375 74.21875 
Q 43.265625 74.21875 49.921875 64.515625 
Q 56.59375 54.828125 56.59375 36.375 
Q 56.59375 19.140625 48.40625 8.859375 
Q 40.234375 -1.421875 26.421875 -1.421875 
Q 22.703125 -1.421875 18.890625 -0.6875 
Q 15.09375 0.046875 10.984375 1.515625 
z
M 30.609375 32.421875 
Q 37.25 32.421875 41.125 36.953125 
Q 45.015625 41.5 45.015625 49.421875 
Q 45.015625 57.28125 41.125 61.84375 
Q 37.25 66.40625 30.609375 66.40625 
Q 23.96875 66.40625 20.09375 61.84375 
Q 16.21875 57.28125 16.21875 49.421875 
Q 16.21875 41.5 20.09375 36.953125 
Q 23.96875 32.421875 30.609375 32.421875 
z
" id="DejaVuSans-57"/>
    </defs>
    <g transform="translate(375.22944 16.923809)scale(0.17 -0.17)">
     <use xlink:href="#DejaVuSans-98"/>
     <use x="63.476562" xlink:href="#DejaVuSans-101"/>
     <use x="125" xlink:href="#DejaVuSans-115"/>
     <use x="177.099609" xlink:href="#DejaVuSans-116"/>
     <use x="216.308594" xlink:href="#DejaVuSans-32"/>
     <use x="248.095703" xlink:href="#DejaVuSans-50"/>
     <use x="311.71875" xlink:href="#DejaVuSans-48"/>
     <use x="375.341797" xlink:href="#DejaVuSans-48"/>
     <use x="438.964844" xlink:href="#DejaVuSans-57"/>
    </g>
   </g>
   <g id="text_16">
    <!-- bbob f1-f24, 2-D -->
    <defs>
     <path d="M 19.671875 64.796875 
L 19.671875 8.109375 
L 31.59375 8.109375 
Q 46.6875 8.109375 53.6875 14.9375 
Q 60.6875 21.78125 60.6875 36.53125 
Q 60.6875 51.171875 53.6875 57.984375 
Q 46.6875 64.796875 31.59375 64.796875 
z
M 9.8125 72.90625 
L 30.078125 72.90625 
Q 51.265625 72.90625 61.171875 64.09375 
Q 71.09375 55.28125 71.09375 36.53125 
Q 71.09375 17.671875 61.125 8.828125 
Q 51.171875 0 30.078125 0 
L 9.8125 0 
z
" id="DejaVuSans-68"/>
    </defs>
    <g transform="translate(60.41088 14.161286)scale(0.102 -0.102)">
     <use xlink:href="#DejaVuSans-98"/>
     <use x="63.476562" xlink:href="#DejaVuSans-98"/>
     <use x="126.953125" xlink:href="#DejaVuSans-111"/>
     <use x="188.134766" xlink:href="#DejaVuSans-98"/>
     <use x="251.611328" xlink:href="#DejaVuSans-32"/>
     <use x="283.398438" xlink:href="#DejaVuSans-102"/>
     <use x="318.603516" xlink:href="#DejaVuSans-49"/>
     <use x="382.226562" xlink:href="#DejaVuSans-45"/>
     <use x="418.310547" xlink:href="#DejaVuSans-102"/>
     <use x="453.515625" xlink:href="#DejaVuSans-50"/>
     <use x="517.138672" xlink:href="#DejaVuSans-52"/>
     <use x="580.761719" xlink:href="#DejaVuSans-44"/>
     <use x="612.548828" xlink:href="#DejaVuSans-32"/>
     <use x="644.335938" xlink:href="#DejaVuSans-50"/>
     <use x="707.958984" xlink:href="#DejaVuSans-45"/>
     <use x="744.042969" xlink:href="#DejaVuSans-68"/>
    </g>
    <!-- 51 targets: 100..1e-08 -->
    <defs>
     <path d="M 10.796875 72.90625 
L 49.515625 72.90625 
L 49.515625 64.59375 
L 19.828125 64.59375 
L 19.828125 46.734375 
Q 21.96875 47.46875 24.109375 47.828125 
Q 26.265625 48.1875 28.421875 48.1875 
Q 40.625 48.1875 47.75 41.5 
Q 54.890625 34.8125 54.890625 23.390625 
Q 54.890625 11.625 47.5625 5.09375 
Q 40.234375 -1.421875 26.90625 -1.421875 
Q 22.3125 -1.421875 17.546875 -0.640625 
Q 12.796875 0.140625 7.71875 1.703125 
L 7.71875 11.625 
Q 12.109375 9.234375 16.796875 8.0625 
Q 21.484375 6.890625 26.703125 6.890625 
Q 35.15625 6.890625 40.078125 11.328125 
Q 45.015625 15.765625 45.015625 23.390625 
Q 45.015625 31 40.078125 35.4375 
Q 35.15625 39.890625 26.703125 39.890625 
Q 22.75 39.890625 18.8125 39.015625 
Q 14.890625 38.140625 10.796875 36.28125 
z
" id="DejaVuSans-53"/>
     <path d="M 11.71875 12.40625 
L 22.015625 12.40625 
L 22.015625 0 
L 11.71875 0 
z
M 11.71875 51.703125 
L 22.015625 51.703125 
L 22.015625 39.3125 
L 11.71875 39.3125 
z
" id="DejaVuSans-58"/>
    </defs>
    <g transform="translate(60.41088 25.583055)scale(0.102 -0.102)">
     <use xlink:href="#DejaVuSans-53"/>
     <use x="63.623047" xlink:href="#DejaVuSans-49"/>
     <use x="127.246094" xlink:href="#DejaVuSans-32"/>
     <use x="159.033203" xlink:href="#DejaVuSans-116"/>
     <use x="198.242188" xlink:href="#DejaVuSans-97"/>
     <use x="259.521484" xlink:href="#DejaVuSans-114"/>
     <use x="298.884766" xlink:href="#DejaVuSans-103"/>
     <use x="362.361328" xlink:href="#DejaVuSans-101"/>
     <use x="423.884766" xlink:href="#DejaVuSans-116"/>
     <use x="463.09375" xlink:href="#DejaVuSans-115"/>
     <use x="515.193359" xlink:href="#DejaVuSans-58"/>
     <use x="548.884766" xlink:href="#DejaVuSans-32"/>
     <use x="580.671875" xlink:href="#DejaVuSans-49"/>
     <use x="644.294922" xlink:href="#DejaVuSans-48"/>
     <use x="707.917969" xlink:href="#DejaVuSans-48"/>
     <use x="771.541016" xlink:href="#DejaVuSans-46"/>
     <use x="803.328125" xlink:href="#DejaVuSans-46"/>
     <use x="835.115234" xlink:href="#DejaVuSans-49"/>
     <use x="898.738281" xlink:href="#DejaVuSans-101"/>
     <use x="960.261719" xlink:href="#DejaVuSans-45"/>
     <use x="996.345703" xlink:href="#DejaVuSans-48"/>
     <use x="1059.96875" xlink:href="#DejaVuSans-56"/>
    </g>
    <!-- 15 instances -->
    <g transform="translate(60.41088 37.004824)scale(0.102 -0.102)">
     <use xlink:href="#DejaVuSans-49"/>
     <use x="63.623047" xlink:href="#DejaVuSans-53"/>
     <use x="127.246094" xlink:href="#DejaVuSans-32"/>
     <use x="159.033203" xlink:href="#DejaVuSans-105"/>
     <use x="186.816406" xlink:href="#DejaVuSans-110"/>
     <use x="250.195312" xlink:href="#DejaVuSans-115"/>
     <use x="302.294922" xlink:href="#DejaVuSans-116"/>
     <use x="341.503906" xlink:href="#DejaVuSans-97"/>
     <use x="402.783203" xlink:href="#DejaVuSans-110"/>
     <use x="466.162109" xlink:href="#DejaVuSans-99"/>
     <use x="521.142578" xlink:href="#DejaVuSans-101"/>
     <use x="582.666016" xlink:href="#DejaVuSans-115"/>
    </g>
   </g>
   <g id="text_17">
    <!-- v2.3.3.5 -->
    <defs>
     <path d="M 40.578125 39.3125 
Q 47.65625 37.796875 51.625 33 
Q 55.609375 28.21875 55.609375 21.1875 
Q 55.609375 10.40625 48.1875 4.484375 
Q 40.765625 -1.421875 27.09375 -1.421875 
Q 22.515625 -1.421875 17.65625 -0.515625 
Q 12.796875 0.390625 7.625 2.203125 
L 7.625 11.71875 
Q 11.71875 9.328125 16.59375 8.109375 
Q 21.484375 6.890625 26.8125 6.890625 
Q 36.078125 6.890625 40.9375 10.546875 
Q 45.796875 14.203125 45.796875 21.1875 
Q 45.796875 27.640625 41.28125 31.265625 
Q 36.765625 34.90625 28.71875 34.90625 
L 20.21875 34.90625 
L 20.21875 43.015625 
L 29.109375 43.015625 
Q 36.375 43.015625 40.234375 45.921875 
Q 44.09375 48.828125 44.09375 54.296875 
Q 44.09375 59.90625 40.109375 62.90625 
Q 36.140625 65.921875 28.71875 65.921875 
Q 24.65625 65.921875 20.015625 65.03125 
Q 15.375 64.15625 9.8125 62.3125 
L 9.8125 71.09375 
Q 15.4375 72.65625 20.34375 73.4375 
Q 25.25 74.21875 29.59375 74.21875 
Q 40.828125 74.21875 47.359375 69.109375 
Q 53.90625 64.015625 53.90625 55.328125 
Q 53.90625 49.265625 50.4375 45.09375 
Q 46.96875 40.921875 40.578125 39.3125 
z
" id="DejaVuSans-51"/>
    </defs>
    <g style="fill:#808080;" transform="translate(177.692437 293.909432)scale(0.1 -0.1)">
     <use xlink:href="#DejaVuSans-118"/>
     <use x="59.179688" xlink:href="#DejaVuSans-50"/>
     <use x="122.802734" xlink:href="#DejaVuSans-46"/>
     <use x="154.589844" xlink:href="#DejaVuSans-51"/>
     <use x="218.212891" xlink:href="#DejaVuSans-46"/>
     <use x="250" xlink:href="#DejaVuSans-51"/>
     <use x="313.623047" xlink:href="#DejaVuSans-46"/>
     <use x="345.410156" xlink:href="#DejaVuSans-53"/>
    </g>
   </g>
  </g>
 </g>
 <defs>
  <clipPath id="pb06a26ae77">
   <rect height="295.488" width="281.088" x="57.6" y="3.456"/>
  </clipPath>
 </defs>
</svg>
