<?xml version="1.0" encoding="utf-8" standalone="no"?>
<!DOCTYPE svg PUBLIC "-//W3C//DTD SVG 1.1//EN"
  "http://www.w3.org/Graphics/SVG/1.1/DTD/svg11.dtd">
<!-- Created with matplotlib (https://matplotlib.org/) -->
<svg height="345.6pt" version="1.1" viewBox="0 0 460.8 345.6" width="460.8pt" xmlns="http://www.w3.org/2000/svg" xmlns:xlink="http://www.w3.org/1999/xlink">
 <defs>
  <style type="text/css">
*{stroke-linecap:butt;stroke-linejoin:round;}
  </style>
 </defs>
 <g id="figure_1">
  <g id="patch_1">
   <path d="M 0 345.6 
L 460.8 345.6 
L 460.8 0 
L 0 0 
z
" style="fill:#ffffff;"/>
  </g>
  <g id="axes_1">
   <g id="patch_2">
    <path d="M 57.6 298.944 
L 338.688 298.944 
L 338.688 3.456 
L 57.6 3.456 
z
" style="fill:#ffffff;"/>
   </g>
   <g id="line2d_1">
    <path d="M 45.512012 298.944 
L 45.512012 290.339224 
L 57.6 290.339224 
L 57.6 283.168578 
L 64.67102 283.168578 
L 64.67102 275.997931 
L 73.579452 275.997931 
L 73.579452 265.959026 
L 76.759008 265.959026 
L 76.759008 264.524897 
L 79.447285 264.524897 
L 79.447285 263.090768 
L 85.66744 263.090768 
L 85.66744 261.656638 
L 88.846997 261.656638 
L 88.846997 255.920121 
L 90.242884 255.920121 
L 90.242884 253.051863 
L 91.535274 253.051863 
L 91.535274 250.183604 
L 92.73846 250.183604 
L 92.73846 247.315345 
L 93.863965 247.315345 
L 93.863965 245.881216 
L 94.921215 245.881216 
L 94.921215 244.447087 
L 95.918017 244.447087 
L 95.918017 238.71057 
L 96.86091 238.71057 
L 96.86091 235.842311 
L 97.755429 235.842311 
L 97.755429 232.974052 
L 98.606294 232.974052 
L 98.606294 228.671665 
L 100.192776 228.671665 
L 100.192776 227.237535 
L 102.989037 227.237535 
L 102.989037 224.369277 
L 104.826449 224.369277 
L 104.826449 222.935147 
L 105.398279 222.935147 
L 105.398279 221.501018 
L 105.951954 221.501018 
L 105.951954 220.066889 
L 107.514726 220.066889 
L 107.514726 217.19863 
L 108.483824 217.19863 
L 108.483824 215.764501 
L 108.948899 215.764501 
L 108.948899 212.896242 
L 109.401893 212.896242 
L 109.401893 211.462113 
L 110.274038 211.462113 
L 110.274038 208.593854 
L 110.694282 208.593854 
L 110.694282 207.159725 
L 111.104637 207.159725 
L 111.104637 204.291467 
L 111.505558 204.291467 
L 111.505558 198.554949 
L 111.897469 198.554949 
L 111.897469 197.12082 
L 112.280765 197.12082 
L 112.280765 191.384303 
L 112.655818 191.384303 
L 112.655818 187.081915 
L 113.382559 187.081915 
L 113.382559 185.647786 
L 113.73488 185.647786 
L 113.73488 182.779527 
L 114.418861 182.779527 
L 114.418861 181.345398 
L 115.077025 181.345398 
L 115.077025 179.911268 
L 116.621333 179.911268 
L 116.621333 178.477139 
L 116.914437 178.477139 
L 116.914437 177.04301 
L 117.202696 177.04301 
L 117.202696 175.608881 
L 117.765302 175.608881 
L 117.765302 174.174751 
L 118.310324 174.174751 
L 118.310324 172.740622 
L 118.576578 172.740622 
L 118.576578 171.306493 
L 118.838828 171.306493 
L 118.838828 169.872363 
L 119.097192 169.872363 
L 119.097192 168.438234 
L 119.351785 168.438234 
L 119.351785 167.004105 
L 120.093994 167.004105 
L 120.093994 164.135846 
L 120.33454 164.135846 
L 120.33454 161.267588 
L 121.036887 161.267588 
L 121.036887 159.833458 
L 121.264855 159.833458 
L 121.264855 156.9652 
L 121.489881 156.9652 
L 121.489881 154.096941 
L 121.931406 154.096941 
L 121.931406 146.926295 
L 122.148045 146.926295 
L 122.148045 141.189778 
L 122.362027 141.189778 
L 122.362027 138.321519 
L 122.782271 138.321519 
L 122.782271 136.88739 
L 122.988655 136.88739 
L 122.988655 135.45326 
L 123.192626 135.45326 
L 123.192626 131.150872 
L 123.593547 131.150872 
L 123.593547 129.716743 
L 123.790603 129.716743 
L 123.790603 122.546097 
L 123.985457 122.546097 
L 123.985457 118.243709 
L 124.178158 118.243709 
L 124.178158 115.37545 
L 124.368753 115.37545 
L 124.368753 108.204804 
L 124.557288 108.204804 
L 124.557288 103.902416 
L 124.743806 103.902416 
L 124.743806 96.731769 
L 124.92835 96.731769 
L 124.92835 93.863511 
L 125.110962 93.863511 
L 125.110962 90.995252 
L 125.470548 90.995252 
L 125.470548 89.561123 
L 125.822869 89.561123 
L 125.822869 86.692864 
L 126.338353 86.692864 
L 126.338353 83.824606 
L 126.839037 83.824606 
L 126.839037 80.956347 
L 127.002787 80.956347 
L 127.002787 78.088089 
L 127.48501 78.088089 
L 127.48501 75.21983 
L 127.799239 75.21983 
L 127.799239 69.483313 
L 128.107907 69.483313 
L 128.107907 65.180925 
L 128.411207 65.180925 
L 128.411207 63.746796 
L 128.709321 63.746796 
L 128.709321 62.312666 
L 129.147151 62.312666 
L 129.147151 60.878537 
L 129.574256 60.878537 
L 129.574256 59.444408 
L 129.714332 59.444408 
L 129.714332 58.010278 
L 129.853291 58.010278 
L 129.853291 56.576149 
L 130.398313 56.576149 
L 130.398313 55.14202 
L 130.796184 55.14202 
L 130.796184 53.707891 
L 131.185181 53.707891 
L 131.185181 52.273761 
L 136.831795 52.273761 
L 136.831795 50.839632 
L 137.289545 50.839632 
L 137.289545 49.405503 
L 138.426341 49.405503 
L 138.426341 47.971373 
L 139.172077 47.971373 
L 139.172077 46.537244 
L 139.333553 46.537244 
L 139.333553 19.288787 
L 139.8092 19.288787 
L 139.8092 17.854658 
L 140.272217 17.854658 
L 140.272217 16.420529 
L 140.723258 16.420529 
L 140.723258 14.9864 
L 141.162927 14.9864 
L 141.162927 13.55227 
L 141.307054 13.55227 
L 141.307054 12.118141 
L 141.80232 12.118141 
L 141.80232 10.684012 
L 142.010346 10.684012 
L 142.010346 9.249882 
L 142.215919 9.249882 
L 142.215919 7.815753 
L 142.351634 7.815753 
L 142.351634 6.381624 
L 338.688 6.381624 
L 338.688 6.381624 
" style="fill:none;stroke:#f5deb3;stroke-linecap:square;stroke-width:4;"/>
   </g>
   <g id="line2d_2">
    <defs>
     <path d="M -0 7.778175 
L 7.778175 0 
L 0 -7.778175 
L -7.778175 -0 
z
" id="m2a51f21cb6" style="stroke:#f5deb3;stroke-linejoin:miter;stroke-width:1.5;"/>
    </defs>
    <g>
     <use style="fill:#f5deb3;stroke:#f5deb3;stroke-linejoin:miter;stroke-width:1.5;" x="108.483824" xlink:href="#m2a51f21cb6" y="215.764501"/>
     <use style="fill:#f5deb3;stroke:#f5deb3;stroke-linejoin:miter;stroke-width:1.5;" x="127.002787" xlink:href="#m2a51f21cb6" y="80.956347"/>
     <use style="fill:#f5deb3;stroke:#f5deb3;stroke-linejoin:miter;stroke-width:1.5;" x="142.351634" xlink:href="#m2a51f21cb6" y="7.815753"/>
     <use style="fill:#f5deb3;stroke:#f5deb3;stroke-linejoin:miter;stroke-width:1.5;" x="142.351634" xlink:href="#m2a51f21cb6" y="6.381624"/>
     <use style="fill:#f5deb3;stroke:#f5deb3;stroke-linejoin:miter;stroke-width:1.5;" x="142.351634" xlink:href="#m2a51f21cb6" y="6.381624"/>
     <use style="fill:#f5deb3;stroke:#f5deb3;stroke-linejoin:miter;stroke-width:1.5;" x="338.688" xlink:href="#m2a51f21cb6" y="6.381624"/>
    </g>
   </g>
   <g id="line2d_3">
    <path style="fill:none;stroke:#f5deb3;stroke-linecap:square;stroke-width:4;"/>
    <g/>
   </g>
   <g id="line2d_4">
    <path d="M 338.688 6.381624 
L 369.60768 12.232871 
" style="fill:none;stroke:#f5deb3;stroke-linecap:square;stroke-width:4;"/>
    <g>
     <use style="fill:#f5deb3;stroke:#f5deb3;stroke-linejoin:miter;stroke-width:1.5;" x="338.688" xlink:href="#m2a51f21cb6" y="6.381624"/>
     <use style="fill:#f5deb3;stroke:#f5deb3;stroke-linejoin:miter;stroke-width:1.5;" x="369.60768" xlink:href="#m2a51f21cb6" y="12.232871"/>
    </g>
   </g>
   <g id="matplotlib.axis_1">
    <g id="xtick_1">
     <g id="line2d_5">
      <path clip-path="url(#p6cb1066113)" d="M 57.6 298.944 
L 57.6 3.456 
" style="fill:none;stroke:#b0b0b0;stroke-linecap:square;stroke-width:0.8;"/>
     </g>
     <g id="line2d_6">
      <defs>
       <path d="M 0 0 
L 0 3.5 
" id="m9b73c5b0d9" style="stroke:#000000;stroke-width:0.8;"/>
      </defs>
      <g>
       <use style="stroke:#000000;stroke-width:0.8;" x="57.6" xlink:href="#m9b73c5b0d9" y="298.944"/>
      </g>
     </g>
     <g id="text_1">
      <!-- 0 -->
      <defs>
       <path d="M 31.78125 66.40625 
Q 24.171875 66.40625 20.328125 58.90625 
Q 16.5 51.421875 16.5 36.375 
Q 16.5 21.390625 20.328125 13.890625 
Q 24.171875 6.390625 31.78125 6.390625 
Q 39.453125 6.390625 43.28125 13.890625 
Q 47.125 21.390625 47.125 36.375 
Q 47.125 51.421875 43.28125 58.90625 
Q 39.453125 66.40625 31.78125 66.40625 
z
M 31.78125 74.21875 
Q 44.046875 74.21875 50.515625 64.515625 
Q 56.984375 54.828125 56.984375 36.375 
Q 56.984375 17.96875 50.515625 8.265625 
Q 44.046875 -1.421875 31.78125 -1.421875 
Q 19.53125 -1.421875 13.0625 8.265625 
Q 6.59375 17.96875 6.59375 36.375 
Q 6.59375 54.828125 13.0625 64.515625 
Q 19.53125 74.21875 31.78125 74.21875 
z
" id="DejaVuSans-48"/>
      </defs>
      <g transform="translate(51.2375 321.140875)scale(0.2 -0.2)">
       <use xlink:href="#DejaVuSans-48"/>
      </g>
     </g>
    </g>
    <g id="xtick_2">
     <g id="line2d_7">
      <path clip-path="url(#p6cb1066113)" d="M 137.910857 298.944 
L 137.910857 3.456 
" style="fill:none;stroke:#b0b0b0;stroke-linecap:square;stroke-width:0.8;"/>
     </g>
     <g id="line2d_8">
      <g>
       <use style="stroke:#000000;stroke-width:0.8;" x="137.910857" xlink:href="#m9b73c5b0d9" y="298.944"/>
      </g>
     </g>
     <g id="text_2">
      <!-- 2 -->
      <defs>
       <path d="M 19.1875 8.296875 
L 53.609375 8.296875 
L 53.609375 0 
L 7.328125 0 
L 7.328125 8.296875 
Q 12.9375 14.109375 22.625 23.890625 
Q 32.328125 33.6875 34.8125 36.53125 
Q 39.546875 41.84375 41.421875 45.53125 
Q 43.3125 49.21875 43.3125 52.78125 
Q 43.3125 58.59375 39.234375 62.25 
Q 35.15625 65.921875 28.609375 65.921875 
Q 23.96875 65.921875 18.8125 64.3125 
Q 13.671875 62.703125 7.8125 59.421875 
L 7.8125 69.390625 
Q 13.765625 71.78125 18.9375 73 
Q 24.125 74.21875 28.421875 74.21875 
Q 39.75 74.21875 46.484375 68.546875 
Q 53.21875 62.890625 53.21875 53.421875 
Q 53.21875 48.921875 51.53125 44.890625 
Q 49.859375 40.875 45.40625 35.40625 
Q 44.1875 33.984375 37.640625 27.21875 
Q 31.109375 20.453125 19.1875 8.296875 
z
" id="DejaVuSans-50"/>
      </defs>
      <g transform="translate(131.548357 321.140875)scale(0.2 -0.2)">
       <use xlink:href="#DejaVuSans-50"/>
      </g>
     </g>
    </g>
    <g id="xtick_3">
     <g id="line2d_9">
      <path clip-path="url(#p6cb1066113)" d="M 218.221714 298.944 
L 218.221714 3.456 
" style="fill:none;stroke:#b0b0b0;stroke-linecap:square;stroke-width:0.8;"/>
     </g>
     <g id="line2d_10">
      <g>
       <use style="stroke:#000000;stroke-width:0.8;" x="218.221714" xlink:href="#m9b73c5b0d9" y="298.944"/>
      </g>
     </g>
     <g id="text_3">
      <!-- 4 -->
      <defs>
       <path d="M 37.796875 64.3125 
L 12.890625 25.390625 
L 37.796875 25.390625 
z
M 35.203125 72.90625 
L 47.609375 72.90625 
L 47.609375 25.390625 
L 58.015625 25.390625 
L 58.015625 17.1875 
L 47.609375 17.1875 
L 47.609375 0 
L 37.796875 0 
L 37.796875 17.1875 
L 4.890625 17.1875 
L 4.890625 26.703125 
z
" id="DejaVuSans-52"/>
      </defs>
      <g transform="translate(211.859214 321.140875)scale(0.2 -0.2)">
       <use xlink:href="#DejaVuSans-52"/>
      </g>
     </g>
    </g>
    <g id="xtick_4">
     <g id="line2d_11">
      <path clip-path="url(#p6cb1066113)" d="M 298.532571 298.944 
L 298.532571 3.456 
" style="fill:none;stroke:#b0b0b0;stroke-linecap:square;stroke-width:0.8;"/>
     </g>
     <g id="line2d_12">
      <g>
       <use style="stroke:#000000;stroke-width:0.8;" x="298.532571" xlink:href="#m9b73c5b0d9" y="298.944"/>
      </g>
     </g>
     <g id="text_4">
      <!-- 6 -->
      <defs>
       <path d="M 33.015625 40.375 
Q 26.375 40.375 22.484375 35.828125 
Q 18.609375 31.296875 18.609375 23.390625 
Q 18.609375 15.53125 22.484375 10.953125 
Q 26.375 6.390625 33.015625 6.390625 
Q 39.65625 6.390625 43.53125 10.953125 
Q 47.40625 15.53125 47.40625 23.390625 
Q 47.40625 31.296875 43.53125 35.828125 
Q 39.65625 40.375 33.015625 40.375 
z
M 52.59375 71.296875 
L 52.59375 62.3125 
Q 48.875 64.0625 45.09375 64.984375 
Q 41.3125 65.921875 37.59375 65.921875 
Q 27.828125 65.921875 22.671875 59.328125 
Q 17.53125 52.734375 16.796875 39.40625 
Q 19.671875 43.65625 24.015625 45.921875 
Q 28.375 48.1875 33.59375 48.1875 
Q 44.578125 48.1875 50.953125 41.515625 
Q 57.328125 34.859375 57.328125 23.390625 
Q 57.328125 12.15625 50.6875 5.359375 
Q 44.046875 -1.421875 33.015625 -1.421875 
Q 20.359375 -1.421875 13.671875 8.265625 
Q 6.984375 17.96875 6.984375 36.375 
Q 6.984375 53.65625 15.1875 63.9375 
Q 23.390625 74.21875 37.203125 74.21875 
Q 40.921875 74.21875 44.703125 73.484375 
Q 48.484375 72.75 52.59375 71.296875 
z
" id="DejaVuSans-54"/>
      </defs>
      <g transform="translate(292.170071 321.140875)scale(0.2 -0.2)">
       <use xlink:href="#DejaVuSans-54"/>
      </g>
     </g>
    </g>
    <g id="xtick_5">
     <g id="line2d_13">
      <path clip-path="url(#p6cb1066113)" d="M 97.755429 298.944 
L 97.755429 3.456 
" style="fill:none;stroke:#b0b0b0;stroke-linecap:square;stroke-width:0.8;"/>
     </g>
     <g id="line2d_14">
      <defs>
       <path d="M 0 0 
L 0 2 
" id="m74d643b5ab" style="stroke:#000000;stroke-width:0.6;"/>
      </defs>
      <g>
       <use style="stroke:#000000;stroke-width:0.6;" x="97.755429" xlink:href="#m74d643b5ab" y="298.944"/>
      </g>
     </g>
    </g>
    <g id="xtick_6">
     <g id="line2d_15">
      <path clip-path="url(#p6cb1066113)" d="M 178.066286 298.944 
L 178.066286 3.456 
" style="fill:none;stroke:#b0b0b0;stroke-linecap:square;stroke-width:0.8;"/>
     </g>
     <g id="line2d_16">
      <g>
       <use style="stroke:#000000;stroke-width:0.6;" x="178.066286" xlink:href="#m74d643b5ab" y="298.944"/>
      </g>
     </g>
    </g>
    <g id="xtick_7">
     <g id="line2d_17">
      <path clip-path="url(#p6cb1066113)" d="M 258.377143 298.944 
L 258.377143 3.456 
" style="fill:none;stroke:#b0b0b0;stroke-linecap:square;stroke-width:0.8;"/>
     </g>
     <g id="line2d_18">
      <g>
       <use style="stroke:#000000;stroke-width:0.6;" x="258.377143" xlink:href="#m74d643b5ab" y="298.944"/>
      </g>
     </g>
    </g>
    <g id="xtick_8">
     <g id="line2d_19">
      <path clip-path="url(#p6cb1066113)" d="M 338.688 298.944 
L 338.688 3.456 
" style="fill:none;stroke:#b0b0b0;stroke-linecap:square;stroke-width:0.8;"/>
     </g>
     <g id="line2d_20">
      <g>
       <use style="stroke:#000000;stroke-width:0.6;" x="338.688" xlink:href="#m74d643b5ab" y="298.944"/>
      </g>
     </g>
    </g>
    <g id="text_5">
     <!-- log10(# f-evals / dimension) -->
     <defs>
      <path d="M 9.421875 75.984375 
L 18.40625 75.984375 
L 18.40625 0 
L 9.421875 0 
z
" id="DejaVuSans-108"/>
      <path d="M 30.609375 48.390625 
Q 23.390625 48.390625 19.1875 42.75 
Q 14.984375 37.109375 14.984375 27.296875 
Q 14.984375 17.484375 19.15625 11.84375 
Q 23.34375 6.203125 30.609375 6.203125 
Q 37.796875 6.203125 41.984375 11.859375 
Q 46.1875 17.53125 46.1875 27.296875 
Q 46.1875 37.015625 41.984375 42.703125 
Q 37.796875 48.390625 30.609375 48.390625 
z
M 30.609375 56 
Q 42.328125 56 49.015625 48.375 
Q 55.71875 40.765625 55.71875 27.296875 
Q 55.71875 13.875 49.015625 6.21875 
Q 42.328125 -1.421875 30.609375 -1.421875 
Q 18.84375 -1.421875 12.171875 6.21875 
Q 5.515625 13.875 5.515625 27.296875 
Q 5.515625 40.765625 12.171875 48.375 
Q 18.84375 56 30.609375 56 
z
" id="DejaVuSans-111"/>
      <path d="M 45.40625 27.984375 
Q 45.40625 37.75 41.375 43.109375 
Q 37.359375 48.484375 30.078125 48.484375 
Q 22.859375 48.484375 18.828125 43.109375 
Q 14.796875 37.75 14.796875 27.984375 
Q 14.796875 18.265625 18.828125 12.890625 
Q 22.859375 7.515625 30.078125 7.515625 
Q 37.359375 7.515625 41.375 12.890625 
Q 45.40625 18.265625 45.40625 27.984375 
z
M 54.390625 6.78125 
Q 54.390625 -7.171875 48.1875 -13.984375 
Q 42 -20.796875 29.203125 -20.796875 
Q 24.46875 -20.796875 20.265625 -20.09375 
Q 16.0625 -19.390625 12.109375 -17.921875 
L 12.109375 -9.1875 
Q 16.0625 -11.328125 19.921875 -12.34375 
Q 23.78125 -13.375 27.78125 -13.375 
Q 36.625 -13.375 41.015625 -8.765625 
Q 45.40625 -4.15625 45.40625 5.171875 
L 45.40625 9.625 
Q 42.625 4.78125 38.28125 2.390625 
Q 33.9375 0 27.875 0 
Q 17.828125 0 11.671875 7.65625 
Q 5.515625 15.328125 5.515625 27.984375 
Q 5.515625 40.671875 11.671875 48.328125 
Q 17.828125 56 27.875 56 
Q 33.9375 56 38.28125 53.609375 
Q 42.625 51.21875 45.40625 46.390625 
L 45.40625 54.6875 
L 54.390625 54.6875 
z
" id="DejaVuSans-103"/>
      <path d="M 12.40625 8.296875 
L 28.515625 8.296875 
L 28.515625 63.921875 
L 10.984375 60.40625 
L 10.984375 69.390625 
L 28.421875 72.90625 
L 38.28125 72.90625 
L 38.28125 8.296875 
L 54.390625 8.296875 
L 54.390625 0 
L 12.40625 0 
z
" id="DejaVuSans-49"/>
      <path d="M 31 75.875 
Q 24.46875 64.65625 21.28125 53.65625 
Q 18.109375 42.671875 18.109375 31.390625 
Q 18.109375 20.125 21.3125 9.0625 
Q 24.515625 -2 31 -13.1875 
L 23.1875 -13.1875 
Q 15.875 -1.703125 12.234375 9.375 
Q 8.59375 20.453125 8.59375 31.390625 
Q 8.59375 42.28125 12.203125 53.3125 
Q 15.828125 64.359375 23.1875 75.875 
z
" id="DejaVuSans-40"/>
      <path d="M 51.125 44 
L 36.921875 44 
L 32.8125 27.6875 
L 47.125 27.6875 
z
M 43.796875 71.78125 
L 38.71875 51.515625 
L 52.984375 51.515625 
L 58.109375 71.78125 
L 65.921875 71.78125 
L 60.890625 51.515625 
L 76.125 51.515625 
L 76.125 44 
L 58.984375 44 
L 54.984375 27.6875 
L 70.515625 27.6875 
L 70.515625 20.21875 
L 53.078125 20.21875 
L 48 0 
L 40.1875 0 
L 45.21875 20.21875 
L 30.90625 20.21875 
L 25.875 0 
L 18.015625 0 
L 23.09375 20.21875 
L 7.71875 20.21875 
L 7.71875 27.6875 
L 24.90625 27.6875 
L 29 44 
L 13.28125 44 
L 13.28125 51.515625 
L 30.90625 51.515625 
L 35.890625 71.78125 
z
" id="DejaVuSans-35"/>
      <path id="DejaVuSans-32"/>
      <path d="M 37.109375 75.984375 
L 37.109375 68.5 
L 28.515625 68.5 
Q 23.6875 68.5 21.796875 66.546875 
Q 19.921875 64.59375 19.921875 59.515625 
L 19.921875 54.6875 
L 34.71875 54.6875 
L 34.71875 47.703125 
L 19.921875 47.703125 
L 19.921875 0 
L 10.890625 0 
L 10.890625 47.703125 
L 2.296875 47.703125 
L 2.296875 54.6875 
L 10.890625 54.6875 
L 10.890625 58.5 
Q 10.890625 67.625 15.140625 71.796875 
Q 19.390625 75.984375 28.609375 75.984375 
z
" id="DejaVuSans-102"/>
      <path d="M 4.890625 31.390625 
L 31.203125 31.390625 
L 31.203125 23.390625 
L 4.890625 23.390625 
z
" id="DejaVuSans-45"/>
      <path d="M 56.203125 29.59375 
L 56.203125 25.203125 
L 14.890625 25.203125 
Q 15.484375 15.921875 20.484375 11.0625 
Q 25.484375 6.203125 34.421875 6.203125 
Q 39.59375 6.203125 44.453125 7.46875 
Q 49.3125 8.734375 54.109375 11.28125 
L 54.109375 2.78125 
Q 49.265625 0.734375 44.1875 -0.34375 
Q 39.109375 -1.421875 33.890625 -1.421875 
Q 20.796875 -1.421875 13.15625 6.1875 
Q 5.515625 13.8125 5.515625 26.8125 
Q 5.515625 40.234375 12.765625 48.109375 
Q 20.015625 56 32.328125 56 
Q 43.359375 56 49.78125 48.890625 
Q 56.203125 41.796875 56.203125 29.59375 
z
M 47.21875 32.234375 
Q 47.125 39.59375 43.09375 43.984375 
Q 39.0625 48.390625 32.421875 48.390625 
Q 24.90625 48.390625 20.390625 44.140625 
Q 15.875 39.890625 15.1875 32.171875 
z
" id="DejaVuSans-101"/>
      <path d="M 2.984375 54.6875 
L 12.5 54.6875 
L 29.59375 8.796875 
L 46.6875 54.6875 
L 56.203125 54.6875 
L 35.6875 0 
L 23.484375 0 
z
" id="DejaVuSans-118"/>
      <path d="M 34.28125 27.484375 
Q 23.390625 27.484375 19.1875 25 
Q 14.984375 22.515625 14.984375 16.5 
Q 14.984375 11.71875 18.140625 8.90625 
Q 21.296875 6.109375 26.703125 6.109375 
Q 34.1875 6.109375 38.703125 11.40625 
Q 43.21875 16.703125 43.21875 25.484375 
L 43.21875 27.484375 
z
M 52.203125 31.203125 
L 52.203125 0 
L 43.21875 0 
L 43.21875 8.296875 
Q 40.140625 3.328125 35.546875 0.953125 
Q 30.953125 -1.421875 24.3125 -1.421875 
Q 15.921875 -1.421875 10.953125 3.296875 
Q 6 8.015625 6 15.921875 
Q 6 25.140625 12.171875 29.828125 
Q 18.359375 34.515625 30.609375 34.515625 
L 43.21875 34.515625 
L 43.21875 35.40625 
Q 43.21875 41.609375 39.140625 45 
Q 35.0625 48.390625 27.6875 48.390625 
Q 23 48.390625 18.546875 47.265625 
Q 14.109375 46.140625 10.015625 43.890625 
L 10.015625 52.203125 
Q 14.9375 54.109375 19.578125 55.046875 
Q 24.21875 56 28.609375 56 
Q 40.484375 56 46.34375 49.84375 
Q 52.203125 43.703125 52.203125 31.203125 
z
" id="DejaVuSans-97"/>
      <path d="M 44.28125 53.078125 
L 44.28125 44.578125 
Q 40.484375 46.53125 36.375 47.5 
Q 32.28125 48.484375 27.875 48.484375 
Q 21.1875 48.484375 17.84375 46.4375 
Q 14.5 44.390625 14.5 40.28125 
Q 14.5 37.15625 16.890625 35.375 
Q 19.28125 33.59375 26.515625 31.984375 
L 29.59375 31.296875 
Q 39.15625 29.25 43.1875 25.515625 
Q 47.21875 21.78125 47.21875 15.09375 
Q 47.21875 7.46875 41.1875 3.015625 
Q 35.15625 -1.421875 24.609375 -1.421875 
Q 20.21875 -1.421875 15.453125 -0.5625 
Q 10.6875 0.296875 5.421875 2 
L 5.421875 11.28125 
Q 10.40625 8.6875 15.234375 7.390625 
Q 20.0625 6.109375 24.8125 6.109375 
Q 31.15625 6.109375 34.5625 8.28125 
Q 37.984375 10.453125 37.984375 14.40625 
Q 37.984375 18.0625 35.515625 20.015625 
Q 33.0625 21.96875 24.703125 23.78125 
L 21.578125 24.515625 
Q 13.234375 26.265625 9.515625 29.90625 
Q 5.8125 33.546875 5.8125 39.890625 
Q 5.8125 47.609375 11.28125 51.796875 
Q 16.75 56 26.8125 56 
Q 31.78125 56 36.171875 55.265625 
Q 40.578125 54.546875 44.28125 53.078125 
z
" id="DejaVuSans-115"/>
      <path d="M 25.390625 72.90625 
L 33.6875 72.90625 
L 8.296875 -9.28125 
L 0 -9.28125 
z
" id="DejaVuSans-47"/>
      <path d="M 45.40625 46.390625 
L 45.40625 75.984375 
L 54.390625 75.984375 
L 54.390625 0 
L 45.40625 0 
L 45.40625 8.203125 
Q 42.578125 3.328125 38.25 0.953125 
Q 33.9375 -1.421875 27.875 -1.421875 
Q 17.96875 -1.421875 11.734375 6.484375 
Q 5.515625 14.40625 5.515625 27.296875 
Q 5.515625 40.1875 11.734375 48.09375 
Q 17.96875 56 27.875 56 
Q 33.9375 56 38.25 53.625 
Q 42.578125 51.265625 45.40625 46.390625 
z
M 14.796875 27.296875 
Q 14.796875 17.390625 18.875 11.75 
Q 22.953125 6.109375 30.078125 6.109375 
Q 37.203125 6.109375 41.296875 11.75 
Q 45.40625 17.390625 45.40625 27.296875 
Q 45.40625 37.203125 41.296875 42.84375 
Q 37.203125 48.484375 30.078125 48.484375 
Q 22.953125 48.484375 18.875 42.84375 
Q 14.796875 37.203125 14.796875 27.296875 
z
" id="DejaVuSans-100"/>
      <path d="M 9.421875 54.6875 
L 18.40625 54.6875 
L 18.40625 0 
L 9.421875 0 
z
M 9.421875 75.984375 
L 18.40625 75.984375 
L 18.40625 64.59375 
L 9.421875 64.59375 
z
" id="DejaVuSans-105"/>
      <path d="M 52 44.1875 
Q 55.375 50.25 60.0625 53.125 
Q 64.75 56 71.09375 56 
Q 79.640625 56 84.28125 50.015625 
Q 88.921875 44.046875 88.921875 33.015625 
L 88.921875 0 
L 79.890625 0 
L 79.890625 32.71875 
Q 79.890625 40.578125 77.09375 44.375 
Q 74.3125 48.1875 68.609375 48.1875 
Q 61.625 48.1875 57.5625 43.546875 
Q 53.515625 38.921875 53.515625 30.90625 
L 53.515625 0 
L 44.484375 0 
L 44.484375 32.71875 
Q 44.484375 40.625 41.703125 44.40625 
Q 38.921875 48.1875 33.109375 48.1875 
Q 26.21875 48.1875 22.15625 43.53125 
Q 18.109375 38.875 18.109375 30.90625 
L 18.109375 0 
L 9.078125 0 
L 9.078125 54.6875 
L 18.109375 54.6875 
L 18.109375 46.1875 
Q 21.1875 51.21875 25.484375 53.609375 
Q 29.78125 56 35.6875 56 
Q 41.65625 56 45.828125 52.96875 
Q 50 49.953125 52 44.1875 
z
" id="DejaVuSans-109"/>
      <path d="M 54.890625 33.015625 
L 54.890625 0 
L 45.90625 0 
L 45.90625 32.71875 
Q 45.90625 40.484375 42.875 44.328125 
Q 39.84375 48.1875 33.796875 48.1875 
Q 26.515625 48.1875 22.3125 43.546875 
Q 18.109375 38.921875 18.109375 30.90625 
L 18.109375 0 
L 9.078125 0 
L 9.078125 54.6875 
L 18.109375 54.6875 
L 18.109375 46.1875 
Q 21.34375 51.125 25.703125 53.5625 
Q 30.078125 56 35.796875 56 
Q 45.21875 56 50.046875 50.171875 
Q 54.890625 44.34375 54.890625 33.015625 
z
" id="DejaVuSans-110"/>
      <path d="M 8.015625 75.875 
L 15.828125 75.875 
Q 23.140625 64.359375 26.78125 53.3125 
Q 30.421875 42.28125 30.421875 31.390625 
Q 30.421875 20.453125 26.78125 9.375 
Q 23.140625 -1.703125 15.828125 -13.1875 
L 8.015625 -13.1875 
Q 14.5 -2 17.703125 9.0625 
Q 20.90625 20.125 20.90625 31.390625 
Q 20.90625 42.671875 17.703125 53.65625 
Q 14.5 64.65625 8.015625 75.875 
z
" id="DejaVuSans-41"/>
     </defs>
     <g transform="translate(77.764078 342.217594)scale(0.17 -0.17)">
      <use xlink:href="#DejaVuSans-108"/>
      <use x="27.783203" xlink:href="#DejaVuSans-111"/>
      <use x="88.964844" xlink:href="#DejaVuSans-103"/>
      <use x="152.441406" xlink:href="#DejaVuSans-49"/>
      <use x="216.064453" xlink:href="#DejaVuSans-48"/>
      <use x="279.6875" xlink:href="#DejaVuSans-40"/>
      <use x="318.701172" xlink:href="#DejaVuSans-35"/>
      <use x="402.490234" xlink:href="#DejaVuSans-32"/>
      <use x="434.277344" xlink:href="#DejaVuSans-102"/>
      <use x="463.982422" xlink:href="#DejaVuSans-45"/>
      <use x="500.066406" xlink:href="#DejaVuSans-101"/>
      <use x="561.589844" xlink:href="#DejaVuSans-118"/>
      <use x="620.769531" xlink:href="#DejaVuSans-97"/>
      <use x="682.048828" xlink:href="#DejaVuSans-108"/>
      <use x="709.832031" xlink:href="#DejaVuSans-115"/>
      <use x="761.931641" xlink:href="#DejaVuSans-32"/>
      <use x="793.71875" xlink:href="#DejaVuSans-47"/>
      <use x="827.410156" xlink:href="#DejaVuSans-32"/>
      <use x="859.197266" xlink:href="#DejaVuSans-100"/>
      <use x="922.673828" xlink:href="#DejaVuSans-105"/>
      <use x="950.457031" xlink:href="#DejaVuSans-109"/>
      <use x="1047.869141" xlink:href="#DejaVuSans-101"/>
      <use x="1109.392578" xlink:href="#DejaVuSans-110"/>
      <use x="1172.771484" xlink:href="#DejaVuSans-115"/>
      <use x="1224.871094" xlink:href="#DejaVuSans-105"/>
      <use x="1252.654297" xlink:href="#DejaVuSans-111"/>
      <use x="1313.835938" xlink:href="#DejaVuSans-110"/>
      <use x="1377.214844" xlink:href="#DejaVuSans-41"/>
     </g>
    </g>
   </g>
   <g id="matplotlib.axis_2">
    <g id="ytick_1">
     <g id="line2d_21">
      <path clip-path="url(#p6cb1066113)" d="M 57.6 298.944 
L 338.688 298.944 
" style="fill:none;stroke:#b0b0b0;stroke-linecap:square;stroke-width:0.8;"/>
     </g>
     <g id="line2d_22">
      <defs>
       <path d="M 0 0 
L -3.5 0 
" id="m48fcccb38e" style="stroke:#000000;stroke-width:0.8;"/>
      </defs>
      <g>
       <use style="stroke:#000000;stroke-width:0.8;" x="57.6" xlink:href="#m48fcccb38e" y="298.944"/>
      </g>
     </g>
     <g id="text_6">
      <!-- 0.0 -->
      <defs>
       <path d="M 10.6875 12.40625 
L 21 12.40625 
L 21 0 
L 10.6875 0 
z
" id="DejaVuSans-46"/>
      </defs>
      <g transform="translate(25.155 305.02275)scale(0.16 -0.16)">
       <use xlink:href="#DejaVuSans-48"/>
       <use x="63.623047" xlink:href="#DejaVuSans-46"/>
       <use x="95.410156" xlink:href="#DejaVuSans-48"/>
      </g>
     </g>
    </g>
    <g id="ytick_2">
     <g id="line2d_23">
      <path clip-path="url(#p6cb1066113)" d="M 57.6 240.431525 
L 338.688 240.431525 
" style="fill:none;stroke:#b0b0b0;stroke-linecap:square;stroke-width:0.8;"/>
     </g>
     <g id="line2d_24">
      <g>
       <use style="stroke:#000000;stroke-width:0.8;" x="57.6" xlink:href="#m48fcccb38e" y="240.431525"/>
      </g>
     </g>
     <g id="text_7">
      <!-- 0.2 -->
      <g transform="translate(25.155 246.510275)scale(0.16 -0.16)">
       <use xlink:href="#DejaVuSans-48"/>
       <use x="63.623047" xlink:href="#DejaVuSans-46"/>
       <use x="95.410156" xlink:href="#DejaVuSans-50"/>
      </g>
     </g>
    </g>
    <g id="ytick_3">
     <g id="line2d_25">
      <path clip-path="url(#p6cb1066113)" d="M 57.6 181.91905 
L 338.688 181.91905 
" style="fill:none;stroke:#b0b0b0;stroke-linecap:square;stroke-width:0.8;"/>
     </g>
     <g id="line2d_26">
      <g>
       <use style="stroke:#000000;stroke-width:0.8;" x="57.6" xlink:href="#m48fcccb38e" y="181.91905"/>
      </g>
     </g>
     <g id="text_8">
      <!-- 0.4 -->
      <g transform="translate(25.155 187.9978)scale(0.16 -0.16)">
       <use xlink:href="#DejaVuSans-48"/>
       <use x="63.623047" xlink:href="#DejaVuSans-46"/>
       <use x="95.410156" xlink:href="#DejaVuSans-52"/>
      </g>
     </g>
    </g>
    <g id="ytick_4">
     <g id="line2d_27">
      <path clip-path="url(#p6cb1066113)" d="M 57.6 123.406574 
L 338.688 123.406574 
" style="fill:none;stroke:#b0b0b0;stroke-linecap:square;stroke-width:0.8;"/>
     </g>
     <g id="line2d_28">
      <g>
       <use style="stroke:#000000;stroke-width:0.8;" x="57.6" xlink:href="#m48fcccb38e" y="123.406574"/>
      </g>
     </g>
     <g id="text_9">
      <!-- 0.6 -->
      <g transform="translate(25.155 129.485324)scale(0.16 -0.16)">
       <use xlink:href="#DejaVuSans-48"/>
       <use x="63.623047" xlink:href="#DejaVuSans-46"/>
       <use x="95.410156" xlink:href="#DejaVuSans-54"/>
      </g>
     </g>
    </g>
    <g id="ytick_5">
     <g id="line2d_29">
      <path clip-path="url(#p6cb1066113)" d="M 57.6 64.894099 
L 338.688 64.894099 
" style="fill:none;stroke:#b0b0b0;stroke-linecap:square;stroke-width:0.8;"/>
     </g>
     <g id="line2d_30">
      <g>
       <use style="stroke:#000000;stroke-width:0.8;" x="57.6" xlink:href="#m48fcccb38e" y="64.894099"/>
      </g>
     </g>
     <g id="text_10">
      <!-- 0.8 -->
      <defs>
       <path d="M 31.78125 34.625 
Q 24.75 34.625 20.71875 30.859375 
Q 16.703125 27.09375 16.703125 20.515625 
Q 16.703125 13.921875 20.71875 10.15625 
Q 24.75 6.390625 31.78125 6.390625 
Q 38.8125 6.390625 42.859375 10.171875 
Q 46.921875 13.96875 46.921875 20.515625 
Q 46.921875 27.09375 42.890625 30.859375 
Q 38.875 34.625 31.78125 34.625 
z
M 21.921875 38.8125 
Q 15.578125 40.375 12.03125 44.71875 
Q 8.5 49.078125 8.5 55.328125 
Q 8.5 64.0625 14.71875 69.140625 
Q 20.953125 74.21875 31.78125 74.21875 
Q 42.671875 74.21875 48.875 69.140625 
Q 55.078125 64.0625 55.078125 55.328125 
Q 55.078125 49.078125 51.53125 44.71875 
Q 48 40.375 41.703125 38.8125 
Q 48.828125 37.15625 52.796875 32.3125 
Q 56.78125 27.484375 56.78125 20.515625 
Q 56.78125 9.90625 50.3125 4.234375 
Q 43.84375 -1.421875 31.78125 -1.421875 
Q 19.734375 -1.421875 13.25 4.234375 
Q 6.78125 9.90625 6.78125 20.515625 
Q 6.78125 27.484375 10.78125 32.3125 
Q 14.796875 37.15625 21.921875 38.8125 
z
M 18.3125 54.390625 
Q 18.3125 48.734375 21.84375 45.5625 
Q 25.390625 42.390625 31.78125 42.390625 
Q 38.140625 42.390625 41.71875 45.5625 
Q 45.3125 48.734375 45.3125 54.390625 
Q 45.3125 60.0625 41.71875 63.234375 
Q 38.140625 66.40625 31.78125 66.40625 
Q 25.390625 66.40625 21.84375 63.234375 
Q 18.3125 60.0625 18.3125 54.390625 
z
" id="DejaVuSans-56"/>
      </defs>
      <g transform="translate(25.155 70.972849)scale(0.16 -0.16)">
       <use xlink:href="#DejaVuSans-48"/>
       <use x="63.623047" xlink:href="#DejaVuSans-46"/>
       <use x="95.410156" xlink:href="#DejaVuSans-56"/>
      </g>
     </g>
    </g>
    <g id="ytick_6">
     <g id="line2d_31">
      <path clip-path="url(#p6cb1066113)" d="M 57.6 6.381624 
L 338.688 6.381624 
" style="fill:none;stroke:#b0b0b0;stroke-linecap:square;stroke-width:0.8;"/>
     </g>
     <g id="line2d_32">
      <g>
       <use style="stroke:#000000;stroke-width:0.8;" x="57.6" xlink:href="#m48fcccb38e" y="6.381624"/>
      </g>
     </g>
     <g id="text_11">
      <!-- 1.0 -->
      <g transform="translate(25.155 12.460374)scale(0.16 -0.16)">
       <use xlink:href="#DejaVuSans-49"/>
       <use x="63.623047" xlink:href="#DejaVuSans-46"/>
       <use x="95.410156" xlink:href="#DejaVuSans-48"/>
      </g>
     </g>
    </g>
    <g id="text_12">
     <!-- Fraction of function,target pairs -->
     <defs>
      <path d="M 9.8125 72.90625 
L 51.703125 72.90625 
L 51.703125 64.59375 
L 19.671875 64.59375 
L 19.671875 43.109375 
L 48.578125 43.109375 
L 48.578125 34.8125 
L 19.671875 34.8125 
L 19.671875 0 
L 9.8125 0 
z
" id="DejaVuSans-70"/>
      <path d="M 41.109375 46.296875 
Q 39.59375 47.171875 37.8125 47.578125 
Q 36.03125 48 33.890625 48 
Q 26.265625 48 22.1875 43.046875 
Q 18.109375 38.09375 18.109375 28.8125 
L 18.109375 0 
L 9.078125 0 
L 9.078125 54.6875 
L 18.109375 54.6875 
L 18.109375 46.1875 
Q 20.953125 51.171875 25.484375 53.578125 
Q 30.03125 56 36.53125 56 
Q 37.453125 56 38.578125 55.875 
Q 39.703125 55.765625 41.0625 55.515625 
z
" id="DejaVuSans-114"/>
      <path d="M 48.78125 52.59375 
L 48.78125 44.1875 
Q 44.96875 46.296875 41.140625 47.34375 
Q 37.3125 48.390625 33.40625 48.390625 
Q 24.65625 48.390625 19.8125 42.84375 
Q 14.984375 37.3125 14.984375 27.296875 
Q 14.984375 17.28125 19.8125 11.734375 
Q 24.65625 6.203125 33.40625 6.203125 
Q 37.3125 6.203125 41.140625 7.25 
Q 44.96875 8.296875 48.78125 10.40625 
L 48.78125 2.09375 
Q 45.015625 0.34375 40.984375 -0.53125 
Q 36.96875 -1.421875 32.421875 -1.421875 
Q 20.0625 -1.421875 12.78125 6.34375 
Q 5.515625 14.109375 5.515625 27.296875 
Q 5.515625 40.671875 12.859375 48.328125 
Q 20.21875 56 33.015625 56 
Q 37.15625 56 41.109375 55.140625 
Q 45.0625 54.296875 48.78125 52.59375 
z
" id="DejaVuSans-99"/>
      <path d="M 18.3125 70.21875 
L 18.3125 54.6875 
L 36.8125 54.6875 
L 36.8125 47.703125 
L 18.3125 47.703125 
L 18.3125 18.015625 
Q 18.3125 11.328125 20.140625 9.421875 
Q 21.96875 7.515625 27.59375 7.515625 
L 36.8125 7.515625 
L 36.8125 0 
L 27.59375 0 
Q 17.1875 0 13.234375 3.875 
Q 9.28125 7.765625 9.28125 18.015625 
L 9.28125 47.703125 
L 2.6875 47.703125 
L 2.6875 54.6875 
L 9.28125 54.6875 
L 9.28125 70.21875 
z
" id="DejaVuSans-116"/>
      <path d="M 8.5 21.578125 
L 8.5 54.6875 
L 17.484375 54.6875 
L 17.484375 21.921875 
Q 17.484375 14.15625 20.5 10.265625 
Q 23.53125 6.390625 29.59375 6.390625 
Q 36.859375 6.390625 41.078125 11.03125 
Q 45.3125 15.671875 45.3125 23.6875 
L 45.3125 54.6875 
L 54.296875 54.6875 
L 54.296875 0 
L 45.3125 0 
L 45.3125 8.40625 
Q 42.046875 3.421875 37.71875 1 
Q 33.40625 -1.421875 27.6875 -1.421875 
Q 18.265625 -1.421875 13.375 4.4375 
Q 8.5 10.296875 8.5 21.578125 
z
M 31.109375 56 
z
" id="DejaVuSans-117"/>
      <path d="M 11.71875 12.40625 
L 22.015625 12.40625 
L 22.015625 4 
L 14.015625 -11.625 
L 7.71875 -11.625 
L 11.71875 4 
z
" id="DejaVuSans-44"/>
      <path d="M 18.109375 8.203125 
L 18.109375 -20.796875 
L 9.078125 -20.796875 
L 9.078125 54.6875 
L 18.109375 54.6875 
L 18.109375 46.390625 
Q 20.953125 51.265625 25.265625 53.625 
Q 29.59375 56 35.59375 56 
Q 45.5625 56 51.78125 48.09375 
Q 58.015625 40.1875 58.015625 27.296875 
Q 58.015625 14.40625 51.78125 6.484375 
Q 45.5625 -1.421875 35.59375 -1.421875 
Q 29.59375 -1.421875 25.265625 0.953125 
Q 20.953125 3.328125 18.109375 8.203125 
z
M 48.6875 27.296875 
Q 48.6875 37.203125 44.609375 42.84375 
Q 40.53125 48.484375 33.40625 48.484375 
Q 26.265625 48.484375 22.1875 42.84375 
Q 18.109375 37.203125 18.109375 27.296875 
Q 18.109375 17.390625 22.1875 11.75 
Q 26.265625 6.109375 33.40625 6.109375 
Q 40.53125 6.109375 44.609375 11.75 
Q 48.6875 17.390625 48.6875 27.296875 
z
" id="DejaVuSans-112"/>
     </defs>
     <g transform="translate(17.619531 285.585)rotate(-90)scale(0.17 -0.17)">
      <use xlink:href="#DejaVuSans-70"/>
      <use x="50.269531" xlink:href="#DejaVuSans-114"/>
      <use x="91.382812" xlink:href="#DejaVuSans-97"/>
      <use x="152.662109" xlink:href="#DejaVuSans-99"/>
      <use x="207.642578" xlink:href="#DejaVuSans-116"/>
      <use x="246.851562" xlink:href="#DejaVuSans-105"/>
      <use x="274.634766" xlink:href="#DejaVuSans-111"/>
      <use x="335.816406" xlink:href="#DejaVuSans-110"/>
      <use x="399.195312" xlink:href="#DejaVuSans-32"/>
      <use x="430.982422" xlink:href="#DejaVuSans-111"/>
      <use x="492.164062" xlink:href="#DejaVuSans-102"/>
      <use x="527.369141" xlink:href="#DejaVuSans-32"/>
      <use x="559.15625" xlink:href="#DejaVuSans-102"/>
      <use x="594.361328" xlink:href="#DejaVuSans-117"/>
      <use x="657.740234" xlink:href="#DejaVuSans-110"/>
      <use x="721.119141" xlink:href="#DejaVuSans-99"/>
      <use x="776.099609" xlink:href="#DejaVuSans-116"/>
      <use x="815.308594" xlink:href="#DejaVuSans-105"/>
      <use x="843.091797" xlink:href="#DejaVuSans-111"/>
      <use x="904.273438" xlink:href="#DejaVuSans-110"/>
      <use x="967.652344" xlink:href="#DejaVuSans-44"/>
      <use x="999.439453" xlink:href="#DejaVuSans-116"/>
      <use x="1038.648438" xlink:href="#DejaVuSans-97"/>
      <use x="1099.927734" xlink:href="#DejaVuSans-114"/>
      <use x="1139.291016" xlink:href="#DejaVuSans-103"/>
      <use x="1202.767578" xlink:href="#DejaVuSans-101"/>
      <use x="1264.291016" xlink:href="#DejaVuSans-116"/>
      <use x="1303.5" xlink:href="#DejaVuSans-32"/>
      <use x="1335.287109" xlink:href="#DejaVuSans-112"/>
      <use x="1398.763672" xlink:href="#DejaVuSans-97"/>
      <use x="1460.042969" xlink:href="#DejaVuSans-105"/>
      <use x="1487.826172" xlink:href="#DejaVuSans-114"/>
      <use x="1528.939453" xlink:href="#DejaVuSans-115"/>
     </g>
    </g>
   </g>
   <g id="line2d_33">
    <defs>
     <path d="M 0 1.5 
C 0.397805 1.5 0.77937 1.341951 1.06066 1.06066 
C 1.341951 0.77937 1.5 0.397805 1.5 0 
C 1.5 -0.397805 1.341951 -0.77937 1.06066 -1.06066 
C 0.77937 -1.341951 0.397805 -1.5 0 -1.5 
C -0.397805 -1.5 -0.77937 -1.341951 -1.06066 -1.06066 
C -1.341951 -0.77937 -1.5 -0.397805 -1.5 0 
C -1.5 0.397805 -1.341951 0.77937 -1.06066 1.06066 
C -0.77937 1.341951 -0.397805 1.5 0 1.5 
z
" id="m1b6667ccbf" style="stroke:#f5deb3;"/>
    </defs>
    <g>
     <use style="fill:#f5deb3;stroke:#f5deb3;" x="142.351634" xlink:href="#m1b6667ccbf" y="6.381624"/>
     <use style="fill:#f5deb3;stroke:#f5deb3;" x="142.351634" xlink:href="#m1b6667ccbf" y="6.381624"/>
    </g>
   </g>
   <g id="line2d_34">
    <defs>
     <path d="M 0 1.5 
C 0.397805 1.5 0.77937 1.341951 1.06066 1.06066 
C 1.341951 0.77937 1.5 0.397805 1.5 0 
C 1.5 -0.397805 1.341951 -0.77937 1.06066 -1.06066 
C 0.77937 -1.341951 0.397805 -1.5 0 -1.5 
C -0.397805 -1.5 -0.77937 -1.341951 -1.06066 -1.06066 
C -1.341951 -0.77937 -1.5 -0.397805 -1.5 0 
C -1.5 0.397805 -1.341951 0.77937 -1.06066 1.06066 
C -0.77937 1.341951 -0.397805 1.5 0 1.5 
z
" id="m85b56ae612" style="stroke:#000080;"/>
    </defs>
    <g>
     <use style="fill:#000080;stroke:#000080;" x="173.878023" xlink:href="#m85b56ae612" y="218.632759"/>
     <use style="fill:#000080;stroke:#000080;" x="173.878023" xlink:href="#m85b56ae612" y="218.632759"/>
    </g>
   </g>
   <g id="line2d_35">
    <path d="M 45.512012 298.944 
L 45.512012 295.645503 
L 57.6 295.645503 
L 57.6 292.203592 
L 64.67102 292.203592 
L 64.67102 287.470966 
L 69.687988 287.470966 
L 69.687988 286.323662 
L 73.579452 286.323662 
L 73.579452 283.885642 
L 76.759008 283.885642 
L 76.759008 278.435951 
L 79.447285 278.435951 
L 79.447285 273.846737 
L 81.775977 273.846737 
L 81.775977 273.559911 
L 83.830028 273.559911 
L 83.830028 271.408718 
L 85.66744 271.408718 
L 85.66744 268.970698 
L 87.329581 268.970698 
L 87.329581 267.10633 
L 88.846997 267.10633 
L 88.846997 264.811723 
L 90.242884 264.811723 
L 90.242884 262.23029 
L 91.535274 262.23029 
L 91.535274 259.075206 
L 92.73846 259.075206 
L 92.73846 257.784489 
L 93.863965 257.784489 
L 93.863965 256.493773 
L 94.921215 256.493773 
L 94.921215 255.776708 
L 95.918017 255.776708 
L 95.918017 254.772818 
L 96.86091 254.772818 
L 96.86091 254.055753 
L 97.755429 254.055753 
L 97.755429 252.191385 
L 98.606294 252.191385 
L 98.606294 250.900669 
L 99.41757 250.900669 
L 99.41757 249.466539 
L 100.192776 249.466539 
L 100.192776 247.602171 
L 100.934985 247.602171 
L 100.934985 246.885107 
L 101.646892 246.885107 
L 101.646892 245.881216 
L 103.623262 245.881216 
L 103.623262 244.5905 
L 104.23523 244.5905 
L 104.23523 244.447087 
L 105.398279 244.447087 
L 105.398279 243.873435 
L 105.951954 243.873435 
L 105.951954 243.586609 
L 108.006005 243.586609 
L 108.006005 243.443196 
L 108.483824 243.443196 
L 108.483824 243.012957 
L 109.401893 243.012957 
L 109.401893 242.726132 
L 109.843417 242.726132 
L 109.843417 242.582719 
L 110.694282 242.582719 
L 110.694282 242.15248 
L 111.104637 242.15248 
L 111.104637 242.009067 
L 111.505558 242.009067 
L 111.505558 241.865654 
L 111.897469 241.865654 
L 111.897469 241.148589 
L 112.280765 241.148589 
L 112.280765 241.005176 
L 112.655818 241.005176 
L 112.655818 240.431525 
L 113.022974 240.431525 
L 113.022974 239.427634 
L 113.382559 239.427634 
L 113.382559 239.140808 
L 114.751048 239.140808 
L 114.751048 238.567157 
L 115.397021 238.567157 
L 115.397021 238.423744 
L 115.711251 238.423744 
L 115.711251 238.136918 
L 117.486268 238.136918 
L 117.486268 237.563266 
L 118.838828 237.563266 
L 118.838828 237.419853 
L 119.602714 237.419853 
L 119.602714 237.133027 
L 120.093994 237.133027 
L 120.093994 236.702789 
L 120.33454 236.702789 
L 120.33454 235.698898 
L 120.571812 235.698898 
L 120.571812 235.268659 
L 121.489881 235.268659 
L 121.489881 234.838421 
L 122.148045 234.838421 
L 122.148045 234.264769 
L 122.782271 234.264769 
L 122.782271 234.121356 
L 123.394238 234.121356 
L 123.394238 233.691117 
L 124.557288 233.691117 
L 124.557288 233.547704 
L 124.92835 233.547704 
L 124.92835 233.404291 
L 125.110962 233.404291 
L 125.110962 233.260878 
L 125.470548 233.260878 
L 125.470548 232.543814 
L 125.647598 232.543814 
L 125.647598 232.113575 
L 126.839037 232.113575 
L 126.839037 231.970162 
L 127.799239 231.970162 
L 127.799239 231.826749 
L 128.107907 231.826749 
L 128.107907 231.683336 
L 129.002426 231.683336 
L 129.002426 231.539923 
L 129.147151 231.539923 
L 129.147151 231.39651 
L 129.290685 231.39651 
L 129.290685 231.109684 
L 129.433047 231.109684 
L 129.433047 230.966271 
L 132.30267 230.966271 
L 132.30267 230.679446 
L 132.541568 230.679446 
L 132.541568 230.536033 
L 132.659801 230.536033 
L 132.659801 230.249207 
L 132.777237 230.249207 
L 132.777237 229.818968 
L 134.236034 229.818968 
L 134.236034 229.675555 
L 134.450015 229.675555 
L 134.55603 229.388729 
L 134.870259 229.388729 
L 134.870259 229.245316 
L 135.076644 229.245316 
L 135.178927 228.815077 
L 135.381712 228.815077 
L 135.482227 228.098013 
L 135.878591 228.098013 
L 135.878591 227.9546 
L 137.469333 227.9546 
L 137.469333 227.667774 
L 137.735587 227.667774 
L 137.823442 227.237535 
L 139.333553 227.237535 
L 139.333553 227.094122 
L 139.572998 227.094122 
L 139.572998 226.950709 
L 139.8092 226.950709 
L 139.887228 226.663884 
L 141.45 226.663884 
L 141.45 226.520471 
L 141.591783 226.520471 
L 141.662245 226.090232 
L 141.732423 226.090232 
L 141.732423 225.946819 
L 143.144465 225.946819 
L 143.144465 225.803406 
L 143.273169 225.803406 
L 143.337167 225.373167 
L 144.865226 225.373167 
L 144.923649 224.799515 
L 145.155404 224.799515 
L 145.155404 224.656103 
L 145.327221 224.656103 
L 145.327221 224.51269 
L 146.270114 224.51269 
L 146.270114 224.225864 
L 147.52003 224.225864 
L 147.52003 224.082451 
L 147.96658 224.082451 
L 147.96658 223.939038 
L 148.780082 223.939038 
L 148.780082 223.795625 
L 149.15016 223.795625 
L 149.15016 223.652212 
L 149.779481 223.652212 
L 149.779481 223.508799 
L 149.911431 223.508799 
L 149.955193 223.221973 
L 151.015013 223.221973 
L 151.015013 222.935147 
L 151.975216 222.935147 
L 151.975216 222.791734 
L 152.283884 222.791734 
L 152.283884 222.648321 
L 153.214697 222.648321 
L 153.214697 222.504909 
L 153.785358 222.504909 
L 153.820412 222.218083 
L 154.098334 222.218083 
L 154.098334 222.07467 
L 154.674612 222.07467 
L 154.674612 221.931257 
L 155.457066 221.931257 
L 155.457066 221.787844 
L 156.175347 221.787844 
L 156.266892 221.357605 
L 157.011638 221.357605 
L 157.040776 220.783953 
L 157.641697 220.783953 
L 157.641697 220.64054 
L 160.513841 220.64054 
L 160.513841 220.497128 
L 160.914762 220.497128 
L 160.914762 220.353715 
L 161.488097 220.353715 
L 161.488097 220.210302 
L 162.043181 220.210302 
L 162.043181 219.923476 
L 162.217141 219.923476 
L 162.217141 219.780063 
L 163.103002 219.780063 
L 163.103002 219.63665 
L 164.256762 219.63665 
L 164.256762 219.493237 
L 164.562052 219.493237 
L 164.580957 219.062998 
L 165.943384 219.062998 
L 165.943384 218.919585 
L 170.526891 218.919585 
L 170.526891 218.776172 
L 173.878023 218.776172 
L 173.878023 218.632759 
L 338.688 218.632759 
L 338.688 218.632759 
" style="fill:none;stroke:#000080;stroke-linecap:square;stroke-width:1.5;"/>
   </g>
   <g id="line2d_36">
    <defs>
     <path d="M 0 6 
C 1.591219 6 3.117479 5.367802 4.242641 4.242641 
C 5.367802 3.117479 6 1.591219 6 0 
C 6 -1.591219 5.367802 -3.117479 4.242641 -4.242641 
C 3.117479 -5.367802 1.591219 -6 0 -6 
C -1.591219 -6 -3.117479 -5.367802 -4.242641 -4.242641 
C -5.367802 -3.117479 -6 -1.591219 -6 0 
C -6 1.591219 -5.367802 3.117479 -4.242641 4.242641 
C -3.117479 5.367802 -1.591219 6 0 6 
z
" id="m3355e3c51c" style="stroke:#000080;stroke-width:1.5;"/>
    </defs>
    <g>
     <use style="fill-opacity:0;stroke:#000080;stroke-width:1.5;" x="120.571812" xlink:href="#m3355e3c51c" y="235.268659"/>
     <use style="fill-opacity:0;stroke:#000080;stroke-width:1.5;" x="173.878023" xlink:href="#m3355e3c51c" y="218.776172"/>
     <use style="fill-opacity:0;stroke:#000080;stroke-width:1.5;" x="173.878023" xlink:href="#m3355e3c51c" y="218.632759"/>
     <use style="fill-opacity:0;stroke:#000080;stroke-width:1.5;" x="173.878023" xlink:href="#m3355e3c51c" y="218.632759"/>
     <use style="fill-opacity:0;stroke:#000080;stroke-width:1.5;" x="173.878023" xlink:href="#m3355e3c51c" y="218.632759"/>
     <use style="fill-opacity:0;stroke:#000080;stroke-width:1.5;" x="338.688" xlink:href="#m3355e3c51c" y="218.632759"/>
    </g>
   </g>
   <g id="line2d_37">
    <path style="fill:none;stroke:#000080;stroke-linecap:square;stroke-width:1.5;"/>
    <g/>
   </g>
   <g id="line2d_38">
    <path clip-path="url(#p6cb1066113)" d="M 101.646892 245.881216 
" style="fill:none;stroke:#000080;stroke-linecap:square;stroke-width:1.5;"/>
    <defs>
     <path d="M -12 12 
L 12 -12 
M -12 -12 
L 12 12 
" id="m999c2016b4" style="stroke:#000080;"/>
    </defs>
    <g clip-path="url(#p6cb1066113)">
     <use style="fill:#000080;stroke:#000080;" x="101.646892" xlink:href="#m999c2016b4" y="245.881216"/>
    </g>
   </g>
   <g id="line2d_39">
    <defs>
     <path d="M 0 1.5 
C 0.397805 1.5 0.77937 1.341951 1.06066 1.06066 
C 1.341951 0.77937 1.5 0.397805 1.5 0 
C 1.5 -0.397805 1.341951 -0.77937 1.06066 -1.06066 
C 0.77937 -1.341951 0.397805 -1.5 0 -1.5 
C -0.397805 -1.5 -0.77937 -1.341951 -1.06066 -1.06066 
C -1.341951 -0.77937 -1.5 -0.397805 -1.5 0 
C -1.5 0.397805 -1.341951 0.77937 -1.06066 1.06066 
C -0.77937 1.341951 -0.397805 1.5 0 1.5 
z
" id="mb5e6470a4d" style="stroke:#ff00ff;"/>
    </defs>
    <g>
     <use style="fill:#ff00ff;stroke:#ff00ff;" x="226.213218" xlink:href="#mb5e6470a4d" y="52.273761"/>
     <use style="fill:#ff00ff;stroke:#ff00ff;" x="226.213218" xlink:href="#mb5e6470a4d" y="52.273761"/>
    </g>
   </g>
   <g id="line2d_40">
    <path d="M 45.512012 298.944 
L 45.512012 282.451513 
L 85.66744 282.451513 
L 85.66744 282.021274 
L 87.329581 282.021274 
L 87.329581 281.160797 
L 88.846997 281.160797 
L 88.846997 280.300319 
L 91.535274 280.300319 
L 91.535274 280.156906 
L 93.863965 280.156906 
L 93.863965 280.013493 
L 96.86091 280.013493 
L 96.86091 279.583255 
L 97.755429 279.583255 
L 97.755429 279.153016 
L 98.606294 279.153016 
L 98.606294 278.722777 
L 99.41757 278.722777 
L 99.41757 277.288648 
L 100.192776 277.288648 
L 100.192776 275.567692 
L 100.934985 275.567692 
L 100.934985 273.99015 
L 101.646892 273.99015 
L 101.646892 270.118001 
L 102.330873 270.118001 
L 102.330873 267.966807 
L 102.989037 267.966807 
L 102.989037 266.245852 
L 103.623262 266.245852 
L 103.623262 265.959026 
L 104.826449 265.959026 
L 104.826449 265.815613 
L 105.398279 265.815613 
L 105.398279 264.811723 
L 105.951954 264.811723 
L 105.951954 264.094658 
L 106.48859 264.094658 
L 106.48859 260.222509 
L 107.009204 260.222509 
L 107.009204 257.497663 
L 107.514726 257.497663 
L 107.514726 256.493773 
L 108.006005 256.493773 
L 108.006005 254.772818 
L 108.483824 254.772818 
L 108.483824 254.055753 
L 108.948899 254.055753 
L 108.948899 252.334798 
L 109.401893 252.334798 
L 109.401893 251.761146 
L 109.843417 251.761146 
L 109.843417 250.040191 
L 110.274038 250.040191 
L 110.274038 248.749475 
L 110.694282 248.749475 
L 110.694282 248.03241 
L 111.104637 248.03241 
L 111.104637 247.458758 
L 111.897469 247.458758 
L 111.897469 247.171932 
L 112.280765 247.171932 
L 112.280765 246.311455 
L 112.655818 246.311455 
L 112.655818 246.024629 
L 113.022974 246.024629 
L 113.022974 245.450977 
L 113.382559 245.450977 
L 113.382559 245.164151 
L 113.73488 245.164151 
L 113.73488 244.877326 
L 114.080224 244.877326 
L 114.080224 244.733913 
L 114.418861 244.733913 
L 114.418861 244.5905 
L 115.077025 244.5905 
L 115.077025 242.726132 
L 115.397021 242.726132 
L 115.397021 242.15248 
L 115.711251 242.15248 
L 115.711251 242.009067 
L 116.019919 242.009067 
L 116.019919 241.865654 
L 116.323218 241.865654 
L 116.323218 241.578828 
L 116.621333 241.578828 
L 116.621333 241.148589 
L 116.914437 241.148589 
L 116.914437 240.861764 
L 117.202696 240.861764 
L 117.202696 240.574938 
L 117.765302 240.574938 
L 117.765302 240.431525 
L 118.310324 240.431525 
L 118.310324 240.144699 
L 118.838828 240.144699 
L 118.838828 239.140808 
L 119.097192 239.140808 
L 119.097192 238.71057 
L 119.602714 238.71057 
L 119.602714 238.136918 
L 119.850084 238.136918 
L 119.850084 237.850092 
L 120.093994 237.850092 
L 120.093994 237.706679 
L 120.33454 237.706679 
L 120.33454 236.846202 
L 120.571812 236.846202 
L 120.571812 236.702789 
L 120.8059 236.702789 
L 120.8059 235.268659 
L 121.036887 235.268659 
L 121.036887 234.695008 
L 121.264855 234.695008 
L 121.264855 234.408182 
L 121.489881 234.408182 
L 121.489881 233.977943 
L 121.712041 233.977943 
L 121.712041 233.404291 
L 121.931406 233.404291 
L 121.931406 232.543814 
L 122.148045 232.543814 
L 122.148045 232.113575 
L 122.362027 232.113575 
L 122.362027 231.826749 
L 122.573415 231.826749 
L 122.573415 231.109684 
L 122.782271 231.109684 
L 122.782271 229.962381 
L 122.988655 229.962381 
L 122.988655 229.532142 
L 123.192626 229.532142 
L 123.192626 228.241426 
L 123.394238 228.241426 
L 123.394238 227.9546 
L 123.593547 227.9546 
L 123.593547 226.090232 
L 123.790603 226.090232 
L 123.790603 224.51269 
L 123.985457 224.51269 
L 123.985457 223.508799 
L 124.178158 223.508799 
L 124.178158 222.504909 
L 124.368753 222.504909 
L 124.368753 221.214192 
L 124.557288 221.214192 
L 124.557288 219.780063 
L 124.743806 219.780063 
L 124.743806 217.342043 
L 124.92835 217.342043 
L 124.92835 216.624978 
L 125.110962 216.624978 
L 125.110962 215.621088 
L 125.291682 215.621088 
L 125.291682 214.76061 
L 125.470548 214.76061 
L 125.470548 214.043546 
L 125.647598 214.043546 
L 125.647598 212.179178 
L 125.822869 212.179178 
L 125.822869 209.884571 
L 125.996395 209.884571 
L 125.996395 208.163616 
L 126.168212 208.163616 
L 126.168212 207.446551 
L 126.338353 207.446551 
L 126.338353 205.43877 
L 126.50685 205.43877 
L 126.50685 204.004641 
L 126.673734 204.004641 
L 126.673734 201.853447 
L 126.839037 201.853447 
L 126.839037 199.272014 
L 127.002787 199.272014 
L 127.002787 197.551059 
L 127.165014 197.551059 
L 127.165014 196.403755 
L 127.325746 196.403755 
L 127.325746 192.675019 
L 127.48501 192.675019 
L 127.48501 191.384303 
L 127.642832 191.384303 
L 127.642832 189.233109 
L 127.799239 189.233109 
L 127.799239 187.512154 
L 127.954256 187.512154 
L 127.954256 185.217547 
L 128.107907 185.217547 
L 128.107907 184.787308 
L 128.260216 184.787308 
L 128.260216 183.783418 
L 128.411207 183.783418 
L 128.411207 183.496592 
L 128.560901 183.496592 
L 128.560901 179.767856 
L 128.709321 179.767856 
L 128.709321 178.190313 
L 128.856489 178.190313 
L 128.856489 177.04301 
L 129.002426 177.04301 
L 129.002426 174.60499 
L 129.147151 174.60499 
L 129.147151 173.314274 
L 129.290685 173.314274 
L 129.290685 171.019667 
L 129.433047 171.019667 
L 129.433047 169.585538 
L 129.574256 169.585538 
L 129.574256 166.430453 
L 129.714332 166.430453 
L 129.714332 163.418782 
L 129.853291 163.418782 
L 129.853291 161.697826 
L 129.991152 161.697826 
L 129.991152 160.40711 
L 130.127931 160.40711 
L 130.127931 157.252026 
L 130.263646 157.252026 
L 130.263646 153.953528 
L 130.398313 153.953528 
L 130.398313 151.945747 
L 130.531948 151.945747 
L 130.531948 149.937966 
L 130.664567 149.937966 
L 130.664567 146.496056 
L 130.796184 146.496056 
L 130.796184 143.77121 
L 130.926816 143.77121 
L 130.926816 141.620016 
L 131.056477 141.620016 
L 131.056477 140.042474 
L 131.185181 140.042474 
L 131.185181 137.747867 
L 131.312942 137.747867 
L 131.312942 136.313738 
L 131.439773 136.313738 
L 131.439773 134.879609 
L 131.565689 134.879609 
L 131.565689 133.588892 
L 131.690703 133.588892 
L 131.690703 132.441589 
L 131.814826 132.441589 
L 131.814826 130.146982 
L 131.938072 130.146982 
L 131.938072 129.716743 
L 132.060454 129.716743 
L 132.060454 128.139201 
L 132.181982 128.139201 
L 132.181982 127.422136 
L 132.30267 127.422136 
L 132.30267 126.13142 
L 132.422528 126.13142 
L 132.422528 125.127529 
L 132.541568 125.127529 
L 132.541568 123.549987 
L 132.659801 123.549987 
L 132.659801 120.968554 
L 132.777237 120.968554 
L 132.777237 120.108077 
L 132.893889 120.108077 
L 132.893889 118.387122 
L 133.009765 118.387122 
L 133.009765 117.383231 
L 133.124876 117.383231 
L 133.124876 115.088624 
L 133.239232 115.088624 
L 133.239232 114.514973 
L 133.352844 114.514973 
L 133.352844 112.794017 
L 133.46572 112.794017 
L 133.46572 112.076953 
L 133.57787 112.076953 
L 133.57787 111.359888 
L 133.689303 111.359888 
L 133.800029 107.344326 
L 133.910056 107.344326 
L 134.019394 106.483849 
L 134.12805 106.483849 
L 134.236034 104.189242 
L 134.343353 104.189242 
L 134.450015 101.17757 
L 134.55603 101.17757 
L 134.661403 100.317093 
L 134.766144 100.317093 
L 134.870259 97.879073 
L 134.973757 97.879073 
L 135.076644 96.588356 
L 135.178927 96.588356 
L 135.280614 95.29764 
L 135.381712 95.29764 
L 135.482227 94.723988 
L 135.582166 94.723988 
L 135.681535 94.150337 
L 135.780341 94.150337 
L 135.878591 93.003033 
L 135.97629 93.003033 
L 136.073445 92.285969 
L 136.170062 92.285969 
L 136.266147 91.282078 
L 136.361705 91.282078 
L 136.456742 89.847949 
L 136.551264 89.847949 
L 136.645276 88.557232 
L 136.738785 88.557232 
L 136.831795 87.983581 
L 136.924311 87.983581 
L 137.016339 87.553342 
L 137.107884 87.553342 
L 137.198951 87.266516 
L 137.289545 87.266516 
L 137.37967 86.549451 
L 137.469333 86.549451 
L 137.558536 85.545561 
L 137.647286 85.545561 
L 137.647286 84.685083 
L 137.823442 84.685083 
L 137.910857 84.111432 
L 138.170504 84.111432 
L 138.256201 83.824606 
L 138.341479 83.824606 
L 138.426341 82.964128 
L 138.761723 82.964128 
L 138.84457 81.816825 
L 138.927025 81.816825 
L 139.009092 81.529999 
L 139.172077 81.529999 
L 139.172077 81.386586 
L 139.493548 81.386586 
L 139.493548 81.09976 
L 139.652088 81.09976 
L 139.730821 80.382695 
L 140.042245 80.382695 
L 140.11924 79.665631 
L 140.272217 79.665631 
L 140.272217 79.378805 
L 140.499195 79.378805 
L 140.574203 79.091979 
L 140.723258 79.091979 
L 140.79731 78.66174 
L 140.944478 78.66174 
L 141.017599 78.231501 
L 141.090414 78.231501 
L 141.162927 76.940785 
L 141.235139 76.940785 
L 141.307054 76.653959 
L 141.521035 76.653959 
L 141.521035 75.650069 
L 142.010346 75.650069 
L 142.07914 75.21983 
L 142.147664 75.21983 
L 142.215919 74.502765 
L 142.419098 74.502765 
L 142.419098 74.359352 
L 142.553247 74.359352 
L 142.553247 74.215939 
L 142.686372 74.215939 
L 142.686372 73.642288 
L 142.818488 73.642288 
L 142.818488 73.498875 
L 143.208936 73.498875 
L 143.208936 72.638397 
L 143.337167 72.638397 
L 143.337167 72.494984 
L 143.653678 72.494984 
L 143.653678 72.351571 
L 143.778691 72.351571 
L 143.778691 71.921333 
L 143.902815 71.921333 
L 143.964547 71.204268 
L 144.747789 71.204268 
L 144.747789 70.917442 
L 145.384119 70.917442 
L 145.384119 70.774029 
L 145.553708 70.774029 
L 145.553708 69.913552 
L 145.888018 69.913552 
L 145.888018 68.909661 
L 146.161795 68.909661 
L 146.161795 68.766248 
L 146.591092 68.766248 
L 146.591092 68.622835 
L 147.96658 68.622835 
L 147.96658 68.479422 
L 150.129152 68.479422 
L 150.129152 68.336009 
L 150.724698 68.336009 
L 150.724698 68.192596 
L 150.891184 68.192596 
L 150.891184 68.049183 
L 151.097081 68.049183 
L 151.097081 67.905771 
L 151.260066 67.905771 
L 151.260066 67.618945 
L 152.283884 67.618945 
L 152.283884 67.475532 
L 152.922207 67.475532 
L 152.922207 67.332119 
L 153.105587 67.332119 
L 153.105587 67.188706 
L 153.287059 67.188706 
L 153.323128 66.90188 
L 153.994632 66.90188 
L 154.029268 66.615054 
L 155.928852 66.615054 
L 155.928852 66.471641 
L 156.052535 66.471641 
L 156.052535 66.184815 
L 156.236431 66.184815 
L 156.236431 66.041402 
L 156.357959 66.041402 
L 156.38821 65.754577 
L 156.568618 65.754577 
L 156.628341 65.467751 
L 157.011638 65.467751 
L 157.011638 65.324338 
L 158.412011 65.324338 
L 158.412011 65.180925 
L 158.75841 65.180925 
L 158.784773 64.894099 
L 158.889829 64.894099 
L 158.889829 64.750686 
L 159.123917 64.750686 
L 159.123917 64.607273 
L 159.354904 64.607273 
L 159.354904 64.46386 
L 159.481921 64.46386 
L 159.481921 64.320447 
L 159.783038 64.320447 
L 159.783038 64.177034 
L 160.321935 64.177034 
L 160.394148 63.890209 
L 160.489968 63.890209 
L 160.56149 63.45997 
L 160.844678 63.45997 
L 160.844678 63.316557 
L 163.729146 63.316557 
L 163.729146 63.173144 
L 163.946031 63.173144 
L 164.024234 62.886318 
L 164.543127 62.886318 
L 164.543127 62.742905 
L 165.518877 62.742905 
L 165.518877 62.599492 
L 167.288118 62.599492 
L 167.336582 62.169253 
L 168.063324 62.169253 
L 168.063324 62.02584 
L 168.521475 62.02584 
L 168.521475 61.882427 
L 168.909031 61.882427 
L 168.909031 61.739015 
L 169.545889 61.739015 
L 169.545889 61.595602 
L 170.160306 61.595602 
L 170.160306 61.452189 
L 170.567151 61.452189 
L 170.620687 61.165363 
L 171.846131 61.165363 
L 171.846131 61.02195 
L 172.093501 61.02195 
L 172.093501 60.878537 
L 172.744386 60.878537 
L 172.744386 60.735124 
L 173.00275 60.735124 
L 173.107351 60.304885 
L 173.257343 60.304885 
L 173.31469 60.018059 
L 173.654869 60.018059 
L 173.654869 59.874646 
L 173.922314 59.874646 
L 173.999552 59.587821 
L 174.15301 59.587821 
L 174.15301 59.444408 
L 174.434469 59.444408 
L 174.434469 59.300995 
L 175.476552 59.300995 
L 175.476552 59.157582 
L 175.62763 59.157582 
L 175.707673 58.727343 
L 175.797284 58.727343 
L 175.797284 58.440517 
L 177.07051 58.440517 
L 177.07051 58.297104 
L 177.290683 58.297104 
L 177.290683 58.153691 
L 177.454007 58.153691 
L 177.454007 58.010278 
L 177.820411 58.010278 
L 177.820411 57.866865 
L 179.327506 57.866865 
L 179.327506 57.723453 
L 179.464856 57.723453 
L 179.464856 57.58004 
L 180.128086 57.58004 
L 180.128086 57.436627 
L 180.654624 57.436627 
L 180.654624 57.293214 
L 181.576933 57.293214 
L 181.576933 57.149801 
L 182.675235 57.149801 
L 182.675235 57.006388 
L 184.076786 57.006388 
L 184.126136 56.719562 
L 184.938532 56.719562 
L 185.014801 56.289323 
L 187.134425 56.289323 
L 187.134425 56.14591 
L 187.790669 56.14591 
L 187.790669 56.002497 
L 187.949706 56.002497 
L 187.949706 55.859084 
L 188.141592 55.859084 
L 188.229447 55.428846 
L 188.681193 55.428846 
L 188.681193 55.285433 
L 188.926157 55.285433 
L 188.926157 55.14202 
L 189.6859 55.14202 
L 189.6859 54.998607 
L 190.018593 54.998607 
L 190.018593 54.855194 
L 190.669758 54.855194 
L 190.716258 54.568368 
L 191.285229 54.568368 
L 191.285229 54.424955 
L 192.056526 54.424955 
L 192.056526 54.281542 
L 192.674828 54.281542 
L 192.674828 54.138129 
L 193.725419 54.138129 
L 193.725419 53.994716 
L 194.301947 53.994716 
L 194.301947 53.851303 
L 195.342611 53.851303 
L 195.342611 53.707891 
L 198.478401 53.707891 
L 198.478401 53.564478 
L 198.792051 53.564478 
L 198.792051 53.421065 
L 199.833666 53.421065 
L 199.833666 53.277652 
L 200.39516 53.277652 
L 200.39516 53.134239 
L 201.37984 53.134239 
L 201.37984 52.990826 
L 203.393635 52.990826 
L 203.393635 52.847413 
L 208.249674 52.847413 
L 208.249674 52.704 
L 208.922363 52.704 
L 208.922363 52.560587 
L 209.763742 52.560587 
L 209.763742 52.417174 
L 226.213218 52.417174 
L 226.213218 52.273761 
L 338.688 52.273761 
L 338.688 52.273761 
" style="fill:none;stroke:#ff00ff;stroke-linecap:square;stroke-width:1.5;"/>
   </g>
   <g id="line2d_41">
    <defs>
     <path d="M -0 8.485281 
L 5.091169 0 
L 0 -8.485281 
L -5.091169 -0 
z
" id="m23ecc8e67f" style="stroke:#ff00ff;stroke-linejoin:miter;stroke-width:1.5;"/>
    </defs>
    <g>
     <use style="fill-opacity:0;stroke:#ff00ff;stroke-linejoin:miter;stroke-width:1.5;" x="120.33454" xlink:href="#m23ecc8e67f" y="237.706679"/>
     <use style="fill-opacity:0;stroke:#ff00ff;stroke-linejoin:miter;stroke-width:1.5;" x="141.090414" xlink:href="#m23ecc8e67f" y="78.231501"/>
     <use style="fill-opacity:0;stroke:#ff00ff;stroke-linejoin:miter;stroke-width:1.5;" x="209.763742" xlink:href="#m23ecc8e67f" y="52.417174"/>
     <use style="fill-opacity:0;stroke:#ff00ff;stroke-linejoin:miter;stroke-width:1.5;" x="226.213218" xlink:href="#m23ecc8e67f" y="52.273761"/>
     <use style="fill-opacity:0;stroke:#ff00ff;stroke-linejoin:miter;stroke-width:1.5;" x="226.213218" xlink:href="#m23ecc8e67f" y="52.273761"/>
     <use style="fill-opacity:0;stroke:#ff00ff;stroke-linejoin:miter;stroke-width:1.5;" x="338.688" xlink:href="#m23ecc8e67f" y="52.273761"/>
    </g>
   </g>
   <g id="line2d_42">
    <path style="fill:none;stroke:#ff00ff;stroke-linecap:square;stroke-width:1.5;"/>
    <g/>
   </g>
   <g id="line2d_43">
    <path clip-path="url(#p6cb1066113)" d="M 150.808139 68.192596 
" style="fill:none;stroke:#ff00ff;stroke-linecap:square;stroke-width:1.5;"/>
    <defs>
     <path d="M -12 12 
L 12 -12 
M -12 -12 
L 12 12 
" id="m4ef6189cbc" style="stroke:#ff00ff;"/>
    </defs>
    <g clip-path="url(#p6cb1066113)">
     <use style="fill:#ff00ff;stroke:#ff00ff;" x="150.808139" xlink:href="#m4ef6189cbc" y="68.192596"/>
    </g>
   </g>
   <g id="line2d_44">
    <path d="M 338.688 218.632759 
L 369.60768 293.092752 
" style="fill:none;stroke:#000080;stroke-linecap:square;stroke-width:1.5;"/>
    <g>
     <use style="fill-opacity:0;stroke:#000080;stroke-width:1.5;" x="338.688" xlink:href="#m3355e3c51c" y="218.632759"/>
     <use style="fill-opacity:0;stroke:#000080;stroke-width:1.5;" x="369.60768" xlink:href="#m3355e3c51c" y="293.092752"/>
    </g>
   </g>
   <g id="line2d_45">
    <path d="M 338.688 52.273761 
L 369.60768 152.662812 
" style="fill:none;stroke:#ff00ff;stroke-linecap:square;stroke-width:1.5;"/>
    <g>
     <use style="fill-opacity:0;stroke:#ff00ff;stroke-linejoin:miter;stroke-width:1.5;" x="338.688" xlink:href="#m23ecc8e67f" y="52.273761"/>
     <use style="fill-opacity:0;stroke:#ff00ff;stroke-linejoin:miter;stroke-width:1.5;" x="369.60768" xlink:href="#m23ecc8e67f" y="152.662812"/>
    </g>
   </g>
   <g id="line2d_46">
    <path d="M 338.688 298.944 
L 338.688 6.381624 
" style="fill:none;stroke:#000000;stroke-linecap:square;stroke-width:1.5;"/>
   </g>
   <g id="patch_3">
    <path d="M 57.6 298.944 
L 57.6 3.456 
" style="fill:none;stroke:#000000;stroke-linecap:square;stroke-linejoin:miter;stroke-width:0.8;"/>
   </g>
   <g id="patch_4">
    <path d="M 338.688 298.944 
L 338.688 3.456 
" style="fill:none;stroke:#000000;stroke-linecap:square;stroke-linejoin:miter;stroke-width:0.8;"/>
   </g>
   <g id="patch_5">
    <path d="M 57.6 298.944 
L 338.688 298.944 
" style="fill:none;stroke:#000000;stroke-linecap:square;stroke-linejoin:miter;stroke-width:0.8;"/>
   </g>
   <g id="patch_6">
    <path d="M 57.6 3.456 
L 338.688 3.456 
" style="fill:none;stroke:#000000;stroke-linecap:square;stroke-linejoin:miter;stroke-width:0.8;"/>
   </g>
   <g id="text_13">
    <!-- gpy lcb -->
    <defs>
     <path d="M 32.171875 -5.078125 
Q 28.375 -14.84375 24.75 -17.8125 
Q 21.140625 -20.796875 15.09375 -20.796875 
L 7.90625 -20.796875 
L 7.90625 -13.28125 
L 13.1875 -13.28125 
Q 16.890625 -13.28125 18.9375 -11.515625 
Q 21 -9.765625 23.484375 -3.21875 
L 25.09375 0.875 
L 2.984375 54.6875 
L 12.5 54.6875 
L 29.59375 11.921875 
L 46.6875 54.6875 
L 56.203125 54.6875 
z
" id="DejaVuSans-121"/>
     <path d="M 48.6875 27.296875 
Q 48.6875 37.203125 44.609375 42.84375 
Q 40.53125 48.484375 33.40625 48.484375 
Q 26.265625 48.484375 22.1875 42.84375 
Q 18.109375 37.203125 18.109375 27.296875 
Q 18.109375 17.390625 22.1875 11.75 
Q 26.265625 6.109375 33.40625 6.109375 
Q 40.53125 6.109375 44.609375 11.75 
Q 48.6875 17.390625 48.6875 27.296875 
z
M 18.109375 46.390625 
Q 20.953125 51.265625 25.265625 53.625 
Q 29.59375 56 35.59375 56 
Q 45.5625 56 51.78125 48.09375 
Q 58.015625 40.1875 58.015625 27.296875 
Q 58.015625 14.40625 51.78125 6.484375 
Q 45.5625 -1.421875 35.59375 -1.421875 
Q 29.59375 -1.421875 25.265625 0.953125 
Q 20.953125 3.328125 18.109375 8.203125 
L 18.109375 0 
L 9.078125 0 
L 9.078125 75.984375 
L 18.109375 75.984375 
z
" id="DejaVuSans-98"/>
    </defs>
    <g transform="translate(375.22944 297.78369)scale(0.17 -0.17)">
     <use xlink:href="#DejaVuSans-103"/>
     <use x="63.476562" xlink:href="#DejaVuSans-112"/>
     <use x="126.953125" xlink:href="#DejaVuSans-121"/>
     <use x="186.132812" xlink:href="#DejaVuSans-32"/>
     <use x="217.919922" xlink:href="#DejaVuSans-108"/>
     <use x="245.703125" xlink:href="#DejaVuSans-99"/>
     <use x="300.683594" xlink:href="#DejaVuSans-98"/>
    </g>
   </g>
   <g id="text_14">
    <!-- scp fmin -->
    <g transform="translate(375.22944 157.353749)scale(0.17 -0.17)">
     <use xlink:href="#DejaVuSans-115"/>
     <use x="52.099609" xlink:href="#DejaVuSans-99"/>
     <use x="107.080078" xlink:href="#DejaVuSans-112"/>
     <use x="170.556641" xlink:href="#DejaVuSans-32"/>
     <use x="202.34375" xlink:href="#DejaVuSans-102"/>
     <use x="237.548828" xlink:href="#DejaVuSans-109"/>
     <use x="334.960938" xlink:href="#DejaVuSans-105"/>
     <use x="362.744141" xlink:href="#DejaVuSans-110"/>
    </g>
   </g>
   <g id="text_15">
    <!-- best 2009 -->
    <defs>
     <path d="M 10.984375 1.515625 
L 10.984375 10.5 
Q 14.703125 8.734375 18.5 7.8125 
Q 22.3125 6.890625 25.984375 6.890625 
Q 35.75 6.890625 40.890625 13.453125 
Q 46.046875 20.015625 46.78125 33.40625 
Q 43.953125 29.203125 39.59375 26.953125 
Q 35.25 24.703125 29.984375 24.703125 
Q 19.046875 24.703125 12.671875 31.3125 
Q 6.296875 37.9375 6.296875 49.421875 
Q 6.296875 60.640625 12.9375 67.421875 
Q 19.578125 74.21875 30.609375 74.21875 
Q 43.265625 74.21875 49.921875 64.515625 
Q 56.59375 54.828125 56.59375 36.375 
Q 56.59375 19.140625 48.40625 8.859375 
Q 40.234375 -1.421875 26.421875 -1.421875 
Q 22.703125 -1.421875 18.890625 -0.6875 
Q 15.09375 0.046875 10.984375 1.515625 
z
M 30.609375 32.421875 
Q 37.25 32.421875 41.125 36.953125 
Q 45.015625 41.5 45.015625 49.421875 
Q 45.015625 57.28125 41.125 61.84375 
Q 37.25 66.40625 30.609375 66.40625 
Q 23.96875 66.40625 20.09375 61.84375 
Q 16.21875 57.28125 16.21875 49.421875 
Q 16.21875 41.5 20.09375 36.953125 
Q 23.96875 32.421875 30.609375 32.421875 
z
" id="DejaVuSans-57"/>
    </defs>
    <g transform="translate(375.22944 16.923809)scale(0.17 -0.17)">
     <use xlink:href="#DejaVuSans-98"/>
     <use x="63.476562" xlink:href="#DejaVuSans-101"/>
     <use x="125" xlink:href="#DejaVuSans-115"/>
     <use x="177.099609" xlink:href="#DejaVuSans-116"/>
     <use x="216.308594" xlink:href="#DejaVuSans-32"/>
     <use x="248.095703" xlink:href="#DejaVuSans-50"/>
     <use x="311.71875" xlink:href="#DejaVuSans-48"/>
     <use x="375.341797" xlink:href="#DejaVuSans-48"/>
     <use x="438.964844" xlink:href="#DejaVuSans-57"/>
    </g>
   </g>
   <g id="text_16">
    <!-- bbob f6-f9, 2-D -->
    <defs>
     <path d="M 19.671875 64.796875 
L 19.671875 8.109375 
L 31.59375 8.109375 
Q 46.6875 8.109375 53.6875 14.9375 
Q 60.6875 21.78125 60.6875 36.53125 
Q 60.6875 51.171875 53.6875 57.984375 
Q 46.6875 64.796875 31.59375 64.796875 
z
M 9.8125 72.90625 
L 30.078125 72.90625 
Q 51.265625 72.90625 61.171875 64.09375 
Q 71.09375 55.28125 71.09375 36.53125 
Q 71.09375 17.671875 61.125 8.828125 
Q 51.171875 0 30.078125 0 
L 9.8125 0 
z
" id="DejaVuSans-68"/>
    </defs>
    <g transform="translate(60.41088 14.161286)scale(0.102 -0.102)">
     <use xlink:href="#DejaVuSans-98"/>
     <use x="63.476562" xlink:href="#DejaVuSans-98"/>
     <use x="126.953125" xlink:href="#DejaVuSans-111"/>
     <use x="188.134766" xlink:href="#DejaVuSans-98"/>
     <use x="251.611328" xlink:href="#DejaVuSans-32"/>
     <use x="283.398438" xlink:href="#DejaVuSans-102"/>
     <use x="318.603516" xlink:href="#DejaVuSans-54"/>
     <use x="382.226562" xlink:href="#DejaVuSans-45"/>
     <use x="418.310547" xlink:href="#DejaVuSans-102"/>
     <use x="453.515625" xlink:href="#DejaVuSans-57"/>
     <use x="517.138672" xlink:href="#DejaVuSans-44"/>
     <use x="548.925781" xlink:href="#DejaVuSans-32"/>
     <use x="580.712891" xlink:href="#DejaVuSans-50"/>
     <use x="644.335938" xlink:href="#DejaVuSans-45"/>
     <use x="680.419922" xlink:href="#DejaVuSans-68"/>
    </g>
    <!-- 51 targets: 100..1e-08 -->
    <defs>
     <path d="M 10.796875 72.90625 
L 49.515625 72.90625 
L 49.515625 64.59375 
L 19.828125 64.59375 
L 19.828125 46.734375 
Q 21.96875 47.46875 24.109375 47.828125 
Q 26.265625 48.1875 28.421875 48.1875 
Q 40.625 48.1875 47.75 41.5 
Q 54.890625 34.8125 54.890625 23.390625 
Q 54.890625 11.625 47.5625 5.09375 
Q 40.234375 -1.421875 26.90625 -1.421875 
Q 22.3125 -1.421875 17.546875 -0.640625 
Q 12.796875 0.140625 7.71875 1.703125 
L 7.71875 11.625 
Q 12.109375 9.234375 16.796875 8.0625 
Q 21.484375 6.890625 26.703125 6.890625 
Q 35.15625 6.890625 40.078125 11.328125 
Q 45.015625 15.765625 45.015625 23.390625 
Q 45.015625 31 40.078125 35.4375 
Q 35.15625 39.890625 26.703125 39.890625 
Q 22.75 39.890625 18.8125 39.015625 
Q 14.890625 38.140625 10.796875 36.28125 
z
" id="DejaVuSans-53"/>
     <path d="M 11.71875 12.40625 
L 22.015625 12.40625 
L 22.015625 0 
L 11.71875 0 
z
M 11.71875 51.703125 
L 22.015625 51.703125 
L 22.015625 39.3125 
L 11.71875 39.3125 
z
" id="DejaVuSans-58"/>
    </defs>
    <g transform="translate(60.41088 25.583055)scale(0.102 -0.102)">
     <use xlink:href="#DejaVuSans-53"/>
     <use x="63.623047" xlink:href="#DejaVuSans-49"/>
     <use x="127.246094" xlink:href="#DejaVuSans-32"/>
     <use x="159.033203" xlink:href="#DejaVuSans-116"/>
     <use x="198.242188" xlink:href="#DejaVuSans-97"/>
     <use x="259.521484" xlink:href="#DejaVuSans-114"/>
     <use x="298.884766" xlink:href="#DejaVuSans-103"/>
     <use x="362.361328" xlink:href="#DejaVuSans-101"/>
     <use x="423.884766" xlink:href="#DejaVuSans-116"/>
     <use x="463.09375" xlink:href="#DejaVuSans-115"/>
     <use x="515.193359" xlink:href="#DejaVuSans-58"/>
     <use x="548.884766" xlink:href="#DejaVuSans-32"/>
     <use x="580.671875" xlink:href="#DejaVuSans-49"/>
     <use x="644.294922" xlink:href="#DejaVuSans-48"/>
     <use x="707.917969" xlink:href="#DejaVuSans-48"/>
     <use x="771.541016" xlink:href="#DejaVuSans-46"/>
     <use x="803.328125" xlink:href="#DejaVuSans-46"/>
     <use x="835.115234" xlink:href="#DejaVuSans-49"/>
     <use x="898.738281" xlink:href="#DejaVuSans-101"/>
     <use x="960.261719" xlink:href="#DejaVuSans-45"/>
     <use x="996.345703" xlink:href="#DejaVuSans-48"/>
     <use x="1059.96875" xlink:href="#DejaVuSans-56"/>
    </g>
    <!-- 15 instances -->
    <g transform="translate(60.41088 37.004824)scale(0.102 -0.102)">
     <use xlink:href="#DejaVuSans-49"/>
     <use x="63.623047" xlink:href="#DejaVuSans-53"/>
     <use x="127.246094" xlink:href="#DejaVuSans-32"/>
     <use x="159.033203" xlink:href="#DejaVuSans-105"/>
     <use x="186.816406" xlink:href="#DejaVuSans-110"/>
     <use x="250.195312" xlink:href="#DejaVuSans-115"/>
     <use x="302.294922" xlink:href="#DejaVuSans-116"/>
     <use x="341.503906" xlink:href="#DejaVuSans-97"/>
     <use x="402.783203" xlink:href="#DejaVuSans-110"/>
     <use x="466.162109" xlink:href="#DejaVuSans-99"/>
     <use x="521.142578" xlink:href="#DejaVuSans-101"/>
     <use x="582.666016" xlink:href="#DejaVuSans-115"/>
    </g>
   </g>
   <g id="text_17">
    <!-- v2.3.3.5 -->
    <defs>
     <path d="M 40.578125 39.3125 
Q 47.65625 37.796875 51.625 33 
Q 55.609375 28.21875 55.609375 21.1875 
Q 55.609375 10.40625 48.1875 4.484375 
Q 40.765625 -1.421875 27.09375 -1.421875 
Q 22.515625 -1.421875 17.65625 -0.515625 
Q 12.796875 0.390625 7.625 2.203125 
L 7.625 11.71875 
Q 11.71875 9.328125 16.59375 8.109375 
Q 21.484375 6.890625 26.8125 6.890625 
Q 36.078125 6.890625 40.9375 10.546875 
Q 45.796875 14.203125 45.796875 21.1875 
Q 45.796875 27.640625 41.28125 31.265625 
Q 36.765625 34.90625 28.71875 34.90625 
L 20.21875 34.90625 
L 20.21875 43.015625 
L 29.109375 43.015625 
Q 36.375 43.015625 40.234375 45.921875 
Q 44.09375 48.828125 44.09375 54.296875 
Q 44.09375 59.90625 40.109375 62.90625 
Q 36.140625 65.921875 28.71875 65.921875 
Q 24.65625 65.921875 20.015625 65.03125 
Q 15.375 64.15625 9.8125 62.3125 
L 9.8125 71.09375 
Q 15.4375 72.65625 20.34375 73.4375 
Q 25.25 74.21875 29.59375 74.21875 
Q 40.828125 74.21875 47.359375 69.109375 
Q 53.90625 64.015625 53.90625 55.328125 
Q 53.90625 49.265625 50.4375 45.09375 
Q 46.96875 40.921875 40.578125 39.3125 
z
" id="DejaVuSans-51"/>
    </defs>
    <g style="fill:#808080;" transform="translate(177.692437 293.909432)scale(0.1 -0.1)">
     <use xlink:href="#DejaVuSans-118"/>
     <use x="59.179688" xlink:href="#DejaVuSans-50"/>
     <use x="122.802734" xlink:href="#DejaVuSans-46"/>
     <use x="154.589844" xlink:href="#DejaVuSans-51"/>
     <use x="218.212891" xlink:href="#DejaVuSans-46"/>
     <use x="250" xlink:href="#DejaVuSans-51"/>
     <use x="313.623047" xlink:href="#DejaVuSans-46"/>
     <use x="345.410156" xlink:href="#DejaVuSans-53"/>
    </g>
   </g>
  </g>
 </g>
 <defs>
  <clipPath id="p6cb1066113">
   <rect height="295.488" width="281.088" x="57.6" y="3.456"/>
  </clipPath>
 </defs>
</svg>
