<?xml version="1.0" encoding="utf-8" standalone="no"?>
<!DOCTYPE svg PUBLIC "-//W3C//DTD SVG 1.1//EN"
  "http://www.w3.org/Graphics/SVG/1.1/DTD/svg11.dtd">
<!-- Created with matplotlib (https://matplotlib.org/) -->
<svg height="345.6pt" version="1.1" viewBox="0 0 460.8 345.6" width="460.8pt" xmlns="http://www.w3.org/2000/svg" xmlns:xlink="http://www.w3.org/1999/xlink">
 <defs>
  <style type="text/css">
*{stroke-linecap:butt;stroke-linejoin:round;}
  </style>
 </defs>
 <g id="figure_1">
  <g id="patch_1">
   <path d="M 0 345.6 
L 460.8 345.6 
L 460.8 0 
L 0 0 
z
" style="fill:#ffffff;"/>
  </g>
  <g id="axes_1">
   <g id="patch_2">
    <path d="M 57.6 298.944 
L 338.688 298.944 
L 338.688 3.456 
L 57.6 3.456 
z
" style="fill:#ffffff;"/>
   </g>
   <g id="line2d_1">
    <path d="M 38.440992 298.944 
L 38.440992 291.773354 
L 57.6 291.773354 
L 57.6 290.339224 
L 62.616969 290.339224 
L 62.616969 288.905095 
L 66.508432 288.905095 
L 66.508432 287.470966 
L 74.704957 287.470966 
L 74.704957 281.734448 
L 80.258561 281.734448 
L 80.258561 280.300319 
L 83.171864 280.300319 
L 83.171864 278.86619 
L 85.66744 278.86619 
L 85.66744 277.432061 
L 86.792945 277.432061 
L 86.792945 275.997931 
L 87.850195 275.997931 
L 87.850195 274.563802 
L 88.846997 274.563802 
L 88.846997 273.129673 
L 89.78989 273.129673 
L 89.78989 271.695543 
L 90.684409 271.695543 
L 90.684409 270.261414 
L 91.535274 270.261414 
L 91.535274 268.827285 
L 93.863965 268.827285 
L 93.863965 267.393156 
L 94.575872 267.393156 
L 94.575872 263.090768 
L 95.918017 263.090768 
L 95.918017 261.656638 
L 98.32726 261.656638 
L 98.32726 257.35425 
L 98.880934 257.35425 
L 98.880934 255.920121 
L 99.938184 255.920121 
L 99.938184 254.485992 
L 101.877879 254.485992 
L 101.877879 253.051863 
L 102.330873 253.051863 
L 102.330873 251.617733 
L 102.772397 251.617733 
L 102.772397 248.749475 
L 104.826449 248.749475 
L 104.826449 247.315345 
L 105.209745 247.315345 
L 105.209745 245.881216 
L 105.951954 245.881216 
L 105.951954 244.447087 
L 106.311539 244.447087 
L 106.311539 243.012957 
L 107.347841 243.012957 
L 107.347841 241.578828 
L 108.640231 241.578828 
L 108.640231 240.144699 
L 109.252198 240.144699 
L 109.252198 238.71057 
L 110.131676 238.71057 
L 110.131676 237.27644 
L 111.239304 237.27644 
L 111.239304 234.408182 
L 111.505558 234.408182 
L 111.505558 232.974052 
L 112.779064 232.974052 
L 112.779064 231.539923 
L 113.500792 231.539923 
L 113.500792 230.105794 
L 114.418861 230.105794 
L 114.418861 228.671665 
L 114.641021 228.671665 
L 114.641021 227.237535 
L 116.719583 227.237535 
L 116.719583 225.803406 
L 116.914437 225.803406 
L 116.914437 224.369277 
L 118.576578 224.369277 
L 118.576578 222.935147 
L 119.267333 222.935147 
L 119.267333 221.501018 
L 119.43583 221.501018 
L 119.43583 220.066889 
L 119.931767 220.066889 
L 119.931767 218.632759 
L 120.728219 218.632759 
L 120.728219 217.19863 
L 121.036887 217.19863 
L 121.036887 215.764501 
L 121.340187 215.764501 
L 121.340187 214.330372 
L 121.489881 214.330372 
L 121.489881 212.896242 
L 122.643312 212.896242 
L 122.643312 211.462113 
L 122.920132 211.462113 
L 122.920132 210.027984 
L 123.056911 210.027984 
L 123.056911 208.593854 
L 123.327293 208.593854 
L 123.327293 207.159725 
L 123.593547 207.159725 
L 123.593547 205.725596 
L 124.114161 205.725596 
L 124.114161 204.291467 
L 124.368753 204.291467 
L 124.368753 202.857337 
L 124.494669 202.857337 
L 124.494669 201.423208 
L 124.989434 201.423208 
L 124.989434 198.554949 
L 125.23165 198.554949 
L 125.23165 197.12082 
L 125.351508 197.12082 
L 125.351508 195.686691 
L 125.706218 195.686691 
L 125.706218 192.818432 
L 126.053856 192.818432 
L 126.053856 189.950174 
L 126.281824 189.950174 
L 126.281824 188.516044 
L 126.3947 188.516044 
L 126.3947 187.081915 
L 126.729009 187.081915 
L 126.839037 181.345398 
L 126.948374 181.345398 
L 126.948374 179.911268 
L 127.165014 179.911268 
L 127.165014 177.04301 
L 127.378995 177.04301 
L 127.48501 171.306493 
L 127.590383 171.306493 
L 127.695124 167.004105 
L 127.799239 167.004105 
L 127.902737 164.135846 
L 128.005624 164.135846 
L 128.107907 161.267588 
L 128.209594 161.267588 
L 128.209594 158.399329 
L 128.411207 158.399329 
L 128.511146 149.794553 
L 128.610515 149.794553 
L 128.709321 144.058036 
L 128.807571 144.058036 
L 128.905271 138.321519 
L 129.002426 138.321519 
L 129.099042 134.019131 
L 129.195127 134.019131 
L 129.290685 131.150872 
L 129.385722 131.150872 
L 129.385722 129.716743 
L 129.574256 129.716743 
L 129.574256 126.848485 
L 129.760775 126.848485 
L 129.853291 123.980226 
L 129.945319 123.980226 
L 130.036864 121.111967 
L 130.127931 121.111967 
L 130.127931 119.677838 
L 130.30865 119.677838 
L 130.398313 115.37545 
L 130.487516 115.37545 
L 130.576266 109.638933 
L 130.664567 109.638933 
L 130.664567 106.770674 
L 130.926816 106.770674 
L 131.013364 101.034157 
L 131.099484 101.034157 
L 131.185181 98.165899 
L 131.270459 98.165899 
L 131.355321 95.29764 
L 131.523818 95.29764 
L 131.60746 86.692864 
L 131.690703 86.692864 
L 131.690703 83.824606 
L 132.101058 83.824606 
L 132.181982 80.956347 
L 132.581068 80.956347 
L 132.581068 79.522218 
L 132.971225 79.522218 
L 132.971225 78.088089 
L 133.352844 78.088089 
L 133.352844 76.653959 
L 133.72629 76.653959 
L 133.72629 75.21983 
L 134.019394 75.21983 
L 134.019394 73.785701 
L 134.236034 73.785701 
L 134.236034 72.351571 
L 134.520763 72.351571 
L 134.520763 70.917442 
L 134.661403 70.917442 
L 134.661403 69.483313 
L 134.939326 69.483313 
L 134.939326 68.049183 
L 135.415281 68.049183 
L 135.415281 66.615054 
L 135.747468 66.615054 
L 135.747468 65.180925 
L 136.137916 65.180925 
L 136.137916 63.746796 
L 136.519813 63.746796 
L 136.519813 62.312666 
L 136.955041 62.312666 
L 136.955041 60.878537 
L 137.37967 60.878537 
L 137.37967 59.444408 
L 137.558536 59.444408 
L 137.558536 58.010278 
L 140.195896 58.010278 
L 140.195896 56.576149 
L 140.944478 56.576149 
L 140.944478 55.14202 
L 141.33096 55.14202 
L 141.33096 53.707891 
L 141.755753 53.707891 
L 141.755753 52.273761 
L 142.215919 52.273761 
L 142.215919 50.839632 
L 145.516164 50.839632 
L 145.516164 49.405503 
L 145.740226 49.405503 
L 145.740226 47.971373 
L 146.107383 47.971373 
L 146.179895 19.288787 
L 146.538004 19.288787 
L 146.538004 17.854658 
L 147.164632 17.854658 
L 147.164632 16.420529 
L 147.50327 16.420529 
L 147.50327 14.9864 
L 147.999207 14.9864 
L 147.999207 13.55227 
L 148.639252 13.55227 
L 148.639252 12.118141 
L 149.043029 12.118141 
L 149.043029 10.684012 
L 149.616841 10.684012 
L 149.616841 9.249882 
L 150.05688 9.249882 
L 150.05688 7.815753 
L 150.401087 7.815753 
L 150.401087 6.381624 
L 338.688 6.381624 
L 338.688 6.381624 
" style="fill:none;stroke:#f5deb3;stroke-linecap:square;stroke-width:4;"/>
   </g>
   <g id="line2d_2">
    <defs>
     <path d="M -0 7.778175 
L 7.778175 0 
L 0 -7.778175 
L -7.778175 -0 
z
" id="mf019d85144" style="stroke:#f5deb3;stroke-linejoin:miter;stroke-width:1.5;"/>
    </defs>
    <g>
     <use style="fill:#f5deb3;stroke:#f5deb3;stroke-linejoin:miter;stroke-width:1.5;" x="124.494669" xlink:href="#mf019d85144" y="201.423208"/>
     <use style="fill:#f5deb3;stroke:#f5deb3;stroke-linejoin:miter;stroke-width:1.5;" x="141.33096" xlink:href="#mf019d85144" y="53.707891"/>
     <use style="fill:#f5deb3;stroke:#f5deb3;stroke-linejoin:miter;stroke-width:1.5;" x="150.401087" xlink:href="#mf019d85144" y="7.815753"/>
     <use style="fill:#f5deb3;stroke:#f5deb3;stroke-linejoin:miter;stroke-width:1.5;" x="150.401087" xlink:href="#mf019d85144" y="6.381624"/>
     <use style="fill:#f5deb3;stroke:#f5deb3;stroke-linejoin:miter;stroke-width:1.5;" x="150.401087" xlink:href="#mf019d85144" y="6.381624"/>
     <use style="fill:#f5deb3;stroke:#f5deb3;stroke-linejoin:miter;stroke-width:1.5;" x="338.688" xlink:href="#mf019d85144" y="6.381624"/>
    </g>
   </g>
   <g id="line2d_3">
    <path style="fill:none;stroke:#f5deb3;stroke-linecap:square;stroke-width:4;"/>
    <g/>
   </g>
   <g id="line2d_4">
    <path d="M 338.688 6.381624 
L 369.60768 12.232871 
" style="fill:none;stroke:#f5deb3;stroke-linecap:square;stroke-width:4;"/>
    <g>
     <use style="fill:#f5deb3;stroke:#f5deb3;stroke-linejoin:miter;stroke-width:1.5;" x="338.688" xlink:href="#mf019d85144" y="6.381624"/>
     <use style="fill:#f5deb3;stroke:#f5deb3;stroke-linejoin:miter;stroke-width:1.5;" x="369.60768" xlink:href="#mf019d85144" y="12.232871"/>
    </g>
   </g>
   <g id="matplotlib.axis_1">
    <g id="xtick_1">
     <g id="line2d_5">
      <path clip-path="url(#p57d0b059fe)" d="M 57.6 298.944 
L 57.6 3.456 
" style="fill:none;stroke:#b0b0b0;stroke-linecap:square;stroke-width:0.8;"/>
     </g>
     <g id="line2d_6">
      <defs>
       <path d="M 0 0 
L 0 3.5 
" id="me617e734b2" style="stroke:#000000;stroke-width:0.8;"/>
      </defs>
      <g>
       <use style="stroke:#000000;stroke-width:0.8;" x="57.6" xlink:href="#me617e734b2" y="298.944"/>
      </g>
     </g>
     <g id="text_1">
      <!-- 0 -->
      <defs>
       <path d="M 31.78125 66.40625 
Q 24.171875 66.40625 20.328125 58.90625 
Q 16.5 51.421875 16.5 36.375 
Q 16.5 21.390625 20.328125 13.890625 
Q 24.171875 6.390625 31.78125 6.390625 
Q 39.453125 6.390625 43.28125 13.890625 
Q 47.125 21.390625 47.125 36.375 
Q 47.125 51.421875 43.28125 58.90625 
Q 39.453125 66.40625 31.78125 66.40625 
z
M 31.78125 74.21875 
Q 44.046875 74.21875 50.515625 64.515625 
Q 56.984375 54.828125 56.984375 36.375 
Q 56.984375 17.96875 50.515625 8.265625 
Q 44.046875 -1.421875 31.78125 -1.421875 
Q 19.53125 -1.421875 13.0625 8.265625 
Q 6.59375 17.96875 6.59375 36.375 
Q 6.59375 54.828125 13.0625 64.515625 
Q 19.53125 74.21875 31.78125 74.21875 
z
" id="DejaVuSans-48"/>
      </defs>
      <g transform="translate(51.2375 321.140875)scale(0.2 -0.2)">
       <use xlink:href="#DejaVuSans-48"/>
      </g>
     </g>
    </g>
    <g id="xtick_2">
     <g id="line2d_7">
      <path clip-path="url(#p57d0b059fe)" d="M 137.910857 298.944 
L 137.910857 3.456 
" style="fill:none;stroke:#b0b0b0;stroke-linecap:square;stroke-width:0.8;"/>
     </g>
     <g id="line2d_8">
      <g>
       <use style="stroke:#000000;stroke-width:0.8;" x="137.910857" xlink:href="#me617e734b2" y="298.944"/>
      </g>
     </g>
     <g id="text_2">
      <!-- 2 -->
      <defs>
       <path d="M 19.1875 8.296875 
L 53.609375 8.296875 
L 53.609375 0 
L 7.328125 0 
L 7.328125 8.296875 
Q 12.9375 14.109375 22.625 23.890625 
Q 32.328125 33.6875 34.8125 36.53125 
Q 39.546875 41.84375 41.421875 45.53125 
Q 43.3125 49.21875 43.3125 52.78125 
Q 43.3125 58.59375 39.234375 62.25 
Q 35.15625 65.921875 28.609375 65.921875 
Q 23.96875 65.921875 18.8125 64.3125 
Q 13.671875 62.703125 7.8125 59.421875 
L 7.8125 69.390625 
Q 13.765625 71.78125 18.9375 73 
Q 24.125 74.21875 28.421875 74.21875 
Q 39.75 74.21875 46.484375 68.546875 
Q 53.21875 62.890625 53.21875 53.421875 
Q 53.21875 48.921875 51.53125 44.890625 
Q 49.859375 40.875 45.40625 35.40625 
Q 44.1875 33.984375 37.640625 27.21875 
Q 31.109375 20.453125 19.1875 8.296875 
z
" id="DejaVuSans-50"/>
      </defs>
      <g transform="translate(131.548357 321.140875)scale(0.2 -0.2)">
       <use xlink:href="#DejaVuSans-50"/>
      </g>
     </g>
    </g>
    <g id="xtick_3">
     <g id="line2d_9">
      <path clip-path="url(#p57d0b059fe)" d="M 218.221714 298.944 
L 218.221714 3.456 
" style="fill:none;stroke:#b0b0b0;stroke-linecap:square;stroke-width:0.8;"/>
     </g>
     <g id="line2d_10">
      <g>
       <use style="stroke:#000000;stroke-width:0.8;" x="218.221714" xlink:href="#me617e734b2" y="298.944"/>
      </g>
     </g>
     <g id="text_3">
      <!-- 4 -->
      <defs>
       <path d="M 37.796875 64.3125 
L 12.890625 25.390625 
L 37.796875 25.390625 
z
M 35.203125 72.90625 
L 47.609375 72.90625 
L 47.609375 25.390625 
L 58.015625 25.390625 
L 58.015625 17.1875 
L 47.609375 17.1875 
L 47.609375 0 
L 37.796875 0 
L 37.796875 17.1875 
L 4.890625 17.1875 
L 4.890625 26.703125 
z
" id="DejaVuSans-52"/>
      </defs>
      <g transform="translate(211.859214 321.140875)scale(0.2 -0.2)">
       <use xlink:href="#DejaVuSans-52"/>
      </g>
     </g>
    </g>
    <g id="xtick_4">
     <g id="line2d_11">
      <path clip-path="url(#p57d0b059fe)" d="M 298.532571 298.944 
L 298.532571 3.456 
" style="fill:none;stroke:#b0b0b0;stroke-linecap:square;stroke-width:0.8;"/>
     </g>
     <g id="line2d_12">
      <g>
       <use style="stroke:#000000;stroke-width:0.8;" x="298.532571" xlink:href="#me617e734b2" y="298.944"/>
      </g>
     </g>
     <g id="text_4">
      <!-- 6 -->
      <defs>
       <path d="M 33.015625 40.375 
Q 26.375 40.375 22.484375 35.828125 
Q 18.609375 31.296875 18.609375 23.390625 
Q 18.609375 15.53125 22.484375 10.953125 
Q 26.375 6.390625 33.015625 6.390625 
Q 39.65625 6.390625 43.53125 10.953125 
Q 47.40625 15.53125 47.40625 23.390625 
Q 47.40625 31.296875 43.53125 35.828125 
Q 39.65625 40.375 33.015625 40.375 
z
M 52.59375 71.296875 
L 52.59375 62.3125 
Q 48.875 64.0625 45.09375 64.984375 
Q 41.3125 65.921875 37.59375 65.921875 
Q 27.828125 65.921875 22.671875 59.328125 
Q 17.53125 52.734375 16.796875 39.40625 
Q 19.671875 43.65625 24.015625 45.921875 
Q 28.375 48.1875 33.59375 48.1875 
Q 44.578125 48.1875 50.953125 41.515625 
Q 57.328125 34.859375 57.328125 23.390625 
Q 57.328125 12.15625 50.6875 5.359375 
Q 44.046875 -1.421875 33.015625 -1.421875 
Q 20.359375 -1.421875 13.671875 8.265625 
Q 6.984375 17.96875 6.984375 36.375 
Q 6.984375 53.65625 15.1875 63.9375 
Q 23.390625 74.21875 37.203125 74.21875 
Q 40.921875 74.21875 44.703125 73.484375 
Q 48.484375 72.75 52.59375 71.296875 
z
" id="DejaVuSans-54"/>
      </defs>
      <g transform="translate(292.170071 321.140875)scale(0.2 -0.2)">
       <use xlink:href="#DejaVuSans-54"/>
      </g>
     </g>
    </g>
    <g id="xtick_5">
     <g id="line2d_13">
      <path clip-path="url(#p57d0b059fe)" d="M 97.755429 298.944 
L 97.755429 3.456 
" style="fill:none;stroke:#b0b0b0;stroke-linecap:square;stroke-width:0.8;"/>
     </g>
     <g id="line2d_14">
      <defs>
       <path d="M 0 0 
L 0 2 
" id="ma2042b92fd" style="stroke:#000000;stroke-width:0.6;"/>
      </defs>
      <g>
       <use style="stroke:#000000;stroke-width:0.6;" x="97.755429" xlink:href="#ma2042b92fd" y="298.944"/>
      </g>
     </g>
    </g>
    <g id="xtick_6">
     <g id="line2d_15">
      <path clip-path="url(#p57d0b059fe)" d="M 178.066286 298.944 
L 178.066286 3.456 
" style="fill:none;stroke:#b0b0b0;stroke-linecap:square;stroke-width:0.8;"/>
     </g>
     <g id="line2d_16">
      <g>
       <use style="stroke:#000000;stroke-width:0.6;" x="178.066286" xlink:href="#ma2042b92fd" y="298.944"/>
      </g>
     </g>
    </g>
    <g id="xtick_7">
     <g id="line2d_17">
      <path clip-path="url(#p57d0b059fe)" d="M 258.377143 298.944 
L 258.377143 3.456 
" style="fill:none;stroke:#b0b0b0;stroke-linecap:square;stroke-width:0.8;"/>
     </g>
     <g id="line2d_18">
      <g>
       <use style="stroke:#000000;stroke-width:0.6;" x="258.377143" xlink:href="#ma2042b92fd" y="298.944"/>
      </g>
     </g>
    </g>
    <g id="xtick_8">
     <g id="line2d_19">
      <path clip-path="url(#p57d0b059fe)" d="M 338.688 298.944 
L 338.688 3.456 
" style="fill:none;stroke:#b0b0b0;stroke-linecap:square;stroke-width:0.8;"/>
     </g>
     <g id="line2d_20">
      <g>
       <use style="stroke:#000000;stroke-width:0.6;" x="338.688" xlink:href="#ma2042b92fd" y="298.944"/>
      </g>
     </g>
    </g>
    <g id="text_5">
     <!-- log10(# f-evals / dimension) -->
     <defs>
      <path d="M 9.421875 75.984375 
L 18.40625 75.984375 
L 18.40625 0 
L 9.421875 0 
z
" id="DejaVuSans-108"/>
      <path d="M 30.609375 48.390625 
Q 23.390625 48.390625 19.1875 42.75 
Q 14.984375 37.109375 14.984375 27.296875 
Q 14.984375 17.484375 19.15625 11.84375 
Q 23.34375 6.203125 30.609375 6.203125 
Q 37.796875 6.203125 41.984375 11.859375 
Q 46.1875 17.53125 46.1875 27.296875 
Q 46.1875 37.015625 41.984375 42.703125 
Q 37.796875 48.390625 30.609375 48.390625 
z
M 30.609375 56 
Q 42.328125 56 49.015625 48.375 
Q 55.71875 40.765625 55.71875 27.296875 
Q 55.71875 13.875 49.015625 6.21875 
Q 42.328125 -1.421875 30.609375 -1.421875 
Q 18.84375 -1.421875 12.171875 6.21875 
Q 5.515625 13.875 5.515625 27.296875 
Q 5.515625 40.765625 12.171875 48.375 
Q 18.84375 56 30.609375 56 
z
" id="DejaVuSans-111"/>
      <path d="M 45.40625 27.984375 
Q 45.40625 37.75 41.375 43.109375 
Q 37.359375 48.484375 30.078125 48.484375 
Q 22.859375 48.484375 18.828125 43.109375 
Q 14.796875 37.75 14.796875 27.984375 
Q 14.796875 18.265625 18.828125 12.890625 
Q 22.859375 7.515625 30.078125 7.515625 
Q 37.359375 7.515625 41.375 12.890625 
Q 45.40625 18.265625 45.40625 27.984375 
z
M 54.390625 6.78125 
Q 54.390625 -7.171875 48.1875 -13.984375 
Q 42 -20.796875 29.203125 -20.796875 
Q 24.46875 -20.796875 20.265625 -20.09375 
Q 16.0625 -19.390625 12.109375 -17.921875 
L 12.109375 -9.1875 
Q 16.0625 -11.328125 19.921875 -12.34375 
Q 23.78125 -13.375 27.78125 -13.375 
Q 36.625 -13.375 41.015625 -8.765625 
Q 45.40625 -4.15625 45.40625 5.171875 
L 45.40625 9.625 
Q 42.625 4.78125 38.28125 2.390625 
Q 33.9375 0 27.875 0 
Q 17.828125 0 11.671875 7.65625 
Q 5.515625 15.328125 5.515625 27.984375 
Q 5.515625 40.671875 11.671875 48.328125 
Q 17.828125 56 27.875 56 
Q 33.9375 56 38.28125 53.609375 
Q 42.625 51.21875 45.40625 46.390625 
L 45.40625 54.6875 
L 54.390625 54.6875 
z
" id="DejaVuSans-103"/>
      <path d="M 12.40625 8.296875 
L 28.515625 8.296875 
L 28.515625 63.921875 
L 10.984375 60.40625 
L 10.984375 69.390625 
L 28.421875 72.90625 
L 38.28125 72.90625 
L 38.28125 8.296875 
L 54.390625 8.296875 
L 54.390625 0 
L 12.40625 0 
z
" id="DejaVuSans-49"/>
      <path d="M 31 75.875 
Q 24.46875 64.65625 21.28125 53.65625 
Q 18.109375 42.671875 18.109375 31.390625 
Q 18.109375 20.125 21.3125 9.0625 
Q 24.515625 -2 31 -13.1875 
L 23.1875 -13.1875 
Q 15.875 -1.703125 12.234375 9.375 
Q 8.59375 20.453125 8.59375 31.390625 
Q 8.59375 42.28125 12.203125 53.3125 
Q 15.828125 64.359375 23.1875 75.875 
z
" id="DejaVuSans-40"/>
      <path d="M 51.125 44 
L 36.921875 44 
L 32.8125 27.6875 
L 47.125 27.6875 
z
M 43.796875 71.78125 
L 38.71875 51.515625 
L 52.984375 51.515625 
L 58.109375 71.78125 
L 65.921875 71.78125 
L 60.890625 51.515625 
L 76.125 51.515625 
L 76.125 44 
L 58.984375 44 
L 54.984375 27.6875 
L 70.515625 27.6875 
L 70.515625 20.21875 
L 53.078125 20.21875 
L 48 0 
L 40.1875 0 
L 45.21875 20.21875 
L 30.90625 20.21875 
L 25.875 0 
L 18.015625 0 
L 23.09375 20.21875 
L 7.71875 20.21875 
L 7.71875 27.6875 
L 24.90625 27.6875 
L 29 44 
L 13.28125 44 
L 13.28125 51.515625 
L 30.90625 51.515625 
L 35.890625 71.78125 
z
" id="DejaVuSans-35"/>
      <path id="DejaVuSans-32"/>
      <path d="M 37.109375 75.984375 
L 37.109375 68.5 
L 28.515625 68.5 
Q 23.6875 68.5 21.796875 66.546875 
Q 19.921875 64.59375 19.921875 59.515625 
L 19.921875 54.6875 
L 34.71875 54.6875 
L 34.71875 47.703125 
L 19.921875 47.703125 
L 19.921875 0 
L 10.890625 0 
L 10.890625 47.703125 
L 2.296875 47.703125 
L 2.296875 54.6875 
L 10.890625 54.6875 
L 10.890625 58.5 
Q 10.890625 67.625 15.140625 71.796875 
Q 19.390625 75.984375 28.609375 75.984375 
z
" id="DejaVuSans-102"/>
      <path d="M 4.890625 31.390625 
L 31.203125 31.390625 
L 31.203125 23.390625 
L 4.890625 23.390625 
z
" id="DejaVuSans-45"/>
      <path d="M 56.203125 29.59375 
L 56.203125 25.203125 
L 14.890625 25.203125 
Q 15.484375 15.921875 20.484375 11.0625 
Q 25.484375 6.203125 34.421875 6.203125 
Q 39.59375 6.203125 44.453125 7.46875 
Q 49.3125 8.734375 54.109375 11.28125 
L 54.109375 2.78125 
Q 49.265625 0.734375 44.1875 -0.34375 
Q 39.109375 -1.421875 33.890625 -1.421875 
Q 20.796875 -1.421875 13.15625 6.1875 
Q 5.515625 13.8125 5.515625 26.8125 
Q 5.515625 40.234375 12.765625 48.109375 
Q 20.015625 56 32.328125 56 
Q 43.359375 56 49.78125 48.890625 
Q 56.203125 41.796875 56.203125 29.59375 
z
M 47.21875 32.234375 
Q 47.125 39.59375 43.09375 43.984375 
Q 39.0625 48.390625 32.421875 48.390625 
Q 24.90625 48.390625 20.390625 44.140625 
Q 15.875 39.890625 15.1875 32.171875 
z
" id="DejaVuSans-101"/>
      <path d="M 2.984375 54.6875 
L 12.5 54.6875 
L 29.59375 8.796875 
L 46.6875 54.6875 
L 56.203125 54.6875 
L 35.6875 0 
L 23.484375 0 
z
" id="DejaVuSans-118"/>
      <path d="M 34.28125 27.484375 
Q 23.390625 27.484375 19.1875 25 
Q 14.984375 22.515625 14.984375 16.5 
Q 14.984375 11.71875 18.140625 8.90625 
Q 21.296875 6.109375 26.703125 6.109375 
Q 34.1875 6.109375 38.703125 11.40625 
Q 43.21875 16.703125 43.21875 25.484375 
L 43.21875 27.484375 
z
M 52.203125 31.203125 
L 52.203125 0 
L 43.21875 0 
L 43.21875 8.296875 
Q 40.140625 3.328125 35.546875 0.953125 
Q 30.953125 -1.421875 24.3125 -1.421875 
Q 15.921875 -1.421875 10.953125 3.296875 
Q 6 8.015625 6 15.921875 
Q 6 25.140625 12.171875 29.828125 
Q 18.359375 34.515625 30.609375 34.515625 
L 43.21875 34.515625 
L 43.21875 35.40625 
Q 43.21875 41.609375 39.140625 45 
Q 35.0625 48.390625 27.6875 48.390625 
Q 23 48.390625 18.546875 47.265625 
Q 14.109375 46.140625 10.015625 43.890625 
L 10.015625 52.203125 
Q 14.9375 54.109375 19.578125 55.046875 
Q 24.21875 56 28.609375 56 
Q 40.484375 56 46.34375 49.84375 
Q 52.203125 43.703125 52.203125 31.203125 
z
" id="DejaVuSans-97"/>
      <path d="M 44.28125 53.078125 
L 44.28125 44.578125 
Q 40.484375 46.53125 36.375 47.5 
Q 32.28125 48.484375 27.875 48.484375 
Q 21.1875 48.484375 17.84375 46.4375 
Q 14.5 44.390625 14.5 40.28125 
Q 14.5 37.15625 16.890625 35.375 
Q 19.28125 33.59375 26.515625 31.984375 
L 29.59375 31.296875 
Q 39.15625 29.25 43.1875 25.515625 
Q 47.21875 21.78125 47.21875 15.09375 
Q 47.21875 7.46875 41.1875 3.015625 
Q 35.15625 -1.421875 24.609375 -1.421875 
Q 20.21875 -1.421875 15.453125 -0.5625 
Q 10.6875 0.296875 5.421875 2 
L 5.421875 11.28125 
Q 10.40625 8.6875 15.234375 7.390625 
Q 20.0625 6.109375 24.8125 6.109375 
Q 31.15625 6.109375 34.5625 8.28125 
Q 37.984375 10.453125 37.984375 14.40625 
Q 37.984375 18.0625 35.515625 20.015625 
Q 33.0625 21.96875 24.703125 23.78125 
L 21.578125 24.515625 
Q 13.234375 26.265625 9.515625 29.90625 
Q 5.8125 33.546875 5.8125 39.890625 
Q 5.8125 47.609375 11.28125 51.796875 
Q 16.75 56 26.8125 56 
Q 31.78125 56 36.171875 55.265625 
Q 40.578125 54.546875 44.28125 53.078125 
z
" id="DejaVuSans-115"/>
      <path d="M 25.390625 72.90625 
L 33.6875 72.90625 
L 8.296875 -9.28125 
L 0 -9.28125 
z
" id="DejaVuSans-47"/>
      <path d="M 45.40625 46.390625 
L 45.40625 75.984375 
L 54.390625 75.984375 
L 54.390625 0 
L 45.40625 0 
L 45.40625 8.203125 
Q 42.578125 3.328125 38.25 0.953125 
Q 33.9375 -1.421875 27.875 -1.421875 
Q 17.96875 -1.421875 11.734375 6.484375 
Q 5.515625 14.40625 5.515625 27.296875 
Q 5.515625 40.1875 11.734375 48.09375 
Q 17.96875 56 27.875 56 
Q 33.9375 56 38.25 53.625 
Q 42.578125 51.265625 45.40625 46.390625 
z
M 14.796875 27.296875 
Q 14.796875 17.390625 18.875 11.75 
Q 22.953125 6.109375 30.078125 6.109375 
Q 37.203125 6.109375 41.296875 11.75 
Q 45.40625 17.390625 45.40625 27.296875 
Q 45.40625 37.203125 41.296875 42.84375 
Q 37.203125 48.484375 30.078125 48.484375 
Q 22.953125 48.484375 18.875 42.84375 
Q 14.796875 37.203125 14.796875 27.296875 
z
" id="DejaVuSans-100"/>
      <path d="M 9.421875 54.6875 
L 18.40625 54.6875 
L 18.40625 0 
L 9.421875 0 
z
M 9.421875 75.984375 
L 18.40625 75.984375 
L 18.40625 64.59375 
L 9.421875 64.59375 
z
" id="DejaVuSans-105"/>
      <path d="M 52 44.1875 
Q 55.375 50.25 60.0625 53.125 
Q 64.75 56 71.09375 56 
Q 79.640625 56 84.28125 50.015625 
Q 88.921875 44.046875 88.921875 33.015625 
L 88.921875 0 
L 79.890625 0 
L 79.890625 32.71875 
Q 79.890625 40.578125 77.09375 44.375 
Q 74.3125 48.1875 68.609375 48.1875 
Q 61.625 48.1875 57.5625 43.546875 
Q 53.515625 38.921875 53.515625 30.90625 
L 53.515625 0 
L 44.484375 0 
L 44.484375 32.71875 
Q 44.484375 40.625 41.703125 44.40625 
Q 38.921875 48.1875 33.109375 48.1875 
Q 26.21875 48.1875 22.15625 43.53125 
Q 18.109375 38.875 18.109375 30.90625 
L 18.109375 0 
L 9.078125 0 
L 9.078125 54.6875 
L 18.109375 54.6875 
L 18.109375 46.1875 
Q 21.1875 51.21875 25.484375 53.609375 
Q 29.78125 56 35.6875 56 
Q 41.65625 56 45.828125 52.96875 
Q 50 49.953125 52 44.1875 
z
" id="DejaVuSans-109"/>
      <path d="M 54.890625 33.015625 
L 54.890625 0 
L 45.90625 0 
L 45.90625 32.71875 
Q 45.90625 40.484375 42.875 44.328125 
Q 39.84375 48.1875 33.796875 48.1875 
Q 26.515625 48.1875 22.3125 43.546875 
Q 18.109375 38.921875 18.109375 30.90625 
L 18.109375 0 
L 9.078125 0 
L 9.078125 54.6875 
L 18.109375 54.6875 
L 18.109375 46.1875 
Q 21.34375 51.125 25.703125 53.5625 
Q 30.078125 56 35.796875 56 
Q 45.21875 56 50.046875 50.171875 
Q 54.890625 44.34375 54.890625 33.015625 
z
" id="DejaVuSans-110"/>
      <path d="M 8.015625 75.875 
L 15.828125 75.875 
Q 23.140625 64.359375 26.78125 53.3125 
Q 30.421875 42.28125 30.421875 31.390625 
Q 30.421875 20.453125 26.78125 9.375 
Q 23.140625 -1.703125 15.828125 -13.1875 
L 8.015625 -13.1875 
Q 14.5 -2 17.703125 9.0625 
Q 20.90625 20.125 20.90625 31.390625 
Q 20.90625 42.671875 17.703125 53.65625 
Q 14.5 64.65625 8.015625 75.875 
z
" id="DejaVuSans-41"/>
     </defs>
     <g transform="translate(77.764078 342.217594)scale(0.17 -0.17)">
      <use xlink:href="#DejaVuSans-108"/>
      <use x="27.783203" xlink:href="#DejaVuSans-111"/>
      <use x="88.964844" xlink:href="#DejaVuSans-103"/>
      <use x="152.441406" xlink:href="#DejaVuSans-49"/>
      <use x="216.064453" xlink:href="#DejaVuSans-48"/>
      <use x="279.6875" xlink:href="#DejaVuSans-40"/>
      <use x="318.701172" xlink:href="#DejaVuSans-35"/>
      <use x="402.490234" xlink:href="#DejaVuSans-32"/>
      <use x="434.277344" xlink:href="#DejaVuSans-102"/>
      <use x="463.982422" xlink:href="#DejaVuSans-45"/>
      <use x="500.066406" xlink:href="#DejaVuSans-101"/>
      <use x="561.589844" xlink:href="#DejaVuSans-118"/>
      <use x="620.769531" xlink:href="#DejaVuSans-97"/>
      <use x="682.048828" xlink:href="#DejaVuSans-108"/>
      <use x="709.832031" xlink:href="#DejaVuSans-115"/>
      <use x="761.931641" xlink:href="#DejaVuSans-32"/>
      <use x="793.71875" xlink:href="#DejaVuSans-47"/>
      <use x="827.410156" xlink:href="#DejaVuSans-32"/>
      <use x="859.197266" xlink:href="#DejaVuSans-100"/>
      <use x="922.673828" xlink:href="#DejaVuSans-105"/>
      <use x="950.457031" xlink:href="#DejaVuSans-109"/>
      <use x="1047.869141" xlink:href="#DejaVuSans-101"/>
      <use x="1109.392578" xlink:href="#DejaVuSans-110"/>
      <use x="1172.771484" xlink:href="#DejaVuSans-115"/>
      <use x="1224.871094" xlink:href="#DejaVuSans-105"/>
      <use x="1252.654297" xlink:href="#DejaVuSans-111"/>
      <use x="1313.835938" xlink:href="#DejaVuSans-110"/>
      <use x="1377.214844" xlink:href="#DejaVuSans-41"/>
     </g>
    </g>
   </g>
   <g id="matplotlib.axis_2">
    <g id="ytick_1">
     <g id="line2d_21">
      <path clip-path="url(#p57d0b059fe)" d="M 57.6 298.944 
L 338.688 298.944 
" style="fill:none;stroke:#b0b0b0;stroke-linecap:square;stroke-width:0.8;"/>
     </g>
     <g id="line2d_22">
      <defs>
       <path d="M 0 0 
L -3.5 0 
" id="meda5906dcc" style="stroke:#000000;stroke-width:0.8;"/>
      </defs>
      <g>
       <use style="stroke:#000000;stroke-width:0.8;" x="57.6" xlink:href="#meda5906dcc" y="298.944"/>
      </g>
     </g>
     <g id="text_6">
      <!-- 0.0 -->
      <defs>
       <path d="M 10.6875 12.40625 
L 21 12.40625 
L 21 0 
L 10.6875 0 
z
" id="DejaVuSans-46"/>
      </defs>
      <g transform="translate(25.155 305.02275)scale(0.16 -0.16)">
       <use xlink:href="#DejaVuSans-48"/>
       <use x="63.623047" xlink:href="#DejaVuSans-46"/>
       <use x="95.410156" xlink:href="#DejaVuSans-48"/>
      </g>
     </g>
    </g>
    <g id="ytick_2">
     <g id="line2d_23">
      <path clip-path="url(#p57d0b059fe)" d="M 57.6 240.431525 
L 338.688 240.431525 
" style="fill:none;stroke:#b0b0b0;stroke-linecap:square;stroke-width:0.8;"/>
     </g>
     <g id="line2d_24">
      <g>
       <use style="stroke:#000000;stroke-width:0.8;" x="57.6" xlink:href="#meda5906dcc" y="240.431525"/>
      </g>
     </g>
     <g id="text_7">
      <!-- 0.2 -->
      <g transform="translate(25.155 246.510275)scale(0.16 -0.16)">
       <use xlink:href="#DejaVuSans-48"/>
       <use x="63.623047" xlink:href="#DejaVuSans-46"/>
       <use x="95.410156" xlink:href="#DejaVuSans-50"/>
      </g>
     </g>
    </g>
    <g id="ytick_3">
     <g id="line2d_25">
      <path clip-path="url(#p57d0b059fe)" d="M 57.6 181.91905 
L 338.688 181.91905 
" style="fill:none;stroke:#b0b0b0;stroke-linecap:square;stroke-width:0.8;"/>
     </g>
     <g id="line2d_26">
      <g>
       <use style="stroke:#000000;stroke-width:0.8;" x="57.6" xlink:href="#meda5906dcc" y="181.91905"/>
      </g>
     </g>
     <g id="text_8">
      <!-- 0.4 -->
      <g transform="translate(25.155 187.9978)scale(0.16 -0.16)">
       <use xlink:href="#DejaVuSans-48"/>
       <use x="63.623047" xlink:href="#DejaVuSans-46"/>
       <use x="95.410156" xlink:href="#DejaVuSans-52"/>
      </g>
     </g>
    </g>
    <g id="ytick_4">
     <g id="line2d_27">
      <path clip-path="url(#p57d0b059fe)" d="M 57.6 123.406574 
L 338.688 123.406574 
" style="fill:none;stroke:#b0b0b0;stroke-linecap:square;stroke-width:0.8;"/>
     </g>
     <g id="line2d_28">
      <g>
       <use style="stroke:#000000;stroke-width:0.8;" x="57.6" xlink:href="#meda5906dcc" y="123.406574"/>
      </g>
     </g>
     <g id="text_9">
      <!-- 0.6 -->
      <g transform="translate(25.155 129.485324)scale(0.16 -0.16)">
       <use xlink:href="#DejaVuSans-48"/>
       <use x="63.623047" xlink:href="#DejaVuSans-46"/>
       <use x="95.410156" xlink:href="#DejaVuSans-54"/>
      </g>
     </g>
    </g>
    <g id="ytick_5">
     <g id="line2d_29">
      <path clip-path="url(#p57d0b059fe)" d="M 57.6 64.894099 
L 338.688 64.894099 
" style="fill:none;stroke:#b0b0b0;stroke-linecap:square;stroke-width:0.8;"/>
     </g>
     <g id="line2d_30">
      <g>
       <use style="stroke:#000000;stroke-width:0.8;" x="57.6" xlink:href="#meda5906dcc" y="64.894099"/>
      </g>
     </g>
     <g id="text_10">
      <!-- 0.8 -->
      <defs>
       <path d="M 31.78125 34.625 
Q 24.75 34.625 20.71875 30.859375 
Q 16.703125 27.09375 16.703125 20.515625 
Q 16.703125 13.921875 20.71875 10.15625 
Q 24.75 6.390625 31.78125 6.390625 
Q 38.8125 6.390625 42.859375 10.171875 
Q 46.921875 13.96875 46.921875 20.515625 
Q 46.921875 27.09375 42.890625 30.859375 
Q 38.875 34.625 31.78125 34.625 
z
M 21.921875 38.8125 
Q 15.578125 40.375 12.03125 44.71875 
Q 8.5 49.078125 8.5 55.328125 
Q 8.5 64.0625 14.71875 69.140625 
Q 20.953125 74.21875 31.78125 74.21875 
Q 42.671875 74.21875 48.875 69.140625 
Q 55.078125 64.0625 55.078125 55.328125 
Q 55.078125 49.078125 51.53125 44.71875 
Q 48 40.375 41.703125 38.8125 
Q 48.828125 37.15625 52.796875 32.3125 
Q 56.78125 27.484375 56.78125 20.515625 
Q 56.78125 9.90625 50.3125 4.234375 
Q 43.84375 -1.421875 31.78125 -1.421875 
Q 19.734375 -1.421875 13.25 4.234375 
Q 6.78125 9.90625 6.78125 20.515625 
Q 6.78125 27.484375 10.78125 32.3125 
Q 14.796875 37.15625 21.921875 38.8125 
z
M 18.3125 54.390625 
Q 18.3125 48.734375 21.84375 45.5625 
Q 25.390625 42.390625 31.78125 42.390625 
Q 38.140625 42.390625 41.71875 45.5625 
Q 45.3125 48.734375 45.3125 54.390625 
Q 45.3125 60.0625 41.71875 63.234375 
Q 38.140625 66.40625 31.78125 66.40625 
Q 25.390625 66.40625 21.84375 63.234375 
Q 18.3125 60.0625 18.3125 54.390625 
z
" id="DejaVuSans-56"/>
      </defs>
      <g transform="translate(25.155 70.972849)scale(0.16 -0.16)">
       <use xlink:href="#DejaVuSans-48"/>
       <use x="63.623047" xlink:href="#DejaVuSans-46"/>
       <use x="95.410156" xlink:href="#DejaVuSans-56"/>
      </g>
     </g>
    </g>
    <g id="ytick_6">
     <g id="line2d_31">
      <path clip-path="url(#p57d0b059fe)" d="M 57.6 6.381624 
L 338.688 6.381624 
" style="fill:none;stroke:#b0b0b0;stroke-linecap:square;stroke-width:0.8;"/>
     </g>
     <g id="line2d_32">
      <g>
       <use style="stroke:#000000;stroke-width:0.8;" x="57.6" xlink:href="#meda5906dcc" y="6.381624"/>
      </g>
     </g>
     <g id="text_11">
      <!-- 1.0 -->
      <g transform="translate(25.155 12.460374)scale(0.16 -0.16)">
       <use xlink:href="#DejaVuSans-49"/>
       <use x="63.623047" xlink:href="#DejaVuSans-46"/>
       <use x="95.410156" xlink:href="#DejaVuSans-48"/>
      </g>
     </g>
    </g>
    <g id="text_12">
     <!-- Fraction of function,target pairs -->
     <defs>
      <path d="M 9.8125 72.90625 
L 51.703125 72.90625 
L 51.703125 64.59375 
L 19.671875 64.59375 
L 19.671875 43.109375 
L 48.578125 43.109375 
L 48.578125 34.8125 
L 19.671875 34.8125 
L 19.671875 0 
L 9.8125 0 
z
" id="DejaVuSans-70"/>
      <path d="M 41.109375 46.296875 
Q 39.59375 47.171875 37.8125 47.578125 
Q 36.03125 48 33.890625 48 
Q 26.265625 48 22.1875 43.046875 
Q 18.109375 38.09375 18.109375 28.8125 
L 18.109375 0 
L 9.078125 0 
L 9.078125 54.6875 
L 18.109375 54.6875 
L 18.109375 46.1875 
Q 20.953125 51.171875 25.484375 53.578125 
Q 30.03125 56 36.53125 56 
Q 37.453125 56 38.578125 55.875 
Q 39.703125 55.765625 41.0625 55.515625 
z
" id="DejaVuSans-114"/>
      <path d="M 48.78125 52.59375 
L 48.78125 44.1875 
Q 44.96875 46.296875 41.140625 47.34375 
Q 37.3125 48.390625 33.40625 48.390625 
Q 24.65625 48.390625 19.8125 42.84375 
Q 14.984375 37.3125 14.984375 27.296875 
Q 14.984375 17.28125 19.8125 11.734375 
Q 24.65625 6.203125 33.40625 6.203125 
Q 37.3125 6.203125 41.140625 7.25 
Q 44.96875 8.296875 48.78125 10.40625 
L 48.78125 2.09375 
Q 45.015625 0.34375 40.984375 -0.53125 
Q 36.96875 -1.421875 32.421875 -1.421875 
Q 20.0625 -1.421875 12.78125 6.34375 
Q 5.515625 14.109375 5.515625 27.296875 
Q 5.515625 40.671875 12.859375 48.328125 
Q 20.21875 56 33.015625 56 
Q 37.15625 56 41.109375 55.140625 
Q 45.0625 54.296875 48.78125 52.59375 
z
" id="DejaVuSans-99"/>
      <path d="M 18.3125 70.21875 
L 18.3125 54.6875 
L 36.8125 54.6875 
L 36.8125 47.703125 
L 18.3125 47.703125 
L 18.3125 18.015625 
Q 18.3125 11.328125 20.140625 9.421875 
Q 21.96875 7.515625 27.59375 7.515625 
L 36.8125 7.515625 
L 36.8125 0 
L 27.59375 0 
Q 17.1875 0 13.234375 3.875 
Q 9.28125 7.765625 9.28125 18.015625 
L 9.28125 47.703125 
L 2.6875 47.703125 
L 2.6875 54.6875 
L 9.28125 54.6875 
L 9.28125 70.21875 
z
" id="DejaVuSans-116"/>
      <path d="M 8.5 21.578125 
L 8.5 54.6875 
L 17.484375 54.6875 
L 17.484375 21.921875 
Q 17.484375 14.15625 20.5 10.265625 
Q 23.53125 6.390625 29.59375 6.390625 
Q 36.859375 6.390625 41.078125 11.03125 
Q 45.3125 15.671875 45.3125 23.6875 
L 45.3125 54.6875 
L 54.296875 54.6875 
L 54.296875 0 
L 45.3125 0 
L 45.3125 8.40625 
Q 42.046875 3.421875 37.71875 1 
Q 33.40625 -1.421875 27.6875 -1.421875 
Q 18.265625 -1.421875 13.375 4.4375 
Q 8.5 10.296875 8.5 21.578125 
z
M 31.109375 56 
z
" id="DejaVuSans-117"/>
      <path d="M 11.71875 12.40625 
L 22.015625 12.40625 
L 22.015625 4 
L 14.015625 -11.625 
L 7.71875 -11.625 
L 11.71875 4 
z
" id="DejaVuSans-44"/>
      <path d="M 18.109375 8.203125 
L 18.109375 -20.796875 
L 9.078125 -20.796875 
L 9.078125 54.6875 
L 18.109375 54.6875 
L 18.109375 46.390625 
Q 20.953125 51.265625 25.265625 53.625 
Q 29.59375 56 35.59375 56 
Q 45.5625 56 51.78125 48.09375 
Q 58.015625 40.1875 58.015625 27.296875 
Q 58.015625 14.40625 51.78125 6.484375 
Q 45.5625 -1.421875 35.59375 -1.421875 
Q 29.59375 -1.421875 25.265625 0.953125 
Q 20.953125 3.328125 18.109375 8.203125 
z
M 48.6875 27.296875 
Q 48.6875 37.203125 44.609375 42.84375 
Q 40.53125 48.484375 33.40625 48.484375 
Q 26.265625 48.484375 22.1875 42.84375 
Q 18.109375 37.203125 18.109375 27.296875 
Q 18.109375 17.390625 22.1875 11.75 
Q 26.265625 6.109375 33.40625 6.109375 
Q 40.53125 6.109375 44.609375 11.75 
Q 48.6875 17.390625 48.6875 27.296875 
z
" id="DejaVuSans-112"/>
     </defs>
     <g transform="translate(17.619531 285.585)rotate(-90)scale(0.17 -0.17)">
      <use xlink:href="#DejaVuSans-70"/>
      <use x="50.269531" xlink:href="#DejaVuSans-114"/>
      <use x="91.382812" xlink:href="#DejaVuSans-97"/>
      <use x="152.662109" xlink:href="#DejaVuSans-99"/>
      <use x="207.642578" xlink:href="#DejaVuSans-116"/>
      <use x="246.851562" xlink:href="#DejaVuSans-105"/>
      <use x="274.634766" xlink:href="#DejaVuSans-111"/>
      <use x="335.816406" xlink:href="#DejaVuSans-110"/>
      <use x="399.195312" xlink:href="#DejaVuSans-32"/>
      <use x="430.982422" xlink:href="#DejaVuSans-111"/>
      <use x="492.164062" xlink:href="#DejaVuSans-102"/>
      <use x="527.369141" xlink:href="#DejaVuSans-32"/>
      <use x="559.15625" xlink:href="#DejaVuSans-102"/>
      <use x="594.361328" xlink:href="#DejaVuSans-117"/>
      <use x="657.740234" xlink:href="#DejaVuSans-110"/>
      <use x="721.119141" xlink:href="#DejaVuSans-99"/>
      <use x="776.099609" xlink:href="#DejaVuSans-116"/>
      <use x="815.308594" xlink:href="#DejaVuSans-105"/>
      <use x="843.091797" xlink:href="#DejaVuSans-111"/>
      <use x="904.273438" xlink:href="#DejaVuSans-110"/>
      <use x="967.652344" xlink:href="#DejaVuSans-44"/>
      <use x="999.439453" xlink:href="#DejaVuSans-116"/>
      <use x="1038.648438" xlink:href="#DejaVuSans-97"/>
      <use x="1099.927734" xlink:href="#DejaVuSans-114"/>
      <use x="1139.291016" xlink:href="#DejaVuSans-103"/>
      <use x="1202.767578" xlink:href="#DejaVuSans-101"/>
      <use x="1264.291016" xlink:href="#DejaVuSans-116"/>
      <use x="1303.5" xlink:href="#DejaVuSans-32"/>
      <use x="1335.287109" xlink:href="#DejaVuSans-112"/>
      <use x="1398.763672" xlink:href="#DejaVuSans-97"/>
      <use x="1460.042969" xlink:href="#DejaVuSans-105"/>
      <use x="1487.826172" xlink:href="#DejaVuSans-114"/>
      <use x="1528.939453" xlink:href="#DejaVuSans-115"/>
     </g>
    </g>
   </g>
   <g id="line2d_33">
    <defs>
     <path d="M 0 1.5 
C 0.397805 1.5 0.77937 1.341951 1.06066 1.06066 
C 1.341951 0.77937 1.5 0.397805 1.5 0 
C 1.5 -0.397805 1.341951 -0.77937 1.06066 -1.06066 
C 0.77937 -1.341951 0.397805 -1.5 0 -1.5 
C -0.397805 -1.5 -0.77937 -1.341951 -1.06066 -1.06066 
C -1.341951 -0.77937 -1.5 -0.397805 -1.5 0 
C -1.5 0.397805 -1.341951 0.77937 -1.06066 1.06066 
C -0.77937 1.341951 -0.397805 1.5 0 1.5 
z
" id="mecee2339ae" style="stroke:#f5deb3;"/>
    </defs>
    <g>
     <use style="fill:#f5deb3;stroke:#f5deb3;" x="150.401087" xlink:href="#mecee2339ae" y="6.381624"/>
     <use style="fill:#f5deb3;stroke:#f5deb3;" x="150.401087" xlink:href="#mecee2339ae" y="6.381624"/>
    </g>
   </g>
   <g id="line2d_34">
    <defs>
     <path d="M 0 1.5 
C 0.397805 1.5 0.77937 1.341951 1.06066 1.06066 
C 1.341951 0.77937 1.5 0.397805 1.5 0 
C 1.5 -0.397805 1.341951 -0.77937 1.06066 -1.06066 
C 0.77937 -1.341951 0.397805 -1.5 0 -1.5 
C -0.397805 -1.5 -0.77937 -1.341951 -1.06066 -1.06066 
C -1.341951 -0.77937 -1.5 -0.397805 -1.5 0 
C -1.5 0.397805 -1.341951 0.77937 -1.06066 1.06066 
C -0.77937 1.341951 -0.397805 1.5 0 1.5 
z
" id="m68504aefdf" style="stroke:#000080;"/>
    </defs>
    <g>
     <use style="fill:#000080;stroke:#000080;" x="174.261802" xlink:href="#m68504aefdf" y="232.974052"/>
     <use style="fill:#000080;stroke:#000080;" x="174.261802" xlink:href="#m68504aefdf" y="232.974052"/>
    </g>
   </g>
   <g id="line2d_35">
    <path d="M 38.440992 298.944 
L 38.440992 297.653284 
L 50.52898 297.653284 
L 50.52898 297.509871 
L 57.6 297.509871 
L 57.6 297.366458 
L 62.616969 297.366458 
L 62.616969 296.792806 
L 66.508432 296.792806 
L 66.508432 294.354786 
L 69.687988 294.354786 
L 69.687988 293.637722 
L 72.376266 293.637722 
L 72.376266 292.777244 
L 74.704957 292.777244 
L 74.704957 292.490418 
L 78.59642 292.490418 
L 78.59642 291.343115 
L 80.258561 291.343115 
L 80.258561 289.908985 
L 81.775977 289.908985 
L 81.775977 289.62216 
L 83.171864 289.62216 
L 83.171864 288.18803 
L 84.464254 288.18803 
L 84.464254 287.18414 
L 85.66744 287.18414 
L 85.66744 286.610488 
L 86.792945 286.610488 
L 86.792945 285.176359 
L 87.850195 285.176359 
L 87.850195 284.315881 
L 88.846997 284.315881 
L 88.846997 283.311991 
L 89.78989 283.311991 
L 89.78989 283.025165 
L 90.684409 283.025165 
L 90.684409 280.873971 
L 91.535274 280.873971 
L 91.535274 280.013493 
L 92.34655 280.013493 
L 92.34655 279.009603 
L 93.121756 279.009603 
L 93.121756 278.292538 
L 93.863965 278.292538 
L 93.863965 276.714996 
L 94.575872 276.714996 
L 94.575872 275.137454 
L 95.259853 275.137454 
L 95.259853 274.850628 
L 95.918017 274.850628 
L 95.918017 273.846737 
L 96.552242 273.846737 
L 96.552242 271.982369 
L 97.755429 271.982369 
L 97.755429 271.695543 
L 98.32726 271.695543 
L 98.32726 270.404827 
L 98.880934 270.404827 
L 98.880934 269.544349 
L 99.41757 269.544349 
L 99.41757 268.540459 
L 99.938184 268.540459 
L 99.938184 267.823394 
L 100.443706 267.823394 
L 100.443706 266.962917 
L 104.826449 266.962917 
L 104.826449 266.819504 
L 106.311539 266.819504 
L 106.311539 266.676091 
L 107.009204 266.676091 
L 107.009204 265.959026 
L 107.680028 265.959026 
L 107.680028 265.6722 
L 108.326001 265.6722 
L 108.326001 265.528787 
L 108.948899 265.528787 
L 108.948899 265.241962 
L 109.550313 265.241962 
L 109.550313 265.098549 
L 109.843417 265.098549 
L 109.843417 264.381484 
L 110.415248 264.381484 
L 110.415248 264.238071 
L 110.694282 264.238071 
L 110.694282 263.377593 
L 111.239304 263.377593 
L 111.239304 263.234181 
L 111.505558 263.234181 
L 111.505558 262.803942 
L 111.767808 262.803942 
L 111.767808 262.086877 
L 112.026172 262.086877 
L 112.026172 261.513225 
L 112.280765 261.513225 
L 112.280765 261.2264 
L 112.531694 261.2264 
L 112.531694 260.652748 
L 114.641021 260.652748 
L 114.641021 260.509335 
L 115.502395 260.509335 
L 115.502395 260.365922 
L 115.711251 260.365922 
L 115.711251 260.222509 
L 116.121606 260.222509 
L 116.121606 259.79227 
L 116.323218 259.79227 
L 116.323218 259.648857 
L 116.914437 259.648857 
L 116.914437 259.505444 
L 117.107138 259.505444 
L 117.107138 259.362031 
L 117.486268 259.362031 
L 117.486268 259.218619 
L 117.672786 259.218619 
L 117.672786 259.075206 
L 117.857331 259.075206 
L 117.857331 258.78838 
L 118.220662 258.78838 
L 118.220662 258.214728 
L 118.399528 258.214728 
L 118.399528 257.784489 
L 118.751849 257.784489 
L 118.751849 257.641076 
L 118.925375 257.641076 
L 118.925375 257.35425 
L 119.097192 257.35425 
L 119.097192 256.493773 
L 119.267333 256.493773 
L 119.267333 256.206947 
L 119.43583 256.206947 
L 119.43583 255.633295 
L 119.602714 255.633295 
L 119.602714 255.489882 
L 121.189196 255.489882 
L 121.189196 255.059644 
L 122.076131 255.059644 
L 122.076131 254.629405 
L 122.219665 254.629405 
L 122.219665 254.485992 
L 122.643312 254.485992 
L 122.643312 254.342579 
L 123.056911 254.342579 
L 123.056911 254.199166 
L 123.192626 254.199166 
L 123.192626 254.055753 
L 123.327293 254.055753 
L 123.327293 253.91234 
L 123.460928 253.91234 
L 123.460928 253.768927 
L 123.593547 253.768927 
L 123.593547 253.338688 
L 123.725164 253.338688 
L 123.725164 253.195275 
L 123.985457 253.195275 
L 123.985457 253.051863 
L 124.114161 253.051863 
L 124.114161 252.334798 
L 124.241922 252.334798 
L 124.241922 251.761146 
L 124.368753 251.761146 
L 124.368753 251.617733 
L 124.619683 251.617733 
L 124.619683 251.330907 
L 125.822869 251.330907 
L 125.822869 251.187494 
L 126.948374 251.187494 
L 126.948374 251.044082 
L 127.165014 251.044082 
L 127.165014 250.900669 
L 127.378995 250.900669 
L 127.48501 250.613843 
L 127.695124 250.613843 
L 127.799239 250.183604 
L 128.107907 250.183604 
L 128.209594 249.609952 
L 128.411207 249.609952 
L 128.511146 249.323126 
L 130.576266 249.323126 
L 130.664567 249.036301 
L 130.752422 249.036301 
L 130.752422 248.606062 
L 131.099484 248.606062 
L 131.099484 248.319236 
L 131.439773 248.319236 
L 131.439773 247.602171 
L 133.503183 247.602171 
L 133.57787 247.315345 
L 134.164119 247.315345 
L 134.164119 247.02852 
L 135.943785 247.02852 
L 136.008736 246.741694 
L 136.202149 246.741694 
L 136.266147 246.454868 
L 136.393441 246.454868 
L 136.456742 246.168042 
L 136.519813 246.168042 
L 136.582658 245.450977 
L 137.558536 245.450977 
L 137.558536 245.307564 
L 138.141844 245.307564 
L 138.141844 245.164151 
L 138.369812 245.164151 
L 138.369812 245.020738 
L 138.538853 245.020738 
L 138.594838 244.016848 
L 140.246813 244.016848 
L 140.348205 243.586609 
L 140.39868 243.586609 
L 140.44901 243.012957 
L 141.941279 243.012957 
L 142.033307 242.726132 
L 142.07914 242.726132 
L 142.124852 242.15248 
L 142.215919 242.15248 
L 142.215919 242.009067 
L 143.31586 242.009067 
L 143.31586 241.865654 
L 143.44331 241.865654 
L 143.485587 241.578828 
L 143.653678 241.578828 
L 143.653678 241.148589 
L 144.708467 241.148589 
L 144.747789 240.861764 
L 145.020588 240.861764 
L 145.059213 240.574938 
L 146.071013 240.574938 
L 146.071013 240.431525 
L 146.216039 240.431525 
L 146.216039 240.288112 
L 146.359869 240.288112 
L 146.359869 240.001286 
L 147.266916 240.001286 
L 147.266916 239.857873 
L 147.570215 239.857873 
L 147.570215 239.427634 
L 148.701984 239.427634 
L 148.701984 239.140808 
L 149.764758 239.140808 
L 149.764758 238.71057 
L 150.738632 238.71057 
L 150.766468 238.423744 
L 151.124351 238.423744 
L 151.124351 238.280331 
L 151.713753 238.280331 
L 151.713753 238.136918 
L 152.410901 238.136918 
L 152.410901 237.850092 
L 152.612222 237.850092 
L 152.612222 237.563266 
L 154.281186 237.563266 
L 154.281186 237.419853 
L 155.783437 237.419853 
L 155.804285 236.846202 
L 156.337763 236.846202 
L 156.337763 236.702789 
L 156.498681 236.702789 
L 156.518691 236.415963 
L 157.697862 236.415963 
L 157.697862 236.27255 
L 157.86528 236.27255 
L 157.86528 236.129137 
L 158.358103 236.129137 
L 158.358103 235.985724 
L 159.708245 235.985724 
L 159.708245 235.698898 
L 160.774311 235.698898 
L 160.774311 235.555485 
L 161.253399 235.555485 
L 161.253399 235.412072 
L 161.896878 235.412072 
L 161.896878 235.268659 
L 162.346481 235.268659 
L 162.403659 234.838421 
L 164.737701 234.838421 
L 164.737701 234.695008 
L 165.169236 234.695008 
L 165.169236 234.551595 
L 165.9084 234.551595 
L 165.98992 234.121356 
L 167.470505 234.121356 
L 167.470505 233.977943 
L 168.202038 233.977943 
L 168.283721 233.691117 
L 168.626667 233.691117 
L 168.636653 233.404291 
L 169.60737 233.404291 
L 169.60737 233.260878 
L 171.754542 233.260878 
L 171.754542 233.117465 
L 174.261802 233.117465 
L 174.261802 232.974052 
L 338.688 232.974052 
L 338.688 232.974052 
" style="fill:none;stroke:#000080;stroke-linecap:square;stroke-width:1.5;"/>
   </g>
   <g id="line2d_36">
    <defs>
     <path d="M 0 6 
C 1.591219 6 3.117479 5.367802 4.242641 4.242641 
C 5.367802 3.117479 6 1.591219 6 0 
C 6 -1.591219 5.367802 -3.117479 4.242641 -4.242641 
C 3.117479 -5.367802 1.591219 -6 0 -6 
C -1.591219 -6 -3.117479 -5.367802 -4.242641 -4.242641 
C -5.367802 -3.117479 -6 -1.591219 -6 0 
C -6 1.591219 -5.367802 3.117479 -4.242641 4.242641 
C -3.117479 5.367802 -1.591219 6 0 6 
z
" id="m6968ad1cbf" style="stroke:#000080;stroke-width:1.5;"/>
    </defs>
    <g>
     <use style="fill-opacity:0;stroke:#000080;stroke-width:1.5;" x="116.323218" xlink:href="#m6968ad1cbf" y="259.648857"/>
     <use style="fill-opacity:0;stroke:#000080;stroke-width:1.5;" x="174.261802" xlink:href="#m6968ad1cbf" y="233.117465"/>
     <use style="fill-opacity:0;stroke:#000080;stroke-width:1.5;" x="174.261802" xlink:href="#m6968ad1cbf" y="233.117465"/>
     <use style="fill-opacity:0;stroke:#000080;stroke-width:1.5;" x="174.261802" xlink:href="#m6968ad1cbf" y="232.974052"/>
     <use style="fill-opacity:0;stroke:#000080;stroke-width:1.5;" x="174.261802" xlink:href="#m6968ad1cbf" y="232.974052"/>
     <use style="fill-opacity:0;stroke:#000080;stroke-width:1.5;" x="338.688" xlink:href="#m6968ad1cbf" y="232.974052"/>
    </g>
   </g>
   <g id="line2d_37">
    <path style="fill:none;stroke:#000080;stroke-linecap:square;stroke-width:1.5;"/>
    <g/>
   </g>
   <g id="line2d_38">
    <path clip-path="url(#p57d0b059fe)" d="M 100.443706 266.962917 
" style="fill:none;stroke:#000080;stroke-linecap:square;stroke-width:1.5;"/>
    <defs>
     <path d="M -12 12 
L 12 -12 
M -12 -12 
L 12 12 
" id="m7681b5d861" style="stroke:#000080;"/>
    </defs>
    <g clip-path="url(#p57d0b059fe)">
     <use style="fill:#000080;stroke:#000080;" x="100.443706" xlink:href="#m7681b5d861" y="266.962917"/>
    </g>
   </g>
   <g id="line2d_39">
    <defs>
     <path d="M 0 1.5 
C 0.397805 1.5 0.77937 1.341951 1.06066 1.06066 
C 1.341951 0.77937 1.5 0.397805 1.5 0 
C 1.5 -0.397805 1.341951 -0.77937 1.06066 -1.06066 
C 0.77937 -1.341951 0.397805 -1.5 0 -1.5 
C -0.397805 -1.5 -0.77937 -1.341951 -1.06066 -1.06066 
C -1.341951 -0.77937 -1.5 -0.397805 -1.5 0 
C -1.5 0.397805 -1.341951 0.77937 -1.06066 1.06066 
C -0.77937 1.341951 -0.397805 1.5 0 1.5 
z
" id="md543493f03" style="stroke:#ff00ff;"/>
    </defs>
    <g>
     <use style="fill:#ff00ff;stroke:#ff00ff;" x="222.474927" xlink:href="#md543493f03" y="69.483313"/>
     <use style="fill:#ff00ff;stroke:#ff00ff;" x="222.474927" xlink:href="#md543493f03" y="69.483313"/>
    </g>
   </g>
   <g id="line2d_40">
    <path d="M 38.440992 298.944 
L 38.440992 289.62216 
L 85.66744 289.62216 
L 85.66744 288.905095 
L 86.792945 288.905095 
L 86.792945 288.761682 
L 89.78989 288.761682 
L 89.78989 288.618269 
L 92.34655 288.618269 
L 92.34655 288.474856 
L 94.575872 288.474856 
L 94.575872 288.331443 
L 95.259853 288.331443 
L 95.259853 288.044617 
L 95.918017 288.044617 
L 95.918017 287.470966 
L 96.552242 287.470966 
L 96.552242 287.040727 
L 97.16421 287.040727 
L 97.16421 286.753901 
L 97.755429 286.753901 
L 97.755429 286.610488 
L 98.32726 286.610488 
L 98.32726 285.893423 
L 98.880934 285.893423 
L 98.880934 285.176359 
L 99.41757 285.176359 
L 99.41757 284.315881 
L 99.938184 284.315881 
L 99.938184 283.025165 
L 100.443706 283.025165 
L 100.443706 282.164687 
L 100.934985 282.164687 
L 100.934985 281.447623 
L 102.772397 281.447623 
L 102.772397 280.587145 
L 103.203018 280.587145 
L 103.203018 280.156906 
L 104.434538 280.156906 
L 104.434538 280.013493 
L 104.826449 280.013493 
L 104.826449 279.439842 
L 105.209745 279.439842 
L 105.209745 278.722777 
L 105.584798 278.722777 
L 105.584798 278.292538 
L 105.951954 278.292538 
L 105.951954 278.005712 
L 106.311539 278.005712 
L 106.311539 277.432061 
L 107.680028 277.432061 
L 107.680028 277.288648 
L 108.006005 277.288648 
L 108.006005 277.145235 
L 108.326001 277.145235 
L 108.326001 277.001822 
L 110.131676 277.001822 
L 110.131676 276.714996 
L 110.968922 276.714996 
L 110.968922 276.42817 
L 111.239304 276.42817 
L 111.239304 276.284757 
L 111.767808 276.284757 
L 111.767808 276.141344 
L 112.531694 276.141344 
L 112.531694 275.854518 
L 112.779064 275.854518 
L 112.779064 274.420389 
L 113.022974 274.420389 
L 113.022974 274.276976 
L 113.26352 274.276976 
L 113.26352 273.703324 
L 113.500792 273.703324 
L 113.500792 273.559911 
L 113.73488 273.559911 
L 113.73488 273.273086 
L 113.965867 273.273086 
L 113.965867 273.129673 
L 114.418861 273.129673 
L 114.418861 272.699434 
L 114.641021 272.699434 
L 114.641021 272.412608 
L 114.860386 272.412608 
L 114.860386 271.838956 
L 115.077025 271.838956 
L 115.077025 271.695543 
L 115.291007 271.695543 
L 115.291007 271.121892 
L 115.711251 271.121892 
L 115.711251 270.978479 
L 115.917635 270.978479 
L 115.917635 270.835066 
L 116.323218 270.835066 
L 116.323218 270.261414 
L 116.522527 270.261414 
L 116.522527 269.974588 
L 116.719583 269.974588 
L 116.719583 269.687762 
L 116.914437 269.687762 
L 116.914437 269.400937 
L 117.107138 269.400937 
L 117.107138 269.257524 
L 117.672786 269.257524 
L 117.672786 269.114111 
L 117.857331 269.114111 
L 117.857331 268.970698 
L 118.039942 268.970698 
L 118.039942 268.683872 
L 118.220662 268.683872 
L 118.220662 268.540459 
L 118.751849 268.540459 
L 118.751849 267.679981 
L 118.925375 267.679981 
L 118.925375 267.10633 
L 119.097192 267.10633 
L 119.097192 266.819504 
L 119.43583 266.819504 
L 119.43583 266.389265 
L 119.602714 266.389265 
L 119.602714 266.245852 
L 119.768017 266.245852 
L 119.768017 265.815613 
L 119.931767 265.815613 
L 119.931767 265.385374 
L 120.093994 265.385374 
L 120.093994 264.955136 
L 120.254726 264.955136 
L 120.254726 264.811723 
L 120.41399 264.811723 
L 120.41399 264.094658 
L 120.571812 264.094658 
L 120.571812 263.664419 
L 120.728219 263.664419 
L 120.728219 263.090768 
L 121.036887 263.090768 
L 121.036887 262.373703 
L 121.189196 262.373703 
L 121.189196 262.23029 
L 121.489881 262.23029 
L 121.489881 261.943464 
L 121.638301 261.943464 
L 121.638301 261.369812 
L 121.785469 261.369812 
L 121.785469 261.082987 
L 121.931406 261.082987 
L 121.931406 260.509335 
L 122.076131 260.509335 
L 122.076131 260.365922 
L 122.219665 260.365922 
L 122.219665 260.079096 
L 122.362027 260.079096 
L 122.362027 259.648857 
L 122.643312 259.648857 
L 122.643312 259.505444 
L 122.782271 259.505444 
L 122.782271 259.362031 
L 123.056911 259.362031 
L 123.056911 259.218619 
L 123.192626 259.218619 
L 123.192626 258.931793 
L 123.327293 258.931793 
L 123.327293 258.358141 
L 123.460928 258.358141 
L 123.460928 258.071315 
L 123.593547 258.071315 
L 123.593547 257.641076 
L 123.725164 257.641076 
L 123.725164 257.35425 
L 123.855796 257.35425 
L 123.855796 256.924012 
L 123.985457 256.924012 
L 123.985457 256.493773 
L 124.114161 256.493773 
L 124.114161 255.489882 
L 124.241922 255.489882 
L 124.241922 255.059644 
L 124.494669 255.059644 
L 124.494669 254.772818 
L 124.743806 254.772818 
L 124.743806 254.199166 
L 124.989434 254.199166 
L 124.989434 254.055753 
L 125.110962 254.055753 
L 125.110962 253.625514 
L 125.23165 253.625514 
L 125.23165 253.482101 
L 125.351508 253.482101 
L 125.351508 253.195275 
L 125.470548 253.195275 
L 125.470548 253.051863 
L 125.706218 253.051863 
L 125.706218 252.621624 
L 125.938745 252.621624 
L 125.938745 251.761146 
L 126.053856 251.761146 
L 126.053856 251.617733 
L 126.168212 251.617733 
L 126.168212 251.044082 
L 126.281824 251.044082 
L 126.281824 250.757256 
L 126.50685 250.757256 
L 126.50685 250.47043 
L 126.618283 250.47043 
L 126.618283 250.183604 
L 126.839037 250.183604 
L 126.839037 250.040191 
L 127.165014 250.040191 
L 127.272333 249.466539 
L 127.378995 249.466539 
L 127.378995 249.323126 
L 127.590383 249.323126 
L 127.590383 248.892888 
L 127.799239 248.892888 
L 127.902737 248.319236 
L 128.005624 248.319236 
L 128.107907 248.03241 
L 128.209594 248.03241 
L 128.209594 247.888997 
L 128.411207 247.888997 
L 128.511146 246.885107 
L 128.807571 246.885107 
L 128.905271 246.024629 
L 129.002426 246.024629 
L 129.002426 245.737803 
L 129.195127 245.737803 
L 129.290685 245.450977 
L 129.385722 245.450977 
L 129.480244 245.164151 
L 129.574256 245.164151 
L 129.667765 244.160261 
L 129.760775 244.160261 
L 129.760775 243.586609 
L 129.945319 243.586609 
L 130.036864 242.582719 
L 130.127931 242.582719 
L 130.218525 242.295893 
L 130.30865 242.295893 
L 130.30865 241.865654 
L 130.487516 241.865654 
L 130.576266 241.148589 
L 130.664567 241.148589 
L 130.752422 240.001286 
L 130.839837 240.001286 
L 130.839837 239.427634 
L 131.013364 239.427634 
L 131.099484 238.853983 
L 131.185181 238.853983 
L 131.270459 238.280331 
L 131.355321 238.280331 
L 131.439773 237.27644 
L 131.523818 237.27644 
L 131.60746 236.27255 
L 131.690703 236.27255 
L 131.77355 235.412072 
L 131.856005 235.412072 
L 131.938072 234.981833 
L 132.019755 234.981833 
L 132.019755 234.551595 
L 132.181982 234.551595 
L 132.262533 233.404291 
L 132.342714 233.404291 
L 132.422528 232.830639 
L 132.501978 232.830639 
L 132.501978 232.543814 
L 132.659801 232.543814 
L 132.73818 231.109684 
L 132.816208 231.109684 
L 132.893889 230.249207 
L 132.971225 230.249207 
L 133.04822 228.671665 
L 133.124876 228.671665 
L 133.201197 227.667774 
L 133.277185 227.667774 
L 133.352844 225.946819 
L 133.428175 225.946819 
L 133.503183 224.51269 
L 133.57787 224.51269 
L 133.652238 223.221973 
L 133.72629 223.221973 
L 133.800029 222.07467 
L 133.873458 222.07467 
L 133.946579 221.357605 
L 134.019394 221.357605 
L 134.091907 219.780063 
L 134.164119 219.780063 
L 134.236034 218.489347 
L 134.307653 218.489347 
L 134.37898 217.772282 
L 134.450015 217.772282 
L 134.520763 216.481566 
L 134.591225 216.481566 
L 134.661403 215.334262 
L 134.7313 215.334262 
L 134.800918 213.039655 
L 134.870259 213.039655 
L 134.939326 211.892352 
L 135.076644 211.892352 
L 135.144899 210.027984 
L 135.212889 210.027984 
L 135.280614 208.307029 
L 135.348078 208.307029 
L 135.415281 206.729486 
L 135.482227 206.729486 
L 135.548916 205.008531 
L 135.615352 205.008531 
L 135.681535 204.004641 
L 135.747468 204.004641 
L 135.813153 203.144163 
L 135.878591 203.144163 
L 135.943785 201.853447 
L 136.008736 201.853447 
L 136.073445 199.702253 
L 136.137916 199.702253 
L 136.137916 198.698362 
L 136.266147 198.698362 
L 136.32991 197.551059 
L 136.393441 197.551059 
L 136.456742 196.547168 
L 136.519813 196.547168 
L 136.519813 195.256452 
L 136.645276 195.256452 
L 136.707671 193.535497 
L 136.769843 193.535497 
L 136.831795 192.531606 
L 136.893527 192.531606 
L 136.955041 191.814542 
L 137.016339 191.814542 
L 137.077422 190.523825 
L 137.138292 190.523825 
L 137.198951 189.376522 
L 137.259399 189.376522 
L 137.319638 188.085805 
L 137.37967 188.085805 
L 137.439497 187.368741 
L 137.499118 187.368741 
L 137.558536 186.221437 
L 137.617753 186.221437 
L 137.676769 185.36096 
L 137.735587 185.36096 
L 137.794206 184.500482 
L 137.852629 184.500482 
L 137.910857 183.066353 
L 137.968891 183.066353 
L 138.026733 181.201985 
L 138.084384 181.201985 
L 138.141844 179.050791 
L 138.199116 179.050791 
L 138.256201 178.0469 
L 138.313099 178.0469 
L 138.369812 176.899597 
L 138.426341 176.899597 
L 138.482688 176.182532 
L 138.538853 176.182532 
L 138.594838 175.608881 
L 138.650644 175.608881 
L 138.761723 174.461577 
L 138.816998 174.461577 
L 138.927025 172.597209 
L 138.981779 172.597209 
L 139.090775 170.876254 
L 139.145019 170.876254 
L 139.253002 170.446015 
L 139.306744 170.446015 
L 139.413734 168.438234 
L 139.466984 168.438234 
L 139.520072 167.290931 
L 139.625765 167.290931 
L 139.730821 166.860692 
L 139.783113 166.860692 
L 139.835248 166.000214 
L 139.939053 166.000214 
L 140.042245 165.28315 
L 140.144829 165.28315 
L 140.195896 164.279259 
L 140.297583 164.279259 
L 140.39868 163.418782 
L 140.44901 163.418782 
L 140.549236 162.988543 
L 140.64889 162.988543 
L 140.698504 161.841239 
L 140.79731 161.841239 
L 140.89556 161.124175 
L 140.944478 161.124175 
L 141.041904 160.550523 
L 141.090414 160.550523 
L 141.187031 159.976871 
L 141.33096 159.976871 
L 141.378673 159.546632 
L 141.47371 159.546632 
L 141.568232 158.255916 
L 141.662245 158.255916 
L 141.709062 157.682264 
L 141.80232 157.682264 
L 141.895083 156.678374 
L 141.941279 156.678374 
L 142.033307 155.674483 
L 142.07914 155.674483 
L 142.170445 154.670593 
L 142.215919 154.670593 
L 142.306513 152.806225 
L 142.351634 152.806225 
L 142.441528 151.802334 
L 142.486301 151.802334 
L 142.53096 151.08527 
L 142.619936 151.08527 
L 142.708461 150.224792 
L 142.752555 150.224792 
L 142.840411 149.077489 
L 142.927826 149.077489 
L 143.014805 147.213121 
L 143.101352 147.213121 
L 143.187472 145.922404 
L 143.273169 145.922404 
L 143.358447 145.20534 
L 143.40093 145.20534 
L 143.485587 144.201449 
L 143.527762 144.201449 
L 143.611807 143.340971 
L 143.653678 143.340971 
L 143.737119 142.337081 
L 143.778691 142.337081 
L 143.861538 140.759539 
L 143.902815 140.759539 
L 143.985075 139.899061 
L 144.026061 139.899061 
L 144.107744 139.038584 
L 144.148442 139.038584 
L 144.229555 138.034693 
L 144.269971 138.034693 
L 144.350522 137.174215 
L 144.390658 137.174215 
L 144.470655 136.313738 
L 144.510517 136.313738 
L 144.589967 135.309847 
L 144.629556 135.309847 
L 144.669057 134.879609 
L 144.747789 134.879609 
L 144.826168 134.019131 
L 144.865226 134.019131 
L 144.865226 133.732305 
L 144.981877 133.732305 
L 145.059213 132.01135 
L 145.097753 132.01135 
L 145.174578 130.290395 
L 145.212864 130.290395 
L 145.289185 129.716743 
L 145.327221 129.716743 
L 145.403044 128.426027 
L 145.440832 128.426027 
L 145.516164 127.13531 
L 145.591172 127.13531 
L 145.665858 125.701181 
L 145.703082 125.701181 
L 145.777292 125.414355 
L 145.814278 125.414355 
L 145.924771 123.549987 
L 145.961446 123.549987 
L 146.071013 122.546097 
L 146.107383 122.546097 
L 146.216039 121.25538 
L 146.252108 121.25538 
L 146.359869 119.391012 
L 146.395642 119.391012 
L 146.502522 118.817361 
L 146.573414 118.817361 
L 146.679213 117.81347 
L 146.714338 117.81347 
L 146.749392 116.809579 
L 146.854132 116.809579 
L 146.958248 115.662276 
L 146.992815 115.662276 
L 147.061745 114.084734 
L 147.130404 114.084734 
L 147.232888 113.511082 
L 147.266916 113.511082 
L 147.368603 112.93743 
L 147.402367 112.93743 
L 147.4697 112.076953 
L 147.570215 112.076953 
L 147.670154 111.359888 
L 147.70334 111.359888 
L 147.802521 110.499411 
L 147.86833 110.499411 
L 147.901141 109.925759 
L 147.999207 109.925759 
L 148.096724 108.635043 
L 148.129109 108.635043 
L 148.225905 108.061391 
L 148.258051 108.061391 
L 148.354135 107.487739 
L 148.386046 107.487739 
L 148.48143 106.770674 
L 148.513109 106.770674 
L 148.607802 106.340436 
L 148.639252 106.340436 
L 148.733265 105.479958 
L 148.76449 105.479958 
L 148.826773 105.049719 
L 148.950676 105.049719 
L 149.043029 104.332655 
L 149.104327 104.332655 
L 149.165411 103.759003 
L 149.407627 103.759003 
L 149.407627 103.61559 
L 149.646525 103.61559 
L 149.705742 103.041938 
L 149.794191 103.041938 
L 149.882194 102.755112 
L 149.940618 102.755112 
L 149.940618 102.611699 
L 150.114722 102.611699 
L 150.143571 102.324874 
L 150.258492 102.324874 
L 150.258492 102.181461 
L 150.401087 102.181461 
L 150.486088 101.751222 
L 150.570677 101.751222 
L 150.626842 101.464396 
L 150.682827 101.464396 
L 150.766468 100.890744 
L 150.79426 100.890744 
L 150.904986 100.030267 
L 151.042412 100.030267 
L 151.124351 99.313202 
L 151.233007 99.313202 
L 151.233007 98.73955 
L 151.367883 98.73955 
L 151.475037 98.309312 
L 151.60806 98.309312 
L 151.60806 98.165899 
L 151.740076 98.165899 
L 151.792604 97.448834 
L 151.871101 97.448834 
L 151.897188 97.018595 
L 152.001148 97.018595 
L 152.104493 95.871292 
L 152.130233 95.871292 
L 152.181601 95.584466 
L 152.283884 95.584466 
L 152.283884 95.441053 
L 152.410901 95.441053 
L 152.461449 95.010814 
L 152.562109 95.010814 
L 152.662192 94.437162 
L 152.687123 94.437162 
L 152.761703 93.576685 
L 152.860649 93.576685 
L 152.959038 92.716207 
L 153.056874 92.716207 
L 153.154164 92.142556 
L 153.250915 92.142556 
L 153.347132 91.712317 
L 153.395042 91.712317 
L 153.395042 91.138665 
L 153.609024 91.138665 
L 153.703291 90.708426 
L 153.726778 90.708426 
L 153.79705 90.4216 
L 154.006185 90.4216 
L 154.098334 89.991362 
L 154.167129 89.991362 
L 154.167129 89.847949 
L 154.685723 89.847949 
L 154.796449 88.844058 
L 155.102793 88.844058 
L 155.12447 88.557232 
L 155.949527 88.557232 
L 155.970177 87.983581 
L 156.236431 87.983581 
L 156.337763 87.553342 
L 157.089232 87.553342 
L 157.089232 87.409929 
L 157.358125 87.409929 
L 157.434196 87.123103 
L 157.846757 87.123103 
L 157.86528 86.836277 
L 158.086033 86.836277 
L 158.195371 86.406038 
L 158.213527 86.406038 
L 158.304027 85.9758 
L 158.447857 85.9758 
L 158.537152 85.402148 
L 158.590511 85.402148 
L 158.590511 85.115322 
L 158.714382 85.115322 
L 158.714382 84.828496 
L 158.924708 84.828496 
L 159.028927 83.824606 
L 159.286782 83.824606 
L 159.337899 83.394367 
L 159.658204 83.394367 
L 159.658204 83.107541 
L 159.807898 83.107541 
L 159.807898 82.820715 
L 160.458086 82.820715 
L 160.458086 82.677302 
L 160.585265 82.677302 
L 160.585265 82.533889 
L 161.161694 82.533889 
L 161.161694 82.247063 
L 161.329454 82.247063 
L 161.420284 81.386586 
L 161.999419 81.386586 
L 161.999419 81.243173 
L 162.173813 81.243173 
L 162.173813 81.09976 
L 162.44642 81.09976 
L 162.474869 80.526108 
L 164.435497 80.526108 
L 164.435497 80.382695 
L 165.471066 80.382695 
L 165.471066 80.239282 
L 165.697012 80.239282 
L 165.697012 80.09587 
L 166.617505 80.09587 
L 166.617505 79.952457 
L 166.972515 79.952457 
L 166.972515 79.809044 
L 167.147346 79.809044 
L 167.147346 79.665631 
L 167.266534 79.665631 
L 167.374185 79.378805 
L 167.427761 79.378805 
L 167.513144 79.091979 
L 167.840107 79.091979 
L 167.881853 78.805153 
L 168.047843 78.805153 
L 168.047843 78.66174 
L 168.354881 78.66174 
L 168.354881 78.518327 
L 168.815417 78.518327 
L 168.845033 78.231501 
L 169.148163 78.231501 
L 169.148163 78.088089 
L 169.360135 78.088089 
L 169.360135 77.944676 
L 169.48419 77.944676 
L 169.522184 77.65785 
L 169.739058 77.65785 
L 169.739058 77.514437 
L 170.137423 77.514437 
L 170.164879 77.227611 
L 170.535846 77.227611 
L 170.589478 76.940785 
L 170.775901 76.940785 
L 170.775901 76.797372 
L 171.211906 76.797372 
L 171.211906 76.653959 
L 171.51075 76.653959 
L 171.51075 76.510546 
L 171.91244 76.510546 
L 171.920711 76.22372 
L 172.482136 76.22372 
L 172.482136 76.080308 
L 174.66913 76.080308 
L 174.66913 75.936895 
L 174.788794 75.936895 
L 174.788794 75.793482 
L 175.197844 75.793482 
L 175.197844 75.650069 
L 175.597519 75.650069 
L 175.597519 75.506656 
L 176.215951 75.506656 
L 176.215951 75.363243 
L 176.567884 75.363243 
L 176.567884 75.21983 
L 176.968661 75.21983 
L 176.968661 75.076417 
L 178.502578 75.076417 
L 178.502578 74.789591 
L 178.845031 74.789591 
L 178.845031 74.646178 
L 178.994487 74.646178 
L 178.994487 74.502765 
L 179.109852 74.502765 
L 179.148138 74.215939 
L 179.574495 74.215939 
L 179.574495 74.072526 
L 179.823292 74.072526 
L 179.92287 73.785701 
L 180.858886 73.785701 
L 180.903405 73.498875 
L 181.962399 73.498875 
L 181.962399 73.355462 
L 184.033489 73.355462 
L 184.033489 73.212049 
L 184.210122 73.212049 
L 184.263172 72.925223 
L 184.907145 72.925223 
L 184.907145 72.78181 
L 185.036253 72.78181 
L 185.063517 72.494984 
L 186.661502 72.494984 
L 186.661502 72.351571 
L 188.480794 72.351571 
L 188.480794 72.208158 
L 188.741181 72.208158 
L 188.741181 72.064745 
L 191.410086 72.064745 
L 191.410086 71.921333 
L 192.089073 71.921333 
L 192.089073 71.77792 
L 192.221239 71.77792 
L 192.221239 71.634507 
L 192.712519 71.634507 
L 192.712519 71.491094 
L 193.396693 71.491094 
L 193.396693 71.347681 
L 200.921903 71.347681 
L 200.921903 71.204268 
L 201.136898 71.204268 
L 201.136898 71.060855 
L 202.699802 71.060855 
L 202.699802 70.917442 
L 203.277614 70.917442 
L 203.277614 70.774029 
L 204.20825 70.774029 
L 204.20825 70.630616 
L 204.684665 70.630616 
L 204.684665 70.487203 
L 206.03813 70.487203 
L 206.03813 70.34379 
L 206.807643 70.34379 
L 206.807643 70.200377 
L 207.152087 70.200377 
L 207.152087 70.056964 
L 207.683471 70.056964 
L 207.683471 69.913552 
L 211.915814 69.913552 
L 211.915814 69.770139 
L 220.815063 69.770139 
L 220.815063 69.626726 
L 222.474927 69.626726 
L 222.474927 69.483313 
L 338.688 69.483313 
L 338.688 69.483313 
" style="fill:none;stroke:#ff00ff;stroke-linecap:square;stroke-width:1.5;"/>
   </g>
   <g id="line2d_41">
    <defs>
     <path d="M -0 8.485281 
L 5.091169 0 
L 0 -8.485281 
L -5.091169 -0 
z
" id="m8df63ed595" style="stroke:#ff00ff;stroke-linejoin:miter;stroke-width:1.5;"/>
    </defs>
    <g>
     <use style="fill-opacity:0;stroke:#ff00ff;stroke-linejoin:miter;stroke-width:1.5;" x="119.43583" xlink:href="#m8df63ed595" y="266.389265"/>
     <use style="fill-opacity:0;stroke:#ff00ff;stroke-linejoin:miter;stroke-width:1.5;" x="145.703082" xlink:href="#m8df63ed595" y="125.557768"/>
     <use style="fill-opacity:0;stroke:#ff00ff;stroke-linejoin:miter;stroke-width:1.5;" x="222.474927" xlink:href="#m8df63ed595" y="69.626726"/>
     <use style="fill-opacity:0;stroke:#ff00ff;stroke-linejoin:miter;stroke-width:1.5;" x="222.474927" xlink:href="#m8df63ed595" y="69.483313"/>
     <use style="fill-opacity:0;stroke:#ff00ff;stroke-linejoin:miter;stroke-width:1.5;" x="222.474927" xlink:href="#m8df63ed595" y="69.483313"/>
     <use style="fill-opacity:0;stroke:#ff00ff;stroke-linejoin:miter;stroke-width:1.5;" x="338.688" xlink:href="#m8df63ed595" y="69.483313"/>
    </g>
   </g>
   <g id="line2d_42">
    <path style="fill:none;stroke:#ff00ff;stroke-linecap:square;stroke-width:1.5;"/>
    <g/>
   </g>
   <g id="line2d_43">
    <path clip-path="url(#p57d0b059fe)" d="M 157.622935 87.123103 
" style="fill:none;stroke:#ff00ff;stroke-linecap:square;stroke-width:1.5;"/>
    <defs>
     <path d="M -12 12 
L 12 -12 
M -12 -12 
L 12 12 
" id="m36e1203b86" style="stroke:#ff00ff;"/>
    </defs>
    <g clip-path="url(#p57d0b059fe)">
     <use style="fill:#ff00ff;stroke:#ff00ff;" x="157.622935" xlink:href="#m36e1203b86" y="87.123103"/>
    </g>
   </g>
   <g id="line2d_44">
    <path d="M 338.688 232.974052 
L 369.60768 293.092752 
" style="fill:none;stroke:#000080;stroke-linecap:square;stroke-width:1.5;"/>
    <g>
     <use style="fill-opacity:0;stroke:#000080;stroke-width:1.5;" x="338.688" xlink:href="#m6968ad1cbf" y="232.974052"/>
     <use style="fill-opacity:0;stroke:#000080;stroke-width:1.5;" x="369.60768" xlink:href="#m6968ad1cbf" y="293.092752"/>
    </g>
   </g>
   <g id="line2d_45">
    <path d="M 338.688 69.483313 
L 369.60768 152.662812 
" style="fill:none;stroke:#ff00ff;stroke-linecap:square;stroke-width:1.5;"/>
    <g>
     <use style="fill-opacity:0;stroke:#ff00ff;stroke-linejoin:miter;stroke-width:1.5;" x="338.688" xlink:href="#m8df63ed595" y="69.483313"/>
     <use style="fill-opacity:0;stroke:#ff00ff;stroke-linejoin:miter;stroke-width:1.5;" x="369.60768" xlink:href="#m8df63ed595" y="152.662812"/>
    </g>
   </g>
   <g id="line2d_46">
    <path d="M 338.688 298.944 
L 338.688 6.381624 
" style="fill:none;stroke:#000000;stroke-linecap:square;stroke-width:1.5;"/>
   </g>
   <g id="patch_3">
    <path d="M 57.6 298.944 
L 57.6 3.456 
" style="fill:none;stroke:#000000;stroke-linecap:square;stroke-linejoin:miter;stroke-width:0.8;"/>
   </g>
   <g id="patch_4">
    <path d="M 338.688 298.944 
L 338.688 3.456 
" style="fill:none;stroke:#000000;stroke-linecap:square;stroke-linejoin:miter;stroke-width:0.8;"/>
   </g>
   <g id="patch_5">
    <path d="M 57.6 298.944 
L 338.688 298.944 
" style="fill:none;stroke:#000000;stroke-linecap:square;stroke-linejoin:miter;stroke-width:0.8;"/>
   </g>
   <g id="patch_6">
    <path d="M 57.6 3.456 
L 338.688 3.456 
" style="fill:none;stroke:#000000;stroke-linecap:square;stroke-linejoin:miter;stroke-width:0.8;"/>
   </g>
   <g id="text_13">
    <!-- gpy lcb -->
    <defs>
     <path d="M 32.171875 -5.078125 
Q 28.375 -14.84375 24.75 -17.8125 
Q 21.140625 -20.796875 15.09375 -20.796875 
L 7.90625 -20.796875 
L 7.90625 -13.28125 
L 13.1875 -13.28125 
Q 16.890625 -13.28125 18.9375 -11.515625 
Q 21 -9.765625 23.484375 -3.21875 
L 25.09375 0.875 
L 2.984375 54.6875 
L 12.5 54.6875 
L 29.59375 11.921875 
L 46.6875 54.6875 
L 56.203125 54.6875 
z
" id="DejaVuSans-121"/>
     <path d="M 48.6875 27.296875 
Q 48.6875 37.203125 44.609375 42.84375 
Q 40.53125 48.484375 33.40625 48.484375 
Q 26.265625 48.484375 22.1875 42.84375 
Q 18.109375 37.203125 18.109375 27.296875 
Q 18.109375 17.390625 22.1875 11.75 
Q 26.265625 6.109375 33.40625 6.109375 
Q 40.53125 6.109375 44.609375 11.75 
Q 48.6875 17.390625 48.6875 27.296875 
z
M 18.109375 46.390625 
Q 20.953125 51.265625 25.265625 53.625 
Q 29.59375 56 35.59375 56 
Q 45.5625 56 51.78125 48.09375 
Q 58.015625 40.1875 58.015625 27.296875 
Q 58.015625 14.40625 51.78125 6.484375 
Q 45.5625 -1.421875 35.59375 -1.421875 
Q 29.59375 -1.421875 25.265625 0.953125 
Q 20.953125 3.328125 18.109375 8.203125 
L 18.109375 0 
L 9.078125 0 
L 9.078125 75.984375 
L 18.109375 75.984375 
z
" id="DejaVuSans-98"/>
    </defs>
    <g transform="translate(375.22944 297.78369)scale(0.17 -0.17)">
     <use xlink:href="#DejaVuSans-103"/>
     <use x="63.476562" xlink:href="#DejaVuSans-112"/>
     <use x="126.953125" xlink:href="#DejaVuSans-121"/>
     <use x="186.132812" xlink:href="#DejaVuSans-32"/>
     <use x="217.919922" xlink:href="#DejaVuSans-108"/>
     <use x="245.703125" xlink:href="#DejaVuSans-99"/>
     <use x="300.683594" xlink:href="#DejaVuSans-98"/>
    </g>
   </g>
   <g id="text_14">
    <!-- scp fmin -->
    <g transform="translate(375.22944 157.353749)scale(0.17 -0.17)">
     <use xlink:href="#DejaVuSans-115"/>
     <use x="52.099609" xlink:href="#DejaVuSans-99"/>
     <use x="107.080078" xlink:href="#DejaVuSans-112"/>
     <use x="170.556641" xlink:href="#DejaVuSans-32"/>
     <use x="202.34375" xlink:href="#DejaVuSans-102"/>
     <use x="237.548828" xlink:href="#DejaVuSans-109"/>
     <use x="334.960938" xlink:href="#DejaVuSans-105"/>
     <use x="362.744141" xlink:href="#DejaVuSans-110"/>
    </g>
   </g>
   <g id="text_15">
    <!-- best 2009 -->
    <defs>
     <path d="M 10.984375 1.515625 
L 10.984375 10.5 
Q 14.703125 8.734375 18.5 7.8125 
Q 22.3125 6.890625 25.984375 6.890625 
Q 35.75 6.890625 40.890625 13.453125 
Q 46.046875 20.015625 46.78125 33.40625 
Q 43.953125 29.203125 39.59375 26.953125 
Q 35.25 24.703125 29.984375 24.703125 
Q 19.046875 24.703125 12.671875 31.3125 
Q 6.296875 37.9375 6.296875 49.421875 
Q 6.296875 60.640625 12.9375 67.421875 
Q 19.578125 74.21875 30.609375 74.21875 
Q 43.265625 74.21875 49.921875 64.515625 
Q 56.59375 54.828125 56.59375 36.375 
Q 56.59375 19.140625 48.40625 8.859375 
Q 40.234375 -1.421875 26.421875 -1.421875 
Q 22.703125 -1.421875 18.890625 -0.6875 
Q 15.09375 0.046875 10.984375 1.515625 
z
M 30.609375 32.421875 
Q 37.25 32.421875 41.125 36.953125 
Q 45.015625 41.5 45.015625 49.421875 
Q 45.015625 57.28125 41.125 61.84375 
Q 37.25 66.40625 30.609375 66.40625 
Q 23.96875 66.40625 20.09375 61.84375 
Q 16.21875 57.28125 16.21875 49.421875 
Q 16.21875 41.5 20.09375 36.953125 
Q 23.96875 32.421875 30.609375 32.421875 
z
" id="DejaVuSans-57"/>
    </defs>
    <g transform="translate(375.22944 16.923809)scale(0.17 -0.17)">
     <use xlink:href="#DejaVuSans-98"/>
     <use x="63.476562" xlink:href="#DejaVuSans-101"/>
     <use x="125" xlink:href="#DejaVuSans-115"/>
     <use x="177.099609" xlink:href="#DejaVuSans-116"/>
     <use x="216.308594" xlink:href="#DejaVuSans-32"/>
     <use x="248.095703" xlink:href="#DejaVuSans-50"/>
     <use x="311.71875" xlink:href="#DejaVuSans-48"/>
     <use x="375.341797" xlink:href="#DejaVuSans-48"/>
     <use x="438.964844" xlink:href="#DejaVuSans-57"/>
    </g>
   </g>
   <g id="text_16">
    <!-- bbob f6-f9, 3-D -->
    <defs>
     <path d="M 40.578125 39.3125 
Q 47.65625 37.796875 51.625 33 
Q 55.609375 28.21875 55.609375 21.1875 
Q 55.609375 10.40625 48.1875 4.484375 
Q 40.765625 -1.421875 27.09375 -1.421875 
Q 22.515625 -1.421875 17.65625 -0.515625 
Q 12.796875 0.390625 7.625 2.203125 
L 7.625 11.71875 
Q 11.71875 9.328125 16.59375 8.109375 
Q 21.484375 6.890625 26.8125 6.890625 
Q 36.078125 6.890625 40.9375 10.546875 
Q 45.796875 14.203125 45.796875 21.1875 
Q 45.796875 27.640625 41.28125 31.265625 
Q 36.765625 34.90625 28.71875 34.90625 
L 20.21875 34.90625 
L 20.21875 43.015625 
L 29.109375 43.015625 
Q 36.375 43.015625 40.234375 45.921875 
Q 44.09375 48.828125 44.09375 54.296875 
Q 44.09375 59.90625 40.109375 62.90625 
Q 36.140625 65.921875 28.71875 65.921875 
Q 24.65625 65.921875 20.015625 65.03125 
Q 15.375 64.15625 9.8125 62.3125 
L 9.8125 71.09375 
Q 15.4375 72.65625 20.34375 73.4375 
Q 25.25 74.21875 29.59375 74.21875 
Q 40.828125 74.21875 47.359375 69.109375 
Q 53.90625 64.015625 53.90625 55.328125 
Q 53.90625 49.265625 50.4375 45.09375 
Q 46.96875 40.921875 40.578125 39.3125 
z
" id="DejaVuSans-51"/>
     <path d="M 19.671875 64.796875 
L 19.671875 8.109375 
L 31.59375 8.109375 
Q 46.6875 8.109375 53.6875 14.9375 
Q 60.6875 21.78125 60.6875 36.53125 
Q 60.6875 51.171875 53.6875 57.984375 
Q 46.6875 64.796875 31.59375 64.796875 
z
M 9.8125 72.90625 
L 30.078125 72.90625 
Q 51.265625 72.90625 61.171875 64.09375 
Q 71.09375 55.28125 71.09375 36.53125 
Q 71.09375 17.671875 61.125 8.828125 
Q 51.171875 0 30.078125 0 
L 9.8125 0 
z
" id="DejaVuSans-68"/>
    </defs>
    <g transform="translate(60.41088 14.161286)scale(0.102 -0.102)">
     <use xlink:href="#DejaVuSans-98"/>
     <use x="63.476562" xlink:href="#DejaVuSans-98"/>
     <use x="126.953125" xlink:href="#DejaVuSans-111"/>
     <use x="188.134766" xlink:href="#DejaVuSans-98"/>
     <use x="251.611328" xlink:href="#DejaVuSans-32"/>
     <use x="283.398438" xlink:href="#DejaVuSans-102"/>
     <use x="318.603516" xlink:href="#DejaVuSans-54"/>
     <use x="382.226562" xlink:href="#DejaVuSans-45"/>
     <use x="418.310547" xlink:href="#DejaVuSans-102"/>
     <use x="453.515625" xlink:href="#DejaVuSans-57"/>
     <use x="517.138672" xlink:href="#DejaVuSans-44"/>
     <use x="548.925781" xlink:href="#DejaVuSans-32"/>
     <use x="580.712891" xlink:href="#DejaVuSans-51"/>
     <use x="644.335938" xlink:href="#DejaVuSans-45"/>
     <use x="680.419922" xlink:href="#DejaVuSans-68"/>
    </g>
    <!-- 51 targets: 100..1e-08 -->
    <defs>
     <path d="M 10.796875 72.90625 
L 49.515625 72.90625 
L 49.515625 64.59375 
L 19.828125 64.59375 
L 19.828125 46.734375 
Q 21.96875 47.46875 24.109375 47.828125 
Q 26.265625 48.1875 28.421875 48.1875 
Q 40.625 48.1875 47.75 41.5 
Q 54.890625 34.8125 54.890625 23.390625 
Q 54.890625 11.625 47.5625 5.09375 
Q 40.234375 -1.421875 26.90625 -1.421875 
Q 22.3125 -1.421875 17.546875 -0.640625 
Q 12.796875 0.140625 7.71875 1.703125 
L 7.71875 11.625 
Q 12.109375 9.234375 16.796875 8.0625 
Q 21.484375 6.890625 26.703125 6.890625 
Q 35.15625 6.890625 40.078125 11.328125 
Q 45.015625 15.765625 45.015625 23.390625 
Q 45.015625 31 40.078125 35.4375 
Q 35.15625 39.890625 26.703125 39.890625 
Q 22.75 39.890625 18.8125 39.015625 
Q 14.890625 38.140625 10.796875 36.28125 
z
" id="DejaVuSans-53"/>
     <path d="M 11.71875 12.40625 
L 22.015625 12.40625 
L 22.015625 0 
L 11.71875 0 
z
M 11.71875 51.703125 
L 22.015625 51.703125 
L 22.015625 39.3125 
L 11.71875 39.3125 
z
" id="DejaVuSans-58"/>
    </defs>
    <g transform="translate(60.41088 25.583055)scale(0.102 -0.102)">
     <use xlink:href="#DejaVuSans-53"/>
     <use x="63.623047" xlink:href="#DejaVuSans-49"/>
     <use x="127.246094" xlink:href="#DejaVuSans-32"/>
     <use x="159.033203" xlink:href="#DejaVuSans-116"/>
     <use x="198.242188" xlink:href="#DejaVuSans-97"/>
     <use x="259.521484" xlink:href="#DejaVuSans-114"/>
     <use x="298.884766" xlink:href="#DejaVuSans-103"/>
     <use x="362.361328" xlink:href="#DejaVuSans-101"/>
     <use x="423.884766" xlink:href="#DejaVuSans-116"/>
     <use x="463.09375" xlink:href="#DejaVuSans-115"/>
     <use x="515.193359" xlink:href="#DejaVuSans-58"/>
     <use x="548.884766" xlink:href="#DejaVuSans-32"/>
     <use x="580.671875" xlink:href="#DejaVuSans-49"/>
     <use x="644.294922" xlink:href="#DejaVuSans-48"/>
     <use x="707.917969" xlink:href="#DejaVuSans-48"/>
     <use x="771.541016" xlink:href="#DejaVuSans-46"/>
     <use x="803.328125" xlink:href="#DejaVuSans-46"/>
     <use x="835.115234" xlink:href="#DejaVuSans-49"/>
     <use x="898.738281" xlink:href="#DejaVuSans-101"/>
     <use x="960.261719" xlink:href="#DejaVuSans-45"/>
     <use x="996.345703" xlink:href="#DejaVuSans-48"/>
     <use x="1059.96875" xlink:href="#DejaVuSans-56"/>
    </g>
    <!-- 15 instances -->
    <g transform="translate(60.41088 37.004824)scale(0.102 -0.102)">
     <use xlink:href="#DejaVuSans-49"/>
     <use x="63.623047" xlink:href="#DejaVuSans-53"/>
     <use x="127.246094" xlink:href="#DejaVuSans-32"/>
     <use x="159.033203" xlink:href="#DejaVuSans-105"/>
     <use x="186.816406" xlink:href="#DejaVuSans-110"/>
     <use x="250.195312" xlink:href="#DejaVuSans-115"/>
     <use x="302.294922" xlink:href="#DejaVuSans-116"/>
     <use x="341.503906" xlink:href="#DejaVuSans-97"/>
     <use x="402.783203" xlink:href="#DejaVuSans-110"/>
     <use x="466.162109" xlink:href="#DejaVuSans-99"/>
     <use x="521.142578" xlink:href="#DejaVuSans-101"/>
     <use x="582.666016" xlink:href="#DejaVuSans-115"/>
    </g>
   </g>
   <g id="text_17">
    <!-- v2.3.3.5 -->
    <g style="fill:#808080;" transform="translate(177.692437 293.909432)scale(0.1 -0.1)">
     <use xlink:href="#DejaVuSans-118"/>
     <use x="59.179688" xlink:href="#DejaVuSans-50"/>
     <use x="122.802734" xlink:href="#DejaVuSans-46"/>
     <use x="154.589844" xlink:href="#DejaVuSans-51"/>
     <use x="218.212891" xlink:href="#DejaVuSans-46"/>
     <use x="250" xlink:href="#DejaVuSans-51"/>
     <use x="313.623047" xlink:href="#DejaVuSans-46"/>
     <use x="345.410156" xlink:href="#DejaVuSans-53"/>
    </g>
   </g>
  </g>
 </g>
 <defs>
  <clipPath id="p57d0b059fe">
   <rect height="295.488" width="281.088" x="57.6" y="3.456"/>
  </clipPath>
 </defs>
</svg>
