<?xml version="1.0" encoding="utf-8" standalone="no"?>
<!DOCTYPE svg PUBLIC "-//W3C//DTD SVG 1.1//EN"
  "http://www.w3.org/Graphics/SVG/1.1/DTD/svg11.dtd">
<!-- Created with matplotlib (https://matplotlib.org/) -->
<svg height="345.6pt" version="1.1" viewBox="0 0 460.8 345.6" width="460.8pt" xmlns="http://www.w3.org/2000/svg" xmlns:xlink="http://www.w3.org/1999/xlink">
 <defs>
  <style type="text/css">
*{stroke-linecap:butt;stroke-linejoin:round;}
  </style>
 </defs>
 <g id="figure_1">
  <g id="patch_1">
   <path d="M 0 345.6 
L 460.8 345.6 
L 460.8 0 
L 0 0 
z
" style="fill:#ffffff;"/>
  </g>
  <g id="axes_1">
   <g id="patch_2">
    <path d="M 57.6 298.944 
L 338.688 298.944 
L 338.688 3.456 
L 57.6 3.456 
z
" style="fill:#ffffff;"/>
   </g>
   <g id="line2d_1">
    <path d="M 45.512012 298.944 
L 45.512012 292.060179 
L 57.6 292.060179 
L 57.6 289.765573 
L 69.687988 289.765573 
L 69.687988 287.470966 
L 73.579452 287.470966 
L 73.579452 286.323662 
L 79.447285 286.323662 
L 79.447285 285.176359 
L 83.830028 285.176359 
L 83.830028 284.029055 
L 87.329581 284.029055 
L 87.329581 280.587145 
L 88.846997 280.587145 
L 88.846997 279.439842 
L 91.535274 279.439842 
L 91.535274 275.997931 
L 92.73846 275.997931 
L 92.73846 271.408718 
L 93.863965 271.408718 
L 93.863965 270.261414 
L 95.918017 270.261414 
L 95.918017 266.819504 
L 96.86091 266.819504 
L 96.86091 264.524897 
L 97.755429 264.524897 
L 97.755429 262.23029 
L 98.606294 262.23029 
L 98.606294 259.935683 
L 99.41757 259.935683 
L 99.41757 258.78838 
L 100.192776 258.78838 
L 100.192776 256.493773 
L 100.934985 256.493773 
L 100.934985 253.051863 
L 102.330873 253.051863 
L 102.330873 251.904559 
L 102.989037 251.904559 
L 102.989037 250.757256 
L 103.623262 250.757256 
L 103.623262 249.609952 
L 104.826449 249.609952 
L 104.826449 248.462649 
L 105.398279 248.462649 
L 105.398279 245.020738 
L 105.951954 245.020738 
L 105.951954 243.873435 
L 106.48859 243.873435 
L 106.48859 241.578828 
L 107.514726 241.578828 
L 107.514726 236.989614 
L 108.483824 236.989614 
L 108.483824 235.842311 
L 108.948899 235.842311 
L 108.948899 231.253097 
L 109.401893 231.253097 
L 109.401893 230.105794 
L 109.843417 230.105794 
L 109.843417 225.51658 
L 110.694282 225.51658 
L 110.694282 219.780063 
L 111.104637 219.780063 
L 111.104637 218.632759 
L 111.505558 218.632759 
L 111.505558 217.485456 
L 111.897469 217.485456 
L 111.897469 215.190849 
L 112.280765 215.190849 
L 112.280765 208.307029 
L 113.022974 208.307029 
L 113.022974 206.012422 
L 113.382559 206.012422 
L 113.382559 203.717815 
L 113.73488 203.717815 
L 113.73488 200.275904 
L 114.080224 200.275904 
L 114.080224 195.686691 
L 114.751048 195.686691 
L 114.751048 193.392084 
L 115.077025 193.392084 
L 115.077025 191.097477 
L 115.397021 191.097477 
L 115.397021 188.80287 
L 115.711251 188.80287 
L 115.711251 184.213656 
L 116.019919 184.213656 
L 116.019919 183.066353 
L 116.323218 183.066353 
L 116.323218 180.771746 
L 116.621333 180.771746 
L 116.621333 178.477139 
L 116.914437 178.477139 
L 116.914437 176.182532 
L 117.202696 176.182532 
L 117.202696 175.035229 
L 117.486268 175.035229 
L 117.486268 169.298712 
L 117.765302 169.298712 
L 117.765302 168.151408 
L 118.039942 168.151408 
L 118.039942 164.709498 
L 118.310324 164.709498 
L 118.310324 161.267588 
L 118.576578 161.267588 
L 118.576578 160.120284 
L 118.838828 160.120284 
L 118.838828 154.383767 
L 119.097192 154.383767 
L 119.097192 150.941857 
L 119.351785 150.941857 
L 119.351785 149.794553 
L 119.602714 149.794553 
L 119.602714 146.352643 
L 119.850084 146.352643 
L 119.850084 145.20534 
L 120.093994 145.20534 
L 120.093994 144.058036 
L 120.33454 144.058036 
L 120.33454 141.763429 
L 120.571812 141.763429 
L 120.571812 138.321519 
L 120.8059 138.321519 
L 120.8059 134.879609 
L 121.036887 134.879609 
L 121.036887 131.437698 
L 121.264855 131.437698 
L 121.264855 130.290395 
L 121.489881 130.290395 
L 121.489881 127.995788 
L 121.712041 127.995788 
L 121.712041 124.553878 
L 121.931406 124.553878 
L 121.931406 122.259271 
L 122.148045 122.259271 
L 122.148045 115.37545 
L 122.362027 115.37545 
L 122.362027 114.228147 
L 122.573415 114.228147 
L 122.573415 111.93354 
L 122.782271 111.93354 
L 122.782271 108.49163 
L 122.988655 108.49163 
L 122.988655 107.344326 
L 123.192626 107.344326 
L 123.192626 105.049719 
L 123.394238 105.049719 
L 123.394238 101.607809 
L 123.593547 101.607809 
L 123.593547 98.165899 
L 123.790603 98.165899 
L 123.790603 95.871292 
L 123.985457 95.871292 
L 123.985457 92.429381 
L 124.178158 92.429381 
L 124.178158 87.840168 
L 124.368753 87.840168 
L 124.368753 86.692864 
L 124.557288 86.692864 
L 124.557288 83.250954 
L 124.743806 83.250954 
L 124.743806 80.956347 
L 124.92835 80.956347 
L 124.92835 78.66174 
L 125.110962 78.66174 
L 125.110962 74.072526 
L 125.291682 74.072526 
L 125.291682 71.77792 
L 125.470548 71.77792 
L 125.470548 68.336009 
L 125.647598 68.336009 
L 125.647598 63.746796 
L 125.822869 63.746796 
L 125.822869 60.304885 
L 125.996395 60.304885 
L 125.996395 55.715672 
L 126.168212 55.715672 
L 126.168212 52.273761 
L 126.50685 52.273761 
L 126.50685 49.979154 
L 126.673734 49.979154 
L 126.673734 47.684547 
L 127.165014 47.684547 
L 127.165014 45.389941 
L 127.799239 45.389941 
L 127.799239 43.095334 
L 128.107907 43.095334 
L 128.107907 41.94803 
L 128.411207 41.94803 
L 128.411207 39.653423 
L 128.709321 39.653423 
L 128.709321 38.50612 
L 129.002426 38.50612 
L 129.002426 37.358817 
L 129.290685 37.358817 
L 129.290685 36.211513 
L 129.574256 36.211513 
L 129.574256 35.06421 
L 129.714332 35.06421 
L 129.714332 33.916906 
L 129.991152 33.916906 
L 129.991152 32.769603 
L 130.127931 32.769603 
L 130.127931 31.622299 
L 130.398313 31.622299 
L 130.398313 30.474996 
L 130.664567 30.474996 
L 130.664567 29.327692 
L 130.796184 29.327692 
L 130.796184 28.180389 
L 131.056477 28.180389 
L 131.056477 27.033086 
L 131.938072 27.033086 
L 131.938072 25.885782 
L 132.659801 25.885782 
L 132.659801 24.738479 
L 133.239232 24.738479 
L 133.239232 23.591175 
L 133.57787 23.591175 
L 133.57787 22.443872 
L 134.019394 22.443872 
L 134.019394 21.296568 
L 134.55603 21.296568 
L 134.55603 20.149265 
L 135.076644 20.149265 
L 135.076644 19.001962 
L 135.582166 19.001962 
L 135.582166 17.854658 
L 136.073445 17.854658 
L 136.073445 16.707355 
L 136.456742 16.707355 
L 136.456742 15.560051 
L 136.738785 15.560051 
L 136.738785 14.412748 
L 137.107884 14.412748 
L 137.107884 13.265444 
L 137.469333 13.265444 
L 137.469333 12.118141 
L 137.910857 12.118141 
L 137.910857 10.970838 
L 138.084384 10.970838 
L 138.084384 9.823534 
L 138.256201 9.823534 
L 138.256201 8.676231 
L 138.594838 8.676231 
L 138.594838 7.528927 
L 138.84457 7.528927 
L 138.84457 6.381624 
L 338.688 6.381624 
L 338.688 6.381624 
" style="fill:none;stroke:#f5deb3;stroke-linecap:square;stroke-width:4;"/>
   </g>
   <g id="line2d_2">
    <defs>
     <path d="M -0 7.778175 
L 7.778175 0 
L 0 -7.778175 
L -7.778175 -0 
z
" id="m05c4b500f8" style="stroke:#f5deb3;stroke-linejoin:miter;stroke-width:1.5;"/>
    </defs>
    <g>
     <use style="fill:#f5deb3;stroke:#f5deb3;stroke-linejoin:miter;stroke-width:1.5;" x="107.514726" xlink:href="#m05c4b500f8" y="241.578828"/>
     <use style="fill:#f5deb3;stroke:#f5deb3;stroke-linejoin:miter;stroke-width:1.5;" x="124.178158" xlink:href="#m05c4b500f8" y="92.429381"/>
     <use style="fill:#f5deb3;stroke:#f5deb3;stroke-linejoin:miter;stroke-width:1.5;" x="138.084384" xlink:href="#m05c4b500f8" y="9.823534"/>
     <use style="fill:#f5deb3;stroke:#f5deb3;stroke-linejoin:miter;stroke-width:1.5;" x="138.84457" xlink:href="#m05c4b500f8" y="6.381624"/>
     <use style="fill:#f5deb3;stroke:#f5deb3;stroke-linejoin:miter;stroke-width:1.5;" x="138.84457" xlink:href="#m05c4b500f8" y="6.381624"/>
     <use style="fill:#f5deb3;stroke:#f5deb3;stroke-linejoin:miter;stroke-width:1.5;" x="338.688" xlink:href="#m05c4b500f8" y="6.381624"/>
    </g>
   </g>
   <g id="line2d_3">
    <path style="fill:none;stroke:#f5deb3;stroke-linecap:square;stroke-width:4;"/>
    <g/>
   </g>
   <g id="line2d_4">
    <path d="M 338.688 6.381624 
L 369.60768 12.232871 
" style="fill:none;stroke:#f5deb3;stroke-linecap:square;stroke-width:4;"/>
    <g>
     <use style="fill:#f5deb3;stroke:#f5deb3;stroke-linejoin:miter;stroke-width:1.5;" x="338.688" xlink:href="#m05c4b500f8" y="6.381624"/>
     <use style="fill:#f5deb3;stroke:#f5deb3;stroke-linejoin:miter;stroke-width:1.5;" x="369.60768" xlink:href="#m05c4b500f8" y="12.232871"/>
    </g>
   </g>
   <g id="matplotlib.axis_1">
    <g id="xtick_1">
     <g id="line2d_5">
      <path clip-path="url(#pab80d091c3)" d="M 57.6 298.944 
L 57.6 3.456 
" style="fill:none;stroke:#b0b0b0;stroke-linecap:square;stroke-width:0.8;"/>
     </g>
     <g id="line2d_6">
      <defs>
       <path d="M 0 0 
L 0 3.5 
" id="m99ec6b348b" style="stroke:#000000;stroke-width:0.8;"/>
      </defs>
      <g>
       <use style="stroke:#000000;stroke-width:0.8;" x="57.6" xlink:href="#m99ec6b348b" y="298.944"/>
      </g>
     </g>
     <g id="text_1">
      <!-- 0 -->
      <defs>
       <path d="M 31.78125 66.40625 
Q 24.171875 66.40625 20.328125 58.90625 
Q 16.5 51.421875 16.5 36.375 
Q 16.5 21.390625 20.328125 13.890625 
Q 24.171875 6.390625 31.78125 6.390625 
Q 39.453125 6.390625 43.28125 13.890625 
Q 47.125 21.390625 47.125 36.375 
Q 47.125 51.421875 43.28125 58.90625 
Q 39.453125 66.40625 31.78125 66.40625 
z
M 31.78125 74.21875 
Q 44.046875 74.21875 50.515625 64.515625 
Q 56.984375 54.828125 56.984375 36.375 
Q 56.984375 17.96875 50.515625 8.265625 
Q 44.046875 -1.421875 31.78125 -1.421875 
Q 19.53125 -1.421875 13.0625 8.265625 
Q 6.59375 17.96875 6.59375 36.375 
Q 6.59375 54.828125 13.0625 64.515625 
Q 19.53125 74.21875 31.78125 74.21875 
z
" id="DejaVuSans-48"/>
      </defs>
      <g transform="translate(51.2375 321.140875)scale(0.2 -0.2)">
       <use xlink:href="#DejaVuSans-48"/>
      </g>
     </g>
    </g>
    <g id="xtick_2">
     <g id="line2d_7">
      <path clip-path="url(#pab80d091c3)" d="M 137.910857 298.944 
L 137.910857 3.456 
" style="fill:none;stroke:#b0b0b0;stroke-linecap:square;stroke-width:0.8;"/>
     </g>
     <g id="line2d_8">
      <g>
       <use style="stroke:#000000;stroke-width:0.8;" x="137.910857" xlink:href="#m99ec6b348b" y="298.944"/>
      </g>
     </g>
     <g id="text_2">
      <!-- 2 -->
      <defs>
       <path d="M 19.1875 8.296875 
L 53.609375 8.296875 
L 53.609375 0 
L 7.328125 0 
L 7.328125 8.296875 
Q 12.9375 14.109375 22.625 23.890625 
Q 32.328125 33.6875 34.8125 36.53125 
Q 39.546875 41.84375 41.421875 45.53125 
Q 43.3125 49.21875 43.3125 52.78125 
Q 43.3125 58.59375 39.234375 62.25 
Q 35.15625 65.921875 28.609375 65.921875 
Q 23.96875 65.921875 18.8125 64.3125 
Q 13.671875 62.703125 7.8125 59.421875 
L 7.8125 69.390625 
Q 13.765625 71.78125 18.9375 73 
Q 24.125 74.21875 28.421875 74.21875 
Q 39.75 74.21875 46.484375 68.546875 
Q 53.21875 62.890625 53.21875 53.421875 
Q 53.21875 48.921875 51.53125 44.890625 
Q 49.859375 40.875 45.40625 35.40625 
Q 44.1875 33.984375 37.640625 27.21875 
Q 31.109375 20.453125 19.1875 8.296875 
z
" id="DejaVuSans-50"/>
      </defs>
      <g transform="translate(131.548357 321.140875)scale(0.2 -0.2)">
       <use xlink:href="#DejaVuSans-50"/>
      </g>
     </g>
    </g>
    <g id="xtick_3">
     <g id="line2d_9">
      <path clip-path="url(#pab80d091c3)" d="M 218.221714 298.944 
L 218.221714 3.456 
" style="fill:none;stroke:#b0b0b0;stroke-linecap:square;stroke-width:0.8;"/>
     </g>
     <g id="line2d_10">
      <g>
       <use style="stroke:#000000;stroke-width:0.8;" x="218.221714" xlink:href="#m99ec6b348b" y="298.944"/>
      </g>
     </g>
     <g id="text_3">
      <!-- 4 -->
      <defs>
       <path d="M 37.796875 64.3125 
L 12.890625 25.390625 
L 37.796875 25.390625 
z
M 35.203125 72.90625 
L 47.609375 72.90625 
L 47.609375 25.390625 
L 58.015625 25.390625 
L 58.015625 17.1875 
L 47.609375 17.1875 
L 47.609375 0 
L 37.796875 0 
L 37.796875 17.1875 
L 4.890625 17.1875 
L 4.890625 26.703125 
z
" id="DejaVuSans-52"/>
      </defs>
      <g transform="translate(211.859214 321.140875)scale(0.2 -0.2)">
       <use xlink:href="#DejaVuSans-52"/>
      </g>
     </g>
    </g>
    <g id="xtick_4">
     <g id="line2d_11">
      <path clip-path="url(#pab80d091c3)" d="M 298.532571 298.944 
L 298.532571 3.456 
" style="fill:none;stroke:#b0b0b0;stroke-linecap:square;stroke-width:0.8;"/>
     </g>
     <g id="line2d_12">
      <g>
       <use style="stroke:#000000;stroke-width:0.8;" x="298.532571" xlink:href="#m99ec6b348b" y="298.944"/>
      </g>
     </g>
     <g id="text_4">
      <!-- 6 -->
      <defs>
       <path d="M 33.015625 40.375 
Q 26.375 40.375 22.484375 35.828125 
Q 18.609375 31.296875 18.609375 23.390625 
Q 18.609375 15.53125 22.484375 10.953125 
Q 26.375 6.390625 33.015625 6.390625 
Q 39.65625 6.390625 43.53125 10.953125 
Q 47.40625 15.53125 47.40625 23.390625 
Q 47.40625 31.296875 43.53125 35.828125 
Q 39.65625 40.375 33.015625 40.375 
z
M 52.59375 71.296875 
L 52.59375 62.3125 
Q 48.875 64.0625 45.09375 64.984375 
Q 41.3125 65.921875 37.59375 65.921875 
Q 27.828125 65.921875 22.671875 59.328125 
Q 17.53125 52.734375 16.796875 39.40625 
Q 19.671875 43.65625 24.015625 45.921875 
Q 28.375 48.1875 33.59375 48.1875 
Q 44.578125 48.1875 50.953125 41.515625 
Q 57.328125 34.859375 57.328125 23.390625 
Q 57.328125 12.15625 50.6875 5.359375 
Q 44.046875 -1.421875 33.015625 -1.421875 
Q 20.359375 -1.421875 13.671875 8.265625 
Q 6.984375 17.96875 6.984375 36.375 
Q 6.984375 53.65625 15.1875 63.9375 
Q 23.390625 74.21875 37.203125 74.21875 
Q 40.921875 74.21875 44.703125 73.484375 
Q 48.484375 72.75 52.59375 71.296875 
z
" id="DejaVuSans-54"/>
      </defs>
      <g transform="translate(292.170071 321.140875)scale(0.2 -0.2)">
       <use xlink:href="#DejaVuSans-54"/>
      </g>
     </g>
    </g>
    <g id="xtick_5">
     <g id="line2d_13">
      <path clip-path="url(#pab80d091c3)" d="M 97.755429 298.944 
L 97.755429 3.456 
" style="fill:none;stroke:#b0b0b0;stroke-linecap:square;stroke-width:0.8;"/>
     </g>
     <g id="line2d_14">
      <defs>
       <path d="M 0 0 
L 0 2 
" id="m6ead0dd735" style="stroke:#000000;stroke-width:0.6;"/>
      </defs>
      <g>
       <use style="stroke:#000000;stroke-width:0.6;" x="97.755429" xlink:href="#m6ead0dd735" y="298.944"/>
      </g>
     </g>
    </g>
    <g id="xtick_6">
     <g id="line2d_15">
      <path clip-path="url(#pab80d091c3)" d="M 178.066286 298.944 
L 178.066286 3.456 
" style="fill:none;stroke:#b0b0b0;stroke-linecap:square;stroke-width:0.8;"/>
     </g>
     <g id="line2d_16">
      <g>
       <use style="stroke:#000000;stroke-width:0.6;" x="178.066286" xlink:href="#m6ead0dd735" y="298.944"/>
      </g>
     </g>
    </g>
    <g id="xtick_7">
     <g id="line2d_17">
      <path clip-path="url(#pab80d091c3)" d="M 258.377143 298.944 
L 258.377143 3.456 
" style="fill:none;stroke:#b0b0b0;stroke-linecap:square;stroke-width:0.8;"/>
     </g>
     <g id="line2d_18">
      <g>
       <use style="stroke:#000000;stroke-width:0.6;" x="258.377143" xlink:href="#m6ead0dd735" y="298.944"/>
      </g>
     </g>
    </g>
    <g id="xtick_8">
     <g id="line2d_19">
      <path clip-path="url(#pab80d091c3)" d="M 338.688 298.944 
L 338.688 3.456 
" style="fill:none;stroke:#b0b0b0;stroke-linecap:square;stroke-width:0.8;"/>
     </g>
     <g id="line2d_20">
      <g>
       <use style="stroke:#000000;stroke-width:0.6;" x="338.688" xlink:href="#m6ead0dd735" y="298.944"/>
      </g>
     </g>
    </g>
    <g id="text_5">
     <!-- log10(# f-evals / dimension) -->
     <defs>
      <path d="M 9.421875 75.984375 
L 18.40625 75.984375 
L 18.40625 0 
L 9.421875 0 
z
" id="DejaVuSans-108"/>
      <path d="M 30.609375 48.390625 
Q 23.390625 48.390625 19.1875 42.75 
Q 14.984375 37.109375 14.984375 27.296875 
Q 14.984375 17.484375 19.15625 11.84375 
Q 23.34375 6.203125 30.609375 6.203125 
Q 37.796875 6.203125 41.984375 11.859375 
Q 46.1875 17.53125 46.1875 27.296875 
Q 46.1875 37.015625 41.984375 42.703125 
Q 37.796875 48.390625 30.609375 48.390625 
z
M 30.609375 56 
Q 42.328125 56 49.015625 48.375 
Q 55.71875 40.765625 55.71875 27.296875 
Q 55.71875 13.875 49.015625 6.21875 
Q 42.328125 -1.421875 30.609375 -1.421875 
Q 18.84375 -1.421875 12.171875 6.21875 
Q 5.515625 13.875 5.515625 27.296875 
Q 5.515625 40.765625 12.171875 48.375 
Q 18.84375 56 30.609375 56 
z
" id="DejaVuSans-111"/>
      <path d="M 45.40625 27.984375 
Q 45.40625 37.75 41.375 43.109375 
Q 37.359375 48.484375 30.078125 48.484375 
Q 22.859375 48.484375 18.828125 43.109375 
Q 14.796875 37.75 14.796875 27.984375 
Q 14.796875 18.265625 18.828125 12.890625 
Q 22.859375 7.515625 30.078125 7.515625 
Q 37.359375 7.515625 41.375 12.890625 
Q 45.40625 18.265625 45.40625 27.984375 
z
M 54.390625 6.78125 
Q 54.390625 -7.171875 48.1875 -13.984375 
Q 42 -20.796875 29.203125 -20.796875 
Q 24.46875 -20.796875 20.265625 -20.09375 
Q 16.0625 -19.390625 12.109375 -17.921875 
L 12.109375 -9.1875 
Q 16.0625 -11.328125 19.921875 -12.34375 
Q 23.78125 -13.375 27.78125 -13.375 
Q 36.625 -13.375 41.015625 -8.765625 
Q 45.40625 -4.15625 45.40625 5.171875 
L 45.40625 9.625 
Q 42.625 4.78125 38.28125 2.390625 
Q 33.9375 0 27.875 0 
Q 17.828125 0 11.671875 7.65625 
Q 5.515625 15.328125 5.515625 27.984375 
Q 5.515625 40.671875 11.671875 48.328125 
Q 17.828125 56 27.875 56 
Q 33.9375 56 38.28125 53.609375 
Q 42.625 51.21875 45.40625 46.390625 
L 45.40625 54.6875 
L 54.390625 54.6875 
z
" id="DejaVuSans-103"/>
      <path d="M 12.40625 8.296875 
L 28.515625 8.296875 
L 28.515625 63.921875 
L 10.984375 60.40625 
L 10.984375 69.390625 
L 28.421875 72.90625 
L 38.28125 72.90625 
L 38.28125 8.296875 
L 54.390625 8.296875 
L 54.390625 0 
L 12.40625 0 
z
" id="DejaVuSans-49"/>
      <path d="M 31 75.875 
Q 24.46875 64.65625 21.28125 53.65625 
Q 18.109375 42.671875 18.109375 31.390625 
Q 18.109375 20.125 21.3125 9.0625 
Q 24.515625 -2 31 -13.1875 
L 23.1875 -13.1875 
Q 15.875 -1.703125 12.234375 9.375 
Q 8.59375 20.453125 8.59375 31.390625 
Q 8.59375 42.28125 12.203125 53.3125 
Q 15.828125 64.359375 23.1875 75.875 
z
" id="DejaVuSans-40"/>
      <path d="M 51.125 44 
L 36.921875 44 
L 32.8125 27.6875 
L 47.125 27.6875 
z
M 43.796875 71.78125 
L 38.71875 51.515625 
L 52.984375 51.515625 
L 58.109375 71.78125 
L 65.921875 71.78125 
L 60.890625 51.515625 
L 76.125 51.515625 
L 76.125 44 
L 58.984375 44 
L 54.984375 27.6875 
L 70.515625 27.6875 
L 70.515625 20.21875 
L 53.078125 20.21875 
L 48 0 
L 40.1875 0 
L 45.21875 20.21875 
L 30.90625 20.21875 
L 25.875 0 
L 18.015625 0 
L 23.09375 20.21875 
L 7.71875 20.21875 
L 7.71875 27.6875 
L 24.90625 27.6875 
L 29 44 
L 13.28125 44 
L 13.28125 51.515625 
L 30.90625 51.515625 
L 35.890625 71.78125 
z
" id="DejaVuSans-35"/>
      <path id="DejaVuSans-32"/>
      <path d="M 37.109375 75.984375 
L 37.109375 68.5 
L 28.515625 68.5 
Q 23.6875 68.5 21.796875 66.546875 
Q 19.921875 64.59375 19.921875 59.515625 
L 19.921875 54.6875 
L 34.71875 54.6875 
L 34.71875 47.703125 
L 19.921875 47.703125 
L 19.921875 0 
L 10.890625 0 
L 10.890625 47.703125 
L 2.296875 47.703125 
L 2.296875 54.6875 
L 10.890625 54.6875 
L 10.890625 58.5 
Q 10.890625 67.625 15.140625 71.796875 
Q 19.390625 75.984375 28.609375 75.984375 
z
" id="DejaVuSans-102"/>
      <path d="M 4.890625 31.390625 
L 31.203125 31.390625 
L 31.203125 23.390625 
L 4.890625 23.390625 
z
" id="DejaVuSans-45"/>
      <path d="M 56.203125 29.59375 
L 56.203125 25.203125 
L 14.890625 25.203125 
Q 15.484375 15.921875 20.484375 11.0625 
Q 25.484375 6.203125 34.421875 6.203125 
Q 39.59375 6.203125 44.453125 7.46875 
Q 49.3125 8.734375 54.109375 11.28125 
L 54.109375 2.78125 
Q 49.265625 0.734375 44.1875 -0.34375 
Q 39.109375 -1.421875 33.890625 -1.421875 
Q 20.796875 -1.421875 13.15625 6.1875 
Q 5.515625 13.8125 5.515625 26.8125 
Q 5.515625 40.234375 12.765625 48.109375 
Q 20.015625 56 32.328125 56 
Q 43.359375 56 49.78125 48.890625 
Q 56.203125 41.796875 56.203125 29.59375 
z
M 47.21875 32.234375 
Q 47.125 39.59375 43.09375 43.984375 
Q 39.0625 48.390625 32.421875 48.390625 
Q 24.90625 48.390625 20.390625 44.140625 
Q 15.875 39.890625 15.1875 32.171875 
z
" id="DejaVuSans-101"/>
      <path d="M 2.984375 54.6875 
L 12.5 54.6875 
L 29.59375 8.796875 
L 46.6875 54.6875 
L 56.203125 54.6875 
L 35.6875 0 
L 23.484375 0 
z
" id="DejaVuSans-118"/>
      <path d="M 34.28125 27.484375 
Q 23.390625 27.484375 19.1875 25 
Q 14.984375 22.515625 14.984375 16.5 
Q 14.984375 11.71875 18.140625 8.90625 
Q 21.296875 6.109375 26.703125 6.109375 
Q 34.1875 6.109375 38.703125 11.40625 
Q 43.21875 16.703125 43.21875 25.484375 
L 43.21875 27.484375 
z
M 52.203125 31.203125 
L 52.203125 0 
L 43.21875 0 
L 43.21875 8.296875 
Q 40.140625 3.328125 35.546875 0.953125 
Q 30.953125 -1.421875 24.3125 -1.421875 
Q 15.921875 -1.421875 10.953125 3.296875 
Q 6 8.015625 6 15.921875 
Q 6 25.140625 12.171875 29.828125 
Q 18.359375 34.515625 30.609375 34.515625 
L 43.21875 34.515625 
L 43.21875 35.40625 
Q 43.21875 41.609375 39.140625 45 
Q 35.0625 48.390625 27.6875 48.390625 
Q 23 48.390625 18.546875 47.265625 
Q 14.109375 46.140625 10.015625 43.890625 
L 10.015625 52.203125 
Q 14.9375 54.109375 19.578125 55.046875 
Q 24.21875 56 28.609375 56 
Q 40.484375 56 46.34375 49.84375 
Q 52.203125 43.703125 52.203125 31.203125 
z
" id="DejaVuSans-97"/>
      <path d="M 44.28125 53.078125 
L 44.28125 44.578125 
Q 40.484375 46.53125 36.375 47.5 
Q 32.28125 48.484375 27.875 48.484375 
Q 21.1875 48.484375 17.84375 46.4375 
Q 14.5 44.390625 14.5 40.28125 
Q 14.5 37.15625 16.890625 35.375 
Q 19.28125 33.59375 26.515625 31.984375 
L 29.59375 31.296875 
Q 39.15625 29.25 43.1875 25.515625 
Q 47.21875 21.78125 47.21875 15.09375 
Q 47.21875 7.46875 41.1875 3.015625 
Q 35.15625 -1.421875 24.609375 -1.421875 
Q 20.21875 -1.421875 15.453125 -0.5625 
Q 10.6875 0.296875 5.421875 2 
L 5.421875 11.28125 
Q 10.40625 8.6875 15.234375 7.390625 
Q 20.0625 6.109375 24.8125 6.109375 
Q 31.15625 6.109375 34.5625 8.28125 
Q 37.984375 10.453125 37.984375 14.40625 
Q 37.984375 18.0625 35.515625 20.015625 
Q 33.0625 21.96875 24.703125 23.78125 
L 21.578125 24.515625 
Q 13.234375 26.265625 9.515625 29.90625 
Q 5.8125 33.546875 5.8125 39.890625 
Q 5.8125 47.609375 11.28125 51.796875 
Q 16.75 56 26.8125 56 
Q 31.78125 56 36.171875 55.265625 
Q 40.578125 54.546875 44.28125 53.078125 
z
" id="DejaVuSans-115"/>
      <path d="M 25.390625 72.90625 
L 33.6875 72.90625 
L 8.296875 -9.28125 
L 0 -9.28125 
z
" id="DejaVuSans-47"/>
      <path d="M 45.40625 46.390625 
L 45.40625 75.984375 
L 54.390625 75.984375 
L 54.390625 0 
L 45.40625 0 
L 45.40625 8.203125 
Q 42.578125 3.328125 38.25 0.953125 
Q 33.9375 -1.421875 27.875 -1.421875 
Q 17.96875 -1.421875 11.734375 6.484375 
Q 5.515625 14.40625 5.515625 27.296875 
Q 5.515625 40.1875 11.734375 48.09375 
Q 17.96875 56 27.875 56 
Q 33.9375 56 38.25 53.625 
Q 42.578125 51.265625 45.40625 46.390625 
z
M 14.796875 27.296875 
Q 14.796875 17.390625 18.875 11.75 
Q 22.953125 6.109375 30.078125 6.109375 
Q 37.203125 6.109375 41.296875 11.75 
Q 45.40625 17.390625 45.40625 27.296875 
Q 45.40625 37.203125 41.296875 42.84375 
Q 37.203125 48.484375 30.078125 48.484375 
Q 22.953125 48.484375 18.875 42.84375 
Q 14.796875 37.203125 14.796875 27.296875 
z
" id="DejaVuSans-100"/>
      <path d="M 9.421875 54.6875 
L 18.40625 54.6875 
L 18.40625 0 
L 9.421875 0 
z
M 9.421875 75.984375 
L 18.40625 75.984375 
L 18.40625 64.59375 
L 9.421875 64.59375 
z
" id="DejaVuSans-105"/>
      <path d="M 52 44.1875 
Q 55.375 50.25 60.0625 53.125 
Q 64.75 56 71.09375 56 
Q 79.640625 56 84.28125 50.015625 
Q 88.921875 44.046875 88.921875 33.015625 
L 88.921875 0 
L 79.890625 0 
L 79.890625 32.71875 
Q 79.890625 40.578125 77.09375 44.375 
Q 74.3125 48.1875 68.609375 48.1875 
Q 61.625 48.1875 57.5625 43.546875 
Q 53.515625 38.921875 53.515625 30.90625 
L 53.515625 0 
L 44.484375 0 
L 44.484375 32.71875 
Q 44.484375 40.625 41.703125 44.40625 
Q 38.921875 48.1875 33.109375 48.1875 
Q 26.21875 48.1875 22.15625 43.53125 
Q 18.109375 38.875 18.109375 30.90625 
L 18.109375 0 
L 9.078125 0 
L 9.078125 54.6875 
L 18.109375 54.6875 
L 18.109375 46.1875 
Q 21.1875 51.21875 25.484375 53.609375 
Q 29.78125 56 35.6875 56 
Q 41.65625 56 45.828125 52.96875 
Q 50 49.953125 52 44.1875 
z
" id="DejaVuSans-109"/>
      <path d="M 54.890625 33.015625 
L 54.890625 0 
L 45.90625 0 
L 45.90625 32.71875 
Q 45.90625 40.484375 42.875 44.328125 
Q 39.84375 48.1875 33.796875 48.1875 
Q 26.515625 48.1875 22.3125 43.546875 
Q 18.109375 38.921875 18.109375 30.90625 
L 18.109375 0 
L 9.078125 0 
L 9.078125 54.6875 
L 18.109375 54.6875 
L 18.109375 46.1875 
Q 21.34375 51.125 25.703125 53.5625 
Q 30.078125 56 35.796875 56 
Q 45.21875 56 50.046875 50.171875 
Q 54.890625 44.34375 54.890625 33.015625 
z
" id="DejaVuSans-110"/>
      <path d="M 8.015625 75.875 
L 15.828125 75.875 
Q 23.140625 64.359375 26.78125 53.3125 
Q 30.421875 42.28125 30.421875 31.390625 
Q 30.421875 20.453125 26.78125 9.375 
Q 23.140625 -1.703125 15.828125 -13.1875 
L 8.015625 -13.1875 
Q 14.5 -2 17.703125 9.0625 
Q 20.90625 20.125 20.90625 31.390625 
Q 20.90625 42.671875 17.703125 53.65625 
Q 14.5 64.65625 8.015625 75.875 
z
" id="DejaVuSans-41"/>
     </defs>
     <g transform="translate(77.764078 342.217594)scale(0.17 -0.17)">
      <use xlink:href="#DejaVuSans-108"/>
      <use x="27.783203" xlink:href="#DejaVuSans-111"/>
      <use x="88.964844" xlink:href="#DejaVuSans-103"/>
      <use x="152.441406" xlink:href="#DejaVuSans-49"/>
      <use x="216.064453" xlink:href="#DejaVuSans-48"/>
      <use x="279.6875" xlink:href="#DejaVuSans-40"/>
      <use x="318.701172" xlink:href="#DejaVuSans-35"/>
      <use x="402.490234" xlink:href="#DejaVuSans-32"/>
      <use x="434.277344" xlink:href="#DejaVuSans-102"/>
      <use x="463.982422" xlink:href="#DejaVuSans-45"/>
      <use x="500.066406" xlink:href="#DejaVuSans-101"/>
      <use x="561.589844" xlink:href="#DejaVuSans-118"/>
      <use x="620.769531" xlink:href="#DejaVuSans-97"/>
      <use x="682.048828" xlink:href="#DejaVuSans-108"/>
      <use x="709.832031" xlink:href="#DejaVuSans-115"/>
      <use x="761.931641" xlink:href="#DejaVuSans-32"/>
      <use x="793.71875" xlink:href="#DejaVuSans-47"/>
      <use x="827.410156" xlink:href="#DejaVuSans-32"/>
      <use x="859.197266" xlink:href="#DejaVuSans-100"/>
      <use x="922.673828" xlink:href="#DejaVuSans-105"/>
      <use x="950.457031" xlink:href="#DejaVuSans-109"/>
      <use x="1047.869141" xlink:href="#DejaVuSans-101"/>
      <use x="1109.392578" xlink:href="#DejaVuSans-110"/>
      <use x="1172.771484" xlink:href="#DejaVuSans-115"/>
      <use x="1224.871094" xlink:href="#DejaVuSans-105"/>
      <use x="1252.654297" xlink:href="#DejaVuSans-111"/>
      <use x="1313.835938" xlink:href="#DejaVuSans-110"/>
      <use x="1377.214844" xlink:href="#DejaVuSans-41"/>
     </g>
    </g>
   </g>
   <g id="matplotlib.axis_2">
    <g id="ytick_1">
     <g id="line2d_21">
      <path clip-path="url(#pab80d091c3)" d="M 57.6 298.944 
L 338.688 298.944 
" style="fill:none;stroke:#b0b0b0;stroke-linecap:square;stroke-width:0.8;"/>
     </g>
     <g id="line2d_22">
      <defs>
       <path d="M 0 0 
L -3.5 0 
" id="mf1f823a7ce" style="stroke:#000000;stroke-width:0.8;"/>
      </defs>
      <g>
       <use style="stroke:#000000;stroke-width:0.8;" x="57.6" xlink:href="#mf1f823a7ce" y="298.944"/>
      </g>
     </g>
     <g id="text_6">
      <!-- 0.0 -->
      <defs>
       <path d="M 10.6875 12.40625 
L 21 12.40625 
L 21 0 
L 10.6875 0 
z
" id="DejaVuSans-46"/>
      </defs>
      <g transform="translate(25.155 305.02275)scale(0.16 -0.16)">
       <use xlink:href="#DejaVuSans-48"/>
       <use x="63.623047" xlink:href="#DejaVuSans-46"/>
       <use x="95.410156" xlink:href="#DejaVuSans-48"/>
      </g>
     </g>
    </g>
    <g id="ytick_2">
     <g id="line2d_23">
      <path clip-path="url(#pab80d091c3)" d="M 57.6 240.431525 
L 338.688 240.431525 
" style="fill:none;stroke:#b0b0b0;stroke-linecap:square;stroke-width:0.8;"/>
     </g>
     <g id="line2d_24">
      <g>
       <use style="stroke:#000000;stroke-width:0.8;" x="57.6" xlink:href="#mf1f823a7ce" y="240.431525"/>
      </g>
     </g>
     <g id="text_7">
      <!-- 0.2 -->
      <g transform="translate(25.155 246.510275)scale(0.16 -0.16)">
       <use xlink:href="#DejaVuSans-48"/>
       <use x="63.623047" xlink:href="#DejaVuSans-46"/>
       <use x="95.410156" xlink:href="#DejaVuSans-50"/>
      </g>
     </g>
    </g>
    <g id="ytick_3">
     <g id="line2d_25">
      <path clip-path="url(#pab80d091c3)" d="M 57.6 181.91905 
L 338.688 181.91905 
" style="fill:none;stroke:#b0b0b0;stroke-linecap:square;stroke-width:0.8;"/>
     </g>
     <g id="line2d_26">
      <g>
       <use style="stroke:#000000;stroke-width:0.8;" x="57.6" xlink:href="#mf1f823a7ce" y="181.91905"/>
      </g>
     </g>
     <g id="text_8">
      <!-- 0.4 -->
      <g transform="translate(25.155 187.9978)scale(0.16 -0.16)">
       <use xlink:href="#DejaVuSans-48"/>
       <use x="63.623047" xlink:href="#DejaVuSans-46"/>
       <use x="95.410156" xlink:href="#DejaVuSans-52"/>
      </g>
     </g>
    </g>
    <g id="ytick_4">
     <g id="line2d_27">
      <path clip-path="url(#pab80d091c3)" d="M 57.6 123.406574 
L 338.688 123.406574 
" style="fill:none;stroke:#b0b0b0;stroke-linecap:square;stroke-width:0.8;"/>
     </g>
     <g id="line2d_28">
      <g>
       <use style="stroke:#000000;stroke-width:0.8;" x="57.6" xlink:href="#mf1f823a7ce" y="123.406574"/>
      </g>
     </g>
     <g id="text_9">
      <!-- 0.6 -->
      <g transform="translate(25.155 129.485324)scale(0.16 -0.16)">
       <use xlink:href="#DejaVuSans-48"/>
       <use x="63.623047" xlink:href="#DejaVuSans-46"/>
       <use x="95.410156" xlink:href="#DejaVuSans-54"/>
      </g>
     </g>
    </g>
    <g id="ytick_5">
     <g id="line2d_29">
      <path clip-path="url(#pab80d091c3)" d="M 57.6 64.894099 
L 338.688 64.894099 
" style="fill:none;stroke:#b0b0b0;stroke-linecap:square;stroke-width:0.8;"/>
     </g>
     <g id="line2d_30">
      <g>
       <use style="stroke:#000000;stroke-width:0.8;" x="57.6" xlink:href="#mf1f823a7ce" y="64.894099"/>
      </g>
     </g>
     <g id="text_10">
      <!-- 0.8 -->
      <defs>
       <path d="M 31.78125 34.625 
Q 24.75 34.625 20.71875 30.859375 
Q 16.703125 27.09375 16.703125 20.515625 
Q 16.703125 13.921875 20.71875 10.15625 
Q 24.75 6.390625 31.78125 6.390625 
Q 38.8125 6.390625 42.859375 10.171875 
Q 46.921875 13.96875 46.921875 20.515625 
Q 46.921875 27.09375 42.890625 30.859375 
Q 38.875 34.625 31.78125 34.625 
z
M 21.921875 38.8125 
Q 15.578125 40.375 12.03125 44.71875 
Q 8.5 49.078125 8.5 55.328125 
Q 8.5 64.0625 14.71875 69.140625 
Q 20.953125 74.21875 31.78125 74.21875 
Q 42.671875 74.21875 48.875 69.140625 
Q 55.078125 64.0625 55.078125 55.328125 
Q 55.078125 49.078125 51.53125 44.71875 
Q 48 40.375 41.703125 38.8125 
Q 48.828125 37.15625 52.796875 32.3125 
Q 56.78125 27.484375 56.78125 20.515625 
Q 56.78125 9.90625 50.3125 4.234375 
Q 43.84375 -1.421875 31.78125 -1.421875 
Q 19.734375 -1.421875 13.25 4.234375 
Q 6.78125 9.90625 6.78125 20.515625 
Q 6.78125 27.484375 10.78125 32.3125 
Q 14.796875 37.15625 21.921875 38.8125 
z
M 18.3125 54.390625 
Q 18.3125 48.734375 21.84375 45.5625 
Q 25.390625 42.390625 31.78125 42.390625 
Q 38.140625 42.390625 41.71875 45.5625 
Q 45.3125 48.734375 45.3125 54.390625 
Q 45.3125 60.0625 41.71875 63.234375 
Q 38.140625 66.40625 31.78125 66.40625 
Q 25.390625 66.40625 21.84375 63.234375 
Q 18.3125 60.0625 18.3125 54.390625 
z
" id="DejaVuSans-56"/>
      </defs>
      <g transform="translate(25.155 70.972849)scale(0.16 -0.16)">
       <use xlink:href="#DejaVuSans-48"/>
       <use x="63.623047" xlink:href="#DejaVuSans-46"/>
       <use x="95.410156" xlink:href="#DejaVuSans-56"/>
      </g>
     </g>
    </g>
    <g id="ytick_6">
     <g id="line2d_31">
      <path clip-path="url(#pab80d091c3)" d="M 57.6 6.381624 
L 338.688 6.381624 
" style="fill:none;stroke:#b0b0b0;stroke-linecap:square;stroke-width:0.8;"/>
     </g>
     <g id="line2d_32">
      <g>
       <use style="stroke:#000000;stroke-width:0.8;" x="57.6" xlink:href="#mf1f823a7ce" y="6.381624"/>
      </g>
     </g>
     <g id="text_11">
      <!-- 1.0 -->
      <g transform="translate(25.155 12.460374)scale(0.16 -0.16)">
       <use xlink:href="#DejaVuSans-49"/>
       <use x="63.623047" xlink:href="#DejaVuSans-46"/>
       <use x="95.410156" xlink:href="#DejaVuSans-48"/>
      </g>
     </g>
    </g>
    <g id="text_12">
     <!-- Fraction of function,target pairs -->
     <defs>
      <path d="M 9.8125 72.90625 
L 51.703125 72.90625 
L 51.703125 64.59375 
L 19.671875 64.59375 
L 19.671875 43.109375 
L 48.578125 43.109375 
L 48.578125 34.8125 
L 19.671875 34.8125 
L 19.671875 0 
L 9.8125 0 
z
" id="DejaVuSans-70"/>
      <path d="M 41.109375 46.296875 
Q 39.59375 47.171875 37.8125 47.578125 
Q 36.03125 48 33.890625 48 
Q 26.265625 48 22.1875 43.046875 
Q 18.109375 38.09375 18.109375 28.8125 
L 18.109375 0 
L 9.078125 0 
L 9.078125 54.6875 
L 18.109375 54.6875 
L 18.109375 46.1875 
Q 20.953125 51.171875 25.484375 53.578125 
Q 30.03125 56 36.53125 56 
Q 37.453125 56 38.578125 55.875 
Q 39.703125 55.765625 41.0625 55.515625 
z
" id="DejaVuSans-114"/>
      <path d="M 48.78125 52.59375 
L 48.78125 44.1875 
Q 44.96875 46.296875 41.140625 47.34375 
Q 37.3125 48.390625 33.40625 48.390625 
Q 24.65625 48.390625 19.8125 42.84375 
Q 14.984375 37.3125 14.984375 27.296875 
Q 14.984375 17.28125 19.8125 11.734375 
Q 24.65625 6.203125 33.40625 6.203125 
Q 37.3125 6.203125 41.140625 7.25 
Q 44.96875 8.296875 48.78125 10.40625 
L 48.78125 2.09375 
Q 45.015625 0.34375 40.984375 -0.53125 
Q 36.96875 -1.421875 32.421875 -1.421875 
Q 20.0625 -1.421875 12.78125 6.34375 
Q 5.515625 14.109375 5.515625 27.296875 
Q 5.515625 40.671875 12.859375 48.328125 
Q 20.21875 56 33.015625 56 
Q 37.15625 56 41.109375 55.140625 
Q 45.0625 54.296875 48.78125 52.59375 
z
" id="DejaVuSans-99"/>
      <path d="M 18.3125 70.21875 
L 18.3125 54.6875 
L 36.8125 54.6875 
L 36.8125 47.703125 
L 18.3125 47.703125 
L 18.3125 18.015625 
Q 18.3125 11.328125 20.140625 9.421875 
Q 21.96875 7.515625 27.59375 7.515625 
L 36.8125 7.515625 
L 36.8125 0 
L 27.59375 0 
Q 17.1875 0 13.234375 3.875 
Q 9.28125 7.765625 9.28125 18.015625 
L 9.28125 47.703125 
L 2.6875 47.703125 
L 2.6875 54.6875 
L 9.28125 54.6875 
L 9.28125 70.21875 
z
" id="DejaVuSans-116"/>
      <path d="M 8.5 21.578125 
L 8.5 54.6875 
L 17.484375 54.6875 
L 17.484375 21.921875 
Q 17.484375 14.15625 20.5 10.265625 
Q 23.53125 6.390625 29.59375 6.390625 
Q 36.859375 6.390625 41.078125 11.03125 
Q 45.3125 15.671875 45.3125 23.6875 
L 45.3125 54.6875 
L 54.296875 54.6875 
L 54.296875 0 
L 45.3125 0 
L 45.3125 8.40625 
Q 42.046875 3.421875 37.71875 1 
Q 33.40625 -1.421875 27.6875 -1.421875 
Q 18.265625 -1.421875 13.375 4.4375 
Q 8.5 10.296875 8.5 21.578125 
z
M 31.109375 56 
z
" id="DejaVuSans-117"/>
      <path d="M 11.71875 12.40625 
L 22.015625 12.40625 
L 22.015625 4 
L 14.015625 -11.625 
L 7.71875 -11.625 
L 11.71875 4 
z
" id="DejaVuSans-44"/>
      <path d="M 18.109375 8.203125 
L 18.109375 -20.796875 
L 9.078125 -20.796875 
L 9.078125 54.6875 
L 18.109375 54.6875 
L 18.109375 46.390625 
Q 20.953125 51.265625 25.265625 53.625 
Q 29.59375 56 35.59375 56 
Q 45.5625 56 51.78125 48.09375 
Q 58.015625 40.1875 58.015625 27.296875 
Q 58.015625 14.40625 51.78125 6.484375 
Q 45.5625 -1.421875 35.59375 -1.421875 
Q 29.59375 -1.421875 25.265625 0.953125 
Q 20.953125 3.328125 18.109375 8.203125 
z
M 48.6875 27.296875 
Q 48.6875 37.203125 44.609375 42.84375 
Q 40.53125 48.484375 33.40625 48.484375 
Q 26.265625 48.484375 22.1875 42.84375 
Q 18.109375 37.203125 18.109375 27.296875 
Q 18.109375 17.390625 22.1875 11.75 
Q 26.265625 6.109375 33.40625 6.109375 
Q 40.53125 6.109375 44.609375 11.75 
Q 48.6875 17.390625 48.6875 27.296875 
z
" id="DejaVuSans-112"/>
     </defs>
     <g transform="translate(17.619531 285.585)rotate(-90)scale(0.17 -0.17)">
      <use xlink:href="#DejaVuSans-70"/>
      <use x="50.269531" xlink:href="#DejaVuSans-114"/>
      <use x="91.382812" xlink:href="#DejaVuSans-97"/>
      <use x="152.662109" xlink:href="#DejaVuSans-99"/>
      <use x="207.642578" xlink:href="#DejaVuSans-116"/>
      <use x="246.851562" xlink:href="#DejaVuSans-105"/>
      <use x="274.634766" xlink:href="#DejaVuSans-111"/>
      <use x="335.816406" xlink:href="#DejaVuSans-110"/>
      <use x="399.195312" xlink:href="#DejaVuSans-32"/>
      <use x="430.982422" xlink:href="#DejaVuSans-111"/>
      <use x="492.164062" xlink:href="#DejaVuSans-102"/>
      <use x="527.369141" xlink:href="#DejaVuSans-32"/>
      <use x="559.15625" xlink:href="#DejaVuSans-102"/>
      <use x="594.361328" xlink:href="#DejaVuSans-117"/>
      <use x="657.740234" xlink:href="#DejaVuSans-110"/>
      <use x="721.119141" xlink:href="#DejaVuSans-99"/>
      <use x="776.099609" xlink:href="#DejaVuSans-116"/>
      <use x="815.308594" xlink:href="#DejaVuSans-105"/>
      <use x="843.091797" xlink:href="#DejaVuSans-111"/>
      <use x="904.273438" xlink:href="#DejaVuSans-110"/>
      <use x="967.652344" xlink:href="#DejaVuSans-44"/>
      <use x="999.439453" xlink:href="#DejaVuSans-116"/>
      <use x="1038.648438" xlink:href="#DejaVuSans-97"/>
      <use x="1099.927734" xlink:href="#DejaVuSans-114"/>
      <use x="1139.291016" xlink:href="#DejaVuSans-103"/>
      <use x="1202.767578" xlink:href="#DejaVuSans-101"/>
      <use x="1264.291016" xlink:href="#DejaVuSans-116"/>
      <use x="1303.5" xlink:href="#DejaVuSans-32"/>
      <use x="1335.287109" xlink:href="#DejaVuSans-112"/>
      <use x="1398.763672" xlink:href="#DejaVuSans-97"/>
      <use x="1460.042969" xlink:href="#DejaVuSans-105"/>
      <use x="1487.826172" xlink:href="#DejaVuSans-114"/>
      <use x="1528.939453" xlink:href="#DejaVuSans-115"/>
     </g>
    </g>
   </g>
   <g id="line2d_33">
    <defs>
     <path d="M 0 1.5 
C 0.397805 1.5 0.77937 1.341951 1.06066 1.06066 
C 1.341951 0.77937 1.5 0.397805 1.5 0 
C 1.5 -0.397805 1.341951 -0.77937 1.06066 -1.06066 
C 0.77937 -1.341951 0.397805 -1.5 0 -1.5 
C -0.397805 -1.5 -0.77937 -1.341951 -1.06066 -1.06066 
C -1.341951 -0.77937 -1.5 -0.397805 -1.5 0 
C -1.5 0.397805 -1.341951 0.77937 -1.06066 1.06066 
C -0.77937 1.341951 -0.397805 1.5 0 1.5 
z
" id="m389490b070" style="stroke:#f5deb3;"/>
    </defs>
    <g>
     <use style="fill:#f5deb3;stroke:#f5deb3;" x="138.84457" xlink:href="#m389490b070" y="6.381624"/>
     <use style="fill:#f5deb3;stroke:#f5deb3;" x="138.84457" xlink:href="#m389490b070" y="6.381624"/>
    </g>
   </g>
   <g id="line2d_34">
    <defs>
     <path d="M 0 1.5 
C 0.397805 1.5 0.77937 1.341951 1.06066 1.06066 
C 1.341951 0.77937 1.5 0.397805 1.5 0 
C 1.5 -0.397805 1.341951 -0.77937 1.06066 -1.06066 
C 0.77937 -1.341951 0.397805 -1.5 0 -1.5 
C -0.397805 -1.5 -0.77937 -1.341951 -1.06066 -1.06066 
C -1.341951 -0.77937 -1.5 -0.397805 -1.5 0 
C -1.5 0.397805 -1.341951 0.77937 -1.06066 1.06066 
C -0.77937 1.341951 -0.397805 1.5 0 1.5 
z
" id="m52a7bf6fdf" style="stroke:#000080;"/>
    </defs>
    <g>
     <use style="fill:#000080;stroke:#000080;" x="174.423728" xlink:href="#m52a7bf6fdf" y="241.578828"/>
     <use style="fill:#000080;stroke:#000080;" x="174.423728" xlink:href="#m52a7bf6fdf" y="241.578828"/>
    </g>
   </g>
   <g id="line2d_35">
    <path d="M 45.512012 298.944 
L 45.512012 293.436944 
L 57.6 293.436944 
L 57.6 290.339224 
L 64.67102 290.339224 
L 64.67102 288.388808 
L 69.687988 288.388808 
L 69.687988 287.241505 
L 73.579452 287.241505 
L 73.579452 286.897314 
L 76.759008 286.897314 
L 76.759008 286.438393 
L 79.447285 286.438393 
L 79.447285 285.864741 
L 81.775977 285.864741 
L 81.775977 285.52055 
L 83.830028 285.52055 
L 83.830028 285.291089 
L 85.66744 285.291089 
L 85.66744 284.602707 
L 87.329581 284.602707 
L 87.329581 284.373246 
L 88.846997 284.373246 
L 88.846997 282.652291 
L 90.242884 282.652291 
L 90.242884 281.619718 
L 91.535274 281.619718 
L 91.535274 280.701875 
L 92.73846 280.701875 
L 92.73846 279.784033 
L 93.863965 279.784033 
L 93.863965 278.407268 
L 94.921215 278.407268 
L 94.921215 277.718886 
L 95.918017 277.718886 
L 95.918017 276.342122 
L 96.86091 276.342122 
L 96.86091 275.42428 
L 97.755429 275.42428 
L 97.755429 273.932785 
L 98.606294 273.932785 
L 98.606294 273.244403 
L 99.41757 273.244403 
L 99.41757 271.867639 
L 100.192776 271.867639 
L 100.192776 271.293987 
L 100.934985 271.293987 
L 100.934985 269.114111 
L 101.646892 269.114111 
L 101.646892 267.622616 
L 108.483824 267.622616 
L 108.483824 267.278425 
L 108.948899 267.278425 
L 108.948899 267.048964 
L 109.401893 267.048964 
L 109.401893 266.934234 
L 110.274038 266.934234 
L 110.274038 266.704773 
L 110.694282 266.704773 
L 110.694282 266.590043 
L 111.104637 266.590043 
L 111.104637 265.328009 
L 111.505558 265.328009 
L 111.505558 265.098549 
L 111.897469 265.098549 
L 111.897469 264.639627 
L 112.280765 264.639627 
L 112.280765 264.524897 
L 112.655818 264.524897 
L 112.655818 263.721785 
L 113.022974 263.721785 
L 113.022974 263.262863 
L 113.382559 263.262863 
L 113.382559 262.23029 
L 113.73488 262.23029 
L 113.73488 261.541908 
L 116.019919 261.541908 
L 116.019919 261.427178 
L 117.486268 261.427178 
L 117.486268 261.312447 
L 117.765302 261.312447 
L 117.765302 261.197717 
L 118.039942 261.197717 
L 118.039942 260.968256 
L 118.576578 260.968256 
L 118.576578 260.853526 
L 119.097192 260.853526 
L 119.097192 260.279874 
L 119.351785 260.279874 
L 119.351785 260.050414 
L 119.602714 260.050414 
L 119.602714 259.935683 
L 119.850084 259.935683 
L 119.850084 259.706222 
L 120.093994 259.706222 
L 120.093994 259.591492 
L 120.33454 259.591492 
L 120.33454 258.673649 
L 120.571812 258.673649 
L 120.571812 257.870537 
L 120.8059 257.870537 
L 120.8059 257.526346 
L 123.394238 257.526346 
L 123.394238 257.411616 
L 124.178158 257.411616 
L 124.178158 257.182155 
L 124.743806 257.182155 
L 124.743806 256.723234 
L 124.92835 256.723234 
L 124.92835 256.608503 
L 125.110962 256.608503 
L 125.110962 256.493773 
L 125.470548 256.493773 
L 125.470548 255.920121 
L 125.647598 255.920121 
L 125.647598 255.4612 
L 125.822869 255.4612 
L 125.822869 255.231739 
L 127.799239 255.231739 
L 127.799239 254.887548 
L 128.709321 254.887548 
L 128.709321 254.772818 
L 128.856489 254.772818 
L 128.856489 254.658087 
L 129.002426 254.658087 
L 129.002426 254.543357 
L 129.147151 254.543357 
L 129.147151 254.428627 
L 129.290685 254.428627 
L 129.290685 254.313896 
L 129.433047 254.313896 
L 129.433047 253.625514 
L 129.574256 253.625514 
L 129.574256 253.396054 
L 129.714332 253.396054 
L 129.714332 253.281323 
L 132.060454 253.281323 
L 132.060454 252.937132 
L 132.181982 252.937132 
L 132.181982 252.707672 
L 132.422528 252.707672 
L 132.422528 252.592941 
L 132.659801 252.592941 
L 132.659801 252.36348 
L 132.777237 252.36348 
L 132.777237 252.13402 
L 132.893889 252.13402 
L 132.893889 251.789829 
L 134.450015 251.789829 
L 134.55603 251.560368 
L 134.870259 251.560368 
L 134.973757 251.330907 
L 135.076644 251.330907 
L 135.076644 251.216177 
L 135.280614 251.216177 
L 135.381712 250.871986 
L 135.482227 250.871986 
L 135.582166 250.298334 
L 136.831795 250.298334 
L 136.831795 250.183604 
L 137.289545 250.183604 
L 137.37967 249.724683 
L 137.558536 249.724683 
L 137.558536 249.609952 
L 137.735587 249.609952 
L 137.823442 249.036301 
L 137.910857 249.036301 
L 137.910857 248.80684 
L 139.493548 248.80684 
L 139.572998 248.233188 
L 139.8092 248.233188 
L 139.8092 248.003727 
L 139.964909 248.003727 
L 139.964909 247.774267 
L 141.162927 247.774267 
L 141.162927 247.659536 
L 141.307054 247.659536 
L 141.307054 247.544806 
L 141.45 247.544806 
L 141.45 247.430076 
L 141.662245 247.430076 
L 141.662245 247.200615 
L 141.80232 247.200615 
L 141.80232 247.085885 
L 143.014805 247.085885 
L 143.014805 246.971154 
L 143.337167 246.971154 
L 143.337167 246.741694 
L 144.629556 246.741694 
L 144.688773 246.512233 
L 144.865226 246.512233 
L 144.865226 246.168042 
L 144.981877 246.168042 
L 144.981877 246.053312 
L 146.052799 246.053312 
L 146.052799 245.938581 
L 147.317833 245.938581 
L 147.317833 245.823851 
L 147.570215 245.823851 
L 147.570215 245.709121 
L 148.639252 245.709121 
L 148.639252 245.59439 
L 149.779481 245.59439 
L 149.779481 245.47966 
L 151.975216 245.47966 
L 151.975216 245.250199 
L 152.774102 245.250199 
L 152.774102 245.135469 
L 153.644434 245.135469 
L 153.644434 245.020738 
L 154.674612 245.020738 
L 154.707925 244.676547 
L 155.135299 244.676547 
L 155.135299 244.561817 
L 155.329071 244.561817 
L 155.329071 244.447087 
L 155.488919 244.447087 
L 155.488919 244.332356 
L 156.114049 244.332356 
L 156.144725 244.102896 
L 156.865211 244.102896 
L 156.865211 243.988165 
L 157.725877 243.988165 
L 157.781772 243.643974 
L 158.276927 243.643974 
L 158.276927 243.529244 
L 158.942121 243.529244 
L 158.942121 243.414514 
L 159.582872 243.414514 
L 159.633129 243.185053 
L 159.708245 243.185053 
L 159.708245 243.070323 
L 160.321935 243.070323 
L 160.321935 242.840862 
L 160.821253 242.840862 
L 160.821253 242.726132 
L 161.53316 242.726132 
L 161.53316 242.611401 
L 161.977497 242.611401 
L 162.043181 242.381941 
L 164.004716 242.381941 
L 164.004716 242.26721 
L 166.795913 242.26721 
L 166.795913 242.15248 
L 167.608702 242.15248 
L 167.608702 242.03775 
L 168.309168 242.03775 
L 168.385289 241.808289 
L 172.967743 241.808289 
L 172.967743 241.693559 
L 174.423728 241.693559 
L 174.423728 241.578828 
L 338.688 241.578828 
L 338.688 241.578828 
" style="fill:none;stroke:#000080;stroke-linecap:square;stroke-width:1.5;"/>
   </g>
   <g id="line2d_36">
    <defs>
     <path d="M 0 6 
C 1.591219 6 3.117479 5.367802 4.242641 4.242641 
C 5.367802 3.117479 6 1.591219 6 0 
C 6 -1.591219 5.367802 -3.117479 4.242641 -4.242641 
C 3.117479 -5.367802 1.591219 -6 0 -6 
C -1.591219 -6 -3.117479 -5.367802 -4.242641 -4.242641 
C -5.367802 -3.117479 -6 -1.591219 -6 0 
C -6 1.591219 -5.367802 3.117479 -4.242641 4.242641 
C -3.117479 5.367802 -1.591219 6 0 6 
z
" id="m5e52d58bb2" style="stroke:#000080;stroke-width:1.5;"/>
    </defs>
    <g>
     <use style="fill-opacity:0;stroke:#000080;stroke-width:1.5;" x="100.934985" xlink:href="#m5e52d58bb2" y="269.114111"/>
     <use style="fill-opacity:0;stroke:#000080;stroke-width:1.5;" x="164.004716" xlink:href="#m5e52d58bb2" y="242.381941"/>
     <use style="fill-opacity:0;stroke:#000080;stroke-width:1.5;" x="174.423728" xlink:href="#m5e52d58bb2" y="241.693559"/>
     <use style="fill-opacity:0;stroke:#000080;stroke-width:1.5;" x="174.423728" xlink:href="#m5e52d58bb2" y="241.578828"/>
     <use style="fill-opacity:0;stroke:#000080;stroke-width:1.5;" x="174.423728" xlink:href="#m5e52d58bb2" y="241.578828"/>
     <use style="fill-opacity:0;stroke:#000080;stroke-width:1.5;" x="338.688" xlink:href="#m5e52d58bb2" y="241.578828"/>
    </g>
   </g>
   <g id="line2d_37">
    <path style="fill:none;stroke:#000080;stroke-linecap:square;stroke-width:1.5;"/>
    <g/>
   </g>
   <g id="line2d_38">
    <path clip-path="url(#pab80d091c3)" d="M 101.646892 267.622616 
" style="fill:none;stroke:#000080;stroke-linecap:square;stroke-width:1.5;"/>
    <defs>
     <path d="M -12 12 
L 12 -12 
M -12 -12 
L 12 12 
" id="meb0c2e267f" style="stroke:#000080;"/>
    </defs>
    <g clip-path="url(#pab80d091c3)">
     <use style="fill:#000080;stroke:#000080;" x="101.646892" xlink:href="#meb0c2e267f" y="267.622616"/>
    </g>
   </g>
   <g id="line2d_39">
    <defs>
     <path d="M 0 1.5 
C 0.397805 1.5 0.77937 1.341951 1.06066 1.06066 
C 1.341951 0.77937 1.5 0.397805 1.5 0 
C 1.5 -0.397805 1.341951 -0.77937 1.06066 -1.06066 
C 0.77937 -1.341951 0.397805 -1.5 0 -1.5 
C -0.397805 -1.5 -0.77937 -1.341951 -1.06066 -1.06066 
C -1.341951 -0.77937 -1.5 -0.397805 -1.5 0 
C -1.5 0.397805 -1.341951 0.77937 -1.06066 1.06066 
C -0.77937 1.341951 -0.397805 1.5 0 1.5 
z
" id="m7edb87c48b" style="stroke:#ff00ff;"/>
    </defs>
    <g>
     <use style="fill:#ff00ff;stroke:#ff00ff;" x="195.075062" xlink:href="#m7edb87c48b" y="7.528927"/>
     <use style="fill:#ff00ff;stroke:#ff00ff;" x="195.075062" xlink:href="#m7edb87c48b" y="7.528927"/>
    </g>
   </g>
   <g id="line2d_40">
    <path d="M 45.512012 298.944 
L 45.512012 292.633831 
L 94.921215 292.633831 
L 94.921215 292.519101 
L 95.918017 292.519101 
L 95.918017 292.40437 
L 96.86091 292.40437 
L 96.86091 292.060179 
L 97.755429 292.060179 
L 97.755429 291.715988 
L 98.606294 291.715988 
L 98.606294 291.601258 
L 101.646892 291.601258 
L 101.646892 291.486528 
L 102.330873 291.486528 
L 102.330873 291.371797 
L 103.623262 291.371797 
L 103.623262 291.142337 
L 104.23523 291.142337 
L 104.23523 290.453955 
L 104.826449 290.453955 
L 104.826449 290.109764 
L 105.398279 290.109764 
L 105.398279 289.191921 
L 105.951954 289.191921 
L 105.951954 288.732999 
L 106.48859 288.732999 
L 106.48859 287.585696 
L 107.009204 287.585696 
L 107.009204 286.438393 
L 107.514726 286.438393 
L 107.514726 285.061628 
L 108.006005 285.061628 
L 108.006005 283.799595 
L 108.483824 283.799595 
L 108.483824 282.996482 
L 108.948899 282.996482 
L 108.948899 282.422831 
L 109.401893 282.422831 
L 109.401893 282.3081 
L 109.843417 282.3081 
L 109.843417 280.472415 
L 110.274038 280.472415 
L 110.274038 280.357684 
L 110.694282 280.357684 
L 110.694282 278.177808 
L 111.104637 278.177808 
L 111.104637 277.145235 
L 111.505558 277.145235 
L 111.505558 276.915774 
L 111.897469 276.915774 
L 111.897469 275.53901 
L 112.280765 275.53901 
L 112.280765 274.965358 
L 112.655818 274.965358 
L 112.655818 273.932785 
L 113.022974 273.932785 
L 113.022974 272.670751 
L 113.382559 272.670751 
L 113.382559 271.638178 
L 113.73488 271.638178 
L 113.73488 270.605605 
L 114.080224 270.605605 
L 114.080224 269.687762 
L 114.418861 269.687762 
L 114.418861 269.114111 
L 114.751048 269.114111 
L 114.751048 266.819504 
L 115.077025 266.819504 
L 115.077025 266.475313 
L 115.397021 266.475313 
L 115.397021 264.295436 
L 115.711251 264.295436 
L 115.711251 262.34502 
L 116.019919 262.34502 
L 116.019919 259.820953 
L 116.323218 259.820953 
L 116.323218 257.526346 
L 116.621333 257.526346 
L 116.621333 256.034851 
L 116.914437 256.034851 
L 116.914437 255.346469 
L 117.202696 255.346469 
L 117.202696 254.772818 
L 117.486268 254.772818 
L 117.486268 253.510784 
L 117.765302 253.510784 
L 117.765302 253.166593 
L 118.039942 253.166593 
L 118.039942 251.789829 
L 118.310324 251.789829 
L 118.310324 250.871986 
L 118.576578 250.871986 
L 118.576578 250.068874 
L 118.838828 250.068874 
L 118.838828 249.495222 
L 119.097192 249.495222 
L 119.097192 248.92157 
L 119.351785 248.92157 
L 119.351785 248.577379 
L 119.602714 248.577379 
L 119.602714 248.118458 
L 119.850084 248.118458 
L 119.850084 247.200615 
L 120.33454 247.200615 
L 120.33454 246.626963 
L 120.571812 246.626963 
L 120.571812 246.512233 
L 120.8059 246.512233 
L 120.8059 246.397503 
L 121.036887 246.397503 
L 121.036887 245.823851 
L 121.264855 245.823851 
L 121.264855 245.709121 
L 121.489881 245.709121 
L 121.489881 245.47966 
L 121.712041 245.47966 
L 121.712041 245.36493 
L 121.931406 245.36493 
L 121.931406 244.217626 
L 122.148045 244.217626 
L 122.148045 243.758705 
L 122.362027 243.758705 
L 122.362027 243.070323 
L 122.573415 243.070323 
L 122.573415 242.726132 
L 122.782271 242.726132 
L 122.782271 242.381941 
L 123.192626 242.381941 
L 123.192626 242.15248 
L 123.593547 242.15248 
L 123.593547 241.234637 
L 123.790603 241.234637 
L 123.790603 240.890446 
L 123.985457 240.890446 
L 123.985457 240.660985 
L 124.178158 240.660985 
L 124.178158 239.972603 
L 124.368753 239.972603 
L 124.368753 239.169491 
L 124.557288 239.169491 
L 124.557288 238.8253 
L 124.743806 238.8253 
L 124.743806 238.481109 
L 124.92835 238.481109 
L 124.92835 238.022188 
L 125.110962 238.022188 
L 125.110962 237.333805 
L 125.291682 237.333805 
L 125.291682 236.186502 
L 125.470548 236.186502 
L 125.470548 234.924468 
L 125.647598 234.924468 
L 125.647598 234.350817 
L 125.822869 234.350817 
L 125.822869 233.891895 
L 125.996395 233.891895 
L 125.996395 233.088783 
L 126.168212 233.088783 
L 126.168212 232.629861 
L 126.338353 232.629861 
L 126.338353 232.28567 
L 126.50685 232.28567 
L 126.50685 231.712019 
L 126.673734 231.712019 
L 126.673734 230.105794 
L 126.839037 230.105794 
L 126.839037 229.646872 
L 127.002787 229.646872 
L 127.002787 228.95849 
L 127.165014 228.95849 
L 127.165014 228.384839 
L 127.325746 228.384839 
L 127.325746 227.237535 
L 127.48501 227.237535 
L 127.48501 225.746041 
L 127.642832 225.746041 
L 127.642832 223.795625 
L 127.799239 223.795625 
L 127.799239 222.30413 
L 127.954256 222.30413 
L 127.954256 220.353715 
L 128.107907 220.353715 
L 128.107907 219.665333 
L 128.260216 219.665333 
L 128.260216 217.944377 
L 128.411207 217.944377 
L 128.411207 217.141265 
L 128.560901 217.141265 
L 128.560901 214.731928 
L 128.709321 214.731928 
L 128.709321 213.584624 
L 128.856489 213.584624 
L 128.856489 212.20786 
L 129.002426 212.20786 
L 129.002426 209.569062 
L 129.147151 209.569062 
L 129.147151 208.65122 
L 129.290685 208.65122 
L 129.290685 206.241882 
L 129.433047 206.241882 
L 129.433047 204.406197 
L 129.574256 204.406197 
L 129.574256 201.882129 
L 129.714332 201.882129 
L 129.714332 199.587522 
L 129.853291 199.587522 
L 129.853291 197.866567 
L 129.991152 197.866567 
L 129.991152 194.883578 
L 130.127931 194.883578 
L 130.127931 193.621545 
L 130.263646 193.621545 
L 130.263646 192.01532 
L 130.398313 192.01532 
L 130.398313 188.68814 
L 130.531948 188.68814 
L 130.531948 186.393533 
L 130.664567 186.393533 
L 130.664567 184.443117 
L 130.796184 184.443117 
L 130.796184 181.91905 
L 130.926816 181.91905 
L 130.926816 181.345398 
L 131.056477 181.345398 
L 131.056477 179.624443 
L 131.185181 179.624443 
L 131.185181 177.903487 
L 131.312942 177.903487 
L 131.312942 175.26469 
L 131.439773 175.26469 
L 131.439773 173.658465 
L 131.565689 173.658465 
L 131.565689 169.528172 
L 131.690703 169.528172 
L 131.690703 167.577757 
L 131.814826 167.577757 
L 131.814826 164.938959 
L 131.938072 164.938959 
L 131.938072 163.447464 
L 132.060454 163.447464 
L 132.060454 162.414891 
L 132.181982 162.414891 
L 132.181982 160.120284 
L 132.30267 160.120284 
L 132.30267 157.940408 
L 132.422528 157.940408 
L 132.422528 154.842688 
L 132.541568 154.842688 
L 132.541568 153.580655 
L 132.659801 153.580655 
L 132.659801 151.171317 
L 132.777237 151.171317 
L 132.777237 148.53252 
L 132.893889 148.53252 
L 132.893889 145.664261 
L 133.009765 145.664261 
L 133.009765 144.172766 
L 133.124876 144.172766 
L 133.124876 142.337081 
L 133.239232 142.337081 
L 133.239232 138.895171 
L 133.352844 138.895171 
L 133.352844 136.600564 
L 133.46572 136.600564 
L 133.46572 133.847036 
L 133.57787 133.847036 
L 133.57787 131.667159 
L 133.689303 131.667159 
L 133.800029 129.257822 
L 133.910056 129.257822 
L 134.019394 123.636035 
L 134.12805 123.636035 
L 134.236034 119.161552 
L 134.343353 119.161552 
L 134.450015 114.801798 
L 134.55603 114.801798 
L 134.661403 112.04827 
L 134.766144 112.04827 
L 134.870259 108.49163 
L 134.973757 108.49163 
L 135.076644 104.820259 
L 135.178927 104.820259 
L 135.280614 100.575236 
L 135.381712 100.575236 
L 135.482227 96.330213 
L 135.582166 96.330213 
L 135.681535 92.658842 
L 135.780341 92.658842 
L 135.878591 88.987471 
L 135.97629 88.987471 
L 136.073445 85.775022 
L 136.170062 85.775022 
L 136.266147 82.677302 
L 136.361705 82.677302 
L 136.456742 78.776471 
L 136.551264 78.776471 
L 136.645276 76.711324 
L 136.738785 76.711324 
L 136.831795 74.187257 
L 136.924311 74.187257 
L 137.016339 70.286425 
L 137.107884 70.286425 
L 137.198951 67.762358 
L 137.289545 67.762358 
L 137.37967 66.041402 
L 137.469333 66.041402 
L 137.558536 64.090987 
L 137.647286 64.090987 
L 137.735587 60.878537 
L 137.823442 60.878537 
L 137.910857 58.928121 
L 137.997836 58.928121 
L 138.084384 56.059863 
L 138.170504 56.059863 
L 138.256201 55.14202 
L 138.341479 55.14202 
L 138.426341 53.191604 
L 138.510793 53.191604 
L 138.594838 51.011727 
L 138.67848 51.011727 
L 138.761723 50.323345 
L 138.84457 50.323345 
L 138.927025 48.946581 
L 139.009092 48.946581 
L 139.090775 48.37293 
L 139.172077 48.37293 
L 139.253002 46.537244 
L 139.333553 46.537244 
L 139.413734 44.931019 
L 139.493548 44.931019 
L 139.572998 44.242637 
L 139.652088 44.242637 
L 139.730821 43.554255 
L 139.8092 43.554255 
L 139.887228 42.177491 
L 139.964909 42.177491 
L 140.042245 41.144918 
L 140.11924 41.144918 
L 140.195896 40.112345 
L 140.272217 40.112345 
L 140.348205 39.079772 
L 140.423864 39.079772 
L 140.499195 38.735581 
L 140.574203 38.735581 
L 140.64889 37.817738 
L 140.723258 37.817738 
L 140.723258 37.588277 
L 140.871049 37.588277 
L 140.944478 36.670434 
L 141.017599 36.670434 
L 141.090414 36.440974 
L 141.162927 36.440974 
L 141.235139 35.523131 
L 141.45 35.523131 
L 141.521035 34.490558 
L 141.662245 34.490558 
L 141.662245 34.375828 
L 141.871938 34.375828 
L 141.941279 33.802176 
L 142.010346 33.802176 
L 142.07914 33.457985 
L 142.215919 33.457985 
L 142.283909 32.769603 
L 142.619936 32.769603 
L 142.686372 32.310681 
L 142.752555 32.310681 
L 142.818488 31.85176 
L 142.884173 31.85176 
L 142.884173 31.507569 
L 143.014805 31.507569 
L 143.014805 31.392839 
L 143.144465 31.392839 
L 143.208936 31.163378 
L 143.273169 31.163378 
L 143.337167 30.704457 
L 143.590833 30.704457 
L 143.653678 30.360266 
L 143.716296 30.360266 
L 143.778691 29.671884 
L 143.840863 29.671884 
L 143.840863 29.557153 
L 143.964547 29.557153 
L 143.964547 29.327692 
L 144.269971 29.327692 
L 144.330419 28.868771 
L 144.45069 28.868771 
L 144.45069 28.754041 
L 144.629556 28.754041 
L 144.688773 28.40985 
L 144.806606 28.40985 
L 144.865226 27.950928 
L 144.923649 27.950928 
L 144.981877 27.492007 
L 145.097753 27.492007 
L 145.097753 27.377277 
L 145.270136 27.377277 
L 145.327221 26.803625 
L 145.440832 26.803625 
L 145.440832 26.688895 
L 145.553708 26.688895 
L 145.609873 26.229973 
L 145.777292 26.229973 
L 145.832743 25.771052 
L 146.107383 25.771052 
L 146.107383 25.656321 
L 146.324022 25.656321 
L 146.431341 25.426861 
L 146.644018 25.426861 
L 146.644018 25.1974 
L 147.010073 25.1974 
L 147.010073 25.08267 
L 147.164632 25.08267 
L 147.164632 24.967939 
L 147.317833 24.967939 
L 147.317833 24.853209 
L 147.71991 24.853209 
L 147.71991 24.509018 
L 148.161434 24.509018 
L 148.258051 24.164827 
L 148.780082 24.164827 
L 148.780082 24.050097 
L 148.966103 24.050097 
L 149.012299 23.820636 
L 149.104327 23.820636 
L 149.104327 23.705906 
L 149.286939 23.705906 
L 149.332295 23.476445 
L 149.690956 23.476445 
L 149.690956 23.361715 
L 150.301393 23.361715 
L 150.38688 22.902793 
L 150.47195 22.902793 
L 150.47195 22.788063 
L 150.932558 22.788063 
L 150.932558 22.673333 
L 151.381313 22.673333 
L 151.381313 22.443872 
L 151.501723 22.443872 
L 151.501723 22.329142 
L 151.700576 22.329142 
L 151.700576 22.214411 
L 154.167129 22.214411 
L 154.167129 22.099681 
L 154.371897 22.099681 
L 154.405793 21.75549 
L 154.840544 21.75549 
L 154.840544 21.640759 
L 155.329071 21.640759 
L 155.425155 21.181838 
L 155.520713 21.181838 
L 155.584129 20.952377 
L 155.647315 20.952377 
L 155.741666 20.493456 
L 155.959855 20.493456 
L 156.021696 19.690344 
L 156.236431 19.690344 
L 156.327657 19.346153 
L 156.357959 19.346153 
L 156.418408 19.001962 
L 156.598505 19.001962 
L 156.658127 18.54304 
L 156.747178 18.54304 
L 156.835778 17.969388 
L 156.98245 17.969388 
L 157.069866 17.739928 
L 157.098907 17.739928 
L 157.185742 17.395737 
L 157.415209 17.395737 
L 157.500487 17.051546 
L 157.613546 17.051546 
L 157.613546 16.936815 
L 157.809652 16.936815 
L 157.920731 16.592624 
L 157.976006 16.592624 
L 158.086033 16.363164 
L 158.168101 16.363164 
L 158.195371 16.133703 
L 158.304027 16.133703 
L 158.385078 15.674782 
L 158.492562 15.674782 
L 158.599388 14.9864 
L 158.625992 14.9864 
L 158.732007 14.298017 
L 158.811096 14.298017 
L 158.889829 13.839096 
L 158.968208 13.839096 
L 159.046236 13.609635 
L 159.226956 13.609635 
L 159.32939 13.265444 
L 159.557689 13.265444 
L 159.658204 12.921253 
L 159.758143 12.921253 
L 159.832723 12.577062 
L 159.882266 12.577062 
L 159.882266 12.462332 
L 160.225184 12.462332 
L 160.297798 12.232871 
L 161.169354 12.232871 
L 161.169354 12.118141 
L 161.955547 12.118141 
L 161.955547 11.88868 
L 162.68677 11.88868 
L 162.68677 11.77395 
L 162.875305 11.77395 
L 162.875305 11.65922 
L 163.287113 11.65922 
L 163.287113 11.544489 
L 163.52961 11.544489 
L 163.52961 11.429759 
L 164.004716 11.429759 
L 164.004716 11.315029 
L 164.371873 11.315029 
L 164.371873 11.200298 
L 164.486229 11.200298 
L 164.486229 11.085568 
L 164.618704 11.085568 
L 164.618704 10.970838 
L 165.375047 10.970838 
L 165.46508 10.741377 
L 165.714726 10.741377 
L 165.714726 10.626646 
L 166.374858 10.626646 
L 166.374858 10.511916 
L 166.544502 10.511916 
L 166.544502 10.397186 
L 167.0929 10.397186 
L 167.0929 10.282455 
L 167.255733 10.282455 
L 167.255733 10.052995 
L 167.449146 10.052995 
L 167.449146 9.938264 
L 167.560988 9.938264 
L 167.624577 9.708804 
L 167.829655 9.708804 
L 167.829655 9.594073 
L 168.094245 9.594073 
L 168.094245 9.479343 
L 168.521475 9.479343 
L 168.521475 9.364613 
L 168.849965 9.364613 
L 168.849965 9.249882 
L 170.59394 9.249882 
L 170.59394 9.135152 
L 172.434028 9.135152 
L 172.434028 9.020422 
L 173.15364 9.020422 
L 173.15364 8.790961 
L 173.800244 8.790961 
L 173.800244 8.676231 
L 176.286908 8.676231 
L 176.286908 8.5615 
L 176.459861 8.5615 
L 176.459861 8.44677 
L 177.281564 8.44677 
L 177.281564 8.33204 
L 178.428718 8.33204 
L 178.428718 8.217309 
L 180.759545 8.217309 
L 180.759545 8.102579 
L 181.209473 8.102579 
L 181.209473 7.987849 
L 181.950772 7.987849 
L 181.950772 7.873118 
L 183.222213 7.873118 
L 183.222213 7.758388 
L 183.594505 7.758388 
L 183.594505 7.643658 
L 195.075062 7.643658 
L 195.075062 7.528927 
L 338.688 7.528927 
L 338.688 7.528927 
" style="fill:none;stroke:#ff00ff;stroke-linecap:square;stroke-width:1.5;"/>
   </g>
   <g id="line2d_41">
    <defs>
     <path d="M -0 8.485281 
L 5.091169 0 
L 0 -8.485281 
L -5.091169 -0 
z
" id="mcb3901728a" style="stroke:#ff00ff;stroke-linejoin:miter;stroke-width:1.5;"/>
    </defs>
    <g>
     <use style="fill-opacity:0;stroke:#ff00ff;stroke-linejoin:miter;stroke-width:1.5;" x="132.30267" xlink:href="#mcb3901728a" y="157.940408"/>
     <use style="fill-opacity:0;stroke:#ff00ff;stroke-linejoin:miter;stroke-width:1.5;" x="156.236431" xlink:href="#mcb3901728a" y="19.575613"/>
     <use style="fill-opacity:0;stroke:#ff00ff;stroke-linejoin:miter;stroke-width:1.5;" x="195.075062" xlink:href="#mcb3901728a" y="7.643658"/>
     <use style="fill-opacity:0;stroke:#ff00ff;stroke-linejoin:miter;stroke-width:1.5;" x="195.075062" xlink:href="#mcb3901728a" y="7.528927"/>
     <use style="fill-opacity:0;stroke:#ff00ff;stroke-linejoin:miter;stroke-width:1.5;" x="195.075062" xlink:href="#mcb3901728a" y="7.528927"/>
     <use style="fill-opacity:0;stroke:#ff00ff;stroke-linejoin:miter;stroke-width:1.5;" x="338.688" xlink:href="#mcb3901728a" y="7.528927"/>
    </g>
   </g>
   <g id="line2d_42">
    <path style="fill:none;stroke:#ff00ff;stroke-linecap:square;stroke-width:1.5;"/>
    <g/>
   </g>
   <g id="line2d_43">
    <path clip-path="url(#pab80d091c3)" d="M 153.178403 22.214411 
" style="fill:none;stroke:#ff00ff;stroke-linecap:square;stroke-width:1.5;"/>
    <defs>
     <path d="M -12 12 
L 12 -12 
M -12 -12 
L 12 12 
" id="mffc4fc41c4" style="stroke:#ff00ff;"/>
    </defs>
    <g clip-path="url(#pab80d091c3)">
     <use style="fill:#ff00ff;stroke:#ff00ff;" x="153.178403" xlink:href="#mffc4fc41c4" y="22.214411"/>
    </g>
   </g>
   <g id="line2d_44">
    <path d="M 338.688 241.578828 
L 369.60768 293.092752 
" style="fill:none;stroke:#000080;stroke-linecap:square;stroke-width:1.5;"/>
    <g>
     <use style="fill-opacity:0;stroke:#000080;stroke-width:1.5;" x="338.688" xlink:href="#m5e52d58bb2" y="241.578828"/>
     <use style="fill-opacity:0;stroke:#000080;stroke-width:1.5;" x="369.60768" xlink:href="#m5e52d58bb2" y="293.092752"/>
    </g>
   </g>
   <g id="line2d_45">
    <path d="M 338.688 7.528927 
L 369.60768 152.662812 
" style="fill:none;stroke:#ff00ff;stroke-linecap:square;stroke-width:1.5;"/>
    <g>
     <use style="fill-opacity:0;stroke:#ff00ff;stroke-linejoin:miter;stroke-width:1.5;" x="338.688" xlink:href="#mcb3901728a" y="7.528927"/>
     <use style="fill-opacity:0;stroke:#ff00ff;stroke-linejoin:miter;stroke-width:1.5;" x="369.60768" xlink:href="#mcb3901728a" y="152.662812"/>
    </g>
   </g>
   <g id="line2d_46">
    <path d="M 338.688 298.944 
L 338.688 6.381624 
" style="fill:none;stroke:#000000;stroke-linecap:square;stroke-width:1.5;"/>
   </g>
   <g id="patch_3">
    <path d="M 57.6 298.944 
L 57.6 3.456 
" style="fill:none;stroke:#000000;stroke-linecap:square;stroke-linejoin:miter;stroke-width:0.8;"/>
   </g>
   <g id="patch_4">
    <path d="M 338.688 298.944 
L 338.688 3.456 
" style="fill:none;stroke:#000000;stroke-linecap:square;stroke-linejoin:miter;stroke-width:0.8;"/>
   </g>
   <g id="patch_5">
    <path d="M 57.6 298.944 
L 338.688 298.944 
" style="fill:none;stroke:#000000;stroke-linecap:square;stroke-linejoin:miter;stroke-width:0.8;"/>
   </g>
   <g id="patch_6">
    <path d="M 57.6 3.456 
L 338.688 3.456 
" style="fill:none;stroke:#000000;stroke-linecap:square;stroke-linejoin:miter;stroke-width:0.8;"/>
   </g>
   <g id="text_13">
    <!-- gpy lcb -->
    <defs>
     <path d="M 32.171875 -5.078125 
Q 28.375 -14.84375 24.75 -17.8125 
Q 21.140625 -20.796875 15.09375 -20.796875 
L 7.90625 -20.796875 
L 7.90625 -13.28125 
L 13.1875 -13.28125 
Q 16.890625 -13.28125 18.9375 -11.515625 
Q 21 -9.765625 23.484375 -3.21875 
L 25.09375 0.875 
L 2.984375 54.6875 
L 12.5 54.6875 
L 29.59375 11.921875 
L 46.6875 54.6875 
L 56.203125 54.6875 
z
" id="DejaVuSans-121"/>
     <path d="M 48.6875 27.296875 
Q 48.6875 37.203125 44.609375 42.84375 
Q 40.53125 48.484375 33.40625 48.484375 
Q 26.265625 48.484375 22.1875 42.84375 
Q 18.109375 37.203125 18.109375 27.296875 
Q 18.109375 17.390625 22.1875 11.75 
Q 26.265625 6.109375 33.40625 6.109375 
Q 40.53125 6.109375 44.609375 11.75 
Q 48.6875 17.390625 48.6875 27.296875 
z
M 18.109375 46.390625 
Q 20.953125 51.265625 25.265625 53.625 
Q 29.59375 56 35.59375 56 
Q 45.5625 56 51.78125 48.09375 
Q 58.015625 40.1875 58.015625 27.296875 
Q 58.015625 14.40625 51.78125 6.484375 
Q 45.5625 -1.421875 35.59375 -1.421875 
Q 29.59375 -1.421875 25.265625 0.953125 
Q 20.953125 3.328125 18.109375 8.203125 
L 18.109375 0 
L 9.078125 0 
L 9.078125 75.984375 
L 18.109375 75.984375 
z
" id="DejaVuSans-98"/>
    </defs>
    <g transform="translate(375.22944 297.78369)scale(0.17 -0.17)">
     <use xlink:href="#DejaVuSans-103"/>
     <use x="63.476562" xlink:href="#DejaVuSans-112"/>
     <use x="126.953125" xlink:href="#DejaVuSans-121"/>
     <use x="186.132812" xlink:href="#DejaVuSans-32"/>
     <use x="217.919922" xlink:href="#DejaVuSans-108"/>
     <use x="245.703125" xlink:href="#DejaVuSans-99"/>
     <use x="300.683594" xlink:href="#DejaVuSans-98"/>
    </g>
   </g>
   <g id="text_14">
    <!-- scp fmin -->
    <g transform="translate(375.22944 157.353749)scale(0.17 -0.17)">
     <use xlink:href="#DejaVuSans-115"/>
     <use x="52.099609" xlink:href="#DejaVuSans-99"/>
     <use x="107.080078" xlink:href="#DejaVuSans-112"/>
     <use x="170.556641" xlink:href="#DejaVuSans-32"/>
     <use x="202.34375" xlink:href="#DejaVuSans-102"/>
     <use x="237.548828" xlink:href="#DejaVuSans-109"/>
     <use x="334.960938" xlink:href="#DejaVuSans-105"/>
     <use x="362.744141" xlink:href="#DejaVuSans-110"/>
    </g>
   </g>
   <g id="text_15">
    <!-- best 2009 -->
    <defs>
     <path d="M 10.984375 1.515625 
L 10.984375 10.5 
Q 14.703125 8.734375 18.5 7.8125 
Q 22.3125 6.890625 25.984375 6.890625 
Q 35.75 6.890625 40.890625 13.453125 
Q 46.046875 20.015625 46.78125 33.40625 
Q 43.953125 29.203125 39.59375 26.953125 
Q 35.25 24.703125 29.984375 24.703125 
Q 19.046875 24.703125 12.671875 31.3125 
Q 6.296875 37.9375 6.296875 49.421875 
Q 6.296875 60.640625 12.9375 67.421875 
Q 19.578125 74.21875 30.609375 74.21875 
Q 43.265625 74.21875 49.921875 64.515625 
Q 56.59375 54.828125 56.59375 36.375 
Q 56.59375 19.140625 48.40625 8.859375 
Q 40.234375 -1.421875 26.421875 -1.421875 
Q 22.703125 -1.421875 18.890625 -0.6875 
Q 15.09375 0.046875 10.984375 1.515625 
z
M 30.609375 32.421875 
Q 37.25 32.421875 41.125 36.953125 
Q 45.015625 41.5 45.015625 49.421875 
Q 45.015625 57.28125 41.125 61.84375 
Q 37.25 66.40625 30.609375 66.40625 
Q 23.96875 66.40625 20.09375 61.84375 
Q 16.21875 57.28125 16.21875 49.421875 
Q 16.21875 41.5 20.09375 36.953125 
Q 23.96875 32.421875 30.609375 32.421875 
z
" id="DejaVuSans-57"/>
    </defs>
    <g transform="translate(375.22944 16.923809)scale(0.17 -0.17)">
     <use xlink:href="#DejaVuSans-98"/>
     <use x="63.476562" xlink:href="#DejaVuSans-101"/>
     <use x="125" xlink:href="#DejaVuSans-115"/>
     <use x="177.099609" xlink:href="#DejaVuSans-116"/>
     <use x="216.308594" xlink:href="#DejaVuSans-32"/>
     <use x="248.095703" xlink:href="#DejaVuSans-50"/>
     <use x="311.71875" xlink:href="#DejaVuSans-48"/>
     <use x="375.341797" xlink:href="#DejaVuSans-48"/>
     <use x="438.964844" xlink:href="#DejaVuSans-57"/>
    </g>
   </g>
   <g id="text_16">
    <!-- bbob f10-f14, 2-D -->
    <defs>
     <path d="M 19.671875 64.796875 
L 19.671875 8.109375 
L 31.59375 8.109375 
Q 46.6875 8.109375 53.6875 14.9375 
Q 60.6875 21.78125 60.6875 36.53125 
Q 60.6875 51.171875 53.6875 57.984375 
Q 46.6875 64.796875 31.59375 64.796875 
z
M 9.8125 72.90625 
L 30.078125 72.90625 
Q 51.265625 72.90625 61.171875 64.09375 
Q 71.09375 55.28125 71.09375 36.53125 
Q 71.09375 17.671875 61.125 8.828125 
Q 51.171875 0 30.078125 0 
L 9.8125 0 
z
" id="DejaVuSans-68"/>
    </defs>
    <g transform="translate(60.41088 14.161286)scale(0.102 -0.102)">
     <use xlink:href="#DejaVuSans-98"/>
     <use x="63.476562" xlink:href="#DejaVuSans-98"/>
     <use x="126.953125" xlink:href="#DejaVuSans-111"/>
     <use x="188.134766" xlink:href="#DejaVuSans-98"/>
     <use x="251.611328" xlink:href="#DejaVuSans-32"/>
     <use x="283.398438" xlink:href="#DejaVuSans-102"/>
     <use x="318.603516" xlink:href="#DejaVuSans-49"/>
     <use x="382.226562" xlink:href="#DejaVuSans-48"/>
     <use x="445.849609" xlink:href="#DejaVuSans-45"/>
     <use x="481.933594" xlink:href="#DejaVuSans-102"/>
     <use x="517.138672" xlink:href="#DejaVuSans-49"/>
     <use x="580.761719" xlink:href="#DejaVuSans-52"/>
     <use x="644.384766" xlink:href="#DejaVuSans-44"/>
     <use x="676.171875" xlink:href="#DejaVuSans-32"/>
     <use x="707.958984" xlink:href="#DejaVuSans-50"/>
     <use x="771.582031" xlink:href="#DejaVuSans-45"/>
     <use x="807.666016" xlink:href="#DejaVuSans-68"/>
    </g>
    <!-- 51 targets: 100..1e-08 -->
    <defs>
     <path d="M 10.796875 72.90625 
L 49.515625 72.90625 
L 49.515625 64.59375 
L 19.828125 64.59375 
L 19.828125 46.734375 
Q 21.96875 47.46875 24.109375 47.828125 
Q 26.265625 48.1875 28.421875 48.1875 
Q 40.625 48.1875 47.75 41.5 
Q 54.890625 34.8125 54.890625 23.390625 
Q 54.890625 11.625 47.5625 5.09375 
Q 40.234375 -1.421875 26.90625 -1.421875 
Q 22.3125 -1.421875 17.546875 -0.640625 
Q 12.796875 0.140625 7.71875 1.703125 
L 7.71875 11.625 
Q 12.109375 9.234375 16.796875 8.0625 
Q 21.484375 6.890625 26.703125 6.890625 
Q 35.15625 6.890625 40.078125 11.328125 
Q 45.015625 15.765625 45.015625 23.390625 
Q 45.015625 31 40.078125 35.4375 
Q 35.15625 39.890625 26.703125 39.890625 
Q 22.75 39.890625 18.8125 39.015625 
Q 14.890625 38.140625 10.796875 36.28125 
z
" id="DejaVuSans-53"/>
     <path d="M 11.71875 12.40625 
L 22.015625 12.40625 
L 22.015625 0 
L 11.71875 0 
z
M 11.71875 51.703125 
L 22.015625 51.703125 
L 22.015625 39.3125 
L 11.71875 39.3125 
z
" id="DejaVuSans-58"/>
    </defs>
    <g transform="translate(60.41088 25.583055)scale(0.102 -0.102)">
     <use xlink:href="#DejaVuSans-53"/>
     <use x="63.623047" xlink:href="#DejaVuSans-49"/>
     <use x="127.246094" xlink:href="#DejaVuSans-32"/>
     <use x="159.033203" xlink:href="#DejaVuSans-116"/>
     <use x="198.242188" xlink:href="#DejaVuSans-97"/>
     <use x="259.521484" xlink:href="#DejaVuSans-114"/>
     <use x="298.884766" xlink:href="#DejaVuSans-103"/>
     <use x="362.361328" xlink:href="#DejaVuSans-101"/>
     <use x="423.884766" xlink:href="#DejaVuSans-116"/>
     <use x="463.09375" xlink:href="#DejaVuSans-115"/>
     <use x="515.193359" xlink:href="#DejaVuSans-58"/>
     <use x="548.884766" xlink:href="#DejaVuSans-32"/>
     <use x="580.671875" xlink:href="#DejaVuSans-49"/>
     <use x="644.294922" xlink:href="#DejaVuSans-48"/>
     <use x="707.917969" xlink:href="#DejaVuSans-48"/>
     <use x="771.541016" xlink:href="#DejaVuSans-46"/>
     <use x="803.328125" xlink:href="#DejaVuSans-46"/>
     <use x="835.115234" xlink:href="#DejaVuSans-49"/>
     <use x="898.738281" xlink:href="#DejaVuSans-101"/>
     <use x="960.261719" xlink:href="#DejaVuSans-45"/>
     <use x="996.345703" xlink:href="#DejaVuSans-48"/>
     <use x="1059.96875" xlink:href="#DejaVuSans-56"/>
    </g>
    <!-- 15 instances -->
    <g transform="translate(60.41088 37.004824)scale(0.102 -0.102)">
     <use xlink:href="#DejaVuSans-49"/>
     <use x="63.623047" xlink:href="#DejaVuSans-53"/>
     <use x="127.246094" xlink:href="#DejaVuSans-32"/>
     <use x="159.033203" xlink:href="#DejaVuSans-105"/>
     <use x="186.816406" xlink:href="#DejaVuSans-110"/>
     <use x="250.195312" xlink:href="#DejaVuSans-115"/>
     <use x="302.294922" xlink:href="#DejaVuSans-116"/>
     <use x="341.503906" xlink:href="#DejaVuSans-97"/>
     <use x="402.783203" xlink:href="#DejaVuSans-110"/>
     <use x="466.162109" xlink:href="#DejaVuSans-99"/>
     <use x="521.142578" xlink:href="#DejaVuSans-101"/>
     <use x="582.666016" xlink:href="#DejaVuSans-115"/>
    </g>
   </g>
   <g id="text_17">
    <!-- v2.3.3.5 -->
    <defs>
     <path d="M 40.578125 39.3125 
Q 47.65625 37.796875 51.625 33 
Q 55.609375 28.21875 55.609375 21.1875 
Q 55.609375 10.40625 48.1875 4.484375 
Q 40.765625 -1.421875 27.09375 -1.421875 
Q 22.515625 -1.421875 17.65625 -0.515625 
Q 12.796875 0.390625 7.625 2.203125 
L 7.625 11.71875 
Q 11.71875 9.328125 16.59375 8.109375 
Q 21.484375 6.890625 26.8125 6.890625 
Q 36.078125 6.890625 40.9375 10.546875 
Q 45.796875 14.203125 45.796875 21.1875 
Q 45.796875 27.640625 41.28125 31.265625 
Q 36.765625 34.90625 28.71875 34.90625 
L 20.21875 34.90625 
L 20.21875 43.015625 
L 29.109375 43.015625 
Q 36.375 43.015625 40.234375 45.921875 
Q 44.09375 48.828125 44.09375 54.296875 
Q 44.09375 59.90625 40.109375 62.90625 
Q 36.140625 65.921875 28.71875 65.921875 
Q 24.65625 65.921875 20.015625 65.03125 
Q 15.375 64.15625 9.8125 62.3125 
L 9.8125 71.09375 
Q 15.4375 72.65625 20.34375 73.4375 
Q 25.25 74.21875 29.59375 74.21875 
Q 40.828125 74.21875 47.359375 69.109375 
Q 53.90625 64.015625 53.90625 55.328125 
Q 53.90625 49.265625 50.4375 45.09375 
Q 46.96875 40.921875 40.578125 39.3125 
z
" id="DejaVuSans-51"/>
    </defs>
    <g style="fill:#808080;" transform="translate(177.692437 293.909432)scale(0.1 -0.1)">
     <use xlink:href="#DejaVuSans-118"/>
     <use x="59.179688" xlink:href="#DejaVuSans-50"/>
     <use x="122.802734" xlink:href="#DejaVuSans-46"/>
     <use x="154.589844" xlink:href="#DejaVuSans-51"/>
     <use x="218.212891" xlink:href="#DejaVuSans-46"/>
     <use x="250" xlink:href="#DejaVuSans-51"/>
     <use x="313.623047" xlink:href="#DejaVuSans-46"/>
     <use x="345.410156" xlink:href="#DejaVuSans-53"/>
    </g>
   </g>
  </g>
 </g>
 <defs>
  <clipPath id="pab80d091c3">
   <rect height="295.488" width="281.088" x="57.6" y="3.456"/>
  </clipPath>
 </defs>
</svg>
