<?xml version="1.0" encoding="utf-8" standalone="no"?>
<!DOCTYPE svg PUBLIC "-//W3C//DTD SVG 1.1//EN"
  "http://www.w3.org/Graphics/SVG/1.1/DTD/svg11.dtd">
<!-- Created with matplotlib (https://matplotlib.org/) -->
<svg height="345.6pt" version="1.1" viewBox="0 0 460.8 345.6" width="460.8pt" xmlns="http://www.w3.org/2000/svg" xmlns:xlink="http://www.w3.org/1999/xlink">
 <defs>
  <style type="text/css">
*{stroke-linecap:butt;stroke-linejoin:round;}
  </style>
 </defs>
 <g id="figure_1">
  <g id="patch_1">
   <path d="M 0 345.6 
L 460.8 345.6 
L 460.8 0 
L 0 0 
z
" style="fill:#ffffff;"/>
  </g>
  <g id="axes_1">
   <g id="patch_2">
    <path d="M 57.6 298.944 
L 338.688 298.944 
L 338.688 3.456 
L 57.6 3.456 
z
" style="fill:#ffffff;"/>
   </g>
   <g id="line2d_1">
    <path d="M 38.440992 298.944 
L 38.440992 284.029055 
L 57.6 284.029055 
L 57.6 280.587145 
L 66.508432 280.587145 
L 66.508432 278.292538 
L 69.687988 278.292538 
L 69.687988 277.145235 
L 74.704957 277.145235 
L 74.704957 270.261414 
L 76.759008 270.261414 
L 76.759008 267.966807 
L 83.171864 267.966807 
L 83.171864 265.6722 
L 84.464254 265.6722 
L 84.464254 264.524897 
L 86.792945 264.524897 
L 86.792945 263.377593 
L 88.846997 263.377593 
L 88.846997 262.23029 
L 92.34655 262.23029 
L 92.34655 261.082987 
L 93.121756 261.082987 
L 93.121756 259.935683 
L 99.41757 259.935683 
L 99.41757 258.78838 
L 103.203018 258.78838 
L 103.203018 256.493773 
L 104.434538 256.493773 
L 104.434538 255.346469 
L 105.584798 255.346469 
L 105.584798 254.199166 
L 110.415248 254.199166 
L 110.415248 253.051863 
L 114.641021 253.051863 
L 114.641021 251.904559 
L 115.917635 251.904559 
L 115.917635 250.757256 
L 118.220662 250.757256 
L 118.220662 249.609952 
L 125.706218 249.609952 
L 125.706218 248.462649 
L 127.695124 248.462649 
L 127.695124 247.315345 
L 128.005624 247.315345 
L 128.005624 246.168042 
L 129.385722 246.168042 
L 129.385722 245.020738 
L 130.664567 245.020738 
L 130.664567 243.873435 
L 139.090775 243.873435 
L 139.090775 242.726132 
L 139.678372 242.726132 
L 139.730821 240.431525 
L 140.599134 240.431525 
L 140.599134 239.284221 
L 140.79731 239.284221 
L 140.89556 236.989614 
L 140.944478 236.989614 
L 141.041904 233.547704 
L 141.187031 233.547704 
L 141.283115 228.95849 
L 141.47371 228.95849 
L 141.47371 227.811187 
L 142.124852 227.811187 
L 142.215919 224.369277 
L 142.261275 224.369277 
L 142.261275 223.221973 
L 142.441528 223.221973 
L 142.53096 219.780063 
L 142.619936 219.780063 
L 142.708461 216.338153 
L 142.752555 216.338153 
L 142.840411 212.896242 
L 142.971369 212.896242 
L 143.058132 209.454332 
L 143.144465 209.454332 
L 143.230373 206.012422 
L 143.273169 206.012422 
L 143.358447 202.570511 
L 143.40093 202.570511 
L 143.485587 199.128601 
L 143.527762 199.128601 
L 143.569835 196.833994 
L 143.653678 196.833994 
L 143.695448 193.392084 
L 143.902815 193.392084 
L 143.985075 189.950174 
L 144.350522 189.950174 
L 144.430703 186.508263 
L 144.470655 186.508263 
L 144.550287 184.213656 
L 145.020588 184.213656 
L 145.097753 181.91905 
L 145.212864 181.91905 
L 145.289185 178.477139 
L 145.403044 178.477139 
L 145.440832 175.035229 
L 145.516164 175.035229 
L 145.591172 171.593319 
L 145.628555 171.593319 
L 145.703082 167.004105 
L 145.851187 167.004105 
L 145.961446 162.414891 
L 146.034567 162.414891 
L 146.143677 156.678374 
L 146.179895 156.678374 
L 146.288102 152.08916 
L 146.324022 152.08916 
L 146.359869 149.794553 
L 147.266916 149.794553 
L 147.266916 148.64725 
L 148.54473 148.64725 
L 148.54473 147.499946 
L 151.151579 147.499946 
L 151.151579 146.352643 
L 152.436193 146.352643 
L 152.436193 145.20534 
L 154.906477 145.20534 
L 154.906477 144.058036 
L 155.825108 144.058036 
L 155.825108 142.910733 
L 157.185742 142.910733 
L 157.185742 141.763429 
L 157.976006 141.763429 
L 157.976006 140.616126 
L 158.429943 140.616126 
L 158.429943 139.468822 
L 160.727241 139.468822 
L 160.727241 138.321519 
L 161.100288 138.321519 
L 161.100288 137.174215 
L 162.303474 137.174215 
L 162.403659 134.879609 
L 162.588203 134.879609 
L 162.588203 133.732305 
L 164.346358 133.732305 
L 164.435497 131.437698 
L 164.536814 131.437698 
L 164.536814 130.290395 
L 172.728604 130.290395 
L 172.830933 126.848485 
L 172.917053 126.848485 
L 172.994977 123.406574 
L 173.033809 123.406574 
L 173.118935 119.964664 
L 173.188276 119.964664 
L 173.234351 116.522754 
L 173.333764 116.522754 
L 173.42503 111.93354 
L 173.462916 111.93354 
L 173.462916 110.786236 
L 173.583604 110.786236 
L 173.658612 107.344326 
L 173.695995 107.344326 
L 173.800244 102.755112 
L 173.977519 102.755112 
L 174.050855 99.313202 
L 174.094709 99.313202 
L 174.167555 94.723988 
L 174.211117 94.723988 
L 174.305129 91.282078 
L 174.333954 91.282078 
L 174.427309 87.840168 
L 174.59126 87.840168 
L 174.690307 85.545561 
L 174.753684 85.545561 
L 174.830834 83.250954 
L 174.893703 83.250954 
L 174.991052 79.809044 
L 175.060255 79.809044 
L 175.149812 77.514437 
L 175.218389 77.514437 
L 175.252577 75.21983 
L 175.36153 75.21983 
L 175.46306 71.77792 
L 175.55729 71.77792 
L 175.630972 69.483313 
L 175.711 69.483313 
L 175.790662 67.188706 
L 175.843568 67.188706 
L 175.876553 64.894099 
L 176.118724 64.894099 
L 176.118724 63.746796 
L 176.402401 63.746796 
L 176.402401 62.599492 
L 176.712976 62.599492 
L 176.712976 61.452189 
L 177.011942 61.452189 
L 177.011942 60.304885 
L 177.275482 60.304885 
L 177.31801 58.010278 
L 177.390674 58.010278 
L 177.457017 55.715672 
L 183.364365 55.715672 
L 183.364365 54.568368 
L 189.593097 54.568368 
L 189.593097 53.421065 
L 199.731589 53.421065 
L 199.731589 52.273761 
L 210.681424 52.273761 
L 210.681424 51.126458 
L 217.523125 51.126458 
L 217.523125 49.979154 
L 224.215733 49.979154 
L 224.215733 48.831851 
L 228.238203 48.831851 
L 228.238203 47.684547 
L 239.674938 47.684547 
L 239.674938 46.537244 
L 243.610176 46.537244 
L 243.610176 45.389941 
L 254.026036 45.389941 
L 254.026036 44.242637 
L 261.436098 44.242637 
L 261.436878 6.381624 
L 338.688 6.381624 
L 338.688 6.381624 
" style="fill:none;stroke:#f5deb3;stroke-linecap:square;stroke-width:4;"/>
   </g>
   <g id="line2d_2">
    <defs>
     <path d="M -0 7.778175 
L 7.778175 0 
L 0 -7.778175 
L -7.778175 -0 
z
" id="m634493204e" style="stroke:#f5deb3;stroke-linejoin:miter;stroke-width:1.5;"/>
    </defs>
    <g>
     <use style="fill:#f5deb3;stroke:#f5deb3;stroke-linejoin:miter;stroke-width:1.5;" x="125.706218" xlink:href="#m634493204e" y="248.462649"/>
     <use style="fill:#f5deb3;stroke:#f5deb3;stroke-linejoin:miter;stroke-width:1.5;" x="146.071013" xlink:href="#m634493204e" y="160.120284"/>
     <use style="fill:#f5deb3;stroke:#f5deb3;stroke-linejoin:miter;stroke-width:1.5;" x="183.364365" xlink:href="#m634493204e" y="55.715672"/>
     <use style="fill:#f5deb3;stroke:#f5deb3;stroke-linejoin:miter;stroke-width:1.5;" x="261.436878" xlink:href="#m634493204e" y="17.854658"/>
     <use style="fill:#f5deb3;stroke:#f5deb3;stroke-linejoin:miter;stroke-width:1.5;" x="261.436878" xlink:href="#m634493204e" y="6.381624"/>
     <use style="fill:#f5deb3;stroke:#f5deb3;stroke-linejoin:miter;stroke-width:1.5;" x="338.688" xlink:href="#m634493204e" y="6.381624"/>
    </g>
   </g>
   <g id="line2d_3">
    <path style="fill:none;stroke:#f5deb3;stroke-linecap:square;stroke-width:4;"/>
    <g/>
   </g>
   <g id="line2d_4">
    <path d="M 338.688 6.381624 
L 369.60768 12.232871 
" style="fill:none;stroke:#f5deb3;stroke-linecap:square;stroke-width:4;"/>
    <g>
     <use style="fill:#f5deb3;stroke:#f5deb3;stroke-linejoin:miter;stroke-width:1.5;" x="338.688" xlink:href="#m634493204e" y="6.381624"/>
     <use style="fill:#f5deb3;stroke:#f5deb3;stroke-linejoin:miter;stroke-width:1.5;" x="369.60768" xlink:href="#m634493204e" y="12.232871"/>
    </g>
   </g>
   <g id="matplotlib.axis_1">
    <g id="xtick_1">
     <g id="line2d_5">
      <path clip-path="url(#pd247212968)" d="M 57.6 298.944 
L 57.6 3.456 
" style="fill:none;stroke:#b0b0b0;stroke-linecap:square;stroke-width:0.8;"/>
     </g>
     <g id="line2d_6">
      <defs>
       <path d="M 0 0 
L 0 3.5 
" id="m93349226ac" style="stroke:#000000;stroke-width:0.8;"/>
      </defs>
      <g>
       <use style="stroke:#000000;stroke-width:0.8;" x="57.6" xlink:href="#m93349226ac" y="298.944"/>
      </g>
     </g>
     <g id="text_1">
      <!-- 0 -->
      <defs>
       <path d="M 31.78125 66.40625 
Q 24.171875 66.40625 20.328125 58.90625 
Q 16.5 51.421875 16.5 36.375 
Q 16.5 21.390625 20.328125 13.890625 
Q 24.171875 6.390625 31.78125 6.390625 
Q 39.453125 6.390625 43.28125 13.890625 
Q 47.125 21.390625 47.125 36.375 
Q 47.125 51.421875 43.28125 58.90625 
Q 39.453125 66.40625 31.78125 66.40625 
z
M 31.78125 74.21875 
Q 44.046875 74.21875 50.515625 64.515625 
Q 56.984375 54.828125 56.984375 36.375 
Q 56.984375 17.96875 50.515625 8.265625 
Q 44.046875 -1.421875 31.78125 -1.421875 
Q 19.53125 -1.421875 13.0625 8.265625 
Q 6.59375 17.96875 6.59375 36.375 
Q 6.59375 54.828125 13.0625 64.515625 
Q 19.53125 74.21875 31.78125 74.21875 
z
" id="DejaVuSans-48"/>
      </defs>
      <g transform="translate(51.2375 321.140875)scale(0.2 -0.2)">
       <use xlink:href="#DejaVuSans-48"/>
      </g>
     </g>
    </g>
    <g id="xtick_2">
     <g id="line2d_7">
      <path clip-path="url(#pd247212968)" d="M 137.910857 298.944 
L 137.910857 3.456 
" style="fill:none;stroke:#b0b0b0;stroke-linecap:square;stroke-width:0.8;"/>
     </g>
     <g id="line2d_8">
      <g>
       <use style="stroke:#000000;stroke-width:0.8;" x="137.910857" xlink:href="#m93349226ac" y="298.944"/>
      </g>
     </g>
     <g id="text_2">
      <!-- 2 -->
      <defs>
       <path d="M 19.1875 8.296875 
L 53.609375 8.296875 
L 53.609375 0 
L 7.328125 0 
L 7.328125 8.296875 
Q 12.9375 14.109375 22.625 23.890625 
Q 32.328125 33.6875 34.8125 36.53125 
Q 39.546875 41.84375 41.421875 45.53125 
Q 43.3125 49.21875 43.3125 52.78125 
Q 43.3125 58.59375 39.234375 62.25 
Q 35.15625 65.921875 28.609375 65.921875 
Q 23.96875 65.921875 18.8125 64.3125 
Q 13.671875 62.703125 7.8125 59.421875 
L 7.8125 69.390625 
Q 13.765625 71.78125 18.9375 73 
Q 24.125 74.21875 28.421875 74.21875 
Q 39.75 74.21875 46.484375 68.546875 
Q 53.21875 62.890625 53.21875 53.421875 
Q 53.21875 48.921875 51.53125 44.890625 
Q 49.859375 40.875 45.40625 35.40625 
Q 44.1875 33.984375 37.640625 27.21875 
Q 31.109375 20.453125 19.1875 8.296875 
z
" id="DejaVuSans-50"/>
      </defs>
      <g transform="translate(131.548357 321.140875)scale(0.2 -0.2)">
       <use xlink:href="#DejaVuSans-50"/>
      </g>
     </g>
    </g>
    <g id="xtick_3">
     <g id="line2d_9">
      <path clip-path="url(#pd247212968)" d="M 218.221714 298.944 
L 218.221714 3.456 
" style="fill:none;stroke:#b0b0b0;stroke-linecap:square;stroke-width:0.8;"/>
     </g>
     <g id="line2d_10">
      <g>
       <use style="stroke:#000000;stroke-width:0.8;" x="218.221714" xlink:href="#m93349226ac" y="298.944"/>
      </g>
     </g>
     <g id="text_3">
      <!-- 4 -->
      <defs>
       <path d="M 37.796875 64.3125 
L 12.890625 25.390625 
L 37.796875 25.390625 
z
M 35.203125 72.90625 
L 47.609375 72.90625 
L 47.609375 25.390625 
L 58.015625 25.390625 
L 58.015625 17.1875 
L 47.609375 17.1875 
L 47.609375 0 
L 37.796875 0 
L 37.796875 17.1875 
L 4.890625 17.1875 
L 4.890625 26.703125 
z
" id="DejaVuSans-52"/>
      </defs>
      <g transform="translate(211.859214 321.140875)scale(0.2 -0.2)">
       <use xlink:href="#DejaVuSans-52"/>
      </g>
     </g>
    </g>
    <g id="xtick_4">
     <g id="line2d_11">
      <path clip-path="url(#pd247212968)" d="M 298.532571 298.944 
L 298.532571 3.456 
" style="fill:none;stroke:#b0b0b0;stroke-linecap:square;stroke-width:0.8;"/>
     </g>
     <g id="line2d_12">
      <g>
       <use style="stroke:#000000;stroke-width:0.8;" x="298.532571" xlink:href="#m93349226ac" y="298.944"/>
      </g>
     </g>
     <g id="text_4">
      <!-- 6 -->
      <defs>
       <path d="M 33.015625 40.375 
Q 26.375 40.375 22.484375 35.828125 
Q 18.609375 31.296875 18.609375 23.390625 
Q 18.609375 15.53125 22.484375 10.953125 
Q 26.375 6.390625 33.015625 6.390625 
Q 39.65625 6.390625 43.53125 10.953125 
Q 47.40625 15.53125 47.40625 23.390625 
Q 47.40625 31.296875 43.53125 35.828125 
Q 39.65625 40.375 33.015625 40.375 
z
M 52.59375 71.296875 
L 52.59375 62.3125 
Q 48.875 64.0625 45.09375 64.984375 
Q 41.3125 65.921875 37.59375 65.921875 
Q 27.828125 65.921875 22.671875 59.328125 
Q 17.53125 52.734375 16.796875 39.40625 
Q 19.671875 43.65625 24.015625 45.921875 
Q 28.375 48.1875 33.59375 48.1875 
Q 44.578125 48.1875 50.953125 41.515625 
Q 57.328125 34.859375 57.328125 23.390625 
Q 57.328125 12.15625 50.6875 5.359375 
Q 44.046875 -1.421875 33.015625 -1.421875 
Q 20.359375 -1.421875 13.671875 8.265625 
Q 6.984375 17.96875 6.984375 36.375 
Q 6.984375 53.65625 15.1875 63.9375 
Q 23.390625 74.21875 37.203125 74.21875 
Q 40.921875 74.21875 44.703125 73.484375 
Q 48.484375 72.75 52.59375 71.296875 
z
" id="DejaVuSans-54"/>
      </defs>
      <g transform="translate(292.170071 321.140875)scale(0.2 -0.2)">
       <use xlink:href="#DejaVuSans-54"/>
      </g>
     </g>
    </g>
    <g id="xtick_5">
     <g id="line2d_13">
      <path clip-path="url(#pd247212968)" d="M 97.755429 298.944 
L 97.755429 3.456 
" style="fill:none;stroke:#b0b0b0;stroke-linecap:square;stroke-width:0.8;"/>
     </g>
     <g id="line2d_14">
      <defs>
       <path d="M 0 0 
L 0 2 
" id="m5194950609" style="stroke:#000000;stroke-width:0.6;"/>
      </defs>
      <g>
       <use style="stroke:#000000;stroke-width:0.6;" x="97.755429" xlink:href="#m5194950609" y="298.944"/>
      </g>
     </g>
    </g>
    <g id="xtick_6">
     <g id="line2d_15">
      <path clip-path="url(#pd247212968)" d="M 178.066286 298.944 
L 178.066286 3.456 
" style="fill:none;stroke:#b0b0b0;stroke-linecap:square;stroke-width:0.8;"/>
     </g>
     <g id="line2d_16">
      <g>
       <use style="stroke:#000000;stroke-width:0.6;" x="178.066286" xlink:href="#m5194950609" y="298.944"/>
      </g>
     </g>
    </g>
    <g id="xtick_7">
     <g id="line2d_17">
      <path clip-path="url(#pd247212968)" d="M 258.377143 298.944 
L 258.377143 3.456 
" style="fill:none;stroke:#b0b0b0;stroke-linecap:square;stroke-width:0.8;"/>
     </g>
     <g id="line2d_18">
      <g>
       <use style="stroke:#000000;stroke-width:0.6;" x="258.377143" xlink:href="#m5194950609" y="298.944"/>
      </g>
     </g>
    </g>
    <g id="xtick_8">
     <g id="line2d_19">
      <path clip-path="url(#pd247212968)" d="M 338.688 298.944 
L 338.688 3.456 
" style="fill:none;stroke:#b0b0b0;stroke-linecap:square;stroke-width:0.8;"/>
     </g>
     <g id="line2d_20">
      <g>
       <use style="stroke:#000000;stroke-width:0.6;" x="338.688" xlink:href="#m5194950609" y="298.944"/>
      </g>
     </g>
    </g>
    <g id="text_5">
     <!-- log10(# f-evals / dimension) -->
     <defs>
      <path d="M 9.421875 75.984375 
L 18.40625 75.984375 
L 18.40625 0 
L 9.421875 0 
z
" id="DejaVuSans-108"/>
      <path d="M 30.609375 48.390625 
Q 23.390625 48.390625 19.1875 42.75 
Q 14.984375 37.109375 14.984375 27.296875 
Q 14.984375 17.484375 19.15625 11.84375 
Q 23.34375 6.203125 30.609375 6.203125 
Q 37.796875 6.203125 41.984375 11.859375 
Q 46.1875 17.53125 46.1875 27.296875 
Q 46.1875 37.015625 41.984375 42.703125 
Q 37.796875 48.390625 30.609375 48.390625 
z
M 30.609375 56 
Q 42.328125 56 49.015625 48.375 
Q 55.71875 40.765625 55.71875 27.296875 
Q 55.71875 13.875 49.015625 6.21875 
Q 42.328125 -1.421875 30.609375 -1.421875 
Q 18.84375 -1.421875 12.171875 6.21875 
Q 5.515625 13.875 5.515625 27.296875 
Q 5.515625 40.765625 12.171875 48.375 
Q 18.84375 56 30.609375 56 
z
" id="DejaVuSans-111"/>
      <path d="M 45.40625 27.984375 
Q 45.40625 37.75 41.375 43.109375 
Q 37.359375 48.484375 30.078125 48.484375 
Q 22.859375 48.484375 18.828125 43.109375 
Q 14.796875 37.75 14.796875 27.984375 
Q 14.796875 18.265625 18.828125 12.890625 
Q 22.859375 7.515625 30.078125 7.515625 
Q 37.359375 7.515625 41.375 12.890625 
Q 45.40625 18.265625 45.40625 27.984375 
z
M 54.390625 6.78125 
Q 54.390625 -7.171875 48.1875 -13.984375 
Q 42 -20.796875 29.203125 -20.796875 
Q 24.46875 -20.796875 20.265625 -20.09375 
Q 16.0625 -19.390625 12.109375 -17.921875 
L 12.109375 -9.1875 
Q 16.0625 -11.328125 19.921875 -12.34375 
Q 23.78125 -13.375 27.78125 -13.375 
Q 36.625 -13.375 41.015625 -8.765625 
Q 45.40625 -4.15625 45.40625 5.171875 
L 45.40625 9.625 
Q 42.625 4.78125 38.28125 2.390625 
Q 33.9375 0 27.875 0 
Q 17.828125 0 11.671875 7.65625 
Q 5.515625 15.328125 5.515625 27.984375 
Q 5.515625 40.671875 11.671875 48.328125 
Q 17.828125 56 27.875 56 
Q 33.9375 56 38.28125 53.609375 
Q 42.625 51.21875 45.40625 46.390625 
L 45.40625 54.6875 
L 54.390625 54.6875 
z
" id="DejaVuSans-103"/>
      <path d="M 12.40625 8.296875 
L 28.515625 8.296875 
L 28.515625 63.921875 
L 10.984375 60.40625 
L 10.984375 69.390625 
L 28.421875 72.90625 
L 38.28125 72.90625 
L 38.28125 8.296875 
L 54.390625 8.296875 
L 54.390625 0 
L 12.40625 0 
z
" id="DejaVuSans-49"/>
      <path d="M 31 75.875 
Q 24.46875 64.65625 21.28125 53.65625 
Q 18.109375 42.671875 18.109375 31.390625 
Q 18.109375 20.125 21.3125 9.0625 
Q 24.515625 -2 31 -13.1875 
L 23.1875 -13.1875 
Q 15.875 -1.703125 12.234375 9.375 
Q 8.59375 20.453125 8.59375 31.390625 
Q 8.59375 42.28125 12.203125 53.3125 
Q 15.828125 64.359375 23.1875 75.875 
z
" id="DejaVuSans-40"/>
      <path d="M 51.125 44 
L 36.921875 44 
L 32.8125 27.6875 
L 47.125 27.6875 
z
M 43.796875 71.78125 
L 38.71875 51.515625 
L 52.984375 51.515625 
L 58.109375 71.78125 
L 65.921875 71.78125 
L 60.890625 51.515625 
L 76.125 51.515625 
L 76.125 44 
L 58.984375 44 
L 54.984375 27.6875 
L 70.515625 27.6875 
L 70.515625 20.21875 
L 53.078125 20.21875 
L 48 0 
L 40.1875 0 
L 45.21875 20.21875 
L 30.90625 20.21875 
L 25.875 0 
L 18.015625 0 
L 23.09375 20.21875 
L 7.71875 20.21875 
L 7.71875 27.6875 
L 24.90625 27.6875 
L 29 44 
L 13.28125 44 
L 13.28125 51.515625 
L 30.90625 51.515625 
L 35.890625 71.78125 
z
" id="DejaVuSans-35"/>
      <path id="DejaVuSans-32"/>
      <path d="M 37.109375 75.984375 
L 37.109375 68.5 
L 28.515625 68.5 
Q 23.6875 68.5 21.796875 66.546875 
Q 19.921875 64.59375 19.921875 59.515625 
L 19.921875 54.6875 
L 34.71875 54.6875 
L 34.71875 47.703125 
L 19.921875 47.703125 
L 19.921875 0 
L 10.890625 0 
L 10.890625 47.703125 
L 2.296875 47.703125 
L 2.296875 54.6875 
L 10.890625 54.6875 
L 10.890625 58.5 
Q 10.890625 67.625 15.140625 71.796875 
Q 19.390625 75.984375 28.609375 75.984375 
z
" id="DejaVuSans-102"/>
      <path d="M 4.890625 31.390625 
L 31.203125 31.390625 
L 31.203125 23.390625 
L 4.890625 23.390625 
z
" id="DejaVuSans-45"/>
      <path d="M 56.203125 29.59375 
L 56.203125 25.203125 
L 14.890625 25.203125 
Q 15.484375 15.921875 20.484375 11.0625 
Q 25.484375 6.203125 34.421875 6.203125 
Q 39.59375 6.203125 44.453125 7.46875 
Q 49.3125 8.734375 54.109375 11.28125 
L 54.109375 2.78125 
Q 49.265625 0.734375 44.1875 -0.34375 
Q 39.109375 -1.421875 33.890625 -1.421875 
Q 20.796875 -1.421875 13.15625 6.1875 
Q 5.515625 13.8125 5.515625 26.8125 
Q 5.515625 40.234375 12.765625 48.109375 
Q 20.015625 56 32.328125 56 
Q 43.359375 56 49.78125 48.890625 
Q 56.203125 41.796875 56.203125 29.59375 
z
M 47.21875 32.234375 
Q 47.125 39.59375 43.09375 43.984375 
Q 39.0625 48.390625 32.421875 48.390625 
Q 24.90625 48.390625 20.390625 44.140625 
Q 15.875 39.890625 15.1875 32.171875 
z
" id="DejaVuSans-101"/>
      <path d="M 2.984375 54.6875 
L 12.5 54.6875 
L 29.59375 8.796875 
L 46.6875 54.6875 
L 56.203125 54.6875 
L 35.6875 0 
L 23.484375 0 
z
" id="DejaVuSans-118"/>
      <path d="M 34.28125 27.484375 
Q 23.390625 27.484375 19.1875 25 
Q 14.984375 22.515625 14.984375 16.5 
Q 14.984375 11.71875 18.140625 8.90625 
Q 21.296875 6.109375 26.703125 6.109375 
Q 34.1875 6.109375 38.703125 11.40625 
Q 43.21875 16.703125 43.21875 25.484375 
L 43.21875 27.484375 
z
M 52.203125 31.203125 
L 52.203125 0 
L 43.21875 0 
L 43.21875 8.296875 
Q 40.140625 3.328125 35.546875 0.953125 
Q 30.953125 -1.421875 24.3125 -1.421875 
Q 15.921875 -1.421875 10.953125 3.296875 
Q 6 8.015625 6 15.921875 
Q 6 25.140625 12.171875 29.828125 
Q 18.359375 34.515625 30.609375 34.515625 
L 43.21875 34.515625 
L 43.21875 35.40625 
Q 43.21875 41.609375 39.140625 45 
Q 35.0625 48.390625 27.6875 48.390625 
Q 23 48.390625 18.546875 47.265625 
Q 14.109375 46.140625 10.015625 43.890625 
L 10.015625 52.203125 
Q 14.9375 54.109375 19.578125 55.046875 
Q 24.21875 56 28.609375 56 
Q 40.484375 56 46.34375 49.84375 
Q 52.203125 43.703125 52.203125 31.203125 
z
" id="DejaVuSans-97"/>
      <path d="M 44.28125 53.078125 
L 44.28125 44.578125 
Q 40.484375 46.53125 36.375 47.5 
Q 32.28125 48.484375 27.875 48.484375 
Q 21.1875 48.484375 17.84375 46.4375 
Q 14.5 44.390625 14.5 40.28125 
Q 14.5 37.15625 16.890625 35.375 
Q 19.28125 33.59375 26.515625 31.984375 
L 29.59375 31.296875 
Q 39.15625 29.25 43.1875 25.515625 
Q 47.21875 21.78125 47.21875 15.09375 
Q 47.21875 7.46875 41.1875 3.015625 
Q 35.15625 -1.421875 24.609375 -1.421875 
Q 20.21875 -1.421875 15.453125 -0.5625 
Q 10.6875 0.296875 5.421875 2 
L 5.421875 11.28125 
Q 10.40625 8.6875 15.234375 7.390625 
Q 20.0625 6.109375 24.8125 6.109375 
Q 31.15625 6.109375 34.5625 8.28125 
Q 37.984375 10.453125 37.984375 14.40625 
Q 37.984375 18.0625 35.515625 20.015625 
Q 33.0625 21.96875 24.703125 23.78125 
L 21.578125 24.515625 
Q 13.234375 26.265625 9.515625 29.90625 
Q 5.8125 33.546875 5.8125 39.890625 
Q 5.8125 47.609375 11.28125 51.796875 
Q 16.75 56 26.8125 56 
Q 31.78125 56 36.171875 55.265625 
Q 40.578125 54.546875 44.28125 53.078125 
z
" id="DejaVuSans-115"/>
      <path d="M 25.390625 72.90625 
L 33.6875 72.90625 
L 8.296875 -9.28125 
L 0 -9.28125 
z
" id="DejaVuSans-47"/>
      <path d="M 45.40625 46.390625 
L 45.40625 75.984375 
L 54.390625 75.984375 
L 54.390625 0 
L 45.40625 0 
L 45.40625 8.203125 
Q 42.578125 3.328125 38.25 0.953125 
Q 33.9375 -1.421875 27.875 -1.421875 
Q 17.96875 -1.421875 11.734375 6.484375 
Q 5.515625 14.40625 5.515625 27.296875 
Q 5.515625 40.1875 11.734375 48.09375 
Q 17.96875 56 27.875 56 
Q 33.9375 56 38.25 53.625 
Q 42.578125 51.265625 45.40625 46.390625 
z
M 14.796875 27.296875 
Q 14.796875 17.390625 18.875 11.75 
Q 22.953125 6.109375 30.078125 6.109375 
Q 37.203125 6.109375 41.296875 11.75 
Q 45.40625 17.390625 45.40625 27.296875 
Q 45.40625 37.203125 41.296875 42.84375 
Q 37.203125 48.484375 30.078125 48.484375 
Q 22.953125 48.484375 18.875 42.84375 
Q 14.796875 37.203125 14.796875 27.296875 
z
" id="DejaVuSans-100"/>
      <path d="M 9.421875 54.6875 
L 18.40625 54.6875 
L 18.40625 0 
L 9.421875 0 
z
M 9.421875 75.984375 
L 18.40625 75.984375 
L 18.40625 64.59375 
L 9.421875 64.59375 
z
" id="DejaVuSans-105"/>
      <path d="M 52 44.1875 
Q 55.375 50.25 60.0625 53.125 
Q 64.75 56 71.09375 56 
Q 79.640625 56 84.28125 50.015625 
Q 88.921875 44.046875 88.921875 33.015625 
L 88.921875 0 
L 79.890625 0 
L 79.890625 32.71875 
Q 79.890625 40.578125 77.09375 44.375 
Q 74.3125 48.1875 68.609375 48.1875 
Q 61.625 48.1875 57.5625 43.546875 
Q 53.515625 38.921875 53.515625 30.90625 
L 53.515625 0 
L 44.484375 0 
L 44.484375 32.71875 
Q 44.484375 40.625 41.703125 44.40625 
Q 38.921875 48.1875 33.109375 48.1875 
Q 26.21875 48.1875 22.15625 43.53125 
Q 18.109375 38.875 18.109375 30.90625 
L 18.109375 0 
L 9.078125 0 
L 9.078125 54.6875 
L 18.109375 54.6875 
L 18.109375 46.1875 
Q 21.1875 51.21875 25.484375 53.609375 
Q 29.78125 56 35.6875 56 
Q 41.65625 56 45.828125 52.96875 
Q 50 49.953125 52 44.1875 
z
" id="DejaVuSans-109"/>
      <path d="M 54.890625 33.015625 
L 54.890625 0 
L 45.90625 0 
L 45.90625 32.71875 
Q 45.90625 40.484375 42.875 44.328125 
Q 39.84375 48.1875 33.796875 48.1875 
Q 26.515625 48.1875 22.3125 43.546875 
Q 18.109375 38.921875 18.109375 30.90625 
L 18.109375 0 
L 9.078125 0 
L 9.078125 54.6875 
L 18.109375 54.6875 
L 18.109375 46.1875 
Q 21.34375 51.125 25.703125 53.5625 
Q 30.078125 56 35.796875 56 
Q 45.21875 56 50.046875 50.171875 
Q 54.890625 44.34375 54.890625 33.015625 
z
" id="DejaVuSans-110"/>
      <path d="M 8.015625 75.875 
L 15.828125 75.875 
Q 23.140625 64.359375 26.78125 53.3125 
Q 30.421875 42.28125 30.421875 31.390625 
Q 30.421875 20.453125 26.78125 9.375 
Q 23.140625 -1.703125 15.828125 -13.1875 
L 8.015625 -13.1875 
Q 14.5 -2 17.703125 9.0625 
Q 20.90625 20.125 20.90625 31.390625 
Q 20.90625 42.671875 17.703125 53.65625 
Q 14.5 64.65625 8.015625 75.875 
z
" id="DejaVuSans-41"/>
     </defs>
     <g transform="translate(77.764078 342.217594)scale(0.17 -0.17)">
      <use xlink:href="#DejaVuSans-108"/>
      <use x="27.783203" xlink:href="#DejaVuSans-111"/>
      <use x="88.964844" xlink:href="#DejaVuSans-103"/>
      <use x="152.441406" xlink:href="#DejaVuSans-49"/>
      <use x="216.064453" xlink:href="#DejaVuSans-48"/>
      <use x="279.6875" xlink:href="#DejaVuSans-40"/>
      <use x="318.701172" xlink:href="#DejaVuSans-35"/>
      <use x="402.490234" xlink:href="#DejaVuSans-32"/>
      <use x="434.277344" xlink:href="#DejaVuSans-102"/>
      <use x="463.982422" xlink:href="#DejaVuSans-45"/>
      <use x="500.066406" xlink:href="#DejaVuSans-101"/>
      <use x="561.589844" xlink:href="#DejaVuSans-118"/>
      <use x="620.769531" xlink:href="#DejaVuSans-97"/>
      <use x="682.048828" xlink:href="#DejaVuSans-108"/>
      <use x="709.832031" xlink:href="#DejaVuSans-115"/>
      <use x="761.931641" xlink:href="#DejaVuSans-32"/>
      <use x="793.71875" xlink:href="#DejaVuSans-47"/>
      <use x="827.410156" xlink:href="#DejaVuSans-32"/>
      <use x="859.197266" xlink:href="#DejaVuSans-100"/>
      <use x="922.673828" xlink:href="#DejaVuSans-105"/>
      <use x="950.457031" xlink:href="#DejaVuSans-109"/>
      <use x="1047.869141" xlink:href="#DejaVuSans-101"/>
      <use x="1109.392578" xlink:href="#DejaVuSans-110"/>
      <use x="1172.771484" xlink:href="#DejaVuSans-115"/>
      <use x="1224.871094" xlink:href="#DejaVuSans-105"/>
      <use x="1252.654297" xlink:href="#DejaVuSans-111"/>
      <use x="1313.835938" xlink:href="#DejaVuSans-110"/>
      <use x="1377.214844" xlink:href="#DejaVuSans-41"/>
     </g>
    </g>
   </g>
   <g id="matplotlib.axis_2">
    <g id="ytick_1">
     <g id="line2d_21">
      <path clip-path="url(#pd247212968)" d="M 57.6 298.944 
L 338.688 298.944 
" style="fill:none;stroke:#b0b0b0;stroke-linecap:square;stroke-width:0.8;"/>
     </g>
     <g id="line2d_22">
      <defs>
       <path d="M 0 0 
L -3.5 0 
" id="maf500040bc" style="stroke:#000000;stroke-width:0.8;"/>
      </defs>
      <g>
       <use style="stroke:#000000;stroke-width:0.8;" x="57.6" xlink:href="#maf500040bc" y="298.944"/>
      </g>
     </g>
     <g id="text_6">
      <!-- 0.0 -->
      <defs>
       <path d="M 10.6875 12.40625 
L 21 12.40625 
L 21 0 
L 10.6875 0 
z
" id="DejaVuSans-46"/>
      </defs>
      <g transform="translate(25.155 305.02275)scale(0.16 -0.16)">
       <use xlink:href="#DejaVuSans-48"/>
       <use x="63.623047" xlink:href="#DejaVuSans-46"/>
       <use x="95.410156" xlink:href="#DejaVuSans-48"/>
      </g>
     </g>
    </g>
    <g id="ytick_2">
     <g id="line2d_23">
      <path clip-path="url(#pd247212968)" d="M 57.6 240.431525 
L 338.688 240.431525 
" style="fill:none;stroke:#b0b0b0;stroke-linecap:square;stroke-width:0.8;"/>
     </g>
     <g id="line2d_24">
      <g>
       <use style="stroke:#000000;stroke-width:0.8;" x="57.6" xlink:href="#maf500040bc" y="240.431525"/>
      </g>
     </g>
     <g id="text_7">
      <!-- 0.2 -->
      <g transform="translate(25.155 246.510275)scale(0.16 -0.16)">
       <use xlink:href="#DejaVuSans-48"/>
       <use x="63.623047" xlink:href="#DejaVuSans-46"/>
       <use x="95.410156" xlink:href="#DejaVuSans-50"/>
      </g>
     </g>
    </g>
    <g id="ytick_3">
     <g id="line2d_25">
      <path clip-path="url(#pd247212968)" d="M 57.6 181.91905 
L 338.688 181.91905 
" style="fill:none;stroke:#b0b0b0;stroke-linecap:square;stroke-width:0.8;"/>
     </g>
     <g id="line2d_26">
      <g>
       <use style="stroke:#000000;stroke-width:0.8;" x="57.6" xlink:href="#maf500040bc" y="181.91905"/>
      </g>
     </g>
     <g id="text_8">
      <!-- 0.4 -->
      <g transform="translate(25.155 187.9978)scale(0.16 -0.16)">
       <use xlink:href="#DejaVuSans-48"/>
       <use x="63.623047" xlink:href="#DejaVuSans-46"/>
       <use x="95.410156" xlink:href="#DejaVuSans-52"/>
      </g>
     </g>
    </g>
    <g id="ytick_4">
     <g id="line2d_27">
      <path clip-path="url(#pd247212968)" d="M 57.6 123.406574 
L 338.688 123.406574 
" style="fill:none;stroke:#b0b0b0;stroke-linecap:square;stroke-width:0.8;"/>
     </g>
     <g id="line2d_28">
      <g>
       <use style="stroke:#000000;stroke-width:0.8;" x="57.6" xlink:href="#maf500040bc" y="123.406574"/>
      </g>
     </g>
     <g id="text_9">
      <!-- 0.6 -->
      <g transform="translate(25.155 129.485324)scale(0.16 -0.16)">
       <use xlink:href="#DejaVuSans-48"/>
       <use x="63.623047" xlink:href="#DejaVuSans-46"/>
       <use x="95.410156" xlink:href="#DejaVuSans-54"/>
      </g>
     </g>
    </g>
    <g id="ytick_5">
     <g id="line2d_29">
      <path clip-path="url(#pd247212968)" d="M 57.6 64.894099 
L 338.688 64.894099 
" style="fill:none;stroke:#b0b0b0;stroke-linecap:square;stroke-width:0.8;"/>
     </g>
     <g id="line2d_30">
      <g>
       <use style="stroke:#000000;stroke-width:0.8;" x="57.6" xlink:href="#maf500040bc" y="64.894099"/>
      </g>
     </g>
     <g id="text_10">
      <!-- 0.8 -->
      <defs>
       <path d="M 31.78125 34.625 
Q 24.75 34.625 20.71875 30.859375 
Q 16.703125 27.09375 16.703125 20.515625 
Q 16.703125 13.921875 20.71875 10.15625 
Q 24.75 6.390625 31.78125 6.390625 
Q 38.8125 6.390625 42.859375 10.171875 
Q 46.921875 13.96875 46.921875 20.515625 
Q 46.921875 27.09375 42.890625 30.859375 
Q 38.875 34.625 31.78125 34.625 
z
M 21.921875 38.8125 
Q 15.578125 40.375 12.03125 44.71875 
Q 8.5 49.078125 8.5 55.328125 
Q 8.5 64.0625 14.71875 69.140625 
Q 20.953125 74.21875 31.78125 74.21875 
Q 42.671875 74.21875 48.875 69.140625 
Q 55.078125 64.0625 55.078125 55.328125 
Q 55.078125 49.078125 51.53125 44.71875 
Q 48 40.375 41.703125 38.8125 
Q 48.828125 37.15625 52.796875 32.3125 
Q 56.78125 27.484375 56.78125 20.515625 
Q 56.78125 9.90625 50.3125 4.234375 
Q 43.84375 -1.421875 31.78125 -1.421875 
Q 19.734375 -1.421875 13.25 4.234375 
Q 6.78125 9.90625 6.78125 20.515625 
Q 6.78125 27.484375 10.78125 32.3125 
Q 14.796875 37.15625 21.921875 38.8125 
z
M 18.3125 54.390625 
Q 18.3125 48.734375 21.84375 45.5625 
Q 25.390625 42.390625 31.78125 42.390625 
Q 38.140625 42.390625 41.71875 45.5625 
Q 45.3125 48.734375 45.3125 54.390625 
Q 45.3125 60.0625 41.71875 63.234375 
Q 38.140625 66.40625 31.78125 66.40625 
Q 25.390625 66.40625 21.84375 63.234375 
Q 18.3125 60.0625 18.3125 54.390625 
z
" id="DejaVuSans-56"/>
      </defs>
      <g transform="translate(25.155 70.972849)scale(0.16 -0.16)">
       <use xlink:href="#DejaVuSans-48"/>
       <use x="63.623047" xlink:href="#DejaVuSans-46"/>
       <use x="95.410156" xlink:href="#DejaVuSans-56"/>
      </g>
     </g>
    </g>
    <g id="ytick_6">
     <g id="line2d_31">
      <path clip-path="url(#pd247212968)" d="M 57.6 6.381624 
L 338.688 6.381624 
" style="fill:none;stroke:#b0b0b0;stroke-linecap:square;stroke-width:0.8;"/>
     </g>
     <g id="line2d_32">
      <g>
       <use style="stroke:#000000;stroke-width:0.8;" x="57.6" xlink:href="#maf500040bc" y="6.381624"/>
      </g>
     </g>
     <g id="text_11">
      <!-- 1.0 -->
      <g transform="translate(25.155 12.460374)scale(0.16 -0.16)">
       <use xlink:href="#DejaVuSans-49"/>
       <use x="63.623047" xlink:href="#DejaVuSans-46"/>
       <use x="95.410156" xlink:href="#DejaVuSans-48"/>
      </g>
     </g>
    </g>
    <g id="text_12">
     <!-- Fraction of function,target pairs -->
     <defs>
      <path d="M 9.8125 72.90625 
L 51.703125 72.90625 
L 51.703125 64.59375 
L 19.671875 64.59375 
L 19.671875 43.109375 
L 48.578125 43.109375 
L 48.578125 34.8125 
L 19.671875 34.8125 
L 19.671875 0 
L 9.8125 0 
z
" id="DejaVuSans-70"/>
      <path d="M 41.109375 46.296875 
Q 39.59375 47.171875 37.8125 47.578125 
Q 36.03125 48 33.890625 48 
Q 26.265625 48 22.1875 43.046875 
Q 18.109375 38.09375 18.109375 28.8125 
L 18.109375 0 
L 9.078125 0 
L 9.078125 54.6875 
L 18.109375 54.6875 
L 18.109375 46.1875 
Q 20.953125 51.171875 25.484375 53.578125 
Q 30.03125 56 36.53125 56 
Q 37.453125 56 38.578125 55.875 
Q 39.703125 55.765625 41.0625 55.515625 
z
" id="DejaVuSans-114"/>
      <path d="M 48.78125 52.59375 
L 48.78125 44.1875 
Q 44.96875 46.296875 41.140625 47.34375 
Q 37.3125 48.390625 33.40625 48.390625 
Q 24.65625 48.390625 19.8125 42.84375 
Q 14.984375 37.3125 14.984375 27.296875 
Q 14.984375 17.28125 19.8125 11.734375 
Q 24.65625 6.203125 33.40625 6.203125 
Q 37.3125 6.203125 41.140625 7.25 
Q 44.96875 8.296875 48.78125 10.40625 
L 48.78125 2.09375 
Q 45.015625 0.34375 40.984375 -0.53125 
Q 36.96875 -1.421875 32.421875 -1.421875 
Q 20.0625 -1.421875 12.78125 6.34375 
Q 5.515625 14.109375 5.515625 27.296875 
Q 5.515625 40.671875 12.859375 48.328125 
Q 20.21875 56 33.015625 56 
Q 37.15625 56 41.109375 55.140625 
Q 45.0625 54.296875 48.78125 52.59375 
z
" id="DejaVuSans-99"/>
      <path d="M 18.3125 70.21875 
L 18.3125 54.6875 
L 36.8125 54.6875 
L 36.8125 47.703125 
L 18.3125 47.703125 
L 18.3125 18.015625 
Q 18.3125 11.328125 20.140625 9.421875 
Q 21.96875 7.515625 27.59375 7.515625 
L 36.8125 7.515625 
L 36.8125 0 
L 27.59375 0 
Q 17.1875 0 13.234375 3.875 
Q 9.28125 7.765625 9.28125 18.015625 
L 9.28125 47.703125 
L 2.6875 47.703125 
L 2.6875 54.6875 
L 9.28125 54.6875 
L 9.28125 70.21875 
z
" id="DejaVuSans-116"/>
      <path d="M 8.5 21.578125 
L 8.5 54.6875 
L 17.484375 54.6875 
L 17.484375 21.921875 
Q 17.484375 14.15625 20.5 10.265625 
Q 23.53125 6.390625 29.59375 6.390625 
Q 36.859375 6.390625 41.078125 11.03125 
Q 45.3125 15.671875 45.3125 23.6875 
L 45.3125 54.6875 
L 54.296875 54.6875 
L 54.296875 0 
L 45.3125 0 
L 45.3125 8.40625 
Q 42.046875 3.421875 37.71875 1 
Q 33.40625 -1.421875 27.6875 -1.421875 
Q 18.265625 -1.421875 13.375 4.4375 
Q 8.5 10.296875 8.5 21.578125 
z
M 31.109375 56 
z
" id="DejaVuSans-117"/>
      <path d="M 11.71875 12.40625 
L 22.015625 12.40625 
L 22.015625 4 
L 14.015625 -11.625 
L 7.71875 -11.625 
L 11.71875 4 
z
" id="DejaVuSans-44"/>
      <path d="M 18.109375 8.203125 
L 18.109375 -20.796875 
L 9.078125 -20.796875 
L 9.078125 54.6875 
L 18.109375 54.6875 
L 18.109375 46.390625 
Q 20.953125 51.265625 25.265625 53.625 
Q 29.59375 56 35.59375 56 
Q 45.5625 56 51.78125 48.09375 
Q 58.015625 40.1875 58.015625 27.296875 
Q 58.015625 14.40625 51.78125 6.484375 
Q 45.5625 -1.421875 35.59375 -1.421875 
Q 29.59375 -1.421875 25.265625 0.953125 
Q 20.953125 3.328125 18.109375 8.203125 
z
M 48.6875 27.296875 
Q 48.6875 37.203125 44.609375 42.84375 
Q 40.53125 48.484375 33.40625 48.484375 
Q 26.265625 48.484375 22.1875 42.84375 
Q 18.109375 37.203125 18.109375 27.296875 
Q 18.109375 17.390625 22.1875 11.75 
Q 26.265625 6.109375 33.40625 6.109375 
Q 40.53125 6.109375 44.609375 11.75 
Q 48.6875 17.390625 48.6875 27.296875 
z
" id="DejaVuSans-112"/>
     </defs>
     <g transform="translate(17.619531 285.585)rotate(-90)scale(0.17 -0.17)">
      <use xlink:href="#DejaVuSans-70"/>
      <use x="50.269531" xlink:href="#DejaVuSans-114"/>
      <use x="91.382812" xlink:href="#DejaVuSans-97"/>
      <use x="152.662109" xlink:href="#DejaVuSans-99"/>
      <use x="207.642578" xlink:href="#DejaVuSans-116"/>
      <use x="246.851562" xlink:href="#DejaVuSans-105"/>
      <use x="274.634766" xlink:href="#DejaVuSans-111"/>
      <use x="335.816406" xlink:href="#DejaVuSans-110"/>
      <use x="399.195312" xlink:href="#DejaVuSans-32"/>
      <use x="430.982422" xlink:href="#DejaVuSans-111"/>
      <use x="492.164062" xlink:href="#DejaVuSans-102"/>
      <use x="527.369141" xlink:href="#DejaVuSans-32"/>
      <use x="559.15625" xlink:href="#DejaVuSans-102"/>
      <use x="594.361328" xlink:href="#DejaVuSans-117"/>
      <use x="657.740234" xlink:href="#DejaVuSans-110"/>
      <use x="721.119141" xlink:href="#DejaVuSans-99"/>
      <use x="776.099609" xlink:href="#DejaVuSans-116"/>
      <use x="815.308594" xlink:href="#DejaVuSans-105"/>
      <use x="843.091797" xlink:href="#DejaVuSans-111"/>
      <use x="904.273438" xlink:href="#DejaVuSans-110"/>
      <use x="967.652344" xlink:href="#DejaVuSans-44"/>
      <use x="999.439453" xlink:href="#DejaVuSans-116"/>
      <use x="1038.648438" xlink:href="#DejaVuSans-97"/>
      <use x="1099.927734" xlink:href="#DejaVuSans-114"/>
      <use x="1139.291016" xlink:href="#DejaVuSans-103"/>
      <use x="1202.767578" xlink:href="#DejaVuSans-101"/>
      <use x="1264.291016" xlink:href="#DejaVuSans-116"/>
      <use x="1303.5" xlink:href="#DejaVuSans-32"/>
      <use x="1335.287109" xlink:href="#DejaVuSans-112"/>
      <use x="1398.763672" xlink:href="#DejaVuSans-97"/>
      <use x="1460.042969" xlink:href="#DejaVuSans-105"/>
      <use x="1487.826172" xlink:href="#DejaVuSans-114"/>
      <use x="1528.939453" xlink:href="#DejaVuSans-115"/>
     </g>
    </g>
   </g>
   <g id="line2d_33">
    <defs>
     <path d="M 0 1.5 
C 0.397805 1.5 0.77937 1.341951 1.06066 1.06066 
C 1.341951 0.77937 1.5 0.397805 1.5 0 
C 1.5 -0.397805 1.341951 -0.77937 1.06066 -1.06066 
C 0.77937 -1.341951 0.397805 -1.5 0 -1.5 
C -0.397805 -1.5 -0.77937 -1.341951 -1.06066 -1.06066 
C -1.341951 -0.77937 -1.5 -0.397805 -1.5 0 
C -1.5 0.397805 -1.341951 0.77937 -1.06066 1.06066 
C -0.77937 1.341951 -0.397805 1.5 0 1.5 
z
" id="m5275a5a91e" style="stroke:#f5deb3;"/>
    </defs>
    <g>
     <use style="fill:#f5deb3;stroke:#f5deb3;" x="261.436878" xlink:href="#m5275a5a91e" y="6.381624"/>
     <use style="fill:#f5deb3;stroke:#f5deb3;" x="261.436878" xlink:href="#m5275a5a91e" y="6.381624"/>
    </g>
   </g>
   <g id="line2d_34">
    <defs>
     <path d="M 0 1.5 
C 0.397805 1.5 0.77937 1.341951 1.06066 1.06066 
C 1.341951 0.77937 1.5 0.397805 1.5 0 
C 1.5 -0.397805 1.341951 -0.77937 1.06066 -1.06066 
C 0.77937 -1.341951 0.397805 -1.5 0 -1.5 
C -0.397805 -1.5 -0.77937 -1.341951 -1.06066 -1.06066 
C -1.341951 -0.77937 -1.5 -0.397805 -1.5 0 
C -1.5 0.397805 -1.341951 0.77937 -1.06066 1.06066 
C -0.77937 1.341951 -0.397805 1.5 0 1.5 
z
" id="m82b2f37970" style="stroke:#000080;"/>
    </defs>
    <g>
     <use style="fill:#000080;stroke:#000080;" x="172.361615" xlink:href="#m82b2f37970" y="225.51658"/>
     <use style="fill:#000080;stroke:#000080;" x="172.361615" xlink:href="#m82b2f37970" y="225.51658"/>
    </g>
   </g>
   <g id="line2d_35">
    <path d="M 38.440992 298.944 
L 38.440992 286.667853 
L 50.52898 286.667853 
L 50.52898 283.111213 
L 57.6 283.111213 
L 57.6 280.357684 
L 62.616969 280.357684 
L 62.616969 279.095651 
L 66.508432 279.095651 
L 66.508432 277.948347 
L 69.687988 277.948347 
L 69.687988 276.686313 
L 72.376266 276.686313 
L 72.376266 275.194819 
L 74.704957 275.194819 
L 74.704957 273.359133 
L 76.759008 273.359133 
L 76.759008 271.752909 
L 78.59642 271.752909 
L 78.59642 270.031953 
L 80.258561 270.031953 
L 80.258561 269.687762 
L 81.775977 269.687762 
L 81.775977 268.425729 
L 83.171864 268.425729 
L 83.171864 267.048964 
L 84.464254 267.048964 
L 84.464254 265.55747 
L 85.66744 265.55747 
L 85.66744 265.44274 
L 86.792945 265.44274 
L 86.792945 263.951245 
L 87.850195 263.951245 
L 87.850195 263.148133 
L 88.846997 263.148133 
L 88.846997 262.11556 
L 89.78989 262.11556 
L 89.78989 261.082987 
L 90.684409 261.082987 
L 90.684409 260.394605 
L 91.535274 260.394605 
L 91.535274 260.165144 
L 92.34655 260.165144 
L 92.34655 259.247301 
L 93.121756 259.247301 
L 93.121756 258.78838 
L 93.863965 258.78838 
L 93.863965 258.444189 
L 94.575872 258.444189 
L 94.575872 257.411616 
L 95.259853 257.411616 
L 95.259853 257.182155 
L 95.918017 257.182155 
L 95.918017 256.379043 
L 96.552242 256.379043 
L 96.552242 256.034851 
L 97.16421 256.034851 
L 97.16421 255.4612 
L 97.755429 255.4612 
L 97.755429 255.117009 
L 98.32726 255.117009 
L 98.32726 254.772818 
L 99.41757 254.772818 
L 99.41757 254.543357 
L 99.938184 254.543357 
L 99.938184 254.313896 
L 100.443706 254.313896 
L 100.443706 254.084436 
L 102.772397 254.084436 
L 102.772397 253.854975 
L 103.203018 253.854975 
L 103.203018 253.740245 
L 104.033617 253.740245 
L 104.033617 253.625514 
L 104.826449 253.625514 
L 104.826449 253.281323 
L 105.584798 253.281323 
L 105.584798 253.166593 
L 106.311539 253.166593 
L 106.311539 252.822402 
L 106.66386 252.822402 
L 106.66386 252.707672 
L 107.009204 252.707672 
L 107.009204 252.478211 
L 107.680028 252.478211 
L 107.680028 252.24875 
L 108.006005 252.24875 
L 108.006005 252.13402 
L 108.326001 252.13402 
L 108.326001 252.019289 
L 108.640231 252.019289 
L 108.640231 251.904559 
L 108.948899 251.904559 
L 108.948899 251.675098 
L 109.252198 251.675098 
L 109.252198 251.560368 
L 109.550313 251.560368 
L 109.550313 251.445638 
L 109.843417 251.445638 
L 109.843417 250.986716 
L 110.131676 250.986716 
L 110.131676 250.757256 
L 110.415248 250.757256 
L 110.415248 250.642525 
L 110.694282 250.642525 
L 110.694282 250.527795 
L 110.968922 250.527795 
L 110.968922 250.183604 
L 111.239304 250.183604 
L 111.239304 250.068874 
L 111.505558 250.068874 
L 111.505558 249.954143 
L 112.280765 249.954143 
L 112.280765 249.839413 
L 112.531694 249.839413 
L 112.531694 249.609952 
L 113.022974 249.609952 
L 113.022974 249.380492 
L 113.26352 249.380492 
L 113.26352 249.265761 
L 114.418861 249.265761 
L 114.418861 249.151031 
L 116.522527 249.151031 
L 116.522527 248.80684 
L 116.719583 248.80684 
L 116.719583 248.692109 
L 117.297733 248.692109 
L 117.297733 248.462649 
L 117.486268 248.462649 
L 117.486268 248.233188 
L 117.857331 248.233188 
L 117.857331 247.888997 
L 118.399528 247.888997 
L 118.399528 247.774267 
L 118.576578 247.774267 
L 118.576578 247.659536 
L 118.925375 247.659536 
L 118.925375 247.315345 
L 120.571812 247.315345 
L 120.571812 247.085885 
L 120.883236 247.085885 
L 120.883236 246.971154 
L 121.638301 246.971154 
L 121.638301 246.856424 
L 121.785469 246.856424 
L 121.785469 246.741694 
L 122.076131 246.741694 
L 122.076131 246.626963 
L 122.362027 246.626963 
L 122.362027 245.938581 
L 122.920132 245.938581 
L 122.920132 245.709121 
L 123.056911 245.709121 
L 123.056911 245.59439 
L 123.327293 245.59439 
L 123.327293 245.36493 
L 123.593547 245.36493 
L 123.593547 245.250199 
L 123.725164 245.250199 
L 123.725164 244.906008 
L 123.855796 244.906008 
L 123.855796 244.676547 
L 123.985457 244.676547 
L 123.985457 244.561817 
L 124.114161 244.561817 
L 124.114161 244.332356 
L 124.368753 244.332356 
L 124.368753 243.988165 
L 124.494669 243.988165 
L 124.494669 243.873435 
L 124.619683 243.873435 
L 124.619683 243.758705 
L 125.351508 243.758705 
L 125.351508 243.643974 
L 125.588781 243.643974 
L 125.588781 243.529244 
L 126.729009 243.529244 
L 126.729009 243.299783 
L 127.48501 243.299783 
L 127.48501 242.840862 
L 127.695124 242.840862 
L 127.799239 242.496671 
L 128.107907 242.496671 
L 128.107907 242.381941 
L 129.290685 242.381941 
L 129.290685 242.15248 
L 130.839837 242.15248 
L 130.839837 241.923019 
L 131.099484 241.923019 
L 131.185181 241.693559 
L 132.181982 241.693559 
L 132.181982 241.578828 
L 132.342714 241.578828 
L 132.342714 241.349368 
L 133.124876 241.349368 
L 133.124876 241.119907 
L 133.352844 241.119907 
L 133.352844 241.005176 
L 133.652238 241.005176 
L 133.652238 240.890446 
L 133.873458 240.890446 
L 133.873458 240.660985 
L 134.091907 240.660985 
L 134.091907 240.546255 
L 134.939326 240.546255 
L 134.939326 240.431525 
L 135.076644 240.431525 
L 135.076644 240.316794 
L 135.348078 240.316794 
L 135.348078 240.202064 
L 135.615352 240.202064 
L 135.615352 239.628412 
L 135.943785 239.628412 
L 135.943785 239.398952 
L 136.073445 239.398952 
L 136.073445 239.284221 
L 136.456742 239.284221 
L 136.456742 239.054761 
L 137.198951 239.054761 
L 137.198951 238.94003 
L 137.794206 238.94003 
L 137.794206 238.595839 
L 138.084384 238.595839 
L 138.084384 238.481109 
L 138.199116 238.481109 
L 138.199116 238.251648 
L 138.369812 238.251648 
L 138.369812 238.022188 
L 139.199094 238.022188 
L 139.306744 237.677997 
L 139.730821 237.677997 
L 139.730821 237.219075 
L 139.990725 237.219075 
L 140.093612 236.760154 
L 140.246813 236.760154 
L 140.246813 236.415963 
L 140.499195 236.415963 
L 140.499195 236.301232 
L 140.747977 236.301232 
L 140.747977 236.186502 
L 140.89556 236.186502 
L 140.89556 236.071772 
L 141.941279 236.071772 
L 141.941279 235.957041 
L 142.07914 235.957041 
L 142.07914 235.842311 
L 142.884173 235.842311 
L 142.884173 235.727581 
L 143.058132 235.727581 
L 143.058132 235.61285 
L 143.230373 235.61285 
L 143.230373 235.38339 
L 143.358447 235.38339 
L 143.358447 235.268659 
L 143.485587 235.268659 
L 143.485587 235.039199 
L 144.310293 235.039199 
L 144.350522 234.809738 
L 144.510517 234.809738 
L 144.510517 234.695008 
L 144.787023 234.695008 
L 144.787023 234.580277 
L 144.904196 234.580277 
L 144.904196 234.350817 
L 145.289185 234.350817 
L 145.289185 234.006626 
L 145.478539 234.006626 
L 145.478539 233.891895 
L 145.851187 233.891895 
L 145.851187 233.777165 
L 145.998045 233.777165 
L 146.107383 233.432974 
L 146.216039 233.432974 
L 146.324022 233.203513 
L 147.096109 233.203513 
L 147.096109 232.974052 
L 147.334773 232.974052 
L 147.436066 232.629861 
L 148.386046 232.629861 
L 148.48143 232.400401 
L 148.576295 232.400401 
L 148.576295 232.17094 
L 149.347388 232.17094 
L 149.347388 231.826749 
L 149.557321 231.826749 
L 149.646525 231.482558 
L 150.570677 231.482558 
L 150.654857 231.138367 
L 150.738632 231.138367 
L 150.738632 231.023637 
L 151.528368 231.023637 
L 151.528368 230.908906 
L 152.25837 230.908906 
L 152.360205 230.679446 
L 152.436193 230.679446 
L 152.511852 230.335255 
L 152.761703 230.335255 
L 152.761703 230.105794 
L 153.29909 230.105794 
L 153.371104 229.761603 
L 153.609024 229.761603 
L 153.609024 229.646872 
L 154.484627 229.646872 
L 154.484627 229.532142 
L 154.906477 229.532142 
L 154.972161 229.187951 
L 155.0376 229.187951 
L 155.0376 229.073221 
L 155.189341 229.073221 
L 155.189341 228.95849 
L 155.657823 228.95849 
L 155.720743 228.72903 
L 155.928852 228.72903 
L 155.928852 228.614299 
L 156.236431 228.614299 
L 156.236431 228.499569 
L 156.378132 228.499569 
L 156.378132 228.270108 
L 157.1279 228.270108 
L 157.1279 228.155378 
L 157.735205 228.155378 
L 157.735205 228.040648 
L 158.067744 228.040648 
L 158.067744 227.925917 
L 158.429943 227.925917 
L 158.429943 227.811187 
L 158.959517 227.811187 
L 158.994256 227.581726 
L 159.218393 227.581726 
L 159.218393 227.466996 
L 160.378126 227.466996 
L 160.378126 227.352266 
L 161.465522 227.352266 
L 161.465522 227.237535 
L 161.689969 227.237535 
L 161.689969 227.122805 
L 161.984807 227.122805 
L 161.984807 227.008075 
L 163.116707 227.008075 
L 163.116707 226.893344 
L 163.280329 226.893344 
L 163.388564 226.663884 
L 164.243924 226.663884 
L 164.243924 226.549153 
L 165.047026 226.549153 
L 165.047026 226.434423 
L 165.483031 226.434423 
L 165.542734 226.204962 
L 166.186323 226.204962 
L 166.186323 226.090232 
L 166.972515 226.090232 
L 166.972515 225.975501 
L 171.142873 225.975501 
L 171.142873 225.860771 
L 171.737838 225.860771 
L 171.737838 225.746041 
L 172.101686 225.746041 
L 172.101686 225.63131 
L 172.361615 225.63131 
L 172.361615 225.51658 
L 338.688 225.51658 
L 338.688 225.51658 
" style="fill:none;stroke:#000080;stroke-linecap:square;stroke-width:1.5;"/>
   </g>
   <g id="line2d_36">
    <defs>
     <path d="M 0 6 
C 1.591219 6 3.117479 5.367802 4.242641 4.242641 
C 5.367802 3.117479 6 1.591219 6 0 
C 6 -1.591219 5.367802 -3.117479 4.242641 -4.242641 
C 3.117479 -5.367802 1.591219 -6 0 -6 
C -1.591219 -6 -3.117479 -5.367802 -4.242641 -4.242641 
C -5.367802 -3.117479 -6 -1.591219 -6 0 
C -6 1.591219 -5.367802 3.117479 -4.242641 4.242641 
C -3.117479 5.367802 -1.591219 6 0 6 
z
" id="medffce685c" style="stroke:#000080;stroke-width:1.5;"/>
    </defs>
    <g>
     <use style="fill-opacity:0;stroke:#000080;stroke-width:1.5;" x="69.687988" xlink:href="#medffce685c" y="277.948347"/>
     <use style="fill-opacity:0;stroke:#000080;stroke-width:1.5;" x="122.362027" xlink:href="#medffce685c" y="246.282772"/>
     <use style="fill-opacity:0;stroke:#000080;stroke-width:1.5;" x="172.361615" xlink:href="#medffce685c" y="225.63131"/>
     <use style="fill-opacity:0;stroke:#000080;stroke-width:1.5;" x="172.361615" xlink:href="#medffce685c" y="225.51658"/>
     <use style="fill-opacity:0;stroke:#000080;stroke-width:1.5;" x="172.361615" xlink:href="#medffce685c" y="225.51658"/>
     <use style="fill-opacity:0;stroke:#000080;stroke-width:1.5;" x="338.688" xlink:href="#medffce685c" y="225.51658"/>
    </g>
   </g>
   <g id="line2d_37">
    <path style="fill:none;stroke:#000080;stroke-linecap:square;stroke-width:1.5;"/>
    <g/>
   </g>
   <g id="line2d_38">
    <path clip-path="url(#pd247212968)" d="M 100.443706 254.084436 
" style="fill:none;stroke:#000080;stroke-linecap:square;stroke-width:1.5;"/>
    <defs>
     <path d="M -12 12 
L 12 -12 
M -12 -12 
L 12 12 
" id="mee507b61fd" style="stroke:#000080;"/>
    </defs>
    <g clip-path="url(#pd247212968)">
     <use style="fill:#000080;stroke:#000080;" x="100.443706" xlink:href="#mee507b61fd" y="254.084436"/>
    </g>
   </g>
   <g id="line2d_39">
    <defs>
     <path d="M 0 1.5 
C 0.397805 1.5 0.77937 1.341951 1.06066 1.06066 
C 1.341951 0.77937 1.5 0.397805 1.5 0 
C 1.5 -0.397805 1.341951 -0.77937 1.06066 -1.06066 
C 0.77937 -1.341951 0.397805 -1.5 0 -1.5 
C -0.397805 -1.5 -0.77937 -1.341951 -1.06066 -1.06066 
C -1.341951 -0.77937 -1.5 -0.397805 -1.5 0 
C -1.5 0.397805 -1.341951 0.77937 -1.06066 1.06066 
C -0.77937 1.341951 -0.397805 1.5 0 1.5 
z
" id="m77d93287a0" style="stroke:#ff00ff;"/>
    </defs>
    <g>
     <use style="fill:#ff00ff;stroke:#ff00ff;" x="226.460696" xlink:href="#m77d93287a0" y="122.259271"/>
     <use style="fill:#ff00ff;stroke:#ff00ff;" x="226.460696" xlink:href="#m77d93287a0" y="122.259271"/>
    </g>
   </g>
   <g id="line2d_40">
    <path d="M 38.440992 298.944 
L 38.440992 286.094202 
L 74.704957 286.094202 
L 74.704957 285.979471 
L 76.759008 285.979471 
L 76.759008 285.864741 
L 83.171864 285.864741 
L 83.171864 285.63528 
L 84.464254 285.63528 
L 84.464254 285.52055 
L 85.66744 285.52055 
L 85.66744 285.405819 
L 87.850195 285.405819 
L 87.850195 284.946898 
L 88.846997 284.946898 
L 88.846997 284.602707 
L 89.78989 284.602707 
L 89.78989 284.373246 
L 90.684409 284.373246 
L 90.684409 283.914325 
L 93.863965 283.914325 
L 93.863965 283.799595 
L 94.575872 283.799595 
L 94.575872 283.684864 
L 95.259853 283.684864 
L 95.259853 283.570134 
L 97.16421 283.570134 
L 97.16421 283.455404 
L 97.755429 283.455404 
L 97.755429 283.340673 
L 98.32726 283.340673 
L 98.32726 283.225943 
L 98.880934 283.225943 
L 98.880934 282.996482 
L 99.41757 282.996482 
L 99.41757 282.537561 
L 99.938184 282.537561 
L 99.938184 282.3081 
L 100.443706 282.3081 
L 100.443706 282.078639 
L 100.934985 282.078639 
L 100.934985 281.963909 
L 101.877879 281.963909 
L 101.877879 281.390257 
L 102.330873 281.390257 
L 102.330873 281.160797 
L 102.772397 281.160797 
L 102.772397 280.242954 
L 103.203018 280.242954 
L 103.203018 279.210381 
L 103.623262 279.210381 
L 103.623262 278.407268 
L 104.033617 278.407268 
L 104.033617 274.506437 
L 104.434538 274.506437 
L 104.434538 272.441291 
L 104.826449 272.441291 
L 104.826449 271.867639 
L 105.209745 271.867639 
L 105.209745 271.293987 
L 105.584798 271.293987 
L 105.584798 270.031953 
L 106.66386 270.031953 
L 106.66386 269.802493 
L 107.347841 269.802493 
L 107.347841 269.687762 
L 108.326001 269.687762 
L 108.326001 269.573032 
L 109.843417 269.573032 
L 109.843417 269.458302 
L 110.131676 269.458302 
L 110.131676 269.114111 
L 110.415248 269.114111 
L 110.415248 268.99938 
L 110.694282 268.99938 
L 110.694282 268.76992 
L 111.239304 268.76992 
L 111.239304 268.655189 
L 112.280765 268.655189 
L 112.280765 268.540459 
L 113.500792 268.540459 
L 113.500792 268.425729 
L 114.193835 268.425729 
L 114.193835 268.310998 
L 114.418861 268.310998 
L 114.418861 268.196268 
L 116.121606 268.196268 
L 116.121606 267.048964 
L 116.522527 267.048964 
L 116.522527 266.819504 
L 116.719583 266.819504 
L 116.719583 266.704773 
L 117.486268 266.704773 
L 117.486268 266.590043 
L 117.672786 266.590043 
L 117.672786 266.475313 
L 117.857331 266.475313 
L 117.857331 266.131122 
L 118.039942 266.131122 
L 118.039942 265.6722 
L 118.399528 265.6722 
L 118.399528 265.098549 
L 118.751849 265.098549 
L 118.751849 264.983818 
L 118.925375 264.983818 
L 118.925375 264.869088 
L 119.267333 264.869088 
L 119.267333 264.524897 
L 119.43583 264.524897 
L 119.43583 264.295436 
L 119.602714 264.295436 
L 119.602714 263.951245 
L 119.768017 263.951245 
L 119.768017 263.721785 
L 119.931767 263.721785 
L 119.931767 263.377593 
L 120.093994 263.377593 
L 120.093994 263.262863 
L 120.254726 263.262863 
L 120.254726 263.033402 
L 120.41399 263.033402 
L 120.41399 262.689211 
L 120.571812 262.689211 
L 120.571812 262.23029 
L 121.189196 262.23029 
L 121.189196 262.11556 
L 121.340187 262.11556 
L 121.340187 262.000829 
L 121.489881 262.000829 
L 121.489881 261.771369 
L 122.076131 261.771369 
L 122.076131 261.656638 
L 122.219665 261.656638 
L 122.219665 261.312447 
L 122.362027 261.312447 
L 122.362027 261.197717 
L 122.503236 261.197717 
L 122.503236 260.968256 
L 122.643312 260.968256 
L 122.643312 260.738796 
L 122.782271 260.738796 
L 122.782271 260.624065 
L 122.920132 260.624065 
L 122.920132 260.165144 
L 123.192626 260.165144 
L 123.192626 260.050414 
L 123.327293 260.050414 
L 123.327293 259.935683 
L 123.460928 259.935683 
L 123.460928 259.706222 
L 123.593547 259.706222 
L 123.593547 259.591492 
L 123.985457 259.591492 
L 123.985457 259.362031 
L 124.114161 259.362031 
L 124.114161 259.247301 
L 124.241922 259.247301 
L 124.241922 259.132571 
L 124.368753 259.132571 
L 124.368753 258.558919 
L 124.743806 258.558919 
L 124.743806 258.444189 
L 124.989434 258.444189 
L 124.989434 258.329458 
L 125.351508 258.329458 
L 125.351508 258.099998 
L 125.588781 258.099998 
L 125.588781 257.985267 
L 125.706218 257.985267 
L 125.706218 257.755807 
L 125.938745 257.755807 
L 125.938745 257.296885 
L 126.281824 257.296885 
L 126.281824 257.067425 
L 126.50685 257.067425 
L 126.50685 256.952694 
L 126.729009 256.952694 
L 126.839037 256.608503 
L 126.948374 256.608503 
L 127.05703 256.149582 
L 127.272333 256.149582 
L 127.378995 255.69066 
L 127.48501 255.69066 
L 127.590383 255.231739 
L 127.695124 255.231739 
L 127.799239 255.002278 
L 127.902737 255.002278 
L 128.005624 254.772818 
L 128.107907 254.772818 
L 128.107907 254.543357 
L 128.511146 254.543357 
L 128.610515 253.396054 
L 128.709321 253.396054 
L 128.709321 253.281323 
L 128.905271 253.281323 
L 129.002426 252.822402 
L 129.195127 252.822402 
L 129.290685 252.592941 
L 129.480244 252.592941 
L 129.574256 252.24875 
L 129.667765 252.24875 
L 129.760775 251.445638 
L 129.853291 251.445638 
L 129.945319 251.216177 
L 130.036864 251.216177 
L 130.127931 250.757256 
L 130.218525 250.757256 
L 130.30865 250.183604 
L 130.398313 250.183604 
L 130.398313 250.068874 
L 130.752422 250.068874 
L 130.839837 249.495222 
L 130.926816 249.495222 
L 130.926816 249.036301 
L 131.185181 249.036301 
L 131.185181 248.462649 
L 131.355321 248.462649 
L 131.439773 248.118458 
L 131.523818 248.118458 
L 131.523818 248.003727 
L 131.690703 248.003727 
L 131.77355 247.659536 
L 131.856005 247.659536 
L 131.856005 247.544806 
L 132.019755 247.544806 
L 132.019755 247.430076 
L 132.181982 247.430076 
L 132.181982 247.200615 
L 132.342714 247.200615 
L 132.342714 246.856424 
L 132.501978 246.856424 
L 132.501978 246.626963 
L 132.73818 246.626963 
L 132.816208 246.397503 
L 132.971225 246.397503 
L 133.04822 245.938581 
L 133.124876 245.938581 
L 133.124876 245.823851 
L 133.277185 245.823851 
L 133.277185 245.709121 
L 133.873458 245.709121 
L 133.873458 245.59439 
L 134.019394 245.59439 
L 134.019394 245.47966 
L 134.661403 245.47966 
L 134.7313 245.135469 
L 134.800918 245.135469 
L 134.870259 244.447087 
L 135.00812 244.447087 
L 135.00812 243.988165 
L 135.144899 243.988165 
L 135.212889 243.643974 
L 135.280614 243.643974 
L 135.348078 243.185053 
L 135.681535 243.185053 
L 135.747468 242.496671 
L 135.813153 242.496671 
L 135.878591 242.15248 
L 135.943785 242.15248 
L 135.943785 241.693559 
L 136.137916 241.693559 
L 136.202149 241.464098 
L 136.266147 241.464098 
L 136.32991 241.234637 
L 136.456742 241.234637 
L 136.519813 241.005176 
L 136.645276 241.005176 
L 136.645276 240.660985 
L 136.831795 240.660985 
L 136.831795 239.972603 
L 137.016339 239.972603 
L 137.016339 239.857873 
L 137.138292 239.857873 
L 137.138292 239.743143 
L 137.259399 239.743143 
L 137.319638 239.284221 
L 137.37967 239.284221 
L 137.37967 238.8253 
L 137.558536 238.8253 
L 137.617753 237.448536 
L 137.794206 237.448536 
L 137.852629 236.415963 
L 137.910857 236.415963 
L 137.968891 236.186502 
L 138.084384 236.186502 
L 138.084384 236.071772 
L 138.199116 236.071772 
L 138.256201 234.809738 
L 138.313099 234.809738 
L 138.369812 234.350817 
L 138.426341 234.350817 
L 138.482688 233.891895 
L 138.538853 233.891895 
L 138.594838 233.203513 
L 138.650644 233.203513 
L 138.761723 231.253097 
L 138.872098 231.253097 
L 138.927025 230.679446 
L 139.090775 230.679446 
L 139.199094 229.991063 
L 139.306744 229.991063 
L 139.360321 229.302681 
L 139.466984 229.302681 
L 139.572998 228.040648 
L 139.625765 228.040648 
L 139.730821 227.237535 
L 139.783113 227.237535 
L 139.783113 227.122805 
L 139.939053 227.122805 
L 139.990725 226.319692 
L 140.144829 226.319692 
L 140.144829 225.63131 
L 140.297583 225.63131 
L 140.39868 225.172389 
L 140.44901 225.172389 
L 140.44901 225.057659 
L 140.698504 225.057659 
L 140.79731 224.598737 
L 140.944478 224.598737 
L 140.993259 224.369277 
L 141.090414 224.369277 
L 141.187031 223.910355 
L 141.235139 223.910355 
L 141.283115 223.680895 
L 141.521035 223.680895 
L 141.615302 222.992513 
L 141.709062 222.992513 
L 141.755753 222.763052 
L 141.848763 222.763052 
L 141.895083 222.418861 
L 141.987354 222.418861 
L 142.07914 222.1894 
L 142.170445 222.1894 
L 142.170445 222.07467 
L 142.486301 222.07467 
L 142.486301 221.845209 
L 142.664255 221.845209 
L 142.664255 221.730479 
L 142.796538 221.730479 
L 142.796538 221.615748 
L 142.971369 221.615748 
L 143.058132 221.271557 
L 143.101352 221.271557 
L 143.187472 219.780063 
L 143.230373 219.780063 
L 143.31586 219.206411 
L 143.358447 219.206411 
L 143.44331 218.173838 
L 143.485587 218.173838 
L 143.569835 217.944377 
L 143.653678 217.944377 
L 143.737119 217.600186 
L 143.778691 217.600186 
L 143.861538 216.223422 
L 143.902815 216.223422 
L 143.985075 215.076119 
L 144.107744 215.076119 
L 144.189046 214.387737 
L 144.390658 214.387737 
L 144.470655 213.699355 
L 144.510517 213.699355 
L 144.510517 213.125703 
L 144.708467 213.125703 
L 144.708467 213.010973 
L 144.826168 213.010973 
L 144.904196 212.322591 
L 144.94308 212.322591 
L 144.981877 211.290017 
L 145.059213 211.290017 
L 145.136208 210.831096 
L 145.327221 210.831096 
L 145.403044 210.142714 
L 145.440832 210.142714 
L 145.478539 209.798523 
L 145.553708 209.798523 
L 145.553708 209.683793 
L 145.814278 209.683793 
L 145.888018 209.339602 
L 145.961446 209.339602 
L 146.034567 208.88068 
L 146.143677 208.88068 
L 146.252108 207.733377 
L 146.359869 207.733377 
L 146.466968 207.389186 
L 146.502522 207.389186 
L 146.608752 206.241882 
L 146.679213 206.241882 
L 146.749392 205.668231 
L 146.854132 205.668231 
L 146.958248 204.865118 
L 147.027314 204.865118 
L 147.130404 204.062006 
L 147.164632 204.062006 
L 147.232888 203.832545 
L 147.334773 203.832545 
L 147.436066 203.029433 
L 147.50327 203.029433 
L 147.603592 202.455781 
L 147.670154 202.455781 
L 147.736463 201.537938 
L 147.901141 201.537938 
L 147.933891 200.275904 
L 148.096724 200.275904 
L 148.193699 199.702253 
L 148.258051 199.702253 
L 148.354135 198.66968 
L 148.386046 198.66968 
L 148.48143 197.866567 
L 148.513109 197.866567 
L 148.576295 197.178185 
L 148.639252 197.178185 
L 148.733265 196.604533 
L 148.857832 196.604533 
L 148.950676 196.145612 
L 149.012299 196.145612 
L 149.104327 195.686691 
L 149.165411 195.686691 
L 149.226281 195.113039 
L 149.31719 195.113039 
L 149.377533 194.883578 
L 149.437669 194.883578 
L 149.527485 194.309927 
L 149.676158 194.309927 
L 149.705742 194.080466 
L 149.998846 194.080466 
L 150.027887 193.851005 
L 150.143571 193.851005 
L 150.172372 193.621545 
L 150.287105 193.621545 
L 150.287105 193.506814 
L 150.401087 193.506814 
L 150.401087 193.277354 
L 150.626842 193.277354 
L 150.626842 193.162623 
L 150.932558 193.162623 
L 150.960087 192.933162 
L 151.069768 192.933162 
L 151.124351 192.703702 
L 151.975216 192.703702 
L 152.027042 192.474241 
L 152.309362 192.474241 
L 152.309362 192.359511 
L 152.662192 192.359511 
L 152.712018 192.13005 
L 152.786492 192.13005 
L 152.786492 192.01532 
L 152.934492 192.01532 
L 152.934492 191.785859 
L 153.081247 191.785859 
L 153.178403 191.326938 
L 153.202607 191.326938 
L 153.250915 190.753286 
L 153.442821 190.753286 
L 153.537988 189.950174 
L 153.561699 189.950174 
L 153.656221 189.261791 
L 153.703291 189.261791 
L 153.750233 188.9176 
L 153.820412 188.9176 
L 153.820412 188.573409 
L 153.983071 188.573409 
L 154.05232 187.999758 
L 154.098334 187.999758 
L 154.144227 187.655567 
L 154.212841 187.655567 
L 154.281186 186.852454 
L 154.326601 186.852454 
L 154.394502 186.164072 
L 154.46214 186.164072 
L 154.551917 185.016769 
L 154.663493 185.016769 
L 154.752243 184.787308 
L 154.796449 184.787308 
L 154.81851 184.443117 
L 156.478647 184.443117 
L 156.478647 184.328387 
L 156.757045 184.328387 
L 156.757045 184.098926 
L 157.069866 184.098926 
L 157.147202 183.869465 
L 157.185742 183.869465 
L 157.185742 183.754735 
L 157.566527 183.754735 
L 157.641697 183.525274 
L 157.67916 183.525274 
L 157.772468 183.181083 
L 157.809652 183.181083 
L 157.920731 182.607432 
L 157.957601 182.607432 
L 158.067744 181.115937 
L 158.231665 181.115937 
L 158.340096 180.083364 
L 158.447857 180.083364 
L 158.537152 178.936061 
L 158.590511 178.936061 
L 158.661402 178.132948 
L 158.749613 178.132948 
L 158.802326 177.903487 
L 158.872364 177.903487 
L 158.942121 177.329836 
L 159.028927 177.329836 
L 159.132527 176.526723 
L 159.201253 176.526723 
L 159.26971 175.608881 
L 159.405822 175.608881 
L 159.507213 175.035229 
L 159.658204 175.035229 
L 159.658204 174.805768 
L 160.005512 174.805768 
L 160.005512 174.691038 
L 160.119762 174.691038 
L 160.136022 174.461577 
L 160.233268 174.461577 
L 160.313893 174.002656 
L 160.680044 174.002656 
L 160.680044 173.887925 
L 160.80562 173.887925 
L 160.852479 173.543734 
L 161.222884 173.543734 
L 161.222884 173.429004 
L 161.450455 173.429004 
L 161.450455 173.314274 
L 161.615474 173.314274 
L 161.689969 172.970083 
L 161.764147 172.970083 
L 161.79373 172.625892 
L 161.88218 172.625892 
L 161.88218 172.511161 
L 161.999419 172.511161 
L 162.014019 172.16697 
L 162.130378 172.16697 
L 162.217141 171.822779 
L 162.245966 171.822779 
L 162.332157 171.478588 
L 162.403659 171.478588 
L 162.489076 171.249128 
L 162.616422 171.249128 
L 162.616422 170.904937 
L 162.770815 170.904937 
L 162.868358 170.446015 
L 162.909996 170.446015 
L 163.020547 170.216554 
L 163.061823 170.216554 
L 163.171418 169.413442 
L 163.185069 169.413442 
L 163.253165 169.069251 
L 163.307451 169.069251 
L 163.375071 168.61033 
L 163.455871 168.61033 
L 163.536298 168.036678 
L 163.576373 168.036678 
L 163.603039 167.692487 
L 163.696049 167.692487 
L 163.762182 167.233566 
L 163.814908 167.233566 
L 163.919885 166.315723 
L 163.959089 166.315723 
L 164.050224 165.627341 
L 164.076176 165.627341 
L 164.179597 165.053689 
L 164.192481 165.053689 
L 164.295217 164.250577 
L 164.320806 164.250577 
L 164.42279 163.676925 
L 164.587254 163.676925 
L 164.687696 162.988543 
L 164.874481 162.988543 
L 164.886862 162.759082 
L 165.022481 162.759082 
L 165.083779 162.0707 
L 165.144862 162.0707 
L 165.193576 161.841239 
L 165.302685 161.841239 
L 165.399101 161.382318 
L 165.423123 161.382318 
L 165.506937 160.464475 
L 165.566558 160.464475 
L 165.625977 160.235015 
L 165.697012 160.235015 
L 165.779524 160.005554 
L 165.873346 160.005554 
L 165.955029 159.202441 
L 166.001534 159.202441 
L 166.105719 158.85825 
L 166.117256 158.85825 
L 166.209284 157.710947 
L 166.323641 157.710947 
L 166.403246 157.137295 
L 166.448573 157.137295 
L 166.538873 155.989992 
L 166.572616 155.989992 
L 166.651096 155.53107 
L 166.684622 155.53107 
L 166.784816 154.957419 
L 166.829163 154.957419 
L 166.928532 154.613228 
L 167.114699 154.613228 
L 167.136471 154.269037 
L 167.298899 154.269037 
L 167.320442 154.039576 
L 167.470505 154.039576 
L 167.534424 153.580655 
L 167.59811 153.580655 
L 167.59811 153.465924 
L 167.714267 153.465924 
L 167.798261 153.236464 
L 167.829655 153.236464 
L 167.829655 153.121733 
L 168.099393 153.121733 
L 168.191801 152.777542 
L 168.283721 152.777542 
L 168.324419 152.548082 
L 168.48627 152.548082 
L 168.576655 152.08916 
L 168.60668 152.08916 
L 168.666574 151.630239 
L 168.923766 151.630239 
L 169.021685 151.171317 
L 169.050954 151.171317 
L 169.119057 150.712396 
L 169.244833 150.712396 
L 169.312185 150.368205 
L 169.560096 150.368205 
L 169.560096 150.253475 
L 170.045589 150.253475 
L 170.155732 149.909284 
L 170.237885 149.909284 
L 170.274274 149.450362 
L 170.43709 149.450362 
L 170.526891 149.106171 
L 170.5984 149.106171 
L 170.642945 148.64725 
L 170.713981 148.64725 
L 170.819995 148.073598 
L 170.828801 148.073598 
L 170.890315 147.729407 
L 170.942869 147.729407 
L 171.030109 147.041025 
L 171.082245 147.041025 
L 171.108254 146.811564 
L 171.229121 146.811564 
L 171.229121 146.582104 
L 171.595202 146.582104 
L 171.679247 146.123182 
L 172.142557 146.123182 
L 172.224011 145.893722 
L 172.288901 145.893722 
L 172.377733 145.664261 
L 172.530112 145.664261 
L 172.60978 145.32007 
L 172.712807 145.32007 
L 172.823083 144.516957 
L 172.830933 144.516957 
L 172.932666 144.287497 
L 173.01052 144.287497 
L 173.088028 143.713845 
L 173.188276 143.713845 
L 173.287952 143.140193 
L 173.356625 143.140193 
L 173.440194 142.796002 
L 173.576085 142.796002 
L 173.651125 142.337081 
L 173.881719 142.337081 
L 173.948098 141.763429 
L 174.102007 141.763429 
L 174.174823 141.533969 
L 174.283479 141.533969 
L 174.384284 141.189778 
L 174.40581 141.189778 
L 174.498781 140.730856 
L 174.520166 140.730856 
L 174.555749 140.386665 
L 174.676192 140.386665 
L 174.73962 140.157204 
L 174.795808 140.157204 
L 174.886729 139.813013 
L 174.921573 139.813013 
L 174.991052 139.354092 
L 175.115421 139.354092 
L 175.163549 139.009901 
L 175.23891 139.009901 
L 175.334356 138.436249 
L 175.36153 138.436249 
L 175.46306 137.747867 
L 175.590821 137.747867 
L 175.590821 137.633137 
L 175.85017 137.633137 
L 175.948902 137.288946 
L 175.975136 137.288946 
L 176.020952 137.059485 
L 176.750628 137.059485 
L 176.844405 136.830024 
L 176.887995 136.830024 
L 176.887995 136.715294 
L 177.024289 136.715294 
L 177.024289 136.600564 
L 177.171768 136.600564 
L 177.171768 136.485833 
L 177.30587 136.485833 
L 177.366486 136.256373 
L 177.426892 136.256373 
L 177.426892 136.141642 
L 177.600896 136.141642 
L 177.672393 135.912182 
L 177.719896 135.912182 
L 177.808615 135.567991 
L 177.867512 135.567991 
L 177.902755 135.33853 
L 178.083716 135.33853 
L 178.159048 134.764878 
L 178.308742 134.764878 
L 178.38311 134.535418 
L 178.451478 134.535418 
L 178.491235 134.076496 
L 178.671837 134.076496 
L 178.671837 133.961766 
L 178.889448 133.961766 
L 178.977944 133.732305 
L 179.153601 133.732305 
L 179.153601 133.617575 
L 179.365318 133.617575 
L 179.365318 133.502844 
L 179.595808 133.502844 
L 179.606455 133.273384 
L 179.707275 133.273384 
L 179.770653 132.929193 
L 179.823292 132.929193 
L 179.870531 132.699732 
L 179.959414 132.699732 
L 180.063405 132.240811 
L 180.140994 132.240811 
L 180.202817 131.89662 
L 180.269546 131.89662 
L 180.269546 131.781889 
L 180.533936 131.781889 
L 180.639584 131.437698 
L 180.714656 131.437698 
L 180.799349 130.978777 
L 180.942883 130.978777 
L 181.001933 130.634586 
L 181.080356 130.634586 
L 181.080356 130.519856 
L 181.524569 130.519856 
L 181.605428 130.290395 
L 181.878511 130.290395 
L 181.943792 130.060934 
L 182.0181 130.060934 
L 182.0181 129.946204 
L 182.275715 129.946204 
L 182.275715 129.831474 
L 182.819683 129.831474 
L 182.84622 129.602013 
L 183.013357 129.602013 
L 183.052709 129.372552 
L 183.41577 129.372552 
L 183.479815 129.143091 
L 183.695823 129.143091 
L 183.775618 128.913631 
L 183.871725 128.913631 
L 183.963161 128.68417 
L 184.111757 128.68417 
L 184.206035 128.454709 
L 184.344475 128.454709 
L 184.453635 127.995788 
L 184.485848 127.995788 
L 184.485848 127.881058 
L 184.610114 127.881058 
L 184.610114 127.766327 
L 184.844202 127.766327 
L 184.867832 127.536867 
L 185.179883 127.536867 
L 185.199202 127.307406 
L 185.436997 127.307406 
L 185.436997 127.192676 
L 185.780249 127.192676 
L 185.780249 127.077945 
L 186.013988 127.077945 
L 186.124201 126.733754 
L 186.204583 126.733754 
L 186.280968 126.504294 
L 186.554643 126.504294 
L 186.554643 126.389563 
L 187.206852 126.389563 
L 187.206852 126.274833 
L 187.537545 126.274833 
L 187.554422 126.045372 
L 187.732324 126.045372 
L 187.785676 125.815911 
L 188.161154 125.815911 
L 188.161154 125.701181 
L 188.365238 125.701181 
L 188.365238 125.586451 
L 188.522335 125.586451 
L 188.522335 125.47172 
L 188.894943 125.47172 
L 188.904313 125.24226 
L 190.287465 125.24226 
L 190.287465 125.127529 
L 190.958018 125.127529 
L 190.958018 125.012799 
L 191.129263 125.012799 
L 191.129263 124.898069 
L 191.35591 124.898069 
L 191.35591 124.783338 
L 191.480264 124.783338 
L 191.480264 124.668608 
L 191.971619 124.668608 
L 191.971619 124.553878 
L 192.11247 124.553878 
L 192.11247 124.439147 
L 192.581509 124.439147 
L 192.581509 124.324417 
L 193.270742 124.324417 
L 193.270742 124.209687 
L 194.265248 124.209687 
L 194.265248 124.094956 
L 194.916522 124.094956 
L 194.916522 123.980226 
L 195.821654 123.980226 
L 195.821654 123.865496 
L 198.621181 123.865496 
L 198.621181 123.750765 
L 199.212042 123.750765 
L 199.212042 123.636035 
L 200.769181 123.636035 
L 200.769181 123.521305 
L 201.404254 123.521305 
L 201.404254 123.406574 
L 206.126749 123.406574 
L 206.126749 123.291844 
L 209.649125 123.291844 
L 209.649125 123.177114 
L 210.472363 123.177114 
L 210.472363 123.062383 
L 211.765788 123.062383 
L 211.765788 122.947653 
L 214.7552 122.947653 
L 214.7552 122.832923 
L 215.679123 122.832923 
L 215.679123 122.718192 
L 216.772653 122.718192 
L 216.772653 122.603462 
L 217.602811 122.603462 
L 217.602811 122.488732 
L 218.27859 122.488732 
L 218.27859 122.374001 
L 226.460696 122.374001 
L 226.460696 122.259271 
L 338.688 122.259271 
L 338.688 122.259271 
" style="fill:none;stroke:#ff00ff;stroke-linecap:square;stroke-width:1.5;"/>
   </g>
   <g id="line2d_41">
    <defs>
     <path d="M -0 8.485281 
L 5.091169 0 
L 0 -8.485281 
L -5.091169 -0 
z
" id="mb9905fbee6" style="stroke:#ff00ff;stroke-linejoin:miter;stroke-width:1.5;"/>
    </defs>
    <g>
     <use style="fill-opacity:0;stroke:#ff00ff;stroke-linejoin:miter;stroke-width:1.5;" x="120.41399" xlink:href="#mb9905fbee6" y="262.689211"/>
     <use style="fill-opacity:0;stroke:#ff00ff;stroke-linejoin:miter;stroke-width:1.5;" x="163.814908" xlink:href="#mb9905fbee6" y="167.233566"/>
     <use style="fill-opacity:0;stroke:#ff00ff;stroke-linejoin:miter;stroke-width:1.5;" x="226.460696" xlink:href="#mb9905fbee6" y="122.374001"/>
     <use style="fill-opacity:0;stroke:#ff00ff;stroke-linejoin:miter;stroke-width:1.5;" x="226.460696" xlink:href="#mb9905fbee6" y="122.259271"/>
     <use style="fill-opacity:0;stroke:#ff00ff;stroke-linejoin:miter;stroke-width:1.5;" x="226.460696" xlink:href="#mb9905fbee6" y="122.259271"/>
     <use style="fill-opacity:0;stroke:#ff00ff;stroke-linejoin:miter;stroke-width:1.5;" x="338.688" xlink:href="#mb9905fbee6" y="122.259271"/>
    </g>
   </g>
   <g id="line2d_42">
    <path style="fill:none;stroke:#ff00ff;stroke-linecap:square;stroke-width:1.5;"/>
    <g/>
   </g>
   <g id="line2d_43">
    <path clip-path="url(#pd247212968)" d="M 158.67908 178.132948 
" style="fill:none;stroke:#ff00ff;stroke-linecap:square;stroke-width:1.5;"/>
    <defs>
     <path d="M -12 12 
L 12 -12 
M -12 -12 
L 12 12 
" id="ma5603e17fa" style="stroke:#ff00ff;"/>
    </defs>
    <g clip-path="url(#pd247212968)">
     <use style="fill:#ff00ff;stroke:#ff00ff;" x="158.67908" xlink:href="#ma5603e17fa" y="178.132948"/>
    </g>
   </g>
   <g id="line2d_44">
    <path d="M 338.688 225.51658 
L 369.60768 293.092752 
" style="fill:none;stroke:#000080;stroke-linecap:square;stroke-width:1.5;"/>
    <g>
     <use style="fill-opacity:0;stroke:#000080;stroke-width:1.5;" x="338.688" xlink:href="#medffce685c" y="225.51658"/>
     <use style="fill-opacity:0;stroke:#000080;stroke-width:1.5;" x="369.60768" xlink:href="#medffce685c" y="293.092752"/>
    </g>
   </g>
   <g id="line2d_45">
    <path d="M 338.688 122.259271 
L 369.60768 152.662812 
" style="fill:none;stroke:#ff00ff;stroke-linecap:square;stroke-width:1.5;"/>
    <g>
     <use style="fill-opacity:0;stroke:#ff00ff;stroke-linejoin:miter;stroke-width:1.5;" x="338.688" xlink:href="#mb9905fbee6" y="122.259271"/>
     <use style="fill-opacity:0;stroke:#ff00ff;stroke-linejoin:miter;stroke-width:1.5;" x="369.60768" xlink:href="#mb9905fbee6" y="152.662812"/>
    </g>
   </g>
   <g id="line2d_46">
    <path d="M 338.688 298.944 
L 338.688 6.381624 
" style="fill:none;stroke:#000000;stroke-linecap:square;stroke-width:1.5;"/>
   </g>
   <g id="patch_3">
    <path d="M 57.6 298.944 
L 57.6 3.456 
" style="fill:none;stroke:#000000;stroke-linecap:square;stroke-linejoin:miter;stroke-width:0.8;"/>
   </g>
   <g id="patch_4">
    <path d="M 338.688 298.944 
L 338.688 3.456 
" style="fill:none;stroke:#000000;stroke-linecap:square;stroke-linejoin:miter;stroke-width:0.8;"/>
   </g>
   <g id="patch_5">
    <path d="M 57.6 298.944 
L 338.688 298.944 
" style="fill:none;stroke:#000000;stroke-linecap:square;stroke-linejoin:miter;stroke-width:0.8;"/>
   </g>
   <g id="patch_6">
    <path d="M 57.6 3.456 
L 338.688 3.456 
" style="fill:none;stroke:#000000;stroke-linecap:square;stroke-linejoin:miter;stroke-width:0.8;"/>
   </g>
   <g id="text_13">
    <!-- gpy lcb -->
    <defs>
     <path d="M 32.171875 -5.078125 
Q 28.375 -14.84375 24.75 -17.8125 
Q 21.140625 -20.796875 15.09375 -20.796875 
L 7.90625 -20.796875 
L 7.90625 -13.28125 
L 13.1875 -13.28125 
Q 16.890625 -13.28125 18.9375 -11.515625 
Q 21 -9.765625 23.484375 -3.21875 
L 25.09375 0.875 
L 2.984375 54.6875 
L 12.5 54.6875 
L 29.59375 11.921875 
L 46.6875 54.6875 
L 56.203125 54.6875 
z
" id="DejaVuSans-121"/>
     <path d="M 48.6875 27.296875 
Q 48.6875 37.203125 44.609375 42.84375 
Q 40.53125 48.484375 33.40625 48.484375 
Q 26.265625 48.484375 22.1875 42.84375 
Q 18.109375 37.203125 18.109375 27.296875 
Q 18.109375 17.390625 22.1875 11.75 
Q 26.265625 6.109375 33.40625 6.109375 
Q 40.53125 6.109375 44.609375 11.75 
Q 48.6875 17.390625 48.6875 27.296875 
z
M 18.109375 46.390625 
Q 20.953125 51.265625 25.265625 53.625 
Q 29.59375 56 35.59375 56 
Q 45.5625 56 51.78125 48.09375 
Q 58.015625 40.1875 58.015625 27.296875 
Q 58.015625 14.40625 51.78125 6.484375 
Q 45.5625 -1.421875 35.59375 -1.421875 
Q 29.59375 -1.421875 25.265625 0.953125 
Q 20.953125 3.328125 18.109375 8.203125 
L 18.109375 0 
L 9.078125 0 
L 9.078125 75.984375 
L 18.109375 75.984375 
z
" id="DejaVuSans-98"/>
    </defs>
    <g transform="translate(375.22944 297.78369)scale(0.17 -0.17)">
     <use xlink:href="#DejaVuSans-103"/>
     <use x="63.476562" xlink:href="#DejaVuSans-112"/>
     <use x="126.953125" xlink:href="#DejaVuSans-121"/>
     <use x="186.132812" xlink:href="#DejaVuSans-32"/>
     <use x="217.919922" xlink:href="#DejaVuSans-108"/>
     <use x="245.703125" xlink:href="#DejaVuSans-99"/>
     <use x="300.683594" xlink:href="#DejaVuSans-98"/>
    </g>
   </g>
   <g id="text_14">
    <!-- scp fmin -->
    <g transform="translate(375.22944 157.353749)scale(0.17 -0.17)">
     <use xlink:href="#DejaVuSans-115"/>
     <use x="52.099609" xlink:href="#DejaVuSans-99"/>
     <use x="107.080078" xlink:href="#DejaVuSans-112"/>
     <use x="170.556641" xlink:href="#DejaVuSans-32"/>
     <use x="202.34375" xlink:href="#DejaVuSans-102"/>
     <use x="237.548828" xlink:href="#DejaVuSans-109"/>
     <use x="334.960938" xlink:href="#DejaVuSans-105"/>
     <use x="362.744141" xlink:href="#DejaVuSans-110"/>
    </g>
   </g>
   <g id="text_15">
    <!-- best 2009 -->
    <defs>
     <path d="M 10.984375 1.515625 
L 10.984375 10.5 
Q 14.703125 8.734375 18.5 7.8125 
Q 22.3125 6.890625 25.984375 6.890625 
Q 35.75 6.890625 40.890625 13.453125 
Q 46.046875 20.015625 46.78125 33.40625 
Q 43.953125 29.203125 39.59375 26.953125 
Q 35.25 24.703125 29.984375 24.703125 
Q 19.046875 24.703125 12.671875 31.3125 
Q 6.296875 37.9375 6.296875 49.421875 
Q 6.296875 60.640625 12.9375 67.421875 
Q 19.578125 74.21875 30.609375 74.21875 
Q 43.265625 74.21875 49.921875 64.515625 
Q 56.59375 54.828125 56.59375 36.375 
Q 56.59375 19.140625 48.40625 8.859375 
Q 40.234375 -1.421875 26.421875 -1.421875 
Q 22.703125 -1.421875 18.890625 -0.6875 
Q 15.09375 0.046875 10.984375 1.515625 
z
M 30.609375 32.421875 
Q 37.25 32.421875 41.125 36.953125 
Q 45.015625 41.5 45.015625 49.421875 
Q 45.015625 57.28125 41.125 61.84375 
Q 37.25 66.40625 30.609375 66.40625 
Q 23.96875 66.40625 20.09375 61.84375 
Q 16.21875 57.28125 16.21875 49.421875 
Q 16.21875 41.5 20.09375 36.953125 
Q 23.96875 32.421875 30.609375 32.421875 
z
" id="DejaVuSans-57"/>
    </defs>
    <g transform="translate(375.22944 16.923809)scale(0.17 -0.17)">
     <use xlink:href="#DejaVuSans-98"/>
     <use x="63.476562" xlink:href="#DejaVuSans-101"/>
     <use x="125" xlink:href="#DejaVuSans-115"/>
     <use x="177.099609" xlink:href="#DejaVuSans-116"/>
     <use x="216.308594" xlink:href="#DejaVuSans-32"/>
     <use x="248.095703" xlink:href="#DejaVuSans-50"/>
     <use x="311.71875" xlink:href="#DejaVuSans-48"/>
     <use x="375.341797" xlink:href="#DejaVuSans-48"/>
     <use x="438.964844" xlink:href="#DejaVuSans-57"/>
    </g>
   </g>
   <g id="text_16">
    <!-- bbob f20-f24, 3-D -->
    <defs>
     <path d="M 40.578125 39.3125 
Q 47.65625 37.796875 51.625 33 
Q 55.609375 28.21875 55.609375 21.1875 
Q 55.609375 10.40625 48.1875 4.484375 
Q 40.765625 -1.421875 27.09375 -1.421875 
Q 22.515625 -1.421875 17.65625 -0.515625 
Q 12.796875 0.390625 7.625 2.203125 
L 7.625 11.71875 
Q 11.71875 9.328125 16.59375 8.109375 
Q 21.484375 6.890625 26.8125 6.890625 
Q 36.078125 6.890625 40.9375 10.546875 
Q 45.796875 14.203125 45.796875 21.1875 
Q 45.796875 27.640625 41.28125 31.265625 
Q 36.765625 34.90625 28.71875 34.90625 
L 20.21875 34.90625 
L 20.21875 43.015625 
L 29.109375 43.015625 
Q 36.375 43.015625 40.234375 45.921875 
Q 44.09375 48.828125 44.09375 54.296875 
Q 44.09375 59.90625 40.109375 62.90625 
Q 36.140625 65.921875 28.71875 65.921875 
Q 24.65625 65.921875 20.015625 65.03125 
Q 15.375 64.15625 9.8125 62.3125 
L 9.8125 71.09375 
Q 15.4375 72.65625 20.34375 73.4375 
Q 25.25 74.21875 29.59375 74.21875 
Q 40.828125 74.21875 47.359375 69.109375 
Q 53.90625 64.015625 53.90625 55.328125 
Q 53.90625 49.265625 50.4375 45.09375 
Q 46.96875 40.921875 40.578125 39.3125 
z
" id="DejaVuSans-51"/>
     <path d="M 19.671875 64.796875 
L 19.671875 8.109375 
L 31.59375 8.109375 
Q 46.6875 8.109375 53.6875 14.9375 
Q 60.6875 21.78125 60.6875 36.53125 
Q 60.6875 51.171875 53.6875 57.984375 
Q 46.6875 64.796875 31.59375 64.796875 
z
M 9.8125 72.90625 
L 30.078125 72.90625 
Q 51.265625 72.90625 61.171875 64.09375 
Q 71.09375 55.28125 71.09375 36.53125 
Q 71.09375 17.671875 61.125 8.828125 
Q 51.171875 0 30.078125 0 
L 9.8125 0 
z
" id="DejaVuSans-68"/>
    </defs>
    <g transform="translate(60.41088 14.161286)scale(0.102 -0.102)">
     <use xlink:href="#DejaVuSans-98"/>
     <use x="63.476562" xlink:href="#DejaVuSans-98"/>
     <use x="126.953125" xlink:href="#DejaVuSans-111"/>
     <use x="188.134766" xlink:href="#DejaVuSans-98"/>
     <use x="251.611328" xlink:href="#DejaVuSans-32"/>
     <use x="283.398438" xlink:href="#DejaVuSans-102"/>
     <use x="318.603516" xlink:href="#DejaVuSans-50"/>
     <use x="382.226562" xlink:href="#DejaVuSans-48"/>
     <use x="445.849609" xlink:href="#DejaVuSans-45"/>
     <use x="481.933594" xlink:href="#DejaVuSans-102"/>
     <use x="517.138672" xlink:href="#DejaVuSans-50"/>
     <use x="580.761719" xlink:href="#DejaVuSans-52"/>
     <use x="644.384766" xlink:href="#DejaVuSans-44"/>
     <use x="676.171875" xlink:href="#DejaVuSans-32"/>
     <use x="707.958984" xlink:href="#DejaVuSans-51"/>
     <use x="771.582031" xlink:href="#DejaVuSans-45"/>
     <use x="807.666016" xlink:href="#DejaVuSans-68"/>
    </g>
    <!-- 51 targets: 100..1e-08 -->
    <defs>
     <path d="M 10.796875 72.90625 
L 49.515625 72.90625 
L 49.515625 64.59375 
L 19.828125 64.59375 
L 19.828125 46.734375 
Q 21.96875 47.46875 24.109375 47.828125 
Q 26.265625 48.1875 28.421875 48.1875 
Q 40.625 48.1875 47.75 41.5 
Q 54.890625 34.8125 54.890625 23.390625 
Q 54.890625 11.625 47.5625 5.09375 
Q 40.234375 -1.421875 26.90625 -1.421875 
Q 22.3125 -1.421875 17.546875 -0.640625 
Q 12.796875 0.140625 7.71875 1.703125 
L 7.71875 11.625 
Q 12.109375 9.234375 16.796875 8.0625 
Q 21.484375 6.890625 26.703125 6.890625 
Q 35.15625 6.890625 40.078125 11.328125 
Q 45.015625 15.765625 45.015625 23.390625 
Q 45.015625 31 40.078125 35.4375 
Q 35.15625 39.890625 26.703125 39.890625 
Q 22.75 39.890625 18.8125 39.015625 
Q 14.890625 38.140625 10.796875 36.28125 
z
" id="DejaVuSans-53"/>
     <path d="M 11.71875 12.40625 
L 22.015625 12.40625 
L 22.015625 0 
L 11.71875 0 
z
M 11.71875 51.703125 
L 22.015625 51.703125 
L 22.015625 39.3125 
L 11.71875 39.3125 
z
" id="DejaVuSans-58"/>
    </defs>
    <g transform="translate(60.41088 25.583055)scale(0.102 -0.102)">
     <use xlink:href="#DejaVuSans-53"/>
     <use x="63.623047" xlink:href="#DejaVuSans-49"/>
     <use x="127.246094" xlink:href="#DejaVuSans-32"/>
     <use x="159.033203" xlink:href="#DejaVuSans-116"/>
     <use x="198.242188" xlink:href="#DejaVuSans-97"/>
     <use x="259.521484" xlink:href="#DejaVuSans-114"/>
     <use x="298.884766" xlink:href="#DejaVuSans-103"/>
     <use x="362.361328" xlink:href="#DejaVuSans-101"/>
     <use x="423.884766" xlink:href="#DejaVuSans-116"/>
     <use x="463.09375" xlink:href="#DejaVuSans-115"/>
     <use x="515.193359" xlink:href="#DejaVuSans-58"/>
     <use x="548.884766" xlink:href="#DejaVuSans-32"/>
     <use x="580.671875" xlink:href="#DejaVuSans-49"/>
     <use x="644.294922" xlink:href="#DejaVuSans-48"/>
     <use x="707.917969" xlink:href="#DejaVuSans-48"/>
     <use x="771.541016" xlink:href="#DejaVuSans-46"/>
     <use x="803.328125" xlink:href="#DejaVuSans-46"/>
     <use x="835.115234" xlink:href="#DejaVuSans-49"/>
     <use x="898.738281" xlink:href="#DejaVuSans-101"/>
     <use x="960.261719" xlink:href="#DejaVuSans-45"/>
     <use x="996.345703" xlink:href="#DejaVuSans-48"/>
     <use x="1059.96875" xlink:href="#DejaVuSans-56"/>
    </g>
    <!-- 15 instances -->
    <g transform="translate(60.41088 37.004824)scale(0.102 -0.102)">
     <use xlink:href="#DejaVuSans-49"/>
     <use x="63.623047" xlink:href="#DejaVuSans-53"/>
     <use x="127.246094" xlink:href="#DejaVuSans-32"/>
     <use x="159.033203" xlink:href="#DejaVuSans-105"/>
     <use x="186.816406" xlink:href="#DejaVuSans-110"/>
     <use x="250.195312" xlink:href="#DejaVuSans-115"/>
     <use x="302.294922" xlink:href="#DejaVuSans-116"/>
     <use x="341.503906" xlink:href="#DejaVuSans-97"/>
     <use x="402.783203" xlink:href="#DejaVuSans-110"/>
     <use x="466.162109" xlink:href="#DejaVuSans-99"/>
     <use x="521.142578" xlink:href="#DejaVuSans-101"/>
     <use x="582.666016" xlink:href="#DejaVuSans-115"/>
    </g>
   </g>
   <g id="text_17">
    <!-- v2.3.3.5 -->
    <g style="fill:#808080;" transform="translate(177.692437 293.909432)scale(0.1 -0.1)">
     <use xlink:href="#DejaVuSans-118"/>
     <use x="59.179688" xlink:href="#DejaVuSans-50"/>
     <use x="122.802734" xlink:href="#DejaVuSans-46"/>
     <use x="154.589844" xlink:href="#DejaVuSans-51"/>
     <use x="218.212891" xlink:href="#DejaVuSans-46"/>
     <use x="250" xlink:href="#DejaVuSans-51"/>
     <use x="313.623047" xlink:href="#DejaVuSans-46"/>
     <use x="345.410156" xlink:href="#DejaVuSans-53"/>
    </g>
   </g>
  </g>
 </g>
 <defs>
  <clipPath id="pd247212968">
   <rect height="295.488" width="281.088" x="57.6" y="3.456"/>
  </clipPath>
 </defs>
</svg>
