<?xml version="1.0" encoding="utf-8" standalone="no"?>
<!DOCTYPE svg PUBLIC "-//W3C//DTD SVG 1.1//EN"
  "http://www.w3.org/Graphics/SVG/1.1/DTD/svg11.dtd">
<!-- Created with matplotlib (https://matplotlib.org/) -->
<svg height="345.6pt" version="1.1" viewBox="0 0 460.8 345.6" width="460.8pt" xmlns="http://www.w3.org/2000/svg" xmlns:xlink="http://www.w3.org/1999/xlink">
 <defs>
  <style type="text/css">
*{stroke-linecap:butt;stroke-linejoin:round;}
  </style>
 </defs>
 <g id="figure_1">
  <g id="patch_1">
   <path d="M 0 345.6 
L 460.8 345.6 
L 460.8 0 
L 0 0 
z
" style="fill:#ffffff;"/>
  </g>
  <g id="axes_1">
   <g id="patch_2">
    <path d="M 57.6 298.944 
L 338.688 298.944 
L 338.688 3.456 
L 57.6 3.456 
z
" style="fill:#ffffff;"/>
   </g>
   <g id="line2d_1">
    <path d="M 45.512012 298.944 
L 45.512012 287.470966 
L 57.6 287.470966 
L 57.6 281.734448 
L 64.67102 281.734448 
L 64.67102 278.292538 
L 69.687988 278.292538 
L 69.687988 224.369277 
L 73.579452 224.369277 
L 73.579452 222.07467 
L 76.759008 222.07467 
L 76.759008 175.035229 
L 79.447285 175.035229 
L 79.447285 173.887925 
L 81.775977 173.887925 
L 81.775977 172.740622 
L 85.66744 172.740622 
L 85.66744 171.593319 
L 88.846997 171.593319 
L 88.846997 170.446015 
L 90.242884 170.446015 
L 90.242884 169.298712 
L 91.535274 169.298712 
L 91.535274 168.151408 
L 92.73846 168.151408 
L 92.73846 164.709498 
L 93.863965 164.709498 
L 93.863965 163.562195 
L 95.918017 163.562195 
L 95.918017 162.414891 
L 96.86091 162.414891 
L 96.86091 157.825677 
L 97.755429 157.825677 
L 97.755429 155.53107 
L 99.41757 155.53107 
L 99.41757 153.236464 
L 100.934985 153.236464 
L 100.934985 149.794553 
L 101.646892 149.794553 
L 101.646892 141.763429 
L 102.330873 141.763429 
L 102.330873 132.585002 
L 102.989037 132.585002 
L 102.989037 126.848485 
L 103.623262 126.848485 
L 103.623262 116.522754 
L 104.23523 116.522754 
L 104.23523 110.786236 
L 104.826449 110.786236 
L 104.826449 106.197023 
L 111.104637 106.197023 
L 111.104637 105.049719 
L 127.799239 105.049719 
L 127.799239 103.902416 
L 129.002426 103.902416 
L 129.002426 102.755112 
L 141.235139 102.755112 
L 141.235139 101.607809 
L 143.208936 101.607809 
L 143.208936 100.460506 
L 145.553708 100.460506 
L 145.553708 99.313202 
L 147.368603 99.313202 
L 147.368603 98.165899 
L 150.344189 98.165899 
L 150.344189 97.018595 
L 150.598782 97.018595 
L 150.598782 95.871292 
L 151.818809 95.871292 
L 151.897188 85.545561 
L 151.936246 85.545561 
L 151.975216 80.956347 
L 152.052897 80.956347 
L 152.130233 71.77792 
L 152.168773 71.77792 
L 152.245598 59.157582 
L 152.398241 59.157582 
L 152.474064 56.862975 
L 152.511852 56.862975 
L 152.587184 49.979154 
L 152.624728 49.979154 
L 152.624728 45.389941 
L 153.178403 45.389941 
L 153.214697 41.94803 
L 153.750233 41.94803 
L 153.785358 38.50612 
L 153.925152 38.50612 
L 153.925152 37.358817 
L 154.167129 37.358817 
L 154.167129 36.211513 
L 154.674612 36.211513 
L 154.674612 35.06421 
L 155.135299 35.06421 
L 155.232454 28.180389 
L 155.329071 28.180389 
L 155.361158 22.443872 
L 155.61575 22.443872 
L 155.61575 19.001962 
L 155.83551 19.001962 
L 155.83551 17.854658 
L 155.959855 17.854658 
L 156.052535 12.118141 
L 156.083319 12.118141 
L 156.144725 6.381624 
L 338.688 6.381624 
L 338.688 6.381624 
" style="fill:none;stroke:#f5deb3;stroke-linecap:square;stroke-width:4;"/>
   </g>
   <g id="line2d_2">
    <defs>
     <path d="M -0 7.778175 
L 7.778175 0 
L 0 -7.778175 
L -7.778175 -0 
z
" id="m61f1290312" style="stroke:#f5deb3;stroke-linejoin:miter;stroke-width:1.5;"/>
    </defs>
    <g>
     <use style="fill:#f5deb3;stroke:#f5deb3;stroke-linejoin:miter;stroke-width:1.5;" x="76.759008" xlink:href="#m61f1290312" y="222.07467"/>
     <use style="fill:#f5deb3;stroke:#f5deb3;stroke-linejoin:miter;stroke-width:1.5;" x="111.104637" xlink:href="#m61f1290312" y="105.049719"/>
     <use style="fill:#f5deb3;stroke:#f5deb3;stroke-linejoin:miter;stroke-width:1.5;" x="153.925152" xlink:href="#m61f1290312" y="37.358817"/>
     <use style="fill:#f5deb3;stroke:#f5deb3;stroke-linejoin:miter;stroke-width:1.5;" x="156.144725" xlink:href="#m61f1290312" y="6.381624"/>
     <use style="fill:#f5deb3;stroke:#f5deb3;stroke-linejoin:miter;stroke-width:1.5;" x="156.144725" xlink:href="#m61f1290312" y="6.381624"/>
     <use style="fill:#f5deb3;stroke:#f5deb3;stroke-linejoin:miter;stroke-width:1.5;" x="338.688" xlink:href="#m61f1290312" y="6.381624"/>
    </g>
   </g>
   <g id="line2d_3">
    <path style="fill:none;stroke:#f5deb3;stroke-linecap:square;stroke-width:4;"/>
    <g/>
   </g>
   <g id="line2d_4">
    <path d="M 338.688 6.381624 
L 369.60768 12.232871 
" style="fill:none;stroke:#f5deb3;stroke-linecap:square;stroke-width:4;"/>
    <g>
     <use style="fill:#f5deb3;stroke:#f5deb3;stroke-linejoin:miter;stroke-width:1.5;" x="338.688" xlink:href="#m61f1290312" y="6.381624"/>
     <use style="fill:#f5deb3;stroke:#f5deb3;stroke-linejoin:miter;stroke-width:1.5;" x="369.60768" xlink:href="#m61f1290312" y="12.232871"/>
    </g>
   </g>
   <g id="matplotlib.axis_1">
    <g id="xtick_1">
     <g id="line2d_5">
      <path clip-path="url(#pc1783134ee)" d="M 57.6 298.944 
L 57.6 3.456 
" style="fill:none;stroke:#b0b0b0;stroke-linecap:square;stroke-width:0.8;"/>
     </g>
     <g id="line2d_6">
      <defs>
       <path d="M 0 0 
L 0 3.5 
" id="m8599c743a7" style="stroke:#000000;stroke-width:0.8;"/>
      </defs>
      <g>
       <use style="stroke:#000000;stroke-width:0.8;" x="57.6" xlink:href="#m8599c743a7" y="298.944"/>
      </g>
     </g>
     <g id="text_1">
      <!-- 0 -->
      <defs>
       <path d="M 31.78125 66.40625 
Q 24.171875 66.40625 20.328125 58.90625 
Q 16.5 51.421875 16.5 36.375 
Q 16.5 21.390625 20.328125 13.890625 
Q 24.171875 6.390625 31.78125 6.390625 
Q 39.453125 6.390625 43.28125 13.890625 
Q 47.125 21.390625 47.125 36.375 
Q 47.125 51.421875 43.28125 58.90625 
Q 39.453125 66.40625 31.78125 66.40625 
z
M 31.78125 74.21875 
Q 44.046875 74.21875 50.515625 64.515625 
Q 56.984375 54.828125 56.984375 36.375 
Q 56.984375 17.96875 50.515625 8.265625 
Q 44.046875 -1.421875 31.78125 -1.421875 
Q 19.53125 -1.421875 13.0625 8.265625 
Q 6.59375 17.96875 6.59375 36.375 
Q 6.59375 54.828125 13.0625 64.515625 
Q 19.53125 74.21875 31.78125 74.21875 
z
" id="DejaVuSans-48"/>
      </defs>
      <g transform="translate(51.2375 321.140875)scale(0.2 -0.2)">
       <use xlink:href="#DejaVuSans-48"/>
      </g>
     </g>
    </g>
    <g id="xtick_2">
     <g id="line2d_7">
      <path clip-path="url(#pc1783134ee)" d="M 137.910857 298.944 
L 137.910857 3.456 
" style="fill:none;stroke:#b0b0b0;stroke-linecap:square;stroke-width:0.8;"/>
     </g>
     <g id="line2d_8">
      <g>
       <use style="stroke:#000000;stroke-width:0.8;" x="137.910857" xlink:href="#m8599c743a7" y="298.944"/>
      </g>
     </g>
     <g id="text_2">
      <!-- 2 -->
      <defs>
       <path d="M 19.1875 8.296875 
L 53.609375 8.296875 
L 53.609375 0 
L 7.328125 0 
L 7.328125 8.296875 
Q 12.9375 14.109375 22.625 23.890625 
Q 32.328125 33.6875 34.8125 36.53125 
Q 39.546875 41.84375 41.421875 45.53125 
Q 43.3125 49.21875 43.3125 52.78125 
Q 43.3125 58.59375 39.234375 62.25 
Q 35.15625 65.921875 28.609375 65.921875 
Q 23.96875 65.921875 18.8125 64.3125 
Q 13.671875 62.703125 7.8125 59.421875 
L 7.8125 69.390625 
Q 13.765625 71.78125 18.9375 73 
Q 24.125 74.21875 28.421875 74.21875 
Q 39.75 74.21875 46.484375 68.546875 
Q 53.21875 62.890625 53.21875 53.421875 
Q 53.21875 48.921875 51.53125 44.890625 
Q 49.859375 40.875 45.40625 35.40625 
Q 44.1875 33.984375 37.640625 27.21875 
Q 31.109375 20.453125 19.1875 8.296875 
z
" id="DejaVuSans-50"/>
      </defs>
      <g transform="translate(131.548357 321.140875)scale(0.2 -0.2)">
       <use xlink:href="#DejaVuSans-50"/>
      </g>
     </g>
    </g>
    <g id="xtick_3">
     <g id="line2d_9">
      <path clip-path="url(#pc1783134ee)" d="M 218.221714 298.944 
L 218.221714 3.456 
" style="fill:none;stroke:#b0b0b0;stroke-linecap:square;stroke-width:0.8;"/>
     </g>
     <g id="line2d_10">
      <g>
       <use style="stroke:#000000;stroke-width:0.8;" x="218.221714" xlink:href="#m8599c743a7" y="298.944"/>
      </g>
     </g>
     <g id="text_3">
      <!-- 4 -->
      <defs>
       <path d="M 37.796875 64.3125 
L 12.890625 25.390625 
L 37.796875 25.390625 
z
M 35.203125 72.90625 
L 47.609375 72.90625 
L 47.609375 25.390625 
L 58.015625 25.390625 
L 58.015625 17.1875 
L 47.609375 17.1875 
L 47.609375 0 
L 37.796875 0 
L 37.796875 17.1875 
L 4.890625 17.1875 
L 4.890625 26.703125 
z
" id="DejaVuSans-52"/>
      </defs>
      <g transform="translate(211.859214 321.140875)scale(0.2 -0.2)">
       <use xlink:href="#DejaVuSans-52"/>
      </g>
     </g>
    </g>
    <g id="xtick_4">
     <g id="line2d_11">
      <path clip-path="url(#pc1783134ee)" d="M 298.532571 298.944 
L 298.532571 3.456 
" style="fill:none;stroke:#b0b0b0;stroke-linecap:square;stroke-width:0.8;"/>
     </g>
     <g id="line2d_12">
      <g>
       <use style="stroke:#000000;stroke-width:0.8;" x="298.532571" xlink:href="#m8599c743a7" y="298.944"/>
      </g>
     </g>
     <g id="text_4">
      <!-- 6 -->
      <defs>
       <path d="M 33.015625 40.375 
Q 26.375 40.375 22.484375 35.828125 
Q 18.609375 31.296875 18.609375 23.390625 
Q 18.609375 15.53125 22.484375 10.953125 
Q 26.375 6.390625 33.015625 6.390625 
Q 39.65625 6.390625 43.53125 10.953125 
Q 47.40625 15.53125 47.40625 23.390625 
Q 47.40625 31.296875 43.53125 35.828125 
Q 39.65625 40.375 33.015625 40.375 
z
M 52.59375 71.296875 
L 52.59375 62.3125 
Q 48.875 64.0625 45.09375 64.984375 
Q 41.3125 65.921875 37.59375 65.921875 
Q 27.828125 65.921875 22.671875 59.328125 
Q 17.53125 52.734375 16.796875 39.40625 
Q 19.671875 43.65625 24.015625 45.921875 
Q 28.375 48.1875 33.59375 48.1875 
Q 44.578125 48.1875 50.953125 41.515625 
Q 57.328125 34.859375 57.328125 23.390625 
Q 57.328125 12.15625 50.6875 5.359375 
Q 44.046875 -1.421875 33.015625 -1.421875 
Q 20.359375 -1.421875 13.671875 8.265625 
Q 6.984375 17.96875 6.984375 36.375 
Q 6.984375 53.65625 15.1875 63.9375 
Q 23.390625 74.21875 37.203125 74.21875 
Q 40.921875 74.21875 44.703125 73.484375 
Q 48.484375 72.75 52.59375 71.296875 
z
" id="DejaVuSans-54"/>
      </defs>
      <g transform="translate(292.170071 321.140875)scale(0.2 -0.2)">
       <use xlink:href="#DejaVuSans-54"/>
      </g>
     </g>
    </g>
    <g id="xtick_5">
     <g id="line2d_13">
      <path clip-path="url(#pc1783134ee)" d="M 97.755429 298.944 
L 97.755429 3.456 
" style="fill:none;stroke:#b0b0b0;stroke-linecap:square;stroke-width:0.8;"/>
     </g>
     <g id="line2d_14">
      <defs>
       <path d="M 0 0 
L 0 2 
" id="m07714c8ecb" style="stroke:#000000;stroke-width:0.6;"/>
      </defs>
      <g>
       <use style="stroke:#000000;stroke-width:0.6;" x="97.755429" xlink:href="#m07714c8ecb" y="298.944"/>
      </g>
     </g>
    </g>
    <g id="xtick_6">
     <g id="line2d_15">
      <path clip-path="url(#pc1783134ee)" d="M 178.066286 298.944 
L 178.066286 3.456 
" style="fill:none;stroke:#b0b0b0;stroke-linecap:square;stroke-width:0.8;"/>
     </g>
     <g id="line2d_16">
      <g>
       <use style="stroke:#000000;stroke-width:0.6;" x="178.066286" xlink:href="#m07714c8ecb" y="298.944"/>
      </g>
     </g>
    </g>
    <g id="xtick_7">
     <g id="line2d_17">
      <path clip-path="url(#pc1783134ee)" d="M 258.377143 298.944 
L 258.377143 3.456 
" style="fill:none;stroke:#b0b0b0;stroke-linecap:square;stroke-width:0.8;"/>
     </g>
     <g id="line2d_18">
      <g>
       <use style="stroke:#000000;stroke-width:0.6;" x="258.377143" xlink:href="#m07714c8ecb" y="298.944"/>
      </g>
     </g>
    </g>
    <g id="xtick_8">
     <g id="line2d_19">
      <path clip-path="url(#pc1783134ee)" d="M 338.688 298.944 
L 338.688 3.456 
" style="fill:none;stroke:#b0b0b0;stroke-linecap:square;stroke-width:0.8;"/>
     </g>
     <g id="line2d_20">
      <g>
       <use style="stroke:#000000;stroke-width:0.6;" x="338.688" xlink:href="#m07714c8ecb" y="298.944"/>
      </g>
     </g>
    </g>
    <g id="text_5">
     <!-- log10(# f-evals / dimension) -->
     <defs>
      <path d="M 9.421875 75.984375 
L 18.40625 75.984375 
L 18.40625 0 
L 9.421875 0 
z
" id="DejaVuSans-108"/>
      <path d="M 30.609375 48.390625 
Q 23.390625 48.390625 19.1875 42.75 
Q 14.984375 37.109375 14.984375 27.296875 
Q 14.984375 17.484375 19.15625 11.84375 
Q 23.34375 6.203125 30.609375 6.203125 
Q 37.796875 6.203125 41.984375 11.859375 
Q 46.1875 17.53125 46.1875 27.296875 
Q 46.1875 37.015625 41.984375 42.703125 
Q 37.796875 48.390625 30.609375 48.390625 
z
M 30.609375 56 
Q 42.328125 56 49.015625 48.375 
Q 55.71875 40.765625 55.71875 27.296875 
Q 55.71875 13.875 49.015625 6.21875 
Q 42.328125 -1.421875 30.609375 -1.421875 
Q 18.84375 -1.421875 12.171875 6.21875 
Q 5.515625 13.875 5.515625 27.296875 
Q 5.515625 40.765625 12.171875 48.375 
Q 18.84375 56 30.609375 56 
z
" id="DejaVuSans-111"/>
      <path d="M 45.40625 27.984375 
Q 45.40625 37.75 41.375 43.109375 
Q 37.359375 48.484375 30.078125 48.484375 
Q 22.859375 48.484375 18.828125 43.109375 
Q 14.796875 37.75 14.796875 27.984375 
Q 14.796875 18.265625 18.828125 12.890625 
Q 22.859375 7.515625 30.078125 7.515625 
Q 37.359375 7.515625 41.375 12.890625 
Q 45.40625 18.265625 45.40625 27.984375 
z
M 54.390625 6.78125 
Q 54.390625 -7.171875 48.1875 -13.984375 
Q 42 -20.796875 29.203125 -20.796875 
Q 24.46875 -20.796875 20.265625 -20.09375 
Q 16.0625 -19.390625 12.109375 -17.921875 
L 12.109375 -9.1875 
Q 16.0625 -11.328125 19.921875 -12.34375 
Q 23.78125 -13.375 27.78125 -13.375 
Q 36.625 -13.375 41.015625 -8.765625 
Q 45.40625 -4.15625 45.40625 5.171875 
L 45.40625 9.625 
Q 42.625 4.78125 38.28125 2.390625 
Q 33.9375 0 27.875 0 
Q 17.828125 0 11.671875 7.65625 
Q 5.515625 15.328125 5.515625 27.984375 
Q 5.515625 40.671875 11.671875 48.328125 
Q 17.828125 56 27.875 56 
Q 33.9375 56 38.28125 53.609375 
Q 42.625 51.21875 45.40625 46.390625 
L 45.40625 54.6875 
L 54.390625 54.6875 
z
" id="DejaVuSans-103"/>
      <path d="M 12.40625 8.296875 
L 28.515625 8.296875 
L 28.515625 63.921875 
L 10.984375 60.40625 
L 10.984375 69.390625 
L 28.421875 72.90625 
L 38.28125 72.90625 
L 38.28125 8.296875 
L 54.390625 8.296875 
L 54.390625 0 
L 12.40625 0 
z
" id="DejaVuSans-49"/>
      <path d="M 31 75.875 
Q 24.46875 64.65625 21.28125 53.65625 
Q 18.109375 42.671875 18.109375 31.390625 
Q 18.109375 20.125 21.3125 9.0625 
Q 24.515625 -2 31 -13.1875 
L 23.1875 -13.1875 
Q 15.875 -1.703125 12.234375 9.375 
Q 8.59375 20.453125 8.59375 31.390625 
Q 8.59375 42.28125 12.203125 53.3125 
Q 15.828125 64.359375 23.1875 75.875 
z
" id="DejaVuSans-40"/>
      <path d="M 51.125 44 
L 36.921875 44 
L 32.8125 27.6875 
L 47.125 27.6875 
z
M 43.796875 71.78125 
L 38.71875 51.515625 
L 52.984375 51.515625 
L 58.109375 71.78125 
L 65.921875 71.78125 
L 60.890625 51.515625 
L 76.125 51.515625 
L 76.125 44 
L 58.984375 44 
L 54.984375 27.6875 
L 70.515625 27.6875 
L 70.515625 20.21875 
L 53.078125 20.21875 
L 48 0 
L 40.1875 0 
L 45.21875 20.21875 
L 30.90625 20.21875 
L 25.875 0 
L 18.015625 0 
L 23.09375 20.21875 
L 7.71875 20.21875 
L 7.71875 27.6875 
L 24.90625 27.6875 
L 29 44 
L 13.28125 44 
L 13.28125 51.515625 
L 30.90625 51.515625 
L 35.890625 71.78125 
z
" id="DejaVuSans-35"/>
      <path id="DejaVuSans-32"/>
      <path d="M 37.109375 75.984375 
L 37.109375 68.5 
L 28.515625 68.5 
Q 23.6875 68.5 21.796875 66.546875 
Q 19.921875 64.59375 19.921875 59.515625 
L 19.921875 54.6875 
L 34.71875 54.6875 
L 34.71875 47.703125 
L 19.921875 47.703125 
L 19.921875 0 
L 10.890625 0 
L 10.890625 47.703125 
L 2.296875 47.703125 
L 2.296875 54.6875 
L 10.890625 54.6875 
L 10.890625 58.5 
Q 10.890625 67.625 15.140625 71.796875 
Q 19.390625 75.984375 28.609375 75.984375 
z
" id="DejaVuSans-102"/>
      <path d="M 4.890625 31.390625 
L 31.203125 31.390625 
L 31.203125 23.390625 
L 4.890625 23.390625 
z
" id="DejaVuSans-45"/>
      <path d="M 56.203125 29.59375 
L 56.203125 25.203125 
L 14.890625 25.203125 
Q 15.484375 15.921875 20.484375 11.0625 
Q 25.484375 6.203125 34.421875 6.203125 
Q 39.59375 6.203125 44.453125 7.46875 
Q 49.3125 8.734375 54.109375 11.28125 
L 54.109375 2.78125 
Q 49.265625 0.734375 44.1875 -0.34375 
Q 39.109375 -1.421875 33.890625 -1.421875 
Q 20.796875 -1.421875 13.15625 6.1875 
Q 5.515625 13.8125 5.515625 26.8125 
Q 5.515625 40.234375 12.765625 48.109375 
Q 20.015625 56 32.328125 56 
Q 43.359375 56 49.78125 48.890625 
Q 56.203125 41.796875 56.203125 29.59375 
z
M 47.21875 32.234375 
Q 47.125 39.59375 43.09375 43.984375 
Q 39.0625 48.390625 32.421875 48.390625 
Q 24.90625 48.390625 20.390625 44.140625 
Q 15.875 39.890625 15.1875 32.171875 
z
" id="DejaVuSans-101"/>
      <path d="M 2.984375 54.6875 
L 12.5 54.6875 
L 29.59375 8.796875 
L 46.6875 54.6875 
L 56.203125 54.6875 
L 35.6875 0 
L 23.484375 0 
z
" id="DejaVuSans-118"/>
      <path d="M 34.28125 27.484375 
Q 23.390625 27.484375 19.1875 25 
Q 14.984375 22.515625 14.984375 16.5 
Q 14.984375 11.71875 18.140625 8.90625 
Q 21.296875 6.109375 26.703125 6.109375 
Q 34.1875 6.109375 38.703125 11.40625 
Q 43.21875 16.703125 43.21875 25.484375 
L 43.21875 27.484375 
z
M 52.203125 31.203125 
L 52.203125 0 
L 43.21875 0 
L 43.21875 8.296875 
Q 40.140625 3.328125 35.546875 0.953125 
Q 30.953125 -1.421875 24.3125 -1.421875 
Q 15.921875 -1.421875 10.953125 3.296875 
Q 6 8.015625 6 15.921875 
Q 6 25.140625 12.171875 29.828125 
Q 18.359375 34.515625 30.609375 34.515625 
L 43.21875 34.515625 
L 43.21875 35.40625 
Q 43.21875 41.609375 39.140625 45 
Q 35.0625 48.390625 27.6875 48.390625 
Q 23 48.390625 18.546875 47.265625 
Q 14.109375 46.140625 10.015625 43.890625 
L 10.015625 52.203125 
Q 14.9375 54.109375 19.578125 55.046875 
Q 24.21875 56 28.609375 56 
Q 40.484375 56 46.34375 49.84375 
Q 52.203125 43.703125 52.203125 31.203125 
z
" id="DejaVuSans-97"/>
      <path d="M 44.28125 53.078125 
L 44.28125 44.578125 
Q 40.484375 46.53125 36.375 47.5 
Q 32.28125 48.484375 27.875 48.484375 
Q 21.1875 48.484375 17.84375 46.4375 
Q 14.5 44.390625 14.5 40.28125 
Q 14.5 37.15625 16.890625 35.375 
Q 19.28125 33.59375 26.515625 31.984375 
L 29.59375 31.296875 
Q 39.15625 29.25 43.1875 25.515625 
Q 47.21875 21.78125 47.21875 15.09375 
Q 47.21875 7.46875 41.1875 3.015625 
Q 35.15625 -1.421875 24.609375 -1.421875 
Q 20.21875 -1.421875 15.453125 -0.5625 
Q 10.6875 0.296875 5.421875 2 
L 5.421875 11.28125 
Q 10.40625 8.6875 15.234375 7.390625 
Q 20.0625 6.109375 24.8125 6.109375 
Q 31.15625 6.109375 34.5625 8.28125 
Q 37.984375 10.453125 37.984375 14.40625 
Q 37.984375 18.0625 35.515625 20.015625 
Q 33.0625 21.96875 24.703125 23.78125 
L 21.578125 24.515625 
Q 13.234375 26.265625 9.515625 29.90625 
Q 5.8125 33.546875 5.8125 39.890625 
Q 5.8125 47.609375 11.28125 51.796875 
Q 16.75 56 26.8125 56 
Q 31.78125 56 36.171875 55.265625 
Q 40.578125 54.546875 44.28125 53.078125 
z
" id="DejaVuSans-115"/>
      <path d="M 25.390625 72.90625 
L 33.6875 72.90625 
L 8.296875 -9.28125 
L 0 -9.28125 
z
" id="DejaVuSans-47"/>
      <path d="M 45.40625 46.390625 
L 45.40625 75.984375 
L 54.390625 75.984375 
L 54.390625 0 
L 45.40625 0 
L 45.40625 8.203125 
Q 42.578125 3.328125 38.25 0.953125 
Q 33.9375 -1.421875 27.875 -1.421875 
Q 17.96875 -1.421875 11.734375 6.484375 
Q 5.515625 14.40625 5.515625 27.296875 
Q 5.515625 40.1875 11.734375 48.09375 
Q 17.96875 56 27.875 56 
Q 33.9375 56 38.25 53.625 
Q 42.578125 51.265625 45.40625 46.390625 
z
M 14.796875 27.296875 
Q 14.796875 17.390625 18.875 11.75 
Q 22.953125 6.109375 30.078125 6.109375 
Q 37.203125 6.109375 41.296875 11.75 
Q 45.40625 17.390625 45.40625 27.296875 
Q 45.40625 37.203125 41.296875 42.84375 
Q 37.203125 48.484375 30.078125 48.484375 
Q 22.953125 48.484375 18.875 42.84375 
Q 14.796875 37.203125 14.796875 27.296875 
z
" id="DejaVuSans-100"/>
      <path d="M 9.421875 54.6875 
L 18.40625 54.6875 
L 18.40625 0 
L 9.421875 0 
z
M 9.421875 75.984375 
L 18.40625 75.984375 
L 18.40625 64.59375 
L 9.421875 64.59375 
z
" id="DejaVuSans-105"/>
      <path d="M 52 44.1875 
Q 55.375 50.25 60.0625 53.125 
Q 64.75 56 71.09375 56 
Q 79.640625 56 84.28125 50.015625 
Q 88.921875 44.046875 88.921875 33.015625 
L 88.921875 0 
L 79.890625 0 
L 79.890625 32.71875 
Q 79.890625 40.578125 77.09375 44.375 
Q 74.3125 48.1875 68.609375 48.1875 
Q 61.625 48.1875 57.5625 43.546875 
Q 53.515625 38.921875 53.515625 30.90625 
L 53.515625 0 
L 44.484375 0 
L 44.484375 32.71875 
Q 44.484375 40.625 41.703125 44.40625 
Q 38.921875 48.1875 33.109375 48.1875 
Q 26.21875 48.1875 22.15625 43.53125 
Q 18.109375 38.875 18.109375 30.90625 
L 18.109375 0 
L 9.078125 0 
L 9.078125 54.6875 
L 18.109375 54.6875 
L 18.109375 46.1875 
Q 21.1875 51.21875 25.484375 53.609375 
Q 29.78125 56 35.6875 56 
Q 41.65625 56 45.828125 52.96875 
Q 50 49.953125 52 44.1875 
z
" id="DejaVuSans-109"/>
      <path d="M 54.890625 33.015625 
L 54.890625 0 
L 45.90625 0 
L 45.90625 32.71875 
Q 45.90625 40.484375 42.875 44.328125 
Q 39.84375 48.1875 33.796875 48.1875 
Q 26.515625 48.1875 22.3125 43.546875 
Q 18.109375 38.921875 18.109375 30.90625 
L 18.109375 0 
L 9.078125 0 
L 9.078125 54.6875 
L 18.109375 54.6875 
L 18.109375 46.1875 
Q 21.34375 51.125 25.703125 53.5625 
Q 30.078125 56 35.796875 56 
Q 45.21875 56 50.046875 50.171875 
Q 54.890625 44.34375 54.890625 33.015625 
z
" id="DejaVuSans-110"/>
      <path d="M 8.015625 75.875 
L 15.828125 75.875 
Q 23.140625 64.359375 26.78125 53.3125 
Q 30.421875 42.28125 30.421875 31.390625 
Q 30.421875 20.453125 26.78125 9.375 
Q 23.140625 -1.703125 15.828125 -13.1875 
L 8.015625 -13.1875 
Q 14.5 -2 17.703125 9.0625 
Q 20.90625 20.125 20.90625 31.390625 
Q 20.90625 42.671875 17.703125 53.65625 
Q 14.5 64.65625 8.015625 75.875 
z
" id="DejaVuSans-41"/>
     </defs>
     <g transform="translate(77.764078 342.217594)scale(0.17 -0.17)">
      <use xlink:href="#DejaVuSans-108"/>
      <use x="27.783203" xlink:href="#DejaVuSans-111"/>
      <use x="88.964844" xlink:href="#DejaVuSans-103"/>
      <use x="152.441406" xlink:href="#DejaVuSans-49"/>
      <use x="216.064453" xlink:href="#DejaVuSans-48"/>
      <use x="279.6875" xlink:href="#DejaVuSans-40"/>
      <use x="318.701172" xlink:href="#DejaVuSans-35"/>
      <use x="402.490234" xlink:href="#DejaVuSans-32"/>
      <use x="434.277344" xlink:href="#DejaVuSans-102"/>
      <use x="463.982422" xlink:href="#DejaVuSans-45"/>
      <use x="500.066406" xlink:href="#DejaVuSans-101"/>
      <use x="561.589844" xlink:href="#DejaVuSans-118"/>
      <use x="620.769531" xlink:href="#DejaVuSans-97"/>
      <use x="682.048828" xlink:href="#DejaVuSans-108"/>
      <use x="709.832031" xlink:href="#DejaVuSans-115"/>
      <use x="761.931641" xlink:href="#DejaVuSans-32"/>
      <use x="793.71875" xlink:href="#DejaVuSans-47"/>
      <use x="827.410156" xlink:href="#DejaVuSans-32"/>
      <use x="859.197266" xlink:href="#DejaVuSans-100"/>
      <use x="922.673828" xlink:href="#DejaVuSans-105"/>
      <use x="950.457031" xlink:href="#DejaVuSans-109"/>
      <use x="1047.869141" xlink:href="#DejaVuSans-101"/>
      <use x="1109.392578" xlink:href="#DejaVuSans-110"/>
      <use x="1172.771484" xlink:href="#DejaVuSans-115"/>
      <use x="1224.871094" xlink:href="#DejaVuSans-105"/>
      <use x="1252.654297" xlink:href="#DejaVuSans-111"/>
      <use x="1313.835938" xlink:href="#DejaVuSans-110"/>
      <use x="1377.214844" xlink:href="#DejaVuSans-41"/>
     </g>
    </g>
   </g>
   <g id="matplotlib.axis_2">
    <g id="ytick_1">
     <g id="line2d_21">
      <path clip-path="url(#pc1783134ee)" d="M 57.6 298.944 
L 338.688 298.944 
" style="fill:none;stroke:#b0b0b0;stroke-linecap:square;stroke-width:0.8;"/>
     </g>
     <g id="line2d_22">
      <defs>
       <path d="M 0 0 
L -3.5 0 
" id="m6cf6dcc86e" style="stroke:#000000;stroke-width:0.8;"/>
      </defs>
      <g>
       <use style="stroke:#000000;stroke-width:0.8;" x="57.6" xlink:href="#m6cf6dcc86e" y="298.944"/>
      </g>
     </g>
     <g id="text_6">
      <!-- 0.0 -->
      <defs>
       <path d="M 10.6875 12.40625 
L 21 12.40625 
L 21 0 
L 10.6875 0 
z
" id="DejaVuSans-46"/>
      </defs>
      <g transform="translate(25.155 305.02275)scale(0.16 -0.16)">
       <use xlink:href="#DejaVuSans-48"/>
       <use x="63.623047" xlink:href="#DejaVuSans-46"/>
       <use x="95.410156" xlink:href="#DejaVuSans-48"/>
      </g>
     </g>
    </g>
    <g id="ytick_2">
     <g id="line2d_23">
      <path clip-path="url(#pc1783134ee)" d="M 57.6 240.431525 
L 338.688 240.431525 
" style="fill:none;stroke:#b0b0b0;stroke-linecap:square;stroke-width:0.8;"/>
     </g>
     <g id="line2d_24">
      <g>
       <use style="stroke:#000000;stroke-width:0.8;" x="57.6" xlink:href="#m6cf6dcc86e" y="240.431525"/>
      </g>
     </g>
     <g id="text_7">
      <!-- 0.2 -->
      <g transform="translate(25.155 246.510275)scale(0.16 -0.16)">
       <use xlink:href="#DejaVuSans-48"/>
       <use x="63.623047" xlink:href="#DejaVuSans-46"/>
       <use x="95.410156" xlink:href="#DejaVuSans-50"/>
      </g>
     </g>
    </g>
    <g id="ytick_3">
     <g id="line2d_25">
      <path clip-path="url(#pc1783134ee)" d="M 57.6 181.91905 
L 338.688 181.91905 
" style="fill:none;stroke:#b0b0b0;stroke-linecap:square;stroke-width:0.8;"/>
     </g>
     <g id="line2d_26">
      <g>
       <use style="stroke:#000000;stroke-width:0.8;" x="57.6" xlink:href="#m6cf6dcc86e" y="181.91905"/>
      </g>
     </g>
     <g id="text_8">
      <!-- 0.4 -->
      <g transform="translate(25.155 187.9978)scale(0.16 -0.16)">
       <use xlink:href="#DejaVuSans-48"/>
       <use x="63.623047" xlink:href="#DejaVuSans-46"/>
       <use x="95.410156" xlink:href="#DejaVuSans-52"/>
      </g>
     </g>
    </g>
    <g id="ytick_4">
     <g id="line2d_27">
      <path clip-path="url(#pc1783134ee)" d="M 57.6 123.406574 
L 338.688 123.406574 
" style="fill:none;stroke:#b0b0b0;stroke-linecap:square;stroke-width:0.8;"/>
     </g>
     <g id="line2d_28">
      <g>
       <use style="stroke:#000000;stroke-width:0.8;" x="57.6" xlink:href="#m6cf6dcc86e" y="123.406574"/>
      </g>
     </g>
     <g id="text_9">
      <!-- 0.6 -->
      <g transform="translate(25.155 129.485324)scale(0.16 -0.16)">
       <use xlink:href="#DejaVuSans-48"/>
       <use x="63.623047" xlink:href="#DejaVuSans-46"/>
       <use x="95.410156" xlink:href="#DejaVuSans-54"/>
      </g>
     </g>
    </g>
    <g id="ytick_5">
     <g id="line2d_29">
      <path clip-path="url(#pc1783134ee)" d="M 57.6 64.894099 
L 338.688 64.894099 
" style="fill:none;stroke:#b0b0b0;stroke-linecap:square;stroke-width:0.8;"/>
     </g>
     <g id="line2d_30">
      <g>
       <use style="stroke:#000000;stroke-width:0.8;" x="57.6" xlink:href="#m6cf6dcc86e" y="64.894099"/>
      </g>
     </g>
     <g id="text_10">
      <!-- 0.8 -->
      <defs>
       <path d="M 31.78125 34.625 
Q 24.75 34.625 20.71875 30.859375 
Q 16.703125 27.09375 16.703125 20.515625 
Q 16.703125 13.921875 20.71875 10.15625 
Q 24.75 6.390625 31.78125 6.390625 
Q 38.8125 6.390625 42.859375 10.171875 
Q 46.921875 13.96875 46.921875 20.515625 
Q 46.921875 27.09375 42.890625 30.859375 
Q 38.875 34.625 31.78125 34.625 
z
M 21.921875 38.8125 
Q 15.578125 40.375 12.03125 44.71875 
Q 8.5 49.078125 8.5 55.328125 
Q 8.5 64.0625 14.71875 69.140625 
Q 20.953125 74.21875 31.78125 74.21875 
Q 42.671875 74.21875 48.875 69.140625 
Q 55.078125 64.0625 55.078125 55.328125 
Q 55.078125 49.078125 51.53125 44.71875 
Q 48 40.375 41.703125 38.8125 
Q 48.828125 37.15625 52.796875 32.3125 
Q 56.78125 27.484375 56.78125 20.515625 
Q 56.78125 9.90625 50.3125 4.234375 
Q 43.84375 -1.421875 31.78125 -1.421875 
Q 19.734375 -1.421875 13.25 4.234375 
Q 6.78125 9.90625 6.78125 20.515625 
Q 6.78125 27.484375 10.78125 32.3125 
Q 14.796875 37.15625 21.921875 38.8125 
z
M 18.3125 54.390625 
Q 18.3125 48.734375 21.84375 45.5625 
Q 25.390625 42.390625 31.78125 42.390625 
Q 38.140625 42.390625 41.71875 45.5625 
Q 45.3125 48.734375 45.3125 54.390625 
Q 45.3125 60.0625 41.71875 63.234375 
Q 38.140625 66.40625 31.78125 66.40625 
Q 25.390625 66.40625 21.84375 63.234375 
Q 18.3125 60.0625 18.3125 54.390625 
z
" id="DejaVuSans-56"/>
      </defs>
      <g transform="translate(25.155 70.972849)scale(0.16 -0.16)">
       <use xlink:href="#DejaVuSans-48"/>
       <use x="63.623047" xlink:href="#DejaVuSans-46"/>
       <use x="95.410156" xlink:href="#DejaVuSans-56"/>
      </g>
     </g>
    </g>
    <g id="ytick_6">
     <g id="line2d_31">
      <path clip-path="url(#pc1783134ee)" d="M 57.6 6.381624 
L 338.688 6.381624 
" style="fill:none;stroke:#b0b0b0;stroke-linecap:square;stroke-width:0.8;"/>
     </g>
     <g id="line2d_32">
      <g>
       <use style="stroke:#000000;stroke-width:0.8;" x="57.6" xlink:href="#m6cf6dcc86e" y="6.381624"/>
      </g>
     </g>
     <g id="text_11">
      <!-- 1.0 -->
      <g transform="translate(25.155 12.460374)scale(0.16 -0.16)">
       <use xlink:href="#DejaVuSans-49"/>
       <use x="63.623047" xlink:href="#DejaVuSans-46"/>
       <use x="95.410156" xlink:href="#DejaVuSans-48"/>
      </g>
     </g>
    </g>
    <g id="text_12">
     <!-- Fraction of function,target pairs -->
     <defs>
      <path d="M 9.8125 72.90625 
L 51.703125 72.90625 
L 51.703125 64.59375 
L 19.671875 64.59375 
L 19.671875 43.109375 
L 48.578125 43.109375 
L 48.578125 34.8125 
L 19.671875 34.8125 
L 19.671875 0 
L 9.8125 0 
z
" id="DejaVuSans-70"/>
      <path d="M 41.109375 46.296875 
Q 39.59375 47.171875 37.8125 47.578125 
Q 36.03125 48 33.890625 48 
Q 26.265625 48 22.1875 43.046875 
Q 18.109375 38.09375 18.109375 28.8125 
L 18.109375 0 
L 9.078125 0 
L 9.078125 54.6875 
L 18.109375 54.6875 
L 18.109375 46.1875 
Q 20.953125 51.171875 25.484375 53.578125 
Q 30.03125 56 36.53125 56 
Q 37.453125 56 38.578125 55.875 
Q 39.703125 55.765625 41.0625 55.515625 
z
" id="DejaVuSans-114"/>
      <path d="M 48.78125 52.59375 
L 48.78125 44.1875 
Q 44.96875 46.296875 41.140625 47.34375 
Q 37.3125 48.390625 33.40625 48.390625 
Q 24.65625 48.390625 19.8125 42.84375 
Q 14.984375 37.3125 14.984375 27.296875 
Q 14.984375 17.28125 19.8125 11.734375 
Q 24.65625 6.203125 33.40625 6.203125 
Q 37.3125 6.203125 41.140625 7.25 
Q 44.96875 8.296875 48.78125 10.40625 
L 48.78125 2.09375 
Q 45.015625 0.34375 40.984375 -0.53125 
Q 36.96875 -1.421875 32.421875 -1.421875 
Q 20.0625 -1.421875 12.78125 6.34375 
Q 5.515625 14.109375 5.515625 27.296875 
Q 5.515625 40.671875 12.859375 48.328125 
Q 20.21875 56 33.015625 56 
Q 37.15625 56 41.109375 55.140625 
Q 45.0625 54.296875 48.78125 52.59375 
z
" id="DejaVuSans-99"/>
      <path d="M 18.3125 70.21875 
L 18.3125 54.6875 
L 36.8125 54.6875 
L 36.8125 47.703125 
L 18.3125 47.703125 
L 18.3125 18.015625 
Q 18.3125 11.328125 20.140625 9.421875 
Q 21.96875 7.515625 27.59375 7.515625 
L 36.8125 7.515625 
L 36.8125 0 
L 27.59375 0 
Q 17.1875 0 13.234375 3.875 
Q 9.28125 7.765625 9.28125 18.015625 
L 9.28125 47.703125 
L 2.6875 47.703125 
L 2.6875 54.6875 
L 9.28125 54.6875 
L 9.28125 70.21875 
z
" id="DejaVuSans-116"/>
      <path d="M 8.5 21.578125 
L 8.5 54.6875 
L 17.484375 54.6875 
L 17.484375 21.921875 
Q 17.484375 14.15625 20.5 10.265625 
Q 23.53125 6.390625 29.59375 6.390625 
Q 36.859375 6.390625 41.078125 11.03125 
Q 45.3125 15.671875 45.3125 23.6875 
L 45.3125 54.6875 
L 54.296875 54.6875 
L 54.296875 0 
L 45.3125 0 
L 45.3125 8.40625 
Q 42.046875 3.421875 37.71875 1 
Q 33.40625 -1.421875 27.6875 -1.421875 
Q 18.265625 -1.421875 13.375 4.4375 
Q 8.5 10.296875 8.5 21.578125 
z
M 31.109375 56 
z
" id="DejaVuSans-117"/>
      <path d="M 11.71875 12.40625 
L 22.015625 12.40625 
L 22.015625 4 
L 14.015625 -11.625 
L 7.71875 -11.625 
L 11.71875 4 
z
" id="DejaVuSans-44"/>
      <path d="M 18.109375 8.203125 
L 18.109375 -20.796875 
L 9.078125 -20.796875 
L 9.078125 54.6875 
L 18.109375 54.6875 
L 18.109375 46.390625 
Q 20.953125 51.265625 25.265625 53.625 
Q 29.59375 56 35.59375 56 
Q 45.5625 56 51.78125 48.09375 
Q 58.015625 40.1875 58.015625 27.296875 
Q 58.015625 14.40625 51.78125 6.484375 
Q 45.5625 -1.421875 35.59375 -1.421875 
Q 29.59375 -1.421875 25.265625 0.953125 
Q 20.953125 3.328125 18.109375 8.203125 
z
M 48.6875 27.296875 
Q 48.6875 37.203125 44.609375 42.84375 
Q 40.53125 48.484375 33.40625 48.484375 
Q 26.265625 48.484375 22.1875 42.84375 
Q 18.109375 37.203125 18.109375 27.296875 
Q 18.109375 17.390625 22.1875 11.75 
Q 26.265625 6.109375 33.40625 6.109375 
Q 40.53125 6.109375 44.609375 11.75 
Q 48.6875 17.390625 48.6875 27.296875 
z
" id="DejaVuSans-112"/>
     </defs>
     <g transform="translate(17.619531 285.585)rotate(-90)scale(0.17 -0.17)">
      <use xlink:href="#DejaVuSans-70"/>
      <use x="50.269531" xlink:href="#DejaVuSans-114"/>
      <use x="91.382812" xlink:href="#DejaVuSans-97"/>
      <use x="152.662109" xlink:href="#DejaVuSans-99"/>
      <use x="207.642578" xlink:href="#DejaVuSans-116"/>
      <use x="246.851562" xlink:href="#DejaVuSans-105"/>
      <use x="274.634766" xlink:href="#DejaVuSans-111"/>
      <use x="335.816406" xlink:href="#DejaVuSans-110"/>
      <use x="399.195312" xlink:href="#DejaVuSans-32"/>
      <use x="430.982422" xlink:href="#DejaVuSans-111"/>
      <use x="492.164062" xlink:href="#DejaVuSans-102"/>
      <use x="527.369141" xlink:href="#DejaVuSans-32"/>
      <use x="559.15625" xlink:href="#DejaVuSans-102"/>
      <use x="594.361328" xlink:href="#DejaVuSans-117"/>
      <use x="657.740234" xlink:href="#DejaVuSans-110"/>
      <use x="721.119141" xlink:href="#DejaVuSans-99"/>
      <use x="776.099609" xlink:href="#DejaVuSans-116"/>
      <use x="815.308594" xlink:href="#DejaVuSans-105"/>
      <use x="843.091797" xlink:href="#DejaVuSans-111"/>
      <use x="904.273438" xlink:href="#DejaVuSans-110"/>
      <use x="967.652344" xlink:href="#DejaVuSans-44"/>
      <use x="999.439453" xlink:href="#DejaVuSans-116"/>
      <use x="1038.648438" xlink:href="#DejaVuSans-97"/>
      <use x="1099.927734" xlink:href="#DejaVuSans-114"/>
      <use x="1139.291016" xlink:href="#DejaVuSans-103"/>
      <use x="1202.767578" xlink:href="#DejaVuSans-101"/>
      <use x="1264.291016" xlink:href="#DejaVuSans-116"/>
      <use x="1303.5" xlink:href="#DejaVuSans-32"/>
      <use x="1335.287109" xlink:href="#DejaVuSans-112"/>
      <use x="1398.763672" xlink:href="#DejaVuSans-97"/>
      <use x="1460.042969" xlink:href="#DejaVuSans-105"/>
      <use x="1487.826172" xlink:href="#DejaVuSans-114"/>
      <use x="1528.939453" xlink:href="#DejaVuSans-115"/>
     </g>
    </g>
   </g>
   <g id="line2d_33">
    <defs>
     <path d="M 0 1.5 
C 0.397805 1.5 0.77937 1.341951 1.06066 1.06066 
C 1.341951 0.77937 1.5 0.397805 1.5 0 
C 1.5 -0.397805 1.341951 -0.77937 1.06066 -1.06066 
C 0.77937 -1.341951 0.397805 -1.5 0 -1.5 
C -0.397805 -1.5 -0.77937 -1.341951 -1.06066 -1.06066 
C -1.341951 -0.77937 -1.5 -0.397805 -1.5 0 
C -1.5 0.397805 -1.341951 0.77937 -1.06066 1.06066 
C -0.77937 1.341951 -0.397805 1.5 0 1.5 
z
" id="m5b318d5db5" style="stroke:#f5deb3;"/>
    </defs>
    <g>
     <use style="fill:#f5deb3;stroke:#f5deb3;" x="156.144725" xlink:href="#m5b318d5db5" y="6.381624"/>
     <use style="fill:#f5deb3;stroke:#f5deb3;" x="156.144725" xlink:href="#m5b318d5db5" y="6.381624"/>
    </g>
   </g>
   <g id="line2d_34">
    <defs>
     <path d="M 0 1.5 
C 0.397805 1.5 0.77937 1.341951 1.06066 1.06066 
C 1.341951 0.77937 1.5 0.397805 1.5 0 
C 1.5 -0.397805 1.341951 -0.77937 1.06066 -1.06066 
C 0.77937 -1.341951 0.397805 -1.5 0 -1.5 
C -0.397805 -1.5 -0.77937 -1.341951 -1.06066 -1.06066 
C -1.341951 -0.77937 -1.5 -0.397805 -1.5 0 
C -1.5 0.397805 -1.341951 0.77937 -1.06066 1.06066 
C -0.77937 1.341951 -0.397805 1.5 0 1.5 
z
" id="m77a3a833f1" style="stroke:#000080;"/>
    </defs>
    <g>
     <use style="fill:#000080;stroke:#000080;" x="178.649364" xlink:href="#m77a3a833f1" y="165.856801"/>
     <use style="fill:#000080;stroke:#000080;" x="178.649364" xlink:href="#m77a3a833f1" y="165.856801"/>
    </g>
   </g>
   <g id="line2d_35">
    <path d="M 45.512012 298.944 
L 45.512012 289.306651 
L 57.6 289.306651 
L 57.6 284.946898 
L 64.67102 284.946898 
L 64.67102 282.881752 
L 69.687988 282.881752 
L 69.687988 281.504988 
L 73.579452 281.504988 
L 73.579452 280.701875 
L 76.759008 280.701875 
L 76.759008 245.938581 
L 79.447285 245.938581 
L 79.447285 239.169491 
L 81.775977 239.169491 
L 81.775977 233.891895 
L 83.830028 233.891895 
L 83.830028 229.761603 
L 85.66744 229.761603 
L 85.66744 227.237535 
L 87.329581 227.237535 
L 87.329581 223.221973 
L 88.846997 223.221973 
L 88.846997 218.173838 
L 90.242884 218.173838 
L 90.242884 211.9784 
L 91.535274 211.9784 
L 91.535274 207.159725 
L 92.73846 207.159725 
L 92.73846 206.127152 
L 93.863965 206.127152 
L 93.863965 204.865118 
L 94.921215 204.865118 
L 94.921215 204.750388 
L 95.918017 204.750388 
L 95.918017 203.832545 
L 96.86091 203.832545 
L 96.86091 203.258893 
L 97.755429 203.258893 
L 97.755429 201.99686 
L 98.606294 201.99686 
L 98.606294 201.423208 
L 99.41757 201.423208 
L 99.41757 196.948725 
L 100.192776 196.948725 
L 100.192776 196.719264 
L 100.934985 196.719264 
L 100.934985 192.13005 
L 101.646892 192.13005 
L 101.646892 191.900589 
L 105.398279 191.900589 
L 105.398279 191.212207 
L 106.48859 191.212207 
L 106.48859 190.638556 
L 108.006005 190.638556 
L 108.006005 190.294365 
L 108.483824 190.294365 
L 108.483824 190.179634 
L 108.948899 190.179634 
L 108.948899 189.032331 
L 109.401893 189.032331 
L 109.401893 187.196645 
L 109.843417 187.196645 
L 109.843417 186.967185 
L 110.274038 186.967185 
L 110.274038 186.508263 
L 111.104637 186.508263 
L 111.104637 185.934612 
L 111.505558 185.934612 
L 111.505558 185.819881 
L 111.897469 185.819881 
L 111.897469 184.557847 
L 112.280765 184.557847 
L 112.280765 184.443117 
L 112.655818 184.443117 
L 112.655818 183.984196 
L 113.022974 183.984196 
L 113.022974 183.640005 
L 113.382559 183.640005 
L 113.382559 182.836892 
L 113.73488 182.836892 
L 113.73488 182.607432 
L 116.323218 182.607432 
L 116.323218 182.377971 
L 117.202696 182.377971 
L 117.202696 182.263241 
L 117.765302 182.263241 
L 117.765302 181.91905 
L 118.039942 181.91905 
L 118.039942 180.886476 
L 118.310324 180.886476 
L 118.310324 180.542285 
L 118.576578 180.542285 
L 118.576578 180.427555 
L 119.097192 180.427555 
L 119.097192 180.198094 
L 119.602714 180.198094 
L 119.602714 179.853903 
L 120.33454 179.853903 
L 120.33454 179.739173 
L 120.571812 179.739173 
L 120.571812 179.509712 
L 122.573415 179.509712 
L 122.573415 179.394982 
L 123.394238 179.394982 
L 123.394238 179.280252 
L 123.790603 179.280252 
L 123.790603 178.7066 
L 123.985457 178.7066 
L 123.985457 178.59187 
L 124.178158 178.59187 
L 124.178158 178.362409 
L 124.557288 178.362409 
L 124.557288 177.788757 
L 124.743806 177.788757 
L 124.743806 177.674027 
L 124.92835 177.674027 
L 124.92835 177.329836 
L 125.291682 177.329836 
L 125.291682 177.100375 
L 125.470548 177.100375 
L 125.470548 176.985645 
L 125.647598 176.985645 
L 125.647598 176.756184 
L 125.822869 176.756184 
L 125.822869 176.641454 
L 127.165014 176.641454 
L 127.165014 176.067802 
L 127.48501 176.067802 
L 127.48501 175.953072 
L 127.642832 175.953072 
L 127.642832 175.838341 
L 128.107907 175.838341 
L 128.107907 175.723611 
L 128.260216 175.723611 
L 128.260216 175.49415 
L 129.002426 175.49415 
L 129.002426 175.26469 
L 129.290685 175.26469 
L 129.290685 175.035229 
L 129.433047 175.035229 
L 129.433047 174.920499 
L 129.714332 174.920499 
L 129.714332 174.805768 
L 131.565689 174.805768 
L 131.565689 174.691038 
L 131.690703 174.691038 
L 131.690703 174.576308 
L 131.814826 174.576308 
L 131.814826 174.461577 
L 132.060454 174.461577 
L 132.060454 174.117386 
L 132.30267 174.117386 
L 132.30267 173.773195 
L 132.541568 173.773195 
L 132.541568 173.658465 
L 132.659801 173.658465 
L 132.659801 173.543734 
L 132.893889 173.543734 
L 132.893889 173.429004 
L 133.800029 173.429004 
L 133.800029 173.084813 
L 134.019394 173.084813 
L 134.019394 172.970083 
L 134.450015 172.970083 
L 134.450015 172.625892 
L 134.870259 172.625892 
L 134.870259 172.511161 
L 135.076644 172.511161 
L 135.076644 172.396431 
L 135.381712 172.396431 
L 135.381712 172.281701 
L 137.107884 172.281701 
L 137.107884 172.16697 
L 137.469333 172.16697 
L 137.469333 172.05224 
L 137.735587 172.05224 
L 137.735587 171.93751 
L 137.910857 171.93751 
L 137.910857 171.822779 
L 138.594838 171.822779 
L 138.594838 171.708049 
L 139.090775 171.708049 
L 139.172077 171.478588 
L 139.413734 171.478588 
L 139.413734 171.019667 
L 139.572998 171.019667 
L 139.572998 170.904937 
L 141.45 170.904937 
L 141.45 170.675476 
L 141.732423 170.675476 
L 141.732423 170.560745 
L 142.351634 170.560745 
L 142.351634 170.446015 
L 143.014805 170.446015 
L 143.014805 170.331285 
L 143.144465 170.331285 
L 143.144465 169.872363 
L 144.688773 169.872363 
L 144.688773 169.642903 
L 144.923649 169.642903 
L 144.923649 169.528172 
L 145.888018 169.528172 
L 145.888018 169.413442 
L 146.324022 169.413442 
L 146.324022 169.298712 
L 147.620256 169.298712 
L 147.620256 169.183981 
L 148.064279 169.183981 
L 148.064279 169.069251 
L 148.826773 169.069251 
L 148.826773 168.954521 
L 149.241465 168.954521 
L 149.241465 168.83979 
L 149.779481 168.83979 
L 149.779481 168.72506 
L 150.766468 168.72506 
L 150.766468 168.61033 
L 151.381313 168.61033 
L 151.381313 168.495599 
L 151.975216 168.495599 
L 151.975216 168.380869 
L 152.360205 168.380869 
L 152.360205 168.266139 
L 153.287059 168.266139 
L 153.287059 168.151408 
L 153.820412 168.151408 
L 153.820412 168.036678 
L 154.167129 168.036678 
L 154.167129 167.807217 
L 154.57429 167.807217 
L 154.57429 167.692487 
L 155.004911 167.692487 
L 155.004911 167.463026 
L 155.329071 167.463026 
L 155.329071 167.233566 
L 155.55245 167.233566 
L 155.55245 167.118835 
L 156.114049 167.118835 
L 156.114049 167.004105 
L 156.865211 167.004105 
L 156.865211 166.889374 
L 157.300853 166.889374 
L 157.300853 166.774644 
L 158.465753 166.774644 
L 158.465753 166.659914 
L 158.67908 166.659914 
L 158.67908 166.545183 
L 163.808326 166.545183 
L 163.808326 166.430453 
L 164.004716 166.430453 
L 164.004716 166.315723 
L 164.524182 166.315723 
L 164.524182 166.200992 
L 174.637316 166.200992 
L 174.637316 166.086262 
L 176.894213 166.086262 
L 176.894213 165.971532 
L 178.649364 165.971532 
L 178.649364 165.856801 
L 338.688 165.856801 
L 338.688 165.856801 
" style="fill:none;stroke:#000080;stroke-linecap:square;stroke-width:1.5;"/>
   </g>
   <g id="line2d_36">
    <defs>
     <path d="M 0 6 
C 1.591219 6 3.117479 5.367802 4.242641 4.242641 
C 5.367802 3.117479 6 1.591219 6 0 
C 6 -1.591219 5.367802 -3.117479 4.242641 -4.242641 
C 3.117479 -5.367802 1.591219 -6 0 -6 
C -1.591219 -6 -3.117479 -5.367802 -4.242641 -4.242641 
C -5.367802 -3.117479 -6 -1.591219 -6 0 
C -6 1.591219 -5.367802 3.117479 -4.242641 4.242641 
C -3.117479 5.367802 -1.591219 6 0 6 
z
" id="m17010496f7" style="stroke:#000080;stroke-width:1.5;"/>
    </defs>
    <g>
     <use style="fill-opacity:0;stroke:#000080;stroke-width:1.5;" x="83.830028" xlink:href="#m17010496f7" y="233.891895"/>
     <use style="fill-opacity:0;stroke:#000080;stroke-width:1.5;" x="120.571812" xlink:href="#m17010496f7" y="179.739173"/>
     <use style="fill-opacity:0;stroke:#000080;stroke-width:1.5;" x="178.649364" xlink:href="#m17010496f7" y="165.971532"/>
     <use style="fill-opacity:0;stroke:#000080;stroke-width:1.5;" x="178.649364" xlink:href="#m17010496f7" y="165.856801"/>
     <use style="fill-opacity:0;stroke:#000080;stroke-width:1.5;" x="178.649364" xlink:href="#m17010496f7" y="165.856801"/>
     <use style="fill-opacity:0;stroke:#000080;stroke-width:1.5;" x="338.688" xlink:href="#m17010496f7" y="165.856801"/>
    </g>
   </g>
   <g id="line2d_37">
    <path style="fill:none;stroke:#000080;stroke-linecap:square;stroke-width:1.5;"/>
    <g/>
   </g>
   <g id="line2d_38">
    <path clip-path="url(#pc1783134ee)" d="M 101.646892 191.900589 
" style="fill:none;stroke:#000080;stroke-linecap:square;stroke-width:1.5;"/>
    <defs>
     <path d="M -12 12 
L 12 -12 
M -12 -12 
L 12 12 
" id="m25146c1982" style="stroke:#000080;"/>
    </defs>
    <g clip-path="url(#pc1783134ee)">
     <use style="fill:#000080;stroke:#000080;" x="101.646892" xlink:href="#m25146c1982" y="191.900589"/>
    </g>
   </g>
   <g id="line2d_39">
    <defs>
     <path d="M 0 1.5 
C 0.397805 1.5 0.77937 1.341951 1.06066 1.06066 
C 1.341951 0.77937 1.5 0.397805 1.5 0 
C 1.5 -0.397805 1.341951 -0.77937 1.06066 -1.06066 
C 0.77937 -1.341951 0.397805 -1.5 0 -1.5 
C -0.397805 -1.5 -0.77937 -1.341951 -1.06066 -1.06066 
C -1.341951 -0.77937 -1.5 -0.397805 -1.5 0 
C -1.5 0.397805 -1.341951 0.77937 -1.06066 1.06066 
C -0.77937 1.341951 -0.397805 1.5 0 1.5 
z
" id="m8f09f8545a" style="stroke:#ff00ff;"/>
    </defs>
    <g>
     <use style="fill:#ff00ff;stroke:#ff00ff;" x="229.585076" xlink:href="#m8f09f8545a" y="61.452189"/>
     <use style="fill:#ff00ff;stroke:#ff00ff;" x="229.585076" xlink:href="#m8f09f8545a" y="61.452189"/>
    </g>
   </g>
   <g id="line2d_40">
    <path d="M 45.512012 298.944 
L 45.512012 284.373246 
L 94.921215 284.373246 
L 94.921215 284.143786 
L 96.86091 284.143786 
L 96.86091 284.029055 
L 97.755429 284.029055 
L 97.755429 283.799595 
L 98.606294 283.799595 
L 98.606294 283.684864 
L 99.41757 283.684864 
L 99.41757 283.570134 
L 100.192776 283.570134 
L 100.192776 283.340673 
L 102.989037 283.340673 
L 102.989037 282.996482 
L 103.623262 282.996482 
L 103.623262 281.619718 
L 104.23523 281.619718 
L 104.23523 281.504988 
L 104.826449 281.504988 
L 104.826449 281.390257 
L 105.398279 281.390257 
L 105.398279 280.816606 
L 105.951954 280.816606 
L 105.951954 280.701875 
L 106.48859 280.701875 
L 106.48859 280.013493 
L 107.009204 280.013493 
L 107.009204 279.669302 
L 107.514726 279.669302 
L 107.514726 276.571583 
L 108.006005 276.571583 
L 108.006005 275.997931 
L 108.483824 275.997931 
L 108.483824 274.047515 
L 108.948899 274.047515 
L 108.948899 272.32656 
L 109.401893 272.32656 
L 109.401893 268.425729 
L 109.843417 268.425729 
L 109.843417 245.938581 
L 110.274038 245.938581 
L 110.274038 245.36493 
L 110.694282 245.36493 
L 110.694282 245.250199 
L 111.104637 245.250199 
L 111.104637 244.447087 
L 111.505558 244.447087 
L 111.505558 243.643974 
L 111.897469 243.643974 
L 111.897469 243.070323 
L 112.280765 243.070323 
L 112.280765 241.808289 
L 112.655818 241.808289 
L 112.655818 233.203513 
L 113.022974 233.203513 
L 113.022974 232.859322 
L 113.382559 232.859322 
L 113.382559 232.629861 
L 113.73488 232.629861 
L 113.73488 232.400401 
L 114.080224 232.400401 
L 114.080224 231.941479 
L 114.418861 231.941479 
L 114.418861 231.367828 
L 114.751048 231.367828 
L 114.751048 230.220524 
L 115.077025 230.220524 
L 115.077025 229.302681 
L 115.397021 229.302681 
L 115.397021 228.95849 
L 115.711251 228.95849 
L 115.711251 228.84376 
L 116.019919 228.84376 
L 116.019919 228.614299 
L 116.323218 228.614299 
L 116.323218 226.778614 
L 116.621333 226.778614 
L 116.621333 225.860771 
L 116.914437 225.860771 
L 116.914437 225.51658 
L 117.202696 225.51658 
L 117.202696 224.713468 
L 117.486268 224.713468 
L 117.486268 224.025086 
L 117.765302 224.025086 
L 117.765302 223.336704 
L 118.039942 223.336704 
L 118.039942 223.221973 
L 118.310324 223.221973 
L 118.310324 222.07467 
L 118.576578 222.07467 
L 118.576578 221.959939 
L 118.838828 221.959939 
L 118.838828 221.386288 
L 119.097192 221.386288 
L 119.097192 221.156827 
L 119.351785 221.156827 
L 119.351785 220.353715 
L 119.602714 220.353715 
L 119.602714 219.550602 
L 119.850084 219.550602 
L 119.850084 219.091681 
L 120.093994 219.091681 
L 120.093994 218.74749 
L 120.33454 218.74749 
L 120.33454 217.829647 
L 120.571812 217.829647 
L 120.571812 217.255995 
L 120.8059 217.255995 
L 120.8059 216.452883 
L 121.036887 216.452883 
L 121.036887 215.879231 
L 121.264855 215.879231 
L 121.264855 215.305579 
L 121.489881 215.305579 
L 121.489881 214.731928 
L 121.712041 214.731928 
L 121.712041 213.699355 
L 121.931406 213.699355 
L 121.931406 213.355164 
L 122.148045 213.355164 
L 122.148045 212.666782 
L 122.362027 212.666782 
L 122.362027 211.9784 
L 122.573415 211.9784 
L 122.573415 211.748939 
L 122.782271 211.748939 
L 122.782271 211.060557 
L 122.988655 211.060557 
L 122.988655 209.913253 
L 123.192626 209.913253 
L 123.192626 209.110141 
L 123.394238 209.110141 
L 123.394238 208.421759 
L 123.593547 208.421759 
L 123.593547 207.044995 
L 123.790603 207.044995 
L 123.790603 206.815534 
L 123.985457 206.815534 
L 123.985457 206.586073 
L 124.178158 206.586073 
L 124.178158 206.241882 
L 124.368753 206.241882 
L 124.368753 205.32404 
L 124.557288 205.32404 
L 124.557288 204.406197 
L 124.743806 204.406197 
L 124.743806 202.799972 
L 124.92835 202.799972 
L 124.92835 201.767399 
L 125.110962 201.767399 
L 125.110962 201.308478 
L 125.291682 201.308478 
L 125.291682 200.620096 
L 125.470548 200.620096 
L 125.470548 199.587522 
L 125.647598 199.587522 
L 125.647598 198.66968 
L 125.822869 198.66968 
L 125.822869 198.325489 
L 125.996395 198.325489 
L 125.996395 195.916151 
L 126.168212 195.916151 
L 126.168212 195.45723 
L 126.338353 195.45723 
L 126.338353 194.424657 
L 126.50685 194.424657 
L 126.50685 193.162623 
L 126.673734 193.162623 
L 126.673734 192.24478 
L 126.839037 192.24478 
L 126.839037 191.556398 
L 127.002787 191.556398 
L 127.002787 190.409095 
L 127.165014 190.409095 
L 127.165014 189.147061 
L 127.325746 189.147061 
L 127.325746 187.426106 
L 127.48501 187.426106 
L 127.48501 186.622994 
L 127.642832 186.622994 
L 127.642832 185.590421 
L 127.799239 185.590421 
L 127.799239 183.869465 
L 127.954256 183.869465 
L 127.954256 182.951623 
L 128.107907 182.951623 
L 128.107907 181.460128 
L 128.260216 181.460128 
L 128.260216 180.312825 
L 128.411207 180.312825 
L 128.411207 179.050791 
L 128.560901 179.050791 
L 128.560901 178.132948 
L 128.709321 178.132948 
L 128.709321 176.641454 
L 128.856489 176.641454 
L 128.856489 176.297263 
L 129.002426 176.297263 
L 129.002426 174.805768 
L 129.147151 174.805768 
L 129.147151 174.576308 
L 129.290685 174.576308 
L 129.290685 172.281701 
L 129.433047 172.281701 
L 129.433047 170.446015 
L 129.574256 170.446015 
L 129.574256 170.216554 
L 129.714332 170.216554 
L 129.714332 168.83979 
L 129.853291 168.83979 
L 129.853291 168.036678 
L 129.991152 168.036678 
L 129.991152 167.233566 
L 130.127931 167.233566 
L 130.127931 166.659914 
L 130.263646 166.659914 
L 130.263646 164.594768 
L 130.398313 164.594768 
L 130.398313 162.988543 
L 130.531948 162.988543 
L 130.531948 160.464475 
L 130.664567 160.464475 
L 130.664567 159.431902 
L 130.796184 159.431902 
L 130.796184 159.087711 
L 130.926816 159.087711 
L 130.926816 158.284599 
L 131.056477 158.284599 
L 131.056477 157.710947 
L 131.185181 157.710947 
L 131.185181 156.907835 
L 131.312942 156.907835 
L 131.312942 155.875262 
L 131.439773 155.875262 
L 131.439773 154.957419 
L 131.565689 154.957419 
L 131.565689 154.039576 
L 131.690703 154.039576 
L 131.690703 153.351194 
L 131.814826 153.351194 
L 131.814826 152.662812 
L 131.938072 152.662812 
L 131.938072 151.859699 
L 132.060454 151.859699 
L 132.060454 151.515508 
L 132.181982 151.515508 
L 132.181982 150.368205 
L 132.30267 150.368205 
L 132.30267 149.794553 
L 132.422528 149.794553 
L 132.422528 148.188328 
L 132.541568 148.188328 
L 132.541568 147.041025 
L 132.659801 147.041025 
L 132.659801 140.042474 
L 132.777237 140.042474 
L 132.777237 139.354092 
L 132.893889 139.354092 
L 132.893889 138.436249 
L 133.009765 138.436249 
L 133.009765 138.092058 
L 133.124876 138.092058 
L 133.124876 137.403676 
L 133.239232 137.403676 
L 133.239232 136.944755 
L 133.352844 136.944755 
L 133.352844 136.485833 
L 133.46572 136.485833 
L 133.46572 132.12608 
L 133.57787 132.12608 
L 133.57787 131.208238 
L 133.689303 131.208238 
L 133.800029 125.35699 
L 133.910056 125.35699 
L 134.019394 122.374001 
L 134.12805 122.374001 
L 134.236034 121.800349 
L 134.343353 121.800349 
L 134.450015 121.226698 
L 134.55603 121.226698 
L 134.661403 120.194125 
L 134.766144 120.194125 
L 134.870259 119.735203 
L 134.973757 119.735203 
L 135.076644 118.932091 
L 135.178927 118.932091 
L 135.280614 118.5879 
L 135.381712 118.5879 
L 135.482227 117.440596 
L 135.681535 117.440596 
L 135.780341 116.752214 
L 135.878591 116.752214 
L 135.878591 116.408023 
L 136.170062 116.408023 
L 136.170062 115.834372 
L 136.361705 115.834372 
L 136.456742 115.490181 
L 136.551264 115.490181 
L 136.551264 115.26072 
L 136.738785 115.26072 
L 136.831795 114.687068 
L 136.924311 114.687068 
L 137.016339 114.457607 
L 137.107884 114.457607 
L 137.107884 113.998686 
L 137.289545 113.998686 
L 137.37967 113.769225 
L 137.558536 113.769225 
L 137.647286 113.310304 
L 137.910857 113.310304 
L 137.997836 112.966113 
L 138.084384 112.966113 
L 138.170504 112.621922 
L 138.510793 112.621922 
L 138.510793 112.507192 
L 139.413734 112.507192 
L 139.413734 112.277731 
L 139.730821 112.277731 
L 139.730821 112.163001 
L 140.042245 112.163001 
L 140.11924 111.93354 
L 140.348205 111.93354 
L 140.348205 111.704079 
L 140.723258 111.704079 
L 140.723258 111.474619 
L 140.871049 111.474619 
L 140.871049 111.359888 
L 141.017599 111.359888 
L 141.017599 111.245158 
L 141.162927 111.245158 
L 141.235139 111.015697 
L 141.307054 111.015697 
L 141.307054 110.671506 
L 141.521035 110.671506 
L 141.521035 110.442045 
L 142.010346 110.442045 
L 142.010346 109.524203 
L 142.884173 109.524203 
L 142.884173 109.294742 
L 143.014805 109.294742 
L 143.079756 108.835821 
L 143.273169 108.835821 
L 143.273169 108.72109 
L 143.40093 108.72109 
L 143.40093 108.49163 
L 143.527762 108.49163 
L 143.527762 108.376899 
L 143.653678 108.376899 
L 143.653678 108.262169 
L 144.087359 108.262169 
L 144.087359 108.147439 
L 144.209312 108.147439 
L 144.209312 108.032708 
L 144.510517 108.032708 
L 144.510517 107.917978 
L 144.865226 107.917978 
L 144.923649 107.688517 
L 145.155404 107.688517 
L 145.155404 107.573787 
L 145.327221 107.573787 
L 145.327221 107.459056 
L 145.609873 107.459056 
L 145.609873 107.344326 
L 146.161795 107.344326 
L 146.216039 107.114865 
L 146.644018 107.114865 
L 146.644018 106.885405 
L 147.419225 106.885405 
L 147.419225 106.770674 
L 148.826773 106.770674 
L 148.826773 106.655944 
L 148.966103 106.655944 
L 149.058374 106.311753 
L 149.286939 106.311753 
L 149.377533 106.082292 
L 149.467659 106.082292 
L 149.467659 105.852832 
L 149.646525 105.852832 
L 149.646525 105.738101 
L 149.867558 105.738101 
L 149.955193 105.049719 
L 150.042389 105.049719 
L 150.129152 104.705528 
L 150.215485 104.705528 
L 150.215485 104.476068 
L 150.38688 104.476068 
L 150.38688 104.246607 
L 150.598782 104.246607 
L 150.682827 103.787685 
L 150.724698 103.787685 
L 150.724698 103.672955 
L 150.932558 103.672955 
L 150.973835 103.214034 
L 152.168773 103.214034 
L 152.168773 103.099303 
L 153.890309 103.099303 
L 153.890309 102.984573 
L 154.303908 102.984573 
L 154.371897 102.640382 
L 154.57429 102.640382 
L 154.674612 102.410921 
L 154.707925 102.410921 
L 154.707925 102.296191 
L 155.004911 102.296191 
L 155.004911 102.181461 
L 155.773004 102.181461 
L 155.773004 102.06673 
L 156.083319 102.06673 
L 156.114049 101.83727 
L 156.266892 101.83727 
L 156.327657 101.607809 
L 156.776762 101.607809 
L 156.776762 101.493079 
L 157.1279 101.493079 
L 157.214591 101.263618 
L 158.412011 101.263618 
L 158.412011 101.148888 
L 158.546057 101.148888 
L 158.546057 101.034157 
L 158.889829 101.034157 
L 158.889829 100.919427 
L 161.26102 100.919427 
L 161.26102 100.804697 
L 161.88953 100.804697 
L 161.88953 100.575236 
L 162.086834 100.575236 
L 162.10862 100.345775 
L 162.260361 100.345775 
L 162.346481 100.116315 
L 162.474869 100.116315 
L 162.581141 99.657393 
L 162.602318 99.657393 
L 162.665696 99.313202 
L 162.728843 99.313202 
L 162.770815 98.969011 
L 162.854457 98.969011 
L 162.854457 98.854281 
L 162.979172 98.854281 
L 163.082425 98.395359 
L 163.123555 98.395359 
L 163.185069 98.165899 
L 163.489428 98.165899 
L 163.489428 98.051168 
L 164.787563 98.051168 
L 164.806225 97.821708 
L 166.306535 97.821708 
L 166.306535 97.706977 
L 166.729224 97.706977 
L 166.729224 97.592247 
L 168.671556 97.592247 
L 168.671556 97.477517 
L 169.560096 97.477517 
L 169.630959 97.133326 
L 169.841835 97.133326 
L 169.939378 96.674404 
L 170.036379 96.674404 
L 170.077786 96.215483 
L 170.160306 96.215483 
L 170.256089 95.756561 
L 170.296979 95.756561 
L 170.364915 95.41237 
L 170.607318 95.41237 
L 170.647393 95.18291 
L 170.727268 95.18291 
L 170.780315 94.609258 
L 170.872762 94.609258 
L 170.951613 94.379797 
L 171.121244 94.379797 
L 171.121244 94.265067 
L 172.167033 94.265067 
L 172.167033 94.150337 
L 173.14208 94.150337 
L 173.14208 94.035606 
L 174.348349 94.035606 
L 174.348349 93.920876 
L 174.858804 93.920876 
L 174.900675 93.691415 
L 174.984116 93.691415 
L 175.046437 93.347224 
L 175.160115 93.347224 
L 175.20127 93.117764 
L 175.334356 93.117764 
L 175.405599 92.888303 
L 175.496772 92.888303 
L 175.577416 92.658842 
L 175.697687 92.658842 
L 175.697687 92.544112 
L 175.836964 92.544112 
L 175.836964 92.314651 
L 177.758396 92.314651 
L 177.758396 92.199921 
L 178.674645 92.199921 
L 178.725096 91.97046 
L 178.908845 91.97046 
L 179.01652 91.511539 
L 179.033027 91.511539 
L 179.049518 91.167348 
L 179.172706 91.167348 
L 179.238053 90.708426 
L 179.303155 90.708426 
L 179.376106 90.478966 
L 179.561161 90.478966 
L 179.656938 89.905314 
L 179.67285 89.905314 
L 179.67285 89.790584 
L 179.878392 89.790584 
L 179.878392 89.675853 
L 180.003686 89.675853 
L 180.08154 89.446393 
L 181.055886 89.446393 
L 181.055886 89.331662 
L 182.110543 89.331662 
L 182.117457 89.102202 
L 182.227701 89.102202 
L 182.30993 88.64328 
L 182.364534 88.64328 
L 182.459683 88.413819 
L 182.547572 88.413819 
L 182.601439 88.069628 
L 182.735382 88.069628 
L 182.74872 87.840168 
L 184.713659 87.840168 
L 184.808696 87.495977 
L 185.067409 87.495977 
L 185.067409 87.381246 
L 185.212713 87.381246 
L 185.293557 86.807595 
L 185.522497 86.807595 
L 185.522497 86.692864 
L 187.103293 86.692864 
L 187.103293 86.578134 
L 187.248104 86.578134 
L 187.248104 86.463404 
L 187.401936 86.463404 
L 187.442729 86.119213 
L 187.513889 86.119213 
L 187.59991 85.889752 
L 187.790669 85.889752 
L 187.895201 85.660291 
L 188.058209 85.660291 
L 188.058209 85.545561 
L 188.258635 85.545561 
L 188.258635 85.430831 
L 188.389375 85.430831 
L 188.389375 85.3161 
L 189.273518 85.3161 
L 189.273518 85.20137 
L 189.428738 85.20137 
L 189.537479 84.627718 
L 189.569068 84.627718 
L 189.569068 84.512988 
L 189.846385 84.512988 
L 189.921659 84.054066 
L 191.158099 84.054066 
L 191.174555 83.824606 
L 191.472181 83.824606 
L 191.568932 83.480415 
L 191.609087 83.480415 
L 191.661151 83.136224 
L 192.270222 83.136224 
L 192.285662 82.906763 
L 192.708753 82.906763 
L 192.708753 82.792033 
L 192.907206 82.792033 
L 192.948112 82.562572 
L 193.1255 82.562572 
L 193.209863 82.103651 
L 193.286536 82.103651 
L 193.355617 81.300538 
L 193.442487 81.300538 
L 193.442487 81.185808 
L 194.397918 81.185808 
L 194.469552 80.956347 
L 194.523933 80.956347 
L 194.527326 80.726886 
L 194.645673 80.726886 
L 194.672612 80.382695 
L 194.773262 80.382695 
L 194.876661 79.923774 
L 195.186495 79.923774 
L 195.186495 79.809044 
L 195.897095 79.809044 
L 196.000295 79.464853 
L 196.146232 79.464853 
L 196.238748 79.005931 
L 196.413188 79.005931 
L 196.413188 78.891201 
L 196.985314 78.891201 
L 196.985314 78.776471 
L 197.216572 78.776471 
L 197.216572 78.66174 
L 197.329617 78.66174 
L 197.427575 78.202819 
L 197.550679 78.202819 
L 197.567788 77.973358 
L 197.828038 77.973358 
L 197.828038 77.858628 
L 198.164516 77.858628 
L 198.164516 77.743897 
L 198.277072 77.743897 
L 198.277072 77.629167 
L 198.456748 77.629167 
L 198.456748 77.514437 
L 198.57013 77.514437 
L 198.669408 77.055515 
L 198.701485 77.055515 
L 198.701485 76.940785 
L 198.821252 76.940785 
L 198.874219 76.711324 
L 199.173095 76.711324 
L 199.173095 76.596594 
L 199.284512 76.596594 
L 199.284512 76.481864 
L 199.581576 76.481864 
L 199.690422 76.137673 
L 199.725714 76.137673 
L 199.823652 75.449291 
L 200.276004 75.449291 
L 200.276004 75.33456 
L 200.556781 75.33456 
L 200.666884 75.1051 
L 200.683578 75.1051 
L 200.769181 74.760909 
L 200.807093 74.760909 
L 200.847284 74.531448 
L 200.939138 74.531448 
L 201.028174 74.187257 
L 201.079514 74.187257 
L 201.079514 74.072526 
L 201.437007 74.072526 
L 201.437007 73.957796 
L 201.580241 73.957796 
L 201.596084 73.728335 
L 201.818616 73.728335 
L 201.892166 73.498875 
L 202.115367 73.498875 
L 202.115367 73.384144 
L 202.42442 73.384144 
L 202.42442 73.269414 
L 202.626033 73.269414 
L 202.626033 73.154684 
L 202.751397 73.154684 
L 202.751397 73.039953 
L 202.963932 73.039953 
L 202.963932 72.925223 
L 203.377303 72.925223 
L 203.47507 72.695762 
L 203.632783 72.695762 
L 203.731135 72.00738 
L 204.199159 72.00738 
L 204.278866 71.663189 
L 204.615042 71.663189 
L 204.615042 71.548459 
L 204.734496 71.548459 
L 204.734496 71.433729 
L 204.90748 71.433729 
L 204.90748 71.318998 
L 205.071352 71.318998 
L 205.080617 71.089538 
L 205.187732 71.089538 
L 205.242879 70.745347 
L 205.49795 70.745347 
L 205.566545 70.515886 
L 205.894924 70.515886 
L 205.923189 70.286425 
L 206.007709 70.286425 
L 206.055072 70.056964 
L 206.17553 70.056964 
L 206.234581 69.712773 
L 206.497866 69.712773 
L 206.497866 69.598043 
L 206.726921 69.598043 
L 206.726921 69.483313 
L 206.894672 69.483313 
L 206.971299 69.139122 
L 207.248328 69.139122 
L 207.248328 69.024391 
L 207.509748 69.024391 
L 207.606178 68.794931 
L 207.770482 68.794931 
L 207.770482 68.6802 
L 207.997625 68.6802 
L 207.997625 68.56547 
L 208.249674 68.56547 
L 208.274371 68.336009 
L 208.701004 68.336009 
L 208.701004 68.221279 
L 208.841922 68.221279 
L 208.880699 67.991818 
L 209.110099 67.991818 
L 209.110099 67.877088 
L 209.398816 67.877088 
L 209.437818 67.647627 
L 209.695631 67.647627 
L 209.695631 67.532897 
L 210.241484 67.532897 
L 210.241484 67.418167 
L 210.82549 67.418167 
L 210.917196 67.188706 
L 211.241577 67.188706 
L 211.276673 66.959245 
L 211.460096 66.959245 
L 211.460096 66.844515 
L 211.836352 66.844515 
L 211.931663 66.500324 
L 212.263661 66.500324 
L 212.322461 66.270863 
L 212.433396 66.270863 
L 212.433396 66.156133 
L 212.713067 66.156133 
L 212.713067 66.041402 
L 213.071701 66.041402 
L 213.136016 65.697211 
L 213.265097 65.697211 
L 213.265097 65.582481 
L 213.616074 65.582481 
L 213.691988 65.35302 
L 214.040103 65.35302 
L 214.127435 65.008829 
L 214.242836 65.008829 
L 214.242836 64.894099 
L 214.87534 64.894099 
L 214.962803 64.664638 
L 215.749934 64.664638 
L 215.800098 64.435178 
L 216.208053 64.435178 
L 216.211968 64.205717 
L 216.879081 64.205717 
L 216.879081 64.090987 
L 217.214857 64.090987 
L 217.214857 63.976256 
L 217.371198 63.976256 
L 217.371198 63.861526 
L 217.513441 63.861526 
L 217.513441 63.746796 
L 217.746173 63.746796 
L 217.746173 63.632065 
L 217.953717 63.632065 
L 217.953717 63.517335 
L 218.134299 63.517335 
L 218.134299 63.402605 
L 218.436632 63.402605 
L 218.436632 63.287874 
L 218.608896 63.287874 
L 218.608896 63.173144 
L 218.787075 63.173144 
L 218.787075 63.058414 
L 219.123163 63.058414 
L 219.123163 62.943683 
L 220.712813 62.943683 
L 220.712813 62.828953 
L 221.130322 62.828953 
L 221.130322 62.714222 
L 222.328784 62.714222 
L 222.328784 62.599492 
L 222.779039 62.599492 
L 222.779039 62.484762 
L 224.716543 62.484762 
L 224.716543 62.370031 
L 224.861343 62.370031 
L 224.861343 62.255301 
L 225.296803 62.255301 
L 225.296803 62.140571 
L 226.506846 62.140571 
L 226.603094 61.91111 
L 227.148796 61.91111 
L 227.148796 61.79638 
L 228.093752 61.79638 
L 228.093752 61.681649 
L 229.501707 61.681649 
L 229.585076 61.452189 
L 338.688 61.452189 
L 338.688 61.452189 
" style="fill:none;stroke:#ff00ff;stroke-linecap:square;stroke-width:1.5;"/>
   </g>
   <g id="line2d_41">
    <defs>
     <path d="M -0 8.485281 
L 5.091169 0 
L 0 -8.485281 
L -5.091169 -0 
z
" id="mc239885b75" style="stroke:#ff00ff;stroke-linejoin:miter;stroke-width:1.5;"/>
    </defs>
    <g>
     <use style="fill-opacity:0;stroke:#ff00ff;stroke-linejoin:miter;stroke-width:1.5;" x="112.655818" xlink:href="#mc239885b75" y="241.808289"/>
     <use style="fill-opacity:0;stroke:#ff00ff;stroke-linejoin:miter;stroke-width:1.5;" x="152.168773" xlink:href="#mc239885b75" y="103.214034"/>
     <use style="fill-opacity:0;stroke:#ff00ff;stroke-linejoin:miter;stroke-width:1.5;" x="229.585076" xlink:href="#mc239885b75" y="61.566919"/>
     <use style="fill-opacity:0;stroke:#ff00ff;stroke-linejoin:miter;stroke-width:1.5;" x="229.585076" xlink:href="#mc239885b75" y="61.452189"/>
     <use style="fill-opacity:0;stroke:#ff00ff;stroke-linejoin:miter;stroke-width:1.5;" x="229.585076" xlink:href="#mc239885b75" y="61.452189"/>
     <use style="fill-opacity:0;stroke:#ff00ff;stroke-linejoin:miter;stroke-width:1.5;" x="338.688" xlink:href="#mc239885b75" y="61.452189"/>
    </g>
   </g>
   <g id="line2d_42">
    <path style="fill:none;stroke:#ff00ff;stroke-linecap:square;stroke-width:1.5;"/>
    <g/>
   </g>
   <g id="line2d_43">
    <path clip-path="url(#pc1783134ee)" d="M 151.260066 103.214034 
" style="fill:none;stroke:#ff00ff;stroke-linecap:square;stroke-width:1.5;"/>
    <defs>
     <path d="M -12 12 
L 12 -12 
M -12 -12 
L 12 12 
" id="m38b1c0b493" style="stroke:#ff00ff;"/>
    </defs>
    <g clip-path="url(#pc1783134ee)">
     <use style="fill:#ff00ff;stroke:#ff00ff;" x="151.260066" xlink:href="#m38b1c0b493" y="103.214034"/>
    </g>
   </g>
   <g id="line2d_44">
    <path d="M 338.688 165.856801 
L 369.60768 293.092752 
" style="fill:none;stroke:#000080;stroke-linecap:square;stroke-width:1.5;"/>
    <g>
     <use style="fill-opacity:0;stroke:#000080;stroke-width:1.5;" x="338.688" xlink:href="#m17010496f7" y="165.856801"/>
     <use style="fill-opacity:0;stroke:#000080;stroke-width:1.5;" x="369.60768" xlink:href="#m17010496f7" y="293.092752"/>
    </g>
   </g>
   <g id="line2d_45">
    <path d="M 338.688 61.452189 
L 369.60768 152.662812 
" style="fill:none;stroke:#ff00ff;stroke-linecap:square;stroke-width:1.5;"/>
    <g>
     <use style="fill-opacity:0;stroke:#ff00ff;stroke-linejoin:miter;stroke-width:1.5;" x="338.688" xlink:href="#mc239885b75" y="61.452189"/>
     <use style="fill-opacity:0;stroke:#ff00ff;stroke-linejoin:miter;stroke-width:1.5;" x="369.60768" xlink:href="#mc239885b75" y="152.662812"/>
    </g>
   </g>
   <g id="line2d_46">
    <path d="M 338.688 298.944 
L 338.688 6.381624 
" style="fill:none;stroke:#000000;stroke-linecap:square;stroke-width:1.5;"/>
   </g>
   <g id="patch_3">
    <path d="M 57.6 298.944 
L 57.6 3.456 
" style="fill:none;stroke:#000000;stroke-linecap:square;stroke-linejoin:miter;stroke-width:0.8;"/>
   </g>
   <g id="patch_4">
    <path d="M 338.688 298.944 
L 338.688 3.456 
" style="fill:none;stroke:#000000;stroke-linecap:square;stroke-linejoin:miter;stroke-width:0.8;"/>
   </g>
   <g id="patch_5">
    <path d="M 57.6 298.944 
L 338.688 298.944 
" style="fill:none;stroke:#000000;stroke-linecap:square;stroke-linejoin:miter;stroke-width:0.8;"/>
   </g>
   <g id="patch_6">
    <path d="M 57.6 3.456 
L 338.688 3.456 
" style="fill:none;stroke:#000000;stroke-linecap:square;stroke-linejoin:miter;stroke-width:0.8;"/>
   </g>
   <g id="text_13">
    <!-- gpy lcb -->
    <defs>
     <path d="M 32.171875 -5.078125 
Q 28.375 -14.84375 24.75 -17.8125 
Q 21.140625 -20.796875 15.09375 -20.796875 
L 7.90625 -20.796875 
L 7.90625 -13.28125 
L 13.1875 -13.28125 
Q 16.890625 -13.28125 18.9375 -11.515625 
Q 21 -9.765625 23.484375 -3.21875 
L 25.09375 0.875 
L 2.984375 54.6875 
L 12.5 54.6875 
L 29.59375 11.921875 
L 46.6875 54.6875 
L 56.203125 54.6875 
z
" id="DejaVuSans-121"/>
     <path d="M 48.6875 27.296875 
Q 48.6875 37.203125 44.609375 42.84375 
Q 40.53125 48.484375 33.40625 48.484375 
Q 26.265625 48.484375 22.1875 42.84375 
Q 18.109375 37.203125 18.109375 27.296875 
Q 18.109375 17.390625 22.1875 11.75 
Q 26.265625 6.109375 33.40625 6.109375 
Q 40.53125 6.109375 44.609375 11.75 
Q 48.6875 17.390625 48.6875 27.296875 
z
M 18.109375 46.390625 
Q 20.953125 51.265625 25.265625 53.625 
Q 29.59375 56 35.59375 56 
Q 45.5625 56 51.78125 48.09375 
Q 58.015625 40.1875 58.015625 27.296875 
Q 58.015625 14.40625 51.78125 6.484375 
Q 45.5625 -1.421875 35.59375 -1.421875 
Q 29.59375 -1.421875 25.265625 0.953125 
Q 20.953125 3.328125 18.109375 8.203125 
L 18.109375 0 
L 9.078125 0 
L 9.078125 75.984375 
L 18.109375 75.984375 
z
" id="DejaVuSans-98"/>
    </defs>
    <g transform="translate(375.22944 297.78369)scale(0.17 -0.17)">
     <use xlink:href="#DejaVuSans-103"/>
     <use x="63.476562" xlink:href="#DejaVuSans-112"/>
     <use x="126.953125" xlink:href="#DejaVuSans-121"/>
     <use x="186.132812" xlink:href="#DejaVuSans-32"/>
     <use x="217.919922" xlink:href="#DejaVuSans-108"/>
     <use x="245.703125" xlink:href="#DejaVuSans-99"/>
     <use x="300.683594" xlink:href="#DejaVuSans-98"/>
    </g>
   </g>
   <g id="text_14">
    <!-- scp fmin -->
    <g transform="translate(375.22944 157.353749)scale(0.17 -0.17)">
     <use xlink:href="#DejaVuSans-115"/>
     <use x="52.099609" xlink:href="#DejaVuSans-99"/>
     <use x="107.080078" xlink:href="#DejaVuSans-112"/>
     <use x="170.556641" xlink:href="#DejaVuSans-32"/>
     <use x="202.34375" xlink:href="#DejaVuSans-102"/>
     <use x="237.548828" xlink:href="#DejaVuSans-109"/>
     <use x="334.960938" xlink:href="#DejaVuSans-105"/>
     <use x="362.744141" xlink:href="#DejaVuSans-110"/>
    </g>
   </g>
   <g id="text_15">
    <!-- best 2009 -->
    <defs>
     <path d="M 10.984375 1.515625 
L 10.984375 10.5 
Q 14.703125 8.734375 18.5 7.8125 
Q 22.3125 6.890625 25.984375 6.890625 
Q 35.75 6.890625 40.890625 13.453125 
Q 46.046875 20.015625 46.78125 33.40625 
Q 43.953125 29.203125 39.59375 26.953125 
Q 35.25 24.703125 29.984375 24.703125 
Q 19.046875 24.703125 12.671875 31.3125 
Q 6.296875 37.9375 6.296875 49.421875 
Q 6.296875 60.640625 12.9375 67.421875 
Q 19.578125 74.21875 30.609375 74.21875 
Q 43.265625 74.21875 49.921875 64.515625 
Q 56.59375 54.828125 56.59375 36.375 
Q 56.59375 19.140625 48.40625 8.859375 
Q 40.234375 -1.421875 26.421875 -1.421875 
Q 22.703125 -1.421875 18.890625 -0.6875 
Q 15.09375 0.046875 10.984375 1.515625 
z
M 30.609375 32.421875 
Q 37.25 32.421875 41.125 36.953125 
Q 45.015625 41.5 45.015625 49.421875 
Q 45.015625 57.28125 41.125 61.84375 
Q 37.25 66.40625 30.609375 66.40625 
Q 23.96875 66.40625 20.09375 61.84375 
Q 16.21875 57.28125 16.21875 49.421875 
Q 16.21875 41.5 20.09375 36.953125 
Q 23.96875 32.421875 30.609375 32.421875 
z
" id="DejaVuSans-57"/>
    </defs>
    <g transform="translate(375.22944 16.923809)scale(0.17 -0.17)">
     <use xlink:href="#DejaVuSans-98"/>
     <use x="63.476562" xlink:href="#DejaVuSans-101"/>
     <use x="125" xlink:href="#DejaVuSans-115"/>
     <use x="177.099609" xlink:href="#DejaVuSans-116"/>
     <use x="216.308594" xlink:href="#DejaVuSans-32"/>
     <use x="248.095703" xlink:href="#DejaVuSans-50"/>
     <use x="311.71875" xlink:href="#DejaVuSans-48"/>
     <use x="375.341797" xlink:href="#DejaVuSans-48"/>
     <use x="438.964844" xlink:href="#DejaVuSans-57"/>
    </g>
   </g>
   <g id="text_16">
    <!-- bbob f1-f5, 2-D -->
    <defs>
     <path d="M 10.796875 72.90625 
L 49.515625 72.90625 
L 49.515625 64.59375 
L 19.828125 64.59375 
L 19.828125 46.734375 
Q 21.96875 47.46875 24.109375 47.828125 
Q 26.265625 48.1875 28.421875 48.1875 
Q 40.625 48.1875 47.75 41.5 
Q 54.890625 34.8125 54.890625 23.390625 
Q 54.890625 11.625 47.5625 5.09375 
Q 40.234375 -1.421875 26.90625 -1.421875 
Q 22.3125 -1.421875 17.546875 -0.640625 
Q 12.796875 0.140625 7.71875 1.703125 
L 7.71875 11.625 
Q 12.109375 9.234375 16.796875 8.0625 
Q 21.484375 6.890625 26.703125 6.890625 
Q 35.15625 6.890625 40.078125 11.328125 
Q 45.015625 15.765625 45.015625 23.390625 
Q 45.015625 31 40.078125 35.4375 
Q 35.15625 39.890625 26.703125 39.890625 
Q 22.75 39.890625 18.8125 39.015625 
Q 14.890625 38.140625 10.796875 36.28125 
z
" id="DejaVuSans-53"/>
     <path d="M 19.671875 64.796875 
L 19.671875 8.109375 
L 31.59375 8.109375 
Q 46.6875 8.109375 53.6875 14.9375 
Q 60.6875 21.78125 60.6875 36.53125 
Q 60.6875 51.171875 53.6875 57.984375 
Q 46.6875 64.796875 31.59375 64.796875 
z
M 9.8125 72.90625 
L 30.078125 72.90625 
Q 51.265625 72.90625 61.171875 64.09375 
Q 71.09375 55.28125 71.09375 36.53125 
Q 71.09375 17.671875 61.125 8.828125 
Q 51.171875 0 30.078125 0 
L 9.8125 0 
z
" id="DejaVuSans-68"/>
    </defs>
    <g transform="translate(60.41088 14.161286)scale(0.102 -0.102)">
     <use xlink:href="#DejaVuSans-98"/>
     <use x="63.476562" xlink:href="#DejaVuSans-98"/>
     <use x="126.953125" xlink:href="#DejaVuSans-111"/>
     <use x="188.134766" xlink:href="#DejaVuSans-98"/>
     <use x="251.611328" xlink:href="#DejaVuSans-32"/>
     <use x="283.398438" xlink:href="#DejaVuSans-102"/>
     <use x="318.603516" xlink:href="#DejaVuSans-49"/>
     <use x="382.226562" xlink:href="#DejaVuSans-45"/>
     <use x="418.310547" xlink:href="#DejaVuSans-102"/>
     <use x="453.515625" xlink:href="#DejaVuSans-53"/>
     <use x="517.138672" xlink:href="#DejaVuSans-44"/>
     <use x="548.925781" xlink:href="#DejaVuSans-32"/>
     <use x="580.712891" xlink:href="#DejaVuSans-50"/>
     <use x="644.335938" xlink:href="#DejaVuSans-45"/>
     <use x="680.419922" xlink:href="#DejaVuSans-68"/>
    </g>
    <!-- 51 targets: 100..1e-08 -->
    <defs>
     <path d="M 11.71875 12.40625 
L 22.015625 12.40625 
L 22.015625 0 
L 11.71875 0 
z
M 11.71875 51.703125 
L 22.015625 51.703125 
L 22.015625 39.3125 
L 11.71875 39.3125 
z
" id="DejaVuSans-58"/>
    </defs>
    <g transform="translate(60.41088 25.583055)scale(0.102 -0.102)">
     <use xlink:href="#DejaVuSans-53"/>
     <use x="63.623047" xlink:href="#DejaVuSans-49"/>
     <use x="127.246094" xlink:href="#DejaVuSans-32"/>
     <use x="159.033203" xlink:href="#DejaVuSans-116"/>
     <use x="198.242188" xlink:href="#DejaVuSans-97"/>
     <use x="259.521484" xlink:href="#DejaVuSans-114"/>
     <use x="298.884766" xlink:href="#DejaVuSans-103"/>
     <use x="362.361328" xlink:href="#DejaVuSans-101"/>
     <use x="423.884766" xlink:href="#DejaVuSans-116"/>
     <use x="463.09375" xlink:href="#DejaVuSans-115"/>
     <use x="515.193359" xlink:href="#DejaVuSans-58"/>
     <use x="548.884766" xlink:href="#DejaVuSans-32"/>
     <use x="580.671875" xlink:href="#DejaVuSans-49"/>
     <use x="644.294922" xlink:href="#DejaVuSans-48"/>
     <use x="707.917969" xlink:href="#DejaVuSans-48"/>
     <use x="771.541016" xlink:href="#DejaVuSans-46"/>
     <use x="803.328125" xlink:href="#DejaVuSans-46"/>
     <use x="835.115234" xlink:href="#DejaVuSans-49"/>
     <use x="898.738281" xlink:href="#DejaVuSans-101"/>
     <use x="960.261719" xlink:href="#DejaVuSans-45"/>
     <use x="996.345703" xlink:href="#DejaVuSans-48"/>
     <use x="1059.96875" xlink:href="#DejaVuSans-56"/>
    </g>
    <!-- 15 instances -->
    <g transform="translate(60.41088 37.004824)scale(0.102 -0.102)">
     <use xlink:href="#DejaVuSans-49"/>
     <use x="63.623047" xlink:href="#DejaVuSans-53"/>
     <use x="127.246094" xlink:href="#DejaVuSans-32"/>
     <use x="159.033203" xlink:href="#DejaVuSans-105"/>
     <use x="186.816406" xlink:href="#DejaVuSans-110"/>
     <use x="250.195312" xlink:href="#DejaVuSans-115"/>
     <use x="302.294922" xlink:href="#DejaVuSans-116"/>
     <use x="341.503906" xlink:href="#DejaVuSans-97"/>
     <use x="402.783203" xlink:href="#DejaVuSans-110"/>
     <use x="466.162109" xlink:href="#DejaVuSans-99"/>
     <use x="521.142578" xlink:href="#DejaVuSans-101"/>
     <use x="582.666016" xlink:href="#DejaVuSans-115"/>
    </g>
   </g>
   <g id="text_17">
    <!-- v2.3.3.5 -->
    <defs>
     <path d="M 40.578125 39.3125 
Q 47.65625 37.796875 51.625 33 
Q 55.609375 28.21875 55.609375 21.1875 
Q 55.609375 10.40625 48.1875 4.484375 
Q 40.765625 -1.421875 27.09375 -1.421875 
Q 22.515625 -1.421875 17.65625 -0.515625 
Q 12.796875 0.390625 7.625 2.203125 
L 7.625 11.71875 
Q 11.71875 9.328125 16.59375 8.109375 
Q 21.484375 6.890625 26.8125 6.890625 
Q 36.078125 6.890625 40.9375 10.546875 
Q 45.796875 14.203125 45.796875 21.1875 
Q 45.796875 27.640625 41.28125 31.265625 
Q 36.765625 34.90625 28.71875 34.90625 
L 20.21875 34.90625 
L 20.21875 43.015625 
L 29.109375 43.015625 
Q 36.375 43.015625 40.234375 45.921875 
Q 44.09375 48.828125 44.09375 54.296875 
Q 44.09375 59.90625 40.109375 62.90625 
Q 36.140625 65.921875 28.71875 65.921875 
Q 24.65625 65.921875 20.015625 65.03125 
Q 15.375 64.15625 9.8125 62.3125 
L 9.8125 71.09375 
Q 15.4375 72.65625 20.34375 73.4375 
Q 25.25 74.21875 29.59375 74.21875 
Q 40.828125 74.21875 47.359375 69.109375 
Q 53.90625 64.015625 53.90625 55.328125 
Q 53.90625 49.265625 50.4375 45.09375 
Q 46.96875 40.921875 40.578125 39.3125 
z
" id="DejaVuSans-51"/>
    </defs>
    <g style="fill:#808080;" transform="translate(177.692437 293.909432)scale(0.1 -0.1)">
     <use xlink:href="#DejaVuSans-118"/>
     <use x="59.179688" xlink:href="#DejaVuSans-50"/>
     <use x="122.802734" xlink:href="#DejaVuSans-46"/>
     <use x="154.589844" xlink:href="#DejaVuSans-51"/>
     <use x="218.212891" xlink:href="#DejaVuSans-46"/>
     <use x="250" xlink:href="#DejaVuSans-51"/>
     <use x="313.623047" xlink:href="#DejaVuSans-46"/>
     <use x="345.410156" xlink:href="#DejaVuSans-53"/>
    </g>
   </g>
  </g>
 </g>
 <defs>
  <clipPath id="pc1783134ee">
   <rect height="295.488" width="281.088" x="57.6" y="3.456"/>
  </clipPath>
 </defs>
</svg>
