<?xml version="1.0" encoding="utf-8" standalone="no"?>
<!DOCTYPE svg PUBLIC "-//W3C//DTD SVG 1.1//EN"
  "http://www.w3.org/Graphics/SVG/1.1/DTD/svg11.dtd">
<!-- Created with matplotlib (https://matplotlib.org/) -->
<svg height="345.6pt" version="1.1" viewBox="0 0 460.8 345.6" width="460.8pt" xmlns="http://www.w3.org/2000/svg" xmlns:xlink="http://www.w3.org/1999/xlink">
 <defs>
  <style type="text/css">
*{stroke-linecap:butt;stroke-linejoin:round;}
  </style>
 </defs>
 <g id="figure_1">
  <g id="patch_1">
   <path d="M 0 345.6 
L 460.8 345.6 
L 460.8 0 
L 0 0 
z
" style="fill:#ffffff;"/>
  </g>
  <g id="axes_1">
   <g id="patch_2">
    <path d="M 57.6 298.944 
L 338.688 298.944 
L 338.688 3.456 
L 57.6 3.456 
z
" style="fill:#ffffff;"/>
   </g>
   <g id="line2d_1">
    <path d="M 45.512012 298.944 
L 45.512012 274.850628 
L 57.6 274.850628 
L 57.6 271.408718 
L 64.67102 271.408718 
L 64.67102 269.114111 
L 69.687988 269.114111 
L 69.687988 266.819504 
L 73.579452 266.819504 
L 73.579452 265.6722 
L 76.759008 265.6722 
L 76.759008 263.377593 
L 79.447285 263.377593 
L 79.447285 262.23029 
L 83.830028 262.23029 
L 83.830028 259.935683 
L 85.66744 259.935683 
L 85.66744 257.641076 
L 87.329581 257.641076 
L 87.329581 256.493773 
L 94.921215 256.493773 
L 94.921215 255.346469 
L 96.86091 255.346469 
L 96.86091 253.051863 
L 100.192776 253.051863 
L 100.192776 251.904559 
L 102.330873 251.904559 
L 102.330873 250.757256 
L 103.623262 250.757256 
L 103.623262 249.609952 
L 105.398279 249.609952 
L 105.398279 248.462649 
L 105.951954 248.462649 
L 105.951954 247.315345 
L 108.483824 247.315345 
L 108.483824 246.168042 
L 108.948899 246.168042 
L 108.948899 245.020738 
L 109.843417 245.020738 
L 109.843417 242.726132 
L 110.274038 242.726132 
L 110.274038 241.578828 
L 112.280765 241.578828 
L 112.280765 239.284221 
L 113.022974 239.284221 
L 113.022974 238.136918 
L 113.73488 238.136918 
L 113.73488 236.989614 
L 116.019919 236.989614 
L 116.019919 235.842311 
L 116.323218 235.842311 
L 116.323218 234.695008 
L 117.202696 234.695008 
L 117.202696 232.400401 
L 117.765302 232.400401 
L 117.765302 231.253097 
L 118.576578 231.253097 
L 118.576578 230.105794 
L 120.33454 230.105794 
L 120.33454 228.95849 
L 122.148045 228.95849 
L 122.148045 227.811187 
L 123.394238 227.811187 
L 123.394238 226.663884 
L 124.368753 226.663884 
L 124.368753 225.51658 
L 126.50685 225.51658 
L 126.50685 224.369277 
L 128.709321 224.369277 
L 128.709321 223.221973 
L 128.856489 223.221973 
L 128.856489 222.07467 
L 129.991152 222.07467 
L 129.991152 220.927366 
L 130.796184 220.927366 
L 130.796184 218.632759 
L 130.926816 218.632759 
L 130.926816 217.485456 
L 132.422528 217.485456 
L 132.422528 216.338153 
L 133.57787 216.338153 
L 133.57787 215.190849 
L 134.661403 215.190849 
L 134.661403 214.043546 
L 135.482227 214.043546 
L 135.482227 212.896242 
L 135.780341 212.896242 
L 135.780341 211.748939 
L 137.558536 211.748939 
L 137.558536 210.601635 
L 138.256201 210.601635 
L 138.256201 209.454332 
L 138.67848 209.454332 
L 138.67848 208.307029 
L 138.84457 208.307029 
L 138.84457 207.159725 
L 139.253002 207.159725 
L 139.253002 206.012422 
L 139.413734 206.012422 
L 139.493548 203.717815 
L 139.8092 203.717815 
L 139.887228 201.423208 
L 140.11924 201.423208 
L 140.11924 199.128601 
L 140.499195 199.128601 
L 140.574203 196.833994 
L 140.723258 196.833994 
L 140.723258 195.686691 
L 140.944478 195.686691 
L 140.944478 194.539387 
L 141.090414 194.539387 
L 141.090414 193.392084 
L 141.235139 193.392084 
L 141.235139 191.097477 
L 141.521035 191.097477 
L 141.521035 189.950174 
L 141.732423 189.950174 
L 141.732423 188.80287 
L 141.941279 188.80287 
L 142.010346 186.508263 
L 142.147664 186.508263 
L 142.147664 185.36096 
L 142.419098 185.36096 
L 142.419098 183.066353 
L 142.686372 183.066353 
L 142.752555 180.771746 
L 142.949611 180.771746 
L 143.014805 178.477139 
L 143.144465 178.477139 
L 143.144465 177.329836 
L 143.464461 177.329836 
L 143.527762 173.887925 
L 143.590833 173.887925 
L 143.653678 170.446015 
L 143.840863 170.446015 
L 143.902815 168.151408 
L 144.45069 168.151408 
L 144.45069 167.004105 
L 145.097753 167.004105 
L 145.097753 165.856801 
L 146.107383 165.856801 
L 146.216039 163.562195 
L 146.431341 163.562195 
L 146.538004 161.267588 
L 146.958248 161.267588 
L 146.958248 160.120284 
L 147.266916 160.120284 
L 147.266916 158.972981 
L 147.570215 158.972981 
L 147.570215 157.825677 
L 148.015498 157.825677 
L 148.064279 154.383767 
L 148.54473 154.383767 
L 148.54473 153.236464 
L 149.286939 153.236464 
L 149.286939 152.08916 
L 149.422654 152.08916 
L 149.467659 149.794553 
L 149.557321 149.794553 
L 149.60198 147.499946 
L 149.690956 147.499946 
L 149.690956 146.352643 
L 149.823575 146.352643 
L 149.823575 145.20534 
L 150.085825 145.20534 
L 150.085825 144.058036 
L 150.215485 144.058036 
L 150.215485 142.910733 
L 150.344189 142.910733 
L 150.38688 140.616126 
L 150.556607 140.616126 
L 150.556607 139.468822 
L 152.662192 139.468822 
L 152.662192 137.174215 
L 154.741174 137.174215 
L 154.807483 133.732305 
L 154.906477 133.732305 
L 154.972161 131.437698 
L 155.0376 131.437698 
L 155.102793 127.995788 
L 155.167744 127.995788 
L 155.167744 126.848485 
L 155.647315 126.848485 
L 155.741666 123.406574 
L 155.804285 123.406574 
L 155.86668 119.964664 
L 157.557108 119.964664 
L 157.557108 118.817361 
L 158.889829 118.817361 
L 158.889829 117.670057 
L 159.507213 117.670057 
L 159.507213 116.522754 
L 160.346039 116.522754 
L 160.346039 115.37545 
L 160.632719 115.37545 
L 160.703658 113.080843 
L 160.821253 113.080843 
L 160.821253 111.93354 
L 161.007772 111.93354 
L 161.007772 110.786236 
L 161.169354 110.786236 
L 161.169354 109.638933 
L 162.854457 109.638933 
L 162.958448 107.344326 
L 163.985177 107.344326 
L 163.985177 106.197023 
L 166.544502 106.197023 
L 166.544502 105.049719 
L 166.695783 105.049719 
L 166.729224 102.755112 
L 166.878918 102.755112 
L 166.878918 101.607809 
L 167.010909 101.607809 
L 167.0929 98.165899 
L 167.141909 98.165899 
L 167.174506 95.871292 
L 167.304287 95.871292 
L 167.304287 94.723988 
L 167.417059 94.723988 
L 167.43311 92.429381 
L 167.782543 92.429381 
L 167.84533 88.987471 
L 167.985782 88.987471 
L 167.985782 87.840168 
L 168.278627 87.840168 
L 168.354881 84.398257 
L 168.506396 84.398257 
L 168.506396 83.250954 
L 168.626667 83.250954 
L 168.626667 82.103651 
L 169.316986 82.103651 
L 169.316986 80.956347 
L 169.431813 80.956347 
L 169.53167 76.367133 
L 169.602648 76.367133 
L 169.602648 75.21983 
L 169.75779 75.21983 
L 169.855803 71.77792 
L 170.077786 71.77792 
L 170.091567 69.483313 
L 170.59394 69.483313 
L 170.59394 68.336009 
L 170.990905 68.336009 
L 170.990905 67.188706 
L 171.18605 67.188706 
L 171.18605 66.041402 
L 171.391826 66.041402 
L 171.391826 64.894099 
L 171.67086 64.894099 
L 171.67086 63.746796 
L 171.908303 63.746796 
L 171.994974 61.452189 
L 172.42198 61.452189 
L 172.530112 56.862975 
L 172.542086 56.862975 
L 172.577957 53.421065 
L 172.791647 53.421065 
L 172.791647 52.273761 
L 173.222844 52.273761 
L 173.245851 49.979154 
L 173.349008 49.979154 
L 173.349008 48.831851 
L 173.83362 48.831851 
L 173.911252 46.537244 
L 174.218366 46.537244 
L 174.218366 45.389941 
L 174.359138 45.389941 
L 174.359138 44.242637 
L 174.541525 44.242637 
L 174.541525 43.095334 
L 174.785287 43.095334 
L 174.785287 41.94803 
L 175.046437 41.94803 
L 175.046437 40.800727 
L 175.313947 40.800727 
L 175.313947 39.653423 
L 175.965303 39.653423 
L 175.965303 38.50612 
L 176.219183 38.50612 
L 176.219183 37.358817 
L 176.383205 37.358817 
L 176.392805 35.06421 
L 176.507601 35.06421 
L 176.52666 32.769603 
L 176.922168 32.769603 
L 176.922168 31.622299 
L 177.426892 31.622299 
L 177.426892 30.474996 
L 178.691478 30.474996 
L 178.691478 29.327692 
L 178.825562 29.327692 
L 178.858923 27.033086 
L 181.267628 27.033086 
L 181.32559 24.738479 
L 181.519801 24.738479 
L 181.519801 23.591175 
L 181.697718 23.591175 
L 181.697718 22.443872 
L 182.554315 22.443872 
L 182.635021 20.149265 
L 182.715356 20.149265 
L 182.788672 17.854658 
L 183.370799 17.854658 
L 183.370799 16.707355 
L 183.670549 16.707355 
L 183.670549 15.560051 
L 183.915425 15.560051 
L 183.915425 14.412748 
L 184.199902 14.412748 
L 184.291671 12.118141 
L 184.401161 12.118141 
L 184.491881 9.823534 
L 184.546087 9.823534 
L 184.546087 8.676231 
L 184.665945 8.676231 
L 184.725567 6.381624 
L 338.688 6.381624 
L 338.688 6.381624 
" style="fill:none;stroke:#f5deb3;stroke-linecap:square;stroke-width:4;"/>
   </g>
   <g id="line2d_2">
    <defs>
     <path d="M -0 7.778175 
L 7.778175 0 
L 0 -7.778175 
L -7.778175 -0 
z
" id="m904cc29d9a" style="stroke:#f5deb3;stroke-linejoin:miter;stroke-width:1.5;"/>
    </defs>
    <g>
     <use style="fill:#f5deb3;stroke:#f5deb3;stroke-linejoin:miter;stroke-width:1.5;" x="69.687988" xlink:href="#m904cc29d9a" y="269.114111"/>
     <use style="fill:#f5deb3;stroke:#f5deb3;stroke-linejoin:miter;stroke-width:1.5;" x="140.499195" xlink:href="#m904cc29d9a" y="197.981298"/>
     <use style="fill:#f5deb3;stroke:#f5deb3;stroke-linejoin:miter;stroke-width:1.5;" x="169.316986" xlink:href="#m904cc29d9a" y="80.956347"/>
     <use style="fill:#f5deb3;stroke:#f5deb3;stroke-linejoin:miter;stroke-width:1.5;" x="184.725567" xlink:href="#m904cc29d9a" y="7.528927"/>
     <use style="fill:#f5deb3;stroke:#f5deb3;stroke-linejoin:miter;stroke-width:1.5;" x="184.725567" xlink:href="#m904cc29d9a" y="6.381624"/>
     <use style="fill:#f5deb3;stroke:#f5deb3;stroke-linejoin:miter;stroke-width:1.5;" x="338.688" xlink:href="#m904cc29d9a" y="6.381624"/>
    </g>
   </g>
   <g id="line2d_3">
    <path style="fill:none;stroke:#f5deb3;stroke-linecap:square;stroke-width:4;"/>
    <g/>
   </g>
   <g id="line2d_4">
    <path d="M 338.688 6.381624 
L 369.60768 12.232871 
" style="fill:none;stroke:#f5deb3;stroke-linecap:square;stroke-width:4;"/>
    <g>
     <use style="fill:#f5deb3;stroke:#f5deb3;stroke-linejoin:miter;stroke-width:1.5;" x="338.688" xlink:href="#m904cc29d9a" y="6.381624"/>
     <use style="fill:#f5deb3;stroke:#f5deb3;stroke-linejoin:miter;stroke-width:1.5;" x="369.60768" xlink:href="#m904cc29d9a" y="12.232871"/>
    </g>
   </g>
   <g id="matplotlib.axis_1">
    <g id="xtick_1">
     <g id="line2d_5">
      <path clip-path="url(#pa03b5b4d55)" d="M 57.6 298.944 
L 57.6 3.456 
" style="fill:none;stroke:#b0b0b0;stroke-linecap:square;stroke-width:0.8;"/>
     </g>
     <g id="line2d_6">
      <defs>
       <path d="M 0 0 
L 0 3.5 
" id="m14a1916a56" style="stroke:#000000;stroke-width:0.8;"/>
      </defs>
      <g>
       <use style="stroke:#000000;stroke-width:0.8;" x="57.6" xlink:href="#m14a1916a56" y="298.944"/>
      </g>
     </g>
     <g id="text_1">
      <!-- 0 -->
      <defs>
       <path d="M 31.78125 66.40625 
Q 24.171875 66.40625 20.328125 58.90625 
Q 16.5 51.421875 16.5 36.375 
Q 16.5 21.390625 20.328125 13.890625 
Q 24.171875 6.390625 31.78125 6.390625 
Q 39.453125 6.390625 43.28125 13.890625 
Q 47.125 21.390625 47.125 36.375 
Q 47.125 51.421875 43.28125 58.90625 
Q 39.453125 66.40625 31.78125 66.40625 
z
M 31.78125 74.21875 
Q 44.046875 74.21875 50.515625 64.515625 
Q 56.984375 54.828125 56.984375 36.375 
Q 56.984375 17.96875 50.515625 8.265625 
Q 44.046875 -1.421875 31.78125 -1.421875 
Q 19.53125 -1.421875 13.0625 8.265625 
Q 6.59375 17.96875 6.59375 36.375 
Q 6.59375 54.828125 13.0625 64.515625 
Q 19.53125 74.21875 31.78125 74.21875 
z
" id="DejaVuSans-48"/>
      </defs>
      <g transform="translate(51.2375 321.140875)scale(0.2 -0.2)">
       <use xlink:href="#DejaVuSans-48"/>
      </g>
     </g>
    </g>
    <g id="xtick_2">
     <g id="line2d_7">
      <path clip-path="url(#pa03b5b4d55)" d="M 137.910857 298.944 
L 137.910857 3.456 
" style="fill:none;stroke:#b0b0b0;stroke-linecap:square;stroke-width:0.8;"/>
     </g>
     <g id="line2d_8">
      <g>
       <use style="stroke:#000000;stroke-width:0.8;" x="137.910857" xlink:href="#m14a1916a56" y="298.944"/>
      </g>
     </g>
     <g id="text_2">
      <!-- 2 -->
      <defs>
       <path d="M 19.1875 8.296875 
L 53.609375 8.296875 
L 53.609375 0 
L 7.328125 0 
L 7.328125 8.296875 
Q 12.9375 14.109375 22.625 23.890625 
Q 32.328125 33.6875 34.8125 36.53125 
Q 39.546875 41.84375 41.421875 45.53125 
Q 43.3125 49.21875 43.3125 52.78125 
Q 43.3125 58.59375 39.234375 62.25 
Q 35.15625 65.921875 28.609375 65.921875 
Q 23.96875 65.921875 18.8125 64.3125 
Q 13.671875 62.703125 7.8125 59.421875 
L 7.8125 69.390625 
Q 13.765625 71.78125 18.9375 73 
Q 24.125 74.21875 28.421875 74.21875 
Q 39.75 74.21875 46.484375 68.546875 
Q 53.21875 62.890625 53.21875 53.421875 
Q 53.21875 48.921875 51.53125 44.890625 
Q 49.859375 40.875 45.40625 35.40625 
Q 44.1875 33.984375 37.640625 27.21875 
Q 31.109375 20.453125 19.1875 8.296875 
z
" id="DejaVuSans-50"/>
      </defs>
      <g transform="translate(131.548357 321.140875)scale(0.2 -0.2)">
       <use xlink:href="#DejaVuSans-50"/>
      </g>
     </g>
    </g>
    <g id="xtick_3">
     <g id="line2d_9">
      <path clip-path="url(#pa03b5b4d55)" d="M 218.221714 298.944 
L 218.221714 3.456 
" style="fill:none;stroke:#b0b0b0;stroke-linecap:square;stroke-width:0.8;"/>
     </g>
     <g id="line2d_10">
      <g>
       <use style="stroke:#000000;stroke-width:0.8;" x="218.221714" xlink:href="#m14a1916a56" y="298.944"/>
      </g>
     </g>
     <g id="text_3">
      <!-- 4 -->
      <defs>
       <path d="M 37.796875 64.3125 
L 12.890625 25.390625 
L 37.796875 25.390625 
z
M 35.203125 72.90625 
L 47.609375 72.90625 
L 47.609375 25.390625 
L 58.015625 25.390625 
L 58.015625 17.1875 
L 47.609375 17.1875 
L 47.609375 0 
L 37.796875 0 
L 37.796875 17.1875 
L 4.890625 17.1875 
L 4.890625 26.703125 
z
" id="DejaVuSans-52"/>
      </defs>
      <g transform="translate(211.859214 321.140875)scale(0.2 -0.2)">
       <use xlink:href="#DejaVuSans-52"/>
      </g>
     </g>
    </g>
    <g id="xtick_4">
     <g id="line2d_11">
      <path clip-path="url(#pa03b5b4d55)" d="M 298.532571 298.944 
L 298.532571 3.456 
" style="fill:none;stroke:#b0b0b0;stroke-linecap:square;stroke-width:0.8;"/>
     </g>
     <g id="line2d_12">
      <g>
       <use style="stroke:#000000;stroke-width:0.8;" x="298.532571" xlink:href="#m14a1916a56" y="298.944"/>
      </g>
     </g>
     <g id="text_4">
      <!-- 6 -->
      <defs>
       <path d="M 33.015625 40.375 
Q 26.375 40.375 22.484375 35.828125 
Q 18.609375 31.296875 18.609375 23.390625 
Q 18.609375 15.53125 22.484375 10.953125 
Q 26.375 6.390625 33.015625 6.390625 
Q 39.65625 6.390625 43.53125 10.953125 
Q 47.40625 15.53125 47.40625 23.390625 
Q 47.40625 31.296875 43.53125 35.828125 
Q 39.65625 40.375 33.015625 40.375 
z
M 52.59375 71.296875 
L 52.59375 62.3125 
Q 48.875 64.0625 45.09375 64.984375 
Q 41.3125 65.921875 37.59375 65.921875 
Q 27.828125 65.921875 22.671875 59.328125 
Q 17.53125 52.734375 16.796875 39.40625 
Q 19.671875 43.65625 24.015625 45.921875 
Q 28.375 48.1875 33.59375 48.1875 
Q 44.578125 48.1875 50.953125 41.515625 
Q 57.328125 34.859375 57.328125 23.390625 
Q 57.328125 12.15625 50.6875 5.359375 
Q 44.046875 -1.421875 33.015625 -1.421875 
Q 20.359375 -1.421875 13.671875 8.265625 
Q 6.984375 17.96875 6.984375 36.375 
Q 6.984375 53.65625 15.1875 63.9375 
Q 23.390625 74.21875 37.203125 74.21875 
Q 40.921875 74.21875 44.703125 73.484375 
Q 48.484375 72.75 52.59375 71.296875 
z
" id="DejaVuSans-54"/>
      </defs>
      <g transform="translate(292.170071 321.140875)scale(0.2 -0.2)">
       <use xlink:href="#DejaVuSans-54"/>
      </g>
     </g>
    </g>
    <g id="xtick_5">
     <g id="line2d_13">
      <path clip-path="url(#pa03b5b4d55)" d="M 97.755429 298.944 
L 97.755429 3.456 
" style="fill:none;stroke:#b0b0b0;stroke-linecap:square;stroke-width:0.8;"/>
     </g>
     <g id="line2d_14">
      <defs>
       <path d="M 0 0 
L 0 2 
" id="m2c3c49046a" style="stroke:#000000;stroke-width:0.6;"/>
      </defs>
      <g>
       <use style="stroke:#000000;stroke-width:0.6;" x="97.755429" xlink:href="#m2c3c49046a" y="298.944"/>
      </g>
     </g>
    </g>
    <g id="xtick_6">
     <g id="line2d_15">
      <path clip-path="url(#pa03b5b4d55)" d="M 178.066286 298.944 
L 178.066286 3.456 
" style="fill:none;stroke:#b0b0b0;stroke-linecap:square;stroke-width:0.8;"/>
     </g>
     <g id="line2d_16">
      <g>
       <use style="stroke:#000000;stroke-width:0.6;" x="178.066286" xlink:href="#m2c3c49046a" y="298.944"/>
      </g>
     </g>
    </g>
    <g id="xtick_7">
     <g id="line2d_17">
      <path clip-path="url(#pa03b5b4d55)" d="M 258.377143 298.944 
L 258.377143 3.456 
" style="fill:none;stroke:#b0b0b0;stroke-linecap:square;stroke-width:0.8;"/>
     </g>
     <g id="line2d_18">
      <g>
       <use style="stroke:#000000;stroke-width:0.6;" x="258.377143" xlink:href="#m2c3c49046a" y="298.944"/>
      </g>
     </g>
    </g>
    <g id="xtick_8">
     <g id="line2d_19">
      <path clip-path="url(#pa03b5b4d55)" d="M 338.688 298.944 
L 338.688 3.456 
" style="fill:none;stroke:#b0b0b0;stroke-linecap:square;stroke-width:0.8;"/>
     </g>
     <g id="line2d_20">
      <g>
       <use style="stroke:#000000;stroke-width:0.6;" x="338.688" xlink:href="#m2c3c49046a" y="298.944"/>
      </g>
     </g>
    </g>
    <g id="text_5">
     <!-- log10(# f-evals / dimension) -->
     <defs>
      <path d="M 9.421875 75.984375 
L 18.40625 75.984375 
L 18.40625 0 
L 9.421875 0 
z
" id="DejaVuSans-108"/>
      <path d="M 30.609375 48.390625 
Q 23.390625 48.390625 19.1875 42.75 
Q 14.984375 37.109375 14.984375 27.296875 
Q 14.984375 17.484375 19.15625 11.84375 
Q 23.34375 6.203125 30.609375 6.203125 
Q 37.796875 6.203125 41.984375 11.859375 
Q 46.1875 17.53125 46.1875 27.296875 
Q 46.1875 37.015625 41.984375 42.703125 
Q 37.796875 48.390625 30.609375 48.390625 
z
M 30.609375 56 
Q 42.328125 56 49.015625 48.375 
Q 55.71875 40.765625 55.71875 27.296875 
Q 55.71875 13.875 49.015625 6.21875 
Q 42.328125 -1.421875 30.609375 -1.421875 
Q 18.84375 -1.421875 12.171875 6.21875 
Q 5.515625 13.875 5.515625 27.296875 
Q 5.515625 40.765625 12.171875 48.375 
Q 18.84375 56 30.609375 56 
z
" id="DejaVuSans-111"/>
      <path d="M 45.40625 27.984375 
Q 45.40625 37.75 41.375 43.109375 
Q 37.359375 48.484375 30.078125 48.484375 
Q 22.859375 48.484375 18.828125 43.109375 
Q 14.796875 37.75 14.796875 27.984375 
Q 14.796875 18.265625 18.828125 12.890625 
Q 22.859375 7.515625 30.078125 7.515625 
Q 37.359375 7.515625 41.375 12.890625 
Q 45.40625 18.265625 45.40625 27.984375 
z
M 54.390625 6.78125 
Q 54.390625 -7.171875 48.1875 -13.984375 
Q 42 -20.796875 29.203125 -20.796875 
Q 24.46875 -20.796875 20.265625 -20.09375 
Q 16.0625 -19.390625 12.109375 -17.921875 
L 12.109375 -9.1875 
Q 16.0625 -11.328125 19.921875 -12.34375 
Q 23.78125 -13.375 27.78125 -13.375 
Q 36.625 -13.375 41.015625 -8.765625 
Q 45.40625 -4.15625 45.40625 5.171875 
L 45.40625 9.625 
Q 42.625 4.78125 38.28125 2.390625 
Q 33.9375 0 27.875 0 
Q 17.828125 0 11.671875 7.65625 
Q 5.515625 15.328125 5.515625 27.984375 
Q 5.515625 40.671875 11.671875 48.328125 
Q 17.828125 56 27.875 56 
Q 33.9375 56 38.28125 53.609375 
Q 42.625 51.21875 45.40625 46.390625 
L 45.40625 54.6875 
L 54.390625 54.6875 
z
" id="DejaVuSans-103"/>
      <path d="M 12.40625 8.296875 
L 28.515625 8.296875 
L 28.515625 63.921875 
L 10.984375 60.40625 
L 10.984375 69.390625 
L 28.421875 72.90625 
L 38.28125 72.90625 
L 38.28125 8.296875 
L 54.390625 8.296875 
L 54.390625 0 
L 12.40625 0 
z
" id="DejaVuSans-49"/>
      <path d="M 31 75.875 
Q 24.46875 64.65625 21.28125 53.65625 
Q 18.109375 42.671875 18.109375 31.390625 
Q 18.109375 20.125 21.3125 9.0625 
Q 24.515625 -2 31 -13.1875 
L 23.1875 -13.1875 
Q 15.875 -1.703125 12.234375 9.375 
Q 8.59375 20.453125 8.59375 31.390625 
Q 8.59375 42.28125 12.203125 53.3125 
Q 15.828125 64.359375 23.1875 75.875 
z
" id="DejaVuSans-40"/>
      <path d="M 51.125 44 
L 36.921875 44 
L 32.8125 27.6875 
L 47.125 27.6875 
z
M 43.796875 71.78125 
L 38.71875 51.515625 
L 52.984375 51.515625 
L 58.109375 71.78125 
L 65.921875 71.78125 
L 60.890625 51.515625 
L 76.125 51.515625 
L 76.125 44 
L 58.984375 44 
L 54.984375 27.6875 
L 70.515625 27.6875 
L 70.515625 20.21875 
L 53.078125 20.21875 
L 48 0 
L 40.1875 0 
L 45.21875 20.21875 
L 30.90625 20.21875 
L 25.875 0 
L 18.015625 0 
L 23.09375 20.21875 
L 7.71875 20.21875 
L 7.71875 27.6875 
L 24.90625 27.6875 
L 29 44 
L 13.28125 44 
L 13.28125 51.515625 
L 30.90625 51.515625 
L 35.890625 71.78125 
z
" id="DejaVuSans-35"/>
      <path id="DejaVuSans-32"/>
      <path d="M 37.109375 75.984375 
L 37.109375 68.5 
L 28.515625 68.5 
Q 23.6875 68.5 21.796875 66.546875 
Q 19.921875 64.59375 19.921875 59.515625 
L 19.921875 54.6875 
L 34.71875 54.6875 
L 34.71875 47.703125 
L 19.921875 47.703125 
L 19.921875 0 
L 10.890625 0 
L 10.890625 47.703125 
L 2.296875 47.703125 
L 2.296875 54.6875 
L 10.890625 54.6875 
L 10.890625 58.5 
Q 10.890625 67.625 15.140625 71.796875 
Q 19.390625 75.984375 28.609375 75.984375 
z
" id="DejaVuSans-102"/>
      <path d="M 4.890625 31.390625 
L 31.203125 31.390625 
L 31.203125 23.390625 
L 4.890625 23.390625 
z
" id="DejaVuSans-45"/>
      <path d="M 56.203125 29.59375 
L 56.203125 25.203125 
L 14.890625 25.203125 
Q 15.484375 15.921875 20.484375 11.0625 
Q 25.484375 6.203125 34.421875 6.203125 
Q 39.59375 6.203125 44.453125 7.46875 
Q 49.3125 8.734375 54.109375 11.28125 
L 54.109375 2.78125 
Q 49.265625 0.734375 44.1875 -0.34375 
Q 39.109375 -1.421875 33.890625 -1.421875 
Q 20.796875 -1.421875 13.15625 6.1875 
Q 5.515625 13.8125 5.515625 26.8125 
Q 5.515625 40.234375 12.765625 48.109375 
Q 20.015625 56 32.328125 56 
Q 43.359375 56 49.78125 48.890625 
Q 56.203125 41.796875 56.203125 29.59375 
z
M 47.21875 32.234375 
Q 47.125 39.59375 43.09375 43.984375 
Q 39.0625 48.390625 32.421875 48.390625 
Q 24.90625 48.390625 20.390625 44.140625 
Q 15.875 39.890625 15.1875 32.171875 
z
" id="DejaVuSans-101"/>
      <path d="M 2.984375 54.6875 
L 12.5 54.6875 
L 29.59375 8.796875 
L 46.6875 54.6875 
L 56.203125 54.6875 
L 35.6875 0 
L 23.484375 0 
z
" id="DejaVuSans-118"/>
      <path d="M 34.28125 27.484375 
Q 23.390625 27.484375 19.1875 25 
Q 14.984375 22.515625 14.984375 16.5 
Q 14.984375 11.71875 18.140625 8.90625 
Q 21.296875 6.109375 26.703125 6.109375 
Q 34.1875 6.109375 38.703125 11.40625 
Q 43.21875 16.703125 43.21875 25.484375 
L 43.21875 27.484375 
z
M 52.203125 31.203125 
L 52.203125 0 
L 43.21875 0 
L 43.21875 8.296875 
Q 40.140625 3.328125 35.546875 0.953125 
Q 30.953125 -1.421875 24.3125 -1.421875 
Q 15.921875 -1.421875 10.953125 3.296875 
Q 6 8.015625 6 15.921875 
Q 6 25.140625 12.171875 29.828125 
Q 18.359375 34.515625 30.609375 34.515625 
L 43.21875 34.515625 
L 43.21875 35.40625 
Q 43.21875 41.609375 39.140625 45 
Q 35.0625 48.390625 27.6875 48.390625 
Q 23 48.390625 18.546875 47.265625 
Q 14.109375 46.140625 10.015625 43.890625 
L 10.015625 52.203125 
Q 14.9375 54.109375 19.578125 55.046875 
Q 24.21875 56 28.609375 56 
Q 40.484375 56 46.34375 49.84375 
Q 52.203125 43.703125 52.203125 31.203125 
z
" id="DejaVuSans-97"/>
      <path d="M 44.28125 53.078125 
L 44.28125 44.578125 
Q 40.484375 46.53125 36.375 47.5 
Q 32.28125 48.484375 27.875 48.484375 
Q 21.1875 48.484375 17.84375 46.4375 
Q 14.5 44.390625 14.5 40.28125 
Q 14.5 37.15625 16.890625 35.375 
Q 19.28125 33.59375 26.515625 31.984375 
L 29.59375 31.296875 
Q 39.15625 29.25 43.1875 25.515625 
Q 47.21875 21.78125 47.21875 15.09375 
Q 47.21875 7.46875 41.1875 3.015625 
Q 35.15625 -1.421875 24.609375 -1.421875 
Q 20.21875 -1.421875 15.453125 -0.5625 
Q 10.6875 0.296875 5.421875 2 
L 5.421875 11.28125 
Q 10.40625 8.6875 15.234375 7.390625 
Q 20.0625 6.109375 24.8125 6.109375 
Q 31.15625 6.109375 34.5625 8.28125 
Q 37.984375 10.453125 37.984375 14.40625 
Q 37.984375 18.0625 35.515625 20.015625 
Q 33.0625 21.96875 24.703125 23.78125 
L 21.578125 24.515625 
Q 13.234375 26.265625 9.515625 29.90625 
Q 5.8125 33.546875 5.8125 39.890625 
Q 5.8125 47.609375 11.28125 51.796875 
Q 16.75 56 26.8125 56 
Q 31.78125 56 36.171875 55.265625 
Q 40.578125 54.546875 44.28125 53.078125 
z
" id="DejaVuSans-115"/>
      <path d="M 25.390625 72.90625 
L 33.6875 72.90625 
L 8.296875 -9.28125 
L 0 -9.28125 
z
" id="DejaVuSans-47"/>
      <path d="M 45.40625 46.390625 
L 45.40625 75.984375 
L 54.390625 75.984375 
L 54.390625 0 
L 45.40625 0 
L 45.40625 8.203125 
Q 42.578125 3.328125 38.25 0.953125 
Q 33.9375 -1.421875 27.875 -1.421875 
Q 17.96875 -1.421875 11.734375 6.484375 
Q 5.515625 14.40625 5.515625 27.296875 
Q 5.515625 40.1875 11.734375 48.09375 
Q 17.96875 56 27.875 56 
Q 33.9375 56 38.25 53.625 
Q 42.578125 51.265625 45.40625 46.390625 
z
M 14.796875 27.296875 
Q 14.796875 17.390625 18.875 11.75 
Q 22.953125 6.109375 30.078125 6.109375 
Q 37.203125 6.109375 41.296875 11.75 
Q 45.40625 17.390625 45.40625 27.296875 
Q 45.40625 37.203125 41.296875 42.84375 
Q 37.203125 48.484375 30.078125 48.484375 
Q 22.953125 48.484375 18.875 42.84375 
Q 14.796875 37.203125 14.796875 27.296875 
z
" id="DejaVuSans-100"/>
      <path d="M 9.421875 54.6875 
L 18.40625 54.6875 
L 18.40625 0 
L 9.421875 0 
z
M 9.421875 75.984375 
L 18.40625 75.984375 
L 18.40625 64.59375 
L 9.421875 64.59375 
z
" id="DejaVuSans-105"/>
      <path d="M 52 44.1875 
Q 55.375 50.25 60.0625 53.125 
Q 64.75 56 71.09375 56 
Q 79.640625 56 84.28125 50.015625 
Q 88.921875 44.046875 88.921875 33.015625 
L 88.921875 0 
L 79.890625 0 
L 79.890625 32.71875 
Q 79.890625 40.578125 77.09375 44.375 
Q 74.3125 48.1875 68.609375 48.1875 
Q 61.625 48.1875 57.5625 43.546875 
Q 53.515625 38.921875 53.515625 30.90625 
L 53.515625 0 
L 44.484375 0 
L 44.484375 32.71875 
Q 44.484375 40.625 41.703125 44.40625 
Q 38.921875 48.1875 33.109375 48.1875 
Q 26.21875 48.1875 22.15625 43.53125 
Q 18.109375 38.875 18.109375 30.90625 
L 18.109375 0 
L 9.078125 0 
L 9.078125 54.6875 
L 18.109375 54.6875 
L 18.109375 46.1875 
Q 21.1875 51.21875 25.484375 53.609375 
Q 29.78125 56 35.6875 56 
Q 41.65625 56 45.828125 52.96875 
Q 50 49.953125 52 44.1875 
z
" id="DejaVuSans-109"/>
      <path d="M 54.890625 33.015625 
L 54.890625 0 
L 45.90625 0 
L 45.90625 32.71875 
Q 45.90625 40.484375 42.875 44.328125 
Q 39.84375 48.1875 33.796875 48.1875 
Q 26.515625 48.1875 22.3125 43.546875 
Q 18.109375 38.921875 18.109375 30.90625 
L 18.109375 0 
L 9.078125 0 
L 9.078125 54.6875 
L 18.109375 54.6875 
L 18.109375 46.1875 
Q 21.34375 51.125 25.703125 53.5625 
Q 30.078125 56 35.796875 56 
Q 45.21875 56 50.046875 50.171875 
Q 54.890625 44.34375 54.890625 33.015625 
z
" id="DejaVuSans-110"/>
      <path d="M 8.015625 75.875 
L 15.828125 75.875 
Q 23.140625 64.359375 26.78125 53.3125 
Q 30.421875 42.28125 30.421875 31.390625 
Q 30.421875 20.453125 26.78125 9.375 
Q 23.140625 -1.703125 15.828125 -13.1875 
L 8.015625 -13.1875 
Q 14.5 -2 17.703125 9.0625 
Q 20.90625 20.125 20.90625 31.390625 
Q 20.90625 42.671875 17.703125 53.65625 
Q 14.5 64.65625 8.015625 75.875 
z
" id="DejaVuSans-41"/>
     </defs>
     <g transform="translate(77.764078 342.217594)scale(0.17 -0.17)">
      <use xlink:href="#DejaVuSans-108"/>
      <use x="27.783203" xlink:href="#DejaVuSans-111"/>
      <use x="88.964844" xlink:href="#DejaVuSans-103"/>
      <use x="152.441406" xlink:href="#DejaVuSans-49"/>
      <use x="216.064453" xlink:href="#DejaVuSans-48"/>
      <use x="279.6875" xlink:href="#DejaVuSans-40"/>
      <use x="318.701172" xlink:href="#DejaVuSans-35"/>
      <use x="402.490234" xlink:href="#DejaVuSans-32"/>
      <use x="434.277344" xlink:href="#DejaVuSans-102"/>
      <use x="463.982422" xlink:href="#DejaVuSans-45"/>
      <use x="500.066406" xlink:href="#DejaVuSans-101"/>
      <use x="561.589844" xlink:href="#DejaVuSans-118"/>
      <use x="620.769531" xlink:href="#DejaVuSans-97"/>
      <use x="682.048828" xlink:href="#DejaVuSans-108"/>
      <use x="709.832031" xlink:href="#DejaVuSans-115"/>
      <use x="761.931641" xlink:href="#DejaVuSans-32"/>
      <use x="793.71875" xlink:href="#DejaVuSans-47"/>
      <use x="827.410156" xlink:href="#DejaVuSans-32"/>
      <use x="859.197266" xlink:href="#DejaVuSans-100"/>
      <use x="922.673828" xlink:href="#DejaVuSans-105"/>
      <use x="950.457031" xlink:href="#DejaVuSans-109"/>
      <use x="1047.869141" xlink:href="#DejaVuSans-101"/>
      <use x="1109.392578" xlink:href="#DejaVuSans-110"/>
      <use x="1172.771484" xlink:href="#DejaVuSans-115"/>
      <use x="1224.871094" xlink:href="#DejaVuSans-105"/>
      <use x="1252.654297" xlink:href="#DejaVuSans-111"/>
      <use x="1313.835938" xlink:href="#DejaVuSans-110"/>
      <use x="1377.214844" xlink:href="#DejaVuSans-41"/>
     </g>
    </g>
   </g>
   <g id="matplotlib.axis_2">
    <g id="ytick_1">
     <g id="line2d_21">
      <path clip-path="url(#pa03b5b4d55)" d="M 57.6 298.944 
L 338.688 298.944 
" style="fill:none;stroke:#b0b0b0;stroke-linecap:square;stroke-width:0.8;"/>
     </g>
     <g id="line2d_22">
      <defs>
       <path d="M 0 0 
L -3.5 0 
" id="m7e40b86481" style="stroke:#000000;stroke-width:0.8;"/>
      </defs>
      <g>
       <use style="stroke:#000000;stroke-width:0.8;" x="57.6" xlink:href="#m7e40b86481" y="298.944"/>
      </g>
     </g>
     <g id="text_6">
      <!-- 0.0 -->
      <defs>
       <path d="M 10.6875 12.40625 
L 21 12.40625 
L 21 0 
L 10.6875 0 
z
" id="DejaVuSans-46"/>
      </defs>
      <g transform="translate(25.155 305.02275)scale(0.16 -0.16)">
       <use xlink:href="#DejaVuSans-48"/>
       <use x="63.623047" xlink:href="#DejaVuSans-46"/>
       <use x="95.410156" xlink:href="#DejaVuSans-48"/>
      </g>
     </g>
    </g>
    <g id="ytick_2">
     <g id="line2d_23">
      <path clip-path="url(#pa03b5b4d55)" d="M 57.6 240.431525 
L 338.688 240.431525 
" style="fill:none;stroke:#b0b0b0;stroke-linecap:square;stroke-width:0.8;"/>
     </g>
     <g id="line2d_24">
      <g>
       <use style="stroke:#000000;stroke-width:0.8;" x="57.6" xlink:href="#m7e40b86481" y="240.431525"/>
      </g>
     </g>
     <g id="text_7">
      <!-- 0.2 -->
      <g transform="translate(25.155 246.510275)scale(0.16 -0.16)">
       <use xlink:href="#DejaVuSans-48"/>
       <use x="63.623047" xlink:href="#DejaVuSans-46"/>
       <use x="95.410156" xlink:href="#DejaVuSans-50"/>
      </g>
     </g>
    </g>
    <g id="ytick_3">
     <g id="line2d_25">
      <path clip-path="url(#pa03b5b4d55)" d="M 57.6 181.91905 
L 338.688 181.91905 
" style="fill:none;stroke:#b0b0b0;stroke-linecap:square;stroke-width:0.8;"/>
     </g>
     <g id="line2d_26">
      <g>
       <use style="stroke:#000000;stroke-width:0.8;" x="57.6" xlink:href="#m7e40b86481" y="181.91905"/>
      </g>
     </g>
     <g id="text_8">
      <!-- 0.4 -->
      <g transform="translate(25.155 187.9978)scale(0.16 -0.16)">
       <use xlink:href="#DejaVuSans-48"/>
       <use x="63.623047" xlink:href="#DejaVuSans-46"/>
       <use x="95.410156" xlink:href="#DejaVuSans-52"/>
      </g>
     </g>
    </g>
    <g id="ytick_4">
     <g id="line2d_27">
      <path clip-path="url(#pa03b5b4d55)" d="M 57.6 123.406574 
L 338.688 123.406574 
" style="fill:none;stroke:#b0b0b0;stroke-linecap:square;stroke-width:0.8;"/>
     </g>
     <g id="line2d_28">
      <g>
       <use style="stroke:#000000;stroke-width:0.8;" x="57.6" xlink:href="#m7e40b86481" y="123.406574"/>
      </g>
     </g>
     <g id="text_9">
      <!-- 0.6 -->
      <g transform="translate(25.155 129.485324)scale(0.16 -0.16)">
       <use xlink:href="#DejaVuSans-48"/>
       <use x="63.623047" xlink:href="#DejaVuSans-46"/>
       <use x="95.410156" xlink:href="#DejaVuSans-54"/>
      </g>
     </g>
    </g>
    <g id="ytick_5">
     <g id="line2d_29">
      <path clip-path="url(#pa03b5b4d55)" d="M 57.6 64.894099 
L 338.688 64.894099 
" style="fill:none;stroke:#b0b0b0;stroke-linecap:square;stroke-width:0.8;"/>
     </g>
     <g id="line2d_30">
      <g>
       <use style="stroke:#000000;stroke-width:0.8;" x="57.6" xlink:href="#m7e40b86481" y="64.894099"/>
      </g>
     </g>
     <g id="text_10">
      <!-- 0.8 -->
      <defs>
       <path d="M 31.78125 34.625 
Q 24.75 34.625 20.71875 30.859375 
Q 16.703125 27.09375 16.703125 20.515625 
Q 16.703125 13.921875 20.71875 10.15625 
Q 24.75 6.390625 31.78125 6.390625 
Q 38.8125 6.390625 42.859375 10.171875 
Q 46.921875 13.96875 46.921875 20.515625 
Q 46.921875 27.09375 42.890625 30.859375 
Q 38.875 34.625 31.78125 34.625 
z
M 21.921875 38.8125 
Q 15.578125 40.375 12.03125 44.71875 
Q 8.5 49.078125 8.5 55.328125 
Q 8.5 64.0625 14.71875 69.140625 
Q 20.953125 74.21875 31.78125 74.21875 
Q 42.671875 74.21875 48.875 69.140625 
Q 55.078125 64.0625 55.078125 55.328125 
Q 55.078125 49.078125 51.53125 44.71875 
Q 48 40.375 41.703125 38.8125 
Q 48.828125 37.15625 52.796875 32.3125 
Q 56.78125 27.484375 56.78125 20.515625 
Q 56.78125 9.90625 50.3125 4.234375 
Q 43.84375 -1.421875 31.78125 -1.421875 
Q 19.734375 -1.421875 13.25 4.234375 
Q 6.78125 9.90625 6.78125 20.515625 
Q 6.78125 27.484375 10.78125 32.3125 
Q 14.796875 37.15625 21.921875 38.8125 
z
M 18.3125 54.390625 
Q 18.3125 48.734375 21.84375 45.5625 
Q 25.390625 42.390625 31.78125 42.390625 
Q 38.140625 42.390625 41.71875 45.5625 
Q 45.3125 48.734375 45.3125 54.390625 
Q 45.3125 60.0625 41.71875 63.234375 
Q 38.140625 66.40625 31.78125 66.40625 
Q 25.390625 66.40625 21.84375 63.234375 
Q 18.3125 60.0625 18.3125 54.390625 
z
" id="DejaVuSans-56"/>
      </defs>
      <g transform="translate(25.155 70.972849)scale(0.16 -0.16)">
       <use xlink:href="#DejaVuSans-48"/>
       <use x="63.623047" xlink:href="#DejaVuSans-46"/>
       <use x="95.410156" xlink:href="#DejaVuSans-56"/>
      </g>
     </g>
    </g>
    <g id="ytick_6">
     <g id="line2d_31">
      <path clip-path="url(#pa03b5b4d55)" d="M 57.6 6.381624 
L 338.688 6.381624 
" style="fill:none;stroke:#b0b0b0;stroke-linecap:square;stroke-width:0.8;"/>
     </g>
     <g id="line2d_32">
      <g>
       <use style="stroke:#000000;stroke-width:0.8;" x="57.6" xlink:href="#m7e40b86481" y="6.381624"/>
      </g>
     </g>
     <g id="text_11">
      <!-- 1.0 -->
      <g transform="translate(25.155 12.460374)scale(0.16 -0.16)">
       <use xlink:href="#DejaVuSans-49"/>
       <use x="63.623047" xlink:href="#DejaVuSans-46"/>
       <use x="95.410156" xlink:href="#DejaVuSans-48"/>
      </g>
     </g>
    </g>
    <g id="text_12">
     <!-- Fraction of function,target pairs -->
     <defs>
      <path d="M 9.8125 72.90625 
L 51.703125 72.90625 
L 51.703125 64.59375 
L 19.671875 64.59375 
L 19.671875 43.109375 
L 48.578125 43.109375 
L 48.578125 34.8125 
L 19.671875 34.8125 
L 19.671875 0 
L 9.8125 0 
z
" id="DejaVuSans-70"/>
      <path d="M 41.109375 46.296875 
Q 39.59375 47.171875 37.8125 47.578125 
Q 36.03125 48 33.890625 48 
Q 26.265625 48 22.1875 43.046875 
Q 18.109375 38.09375 18.109375 28.8125 
L 18.109375 0 
L 9.078125 0 
L 9.078125 54.6875 
L 18.109375 54.6875 
L 18.109375 46.1875 
Q 20.953125 51.171875 25.484375 53.578125 
Q 30.03125 56 36.53125 56 
Q 37.453125 56 38.578125 55.875 
Q 39.703125 55.765625 41.0625 55.515625 
z
" id="DejaVuSans-114"/>
      <path d="M 48.78125 52.59375 
L 48.78125 44.1875 
Q 44.96875 46.296875 41.140625 47.34375 
Q 37.3125 48.390625 33.40625 48.390625 
Q 24.65625 48.390625 19.8125 42.84375 
Q 14.984375 37.3125 14.984375 27.296875 
Q 14.984375 17.28125 19.8125 11.734375 
Q 24.65625 6.203125 33.40625 6.203125 
Q 37.3125 6.203125 41.140625 7.25 
Q 44.96875 8.296875 48.78125 10.40625 
L 48.78125 2.09375 
Q 45.015625 0.34375 40.984375 -0.53125 
Q 36.96875 -1.421875 32.421875 -1.421875 
Q 20.0625 -1.421875 12.78125 6.34375 
Q 5.515625 14.109375 5.515625 27.296875 
Q 5.515625 40.671875 12.859375 48.328125 
Q 20.21875 56 33.015625 56 
Q 37.15625 56 41.109375 55.140625 
Q 45.0625 54.296875 48.78125 52.59375 
z
" id="DejaVuSans-99"/>
      <path d="M 18.3125 70.21875 
L 18.3125 54.6875 
L 36.8125 54.6875 
L 36.8125 47.703125 
L 18.3125 47.703125 
L 18.3125 18.015625 
Q 18.3125 11.328125 20.140625 9.421875 
Q 21.96875 7.515625 27.59375 7.515625 
L 36.8125 7.515625 
L 36.8125 0 
L 27.59375 0 
Q 17.1875 0 13.234375 3.875 
Q 9.28125 7.765625 9.28125 18.015625 
L 9.28125 47.703125 
L 2.6875 47.703125 
L 2.6875 54.6875 
L 9.28125 54.6875 
L 9.28125 70.21875 
z
" id="DejaVuSans-116"/>
      <path d="M 8.5 21.578125 
L 8.5 54.6875 
L 17.484375 54.6875 
L 17.484375 21.921875 
Q 17.484375 14.15625 20.5 10.265625 
Q 23.53125 6.390625 29.59375 6.390625 
Q 36.859375 6.390625 41.078125 11.03125 
Q 45.3125 15.671875 45.3125 23.6875 
L 45.3125 54.6875 
L 54.296875 54.6875 
L 54.296875 0 
L 45.3125 0 
L 45.3125 8.40625 
Q 42.046875 3.421875 37.71875 1 
Q 33.40625 -1.421875 27.6875 -1.421875 
Q 18.265625 -1.421875 13.375 4.4375 
Q 8.5 10.296875 8.5 21.578125 
z
M 31.109375 56 
z
" id="DejaVuSans-117"/>
      <path d="M 11.71875 12.40625 
L 22.015625 12.40625 
L 22.015625 4 
L 14.015625 -11.625 
L 7.71875 -11.625 
L 11.71875 4 
z
" id="DejaVuSans-44"/>
      <path d="M 18.109375 8.203125 
L 18.109375 -20.796875 
L 9.078125 -20.796875 
L 9.078125 54.6875 
L 18.109375 54.6875 
L 18.109375 46.390625 
Q 20.953125 51.265625 25.265625 53.625 
Q 29.59375 56 35.59375 56 
Q 45.5625 56 51.78125 48.09375 
Q 58.015625 40.1875 58.015625 27.296875 
Q 58.015625 14.40625 51.78125 6.484375 
Q 45.5625 -1.421875 35.59375 -1.421875 
Q 29.59375 -1.421875 25.265625 0.953125 
Q 20.953125 3.328125 18.109375 8.203125 
z
M 48.6875 27.296875 
Q 48.6875 37.203125 44.609375 42.84375 
Q 40.53125 48.484375 33.40625 48.484375 
Q 26.265625 48.484375 22.1875 42.84375 
Q 18.109375 37.203125 18.109375 27.296875 
Q 18.109375 17.390625 22.1875 11.75 
Q 26.265625 6.109375 33.40625 6.109375 
Q 40.53125 6.109375 44.609375 11.75 
Q 48.6875 17.390625 48.6875 27.296875 
z
" id="DejaVuSans-112"/>
     </defs>
     <g transform="translate(17.619531 285.585)rotate(-90)scale(0.17 -0.17)">
      <use xlink:href="#DejaVuSans-70"/>
      <use x="50.269531" xlink:href="#DejaVuSans-114"/>
      <use x="91.382812" xlink:href="#DejaVuSans-97"/>
      <use x="152.662109" xlink:href="#DejaVuSans-99"/>
      <use x="207.642578" xlink:href="#DejaVuSans-116"/>
      <use x="246.851562" xlink:href="#DejaVuSans-105"/>
      <use x="274.634766" xlink:href="#DejaVuSans-111"/>
      <use x="335.816406" xlink:href="#DejaVuSans-110"/>
      <use x="399.195312" xlink:href="#DejaVuSans-32"/>
      <use x="430.982422" xlink:href="#DejaVuSans-111"/>
      <use x="492.164062" xlink:href="#DejaVuSans-102"/>
      <use x="527.369141" xlink:href="#DejaVuSans-32"/>
      <use x="559.15625" xlink:href="#DejaVuSans-102"/>
      <use x="594.361328" xlink:href="#DejaVuSans-117"/>
      <use x="657.740234" xlink:href="#DejaVuSans-110"/>
      <use x="721.119141" xlink:href="#DejaVuSans-99"/>
      <use x="776.099609" xlink:href="#DejaVuSans-116"/>
      <use x="815.308594" xlink:href="#DejaVuSans-105"/>
      <use x="843.091797" xlink:href="#DejaVuSans-111"/>
      <use x="904.273438" xlink:href="#DejaVuSans-110"/>
      <use x="967.652344" xlink:href="#DejaVuSans-44"/>
      <use x="999.439453" xlink:href="#DejaVuSans-116"/>
      <use x="1038.648438" xlink:href="#DejaVuSans-97"/>
      <use x="1099.927734" xlink:href="#DejaVuSans-114"/>
      <use x="1139.291016" xlink:href="#DejaVuSans-103"/>
      <use x="1202.767578" xlink:href="#DejaVuSans-101"/>
      <use x="1264.291016" xlink:href="#DejaVuSans-116"/>
      <use x="1303.5" xlink:href="#DejaVuSans-32"/>
      <use x="1335.287109" xlink:href="#DejaVuSans-112"/>
      <use x="1398.763672" xlink:href="#DejaVuSans-97"/>
      <use x="1460.042969" xlink:href="#DejaVuSans-105"/>
      <use x="1487.826172" xlink:href="#DejaVuSans-114"/>
      <use x="1528.939453" xlink:href="#DejaVuSans-115"/>
     </g>
    </g>
   </g>
   <g id="line2d_33">
    <defs>
     <path d="M 0 1.5 
C 0.397805 1.5 0.77937 1.341951 1.06066 1.06066 
C 1.341951 0.77937 1.5 0.397805 1.5 0 
C 1.5 -0.397805 1.341951 -0.77937 1.06066 -1.06066 
C 0.77937 -1.341951 0.397805 -1.5 0 -1.5 
C -0.397805 -1.5 -0.77937 -1.341951 -1.06066 -1.06066 
C -1.341951 -0.77937 -1.5 -0.397805 -1.5 0 
C -1.5 0.397805 -1.341951 0.77937 -1.06066 1.06066 
C -0.77937 1.341951 -0.397805 1.5 0 1.5 
z
" id="m2e879413b0" style="stroke:#f5deb3;"/>
    </defs>
    <g>
     <use style="fill:#f5deb3;stroke:#f5deb3;" x="184.725567" xlink:href="#m2e879413b0" y="6.381624"/>
     <use style="fill:#f5deb3;stroke:#f5deb3;" x="184.725567" xlink:href="#m2e879413b0" y="6.381624"/>
    </g>
   </g>
   <g id="line2d_34">
    <defs>
     <path d="M 0 1.5 
C 0.397805 1.5 0.77937 1.341951 1.06066 1.06066 
C 1.341951 0.77937 1.5 0.397805 1.5 0 
C 1.5 -0.397805 1.341951 -0.77937 1.06066 -1.06066 
C 0.77937 -1.341951 0.397805 -1.5 0 -1.5 
C -0.397805 -1.5 -0.77937 -1.341951 -1.06066 -1.06066 
C -1.341951 -0.77937 -1.5 -0.397805 -1.5 0 
C -1.5 0.397805 -1.341951 0.77937 -1.06066 1.06066 
C -0.77937 1.341951 -0.397805 1.5 0 1.5 
z
" id="mf8662f6964" style="stroke:#000080;"/>
    </defs>
    <g>
     <use style="fill:#000080;stroke:#000080;" x="175.657689" xlink:href="#mf8662f6964" y="226.663884"/>
     <use style="fill:#000080;stroke:#000080;" x="175.657689" xlink:href="#mf8662f6964" y="226.663884"/>
    </g>
   </g>
   <g id="line2d_35">
    <path d="M 45.512012 298.944 
L 45.512012 287.126775 
L 57.6 287.126775 
L 57.6 282.19337 
L 64.67102 282.19337 
L 64.67102 276.686313 
L 69.687988 276.686313 
L 69.687988 273.014942 
L 73.579452 273.014942 
L 73.579452 271.867639 
L 76.759008 271.867639 
L 76.759008 270.490875 
L 79.447285 270.490875 
L 79.447285 268.99938 
L 81.775977 268.99938 
L 81.775977 267.852077 
L 83.830028 267.852077 
L 83.830028 267.278425 
L 85.66744 267.278425 
L 85.66744 265.44274 
L 87.329581 265.44274 
L 87.329581 264.639627 
L 88.846997 264.639627 
L 88.846997 263.721785 
L 90.242884 263.721785 
L 90.242884 263.033402 
L 91.535274 263.033402 
L 91.535274 261.886099 
L 92.73846 261.886099 
L 92.73846 260.394605 
L 93.863965 260.394605 
L 93.863965 259.476762 
L 94.921215 259.476762 
L 94.921215 257.182155 
L 95.918017 257.182155 
L 95.918017 256.264312 
L 96.86091 256.264312 
L 96.86091 255.002278 
L 97.755429 255.002278 
L 97.755429 254.887548 
L 98.606294 254.887548 
L 98.606294 254.772818 
L 99.41757 254.772818 
L 99.41757 254.084436 
L 100.192776 254.084436 
L 100.192776 253.740245 
L 100.934985 253.740245 
L 100.934985 252.937132 
L 101.646892 252.937132 
L 101.646892 252.592941 
L 102.330873 252.592941 
L 102.330873 252.36348 
L 102.989037 252.36348 
L 102.989037 252.13402 
L 103.623262 252.13402 
L 103.623262 251.789829 
L 104.23523 251.789829 
L 104.23523 251.445638 
L 105.398279 251.445638 
L 105.398279 251.216177 
L 105.951954 251.216177 
L 105.951954 251.101447 
L 107.514726 251.101447 
L 107.514726 250.871986 
L 108.006005 250.871986 
L 108.006005 250.757256 
L 108.483824 250.757256 
L 108.483824 250.527795 
L 108.948899 250.527795 
L 108.948899 250.298334 
L 109.401893 250.298334 
L 109.401893 250.183604 
L 109.843417 250.183604 
L 109.843417 249.724683 
L 110.274038 249.724683 
L 110.274038 249.380492 
L 110.694282 249.380492 
L 110.694282 248.233188 
L 111.104637 248.233188 
L 111.104637 247.774267 
L 111.505558 247.774267 
L 111.505558 246.971154 
L 112.655818 246.971154 
L 112.655818 246.856424 
L 113.382559 246.856424 
L 113.382559 246.741694 
L 113.73488 246.741694 
L 113.73488 246.626963 
L 114.751048 246.626963 
L 114.751048 246.512233 
L 115.077025 246.512233 
L 115.077025 246.053312 
L 115.397021 246.053312 
L 115.397021 245.823851 
L 116.914437 245.823851 
L 116.914437 245.709121 
L 118.039942 245.709121 
L 118.039942 245.47966 
L 118.310324 245.47966 
L 118.310324 245.020738 
L 118.838828 245.020738 
L 118.838828 244.561817 
L 119.097192 244.561817 
L 119.097192 243.988165 
L 119.351785 243.988165 
L 119.351785 243.758705 
L 120.571812 243.758705 
L 120.571812 243.299783 
L 121.489881 243.299783 
L 121.489881 243.070323 
L 123.192626 243.070323 
L 123.192626 242.955592 
L 123.985457 242.955592 
L 123.985457 242.611401 
L 124.368753 242.611401 
L 124.368753 242.15248 
L 124.557288 242.15248 
L 124.557288 241.808289 
L 124.743806 241.808289 
L 124.743806 241.693559 
L 125.291682 241.693559 
L 125.291682 241.578828 
L 125.647598 241.578828 
L 125.647598 241.119907 
L 126.338353 241.119907 
L 126.338353 241.005176 
L 128.107907 241.005176 
L 128.107907 240.890446 
L 128.260216 240.890446 
L 128.260216 240.775716 
L 128.560901 240.775716 
L 128.560901 240.202064 
L 128.709321 240.202064 
L 128.709321 240.087334 
L 129.290685 240.087334 
L 129.290685 239.857873 
L 129.574256 239.857873 
L 129.574256 239.743143 
L 130.127931 239.743143 
L 130.127931 239.513682 
L 130.664567 239.513682 
L 130.664567 239.398952 
L 131.056477 239.398952 
L 131.056477 239.169491 
L 131.690703 239.169491 
L 131.690703 238.8253 
L 131.938072 238.8253 
L 131.938072 238.136918 
L 132.181982 238.136918 
L 132.181982 238.022188 
L 132.541568 238.022188 
L 132.541568 237.907457 
L 132.777237 237.907457 
L 132.777237 237.677997 
L 134.450015 237.677997 
L 134.55603 237.333805 
L 134.766144 237.333805 
L 134.870259 236.645423 
L 135.482227 236.645423 
L 135.482227 236.530693 
L 135.97629 236.530693 
L 135.97629 236.415963 
L 136.170062 236.415963 
L 136.170062 236.301232 
L 136.551264 236.301232 
L 136.551264 236.186502 
L 137.198951 236.186502 
L 137.289545 235.61285 
L 137.823442 235.61285 
L 137.823442 235.38339 
L 138.426341 235.38339 
L 138.426341 235.153929 
L 139.090775 235.153929 
L 139.172077 234.809738 
L 139.333553 234.809738 
L 139.333553 234.236086 
L 139.887228 234.236086 
L 139.964909 233.662434 
L 140.423864 233.662434 
L 140.423864 233.547704 
L 141.090414 233.547704 
L 141.090414 233.203513 
L 141.235139 233.203513 
L 141.235139 233.088783 
L 142.949611 233.088783 
L 143.014805 232.859322 
L 143.840863 232.859322 
L 143.840863 232.744592 
L 144.510517 232.744592 
L 144.570138 232.28567 
L 145.832743 232.28567 
L 145.943118 231.941479 
L 146.324022 231.941479 
L 146.324022 231.712019 
L 147.266916 231.712019 
L 147.266916 231.367828 
L 147.96658 231.367828 
L 147.96658 231.253097 
L 148.497276 231.253097 
L 148.497276 231.023637 
L 149.15016 231.023637 
L 149.15016 230.794176 
L 149.646525 230.794176 
L 149.646525 230.564715 
L 150.640855 230.564715 
L 150.724698 229.876333 
L 151.740076 229.876333 
L 151.740076 229.532142 
L 152.624728 229.532142 
L 152.699575 229.302681 
L 153.537988 229.302681 
L 153.537988 229.187951 
L 153.855395 229.187951 
L 153.855395 228.95849 
L 154.473387 228.95849 
L 154.473387 228.72903 
L 155.232454 228.72903 
L 155.296925 228.384839 
L 156.021696 228.384839 
L 156.083319 228.155378 
L 156.835778 228.155378 
L 156.835778 227.925917 
L 157.040776 227.925917 
L 157.040776 227.811187 
L 162.453536 227.811187 
L 162.453536 227.696457 
L 163.489428 227.696457 
L 163.489428 227.581726 
L 163.946031 227.581726 
L 163.985177 227.352266 
L 165.393091 227.352266 
L 165.393091 227.237535 
L 167.513144 227.237535 
L 167.513144 227.122805 
L 169.75779 227.122805 
L 169.75779 227.008075 
L 171.746192 227.008075 
L 171.746192 226.893344 
L 174.890216 226.893344 
L 174.890216 226.778614 
L 175.657689 226.778614 
L 175.657689 226.663884 
L 338.688 226.663884 
L 338.688 226.663884 
" style="fill:none;stroke:#000080;stroke-linecap:square;stroke-width:1.5;"/>
   </g>
   <g id="line2d_36">
    <defs>
     <path d="M 0 6 
C 1.591219 6 3.117479 5.367802 4.242641 4.242641 
C 5.367802 3.117479 6 1.591219 6 0 
C 6 -1.591219 5.367802 -3.117479 4.242641 -4.242641 
C 3.117479 -5.367802 1.591219 -6 0 -6 
C -1.591219 -6 -3.117479 -5.367802 -4.242641 -4.242641 
C -5.367802 -3.117479 -6 -1.591219 -6 0 
C -6 1.591219 -5.367802 3.117479 -4.242641 4.242641 
C -3.117479 5.367802 -1.591219 6 0 6 
z
" id="mc2dc1c7c53" style="stroke:#000080;stroke-width:1.5;"/>
    </defs>
    <g>
     <use style="fill-opacity:0;stroke:#000080;stroke-width:1.5;" x="92.73846" xlink:href="#mc2dc1c7c53" y="260.394605"/>
     <use style="fill-opacity:0;stroke:#000080;stroke-width:1.5;" x="136.551264" xlink:href="#mc2dc1c7c53" y="236.186502"/>
     <use style="fill-opacity:0;stroke:#000080;stroke-width:1.5;" x="175.657689" xlink:href="#mc2dc1c7c53" y="226.778614"/>
     <use style="fill-opacity:0;stroke:#000080;stroke-width:1.5;" x="175.657689" xlink:href="#mc2dc1c7c53" y="226.663884"/>
     <use style="fill-opacity:0;stroke:#000080;stroke-width:1.5;" x="175.657689" xlink:href="#mc2dc1c7c53" y="226.663884"/>
     <use style="fill-opacity:0;stroke:#000080;stroke-width:1.5;" x="338.688" xlink:href="#mc2dc1c7c53" y="226.663884"/>
    </g>
   </g>
   <g id="line2d_37">
    <path style="fill:none;stroke:#000080;stroke-linecap:square;stroke-width:1.5;"/>
    <g/>
   </g>
   <g id="line2d_38">
    <path clip-path="url(#pa03b5b4d55)" d="M 101.646892 252.592941 
" style="fill:none;stroke:#000080;stroke-linecap:square;stroke-width:1.5;"/>
    <defs>
     <path d="M -12 12 
L 12 -12 
M -12 -12 
L 12 12 
" id="m24fd72f6fe" style="stroke:#000080;"/>
    </defs>
    <g clip-path="url(#pa03b5b4d55)">
     <use style="fill:#000080;stroke:#000080;" x="101.646892" xlink:href="#m24fd72f6fe" y="252.592941"/>
    </g>
   </g>
   <g id="line2d_39">
    <defs>
     <path d="M 0 1.5 
C 0.397805 1.5 0.77937 1.341951 1.06066 1.06066 
C 1.341951 0.77937 1.5 0.397805 1.5 0 
C 1.5 -0.397805 1.341951 -0.77937 1.06066 -1.06066 
C 0.77937 -1.341951 0.397805 -1.5 0 -1.5 
C -0.397805 -1.5 -0.77937 -1.341951 -1.06066 -1.06066 
C -1.341951 -0.77937 -1.5 -0.397805 -1.5 0 
C -1.5 0.397805 -1.341951 0.77937 -1.06066 1.06066 
C -0.77937 1.341951 -0.397805 1.5 0 1.5 
z
" id="mba049211f9" style="stroke:#ff00ff;"/>
    </defs>
    <g>
     <use style="fill:#ff00ff;stroke:#ff00ff;" x="234.14667" xlink:href="#mba049211f9" y="171.593319"/>
     <use style="fill:#ff00ff;stroke:#ff00ff;" x="234.14667" xlink:href="#mba049211f9" y="171.593319"/>
    </g>
   </g>
   <g id="line2d_40">
    <path d="M 45.512012 298.944 
L 45.512012 273.818055 
L 69.687988 273.818055 
L 69.687988 273.703324 
L 73.579452 273.703324 
L 73.579452 273.588594 
L 76.759008 273.588594 
L 76.759008 273.359133 
L 79.447285 273.359133 
L 79.447285 272.670751 
L 81.775977 272.670751 
L 81.775977 271.982369 
L 83.830028 271.982369 
L 83.830028 270.376144 
L 85.66744 270.376144 
L 85.66744 269.802493 
L 87.329581 269.802493 
L 87.329581 267.852077 
L 88.846997 267.852077 
L 88.846997 267.737347 
L 91.535274 267.737347 
L 91.535274 267.622616 
L 92.73846 267.622616 
L 92.73846 267.393156 
L 93.863965 267.393156 
L 93.863965 267.278425 
L 94.921215 267.278425 
L 94.921215 267.048964 
L 95.918017 267.048964 
L 95.918017 266.819504 
L 96.86091 266.819504 
L 96.86091 266.475313 
L 97.755429 266.475313 
L 97.755429 266.245852 
L 98.606294 266.245852 
L 98.606294 265.6722 
L 99.41757 265.6722 
L 99.41757 264.639627 
L 100.192776 264.639627 
L 100.192776 263.262863 
L 100.934985 263.262863 
L 100.934985 263.033402 
L 101.646892 263.033402 
L 101.646892 262.689211 
L 102.330873 262.689211 
L 102.330873 262.34502 
L 102.989037 262.34502 
L 102.989037 262.23029 
L 104.826449 262.23029 
L 104.826449 262.11556 
L 108.006005 262.11556 
L 108.006005 262.000829 
L 113.382559 262.000829 
L 113.382559 261.886099 
L 113.73488 261.886099 
L 113.73488 261.427178 
L 114.418861 261.427178 
L 114.418861 261.312447 
L 114.751048 261.312447 
L 114.751048 261.197717 
L 115.077025 261.197717 
L 115.077025 260.968256 
L 115.397021 260.968256 
L 115.397021 260.853526 
L 116.323218 260.853526 
L 116.323218 260.738796 
L 116.621333 260.738796 
L 116.621333 260.509335 
L 116.914437 260.509335 
L 116.914437 260.279874 
L 117.765302 260.279874 
L 117.765302 260.050414 
L 118.576578 260.050414 
L 118.576578 259.935683 
L 118.838828 259.935683 
L 118.838828 259.591492 
L 119.351785 259.591492 
L 119.351785 259.247301 
L 119.602714 259.247301 
L 119.602714 258.90311 
L 119.850084 258.90311 
L 119.850084 258.444189 
L 120.33454 258.444189 
L 120.33454 258.329458 
L 120.8059 258.329458 
L 120.8059 258.099998 
L 121.036887 258.099998 
L 121.036887 257.985267 
L 121.489881 257.985267 
L 121.489881 257.870537 
L 121.931406 257.870537 
L 121.931406 257.755807 
L 122.362027 257.755807 
L 122.362027 257.526346 
L 122.573415 257.526346 
L 122.573415 257.296885 
L 122.988655 257.296885 
L 122.988655 257.182155 
L 123.394238 257.182155 
L 123.394238 257.067425 
L 123.593547 257.067425 
L 123.593547 256.952694 
L 123.985457 256.952694 
L 123.985457 256.264312 
L 124.178158 256.264312 
L 124.178158 256.149582 
L 125.110962 256.149582 
L 125.110962 256.034851 
L 125.470548 256.034851 
L 125.470548 255.920121 
L 125.822869 255.920121 
L 125.822869 255.69066 
L 125.996395 255.69066 
L 125.996395 255.57593 
L 126.673734 255.57593 
L 126.673734 255.4612 
L 127.165014 255.4612 
L 127.165014 255.346469 
L 127.642832 255.346469 
L 127.642832 255.231739 
L 127.799239 255.231739 
L 127.799239 255.117009 
L 128.260216 255.117009 
L 128.260216 255.002278 
L 129.002426 255.002278 
L 129.002426 254.887548 
L 130.398313 254.887548 
L 130.398313 254.658087 
L 131.690703 254.658087 
L 131.690703 254.543357 
L 131.938072 254.543357 
L 131.938072 254.313896 
L 132.541568 254.313896 
L 132.541568 254.199166 
L 132.659801 254.199166 
L 132.659801 253.740245 
L 132.777237 253.740245 
L 132.777237 253.396054 
L 132.893889 253.396054 
L 132.893889 253.281323 
L 133.009765 253.281323 
L 133.009765 253.166593 
L 133.239232 253.166593 
L 133.239232 252.592941 
L 133.46572 252.592941 
L 133.46572 252.36348 
L 133.689303 252.36348 
L 133.689303 252.019289 
L 134.019394 252.019289 
L 134.019394 251.675098 
L 134.55603 251.675098 
L 134.55603 251.330907 
L 134.766144 251.330907 
L 134.766144 251.216177 
L 135.076644 251.216177 
L 135.076644 251.101447 
L 135.681535 251.101447 
L 135.681535 250.986716 
L 135.97629 250.986716 
L 136.073445 250.757256 
L 136.361705 250.757256 
L 136.361705 250.642525 
L 136.924311 250.642525 
L 136.924311 250.413065 
L 137.107884 250.413065 
L 137.198951 249.609952 
L 137.910857 249.609952 
L 137.910857 249.265761 
L 138.170504 249.265761 
L 138.170504 248.92157 
L 138.426341 248.92157 
L 138.510793 247.888997 
L 139.253002 247.888997 
L 139.253002 247.774267 
L 139.493548 247.774267 
L 139.493548 247.659536 
L 140.195896 247.659536 
L 140.195896 247.430076 
L 140.423864 247.430076 
L 140.423864 247.315345 
L 140.79731 247.315345 
L 140.79731 247.200615 
L 142.215919 247.200615 
L 142.215919 246.971154 
L 142.351634 246.971154 
L 142.351634 246.856424 
L 143.144465 246.856424 
L 143.144465 246.741694 
L 143.840863 246.741694 
L 143.840863 246.512233 
L 144.330419 246.512233 
L 144.330419 246.397503 
L 145.440832 246.397503 
L 145.440832 246.282772 
L 145.609873 246.282772 
L 145.609873 246.053312 
L 145.943118 246.053312 
L 145.998045 245.823851 
L 146.107383 245.823851 
L 146.107383 245.709121 
L 146.270114 245.709121 
L 146.270114 245.59439 
L 146.749392 245.59439 
L 146.801841 245.250199 
L 147.52003 245.250199 
L 147.570215 245.020738 
L 147.71991 245.020738 
L 147.71991 244.217626 
L 148.161434 244.217626 
L 148.161434 243.988165 
L 148.40198 243.988165 
L 148.40198 243.873435 
L 148.639252 243.873435 
L 148.686322 243.529244 
L 148.87334 243.529244 
L 148.87334 243.414514 
L 149.012299 243.414514 
L 149.104327 243.185053 
L 149.241465 243.185053 
L 149.286939 242.955592 
L 149.422654 242.955592 
L 149.422654 242.840862 
L 149.735275 242.840862 
L 149.823575 242.496671 
L 149.867558 242.496671 
L 149.955193 242.26721 
L 150.258492 242.26721 
L 150.301393 242.03775 
L 150.38688 242.03775 
L 150.38688 241.923019 
L 151.260066 241.923019 
L 151.260066 241.808289 
L 151.541675 241.808289 
L 151.621307 241.578828 
L 151.700576 241.578828 
L 151.700576 241.464098 
L 151.858043 241.464098 
L 151.936246 240.431525 
L 152.245598 240.431525 
L 152.322086 239.857873 
L 152.474064 239.857873 
L 152.474064 239.398952 
L 152.662192 239.398952 
L 152.736878 238.94003 
L 152.848312 238.94003 
L 152.959038 238.481109 
L 153.032466 238.481109 
L 153.105587 238.136918 
L 153.359122 238.136918 
L 153.359122 238.022188 
L 153.959927 238.022188 
L 154.063835 237.792727 
L 154.269814 237.792727 
L 154.337936 237.448536 
L 154.54072 237.448536 
L 154.607795 237.219075 
L 154.674612 237.219075 
L 154.674612 237.104345 
L 155.004911 237.104345 
L 155.070227 236.874884 
L 155.678822 236.874884 
L 155.773004 236.645423 
L 155.897793 236.645423 
L 155.897793 236.530693 
L 156.266892 236.530693 
L 156.266892 236.415963 
L 156.418408 236.415963 
L 156.508689 236.071772 
L 156.658127 236.071772 
L 156.658127 235.957041 
L 156.894595 235.957041 
L 156.98245 235.727581 
L 157.098907 235.727581 
L 157.098907 235.61285 
L 157.358125 235.61285 
L 157.358125 235.49812 
L 157.500487 235.49812 
L 157.58535 235.153929 
L 157.669802 235.153929 
L 157.753847 234.695008 
L 157.976006 234.695008 
L 158.003578 234.236086 
L 158.195371 234.236086 
L 158.249784 234.006626 
L 158.492562 234.006626 
L 158.599388 233.432974 
L 158.67908 233.432974 
L 158.67908 233.318243 
L 158.83738 233.318243 
L 158.83738 233.203513 
L 159.123917 233.203513 
L 159.123917 233.088783 
L 161.100288 233.088783 
L 161.169354 232.859322 
L 161.306672 232.859322 
L 161.306672 232.744592 
L 161.465522 232.744592 
L 161.465522 232.629861 
L 161.756743 232.629861 
L 161.801118 232.400401 
L 162.043181 232.400401 
L 162.065021 232.05621 
L 162.346481 232.05621 
L 162.453536 231.826749 
L 162.581141 231.826749 
L 162.68677 231.367828 
L 162.707819 231.367828 
L 162.770815 231.138367 
L 162.833584 231.138367 
L 162.9377 230.564715 
L 163.164589 230.564715 
L 163.246367 230.220524 
L 163.368321 230.220524 
L 163.408783 229.991063 
L 163.52961 229.991063 
L 163.609699 229.646872 
L 163.689421 229.646872 
L 163.748975 229.417412 
L 163.828065 229.417412 
L 163.867476 229.073221 
L 163.985177 229.073221 
L 164.082658 228.384839 
L 164.19892 228.384839 
L 164.276 228.040648 
L 164.333587 228.040648 
L 164.429145 227.696457 
L 164.467222 227.696457 
L 164.524182 227.352266 
L 164.899235 227.352266 
L 164.917777 227.122805 
L 165.230021 227.122805 
L 165.284547 226.778614 
L 165.679281 226.778614 
L 165.785402 226.549153 
L 166.237944 226.549153 
L 166.34073 226.319692 
L 166.544502 226.319692 
L 166.544502 226.204962 
L 166.729224 226.204962 
L 166.812546 225.860771 
L 166.862349 225.860771 
L 166.945039 225.40185 
L 167.010909 225.40185 
L 167.076532 225.057659 
L 167.174506 225.057659 
L 167.271933 224.369277 
L 167.320442 224.369277 
L 167.368818 224.139816 
L 167.43311 224.139816 
L 167.513144 223.795625 
L 167.624577 223.795625 
L 167.624577 223.680895 
L 167.76681 223.680895 
L 167.860992 223.451434 
L 168.063324 223.451434 
L 168.063324 223.336704 
L 168.263336 223.336704 
L 168.263336 223.221973 
L 168.820356 223.221973 
L 168.820356 223.107243 
L 169.230367 223.107243 
L 169.302579 222.877782 
L 169.687442 222.877782 
L 169.687442 222.763052 
L 169.799863 222.763052 
L 169.883706 222.418861 
L 169.967148 222.418861 
L 170.050192 221.730479 
L 170.14658 221.730479 
L 170.160306 221.501018 
L 170.28336 221.501018 
L 170.324185 221.271557 
L 170.419074 221.271557 
L 170.446091 221.042097 
L 170.553741 221.042097 
L 170.647393 220.353715 
L 170.713981 220.353715 
L 170.713981 220.238984 
L 170.859585 220.238984 
L 170.96472 219.435872 
L 170.977818 219.435872 
L 171.056197 218.97695 
L 171.134225 218.97695 
L 171.198983 218.74749 
L 171.783736 218.74749 
L 171.783736 218.632759 
L 172.019658 218.632759 
L 172.130306 218.403299 
L 172.264595 218.403299 
L 172.337411 218.059108 
L 172.458099 218.059108 
L 172.566008 217.600186 
L 172.673253 217.600186 
L 172.768032 217.370726 
L 172.83878 217.370726 
L 172.850543 217.026535 
L 173.014404 217.026535 
L 173.084161 216.797074 
L 173.303236 216.797074 
L 173.406055 216.338153 
L 173.428822 216.338153 
L 173.508272 216.108692 
L 173.564801 216.108692 
L 173.564801 215.993962 
L 173.677313 215.993962 
L 173.766803 215.764501 
L 173.789104 215.764501 
L 173.866933 215.53504 
L 174.466655 215.53504 
L 174.498781 215.305579 
L 174.732584 215.305579 
L 174.827334 215.076119 
L 174.879752 215.076119 
L 174.879752 214.961388 
L 175.036065 214.961388 
L 175.036065 214.846658 
L 175.149812 214.846658 
L 175.252577 214.617197 
L 175.324155 214.617197 
L 175.324155 214.502467 
L 175.486665 214.502467 
L 175.58747 214.273006 
L 175.707673 214.273006 
L 175.807212 213.699355 
L 175.846869 213.699355 
L 175.896315 213.240433 
L 175.994786 213.240433 
L 175.994786 213.125703 
L 176.151193 213.125703 
L 176.23856 212.781512 
L 176.315853 212.781512 
L 176.34475 212.552051 
L 176.517133 212.552051 
L 176.583714 212.322591 
L 176.894213 212.322591 
L 176.894213 212.20786 
L 177.042792 212.20786 
L 177.116609 211.863669 
L 177.272441 211.863669 
L 177.272441 211.748939 
L 177.399735 211.748939 
L 177.47206 211.290017 
L 177.562046 211.290017 
L 177.562046 211.175287 
L 177.846921 211.175287 
L 177.873391 210.945826 
L 177.978871 210.945826 
L 177.978871 210.831096 
L 178.187935 210.831096 
L 178.187935 210.601635 
L 178.351686 210.601635 
L 178.351686 210.486905 
L 178.471368 210.486905 
L 178.496907 210.257444 
L 178.683063 210.257444 
L 178.683063 210.142714 
L 178.833909 210.142714 
L 178.933752 209.913253 
L 179.082454 209.913253 
L 179.139941 209.683793 
L 179.319393 209.683793 
L 179.424571 209.110141 
L 179.440696 209.110141 
L 179.545147 208.76595 
L 179.593145 208.76595 
L 179.633043 208.536489 
L 179.712566 208.536489 
L 179.799624 208.192298 
L 179.870531 208.192298 
L 179.925483 207.618646 
L 180.243911 207.618646 
L 180.243911 207.503916 
L 180.744595 207.503916 
L 180.819217 207.274455 
L 180.863838 207.274455 
L 180.952739 206.700804 
L 181.033834 206.700804 
L 181.136505 206.471343 
L 181.165729 206.471343 
L 181.238575 206.127152 
L 181.376149 206.127152 
L 181.448123 205.668231 
L 181.491165 205.668231 
L 181.505489 205.43877 
L 181.626769 205.43877 
L 181.626769 205.32404 
L 181.943792 205.32404 
L 182.048198 204.979849 
L 182.289409 204.979849 
L 182.350899 204.635658 
L 182.466459 204.635658 
L 182.554315 204.406197 
L 182.61488 204.406197 
L 182.708675 203.947275 
L 182.755385 203.947275 
L 182.78202 203.488354 
L 182.868304 203.488354 
L 182.973917 202.914702 
L 183.072351 202.914702 
L 183.078894 202.685242 
L 183.274039 202.685242 
L 183.370799 202.341051 
L 183.61989 202.341051 
L 183.664224 201.99686 
L 183.802832 201.99686 
L 183.90295 201.767399 
L 183.921659 201.767399 
L 184.0149 201.423208 
L 184.070607 201.423208 
L 184.070607 201.308478 
L 184.413285 201.308478 
L 184.45565 201.079017 
L 184.755301 201.079017 
L 184.861927 200.849556 
L 184.932651 200.849556 
L 184.991369 200.505365 
L 185.049891 200.505365 
L 185.154736 200.161174 
L 185.189545 200.161174 
L 185.19534 199.816983 
L 185.396952 199.816983 
L 185.419846 199.587522 
L 185.511122 199.587522 
L 185.596261 199.358062 
L 185.714761 199.358062 
L 185.821287 198.89914 
L 185.826875 198.89914 
L 185.84363 198.66968 
L 186.048964 198.66968 
L 186.147989 198.325489 
L 186.219158 198.325489 
L 186.31179 197.981298 
L 186.398526 197.981298 
L 186.447126 197.751837 
L 186.613497 197.751837 
L 186.613497 197.637107 
L 186.762415 197.637107 
L 186.868012 197.407646 
L 187.212014 197.407646 
L 187.304667 196.833994 
L 187.483428 196.833994 
L 187.483428 196.719264 
L 187.680484 196.719264 
L 187.780681 196.375073 
L 187.840524 196.375073 
L 187.900163 196.030882 
L 187.954653 196.030882 
L 188.063125 195.45723 
L 188.302324 195.45723 
L 188.370068 195.227769 
L 188.499979 195.227769 
L 188.504772 194.998309 
L 188.695419 194.998309 
L 188.771098 194.654118 
L 188.851149 194.654118 
L 188.865238 194.424657 
L 189.028769 194.424657 
L 189.028769 194.309927 
L 189.387785 194.309927 
L 189.387785 194.195196 
L 189.6051 194.195196 
L 189.650035 193.965736 
L 189.788602 193.965736 
L 189.81974 193.736275 
L 189.934909 193.736275 
L 190.040549 193.506814 
L 190.062477 193.506814 
L 190.128096 193.162623 
L 190.297558 193.162623 
L 190.345059 192.933162 
L 190.418216 192.933162 
L 190.418216 192.818432 
L 190.771052 192.818432 
L 190.880126 192.588971 
L 190.905201 192.588971 
L 190.905201 192.474241 
L 191.104509 192.474241 
L 191.19921 192.01532 
L 191.293399 192.01532 
L 191.399264 191.441668 
L 191.516592 191.441668 
L 191.59705 191.097477 
L 191.705083 191.097477 
L 191.725016 190.753286 
L 192.072157 190.753286 
L 192.138429 190.523825 
L 192.250903 190.523825 
L 192.293377 190.294365 
L 192.42018 190.294365 
L 192.515634 189.835443 
L 192.599203 189.835443 
L 192.625709 189.605983 
L 192.80639 189.605983 
L 192.80639 189.491252 
L 193.029639 189.491252 
L 193.1255 188.9176 
L 193.191558 188.9176 
L 193.29382 188.68814 
L 193.391865 188.68814 
L 193.500162 188.343949 
L 193.510955 188.343949 
L 193.614942 187.999758 
L 193.672049 187.999758 
L 193.732522 187.655567 
L 193.930257 187.655567 
L 193.930257 187.540836 
L 194.080581 187.540836 
L 194.153527 187.311376 
L 194.257209 187.311376 
L 194.319124 187.081915 
L 194.557835 187.081915 
L 194.635561 186.852454 
L 194.746479 186.852454 
L 194.779952 186.622994 
L 195.150521 186.622994 
L 195.189762 186.393533 
L 195.323173 186.393533 
L 195.416924 185.934612 
L 195.506966 185.934612 
L 195.506966 185.819881 
L 195.796435 185.819881 
L 195.796435 185.705151 
L 195.975333 185.705151 
L 196.015879 185.47569 
L 196.149323 185.47569 
L 196.183297 185.246229 
L 196.373557 185.246229 
L 196.443613 184.902038 
L 196.576853 184.902038 
L 196.576853 184.787308 
L 196.759905 184.787308 
L 196.759905 184.672578 
L 196.994152 184.672578 
L 197.076427 184.443117 
L 197.370019 184.443117 
L 197.439063 184.098926 
L 197.484941 184.098926 
L 197.51927 183.869465 
L 197.672921 183.869465 
L 197.721014 183.525274 
L 197.80275 183.525274 
L 197.80275 183.410544 
L 197.945569 183.410544 
L 197.945569 183.295814 
L 198.098291 183.295814 
L 198.109346 183.066353 
L 198.219512 183.066353 
L 198.219512 182.951623 
L 198.397061 182.951623 
L 198.397061 182.836892 
L 198.527024 182.836892 
L 198.564748 182.607432 
L 198.698814 182.607432 
L 198.744163 182.377971 
L 198.831858 182.377971 
L 198.831858 182.263241 
L 198.961264 182.263241 
L 198.979672 182.03378 
L 199.074038 182.03378 
L 199.074038 181.91905 
L 199.206854 181.91905 
L 199.206854 181.804319 
L 199.454151 181.804319 
L 199.454151 181.689589 
L 200.383038 181.689589 
L 200.383038 181.574858 
L 200.561583 181.574858 
L 200.664498 181.115937 
L 200.69311 181.115937 
L 200.69311 181.001207 
L 200.80946 181.001207 
L 200.80946 180.886476 
L 201.105127 180.886476 
L 201.107454 180.657016 
L 201.239561 180.657016 
L 201.239561 180.542285 
L 201.491711 180.542285 
L 201.491711 180.427555 
L 201.625468 180.427555 
L 201.71557 179.968634 
L 201.912172 179.968634 
L 202.02069 179.394982 
L 202.040549 179.394982 
L 202.040549 179.280252 
L 202.172366 179.280252 
L 202.248801 179.050791 
L 202.60256 179.050791 
L 202.677137 178.82133 
L 202.725972 178.82133 
L 202.800024 178.59187 
L 202.972296 178.59187 
L 202.976477 178.362409 
L 203.444577 178.362409 
L 203.444577 178.247679 
L 203.606597 178.247679 
L 203.672994 178.018218 
L 203.741139 178.018218 
L 203.741139 177.903487 
L 203.92025 177.903487 
L 203.92025 177.788757 
L 204.075968 177.788757 
L 204.075968 177.674027 
L 204.296314 177.674027 
L 204.394858 177.444566 
L 204.489015 177.444566 
L 204.494764 177.215105 
L 204.609333 177.215105 
L 204.609333 177.100375 
L 204.838116 177.100375 
L 204.838116 176.985645 
L 205.4309 176.985645 
L 205.4309 176.870914 
L 205.550323 176.870914 
L 205.638459 176.641454 
L 205.870155 176.641454 
L 205.923189 176.411993 
L 206.639048 176.411993 
L 206.747136 176.182532 
L 206.765647 176.182532 
L 206.872955 175.838341 
L 206.914694 175.838341 
L 206.914694 175.723611 
L 207.029377 175.723611 
L 207.029377 175.608881 
L 207.284282 175.608881 
L 207.347837 175.37942 
L 207.45325 175.37942 
L 207.459716 175.149959 
L 207.690916 175.149959 
L 207.690916 175.035229 
L 207.857588 175.035229 
L 207.857588 174.920499 
L 208.089843 174.920499 
L 208.089843 174.805768 
L 208.289789 174.805768 
L 208.305193 174.576308 
L 208.507266 174.576308 
L 208.507266 174.461577 
L 208.980229 174.461577 
L 208.980229 174.346847 
L 209.231709 174.346847 
L 209.339422 174.117386 
L 209.951089 174.117386 
L 209.951089 174.002656 
L 210.540673 174.002656 
L 210.540673 173.887925 
L 210.876054 173.887925 
L 210.876054 173.773195 
L 212.037647 173.773195 
L 212.037647 173.658465 
L 212.165217 173.658465 
L 212.165217 173.543734 
L 212.454042 173.543734 
L 212.454042 173.429004 
L 212.866655 173.429004 
L 212.866655 173.314274 
L 213.498722 173.314274 
L 213.5888 173.084813 
L 214.46921 173.084813 
L 214.46921 172.970083 
L 214.63387 172.970083 
L 214.63387 172.855352 
L 215.220518 172.855352 
L 215.220518 172.740622 
L 215.896012 172.740622 
L 215.896012 172.625892 
L 217.33362 172.625892 
L 217.344627 172.396431 
L 219.970834 172.396431 
L 219.970834 172.281701 
L 223.732142 172.281701 
L 223.732142 172.16697 
L 223.863875 172.16697 
L 223.863875 172.05224 
L 224.185201 172.05224 
L 224.185201 171.93751 
L 225.903339 171.93751 
L 225.903339 171.822779 
L 228.331239 171.822779 
L 228.331239 171.708049 
L 234.14667 171.708049 
L 234.14667 171.593319 
L 338.688 171.593319 
L 338.688 171.593319 
" style="fill:none;stroke:#ff00ff;stroke-linecap:square;stroke-width:1.5;"/>
   </g>
   <g id="line2d_41">
    <defs>
     <path d="M -0 8.485281 
L 5.091169 0 
L 0 -8.485281 
L -5.091169 -0 
z
" id="m51c1471dbd" style="stroke:#ff00ff;stroke-linejoin:miter;stroke-width:1.5;"/>
    </defs>
    <g>
     <use style="fill-opacity:0;stroke:#ff00ff;stroke-linejoin:miter;stroke-width:1.5;" x="134.019394" xlink:href="#m51c1471dbd" y="251.675098"/>
     <use style="fill-opacity:0;stroke:#ff00ff;stroke-linejoin:miter;stroke-width:1.5;" x="199.074038" xlink:href="#m51c1471dbd" y="181.91905"/>
     <use style="fill-opacity:0;stroke:#ff00ff;stroke-linejoin:miter;stroke-width:1.5;" x="234.14667" xlink:href="#m51c1471dbd" y="171.708049"/>
     <use style="fill-opacity:0;stroke:#ff00ff;stroke-linejoin:miter;stroke-width:1.5;" x="234.14667" xlink:href="#m51c1471dbd" y="171.593319"/>
     <use style="fill-opacity:0;stroke:#ff00ff;stroke-linejoin:miter;stroke-width:1.5;" x="234.14667" xlink:href="#m51c1471dbd" y="171.593319"/>
     <use style="fill-opacity:0;stroke:#ff00ff;stroke-linejoin:miter;stroke-width:1.5;" x="338.688" xlink:href="#m51c1471dbd" y="171.593319"/>
    </g>
   </g>
   <g id="line2d_42">
    <path style="fill:none;stroke:#ff00ff;stroke-linecap:square;stroke-width:1.5;"/>
    <g/>
   </g>
   <g id="line2d_43">
    <path clip-path="url(#pa03b5b4d55)" d="M 151.621307 241.578828 
" style="fill:none;stroke:#ff00ff;stroke-linecap:square;stroke-width:1.5;"/>
    <defs>
     <path d="M -12 12 
L 12 -12 
M -12 -12 
L 12 12 
" id="m6979c5ebb2" style="stroke:#ff00ff;"/>
    </defs>
    <g clip-path="url(#pa03b5b4d55)">
     <use style="fill:#ff00ff;stroke:#ff00ff;" x="151.621307" xlink:href="#m6979c5ebb2" y="241.578828"/>
    </g>
   </g>
   <g id="line2d_44">
    <path d="M 338.688 226.663884 
L 369.60768 293.092752 
" style="fill:none;stroke:#000080;stroke-linecap:square;stroke-width:1.5;"/>
    <g>
     <use style="fill-opacity:0;stroke:#000080;stroke-width:1.5;" x="338.688" xlink:href="#mc2dc1c7c53" y="226.663884"/>
     <use style="fill-opacity:0;stroke:#000080;stroke-width:1.5;" x="369.60768" xlink:href="#mc2dc1c7c53" y="293.092752"/>
    </g>
   </g>
   <g id="line2d_45">
    <path d="M 338.688 171.593319 
L 369.60768 152.662812 
" style="fill:none;stroke:#ff00ff;stroke-linecap:square;stroke-width:1.5;"/>
    <g>
     <use style="fill-opacity:0;stroke:#ff00ff;stroke-linejoin:miter;stroke-width:1.5;" x="338.688" xlink:href="#m51c1471dbd" y="171.593319"/>
     <use style="fill-opacity:0;stroke:#ff00ff;stroke-linejoin:miter;stroke-width:1.5;" x="369.60768" xlink:href="#m51c1471dbd" y="152.662812"/>
    </g>
   </g>
   <g id="line2d_46">
    <path d="M 338.688 298.944 
L 338.688 6.381624 
" style="fill:none;stroke:#000000;stroke-linecap:square;stroke-width:1.5;"/>
   </g>
   <g id="patch_3">
    <path d="M 57.6 298.944 
L 57.6 3.456 
" style="fill:none;stroke:#000000;stroke-linecap:square;stroke-linejoin:miter;stroke-width:0.8;"/>
   </g>
   <g id="patch_4">
    <path d="M 338.688 298.944 
L 338.688 3.456 
" style="fill:none;stroke:#000000;stroke-linecap:square;stroke-linejoin:miter;stroke-width:0.8;"/>
   </g>
   <g id="patch_5">
    <path d="M 57.6 298.944 
L 338.688 298.944 
" style="fill:none;stroke:#000000;stroke-linecap:square;stroke-linejoin:miter;stroke-width:0.8;"/>
   </g>
   <g id="patch_6">
    <path d="M 57.6 3.456 
L 338.688 3.456 
" style="fill:none;stroke:#000000;stroke-linecap:square;stroke-linejoin:miter;stroke-width:0.8;"/>
   </g>
   <g id="text_13">
    <!-- gpy lcb -->
    <defs>
     <path d="M 32.171875 -5.078125 
Q 28.375 -14.84375 24.75 -17.8125 
Q 21.140625 -20.796875 15.09375 -20.796875 
L 7.90625 -20.796875 
L 7.90625 -13.28125 
L 13.1875 -13.28125 
Q 16.890625 -13.28125 18.9375 -11.515625 
Q 21 -9.765625 23.484375 -3.21875 
L 25.09375 0.875 
L 2.984375 54.6875 
L 12.5 54.6875 
L 29.59375 11.921875 
L 46.6875 54.6875 
L 56.203125 54.6875 
z
" id="DejaVuSans-121"/>
     <path d="M 48.6875 27.296875 
Q 48.6875 37.203125 44.609375 42.84375 
Q 40.53125 48.484375 33.40625 48.484375 
Q 26.265625 48.484375 22.1875 42.84375 
Q 18.109375 37.203125 18.109375 27.296875 
Q 18.109375 17.390625 22.1875 11.75 
Q 26.265625 6.109375 33.40625 6.109375 
Q 40.53125 6.109375 44.609375 11.75 
Q 48.6875 17.390625 48.6875 27.296875 
z
M 18.109375 46.390625 
Q 20.953125 51.265625 25.265625 53.625 
Q 29.59375 56 35.59375 56 
Q 45.5625 56 51.78125 48.09375 
Q 58.015625 40.1875 58.015625 27.296875 
Q 58.015625 14.40625 51.78125 6.484375 
Q 45.5625 -1.421875 35.59375 -1.421875 
Q 29.59375 -1.421875 25.265625 0.953125 
Q 20.953125 3.328125 18.109375 8.203125 
L 18.109375 0 
L 9.078125 0 
L 9.078125 75.984375 
L 18.109375 75.984375 
z
" id="DejaVuSans-98"/>
    </defs>
    <g transform="translate(375.22944 297.78369)scale(0.17 -0.17)">
     <use xlink:href="#DejaVuSans-103"/>
     <use x="63.476562" xlink:href="#DejaVuSans-112"/>
     <use x="126.953125" xlink:href="#DejaVuSans-121"/>
     <use x="186.132812" xlink:href="#DejaVuSans-32"/>
     <use x="217.919922" xlink:href="#DejaVuSans-108"/>
     <use x="245.703125" xlink:href="#DejaVuSans-99"/>
     <use x="300.683594" xlink:href="#DejaVuSans-98"/>
    </g>
   </g>
   <g id="text_14">
    <!-- scp fmin -->
    <g transform="translate(375.22944 157.353749)scale(0.17 -0.17)">
     <use xlink:href="#DejaVuSans-115"/>
     <use x="52.099609" xlink:href="#DejaVuSans-99"/>
     <use x="107.080078" xlink:href="#DejaVuSans-112"/>
     <use x="170.556641" xlink:href="#DejaVuSans-32"/>
     <use x="202.34375" xlink:href="#DejaVuSans-102"/>
     <use x="237.548828" xlink:href="#DejaVuSans-109"/>
     <use x="334.960938" xlink:href="#DejaVuSans-105"/>
     <use x="362.744141" xlink:href="#DejaVuSans-110"/>
    </g>
   </g>
   <g id="text_15">
    <!-- best 2009 -->
    <defs>
     <path d="M 10.984375 1.515625 
L 10.984375 10.5 
Q 14.703125 8.734375 18.5 7.8125 
Q 22.3125 6.890625 25.984375 6.890625 
Q 35.75 6.890625 40.890625 13.453125 
Q 46.046875 20.015625 46.78125 33.40625 
Q 43.953125 29.203125 39.59375 26.953125 
Q 35.25 24.703125 29.984375 24.703125 
Q 19.046875 24.703125 12.671875 31.3125 
Q 6.296875 37.9375 6.296875 49.421875 
Q 6.296875 60.640625 12.9375 67.421875 
Q 19.578125 74.21875 30.609375 74.21875 
Q 43.265625 74.21875 49.921875 64.515625 
Q 56.59375 54.828125 56.59375 36.375 
Q 56.59375 19.140625 48.40625 8.859375 
Q 40.234375 -1.421875 26.421875 -1.421875 
Q 22.703125 -1.421875 18.890625 -0.6875 
Q 15.09375 0.046875 10.984375 1.515625 
z
M 30.609375 32.421875 
Q 37.25 32.421875 41.125 36.953125 
Q 45.015625 41.5 45.015625 49.421875 
Q 45.015625 57.28125 41.125 61.84375 
Q 37.25 66.40625 30.609375 66.40625 
Q 23.96875 66.40625 20.09375 61.84375 
Q 16.21875 57.28125 16.21875 49.421875 
Q 16.21875 41.5 20.09375 36.953125 
Q 23.96875 32.421875 30.609375 32.421875 
z
" id="DejaVuSans-57"/>
    </defs>
    <g transform="translate(375.22944 16.923809)scale(0.17 -0.17)">
     <use xlink:href="#DejaVuSans-98"/>
     <use x="63.476562" xlink:href="#DejaVuSans-101"/>
     <use x="125" xlink:href="#DejaVuSans-115"/>
     <use x="177.099609" xlink:href="#DejaVuSans-116"/>
     <use x="216.308594" xlink:href="#DejaVuSans-32"/>
     <use x="248.095703" xlink:href="#DejaVuSans-50"/>
     <use x="311.71875" xlink:href="#DejaVuSans-48"/>
     <use x="375.341797" xlink:href="#DejaVuSans-48"/>
     <use x="438.964844" xlink:href="#DejaVuSans-57"/>
    </g>
   </g>
   <g id="text_16">
    <!-- bbob f15-f19, 2-D -->
    <defs>
     <path d="M 10.796875 72.90625 
L 49.515625 72.90625 
L 49.515625 64.59375 
L 19.828125 64.59375 
L 19.828125 46.734375 
Q 21.96875 47.46875 24.109375 47.828125 
Q 26.265625 48.1875 28.421875 48.1875 
Q 40.625 48.1875 47.75 41.5 
Q 54.890625 34.8125 54.890625 23.390625 
Q 54.890625 11.625 47.5625 5.09375 
Q 40.234375 -1.421875 26.90625 -1.421875 
Q 22.3125 -1.421875 17.546875 -0.640625 
Q 12.796875 0.140625 7.71875 1.703125 
L 7.71875 11.625 
Q 12.109375 9.234375 16.796875 8.0625 
Q 21.484375 6.890625 26.703125 6.890625 
Q 35.15625 6.890625 40.078125 11.328125 
Q 45.015625 15.765625 45.015625 23.390625 
Q 45.015625 31 40.078125 35.4375 
Q 35.15625 39.890625 26.703125 39.890625 
Q 22.75 39.890625 18.8125 39.015625 
Q 14.890625 38.140625 10.796875 36.28125 
z
" id="DejaVuSans-53"/>
     <path d="M 19.671875 64.796875 
L 19.671875 8.109375 
L 31.59375 8.109375 
Q 46.6875 8.109375 53.6875 14.9375 
Q 60.6875 21.78125 60.6875 36.53125 
Q 60.6875 51.171875 53.6875 57.984375 
Q 46.6875 64.796875 31.59375 64.796875 
z
M 9.8125 72.90625 
L 30.078125 72.90625 
Q 51.265625 72.90625 61.171875 64.09375 
Q 71.09375 55.28125 71.09375 36.53125 
Q 71.09375 17.671875 61.125 8.828125 
Q 51.171875 0 30.078125 0 
L 9.8125 0 
z
" id="DejaVuSans-68"/>
    </defs>
    <g transform="translate(60.41088 14.161286)scale(0.102 -0.102)">
     <use xlink:href="#DejaVuSans-98"/>
     <use x="63.476562" xlink:href="#DejaVuSans-98"/>
     <use x="126.953125" xlink:href="#DejaVuSans-111"/>
     <use x="188.134766" xlink:href="#DejaVuSans-98"/>
     <use x="251.611328" xlink:href="#DejaVuSans-32"/>
     <use x="283.398438" xlink:href="#DejaVuSans-102"/>
     <use x="318.603516" xlink:href="#DejaVuSans-49"/>
     <use x="382.226562" xlink:href="#DejaVuSans-53"/>
     <use x="445.849609" xlink:href="#DejaVuSans-45"/>
     <use x="481.933594" xlink:href="#DejaVuSans-102"/>
     <use x="517.138672" xlink:href="#DejaVuSans-49"/>
     <use x="580.761719" xlink:href="#DejaVuSans-57"/>
     <use x="644.384766" xlink:href="#DejaVuSans-44"/>
     <use x="676.171875" xlink:href="#DejaVuSans-32"/>
     <use x="707.958984" xlink:href="#DejaVuSans-50"/>
     <use x="771.582031" xlink:href="#DejaVuSans-45"/>
     <use x="807.666016" xlink:href="#DejaVuSans-68"/>
    </g>
    <!-- 51 targets: 100..1e-08 -->
    <defs>
     <path d="M 11.71875 12.40625 
L 22.015625 12.40625 
L 22.015625 0 
L 11.71875 0 
z
M 11.71875 51.703125 
L 22.015625 51.703125 
L 22.015625 39.3125 
L 11.71875 39.3125 
z
" id="DejaVuSans-58"/>
    </defs>
    <g transform="translate(60.41088 25.583055)scale(0.102 -0.102)">
     <use xlink:href="#DejaVuSans-53"/>
     <use x="63.623047" xlink:href="#DejaVuSans-49"/>
     <use x="127.246094" xlink:href="#DejaVuSans-32"/>
     <use x="159.033203" xlink:href="#DejaVuSans-116"/>
     <use x="198.242188" xlink:href="#DejaVuSans-97"/>
     <use x="259.521484" xlink:href="#DejaVuSans-114"/>
     <use x="298.884766" xlink:href="#DejaVuSans-103"/>
     <use x="362.361328" xlink:href="#DejaVuSans-101"/>
     <use x="423.884766" xlink:href="#DejaVuSans-116"/>
     <use x="463.09375" xlink:href="#DejaVuSans-115"/>
     <use x="515.193359" xlink:href="#DejaVuSans-58"/>
     <use x="548.884766" xlink:href="#DejaVuSans-32"/>
     <use x="580.671875" xlink:href="#DejaVuSans-49"/>
     <use x="644.294922" xlink:href="#DejaVuSans-48"/>
     <use x="707.917969" xlink:href="#DejaVuSans-48"/>
     <use x="771.541016" xlink:href="#DejaVuSans-46"/>
     <use x="803.328125" xlink:href="#DejaVuSans-46"/>
     <use x="835.115234" xlink:href="#DejaVuSans-49"/>
     <use x="898.738281" xlink:href="#DejaVuSans-101"/>
     <use x="960.261719" xlink:href="#DejaVuSans-45"/>
     <use x="996.345703" xlink:href="#DejaVuSans-48"/>
     <use x="1059.96875" xlink:href="#DejaVuSans-56"/>
    </g>
    <!-- 15 instances -->
    <g transform="translate(60.41088 37.004824)scale(0.102 -0.102)">
     <use xlink:href="#DejaVuSans-49"/>
     <use x="63.623047" xlink:href="#DejaVuSans-53"/>
     <use x="127.246094" xlink:href="#DejaVuSans-32"/>
     <use x="159.033203" xlink:href="#DejaVuSans-105"/>
     <use x="186.816406" xlink:href="#DejaVuSans-110"/>
     <use x="250.195312" xlink:href="#DejaVuSans-115"/>
     <use x="302.294922" xlink:href="#DejaVuSans-116"/>
     <use x="341.503906" xlink:href="#DejaVuSans-97"/>
     <use x="402.783203" xlink:href="#DejaVuSans-110"/>
     <use x="466.162109" xlink:href="#DejaVuSans-99"/>
     <use x="521.142578" xlink:href="#DejaVuSans-101"/>
     <use x="582.666016" xlink:href="#DejaVuSans-115"/>
    </g>
   </g>
   <g id="text_17">
    <!-- v2.3.3.5 -->
    <defs>
     <path d="M 40.578125 39.3125 
Q 47.65625 37.796875 51.625 33 
Q 55.609375 28.21875 55.609375 21.1875 
Q 55.609375 10.40625 48.1875 4.484375 
Q 40.765625 -1.421875 27.09375 -1.421875 
Q 22.515625 -1.421875 17.65625 -0.515625 
Q 12.796875 0.390625 7.625 2.203125 
L 7.625 11.71875 
Q 11.71875 9.328125 16.59375 8.109375 
Q 21.484375 6.890625 26.8125 6.890625 
Q 36.078125 6.890625 40.9375 10.546875 
Q 45.796875 14.203125 45.796875 21.1875 
Q 45.796875 27.640625 41.28125 31.265625 
Q 36.765625 34.90625 28.71875 34.90625 
L 20.21875 34.90625 
L 20.21875 43.015625 
L 29.109375 43.015625 
Q 36.375 43.015625 40.234375 45.921875 
Q 44.09375 48.828125 44.09375 54.296875 
Q 44.09375 59.90625 40.109375 62.90625 
Q 36.140625 65.921875 28.71875 65.921875 
Q 24.65625 65.921875 20.015625 65.03125 
Q 15.375 64.15625 9.8125 62.3125 
L 9.8125 71.09375 
Q 15.4375 72.65625 20.34375 73.4375 
Q 25.25 74.21875 29.59375 74.21875 
Q 40.828125 74.21875 47.359375 69.109375 
Q 53.90625 64.015625 53.90625 55.328125 
Q 53.90625 49.265625 50.4375 45.09375 
Q 46.96875 40.921875 40.578125 39.3125 
z
" id="DejaVuSans-51"/>
    </defs>
    <g style="fill:#808080;" transform="translate(177.692437 293.909432)scale(0.1 -0.1)">
     <use xlink:href="#DejaVuSans-118"/>
     <use x="59.179688" xlink:href="#DejaVuSans-50"/>
     <use x="122.802734" xlink:href="#DejaVuSans-46"/>
     <use x="154.589844" xlink:href="#DejaVuSans-51"/>
     <use x="218.212891" xlink:href="#DejaVuSans-46"/>
     <use x="250" xlink:href="#DejaVuSans-51"/>
     <use x="313.623047" xlink:href="#DejaVuSans-46"/>
     <use x="345.410156" xlink:href="#DejaVuSans-53"/>
    </g>
   </g>
  </g>
 </g>
 <defs>
  <clipPath id="pa03b5b4d55">
   <rect height="295.488" width="281.088" x="57.6" y="3.456"/>
  </clipPath>
 </defs>
</svg>
