<?xml version="1.0" encoding="utf-8" standalone="no"?>
<!DOCTYPE svg PUBLIC "-//W3C//DTD SVG 1.1//EN"
  "http://www.w3.org/Graphics/SVG/1.1/DTD/svg11.dtd">
<!-- Created with matplotlib (https://matplotlib.org/) -->
<svg height="345.6pt" version="1.1" viewBox="0 0 460.8 345.6" width="460.8pt" xmlns="http://www.w3.org/2000/svg" xmlns:xlink="http://www.w3.org/1999/xlink">
 <defs>
  <style type="text/css">
*{stroke-linecap:butt;stroke-linejoin:round;}
  </style>
 </defs>
 <g id="figure_1">
  <g id="patch_1">
   <path d="M 0 345.6 
L 460.8 345.6 
L 460.8 0 
L 0 0 
z
" style="fill:#ffffff;"/>
  </g>
  <g id="axes_1">
   <g id="patch_2">
    <path d="M 57.6 298.944 
L 338.688 298.944 
L 338.688 3.456 
L 57.6 3.456 
z
" style="fill:#ffffff;"/>
   </g>
   <g id="line2d_1">
    <path d="M 38.440992 298.944 
L 38.440992 275.997931 
L 50.52898 275.997931 
L 50.52898 271.408718 
L 57.6 271.408718 
L 57.6 270.261414 
L 62.616969 270.261414 
L 62.616969 269.114111 
L 66.508432 269.114111 
L 66.508432 267.966807 
L 69.687988 267.966807 
L 69.687988 266.819504 
L 74.704957 266.819504 
L 74.704957 265.6722 
L 78.59642 265.6722 
L 78.59642 264.524897 
L 81.775977 264.524897 
L 81.775977 263.377593 
L 83.171864 263.377593 
L 83.171864 262.23029 
L 84.464254 262.23029 
L 84.464254 261.082987 
L 91.535274 261.082987 
L 91.535274 259.935683 
L 95.259853 259.935683 
L 95.259853 258.78838 
L 95.918017 258.78838 
L 95.918017 257.641076 
L 99.938184 257.641076 
L 99.938184 256.493773 
L 102.772397 256.493773 
L 102.772397 255.346469 
L 103.203018 255.346469 
L 103.203018 254.199166 
L 107.680028 254.199166 
L 107.680028 253.051863 
L 108.640231 253.051863 
L 108.640231 251.904559 
L 110.694282 251.904559 
L 110.694282 250.757256 
L 112.026172 250.757256 
L 112.026172 248.462649 
L 114.418861 248.462649 
L 114.418861 247.315345 
L 115.077025 247.315345 
L 115.077025 246.168042 
L 116.121606 246.168042 
L 116.121606 245.020738 
L 118.751849 245.020738 
L 118.751849 243.873435 
L 120.254726 243.873435 
L 120.254726 241.578828 
L 121.638301 241.578828 
L 121.638301 240.431525 
L 121.785469 240.431525 
L 121.785469 238.136918 
L 122.076131 238.136918 
L 122.076131 236.989614 
L 124.241922 236.989614 
L 124.241922 235.842311 
L 125.23165 235.842311 
L 125.23165 233.547704 
L 129.385722 233.547704 
L 129.385722 232.400401 
L 129.853291 232.400401 
L 129.853291 231.253097 
L 131.523818 231.253097 
L 131.523818 230.105794 
L 132.581068 230.105794 
L 132.581068 228.95849 
L 134.236034 228.95849 
L 134.236034 227.811187 
L 135.482227 227.811187 
L 135.482227 226.663884 
L 136.831795 226.663884 
L 136.831795 225.51658 
L 138.981779 225.51658 
L 138.981779 224.369277 
L 139.572998 224.369277 
L 139.572998 223.221973 
L 141.138789 223.221973 
L 141.138789 222.07467 
L 142.306513 222.07467 
L 142.306513 220.927366 
L 143.014805 220.927366 
L 143.014805 219.780063 
L 143.187472 219.780063 
L 143.187472 218.632759 
L 144.629556 218.632759 
L 144.629556 217.485456 
L 145.212864 217.485456 
L 145.212864 216.338153 
L 146.107383 216.338153 
L 146.107383 215.190849 
L 146.502522 215.190849 
L 146.502522 214.043546 
L 146.819289 214.043546 
L 146.819289 212.896242 
L 148.193699 212.896242 
L 148.193699 211.748939 
L 148.48143 211.748939 
L 148.48143 210.601635 
L 149.467659 210.601635 
L 149.467659 209.454332 
L 150.457801 209.454332 
L 150.457801 208.307029 
L 151.421542 208.307029 
L 151.421542 207.159725 
L 151.76636 207.159725 
L 151.76636 206.012422 
L 152.078714 206.012422 
L 152.078714 204.865118 
L 152.983548 204.865118 
L 152.983548 203.717815 
L 153.537988 203.717815 
L 153.537988 202.570511 
L 154.77436 202.570511 
L 154.840544 200.275904 
L 155.720743 200.275904 
L 155.720743 199.128601 
L 157.735205 199.128601 
L 157.735205 197.981298 
L 159.456591 197.981298 
L 159.456591 196.833994 
L 161.100288 196.833994 
L 161.100288 195.686691 
L 162.517456 195.686691 
L 162.517456 194.539387 
L 163.225959 194.539387 
L 163.33453 192.24478 
L 163.841212 192.24478 
L 163.841212 191.097477 
L 164.050224 191.097477 
L 164.076176 188.80287 
L 164.308016 188.80287 
L 164.308016 187.655567 
L 164.42279 187.655567 
L 164.42279 186.508263 
L 165.096013 186.508263 
L 165.157053 184.213656 
L 165.363008 184.213656 
L 165.363008 183.066353 
L 166.151824 183.066353 
L 166.151824 181.91905 
L 167.298899 181.91905 
L 167.298899 180.771746 
L 167.59811 180.771746 
L 167.59811 179.624443 
L 168.77585 179.624443 
L 168.77585 178.477139 
L 169.225542 178.477139 
L 169.225542 177.329836 
L 169.3984 177.329836 
L 169.3984 176.182532 
L 169.767149 176.182532 
L 169.767149 175.035229 
L 170.237885 175.035229 
L 170.237885 173.887925 
L 170.455087 173.887925 
L 170.455087 172.740622 
L 170.5984 172.740622 
L 170.5984 171.593319 
L 171.177424 171.593319 
L 171.177424 170.446015 
L 171.687629 170.446015 
L 171.687629 169.298712 
L 171.879317 169.298712 
L 171.879317 168.151408 
L 172.264595 168.151408 
L 172.337411 165.856801 
L 173.785389 165.856801 
L 173.785389 164.709498 
L 176.912855 164.709498 
L 176.968661 162.414891 
L 178.066286 162.414891 
L 178.066286 161.267588 
L 178.239812 161.267588 
L 178.239812 160.120284 
L 178.547874 160.120284 
L 178.643741 157.825677 
L 178.889448 157.825677 
L 178.961385 154.383767 
L 179.093418 154.383767 
L 179.093418 153.236464 
L 179.213577 153.236464 
L 179.213577 152.08916 
L 179.343721 152.08916 
L 179.429948 148.64725 
L 179.494339 148.64725 
L 179.521099 146.352643 
L 179.622413 146.352643 
L 179.69669 142.910733 
L 179.812776 142.910733 
L 179.907185 137.174215 
L 179.969841 137.174215 
L 180.047846 134.879609 
L 180.115169 134.879609 
L 180.202817 130.290395 
L 180.264422 130.290395 
L 180.32581 127.995788 
L 180.386982 127.995788 
L 180.417488 124.553878 
L 180.599412 124.553878 
L 180.599412 123.406574 
L 180.764525 123.406574 
L 180.868789 119.964664 
L 180.997019 119.964664 
L 180.997019 118.817361 
L 181.114555 118.817361 
L 181.197333 116.522754 
L 181.657549 116.522754 
L 181.657549 115.37545 
L 181.775431 115.37545 
L 181.775431 114.228147 
L 182.031998 114.228147 
L 182.031998 113.080843 
L 182.384967 113.080843 
L 182.384967 111.93354 
L 182.832957 111.93354 
L 182.832957 110.786236 
L 183.243826 110.786236 
L 183.338605 108.49163 
L 183.725263 108.49163 
L 183.725263 107.344326 
L 184.733501 107.344326 
L 184.733501 106.197023 
L 186.036086 106.197023 
L 186.036086 105.049719 
L 187.316641 105.049719 
L 187.316641 103.902416 
L 187.469872 103.902416 
L 187.469872 102.755112 
L 187.631848 102.755112 
L 187.732324 100.460506 
L 187.762355 100.460506 
L 187.762355 99.313202 
L 187.974425 99.313202 
L 187.974425 98.165899 
L 188.278065 98.165899 
L 188.278065 97.018595 
L 188.416691 97.018595 
L 188.416691 95.871292 
L 188.573327 95.871292 
L 188.573327 94.723988 
L 188.72226 94.723988 
L 188.72226 93.576685 
L 188.841751 93.576685 
L 188.926157 91.282078 
L 189.062839 91.282078 
L 189.161575 88.987471 
L 189.247514 88.987471 
L 189.247514 87.840168 
L 190.666936 87.840168 
L 190.71485 85.545561 
L 190.78227 85.545561 
L 190.87176 83.250954 
L 190.963568 83.250954 
L 191.016209 80.956347 
L 191.702424 80.956347 
L 191.702424 79.809044 
L 192.244459 79.809044 
L 192.244459 78.66174 
L 193.683923 78.66174 
L 193.790427 64.894099 
L 193.80222 64.894099 
L 193.908006 49.979154 
L 193.91972 49.979154 
L 194.003833 44.242637 
L 195.593355 44.242637 
L 195.693075 41.94803 
L 195.775391 41.94803 
L 195.880358 38.50612 
L 195.943037 38.50612 
L 196.02626 36.211513 
L 196.082211 36.211513 
L 196.189467 32.769603 
L 196.265384 32.769603 
L 196.314451 30.474996 
L 196.408112 30.474996 
L 196.509351 28.180389 
L 196.585901 28.180389 
L 196.626056 25.885782 
L 196.704093 25.885782 
L 196.807602 23.591175 
L 196.837347 23.591175 
L 196.896684 21.296568 
L 196.949916 21.296568 
L 197.050024 19.001962 
L 197.061763 19.001962 
L 197.130088 16.707355 
L 197.178727 16.707355 
L 197.227232 14.412748 
L 197.292982 14.412748 
L 197.393064 10.970838 
L 197.471572 10.970838 
L 197.574437 8.676231 
L 197.614276 8.676231 
L 197.706883 6.381624 
L 338.688 6.381624 
L 338.688 6.381624 
" style="fill:none;stroke:#f5deb3;stroke-linecap:square;stroke-width:4;"/>
   </g>
   <g id="line2d_2">
    <defs>
     <path d="M -0 7.778175 
L 7.778175 0 
L 0 -7.778175 
L -7.778175 -0 
z
" id="mef48c62b54" style="stroke:#f5deb3;stroke-linejoin:miter;stroke-width:1.5;"/>
    </defs>
    <g>
     <use style="fill:#f5deb3;stroke:#f5deb3;stroke-linejoin:miter;stroke-width:1.5;" x="84.464254" xlink:href="#mef48c62b54" y="262.23029"/>
     <use style="fill:#f5deb3;stroke:#f5deb3;stroke-linejoin:miter;stroke-width:1.5;" x="139.572998" xlink:href="#mef48c62b54" y="224.369277"/>
     <use style="fill:#f5deb3;stroke:#f5deb3;stroke-linejoin:miter;stroke-width:1.5;" x="180.32581" xlink:href="#mef48c62b54" y="129.143091"/>
     <use style="fill:#f5deb3;stroke:#f5deb3;stroke-linejoin:miter;stroke-width:1.5;" x="197.706883" xlink:href="#mef48c62b54" y="7.528927"/>
     <use style="fill:#f5deb3;stroke:#f5deb3;stroke-linejoin:miter;stroke-width:1.5;" x="197.706883" xlink:href="#mef48c62b54" y="6.381624"/>
     <use style="fill:#f5deb3;stroke:#f5deb3;stroke-linejoin:miter;stroke-width:1.5;" x="338.688" xlink:href="#mef48c62b54" y="6.381624"/>
    </g>
   </g>
   <g id="line2d_3">
    <path style="fill:none;stroke:#f5deb3;stroke-linecap:square;stroke-width:4;"/>
    <g/>
   </g>
   <g id="line2d_4">
    <path d="M 338.688 6.381624 
L 369.60768 12.232871 
" style="fill:none;stroke:#f5deb3;stroke-linecap:square;stroke-width:4;"/>
    <g>
     <use style="fill:#f5deb3;stroke:#f5deb3;stroke-linejoin:miter;stroke-width:1.5;" x="338.688" xlink:href="#mef48c62b54" y="6.381624"/>
     <use style="fill:#f5deb3;stroke:#f5deb3;stroke-linejoin:miter;stroke-width:1.5;" x="369.60768" xlink:href="#mef48c62b54" y="12.232871"/>
    </g>
   </g>
   <g id="matplotlib.axis_1">
    <g id="xtick_1">
     <g id="line2d_5">
      <path clip-path="url(#p821213f934)" d="M 57.6 298.944 
L 57.6 3.456 
" style="fill:none;stroke:#b0b0b0;stroke-linecap:square;stroke-width:0.8;"/>
     </g>
     <g id="line2d_6">
      <defs>
       <path d="M 0 0 
L 0 3.5 
" id="m55501c5c1f" style="stroke:#000000;stroke-width:0.8;"/>
      </defs>
      <g>
       <use style="stroke:#000000;stroke-width:0.8;" x="57.6" xlink:href="#m55501c5c1f" y="298.944"/>
      </g>
     </g>
     <g id="text_1">
      <!-- 0 -->
      <defs>
       <path d="M 31.78125 66.40625 
Q 24.171875 66.40625 20.328125 58.90625 
Q 16.5 51.421875 16.5 36.375 
Q 16.5 21.390625 20.328125 13.890625 
Q 24.171875 6.390625 31.78125 6.390625 
Q 39.453125 6.390625 43.28125 13.890625 
Q 47.125 21.390625 47.125 36.375 
Q 47.125 51.421875 43.28125 58.90625 
Q 39.453125 66.40625 31.78125 66.40625 
z
M 31.78125 74.21875 
Q 44.046875 74.21875 50.515625 64.515625 
Q 56.984375 54.828125 56.984375 36.375 
Q 56.984375 17.96875 50.515625 8.265625 
Q 44.046875 -1.421875 31.78125 -1.421875 
Q 19.53125 -1.421875 13.0625 8.265625 
Q 6.59375 17.96875 6.59375 36.375 
Q 6.59375 54.828125 13.0625 64.515625 
Q 19.53125 74.21875 31.78125 74.21875 
z
" id="DejaVuSans-48"/>
      </defs>
      <g transform="translate(51.2375 321.140875)scale(0.2 -0.2)">
       <use xlink:href="#DejaVuSans-48"/>
      </g>
     </g>
    </g>
    <g id="xtick_2">
     <g id="line2d_7">
      <path clip-path="url(#p821213f934)" d="M 137.910857 298.944 
L 137.910857 3.456 
" style="fill:none;stroke:#b0b0b0;stroke-linecap:square;stroke-width:0.8;"/>
     </g>
     <g id="line2d_8">
      <g>
       <use style="stroke:#000000;stroke-width:0.8;" x="137.910857" xlink:href="#m55501c5c1f" y="298.944"/>
      </g>
     </g>
     <g id="text_2">
      <!-- 2 -->
      <defs>
       <path d="M 19.1875 8.296875 
L 53.609375 8.296875 
L 53.609375 0 
L 7.328125 0 
L 7.328125 8.296875 
Q 12.9375 14.109375 22.625 23.890625 
Q 32.328125 33.6875 34.8125 36.53125 
Q 39.546875 41.84375 41.421875 45.53125 
Q 43.3125 49.21875 43.3125 52.78125 
Q 43.3125 58.59375 39.234375 62.25 
Q 35.15625 65.921875 28.609375 65.921875 
Q 23.96875 65.921875 18.8125 64.3125 
Q 13.671875 62.703125 7.8125 59.421875 
L 7.8125 69.390625 
Q 13.765625 71.78125 18.9375 73 
Q 24.125 74.21875 28.421875 74.21875 
Q 39.75 74.21875 46.484375 68.546875 
Q 53.21875 62.890625 53.21875 53.421875 
Q 53.21875 48.921875 51.53125 44.890625 
Q 49.859375 40.875 45.40625 35.40625 
Q 44.1875 33.984375 37.640625 27.21875 
Q 31.109375 20.453125 19.1875 8.296875 
z
" id="DejaVuSans-50"/>
      </defs>
      <g transform="translate(131.548357 321.140875)scale(0.2 -0.2)">
       <use xlink:href="#DejaVuSans-50"/>
      </g>
     </g>
    </g>
    <g id="xtick_3">
     <g id="line2d_9">
      <path clip-path="url(#p821213f934)" d="M 218.221714 298.944 
L 218.221714 3.456 
" style="fill:none;stroke:#b0b0b0;stroke-linecap:square;stroke-width:0.8;"/>
     </g>
     <g id="line2d_10">
      <g>
       <use style="stroke:#000000;stroke-width:0.8;" x="218.221714" xlink:href="#m55501c5c1f" y="298.944"/>
      </g>
     </g>
     <g id="text_3">
      <!-- 4 -->
      <defs>
       <path d="M 37.796875 64.3125 
L 12.890625 25.390625 
L 37.796875 25.390625 
z
M 35.203125 72.90625 
L 47.609375 72.90625 
L 47.609375 25.390625 
L 58.015625 25.390625 
L 58.015625 17.1875 
L 47.609375 17.1875 
L 47.609375 0 
L 37.796875 0 
L 37.796875 17.1875 
L 4.890625 17.1875 
L 4.890625 26.703125 
z
" id="DejaVuSans-52"/>
      </defs>
      <g transform="translate(211.859214 321.140875)scale(0.2 -0.2)">
       <use xlink:href="#DejaVuSans-52"/>
      </g>
     </g>
    </g>
    <g id="xtick_4">
     <g id="line2d_11">
      <path clip-path="url(#p821213f934)" d="M 298.532571 298.944 
L 298.532571 3.456 
" style="fill:none;stroke:#b0b0b0;stroke-linecap:square;stroke-width:0.8;"/>
     </g>
     <g id="line2d_12">
      <g>
       <use style="stroke:#000000;stroke-width:0.8;" x="298.532571" xlink:href="#m55501c5c1f" y="298.944"/>
      </g>
     </g>
     <g id="text_4">
      <!-- 6 -->
      <defs>
       <path d="M 33.015625 40.375 
Q 26.375 40.375 22.484375 35.828125 
Q 18.609375 31.296875 18.609375 23.390625 
Q 18.609375 15.53125 22.484375 10.953125 
Q 26.375 6.390625 33.015625 6.390625 
Q 39.65625 6.390625 43.53125 10.953125 
Q 47.40625 15.53125 47.40625 23.390625 
Q 47.40625 31.296875 43.53125 35.828125 
Q 39.65625 40.375 33.015625 40.375 
z
M 52.59375 71.296875 
L 52.59375 62.3125 
Q 48.875 64.0625 45.09375 64.984375 
Q 41.3125 65.921875 37.59375 65.921875 
Q 27.828125 65.921875 22.671875 59.328125 
Q 17.53125 52.734375 16.796875 39.40625 
Q 19.671875 43.65625 24.015625 45.921875 
Q 28.375 48.1875 33.59375 48.1875 
Q 44.578125 48.1875 50.953125 41.515625 
Q 57.328125 34.859375 57.328125 23.390625 
Q 57.328125 12.15625 50.6875 5.359375 
Q 44.046875 -1.421875 33.015625 -1.421875 
Q 20.359375 -1.421875 13.671875 8.265625 
Q 6.984375 17.96875 6.984375 36.375 
Q 6.984375 53.65625 15.1875 63.9375 
Q 23.390625 74.21875 37.203125 74.21875 
Q 40.921875 74.21875 44.703125 73.484375 
Q 48.484375 72.75 52.59375 71.296875 
z
" id="DejaVuSans-54"/>
      </defs>
      <g transform="translate(292.170071 321.140875)scale(0.2 -0.2)">
       <use xlink:href="#DejaVuSans-54"/>
      </g>
     </g>
    </g>
    <g id="xtick_5">
     <g id="line2d_13">
      <path clip-path="url(#p821213f934)" d="M 97.755429 298.944 
L 97.755429 3.456 
" style="fill:none;stroke:#b0b0b0;stroke-linecap:square;stroke-width:0.8;"/>
     </g>
     <g id="line2d_14">
      <defs>
       <path d="M 0 0 
L 0 2 
" id="m6075f472bd" style="stroke:#000000;stroke-width:0.6;"/>
      </defs>
      <g>
       <use style="stroke:#000000;stroke-width:0.6;" x="97.755429" xlink:href="#m6075f472bd" y="298.944"/>
      </g>
     </g>
    </g>
    <g id="xtick_6">
     <g id="line2d_15">
      <path clip-path="url(#p821213f934)" d="M 178.066286 298.944 
L 178.066286 3.456 
" style="fill:none;stroke:#b0b0b0;stroke-linecap:square;stroke-width:0.8;"/>
     </g>
     <g id="line2d_16">
      <g>
       <use style="stroke:#000000;stroke-width:0.6;" x="178.066286" xlink:href="#m6075f472bd" y="298.944"/>
      </g>
     </g>
    </g>
    <g id="xtick_7">
     <g id="line2d_17">
      <path clip-path="url(#p821213f934)" d="M 258.377143 298.944 
L 258.377143 3.456 
" style="fill:none;stroke:#b0b0b0;stroke-linecap:square;stroke-width:0.8;"/>
     </g>
     <g id="line2d_18">
      <g>
       <use style="stroke:#000000;stroke-width:0.6;" x="258.377143" xlink:href="#m6075f472bd" y="298.944"/>
      </g>
     </g>
    </g>
    <g id="xtick_8">
     <g id="line2d_19">
      <path clip-path="url(#p821213f934)" d="M 338.688 298.944 
L 338.688 3.456 
" style="fill:none;stroke:#b0b0b0;stroke-linecap:square;stroke-width:0.8;"/>
     </g>
     <g id="line2d_20">
      <g>
       <use style="stroke:#000000;stroke-width:0.6;" x="338.688" xlink:href="#m6075f472bd" y="298.944"/>
      </g>
     </g>
    </g>
    <g id="text_5">
     <!-- log10(# f-evals / dimension) -->
     <defs>
      <path d="M 9.421875 75.984375 
L 18.40625 75.984375 
L 18.40625 0 
L 9.421875 0 
z
" id="DejaVuSans-108"/>
      <path d="M 30.609375 48.390625 
Q 23.390625 48.390625 19.1875 42.75 
Q 14.984375 37.109375 14.984375 27.296875 
Q 14.984375 17.484375 19.15625 11.84375 
Q 23.34375 6.203125 30.609375 6.203125 
Q 37.796875 6.203125 41.984375 11.859375 
Q 46.1875 17.53125 46.1875 27.296875 
Q 46.1875 37.015625 41.984375 42.703125 
Q 37.796875 48.390625 30.609375 48.390625 
z
M 30.609375 56 
Q 42.328125 56 49.015625 48.375 
Q 55.71875 40.765625 55.71875 27.296875 
Q 55.71875 13.875 49.015625 6.21875 
Q 42.328125 -1.421875 30.609375 -1.421875 
Q 18.84375 -1.421875 12.171875 6.21875 
Q 5.515625 13.875 5.515625 27.296875 
Q 5.515625 40.765625 12.171875 48.375 
Q 18.84375 56 30.609375 56 
z
" id="DejaVuSans-111"/>
      <path d="M 45.40625 27.984375 
Q 45.40625 37.75 41.375 43.109375 
Q 37.359375 48.484375 30.078125 48.484375 
Q 22.859375 48.484375 18.828125 43.109375 
Q 14.796875 37.75 14.796875 27.984375 
Q 14.796875 18.265625 18.828125 12.890625 
Q 22.859375 7.515625 30.078125 7.515625 
Q 37.359375 7.515625 41.375 12.890625 
Q 45.40625 18.265625 45.40625 27.984375 
z
M 54.390625 6.78125 
Q 54.390625 -7.171875 48.1875 -13.984375 
Q 42 -20.796875 29.203125 -20.796875 
Q 24.46875 -20.796875 20.265625 -20.09375 
Q 16.0625 -19.390625 12.109375 -17.921875 
L 12.109375 -9.1875 
Q 16.0625 -11.328125 19.921875 -12.34375 
Q 23.78125 -13.375 27.78125 -13.375 
Q 36.625 -13.375 41.015625 -8.765625 
Q 45.40625 -4.15625 45.40625 5.171875 
L 45.40625 9.625 
Q 42.625 4.78125 38.28125 2.390625 
Q 33.9375 0 27.875 0 
Q 17.828125 0 11.671875 7.65625 
Q 5.515625 15.328125 5.515625 27.984375 
Q 5.515625 40.671875 11.671875 48.328125 
Q 17.828125 56 27.875 56 
Q 33.9375 56 38.28125 53.609375 
Q 42.625 51.21875 45.40625 46.390625 
L 45.40625 54.6875 
L 54.390625 54.6875 
z
" id="DejaVuSans-103"/>
      <path d="M 12.40625 8.296875 
L 28.515625 8.296875 
L 28.515625 63.921875 
L 10.984375 60.40625 
L 10.984375 69.390625 
L 28.421875 72.90625 
L 38.28125 72.90625 
L 38.28125 8.296875 
L 54.390625 8.296875 
L 54.390625 0 
L 12.40625 0 
z
" id="DejaVuSans-49"/>
      <path d="M 31 75.875 
Q 24.46875 64.65625 21.28125 53.65625 
Q 18.109375 42.671875 18.109375 31.390625 
Q 18.109375 20.125 21.3125 9.0625 
Q 24.515625 -2 31 -13.1875 
L 23.1875 -13.1875 
Q 15.875 -1.703125 12.234375 9.375 
Q 8.59375 20.453125 8.59375 31.390625 
Q 8.59375 42.28125 12.203125 53.3125 
Q 15.828125 64.359375 23.1875 75.875 
z
" id="DejaVuSans-40"/>
      <path d="M 51.125 44 
L 36.921875 44 
L 32.8125 27.6875 
L 47.125 27.6875 
z
M 43.796875 71.78125 
L 38.71875 51.515625 
L 52.984375 51.515625 
L 58.109375 71.78125 
L 65.921875 71.78125 
L 60.890625 51.515625 
L 76.125 51.515625 
L 76.125 44 
L 58.984375 44 
L 54.984375 27.6875 
L 70.515625 27.6875 
L 70.515625 20.21875 
L 53.078125 20.21875 
L 48 0 
L 40.1875 0 
L 45.21875 20.21875 
L 30.90625 20.21875 
L 25.875 0 
L 18.015625 0 
L 23.09375 20.21875 
L 7.71875 20.21875 
L 7.71875 27.6875 
L 24.90625 27.6875 
L 29 44 
L 13.28125 44 
L 13.28125 51.515625 
L 30.90625 51.515625 
L 35.890625 71.78125 
z
" id="DejaVuSans-35"/>
      <path id="DejaVuSans-32"/>
      <path d="M 37.109375 75.984375 
L 37.109375 68.5 
L 28.515625 68.5 
Q 23.6875 68.5 21.796875 66.546875 
Q 19.921875 64.59375 19.921875 59.515625 
L 19.921875 54.6875 
L 34.71875 54.6875 
L 34.71875 47.703125 
L 19.921875 47.703125 
L 19.921875 0 
L 10.890625 0 
L 10.890625 47.703125 
L 2.296875 47.703125 
L 2.296875 54.6875 
L 10.890625 54.6875 
L 10.890625 58.5 
Q 10.890625 67.625 15.140625 71.796875 
Q 19.390625 75.984375 28.609375 75.984375 
z
" id="DejaVuSans-102"/>
      <path d="M 4.890625 31.390625 
L 31.203125 31.390625 
L 31.203125 23.390625 
L 4.890625 23.390625 
z
" id="DejaVuSans-45"/>
      <path d="M 56.203125 29.59375 
L 56.203125 25.203125 
L 14.890625 25.203125 
Q 15.484375 15.921875 20.484375 11.0625 
Q 25.484375 6.203125 34.421875 6.203125 
Q 39.59375 6.203125 44.453125 7.46875 
Q 49.3125 8.734375 54.109375 11.28125 
L 54.109375 2.78125 
Q 49.265625 0.734375 44.1875 -0.34375 
Q 39.109375 -1.421875 33.890625 -1.421875 
Q 20.796875 -1.421875 13.15625 6.1875 
Q 5.515625 13.8125 5.515625 26.8125 
Q 5.515625 40.234375 12.765625 48.109375 
Q 20.015625 56 32.328125 56 
Q 43.359375 56 49.78125 48.890625 
Q 56.203125 41.796875 56.203125 29.59375 
z
M 47.21875 32.234375 
Q 47.125 39.59375 43.09375 43.984375 
Q 39.0625 48.390625 32.421875 48.390625 
Q 24.90625 48.390625 20.390625 44.140625 
Q 15.875 39.890625 15.1875 32.171875 
z
" id="DejaVuSans-101"/>
      <path d="M 2.984375 54.6875 
L 12.5 54.6875 
L 29.59375 8.796875 
L 46.6875 54.6875 
L 56.203125 54.6875 
L 35.6875 0 
L 23.484375 0 
z
" id="DejaVuSans-118"/>
      <path d="M 34.28125 27.484375 
Q 23.390625 27.484375 19.1875 25 
Q 14.984375 22.515625 14.984375 16.5 
Q 14.984375 11.71875 18.140625 8.90625 
Q 21.296875 6.109375 26.703125 6.109375 
Q 34.1875 6.109375 38.703125 11.40625 
Q 43.21875 16.703125 43.21875 25.484375 
L 43.21875 27.484375 
z
M 52.203125 31.203125 
L 52.203125 0 
L 43.21875 0 
L 43.21875 8.296875 
Q 40.140625 3.328125 35.546875 0.953125 
Q 30.953125 -1.421875 24.3125 -1.421875 
Q 15.921875 -1.421875 10.953125 3.296875 
Q 6 8.015625 6 15.921875 
Q 6 25.140625 12.171875 29.828125 
Q 18.359375 34.515625 30.609375 34.515625 
L 43.21875 34.515625 
L 43.21875 35.40625 
Q 43.21875 41.609375 39.140625 45 
Q 35.0625 48.390625 27.6875 48.390625 
Q 23 48.390625 18.546875 47.265625 
Q 14.109375 46.140625 10.015625 43.890625 
L 10.015625 52.203125 
Q 14.9375 54.109375 19.578125 55.046875 
Q 24.21875 56 28.609375 56 
Q 40.484375 56 46.34375 49.84375 
Q 52.203125 43.703125 52.203125 31.203125 
z
" id="DejaVuSans-97"/>
      <path d="M 44.28125 53.078125 
L 44.28125 44.578125 
Q 40.484375 46.53125 36.375 47.5 
Q 32.28125 48.484375 27.875 48.484375 
Q 21.1875 48.484375 17.84375 46.4375 
Q 14.5 44.390625 14.5 40.28125 
Q 14.5 37.15625 16.890625 35.375 
Q 19.28125 33.59375 26.515625 31.984375 
L 29.59375 31.296875 
Q 39.15625 29.25 43.1875 25.515625 
Q 47.21875 21.78125 47.21875 15.09375 
Q 47.21875 7.46875 41.1875 3.015625 
Q 35.15625 -1.421875 24.609375 -1.421875 
Q 20.21875 -1.421875 15.453125 -0.5625 
Q 10.6875 0.296875 5.421875 2 
L 5.421875 11.28125 
Q 10.40625 8.6875 15.234375 7.390625 
Q 20.0625 6.109375 24.8125 6.109375 
Q 31.15625 6.109375 34.5625 8.28125 
Q 37.984375 10.453125 37.984375 14.40625 
Q 37.984375 18.0625 35.515625 20.015625 
Q 33.0625 21.96875 24.703125 23.78125 
L 21.578125 24.515625 
Q 13.234375 26.265625 9.515625 29.90625 
Q 5.8125 33.546875 5.8125 39.890625 
Q 5.8125 47.609375 11.28125 51.796875 
Q 16.75 56 26.8125 56 
Q 31.78125 56 36.171875 55.265625 
Q 40.578125 54.546875 44.28125 53.078125 
z
" id="DejaVuSans-115"/>
      <path d="M 25.390625 72.90625 
L 33.6875 72.90625 
L 8.296875 -9.28125 
L 0 -9.28125 
z
" id="DejaVuSans-47"/>
      <path d="M 45.40625 46.390625 
L 45.40625 75.984375 
L 54.390625 75.984375 
L 54.390625 0 
L 45.40625 0 
L 45.40625 8.203125 
Q 42.578125 3.328125 38.25 0.953125 
Q 33.9375 -1.421875 27.875 -1.421875 
Q 17.96875 -1.421875 11.734375 6.484375 
Q 5.515625 14.40625 5.515625 27.296875 
Q 5.515625 40.1875 11.734375 48.09375 
Q 17.96875 56 27.875 56 
Q 33.9375 56 38.25 53.625 
Q 42.578125 51.265625 45.40625 46.390625 
z
M 14.796875 27.296875 
Q 14.796875 17.390625 18.875 11.75 
Q 22.953125 6.109375 30.078125 6.109375 
Q 37.203125 6.109375 41.296875 11.75 
Q 45.40625 17.390625 45.40625 27.296875 
Q 45.40625 37.203125 41.296875 42.84375 
Q 37.203125 48.484375 30.078125 48.484375 
Q 22.953125 48.484375 18.875 42.84375 
Q 14.796875 37.203125 14.796875 27.296875 
z
" id="DejaVuSans-100"/>
      <path d="M 9.421875 54.6875 
L 18.40625 54.6875 
L 18.40625 0 
L 9.421875 0 
z
M 9.421875 75.984375 
L 18.40625 75.984375 
L 18.40625 64.59375 
L 9.421875 64.59375 
z
" id="DejaVuSans-105"/>
      <path d="M 52 44.1875 
Q 55.375 50.25 60.0625 53.125 
Q 64.75 56 71.09375 56 
Q 79.640625 56 84.28125 50.015625 
Q 88.921875 44.046875 88.921875 33.015625 
L 88.921875 0 
L 79.890625 0 
L 79.890625 32.71875 
Q 79.890625 40.578125 77.09375 44.375 
Q 74.3125 48.1875 68.609375 48.1875 
Q 61.625 48.1875 57.5625 43.546875 
Q 53.515625 38.921875 53.515625 30.90625 
L 53.515625 0 
L 44.484375 0 
L 44.484375 32.71875 
Q 44.484375 40.625 41.703125 44.40625 
Q 38.921875 48.1875 33.109375 48.1875 
Q 26.21875 48.1875 22.15625 43.53125 
Q 18.109375 38.875 18.109375 30.90625 
L 18.109375 0 
L 9.078125 0 
L 9.078125 54.6875 
L 18.109375 54.6875 
L 18.109375 46.1875 
Q 21.1875 51.21875 25.484375 53.609375 
Q 29.78125 56 35.6875 56 
Q 41.65625 56 45.828125 52.96875 
Q 50 49.953125 52 44.1875 
z
" id="DejaVuSans-109"/>
      <path d="M 54.890625 33.015625 
L 54.890625 0 
L 45.90625 0 
L 45.90625 32.71875 
Q 45.90625 40.484375 42.875 44.328125 
Q 39.84375 48.1875 33.796875 48.1875 
Q 26.515625 48.1875 22.3125 43.546875 
Q 18.109375 38.921875 18.109375 30.90625 
L 18.109375 0 
L 9.078125 0 
L 9.078125 54.6875 
L 18.109375 54.6875 
L 18.109375 46.1875 
Q 21.34375 51.125 25.703125 53.5625 
Q 30.078125 56 35.796875 56 
Q 45.21875 56 50.046875 50.171875 
Q 54.890625 44.34375 54.890625 33.015625 
z
" id="DejaVuSans-110"/>
      <path d="M 8.015625 75.875 
L 15.828125 75.875 
Q 23.140625 64.359375 26.78125 53.3125 
Q 30.421875 42.28125 30.421875 31.390625 
Q 30.421875 20.453125 26.78125 9.375 
Q 23.140625 -1.703125 15.828125 -13.1875 
L 8.015625 -13.1875 
Q 14.5 -2 17.703125 9.0625 
Q 20.90625 20.125 20.90625 31.390625 
Q 20.90625 42.671875 17.703125 53.65625 
Q 14.5 64.65625 8.015625 75.875 
z
" id="DejaVuSans-41"/>
     </defs>
     <g transform="translate(77.764078 342.217594)scale(0.17 -0.17)">
      <use xlink:href="#DejaVuSans-108"/>
      <use x="27.783203" xlink:href="#DejaVuSans-111"/>
      <use x="88.964844" xlink:href="#DejaVuSans-103"/>
      <use x="152.441406" xlink:href="#DejaVuSans-49"/>
      <use x="216.064453" xlink:href="#DejaVuSans-48"/>
      <use x="279.6875" xlink:href="#DejaVuSans-40"/>
      <use x="318.701172" xlink:href="#DejaVuSans-35"/>
      <use x="402.490234" xlink:href="#DejaVuSans-32"/>
      <use x="434.277344" xlink:href="#DejaVuSans-102"/>
      <use x="463.982422" xlink:href="#DejaVuSans-45"/>
      <use x="500.066406" xlink:href="#DejaVuSans-101"/>
      <use x="561.589844" xlink:href="#DejaVuSans-118"/>
      <use x="620.769531" xlink:href="#DejaVuSans-97"/>
      <use x="682.048828" xlink:href="#DejaVuSans-108"/>
      <use x="709.832031" xlink:href="#DejaVuSans-115"/>
      <use x="761.931641" xlink:href="#DejaVuSans-32"/>
      <use x="793.71875" xlink:href="#DejaVuSans-47"/>
      <use x="827.410156" xlink:href="#DejaVuSans-32"/>
      <use x="859.197266" xlink:href="#DejaVuSans-100"/>
      <use x="922.673828" xlink:href="#DejaVuSans-105"/>
      <use x="950.457031" xlink:href="#DejaVuSans-109"/>
      <use x="1047.869141" xlink:href="#DejaVuSans-101"/>
      <use x="1109.392578" xlink:href="#DejaVuSans-110"/>
      <use x="1172.771484" xlink:href="#DejaVuSans-115"/>
      <use x="1224.871094" xlink:href="#DejaVuSans-105"/>
      <use x="1252.654297" xlink:href="#DejaVuSans-111"/>
      <use x="1313.835938" xlink:href="#DejaVuSans-110"/>
      <use x="1377.214844" xlink:href="#DejaVuSans-41"/>
     </g>
    </g>
   </g>
   <g id="matplotlib.axis_2">
    <g id="ytick_1">
     <g id="line2d_21">
      <path clip-path="url(#p821213f934)" d="M 57.6 298.944 
L 338.688 298.944 
" style="fill:none;stroke:#b0b0b0;stroke-linecap:square;stroke-width:0.8;"/>
     </g>
     <g id="line2d_22">
      <defs>
       <path d="M 0 0 
L -3.5 0 
" id="mbdee42a395" style="stroke:#000000;stroke-width:0.8;"/>
      </defs>
      <g>
       <use style="stroke:#000000;stroke-width:0.8;" x="57.6" xlink:href="#mbdee42a395" y="298.944"/>
      </g>
     </g>
     <g id="text_6">
      <!-- 0.0 -->
      <defs>
       <path d="M 10.6875 12.40625 
L 21 12.40625 
L 21 0 
L 10.6875 0 
z
" id="DejaVuSans-46"/>
      </defs>
      <g transform="translate(25.155 305.02275)scale(0.16 -0.16)">
       <use xlink:href="#DejaVuSans-48"/>
       <use x="63.623047" xlink:href="#DejaVuSans-46"/>
       <use x="95.410156" xlink:href="#DejaVuSans-48"/>
      </g>
     </g>
    </g>
    <g id="ytick_2">
     <g id="line2d_23">
      <path clip-path="url(#p821213f934)" d="M 57.6 240.431525 
L 338.688 240.431525 
" style="fill:none;stroke:#b0b0b0;stroke-linecap:square;stroke-width:0.8;"/>
     </g>
     <g id="line2d_24">
      <g>
       <use style="stroke:#000000;stroke-width:0.8;" x="57.6" xlink:href="#mbdee42a395" y="240.431525"/>
      </g>
     </g>
     <g id="text_7">
      <!-- 0.2 -->
      <g transform="translate(25.155 246.510275)scale(0.16 -0.16)">
       <use xlink:href="#DejaVuSans-48"/>
       <use x="63.623047" xlink:href="#DejaVuSans-46"/>
       <use x="95.410156" xlink:href="#DejaVuSans-50"/>
      </g>
     </g>
    </g>
    <g id="ytick_3">
     <g id="line2d_25">
      <path clip-path="url(#p821213f934)" d="M 57.6 181.91905 
L 338.688 181.91905 
" style="fill:none;stroke:#b0b0b0;stroke-linecap:square;stroke-width:0.8;"/>
     </g>
     <g id="line2d_26">
      <g>
       <use style="stroke:#000000;stroke-width:0.8;" x="57.6" xlink:href="#mbdee42a395" y="181.91905"/>
      </g>
     </g>
     <g id="text_8">
      <!-- 0.4 -->
      <g transform="translate(25.155 187.9978)scale(0.16 -0.16)">
       <use xlink:href="#DejaVuSans-48"/>
       <use x="63.623047" xlink:href="#DejaVuSans-46"/>
       <use x="95.410156" xlink:href="#DejaVuSans-52"/>
      </g>
     </g>
    </g>
    <g id="ytick_4">
     <g id="line2d_27">
      <path clip-path="url(#p821213f934)" d="M 57.6 123.406574 
L 338.688 123.406574 
" style="fill:none;stroke:#b0b0b0;stroke-linecap:square;stroke-width:0.8;"/>
     </g>
     <g id="line2d_28">
      <g>
       <use style="stroke:#000000;stroke-width:0.8;" x="57.6" xlink:href="#mbdee42a395" y="123.406574"/>
      </g>
     </g>
     <g id="text_9">
      <!-- 0.6 -->
      <g transform="translate(25.155 129.485324)scale(0.16 -0.16)">
       <use xlink:href="#DejaVuSans-48"/>
       <use x="63.623047" xlink:href="#DejaVuSans-46"/>
       <use x="95.410156" xlink:href="#DejaVuSans-54"/>
      </g>
     </g>
    </g>
    <g id="ytick_5">
     <g id="line2d_29">
      <path clip-path="url(#p821213f934)" d="M 57.6 64.894099 
L 338.688 64.894099 
" style="fill:none;stroke:#b0b0b0;stroke-linecap:square;stroke-width:0.8;"/>
     </g>
     <g id="line2d_30">
      <g>
       <use style="stroke:#000000;stroke-width:0.8;" x="57.6" xlink:href="#mbdee42a395" y="64.894099"/>
      </g>
     </g>
     <g id="text_10">
      <!-- 0.8 -->
      <defs>
       <path d="M 31.78125 34.625 
Q 24.75 34.625 20.71875 30.859375 
Q 16.703125 27.09375 16.703125 20.515625 
Q 16.703125 13.921875 20.71875 10.15625 
Q 24.75 6.390625 31.78125 6.390625 
Q 38.8125 6.390625 42.859375 10.171875 
Q 46.921875 13.96875 46.921875 20.515625 
Q 46.921875 27.09375 42.890625 30.859375 
Q 38.875 34.625 31.78125 34.625 
z
M 21.921875 38.8125 
Q 15.578125 40.375 12.03125 44.71875 
Q 8.5 49.078125 8.5 55.328125 
Q 8.5 64.0625 14.71875 69.140625 
Q 20.953125 74.21875 31.78125 74.21875 
Q 42.671875 74.21875 48.875 69.140625 
Q 55.078125 64.0625 55.078125 55.328125 
Q 55.078125 49.078125 51.53125 44.71875 
Q 48 40.375 41.703125 38.8125 
Q 48.828125 37.15625 52.796875 32.3125 
Q 56.78125 27.484375 56.78125 20.515625 
Q 56.78125 9.90625 50.3125 4.234375 
Q 43.84375 -1.421875 31.78125 -1.421875 
Q 19.734375 -1.421875 13.25 4.234375 
Q 6.78125 9.90625 6.78125 20.515625 
Q 6.78125 27.484375 10.78125 32.3125 
Q 14.796875 37.15625 21.921875 38.8125 
z
M 18.3125 54.390625 
Q 18.3125 48.734375 21.84375 45.5625 
Q 25.390625 42.390625 31.78125 42.390625 
Q 38.140625 42.390625 41.71875 45.5625 
Q 45.3125 48.734375 45.3125 54.390625 
Q 45.3125 60.0625 41.71875 63.234375 
Q 38.140625 66.40625 31.78125 66.40625 
Q 25.390625 66.40625 21.84375 63.234375 
Q 18.3125 60.0625 18.3125 54.390625 
z
" id="DejaVuSans-56"/>
      </defs>
      <g transform="translate(25.155 70.972849)scale(0.16 -0.16)">
       <use xlink:href="#DejaVuSans-48"/>
       <use x="63.623047" xlink:href="#DejaVuSans-46"/>
       <use x="95.410156" xlink:href="#DejaVuSans-56"/>
      </g>
     </g>
    </g>
    <g id="ytick_6">
     <g id="line2d_31">
      <path clip-path="url(#p821213f934)" d="M 57.6 6.381624 
L 338.688 6.381624 
" style="fill:none;stroke:#b0b0b0;stroke-linecap:square;stroke-width:0.8;"/>
     </g>
     <g id="line2d_32">
      <g>
       <use style="stroke:#000000;stroke-width:0.8;" x="57.6" xlink:href="#mbdee42a395" y="6.381624"/>
      </g>
     </g>
     <g id="text_11">
      <!-- 1.0 -->
      <g transform="translate(25.155 12.460374)scale(0.16 -0.16)">
       <use xlink:href="#DejaVuSans-49"/>
       <use x="63.623047" xlink:href="#DejaVuSans-46"/>
       <use x="95.410156" xlink:href="#DejaVuSans-48"/>
      </g>
     </g>
    </g>
    <g id="text_12">
     <!-- Fraction of function,target pairs -->
     <defs>
      <path d="M 9.8125 72.90625 
L 51.703125 72.90625 
L 51.703125 64.59375 
L 19.671875 64.59375 
L 19.671875 43.109375 
L 48.578125 43.109375 
L 48.578125 34.8125 
L 19.671875 34.8125 
L 19.671875 0 
L 9.8125 0 
z
" id="DejaVuSans-70"/>
      <path d="M 41.109375 46.296875 
Q 39.59375 47.171875 37.8125 47.578125 
Q 36.03125 48 33.890625 48 
Q 26.265625 48 22.1875 43.046875 
Q 18.109375 38.09375 18.109375 28.8125 
L 18.109375 0 
L 9.078125 0 
L 9.078125 54.6875 
L 18.109375 54.6875 
L 18.109375 46.1875 
Q 20.953125 51.171875 25.484375 53.578125 
Q 30.03125 56 36.53125 56 
Q 37.453125 56 38.578125 55.875 
Q 39.703125 55.765625 41.0625 55.515625 
z
" id="DejaVuSans-114"/>
      <path d="M 48.78125 52.59375 
L 48.78125 44.1875 
Q 44.96875 46.296875 41.140625 47.34375 
Q 37.3125 48.390625 33.40625 48.390625 
Q 24.65625 48.390625 19.8125 42.84375 
Q 14.984375 37.3125 14.984375 27.296875 
Q 14.984375 17.28125 19.8125 11.734375 
Q 24.65625 6.203125 33.40625 6.203125 
Q 37.3125 6.203125 41.140625 7.25 
Q 44.96875 8.296875 48.78125 10.40625 
L 48.78125 2.09375 
Q 45.015625 0.34375 40.984375 -0.53125 
Q 36.96875 -1.421875 32.421875 -1.421875 
Q 20.0625 -1.421875 12.78125 6.34375 
Q 5.515625 14.109375 5.515625 27.296875 
Q 5.515625 40.671875 12.859375 48.328125 
Q 20.21875 56 33.015625 56 
Q 37.15625 56 41.109375 55.140625 
Q 45.0625 54.296875 48.78125 52.59375 
z
" id="DejaVuSans-99"/>
      <path d="M 18.3125 70.21875 
L 18.3125 54.6875 
L 36.8125 54.6875 
L 36.8125 47.703125 
L 18.3125 47.703125 
L 18.3125 18.015625 
Q 18.3125 11.328125 20.140625 9.421875 
Q 21.96875 7.515625 27.59375 7.515625 
L 36.8125 7.515625 
L 36.8125 0 
L 27.59375 0 
Q 17.1875 0 13.234375 3.875 
Q 9.28125 7.765625 9.28125 18.015625 
L 9.28125 47.703125 
L 2.6875 47.703125 
L 2.6875 54.6875 
L 9.28125 54.6875 
L 9.28125 70.21875 
z
" id="DejaVuSans-116"/>
      <path d="M 8.5 21.578125 
L 8.5 54.6875 
L 17.484375 54.6875 
L 17.484375 21.921875 
Q 17.484375 14.15625 20.5 10.265625 
Q 23.53125 6.390625 29.59375 6.390625 
Q 36.859375 6.390625 41.078125 11.03125 
Q 45.3125 15.671875 45.3125 23.6875 
L 45.3125 54.6875 
L 54.296875 54.6875 
L 54.296875 0 
L 45.3125 0 
L 45.3125 8.40625 
Q 42.046875 3.421875 37.71875 1 
Q 33.40625 -1.421875 27.6875 -1.421875 
Q 18.265625 -1.421875 13.375 4.4375 
Q 8.5 10.296875 8.5 21.578125 
z
M 31.109375 56 
z
" id="DejaVuSans-117"/>
      <path d="M 11.71875 12.40625 
L 22.015625 12.40625 
L 22.015625 4 
L 14.015625 -11.625 
L 7.71875 -11.625 
L 11.71875 4 
z
" id="DejaVuSans-44"/>
      <path d="M 18.109375 8.203125 
L 18.109375 -20.796875 
L 9.078125 -20.796875 
L 9.078125 54.6875 
L 18.109375 54.6875 
L 18.109375 46.390625 
Q 20.953125 51.265625 25.265625 53.625 
Q 29.59375 56 35.59375 56 
Q 45.5625 56 51.78125 48.09375 
Q 58.015625 40.1875 58.015625 27.296875 
Q 58.015625 14.40625 51.78125 6.484375 
Q 45.5625 -1.421875 35.59375 -1.421875 
Q 29.59375 -1.421875 25.265625 0.953125 
Q 20.953125 3.328125 18.109375 8.203125 
z
M 48.6875 27.296875 
Q 48.6875 37.203125 44.609375 42.84375 
Q 40.53125 48.484375 33.40625 48.484375 
Q 26.265625 48.484375 22.1875 42.84375 
Q 18.109375 37.203125 18.109375 27.296875 
Q 18.109375 17.390625 22.1875 11.75 
Q 26.265625 6.109375 33.40625 6.109375 
Q 40.53125 6.109375 44.609375 11.75 
Q 48.6875 17.390625 48.6875 27.296875 
z
" id="DejaVuSans-112"/>
     </defs>
     <g transform="translate(17.619531 285.585)rotate(-90)scale(0.17 -0.17)">
      <use xlink:href="#DejaVuSans-70"/>
      <use x="50.269531" xlink:href="#DejaVuSans-114"/>
      <use x="91.382812" xlink:href="#DejaVuSans-97"/>
      <use x="152.662109" xlink:href="#DejaVuSans-99"/>
      <use x="207.642578" xlink:href="#DejaVuSans-116"/>
      <use x="246.851562" xlink:href="#DejaVuSans-105"/>
      <use x="274.634766" xlink:href="#DejaVuSans-111"/>
      <use x="335.816406" xlink:href="#DejaVuSans-110"/>
      <use x="399.195312" xlink:href="#DejaVuSans-32"/>
      <use x="430.982422" xlink:href="#DejaVuSans-111"/>
      <use x="492.164062" xlink:href="#DejaVuSans-102"/>
      <use x="527.369141" xlink:href="#DejaVuSans-32"/>
      <use x="559.15625" xlink:href="#DejaVuSans-102"/>
      <use x="594.361328" xlink:href="#DejaVuSans-117"/>
      <use x="657.740234" xlink:href="#DejaVuSans-110"/>
      <use x="721.119141" xlink:href="#DejaVuSans-99"/>
      <use x="776.099609" xlink:href="#DejaVuSans-116"/>
      <use x="815.308594" xlink:href="#DejaVuSans-105"/>
      <use x="843.091797" xlink:href="#DejaVuSans-111"/>
      <use x="904.273438" xlink:href="#DejaVuSans-110"/>
      <use x="967.652344" xlink:href="#DejaVuSans-44"/>
      <use x="999.439453" xlink:href="#DejaVuSans-116"/>
      <use x="1038.648438" xlink:href="#DejaVuSans-97"/>
      <use x="1099.927734" xlink:href="#DejaVuSans-114"/>
      <use x="1139.291016" xlink:href="#DejaVuSans-103"/>
      <use x="1202.767578" xlink:href="#DejaVuSans-101"/>
      <use x="1264.291016" xlink:href="#DejaVuSans-116"/>
      <use x="1303.5" xlink:href="#DejaVuSans-32"/>
      <use x="1335.287109" xlink:href="#DejaVuSans-112"/>
      <use x="1398.763672" xlink:href="#DejaVuSans-97"/>
      <use x="1460.042969" xlink:href="#DejaVuSans-105"/>
      <use x="1487.826172" xlink:href="#DejaVuSans-114"/>
      <use x="1528.939453" xlink:href="#DejaVuSans-115"/>
     </g>
    </g>
   </g>
   <g id="line2d_33">
    <defs>
     <path d="M 0 1.5 
C 0.397805 1.5 0.77937 1.341951 1.06066 1.06066 
C 1.341951 0.77937 1.5 0.397805 1.5 0 
C 1.5 -0.397805 1.341951 -0.77937 1.06066 -1.06066 
C 0.77937 -1.341951 0.397805 -1.5 0 -1.5 
C -0.397805 -1.5 -0.77937 -1.341951 -1.06066 -1.06066 
C -1.341951 -0.77937 -1.5 -0.397805 -1.5 0 
C -1.5 0.397805 -1.341951 0.77937 -1.06066 1.06066 
C -0.77937 1.341951 -0.397805 1.5 0 1.5 
z
" id="m5d28ea2527" style="stroke:#f5deb3;"/>
    </defs>
    <g>
     <use style="fill:#f5deb3;stroke:#f5deb3;" x="197.706883" xlink:href="#m5d28ea2527" y="6.381624"/>
     <use style="fill:#f5deb3;stroke:#f5deb3;" x="197.706883" xlink:href="#m5d28ea2527" y="6.381624"/>
    </g>
   </g>
   <g id="line2d_34">
    <defs>
     <path d="M 0 1.5 
C 0.397805 1.5 0.77937 1.341951 1.06066 1.06066 
C 1.341951 0.77937 1.5 0.397805 1.5 0 
C 1.5 -0.397805 1.341951 -0.77937 1.06066 -1.06066 
C 0.77937 -1.341951 0.397805 -1.5 0 -1.5 
C -0.397805 -1.5 -0.77937 -1.341951 -1.06066 -1.06066 
C -1.341951 -0.77937 -1.5 -0.397805 -1.5 0 
C -1.5 0.397805 -1.341951 0.77937 -1.06066 1.06066 
C -0.77937 1.341951 -0.397805 1.5 0 1.5 
z
" id="mbe4ec40fb5" style="stroke:#000080;"/>
    </defs>
    <g>
     <use style="fill:#000080;stroke:#000080;" x="172.011434" xlink:href="#mbe4ec40fb5" y="243.873435"/>
     <use style="fill:#000080;stroke:#000080;" x="172.011434" xlink:href="#mbe4ec40fb5" y="243.873435"/>
    </g>
   </g>
   <g id="line2d_35">
    <path d="M 38.440992 298.944 
L 38.440992 288.503539 
L 50.52898 288.503539 
L 50.52898 284.487977 
L 57.6 284.487977 
L 57.6 282.996482 
L 62.616969 282.996482 
L 62.616969 280.357684 
L 66.508432 280.357684 
L 66.508432 277.833617 
L 69.687988 277.833617 
L 69.687988 275.53901 
L 72.376266 275.53901 
L 72.376266 274.850628 
L 74.704957 274.850628 
L 74.704957 273.932785 
L 76.759008 273.932785 
L 76.759008 272.900212 
L 78.59642 272.900212 
L 78.59642 272.670751 
L 80.258561 272.670751 
L 80.258561 271.982369 
L 81.775977 271.982369 
L 81.775977 271.179257 
L 84.464254 271.179257 
L 84.464254 270.376144 
L 85.66744 270.376144 
L 85.66744 270.146684 
L 86.792945 270.146684 
L 86.792945 270.031953 
L 87.850195 270.031953 
L 87.850195 269.228841 
L 88.846997 269.228841 
L 88.846997 268.88465 
L 89.78989 268.88465 
L 89.78989 268.655189 
L 90.684409 268.655189 
L 90.684409 268.081538 
L 91.535274 268.081538 
L 91.535274 267.622616 
L 92.34655 267.622616 
L 92.34655 266.934234 
L 93.121756 266.934234 
L 93.121756 266.590043 
L 93.863965 266.590043 
L 93.863965 266.131122 
L 94.575872 266.131122 
L 94.575872 265.6722 
L 95.259853 265.6722 
L 95.259853 265.44274 
L 95.918017 265.44274 
L 95.918017 264.983818 
L 96.552242 264.983818 
L 96.552242 264.639627 
L 97.16421 264.639627 
L 97.16421 263.951245 
L 97.755429 263.951245 
L 97.755429 263.721785 
L 98.32726 263.721785 
L 98.32726 263.262863 
L 98.880934 263.262863 
L 98.880934 262.918672 
L 99.41757 262.918672 
L 99.41757 262.803942 
L 99.938184 262.803942 
L 99.938184 262.459751 
L 100.443706 262.459751 
L 100.443706 262.000829 
L 101.412804 262.000829 
L 101.412804 261.886099 
L 102.772397 261.886099 
L 102.772397 261.771369 
L 103.203018 261.771369 
L 103.203018 261.656638 
L 104.826449 261.656638 
L 104.826449 261.541908 
L 105.584798 261.541908 
L 105.584798 261.427178 
L 108.326001 261.427178 
L 108.326001 260.853526 
L 108.640231 260.853526 
L 108.640231 260.738796 
L 108.948899 260.738796 
L 108.948899 260.624065 
L 109.252198 260.624065 
L 109.252198 260.509335 
L 109.550313 260.509335 
L 109.550313 260.165144 
L 109.843417 260.165144 
L 109.843417 259.820953 
L 110.131676 259.820953 
L 110.131676 259.476762 
L 110.415248 259.476762 
L 110.415248 259.132571 
L 110.694282 259.132571 
L 110.694282 258.673649 
L 110.968922 258.673649 
L 110.968922 257.870537 
L 111.239304 257.870537 
L 111.239304 257.641076 
L 111.767808 257.641076 
L 111.767808 257.411616 
L 112.280765 257.411616 
L 112.280765 257.182155 
L 112.779064 257.182155 
L 112.779064 257.067425 
L 113.965867 257.067425 
L 113.965867 256.837964 
L 115.077025 256.837964 
L 115.077025 256.149582 
L 116.914437 256.149582 
L 116.914437 256.034851 
L 117.486268 256.034851 
L 117.486268 255.920121 
L 117.672786 255.920121 
L 117.672786 255.805391 
L 117.857331 255.805391 
L 117.857331 255.4612 
L 118.220662 255.4612 
L 118.220662 255.231739 
L 118.399528 255.231739 
L 118.399528 255.117009 
L 118.576578 255.117009 
L 118.576578 254.887548 
L 119.097192 254.887548 
L 119.097192 254.772818 
L 120.254726 254.772818 
L 120.254726 254.543357 
L 122.643312 254.543357 
L 122.643312 254.428627 
L 123.593547 254.428627 
L 123.593547 254.199166 
L 123.855796 254.199166 
L 123.855796 253.625514 
L 124.241922 253.625514 
L 124.241922 253.510784 
L 124.494669 253.510784 
L 124.494669 253.281323 
L 125.110962 253.281323 
L 125.110962 253.166593 
L 125.351508 253.166593 
L 125.351508 253.051863 
L 125.938745 253.051863 
L 125.938745 252.937132 
L 126.948374 252.937132 
L 127.05703 252.707672 
L 127.378995 252.707672 
L 127.48501 252.36348 
L 127.695124 252.36348 
L 127.799239 251.904559 
L 127.902737 251.904559 
L 127.902737 251.789829 
L 128.511146 251.789829 
L 128.511146 251.675098 
L 129.480244 251.675098 
L 129.480244 251.560368 
L 130.127931 251.560368 
L 130.127931 251.445638 
L 130.398313 251.445638 
L 130.398313 251.330907 
L 130.839837 251.330907 
L 130.839837 251.101447 
L 131.013364 251.101447 
L 131.099484 250.413065 
L 131.185181 250.413065 
L 131.185181 250.298334 
L 131.355321 250.298334 
L 131.355321 250.183604 
L 131.60746 250.183604 
L 131.60746 250.068874 
L 132.019755 250.068874 
L 132.019755 249.954143 
L 132.816208 249.954143 
L 132.816208 249.839413 
L 133.277185 249.839413 
L 133.352844 249.495222 
L 133.800029 249.495222 
L 133.800029 249.265761 
L 133.946579 249.265761 
L 133.946579 249.151031 
L 135.076644 249.151031 
L 135.076644 249.036301 
L 135.747468 249.036301 
L 135.747468 248.692109 
L 136.202149 248.692109 
L 136.266147 248.233188 
L 136.32991 248.233188 
L 136.393441 248.003727 
L 136.519813 248.003727 
L 136.519813 247.888997 
L 136.955041 247.888997 
L 136.955041 247.774267 
L 138.026733 247.774267 
L 138.026733 247.659536 
L 138.313099 247.659536 
L 138.313099 247.544806 
L 139.835248 247.544806 
L 139.835248 247.430076 
L 140.195896 247.430076 
L 140.297583 247.200615 
L 141.090414 247.200615 
L 141.090414 247.085885 
L 141.568232 247.085885 
L 141.568232 246.741694 
L 141.941279 246.741694 
L 141.941279 246.626963 
L 144.589967 246.626963 
L 144.589967 246.397503 
L 144.865226 246.397503 
L 144.94308 245.938581 
L 146.252108 245.938581 
L 146.252108 245.823851 
L 147.232888 245.823851 
L 147.232888 245.709121 
L 149.676158 245.709121 
L 149.676158 245.59439 
L 149.823575 245.59439 
L 149.823575 245.47966 
L 154.006185 245.47966 
L 154.006185 245.36493 
L 154.167129 245.36493 
L 154.212841 245.135469 
L 157.1279 245.135469 
L 157.147202 244.906008 
L 158.447857 244.906008 
L 158.447857 244.791278 
L 160.087195 244.791278 
L 160.087195 244.676547 
L 161.329454 244.676547 
L 161.329454 244.447087 
L 164.243924 244.447087 
L 164.243924 244.332356 
L 166.266556 244.332356 
L 166.266556 244.217626 
L 166.7626 244.217626 
L 166.7626 243.988165 
L 172.011434 243.988165 
L 172.011434 243.873435 
L 338.688 243.873435 
L 338.688 243.873435 
" style="fill:none;stroke:#000080;stroke-linecap:square;stroke-width:1.5;"/>
   </g>
   <g id="line2d_36">
    <defs>
     <path d="M 0 6 
C 1.591219 6 3.117479 5.367802 4.242641 4.242641 
C 5.367802 3.117479 6 1.591219 6 0 
C 6 -1.591219 5.367802 -3.117479 4.242641 -4.242641 
C 3.117479 -5.367802 1.591219 -6 0 -6 
C -1.591219 -6 -3.117479 -5.367802 -4.242641 -4.242641 
C -5.367802 -3.117479 -6 -1.591219 -6 0 
C -6 1.591219 -5.367802 3.117479 -4.242641 4.242641 
C -3.117479 5.367802 -1.591219 6 0 6 
z
" id="mc60f909f5a" style="stroke:#000080;stroke-width:1.5;"/>
    </defs>
    <g>
     <use style="fill-opacity:0;stroke:#000080;stroke-width:1.5;" x="100.443706" xlink:href="#mc60f909f5a" y="262.000829"/>
     <use style="fill-opacity:0;stroke:#000080;stroke-width:1.5;" x="172.011434" xlink:href="#mc60f909f5a" y="243.988165"/>
     <use style="fill-opacity:0;stroke:#000080;stroke-width:1.5;" x="172.011434" xlink:href="#mc60f909f5a" y="243.988165"/>
     <use style="fill-opacity:0;stroke:#000080;stroke-width:1.5;" x="172.011434" xlink:href="#mc60f909f5a" y="243.873435"/>
     <use style="fill-opacity:0;stroke:#000080;stroke-width:1.5;" x="172.011434" xlink:href="#mc60f909f5a" y="243.873435"/>
     <use style="fill-opacity:0;stroke:#000080;stroke-width:1.5;" x="338.688" xlink:href="#mc60f909f5a" y="243.873435"/>
    </g>
   </g>
   <g id="line2d_37">
    <path style="fill:none;stroke:#000080;stroke-linecap:square;stroke-width:1.5;"/>
    <g/>
   </g>
   <g id="line2d_38">
    <path clip-path="url(#p821213f934)" d="M 100.443706 262.000829 
" style="fill:none;stroke:#000080;stroke-linecap:square;stroke-width:1.5;"/>
    <defs>
     <path d="M -12 12 
L 12 -12 
M -12 -12 
L 12 12 
" id="m3dbd0ca44e" style="stroke:#000080;"/>
    </defs>
    <g clip-path="url(#p821213f934)">
     <use style="fill:#000080;stroke:#000080;" x="100.443706" xlink:href="#m3dbd0ca44e" y="262.000829"/>
    </g>
   </g>
   <g id="line2d_39">
    <defs>
     <path d="M 0 1.5 
C 0.397805 1.5 0.77937 1.341951 1.06066 1.06066 
C 1.341951 0.77937 1.5 0.397805 1.5 0 
C 1.5 -0.397805 1.341951 -0.77937 1.06066 -1.06066 
C 0.77937 -1.341951 0.397805 -1.5 0 -1.5 
C -0.397805 -1.5 -0.77937 -1.341951 -1.06066 -1.06066 
C -1.341951 -0.77937 -1.5 -0.397805 -1.5 0 
C -1.5 0.397805 -1.341951 0.77937 -1.06066 1.06066 
C -0.77937 1.341951 -0.397805 1.5 0 1.5 
z
" id="m007183f307" style="stroke:#ff00ff;"/>
    </defs>
    <g>
     <use style="fill:#ff00ff;stroke:#ff00ff;" x="228.418599" xlink:href="#m007183f307" y="228.95849"/>
     <use style="fill:#ff00ff;stroke:#ff00ff;" x="228.418599" xlink:href="#m007183f307" y="228.95849"/>
    </g>
   </g>
   <g id="line2d_40">
    <path d="M 38.440992 298.944 
L 38.440992 271.638178 
L 50.52898 271.638178 
L 50.52898 271.523448 
L 69.687988 271.523448 
L 69.687988 271.408718 
L 78.59642 271.408718 
L 78.59642 271.293987 
L 80.258561 271.293987 
L 80.258561 271.064526 
L 81.775977 271.064526 
L 81.775977 270.490875 
L 83.171864 270.490875 
L 83.171864 270.261414 
L 84.464254 270.261414 
L 84.464254 269.802493 
L 85.66744 269.802493 
L 85.66744 269.458302 
L 86.792945 269.458302 
L 86.792945 268.540459 
L 87.850195 268.540459 
L 87.850195 267.852077 
L 88.846997 267.852077 
L 88.846997 267.163695 
L 89.78989 267.163695 
L 89.78989 266.819504 
L 90.684409 266.819504 
L 90.684409 266.704773 
L 91.535274 266.704773 
L 91.535274 266.475313 
L 92.34655 266.475313 
L 92.34655 266.131122 
L 93.121756 266.131122 
L 93.121756 265.6722 
L 93.863965 265.6722 
L 93.863965 265.328009 
L 94.575872 265.328009 
L 94.575872 265.098549 
L 95.259853 265.098549 
L 95.259853 264.869088 
L 95.918017 264.869088 
L 95.918017 264.639627 
L 96.552242 264.639627 
L 96.552242 264.410167 
L 97.16421 264.410167 
L 97.16421 264.180706 
L 97.755429 264.180706 
L 97.755429 263.836515 
L 98.880934 263.836515 
L 98.880934 263.721785 
L 99.938184 263.721785 
L 99.938184 263.492324 
L 100.934985 263.492324 
L 100.934985 263.148133 
L 101.877879 263.148133 
L 101.877879 262.918672 
L 102.330873 262.918672 
L 102.330873 262.803942 
L 103.203018 262.803942 
L 103.203018 262.34502 
L 104.826449 262.34502 
L 104.826449 262.23029 
L 105.209745 262.23029 
L 105.209745 262.11556 
L 105.951954 262.11556 
L 105.951954 262.000829 
L 107.347841 262.000829 
L 107.347841 261.886099 
L 107.680028 261.886099 
L 107.680028 261.771369 
L 108.006005 261.771369 
L 108.006005 261.656638 
L 109.843417 261.656638 
L 109.843417 261.541908 
L 110.131676 261.541908 
L 110.131676 261.427178 
L 110.694282 261.427178 
L 110.694282 261.312447 
L 111.767808 261.312447 
L 111.767808 261.197717 
L 112.026172 261.197717 
L 112.026172 261.082987 
L 112.280765 261.082987 
L 112.280765 260.968256 
L 112.779064 260.968256 
L 112.779064 260.853526 
L 113.965867 260.853526 
L 113.965867 260.738796 
L 116.719583 260.738796 
L 116.719583 260.624065 
L 117.857331 260.624065 
L 117.857331 260.509335 
L 118.220662 260.509335 
L 118.220662 260.394605 
L 118.576578 260.394605 
L 118.576578 260.279874 
L 119.097192 260.279874 
L 119.097192 260.165144 
L 119.43583 260.165144 
L 119.43583 260.050414 
L 119.602714 260.050414 
L 119.602714 259.935683 
L 120.571812 259.935683 
L 120.571812 259.820953 
L 120.728219 259.820953 
L 120.728219 259.706222 
L 120.883236 259.706222 
L 120.883236 259.591492 
L 121.189196 259.591492 
L 121.189196 259.01784 
L 121.489881 259.01784 
L 121.489881 258.78838 
L 121.638301 258.78838 
L 121.638301 258.558919 
L 122.076131 258.558919 
L 122.076131 258.444189 
L 122.643312 258.444189 
L 122.643312 258.329458 
L 123.056911 258.329458 
L 123.056911 258.214728 
L 123.725164 258.214728 
L 123.725164 257.985267 
L 123.855796 257.985267 
L 123.855796 257.870537 
L 124.743806 257.870537 
L 124.743806 257.755807 
L 124.989434 257.755807 
L 124.989434 257.526346 
L 125.23165 257.526346 
L 125.23165 257.411616 
L 125.470548 257.411616 
L 125.470548 257.067425 
L 125.938745 257.067425 
L 125.938745 256.723234 
L 126.3947 256.723234 
L 126.3947 256.608503 
L 127.165014 256.608503 
L 127.165014 256.493773 
L 128.610515 256.493773 
L 128.610515 256.379043 
L 128.807571 256.379043 
L 128.905271 256.149582 
L 129.099042 256.149582 
L 129.099042 255.920121 
L 129.480244 255.920121 
L 129.480244 255.805391 
L 131.185181 255.805391 
L 131.270459 255.57593 
L 131.856005 255.57593 
L 131.856005 255.4612 
L 132.101058 255.4612 
L 132.181982 255.002278 
L 132.262533 255.002278 
L 132.262533 254.772818 
L 132.501978 254.772818 
L 132.501978 254.658087 
L 132.73818 254.658087 
L 132.73818 254.543357 
L 133.124876 254.543357 
L 133.124876 254.313896 
L 133.277185 254.313896 
L 133.277185 254.199166 
L 133.57787 254.199166 
L 133.57787 253.969705 
L 133.800029 253.969705 
L 133.873458 253.740245 
L 133.946579 253.740245 
L 133.946579 253.510784 
L 134.091907 253.510784 
L 134.091907 253.281323 
L 134.37898 253.281323 
L 134.37898 253.166593 
L 135.144899 253.166593 
L 135.212889 252.937132 
L 135.943785 252.937132 
L 135.943785 252.822402 
L 136.202149 252.822402 
L 136.202149 252.707672 
L 136.32991 252.707672 
L 136.32991 252.592941 
L 137.37967 252.592941 
L 137.37967 252.478211 
L 137.617753 252.478211 
L 137.617753 252.36348 
L 137.735587 252.36348 
L 137.735587 252.24875 
L 139.783113 252.24875 
L 139.835248 252.019289 
L 140.042245 252.019289 
L 140.042245 251.904559 
L 140.599134 251.904559 
L 140.599134 251.789829 
L 143.058132 251.789829 
L 143.058132 251.675098 
L 143.273169 251.675098 
L 143.273169 251.560368 
L 143.653678 251.560368 
L 143.653678 251.445638 
L 143.820164 251.445638 
L 143.861538 251.216177 
L 144.229555 251.216177 
L 144.229555 251.101447 
L 144.470655 251.101447 
L 144.470655 250.986716 
L 144.787023 250.986716 
L 144.787023 250.871986 
L 146.679213 250.871986 
L 146.714338 250.642525 
L 146.819289 250.642525 
L 146.819289 250.527795 
L 147.436066 250.527795 
L 147.436066 250.413065 
L 147.769524 250.413065 
L 147.802521 250.183604 
L 147.933891 250.183604 
L 147.933891 250.068874 
L 149.195872 250.068874 
L 149.195872 249.954143 
L 150.201126 249.954143 
L 150.201126 249.609952 
L 150.570677 249.609952 
L 150.570677 249.380492 
L 151.844975 249.380492 
L 151.844975 249.265761 
L 152.001148 249.265761 
L 152.001148 249.151031 
L 153.226778 249.151031 
L 153.29909 248.92157 
L 154.006185 248.92157 
L 154.006185 248.80684 
L 154.258434 248.80684 
L 154.258434 248.692109 
L 154.862549 248.692109 
L 154.884527 248.462649 
L 155.059358 248.462649 
L 155.146121 248.003727 
L 156.052535 248.003727 
L 156.052535 247.659536 
L 156.277034 247.659536 
L 156.277034 247.544806 
L 156.677955 247.544806 
L 156.677955 247.430076 
L 156.855406 247.430076 
L 156.855406 247.315345 
L 157.050478 247.315345 
L 157.050478 247.200615 
L 157.319964 247.200615 
L 157.415209 246.856424 
L 157.566527 246.856424 
L 157.566527 246.741694 
L 157.957601 246.741694 
L 157.976006 246.512233 
L 158.376091 246.512233 
L 158.39406 246.282772 
L 158.994256 246.282772 
L 158.994256 246.168042 
L 159.371893 246.168042 
L 159.371893 246.053312 
L 159.93989 246.053312 
L 159.93989 245.938581 
L 160.36209 245.938581 
L 160.36209 245.823851 
L 160.632719 245.823851 
L 160.632719 245.709121 
L 160.930298 245.709121 
L 160.976823 245.47966 
L 161.420284 245.47966 
L 161.420284 245.36493 
L 161.79373 245.36493 
L 161.808503 245.135469 
L 161.911563 245.135469 
L 161.911563 245.020738 
L 162.217141 245.020738 
L 162.231559 244.791278 
L 162.658665 244.791278 
L 162.658665 244.676547 
L 163.50953 244.676547 
L 163.50953 244.561817 
L 164.308016 244.561817 
L 164.308016 244.447087 
L 164.824867 244.447087 
L 164.824867 244.332356 
L 164.973287 244.332356 
L 164.973287 244.217626 
L 165.205733 244.217626 
L 165.290595 243.988165 
L 165.732422 243.988165 
L 165.755989 243.643974 
L 165.873346 243.643974 
L 165.966667 242.955592 
L 166.001534 242.955592 
L 166.001534 242.840862 
L 166.437252 242.840862 
L 166.437252 242.726132 
L 166.561376 242.726132 
L 166.662278 242.496671 
L 166.718084 242.496671 
L 166.718084 242.381941 
L 166.840232 242.381941 
L 166.840232 242.26721 
L 167.071073 242.26721 
L 167.071073 242.15248 
L 168.894283 242.15248 
L 168.933583 241.923019 
L 170.14658 241.923019 
L 170.14658 241.808289 
L 170.58055 241.808289 
L 170.58055 241.693559 
L 171.116915 241.693559 
L 171.116915 241.578828 
L 171.408865 241.578828 
L 171.408865 241.464098 
L 171.887604 241.464098 
L 171.928978 241.234637 
L 172.093501 241.234637 
L 172.093501 241.119907 
L 172.63361 241.119907 
L 172.63361 241.005176 
L 173.195964 241.005176 
L 173.195964 240.890446 
L 173.409852 240.890446 
L 173.409852 240.775716 
L 173.651125 240.775716 
L 173.748197 240.546255 
L 174.13117 240.546255 
L 174.13117 240.431525 
L 174.448781 240.431525 
L 174.463082 240.202064 
L 175.327556 240.202064 
L 175.327556 240.087334 
L 175.836964 240.087334 
L 175.85677 239.857873 
L 176.881775 239.857873 
L 176.90043 239.628412 
L 177.073587 239.628412 
L 177.073587 239.513682 
L 177.696161 239.513682 
L 177.696161 239.398952 
L 178.468527 239.398952 
L 178.468527 239.284221 
L 178.649364 239.284221 
L 178.649364 239.169491 
L 179.076969 239.169491 
L 179.076969 239.054761 
L 179.928095 239.054761 
L 180.006287 238.71057 
L 180.223376 238.71057 
L 180.23878 238.366379 
L 180.447941 238.366379 
L 180.447941 238.251648 
L 180.559149 238.251648 
L 180.559149 238.136918 
L 180.844021 238.136918 
L 180.844021 238.022188 
L 181.153558 238.022188 
L 181.153558 237.907457 
L 181.939137 237.907457 
L 181.939137 237.792727 
L 182.65514 237.792727 
L 182.65514 237.677997 
L 183.174571 237.677997 
L 183.174571 237.563266 
L 183.308504 237.563266 
L 183.308504 237.448536 
L 183.543625 237.448536 
L 183.543625 237.333805 
L 184.246866 237.333805 
L 184.255021 237.104345 
L 184.481824 237.104345 
L 184.481824 236.989614 
L 184.638052 236.989614 
L 184.717629 236.760154 
L 184.812644 236.760154 
L 184.812644 236.645423 
L 185.055732 236.645423 
L 185.055732 236.530693 
L 185.283952 236.530693 
L 185.352989 236.301232 
L 186.10588 236.301232 
L 186.10588 236.186502 
L 186.953778 236.186502 
L 186.953778 236.071772 
L 188.076227 236.071772 
L 188.161154 235.727581 
L 189.30864 235.727581 
L 189.409032 235.49812 
L 189.566062 235.49812 
L 189.620091 235.153929 
L 190.737353 235.153929 
L 190.75421 234.924468 
L 190.860599 234.924468 
L 190.860599 234.809738 
L 190.985752 234.809738 
L 191.027271 234.580277 
L 191.491036 234.580277 
L 191.491036 234.465547 
L 191.774087 234.465547 
L 191.774087 234.350817 
L 192.775155 234.350817 
L 192.775155 234.236086 
L 192.924572 234.236086 
L 192.924572 234.121356 
L 193.136527 234.121356 
L 193.136527 234.006626 
L 193.662544 234.006626 
L 193.662544 233.891895 
L 193.851667 233.891895 
L 193.851667 233.777165 
L 194.288194 233.777165 
L 194.333996 233.547704 
L 195.129775 233.547704 
L 195.212612 233.318243 
L 195.758537 233.318243 
L 195.758537 233.203513 
L 196.166833 233.203513 
L 196.166833 233.088783 
L 196.326696 233.088783 
L 196.326696 232.974052 
L 196.55371 232.974052 
L 196.55371 232.859322 
L 198.160843 232.859322 
L 198.160843 232.744592 
L 198.294394 232.744592 
L 198.403401 232.515131 
L 199.163561 232.515131 
L 199.163561 232.400401 
L 199.920213 232.400401 
L 199.920213 232.28567 
L 200.696286 232.28567 
L 200.783408 232.05621 
L 200.846497 232.05621 
L 200.898373 231.826749 
L 200.993863 231.826749 
L 200.993863 231.712019 
L 201.340094 231.712019 
L 201.340094 231.597288 
L 201.915134 231.597288 
L 201.915134 231.482558 
L 204.43271 231.482558 
L 204.449365 231.253097 
L 205.196322 231.253097 
L 205.196322 231.138367 
L 205.76835 231.138367 
L 205.76835 231.023637 
L 206.21492 231.023637 
L 206.21492 230.908906 
L 208.042492 230.908906 
L 208.042492 230.794176 
L 208.248644 230.794176 
L 208.248644 230.679446 
L 211.727869 230.679446 
L 211.727869 230.564715 
L 213.081851 230.564715 
L 213.081851 230.449985 
L 215.269473 230.449985 
L 215.272915 230.220524 
L 215.468695 230.220524 
L 215.468695 230.105794 
L 215.994374 230.105794 
L 216.012858 229.761603 
L 217.003574 229.761603 
L 217.003574 229.646872 
L 218.382574 229.646872 
L 218.382574 229.532142 
L 220.57952 229.532142 
L 220.57952 229.417412 
L 223.4424 229.417412 
L 223.4424 229.302681 
L 223.762631 229.302681 
L 223.762631 229.187951 
L 226.09074 229.187951 
L 226.09074 229.073221 
L 228.418599 229.073221 
L 228.418599 228.95849 
L 338.688 228.95849 
L 338.688 228.95849 
" style="fill:none;stroke:#ff00ff;stroke-linecap:square;stroke-width:1.5;"/>
   </g>
   <g id="line2d_41">
    <defs>
     <path d="M -0 8.485281 
L 5.091169 0 
L 0 -8.485281 
L -5.091169 -0 
z
" id="m07867e1408" style="stroke:#ff00ff;stroke-linejoin:miter;stroke-width:1.5;"/>
    </defs>
    <g>
     <use style="fill-opacity:0;stroke:#ff00ff;stroke-linejoin:miter;stroke-width:1.5;" x="113.965867" xlink:href="#m07867e1408" y="260.853526"/>
     <use style="fill-opacity:0;stroke:#ff00ff;stroke-linejoin:miter;stroke-width:1.5;" x="175.85677" xlink:href="#m07867e1408" y="239.857873"/>
     <use style="fill-opacity:0;stroke:#ff00ff;stroke-linejoin:miter;stroke-width:1.5;" x="228.418599" xlink:href="#m07867e1408" y="229.073221"/>
     <use style="fill-opacity:0;stroke:#ff00ff;stroke-linejoin:miter;stroke-width:1.5;" x="228.418599" xlink:href="#m07867e1408" y="228.95849"/>
     <use style="fill-opacity:0;stroke:#ff00ff;stroke-linejoin:miter;stroke-width:1.5;" x="228.418599" xlink:href="#m07867e1408" y="228.95849"/>
     <use style="fill-opacity:0;stroke:#ff00ff;stroke-linejoin:miter;stroke-width:1.5;" x="338.688" xlink:href="#m07867e1408" y="228.95849"/>
    </g>
   </g>
   <g id="line2d_42">
    <path style="fill:none;stroke:#ff00ff;stroke-linecap:square;stroke-width:1.5;"/>
    <g/>
   </g>
   <g id="line2d_43">
    <path clip-path="url(#p821213f934)" d="M 158.031107 246.512233 
" style="fill:none;stroke:#ff00ff;stroke-linecap:square;stroke-width:1.5;"/>
    <defs>
     <path d="M -12 12 
L 12 -12 
M -12 -12 
L 12 12 
" id="m6f590283e5" style="stroke:#ff00ff;"/>
    </defs>
    <g clip-path="url(#p821213f934)">
     <use style="fill:#ff00ff;stroke:#ff00ff;" x="158.031107" xlink:href="#m6f590283e5" y="246.512233"/>
    </g>
   </g>
   <g id="line2d_44">
    <path d="M 338.688 243.873435 
L 369.60768 293.092752 
" style="fill:none;stroke:#000080;stroke-linecap:square;stroke-width:1.5;"/>
    <g>
     <use style="fill-opacity:0;stroke:#000080;stroke-width:1.5;" x="338.688" xlink:href="#mc60f909f5a" y="243.873435"/>
     <use style="fill-opacity:0;stroke:#000080;stroke-width:1.5;" x="369.60768" xlink:href="#mc60f909f5a" y="293.092752"/>
    </g>
   </g>
   <g id="line2d_45">
    <path d="M 338.688 228.95849 
L 369.60768 152.662812 
" style="fill:none;stroke:#ff00ff;stroke-linecap:square;stroke-width:1.5;"/>
    <g>
     <use style="fill-opacity:0;stroke:#ff00ff;stroke-linejoin:miter;stroke-width:1.5;" x="338.688" xlink:href="#m07867e1408" y="228.95849"/>
     <use style="fill-opacity:0;stroke:#ff00ff;stroke-linejoin:miter;stroke-width:1.5;" x="369.60768" xlink:href="#m07867e1408" y="152.662812"/>
    </g>
   </g>
   <g id="line2d_46">
    <path d="M 338.688 298.944 
L 338.688 6.381624 
" style="fill:none;stroke:#000000;stroke-linecap:square;stroke-width:1.5;"/>
   </g>
   <g id="patch_3">
    <path d="M 57.6 298.944 
L 57.6 3.456 
" style="fill:none;stroke:#000000;stroke-linecap:square;stroke-linejoin:miter;stroke-width:0.8;"/>
   </g>
   <g id="patch_4">
    <path d="M 338.688 298.944 
L 338.688 3.456 
" style="fill:none;stroke:#000000;stroke-linecap:square;stroke-linejoin:miter;stroke-width:0.8;"/>
   </g>
   <g id="patch_5">
    <path d="M 57.6 298.944 
L 338.688 298.944 
" style="fill:none;stroke:#000000;stroke-linecap:square;stroke-linejoin:miter;stroke-width:0.8;"/>
   </g>
   <g id="patch_6">
    <path d="M 57.6 3.456 
L 338.688 3.456 
" style="fill:none;stroke:#000000;stroke-linecap:square;stroke-linejoin:miter;stroke-width:0.8;"/>
   </g>
   <g id="text_13">
    <!-- gpy lcb -->
    <defs>
     <path d="M 32.171875 -5.078125 
Q 28.375 -14.84375 24.75 -17.8125 
Q 21.140625 -20.796875 15.09375 -20.796875 
L 7.90625 -20.796875 
L 7.90625 -13.28125 
L 13.1875 -13.28125 
Q 16.890625 -13.28125 18.9375 -11.515625 
Q 21 -9.765625 23.484375 -3.21875 
L 25.09375 0.875 
L 2.984375 54.6875 
L 12.5 54.6875 
L 29.59375 11.921875 
L 46.6875 54.6875 
L 56.203125 54.6875 
z
" id="DejaVuSans-121"/>
     <path d="M 48.6875 27.296875 
Q 48.6875 37.203125 44.609375 42.84375 
Q 40.53125 48.484375 33.40625 48.484375 
Q 26.265625 48.484375 22.1875 42.84375 
Q 18.109375 37.203125 18.109375 27.296875 
Q 18.109375 17.390625 22.1875 11.75 
Q 26.265625 6.109375 33.40625 6.109375 
Q 40.53125 6.109375 44.609375 11.75 
Q 48.6875 17.390625 48.6875 27.296875 
z
M 18.109375 46.390625 
Q 20.953125 51.265625 25.265625 53.625 
Q 29.59375 56 35.59375 56 
Q 45.5625 56 51.78125 48.09375 
Q 58.015625 40.1875 58.015625 27.296875 
Q 58.015625 14.40625 51.78125 6.484375 
Q 45.5625 -1.421875 35.59375 -1.421875 
Q 29.59375 -1.421875 25.265625 0.953125 
Q 20.953125 3.328125 18.109375 8.203125 
L 18.109375 0 
L 9.078125 0 
L 9.078125 75.984375 
L 18.109375 75.984375 
z
" id="DejaVuSans-98"/>
    </defs>
    <g transform="translate(375.22944 297.78369)scale(0.17 -0.17)">
     <use xlink:href="#DejaVuSans-103"/>
     <use x="63.476562" xlink:href="#DejaVuSans-112"/>
     <use x="126.953125" xlink:href="#DejaVuSans-121"/>
     <use x="186.132812" xlink:href="#DejaVuSans-32"/>
     <use x="217.919922" xlink:href="#DejaVuSans-108"/>
     <use x="245.703125" xlink:href="#DejaVuSans-99"/>
     <use x="300.683594" xlink:href="#DejaVuSans-98"/>
    </g>
   </g>
   <g id="text_14">
    <!-- scp fmin -->
    <g transform="translate(375.22944 157.353749)scale(0.17 -0.17)">
     <use xlink:href="#DejaVuSans-115"/>
     <use x="52.099609" xlink:href="#DejaVuSans-99"/>
     <use x="107.080078" xlink:href="#DejaVuSans-112"/>
     <use x="170.556641" xlink:href="#DejaVuSans-32"/>
     <use x="202.34375" xlink:href="#DejaVuSans-102"/>
     <use x="237.548828" xlink:href="#DejaVuSans-109"/>
     <use x="334.960938" xlink:href="#DejaVuSans-105"/>
     <use x="362.744141" xlink:href="#DejaVuSans-110"/>
    </g>
   </g>
   <g id="text_15">
    <!-- best 2009 -->
    <defs>
     <path d="M 10.984375 1.515625 
L 10.984375 10.5 
Q 14.703125 8.734375 18.5 7.8125 
Q 22.3125 6.890625 25.984375 6.890625 
Q 35.75 6.890625 40.890625 13.453125 
Q 46.046875 20.015625 46.78125 33.40625 
Q 43.953125 29.203125 39.59375 26.953125 
Q 35.25 24.703125 29.984375 24.703125 
Q 19.046875 24.703125 12.671875 31.3125 
Q 6.296875 37.9375 6.296875 49.421875 
Q 6.296875 60.640625 12.9375 67.421875 
Q 19.578125 74.21875 30.609375 74.21875 
Q 43.265625 74.21875 49.921875 64.515625 
Q 56.59375 54.828125 56.59375 36.375 
Q 56.59375 19.140625 48.40625 8.859375 
Q 40.234375 -1.421875 26.421875 -1.421875 
Q 22.703125 -1.421875 18.890625 -0.6875 
Q 15.09375 0.046875 10.984375 1.515625 
z
M 30.609375 32.421875 
Q 37.25 32.421875 41.125 36.953125 
Q 45.015625 41.5 45.015625 49.421875 
Q 45.015625 57.28125 41.125 61.84375 
Q 37.25 66.40625 30.609375 66.40625 
Q 23.96875 66.40625 20.09375 61.84375 
Q 16.21875 57.28125 16.21875 49.421875 
Q 16.21875 41.5 20.09375 36.953125 
Q 23.96875 32.421875 30.609375 32.421875 
z
" id="DejaVuSans-57"/>
    </defs>
    <g transform="translate(375.22944 16.923809)scale(0.17 -0.17)">
     <use xlink:href="#DejaVuSans-98"/>
     <use x="63.476562" xlink:href="#DejaVuSans-101"/>
     <use x="125" xlink:href="#DejaVuSans-115"/>
     <use x="177.099609" xlink:href="#DejaVuSans-116"/>
     <use x="216.308594" xlink:href="#DejaVuSans-32"/>
     <use x="248.095703" xlink:href="#DejaVuSans-50"/>
     <use x="311.71875" xlink:href="#DejaVuSans-48"/>
     <use x="375.341797" xlink:href="#DejaVuSans-48"/>
     <use x="438.964844" xlink:href="#DejaVuSans-57"/>
    </g>
   </g>
   <g id="text_16">
    <!-- bbob f15-f19, 3-D -->
    <defs>
     <path d="M 10.796875 72.90625 
L 49.515625 72.90625 
L 49.515625 64.59375 
L 19.828125 64.59375 
L 19.828125 46.734375 
Q 21.96875 47.46875 24.109375 47.828125 
Q 26.265625 48.1875 28.421875 48.1875 
Q 40.625 48.1875 47.75 41.5 
Q 54.890625 34.8125 54.890625 23.390625 
Q 54.890625 11.625 47.5625 5.09375 
Q 40.234375 -1.421875 26.90625 -1.421875 
Q 22.3125 -1.421875 17.546875 -0.640625 
Q 12.796875 0.140625 7.71875 1.703125 
L 7.71875 11.625 
Q 12.109375 9.234375 16.796875 8.0625 
Q 21.484375 6.890625 26.703125 6.890625 
Q 35.15625 6.890625 40.078125 11.328125 
Q 45.015625 15.765625 45.015625 23.390625 
Q 45.015625 31 40.078125 35.4375 
Q 35.15625 39.890625 26.703125 39.890625 
Q 22.75 39.890625 18.8125 39.015625 
Q 14.890625 38.140625 10.796875 36.28125 
z
" id="DejaVuSans-53"/>
     <path d="M 40.578125 39.3125 
Q 47.65625 37.796875 51.625 33 
Q 55.609375 28.21875 55.609375 21.1875 
Q 55.609375 10.40625 48.1875 4.484375 
Q 40.765625 -1.421875 27.09375 -1.421875 
Q 22.515625 -1.421875 17.65625 -0.515625 
Q 12.796875 0.390625 7.625 2.203125 
L 7.625 11.71875 
Q 11.71875 9.328125 16.59375 8.109375 
Q 21.484375 6.890625 26.8125 6.890625 
Q 36.078125 6.890625 40.9375 10.546875 
Q 45.796875 14.203125 45.796875 21.1875 
Q 45.796875 27.640625 41.28125 31.265625 
Q 36.765625 34.90625 28.71875 34.90625 
L 20.21875 34.90625 
L 20.21875 43.015625 
L 29.109375 43.015625 
Q 36.375 43.015625 40.234375 45.921875 
Q 44.09375 48.828125 44.09375 54.296875 
Q 44.09375 59.90625 40.109375 62.90625 
Q 36.140625 65.921875 28.71875 65.921875 
Q 24.65625 65.921875 20.015625 65.03125 
Q 15.375 64.15625 9.8125 62.3125 
L 9.8125 71.09375 
Q 15.4375 72.65625 20.34375 73.4375 
Q 25.25 74.21875 29.59375 74.21875 
Q 40.828125 74.21875 47.359375 69.109375 
Q 53.90625 64.015625 53.90625 55.328125 
Q 53.90625 49.265625 50.4375 45.09375 
Q 46.96875 40.921875 40.578125 39.3125 
z
" id="DejaVuSans-51"/>
     <path d="M 19.671875 64.796875 
L 19.671875 8.109375 
L 31.59375 8.109375 
Q 46.6875 8.109375 53.6875 14.9375 
Q 60.6875 21.78125 60.6875 36.53125 
Q 60.6875 51.171875 53.6875 57.984375 
Q 46.6875 64.796875 31.59375 64.796875 
z
M 9.8125 72.90625 
L 30.078125 72.90625 
Q 51.265625 72.90625 61.171875 64.09375 
Q 71.09375 55.28125 71.09375 36.53125 
Q 71.09375 17.671875 61.125 8.828125 
Q 51.171875 0 30.078125 0 
L 9.8125 0 
z
" id="DejaVuSans-68"/>
    </defs>
    <g transform="translate(60.41088 14.161286)scale(0.102 -0.102)">
     <use xlink:href="#DejaVuSans-98"/>
     <use x="63.476562" xlink:href="#DejaVuSans-98"/>
     <use x="126.953125" xlink:href="#DejaVuSans-111"/>
     <use x="188.134766" xlink:href="#DejaVuSans-98"/>
     <use x="251.611328" xlink:href="#DejaVuSans-32"/>
     <use x="283.398438" xlink:href="#DejaVuSans-102"/>
     <use x="318.603516" xlink:href="#DejaVuSans-49"/>
     <use x="382.226562" xlink:href="#DejaVuSans-53"/>
     <use x="445.849609" xlink:href="#DejaVuSans-45"/>
     <use x="481.933594" xlink:href="#DejaVuSans-102"/>
     <use x="517.138672" xlink:href="#DejaVuSans-49"/>
     <use x="580.761719" xlink:href="#DejaVuSans-57"/>
     <use x="644.384766" xlink:href="#DejaVuSans-44"/>
     <use x="676.171875" xlink:href="#DejaVuSans-32"/>
     <use x="707.958984" xlink:href="#DejaVuSans-51"/>
     <use x="771.582031" xlink:href="#DejaVuSans-45"/>
     <use x="807.666016" xlink:href="#DejaVuSans-68"/>
    </g>
    <!-- 51 targets: 100..1e-08 -->
    <defs>
     <path d="M 11.71875 12.40625 
L 22.015625 12.40625 
L 22.015625 0 
L 11.71875 0 
z
M 11.71875 51.703125 
L 22.015625 51.703125 
L 22.015625 39.3125 
L 11.71875 39.3125 
z
" id="DejaVuSans-58"/>
    </defs>
    <g transform="translate(60.41088 25.583055)scale(0.102 -0.102)">
     <use xlink:href="#DejaVuSans-53"/>
     <use x="63.623047" xlink:href="#DejaVuSans-49"/>
     <use x="127.246094" xlink:href="#DejaVuSans-32"/>
     <use x="159.033203" xlink:href="#DejaVuSans-116"/>
     <use x="198.242188" xlink:href="#DejaVuSans-97"/>
     <use x="259.521484" xlink:href="#DejaVuSans-114"/>
     <use x="298.884766" xlink:href="#DejaVuSans-103"/>
     <use x="362.361328" xlink:href="#DejaVuSans-101"/>
     <use x="423.884766" xlink:href="#DejaVuSans-116"/>
     <use x="463.09375" xlink:href="#DejaVuSans-115"/>
     <use x="515.193359" xlink:href="#DejaVuSans-58"/>
     <use x="548.884766" xlink:href="#DejaVuSans-32"/>
     <use x="580.671875" xlink:href="#DejaVuSans-49"/>
     <use x="644.294922" xlink:href="#DejaVuSans-48"/>
     <use x="707.917969" xlink:href="#DejaVuSans-48"/>
     <use x="771.541016" xlink:href="#DejaVuSans-46"/>
     <use x="803.328125" xlink:href="#DejaVuSans-46"/>
     <use x="835.115234" xlink:href="#DejaVuSans-49"/>
     <use x="898.738281" xlink:href="#DejaVuSans-101"/>
     <use x="960.261719" xlink:href="#DejaVuSans-45"/>
     <use x="996.345703" xlink:href="#DejaVuSans-48"/>
     <use x="1059.96875" xlink:href="#DejaVuSans-56"/>
    </g>
    <!-- 15 instances -->
    <g transform="translate(60.41088 37.004824)scale(0.102 -0.102)">
     <use xlink:href="#DejaVuSans-49"/>
     <use x="63.623047" xlink:href="#DejaVuSans-53"/>
     <use x="127.246094" xlink:href="#DejaVuSans-32"/>
     <use x="159.033203" xlink:href="#DejaVuSans-105"/>
     <use x="186.816406" xlink:href="#DejaVuSans-110"/>
     <use x="250.195312" xlink:href="#DejaVuSans-115"/>
     <use x="302.294922" xlink:href="#DejaVuSans-116"/>
     <use x="341.503906" xlink:href="#DejaVuSans-97"/>
     <use x="402.783203" xlink:href="#DejaVuSans-110"/>
     <use x="466.162109" xlink:href="#DejaVuSans-99"/>
     <use x="521.142578" xlink:href="#DejaVuSans-101"/>
     <use x="582.666016" xlink:href="#DejaVuSans-115"/>
    </g>
   </g>
   <g id="text_17">
    <!-- v2.3.3.5 -->
    <g style="fill:#808080;" transform="translate(177.692437 293.909432)scale(0.1 -0.1)">
     <use xlink:href="#DejaVuSans-118"/>
     <use x="59.179688" xlink:href="#DejaVuSans-50"/>
     <use x="122.802734" xlink:href="#DejaVuSans-46"/>
     <use x="154.589844" xlink:href="#DejaVuSans-51"/>
     <use x="218.212891" xlink:href="#DejaVuSans-46"/>
     <use x="250" xlink:href="#DejaVuSans-51"/>
     <use x="313.623047" xlink:href="#DejaVuSans-46"/>
     <use x="345.410156" xlink:href="#DejaVuSans-53"/>
    </g>
   </g>
  </g>
 </g>
 <defs>
  <clipPath id="p821213f934">
   <rect height="295.488" width="281.088" x="57.6" y="3.456"/>
  </clipPath>
 </defs>
</svg>
