<?xml version="1.0" encoding="utf-8" standalone="no"?>
<!DOCTYPE svg PUBLIC "-//W3C//DTD SVG 1.1//EN"
  "http://www.w3.org/Graphics/SVG/1.1/DTD/svg11.dtd">
<!-- Created with matplotlib (https://matplotlib.org/) -->
<svg height="345.6pt" version="1.1" viewBox="0 0 460.8 345.6" width="460.8pt" xmlns="http://www.w3.org/2000/svg" xmlns:xlink="http://www.w3.org/1999/xlink">
 <defs>
  <style type="text/css">
*{stroke-linecap:butt;stroke-linejoin:round;}
  </style>
 </defs>
 <g id="figure_1">
  <g id="patch_1">
   <path d="M 0 345.6 
L 460.8 345.6 
L 460.8 0 
L 0 0 
z
" style="fill:#ffffff;"/>
  </g>
  <g id="axes_1">
   <g id="patch_2">
    <path d="M 57.6 298.944 
L 338.688 298.944 
L 338.688 3.456 
L 57.6 3.456 
z
" style="fill:#ffffff;"/>
   </g>
   <g id="matplotlib.axis_1">
    <g id="xtick_1">
     <g id="line2d_1">
      <path clip-path="url(#pf627f16c19)" d="M 57.6 298.944 
L 57.6 3.456 
" style="fill:none;stroke:#b0b0b0;stroke-linecap:square;stroke-width:0.8;"/>
     </g>
     <g id="line2d_2">
      <defs>
       <path d="M 0 0 
L 0 3.5 
" id="m163e252090" style="stroke:#000000;stroke-width:0.8;"/>
      </defs>
      <g>
       <use style="stroke:#000000;stroke-width:0.8;" x="57.6" xlink:href="#m163e252090" y="298.944"/>
      </g>
     </g>
     <g id="text_1">
      <!-- 0 -->
      <defs>
       <path d="M 31.78125 66.40625 
Q 24.171875 66.40625 20.328125 58.90625 
Q 16.5 51.421875 16.5 36.375 
Q 16.5 21.390625 20.328125 13.890625 
Q 24.171875 6.390625 31.78125 6.390625 
Q 39.453125 6.390625 43.28125 13.890625 
Q 47.125 21.390625 47.125 36.375 
Q 47.125 51.421875 43.28125 58.90625 
Q 39.453125 66.40625 31.78125 66.40625 
z
M 31.78125 74.21875 
Q 44.046875 74.21875 50.515625 64.515625 
Q 56.984375 54.828125 56.984375 36.375 
Q 56.984375 17.96875 50.515625 8.265625 
Q 44.046875 -1.421875 31.78125 -1.421875 
Q 19.53125 -1.421875 13.0625 8.265625 
Q 6.59375 17.96875 6.59375 36.375 
Q 6.59375 54.828125 13.0625 64.515625 
Q 19.53125 74.21875 31.78125 74.21875 
z
" id="DejaVuSans-48"/>
      </defs>
      <g transform="translate(51.2375 321.140875)scale(0.2 -0.2)">
       <use xlink:href="#DejaVuSans-48"/>
      </g>
     </g>
    </g>
    <g id="xtick_2">
     <g id="line2d_3">
      <path clip-path="url(#pf627f16c19)" d="M 137.910857 298.944 
L 137.910857 3.456 
" style="fill:none;stroke:#b0b0b0;stroke-linecap:square;stroke-width:0.8;"/>
     </g>
     <g id="line2d_4">
      <g>
       <use style="stroke:#000000;stroke-width:0.8;" x="137.910857" xlink:href="#m163e252090" y="298.944"/>
      </g>
     </g>
     <g id="text_2">
      <!-- 2 -->
      <defs>
       <path d="M 19.1875 8.296875 
L 53.609375 8.296875 
L 53.609375 0 
L 7.328125 0 
L 7.328125 8.296875 
Q 12.9375 14.109375 22.625 23.890625 
Q 32.328125 33.6875 34.8125 36.53125 
Q 39.546875 41.84375 41.421875 45.53125 
Q 43.3125 49.21875 43.3125 52.78125 
Q 43.3125 58.59375 39.234375 62.25 
Q 35.15625 65.921875 28.609375 65.921875 
Q 23.96875 65.921875 18.8125 64.3125 
Q 13.671875 62.703125 7.8125 59.421875 
L 7.8125 69.390625 
Q 13.765625 71.78125 18.9375 73 
Q 24.125 74.21875 28.421875 74.21875 
Q 39.75 74.21875 46.484375 68.546875 
Q 53.21875 62.890625 53.21875 53.421875 
Q 53.21875 48.921875 51.53125 44.890625 
Q 49.859375 40.875 45.40625 35.40625 
Q 44.1875 33.984375 37.640625 27.21875 
Q 31.109375 20.453125 19.1875 8.296875 
z
" id="DejaVuSans-50"/>
      </defs>
      <g transform="translate(131.548357 321.140875)scale(0.2 -0.2)">
       <use xlink:href="#DejaVuSans-50"/>
      </g>
     </g>
    </g>
    <g id="xtick_3">
     <g id="line2d_5">
      <path clip-path="url(#pf627f16c19)" d="M 218.221714 298.944 
L 218.221714 3.456 
" style="fill:none;stroke:#b0b0b0;stroke-linecap:square;stroke-width:0.8;"/>
     </g>
     <g id="line2d_6">
      <g>
       <use style="stroke:#000000;stroke-width:0.8;" x="218.221714" xlink:href="#m163e252090" y="298.944"/>
      </g>
     </g>
     <g id="text_3">
      <!-- 4 -->
      <defs>
       <path d="M 37.796875 64.3125 
L 12.890625 25.390625 
L 37.796875 25.390625 
z
M 35.203125 72.90625 
L 47.609375 72.90625 
L 47.609375 25.390625 
L 58.015625 25.390625 
L 58.015625 17.1875 
L 47.609375 17.1875 
L 47.609375 0 
L 37.796875 0 
L 37.796875 17.1875 
L 4.890625 17.1875 
L 4.890625 26.703125 
z
" id="DejaVuSans-52"/>
      </defs>
      <g transform="translate(211.859214 321.140875)scale(0.2 -0.2)">
       <use xlink:href="#DejaVuSans-52"/>
      </g>
     </g>
    </g>
    <g id="xtick_4">
     <g id="line2d_7">
      <path clip-path="url(#pf627f16c19)" d="M 298.532571 298.944 
L 298.532571 3.456 
" style="fill:none;stroke:#b0b0b0;stroke-linecap:square;stroke-width:0.8;"/>
     </g>
     <g id="line2d_8">
      <g>
       <use style="stroke:#000000;stroke-width:0.8;" x="298.532571" xlink:href="#m163e252090" y="298.944"/>
      </g>
     </g>
     <g id="text_4">
      <!-- 6 -->
      <defs>
       <path d="M 33.015625 40.375 
Q 26.375 40.375 22.484375 35.828125 
Q 18.609375 31.296875 18.609375 23.390625 
Q 18.609375 15.53125 22.484375 10.953125 
Q 26.375 6.390625 33.015625 6.390625 
Q 39.65625 6.390625 43.53125 10.953125 
Q 47.40625 15.53125 47.40625 23.390625 
Q 47.40625 31.296875 43.53125 35.828125 
Q 39.65625 40.375 33.015625 40.375 
z
M 52.59375 71.296875 
L 52.59375 62.3125 
Q 48.875 64.0625 45.09375 64.984375 
Q 41.3125 65.921875 37.59375 65.921875 
Q 27.828125 65.921875 22.671875 59.328125 
Q 17.53125 52.734375 16.796875 39.40625 
Q 19.671875 43.65625 24.015625 45.921875 
Q 28.375 48.1875 33.59375 48.1875 
Q 44.578125 48.1875 50.953125 41.515625 
Q 57.328125 34.859375 57.328125 23.390625 
Q 57.328125 12.15625 50.6875 5.359375 
Q 44.046875 -1.421875 33.015625 -1.421875 
Q 20.359375 -1.421875 13.671875 8.265625 
Q 6.984375 17.96875 6.984375 36.375 
Q 6.984375 53.65625 15.1875 63.9375 
Q 23.390625 74.21875 37.203125 74.21875 
Q 40.921875 74.21875 44.703125 73.484375 
Q 48.484375 72.75 52.59375 71.296875 
z
" id="DejaVuSans-54"/>
      </defs>
      <g transform="translate(292.170071 321.140875)scale(0.2 -0.2)">
       <use xlink:href="#DejaVuSans-54"/>
      </g>
     </g>
    </g>
    <g id="xtick_5">
     <g id="line2d_9">
      <path clip-path="url(#pf627f16c19)" d="M 97.755429 298.944 
L 97.755429 3.456 
" style="fill:none;stroke:#b0b0b0;stroke-linecap:square;stroke-width:0.8;"/>
     </g>
     <g id="line2d_10">
      <defs>
       <path d="M 0 0 
L 0 2 
" id="m4e1614f03b" style="stroke:#000000;stroke-width:0.6;"/>
      </defs>
      <g>
       <use style="stroke:#000000;stroke-width:0.6;" x="97.755429" xlink:href="#m4e1614f03b" y="298.944"/>
      </g>
     </g>
    </g>
    <g id="xtick_6">
     <g id="line2d_11">
      <path clip-path="url(#pf627f16c19)" d="M 178.066286 298.944 
L 178.066286 3.456 
" style="fill:none;stroke:#b0b0b0;stroke-linecap:square;stroke-width:0.8;"/>
     </g>
     <g id="line2d_12">
      <g>
       <use style="stroke:#000000;stroke-width:0.6;" x="178.066286" xlink:href="#m4e1614f03b" y="298.944"/>
      </g>
     </g>
    </g>
    <g id="xtick_7">
     <g id="line2d_13">
      <path clip-path="url(#pf627f16c19)" d="M 258.377143 298.944 
L 258.377143 3.456 
" style="fill:none;stroke:#b0b0b0;stroke-linecap:square;stroke-width:0.8;"/>
     </g>
     <g id="line2d_14">
      <g>
       <use style="stroke:#000000;stroke-width:0.6;" x="258.377143" xlink:href="#m4e1614f03b" y="298.944"/>
      </g>
     </g>
    </g>
    <g id="xtick_8">
     <g id="line2d_15">
      <path clip-path="url(#pf627f16c19)" d="M 338.688 298.944 
L 338.688 3.456 
" style="fill:none;stroke:#b0b0b0;stroke-linecap:square;stroke-width:0.8;"/>
     </g>
     <g id="line2d_16">
      <g>
       <use style="stroke:#000000;stroke-width:0.6;" x="338.688" xlink:href="#m4e1614f03b" y="298.944"/>
      </g>
     </g>
    </g>
    <g id="text_5">
     <!-- log10(# f-evals / dimension) -->
     <defs>
      <path d="M 9.421875 75.984375 
L 18.40625 75.984375 
L 18.40625 0 
L 9.421875 0 
z
" id="DejaVuSans-108"/>
      <path d="M 30.609375 48.390625 
Q 23.390625 48.390625 19.1875 42.75 
Q 14.984375 37.109375 14.984375 27.296875 
Q 14.984375 17.484375 19.15625 11.84375 
Q 23.34375 6.203125 30.609375 6.203125 
Q 37.796875 6.203125 41.984375 11.859375 
Q 46.1875 17.53125 46.1875 27.296875 
Q 46.1875 37.015625 41.984375 42.703125 
Q 37.796875 48.390625 30.609375 48.390625 
z
M 30.609375 56 
Q 42.328125 56 49.015625 48.375 
Q 55.71875 40.765625 55.71875 27.296875 
Q 55.71875 13.875 49.015625 6.21875 
Q 42.328125 -1.421875 30.609375 -1.421875 
Q 18.84375 -1.421875 12.171875 6.21875 
Q 5.515625 13.875 5.515625 27.296875 
Q 5.515625 40.765625 12.171875 48.375 
Q 18.84375 56 30.609375 56 
z
" id="DejaVuSans-111"/>
      <path d="M 45.40625 27.984375 
Q 45.40625 37.75 41.375 43.109375 
Q 37.359375 48.484375 30.078125 48.484375 
Q 22.859375 48.484375 18.828125 43.109375 
Q 14.796875 37.75 14.796875 27.984375 
Q 14.796875 18.265625 18.828125 12.890625 
Q 22.859375 7.515625 30.078125 7.515625 
Q 37.359375 7.515625 41.375 12.890625 
Q 45.40625 18.265625 45.40625 27.984375 
z
M 54.390625 6.78125 
Q 54.390625 -7.171875 48.1875 -13.984375 
Q 42 -20.796875 29.203125 -20.796875 
Q 24.46875 -20.796875 20.265625 -20.09375 
Q 16.0625 -19.390625 12.109375 -17.921875 
L 12.109375 -9.1875 
Q 16.0625 -11.328125 19.921875 -12.34375 
Q 23.78125 -13.375 27.78125 -13.375 
Q 36.625 -13.375 41.015625 -8.765625 
Q 45.40625 -4.15625 45.40625 5.171875 
L 45.40625 9.625 
Q 42.625 4.78125 38.28125 2.390625 
Q 33.9375 0 27.875 0 
Q 17.828125 0 11.671875 7.65625 
Q 5.515625 15.328125 5.515625 27.984375 
Q 5.515625 40.671875 11.671875 48.328125 
Q 17.828125 56 27.875 56 
Q 33.9375 56 38.28125 53.609375 
Q 42.625 51.21875 45.40625 46.390625 
L 45.40625 54.6875 
L 54.390625 54.6875 
z
" id="DejaVuSans-103"/>
      <path d="M 12.40625 8.296875 
L 28.515625 8.296875 
L 28.515625 63.921875 
L 10.984375 60.40625 
L 10.984375 69.390625 
L 28.421875 72.90625 
L 38.28125 72.90625 
L 38.28125 8.296875 
L 54.390625 8.296875 
L 54.390625 0 
L 12.40625 0 
z
" id="DejaVuSans-49"/>
      <path d="M 31 75.875 
Q 24.46875 64.65625 21.28125 53.65625 
Q 18.109375 42.671875 18.109375 31.390625 
Q 18.109375 20.125 21.3125 9.0625 
Q 24.515625 -2 31 -13.1875 
L 23.1875 -13.1875 
Q 15.875 -1.703125 12.234375 9.375 
Q 8.59375 20.453125 8.59375 31.390625 
Q 8.59375 42.28125 12.203125 53.3125 
Q 15.828125 64.359375 23.1875 75.875 
z
" id="DejaVuSans-40"/>
      <path d="M 51.125 44 
L 36.921875 44 
L 32.8125 27.6875 
L 47.125 27.6875 
z
M 43.796875 71.78125 
L 38.71875 51.515625 
L 52.984375 51.515625 
L 58.109375 71.78125 
L 65.921875 71.78125 
L 60.890625 51.515625 
L 76.125 51.515625 
L 76.125 44 
L 58.984375 44 
L 54.984375 27.6875 
L 70.515625 27.6875 
L 70.515625 20.21875 
L 53.078125 20.21875 
L 48 0 
L 40.1875 0 
L 45.21875 20.21875 
L 30.90625 20.21875 
L 25.875 0 
L 18.015625 0 
L 23.09375 20.21875 
L 7.71875 20.21875 
L 7.71875 27.6875 
L 24.90625 27.6875 
L 29 44 
L 13.28125 44 
L 13.28125 51.515625 
L 30.90625 51.515625 
L 35.890625 71.78125 
z
" id="DejaVuSans-35"/>
      <path id="DejaVuSans-32"/>
      <path d="M 37.109375 75.984375 
L 37.109375 68.5 
L 28.515625 68.5 
Q 23.6875 68.5 21.796875 66.546875 
Q 19.921875 64.59375 19.921875 59.515625 
L 19.921875 54.6875 
L 34.71875 54.6875 
L 34.71875 47.703125 
L 19.921875 47.703125 
L 19.921875 0 
L 10.890625 0 
L 10.890625 47.703125 
L 2.296875 47.703125 
L 2.296875 54.6875 
L 10.890625 54.6875 
L 10.890625 58.5 
Q 10.890625 67.625 15.140625 71.796875 
Q 19.390625 75.984375 28.609375 75.984375 
z
" id="DejaVuSans-102"/>
      <path d="M 4.890625 31.390625 
L 31.203125 31.390625 
L 31.203125 23.390625 
L 4.890625 23.390625 
z
" id="DejaVuSans-45"/>
      <path d="M 56.203125 29.59375 
L 56.203125 25.203125 
L 14.890625 25.203125 
Q 15.484375 15.921875 20.484375 11.0625 
Q 25.484375 6.203125 34.421875 6.203125 
Q 39.59375 6.203125 44.453125 7.46875 
Q 49.3125 8.734375 54.109375 11.28125 
L 54.109375 2.78125 
Q 49.265625 0.734375 44.1875 -0.34375 
Q 39.109375 -1.421875 33.890625 -1.421875 
Q 20.796875 -1.421875 13.15625 6.1875 
Q 5.515625 13.8125 5.515625 26.8125 
Q 5.515625 40.234375 12.765625 48.109375 
Q 20.015625 56 32.328125 56 
Q 43.359375 56 49.78125 48.890625 
Q 56.203125 41.796875 56.203125 29.59375 
z
M 47.21875 32.234375 
Q 47.125 39.59375 43.09375 43.984375 
Q 39.0625 48.390625 32.421875 48.390625 
Q 24.90625 48.390625 20.390625 44.140625 
Q 15.875 39.890625 15.1875 32.171875 
z
" id="DejaVuSans-101"/>
      <path d="M 2.984375 54.6875 
L 12.5 54.6875 
L 29.59375 8.796875 
L 46.6875 54.6875 
L 56.203125 54.6875 
L 35.6875 0 
L 23.484375 0 
z
" id="DejaVuSans-118"/>
      <path d="M 34.28125 27.484375 
Q 23.390625 27.484375 19.1875 25 
Q 14.984375 22.515625 14.984375 16.5 
Q 14.984375 11.71875 18.140625 8.90625 
Q 21.296875 6.109375 26.703125 6.109375 
Q 34.1875 6.109375 38.703125 11.40625 
Q 43.21875 16.703125 43.21875 25.484375 
L 43.21875 27.484375 
z
M 52.203125 31.203125 
L 52.203125 0 
L 43.21875 0 
L 43.21875 8.296875 
Q 40.140625 3.328125 35.546875 0.953125 
Q 30.953125 -1.421875 24.3125 -1.421875 
Q 15.921875 -1.421875 10.953125 3.296875 
Q 6 8.015625 6 15.921875 
Q 6 25.140625 12.171875 29.828125 
Q 18.359375 34.515625 30.609375 34.515625 
L 43.21875 34.515625 
L 43.21875 35.40625 
Q 43.21875 41.609375 39.140625 45 
Q 35.0625 48.390625 27.6875 48.390625 
Q 23 48.390625 18.546875 47.265625 
Q 14.109375 46.140625 10.015625 43.890625 
L 10.015625 52.203125 
Q 14.9375 54.109375 19.578125 55.046875 
Q 24.21875 56 28.609375 56 
Q 40.484375 56 46.34375 49.84375 
Q 52.203125 43.703125 52.203125 31.203125 
z
" id="DejaVuSans-97"/>
      <path d="M 44.28125 53.078125 
L 44.28125 44.578125 
Q 40.484375 46.53125 36.375 47.5 
Q 32.28125 48.484375 27.875 48.484375 
Q 21.1875 48.484375 17.84375 46.4375 
Q 14.5 44.390625 14.5 40.28125 
Q 14.5 37.15625 16.890625 35.375 
Q 19.28125 33.59375 26.515625 31.984375 
L 29.59375 31.296875 
Q 39.15625 29.25 43.1875 25.515625 
Q 47.21875 21.78125 47.21875 15.09375 
Q 47.21875 7.46875 41.1875 3.015625 
Q 35.15625 -1.421875 24.609375 -1.421875 
Q 20.21875 -1.421875 15.453125 -0.5625 
Q 10.6875 0.296875 5.421875 2 
L 5.421875 11.28125 
Q 10.40625 8.6875 15.234375 7.390625 
Q 20.0625 6.109375 24.8125 6.109375 
Q 31.15625 6.109375 34.5625 8.28125 
Q 37.984375 10.453125 37.984375 14.40625 
Q 37.984375 18.0625 35.515625 20.015625 
Q 33.0625 21.96875 24.703125 23.78125 
L 21.578125 24.515625 
Q 13.234375 26.265625 9.515625 29.90625 
Q 5.8125 33.546875 5.8125 39.890625 
Q 5.8125 47.609375 11.28125 51.796875 
Q 16.75 56 26.8125 56 
Q 31.78125 56 36.171875 55.265625 
Q 40.578125 54.546875 44.28125 53.078125 
z
" id="DejaVuSans-115"/>
      <path d="M 25.390625 72.90625 
L 33.6875 72.90625 
L 8.296875 -9.28125 
L 0 -9.28125 
z
" id="DejaVuSans-47"/>
      <path d="M 45.40625 46.390625 
L 45.40625 75.984375 
L 54.390625 75.984375 
L 54.390625 0 
L 45.40625 0 
L 45.40625 8.203125 
Q 42.578125 3.328125 38.25 0.953125 
Q 33.9375 -1.421875 27.875 -1.421875 
Q 17.96875 -1.421875 11.734375 6.484375 
Q 5.515625 14.40625 5.515625 27.296875 
Q 5.515625 40.1875 11.734375 48.09375 
Q 17.96875 56 27.875 56 
Q 33.9375 56 38.25 53.625 
Q 42.578125 51.265625 45.40625 46.390625 
z
M 14.796875 27.296875 
Q 14.796875 17.390625 18.875 11.75 
Q 22.953125 6.109375 30.078125 6.109375 
Q 37.203125 6.109375 41.296875 11.75 
Q 45.40625 17.390625 45.40625 27.296875 
Q 45.40625 37.203125 41.296875 42.84375 
Q 37.203125 48.484375 30.078125 48.484375 
Q 22.953125 48.484375 18.875 42.84375 
Q 14.796875 37.203125 14.796875 27.296875 
z
" id="DejaVuSans-100"/>
      <path d="M 9.421875 54.6875 
L 18.40625 54.6875 
L 18.40625 0 
L 9.421875 0 
z
M 9.421875 75.984375 
L 18.40625 75.984375 
L 18.40625 64.59375 
L 9.421875 64.59375 
z
" id="DejaVuSans-105"/>
      <path d="M 52 44.1875 
Q 55.375 50.25 60.0625 53.125 
Q 64.75 56 71.09375 56 
Q 79.640625 56 84.28125 50.015625 
Q 88.921875 44.046875 88.921875 33.015625 
L 88.921875 0 
L 79.890625 0 
L 79.890625 32.71875 
Q 79.890625 40.578125 77.09375 44.375 
Q 74.3125 48.1875 68.609375 48.1875 
Q 61.625 48.1875 57.5625 43.546875 
Q 53.515625 38.921875 53.515625 30.90625 
L 53.515625 0 
L 44.484375 0 
L 44.484375 32.71875 
Q 44.484375 40.625 41.703125 44.40625 
Q 38.921875 48.1875 33.109375 48.1875 
Q 26.21875 48.1875 22.15625 43.53125 
Q 18.109375 38.875 18.109375 30.90625 
L 18.109375 0 
L 9.078125 0 
L 9.078125 54.6875 
L 18.109375 54.6875 
L 18.109375 46.1875 
Q 21.1875 51.21875 25.484375 53.609375 
Q 29.78125 56 35.6875 56 
Q 41.65625 56 45.828125 52.96875 
Q 50 49.953125 52 44.1875 
z
" id="DejaVuSans-109"/>
      <path d="M 54.890625 33.015625 
L 54.890625 0 
L 45.90625 0 
L 45.90625 32.71875 
Q 45.90625 40.484375 42.875 44.328125 
Q 39.84375 48.1875 33.796875 48.1875 
Q 26.515625 48.1875 22.3125 43.546875 
Q 18.109375 38.921875 18.109375 30.90625 
L 18.109375 0 
L 9.078125 0 
L 9.078125 54.6875 
L 18.109375 54.6875 
L 18.109375 46.1875 
Q 21.34375 51.125 25.703125 53.5625 
Q 30.078125 56 35.796875 56 
Q 45.21875 56 50.046875 50.171875 
Q 54.890625 44.34375 54.890625 33.015625 
z
" id="DejaVuSans-110"/>
      <path d="M 8.015625 75.875 
L 15.828125 75.875 
Q 23.140625 64.359375 26.78125 53.3125 
Q 30.421875 42.28125 30.421875 31.390625 
Q 30.421875 20.453125 26.78125 9.375 
Q 23.140625 -1.703125 15.828125 -13.1875 
L 8.015625 -13.1875 
Q 14.5 -2 17.703125 9.0625 
Q 20.90625 20.125 20.90625 31.390625 
Q 20.90625 42.671875 17.703125 53.65625 
Q 14.5 64.65625 8.015625 75.875 
z
" id="DejaVuSans-41"/>
     </defs>
     <g transform="translate(77.764078 342.217594)scale(0.17 -0.17)">
      <use xlink:href="#DejaVuSans-108"/>
      <use x="27.783203" xlink:href="#DejaVuSans-111"/>
      <use x="88.964844" xlink:href="#DejaVuSans-103"/>
      <use x="152.441406" xlink:href="#DejaVuSans-49"/>
      <use x="216.064453" xlink:href="#DejaVuSans-48"/>
      <use x="279.6875" xlink:href="#DejaVuSans-40"/>
      <use x="318.701172" xlink:href="#DejaVuSans-35"/>
      <use x="402.490234" xlink:href="#DejaVuSans-32"/>
      <use x="434.277344" xlink:href="#DejaVuSans-102"/>
      <use x="463.982422" xlink:href="#DejaVuSans-45"/>
      <use x="500.066406" xlink:href="#DejaVuSans-101"/>
      <use x="561.589844" xlink:href="#DejaVuSans-118"/>
      <use x="620.769531" xlink:href="#DejaVuSans-97"/>
      <use x="682.048828" xlink:href="#DejaVuSans-108"/>
      <use x="709.832031" xlink:href="#DejaVuSans-115"/>
      <use x="761.931641" xlink:href="#DejaVuSans-32"/>
      <use x="793.71875" xlink:href="#DejaVuSans-47"/>
      <use x="827.410156" xlink:href="#DejaVuSans-32"/>
      <use x="859.197266" xlink:href="#DejaVuSans-100"/>
      <use x="922.673828" xlink:href="#DejaVuSans-105"/>
      <use x="950.457031" xlink:href="#DejaVuSans-109"/>
      <use x="1047.869141" xlink:href="#DejaVuSans-101"/>
      <use x="1109.392578" xlink:href="#DejaVuSans-110"/>
      <use x="1172.771484" xlink:href="#DejaVuSans-115"/>
      <use x="1224.871094" xlink:href="#DejaVuSans-105"/>
      <use x="1252.654297" xlink:href="#DejaVuSans-111"/>
      <use x="1313.835938" xlink:href="#DejaVuSans-110"/>
      <use x="1377.214844" xlink:href="#DejaVuSans-41"/>
     </g>
    </g>
   </g>
   <g id="matplotlib.axis_2">
    <g id="ytick_1">
     <g id="line2d_17">
      <path clip-path="url(#pf627f16c19)" d="M 57.6 298.944 
L 338.688 298.944 
" style="fill:none;stroke:#b0b0b0;stroke-linecap:square;stroke-width:0.8;"/>
     </g>
     <g id="line2d_18">
      <defs>
       <path d="M 0 0 
L -3.5 0 
" id="mab9714753f" style="stroke:#000000;stroke-width:0.8;"/>
      </defs>
      <g>
       <use style="stroke:#000000;stroke-width:0.8;" x="57.6" xlink:href="#mab9714753f" y="298.944"/>
      </g>
     </g>
     <g id="text_6">
      <!-- 0.0 -->
      <defs>
       <path d="M 10.6875 12.40625 
L 21 12.40625 
L 21 0 
L 10.6875 0 
z
" id="DejaVuSans-46"/>
      </defs>
      <g transform="translate(25.155 305.02275)scale(0.16 -0.16)">
       <use xlink:href="#DejaVuSans-48"/>
       <use x="63.623047" xlink:href="#DejaVuSans-46"/>
       <use x="95.410156" xlink:href="#DejaVuSans-48"/>
      </g>
     </g>
    </g>
    <g id="ytick_2">
     <g id="line2d_19">
      <path clip-path="url(#pf627f16c19)" d="M 57.6 240.431525 
L 338.688 240.431525 
" style="fill:none;stroke:#b0b0b0;stroke-linecap:square;stroke-width:0.8;"/>
     </g>
     <g id="line2d_20">
      <g>
       <use style="stroke:#000000;stroke-width:0.8;" x="57.6" xlink:href="#mab9714753f" y="240.431525"/>
      </g>
     </g>
     <g id="text_7">
      <!-- 0.2 -->
      <g transform="translate(25.155 246.510275)scale(0.16 -0.16)">
       <use xlink:href="#DejaVuSans-48"/>
       <use x="63.623047" xlink:href="#DejaVuSans-46"/>
       <use x="95.410156" xlink:href="#DejaVuSans-50"/>
      </g>
     </g>
    </g>
    <g id="ytick_3">
     <g id="line2d_21">
      <path clip-path="url(#pf627f16c19)" d="M 57.6 181.91905 
L 338.688 181.91905 
" style="fill:none;stroke:#b0b0b0;stroke-linecap:square;stroke-width:0.8;"/>
     </g>
     <g id="line2d_22">
      <g>
       <use style="stroke:#000000;stroke-width:0.8;" x="57.6" xlink:href="#mab9714753f" y="181.91905"/>
      </g>
     </g>
     <g id="text_8">
      <!-- 0.4 -->
      <g transform="translate(25.155 187.9978)scale(0.16 -0.16)">
       <use xlink:href="#DejaVuSans-48"/>
       <use x="63.623047" xlink:href="#DejaVuSans-46"/>
       <use x="95.410156" xlink:href="#DejaVuSans-52"/>
      </g>
     </g>
    </g>
    <g id="ytick_4">
     <g id="line2d_23">
      <path clip-path="url(#pf627f16c19)" d="M 57.6 123.406574 
L 338.688 123.406574 
" style="fill:none;stroke:#b0b0b0;stroke-linecap:square;stroke-width:0.8;"/>
     </g>
     <g id="line2d_24">
      <g>
       <use style="stroke:#000000;stroke-width:0.8;" x="57.6" xlink:href="#mab9714753f" y="123.406574"/>
      </g>
     </g>
     <g id="text_9">
      <!-- 0.6 -->
      <g transform="translate(25.155 129.485324)scale(0.16 -0.16)">
       <use xlink:href="#DejaVuSans-48"/>
       <use x="63.623047" xlink:href="#DejaVuSans-46"/>
       <use x="95.410156" xlink:href="#DejaVuSans-54"/>
      </g>
     </g>
    </g>
    <g id="ytick_5">
     <g id="line2d_25">
      <path clip-path="url(#pf627f16c19)" d="M 57.6 64.894099 
L 338.688 64.894099 
" style="fill:none;stroke:#b0b0b0;stroke-linecap:square;stroke-width:0.8;"/>
     </g>
     <g id="line2d_26">
      <g>
       <use style="stroke:#000000;stroke-width:0.8;" x="57.6" xlink:href="#mab9714753f" y="64.894099"/>
      </g>
     </g>
     <g id="text_10">
      <!-- 0.8 -->
      <defs>
       <path d="M 31.78125 34.625 
Q 24.75 34.625 20.71875 30.859375 
Q 16.703125 27.09375 16.703125 20.515625 
Q 16.703125 13.921875 20.71875 10.15625 
Q 24.75 6.390625 31.78125 6.390625 
Q 38.8125 6.390625 42.859375 10.171875 
Q 46.921875 13.96875 46.921875 20.515625 
Q 46.921875 27.09375 42.890625 30.859375 
Q 38.875 34.625 31.78125 34.625 
z
M 21.921875 38.8125 
Q 15.578125 40.375 12.03125 44.71875 
Q 8.5 49.078125 8.5 55.328125 
Q 8.5 64.0625 14.71875 69.140625 
Q 20.953125 74.21875 31.78125 74.21875 
Q 42.671875 74.21875 48.875 69.140625 
Q 55.078125 64.0625 55.078125 55.328125 
Q 55.078125 49.078125 51.53125 44.71875 
Q 48 40.375 41.703125 38.8125 
Q 48.828125 37.15625 52.796875 32.3125 
Q 56.78125 27.484375 56.78125 20.515625 
Q 56.78125 9.90625 50.3125 4.234375 
Q 43.84375 -1.421875 31.78125 -1.421875 
Q 19.734375 -1.421875 13.25 4.234375 
Q 6.78125 9.90625 6.78125 20.515625 
Q 6.78125 27.484375 10.78125 32.3125 
Q 14.796875 37.15625 21.921875 38.8125 
z
M 18.3125 54.390625 
Q 18.3125 48.734375 21.84375 45.5625 
Q 25.390625 42.390625 31.78125 42.390625 
Q 38.140625 42.390625 41.71875 45.5625 
Q 45.3125 48.734375 45.3125 54.390625 
Q 45.3125 60.0625 41.71875 63.234375 
Q 38.140625 66.40625 31.78125 66.40625 
Q 25.390625 66.40625 21.84375 63.234375 
Q 18.3125 60.0625 18.3125 54.390625 
z
" id="DejaVuSans-56"/>
      </defs>
      <g transform="translate(25.155 70.972849)scale(0.16 -0.16)">
       <use xlink:href="#DejaVuSans-48"/>
       <use x="63.623047" xlink:href="#DejaVuSans-46"/>
       <use x="95.410156" xlink:href="#DejaVuSans-56"/>
      </g>
     </g>
    </g>
    <g id="ytick_6">
     <g id="line2d_27">
      <path clip-path="url(#pf627f16c19)" d="M 57.6 6.381624 
L 338.688 6.381624 
" style="fill:none;stroke:#b0b0b0;stroke-linecap:square;stroke-width:0.8;"/>
     </g>
     <g id="line2d_28">
      <g>
       <use style="stroke:#000000;stroke-width:0.8;" x="57.6" xlink:href="#mab9714753f" y="6.381624"/>
      </g>
     </g>
     <g id="text_11">
      <!-- 1.0 -->
      <g transform="translate(25.155 12.460374)scale(0.16 -0.16)">
       <use xlink:href="#DejaVuSans-49"/>
       <use x="63.623047" xlink:href="#DejaVuSans-46"/>
       <use x="95.410156" xlink:href="#DejaVuSans-48"/>
      </g>
     </g>
    </g>
    <g id="text_12">
     <!-- Fraction of function,target pairs -->
     <defs>
      <path d="M 9.8125 72.90625 
L 51.703125 72.90625 
L 51.703125 64.59375 
L 19.671875 64.59375 
L 19.671875 43.109375 
L 48.578125 43.109375 
L 48.578125 34.8125 
L 19.671875 34.8125 
L 19.671875 0 
L 9.8125 0 
z
" id="DejaVuSans-70"/>
      <path d="M 41.109375 46.296875 
Q 39.59375 47.171875 37.8125 47.578125 
Q 36.03125 48 33.890625 48 
Q 26.265625 48 22.1875 43.046875 
Q 18.109375 38.09375 18.109375 28.8125 
L 18.109375 0 
L 9.078125 0 
L 9.078125 54.6875 
L 18.109375 54.6875 
L 18.109375 46.1875 
Q 20.953125 51.171875 25.484375 53.578125 
Q 30.03125 56 36.53125 56 
Q 37.453125 56 38.578125 55.875 
Q 39.703125 55.765625 41.0625 55.515625 
z
" id="DejaVuSans-114"/>
      <path d="M 48.78125 52.59375 
L 48.78125 44.1875 
Q 44.96875 46.296875 41.140625 47.34375 
Q 37.3125 48.390625 33.40625 48.390625 
Q 24.65625 48.390625 19.8125 42.84375 
Q 14.984375 37.3125 14.984375 27.296875 
Q 14.984375 17.28125 19.8125 11.734375 
Q 24.65625 6.203125 33.40625 6.203125 
Q 37.3125 6.203125 41.140625 7.25 
Q 44.96875 8.296875 48.78125 10.40625 
L 48.78125 2.09375 
Q 45.015625 0.34375 40.984375 -0.53125 
Q 36.96875 -1.421875 32.421875 -1.421875 
Q 20.0625 -1.421875 12.78125 6.34375 
Q 5.515625 14.109375 5.515625 27.296875 
Q 5.515625 40.671875 12.859375 48.328125 
Q 20.21875 56 33.015625 56 
Q 37.15625 56 41.109375 55.140625 
Q 45.0625 54.296875 48.78125 52.59375 
z
" id="DejaVuSans-99"/>
      <path d="M 18.3125 70.21875 
L 18.3125 54.6875 
L 36.8125 54.6875 
L 36.8125 47.703125 
L 18.3125 47.703125 
L 18.3125 18.015625 
Q 18.3125 11.328125 20.140625 9.421875 
Q 21.96875 7.515625 27.59375 7.515625 
L 36.8125 7.515625 
L 36.8125 0 
L 27.59375 0 
Q 17.1875 0 13.234375 3.875 
Q 9.28125 7.765625 9.28125 18.015625 
L 9.28125 47.703125 
L 2.6875 47.703125 
L 2.6875 54.6875 
L 9.28125 54.6875 
L 9.28125 70.21875 
z
" id="DejaVuSans-116"/>
      <path d="M 8.5 21.578125 
L 8.5 54.6875 
L 17.484375 54.6875 
L 17.484375 21.921875 
Q 17.484375 14.15625 20.5 10.265625 
Q 23.53125 6.390625 29.59375 6.390625 
Q 36.859375 6.390625 41.078125 11.03125 
Q 45.3125 15.671875 45.3125 23.6875 
L 45.3125 54.6875 
L 54.296875 54.6875 
L 54.296875 0 
L 45.3125 0 
L 45.3125 8.40625 
Q 42.046875 3.421875 37.71875 1 
Q 33.40625 -1.421875 27.6875 -1.421875 
Q 18.265625 -1.421875 13.375 4.4375 
Q 8.5 10.296875 8.5 21.578125 
z
M 31.109375 56 
z
" id="DejaVuSans-117"/>
      <path d="M 11.71875 12.40625 
L 22.015625 12.40625 
L 22.015625 4 
L 14.015625 -11.625 
L 7.71875 -11.625 
L 11.71875 4 
z
" id="DejaVuSans-44"/>
      <path d="M 18.109375 8.203125 
L 18.109375 -20.796875 
L 9.078125 -20.796875 
L 9.078125 54.6875 
L 18.109375 54.6875 
L 18.109375 46.390625 
Q 20.953125 51.265625 25.265625 53.625 
Q 29.59375 56 35.59375 56 
Q 45.5625 56 51.78125 48.09375 
Q 58.015625 40.1875 58.015625 27.296875 
Q 58.015625 14.40625 51.78125 6.484375 
Q 45.5625 -1.421875 35.59375 -1.421875 
Q 29.59375 -1.421875 25.265625 0.953125 
Q 20.953125 3.328125 18.109375 8.203125 
z
M 48.6875 27.296875 
Q 48.6875 37.203125 44.609375 42.84375 
Q 40.53125 48.484375 33.40625 48.484375 
Q 26.265625 48.484375 22.1875 42.84375 
Q 18.109375 37.203125 18.109375 27.296875 
Q 18.109375 17.390625 22.1875 11.75 
Q 26.265625 6.109375 33.40625 6.109375 
Q 40.53125 6.109375 44.609375 11.75 
Q 48.6875 17.390625 48.6875 27.296875 
z
" id="DejaVuSans-112"/>
     </defs>
     <g transform="translate(17.619531 285.585)rotate(-90)scale(0.17 -0.17)">
      <use xlink:href="#DejaVuSans-70"/>
      <use x="50.269531" xlink:href="#DejaVuSans-114"/>
      <use x="91.382812" xlink:href="#DejaVuSans-97"/>
      <use x="152.662109" xlink:href="#DejaVuSans-99"/>
      <use x="207.642578" xlink:href="#DejaVuSans-116"/>
      <use x="246.851562" xlink:href="#DejaVuSans-105"/>
      <use x="274.634766" xlink:href="#DejaVuSans-111"/>
      <use x="335.816406" xlink:href="#DejaVuSans-110"/>
      <use x="399.195312" xlink:href="#DejaVuSans-32"/>
      <use x="430.982422" xlink:href="#DejaVuSans-111"/>
      <use x="492.164062" xlink:href="#DejaVuSans-102"/>
      <use x="527.369141" xlink:href="#DejaVuSans-32"/>
      <use x="559.15625" xlink:href="#DejaVuSans-102"/>
      <use x="594.361328" xlink:href="#DejaVuSans-117"/>
      <use x="657.740234" xlink:href="#DejaVuSans-110"/>
      <use x="721.119141" xlink:href="#DejaVuSans-99"/>
      <use x="776.099609" xlink:href="#DejaVuSans-116"/>
      <use x="815.308594" xlink:href="#DejaVuSans-105"/>
      <use x="843.091797" xlink:href="#DejaVuSans-111"/>
      <use x="904.273438" xlink:href="#DejaVuSans-110"/>
      <use x="967.652344" xlink:href="#DejaVuSans-44"/>
      <use x="999.439453" xlink:href="#DejaVuSans-116"/>
      <use x="1038.648438" xlink:href="#DejaVuSans-97"/>
      <use x="1099.927734" xlink:href="#DejaVuSans-114"/>
      <use x="1139.291016" xlink:href="#DejaVuSans-103"/>
      <use x="1202.767578" xlink:href="#DejaVuSans-101"/>
      <use x="1264.291016" xlink:href="#DejaVuSans-116"/>
      <use x="1303.5" xlink:href="#DejaVuSans-32"/>
      <use x="1335.287109" xlink:href="#DejaVuSans-112"/>
      <use x="1398.763672" xlink:href="#DejaVuSans-97"/>
      <use x="1460.042969" xlink:href="#DejaVuSans-105"/>
      <use x="1487.826172" xlink:href="#DejaVuSans-114"/>
      <use x="1528.939453" xlink:href="#DejaVuSans-115"/>
     </g>
    </g>
   </g>
   <g id="line2d_29">
    <defs>
     <path d="M 0 1.5 
C 0.397805 1.5 0.77937 1.341951 1.06066 1.06066 
C 1.341951 0.77937 1.5 0.397805 1.5 0 
C 1.5 -0.397805 1.341951 -0.77937 1.06066 -1.06066 
C 0.77937 -1.341951 0.397805 -1.5 0 -1.5 
C -0.397805 -1.5 -0.77937 -1.341951 -1.06066 -1.06066 
C -1.341951 -0.77937 -1.5 -0.397805 -1.5 0 
C -1.5 0.397805 -1.341951 0.77937 -1.06066 1.06066 
C -0.77937 1.341951 -0.397805 1.5 0 1.5 
z
" id="m07585fbc05" style="stroke:#00bfbf;"/>
    </defs>
    <g>
     <use style="fill:#00bfbf;stroke:#00bfbf;" x="232.592064" xlink:href="#m07585fbc05" y="78.66174"/>
     <use style="fill:#00bfbf;stroke:#00bfbf;" x="232.592064" xlink:href="#m07585fbc05" y="78.66174"/>
    </g>
   </g>
   <g id="line2d_30">
    <path d="M 45.512012 298.944 
L 45.512012 281.849179 
L 76.759008 281.849179 
L 76.759008 281.619718 
L 83.830028 281.619718 
L 83.830028 281.390257 
L 87.329581 281.390257 
L 87.329581 281.275527 
L 88.846997 281.275527 
L 88.846997 281.046066 
L 91.535274 281.046066 
L 91.535274 280.701875 
L 92.73846 280.701875 
L 92.73846 280.472415 
L 93.863965 280.472415 
L 93.863965 280.357684 
L 94.921215 280.357684 
L 94.921215 280.128224 
L 95.918017 280.128224 
L 95.918017 279.898763 
L 97.755429 279.898763 
L 97.755429 279.669302 
L 98.606294 279.669302 
L 98.606294 279.554572 
L 99.41757 279.554572 
L 99.41757 278.98092 
L 100.192776 278.98092 
L 100.192776 278.063077 
L 100.934985 278.063077 
L 100.934985 277.948347 
L 101.646892 277.948347 
L 101.646892 277.604156 
L 102.330873 277.604156 
L 102.330873 277.374695 
L 102.989037 277.374695 
L 102.989037 276.686313 
L 103.623262 276.686313 
L 103.623262 276.342122 
L 104.23523 276.342122 
L 104.23523 275.997931 
L 104.826449 275.997931 
L 104.826449 275.883201 
L 105.398279 275.883201 
L 105.398279 275.53901 
L 105.951954 275.53901 
L 105.951954 274.965358 
L 106.48859 274.965358 
L 106.48859 268.76992 
L 107.009204 268.76992 
L 107.009204 266.016391 
L 107.514726 266.016391 
L 107.514726 265.44274 
L 108.483824 265.44274 
L 108.483824 265.328009 
L 108.948899 265.328009 
L 108.948899 265.213279 
L 109.401893 265.213279 
L 109.401893 264.180706 
L 109.843417 264.180706 
L 109.843417 263.951245 
L 110.274038 263.951245 
L 110.274038 263.836515 
L 110.694282 263.836515 
L 110.694282 263.721785 
L 111.104637 263.721785 
L 111.104637 263.607054 
L 112.655818 263.607054 
L 112.655818 263.262863 
L 113.382559 263.262863 
L 113.382559 263.033402 
L 113.73488 263.033402 
L 113.73488 262.918672 
L 114.418861 262.918672 
L 114.418861 262.689211 
L 114.751048 262.689211 
L 114.751048 262.11556 
L 115.077025 262.11556 
L 115.077025 262.000829 
L 115.711251 262.000829 
L 115.711251 261.771369 
L 116.323218 261.771369 
L 116.323218 261.541908 
L 116.621333 261.541908 
L 116.621333 261.427178 
L 116.914437 261.427178 
L 116.914437 260.279874 
L 117.202696 260.279874 
L 117.202696 260.050414 
L 117.486268 260.050414 
L 117.486268 259.935683 
L 117.765302 259.935683 
L 117.765302 259.362031 
L 118.039942 259.362031 
L 118.039942 259.247301 
L 118.310324 259.247301 
L 118.310324 259.01784 
L 118.576578 259.01784 
L 118.576578 258.78838 
L 118.838828 258.78838 
L 118.838828 258.673649 
L 119.097192 258.673649 
L 119.097192 258.329458 
L 119.351785 258.329458 
L 119.351785 258.099998 
L 119.602714 258.099998 
L 119.602714 257.985267 
L 119.850084 257.985267 
L 119.850084 257.755807 
L 120.093994 257.755807 
L 120.093994 257.526346 
L 120.33454 257.526346 
L 120.33454 255.920121 
L 120.571812 255.920121 
L 120.571812 255.57593 
L 120.8059 255.57593 
L 120.8059 255.346469 
L 121.036887 255.346469 
L 121.036887 255.117009 
L 121.489881 255.117009 
L 121.489881 254.772818 
L 121.712041 254.772818 
L 121.712041 254.658087 
L 121.931406 254.658087 
L 121.931406 253.051863 
L 122.148045 253.051863 
L 122.148045 252.478211 
L 122.362027 252.478211 
L 122.362027 251.789829 
L 122.573415 251.789829 
L 122.573415 250.871986 
L 122.782271 250.871986 
L 122.782271 250.527795 
L 122.988655 250.527795 
L 122.988655 250.298334 
L 123.192626 250.298334 
L 123.192626 249.839413 
L 123.394238 249.839413 
L 123.394238 249.724683 
L 123.593547 249.724683 
L 123.593547 248.003727 
L 123.790603 248.003727 
L 123.790603 247.774267 
L 123.985457 247.774267 
L 123.985457 246.512233 
L 124.178158 246.512233 
L 124.178158 245.47966 
L 124.368753 245.47966 
L 124.368753 244.676547 
L 124.557288 244.676547 
L 124.557288 244.217626 
L 124.743806 244.217626 
L 124.743806 243.299783 
L 124.92835 243.299783 
L 124.92835 243.070323 
L 125.110962 243.070323 
L 125.110962 242.496671 
L 125.291682 242.496671 
L 125.291682 242.26721 
L 125.470548 242.26721 
L 125.470548 241.693559 
L 125.647598 241.693559 
L 125.647598 240.775716 
L 125.822869 240.775716 
L 125.822869 240.660985 
L 125.996395 240.660985 
L 125.996395 240.546255 
L 126.168212 240.546255 
L 126.168212 239.857873 
L 126.338353 239.857873 
L 126.338353 239.169491 
L 126.50685 239.169491 
L 126.50685 238.251648 
L 126.673734 238.251648 
L 126.673734 238.022188 
L 126.839037 238.022188 
L 126.839037 237.563266 
L 127.002787 237.563266 
L 127.002787 237.448536 
L 127.165014 237.448536 
L 127.165014 236.530693 
L 127.325746 236.530693 
L 127.325746 236.415963 
L 127.48501 236.415963 
L 127.48501 235.38339 
L 127.642832 235.38339 
L 127.642832 235.268659 
L 127.799239 235.268659 
L 127.799239 235.039199 
L 127.954256 235.039199 
L 127.954256 234.465547 
L 128.107907 234.465547 
L 128.107907 233.547704 
L 128.260216 233.547704 
L 128.260216 232.859322 
L 128.411207 232.859322 
L 128.411207 232.629861 
L 128.560901 232.629861 
L 128.560901 232.17094 
L 128.709321 232.17094 
L 128.709321 231.367828 
L 128.856489 231.367828 
L 128.856489 231.253097 
L 129.002426 231.253097 
L 129.002426 229.876333 
L 129.147151 229.876333 
L 129.147151 229.532142 
L 129.290685 229.532142 
L 129.290685 229.417412 
L 129.433047 229.417412 
L 129.433047 229.187951 
L 129.574256 229.187951 
L 129.574256 228.84376 
L 129.853291 228.84376 
L 129.853291 228.384839 
L 129.991152 228.384839 
L 129.991152 227.925917 
L 130.531948 227.925917 
L 130.531948 227.581726 
L 130.664567 227.581726 
L 130.664567 227.466996 
L 130.796184 227.466996 
L 130.796184 227.122805 
L 130.926816 227.122805 
L 130.926816 225.860771 
L 131.056477 225.860771 
L 131.056477 225.746041 
L 131.185181 225.746041 
L 131.185181 224.484007 
L 131.439773 224.484007 
L 131.439773 224.369277 
L 131.565689 224.369277 
L 131.565689 224.139816 
L 131.814826 224.139816 
L 131.814826 223.795625 
L 132.181982 223.795625 
L 132.181982 222.1894 
L 132.30267 222.1894 
L 132.30267 221.959939 
L 132.422528 221.959939 
L 132.422528 221.845209 
L 132.541568 221.845209 
L 132.541568 221.730479 
L 132.893889 221.730479 
L 132.893889 221.615748 
L 133.124876 221.615748 
L 133.124876 221.271557 
L 133.239232 221.271557 
L 133.239232 221.042097 
L 133.352844 221.042097 
L 133.352844 220.468445 
L 133.46572 220.468445 
L 133.46572 220.353715 
L 133.57787 220.353715 
L 133.57787 219.894793 
L 133.800029 219.894793 
L 133.910056 217.944377 
L 134.019394 217.944377 
L 134.12805 217.370726 
L 134.236034 217.370726 
L 134.343353 216.797074 
L 134.450015 216.797074 
L 134.55603 216.452883 
L 134.661403 216.452883 
L 134.661403 216.223422 
L 134.870259 216.223422 
L 134.870259 215.53504 
L 135.076644 215.53504 
L 135.178927 214.273006 
L 135.280614 214.273006 
L 135.381712 213.584624 
L 135.482227 213.584624 
L 135.582166 212.666782 
L 135.681535 212.666782 
L 135.681535 212.437321 
L 135.97629 212.437321 
L 135.97629 211.9784 
L 136.170062 211.9784 
L 136.170062 210.945826 
L 136.361705 210.945826 
L 136.361705 210.716366 
L 136.551264 210.716366 
L 136.645276 209.913253 
L 136.738785 209.913253 
L 136.831795 208.76595 
L 136.924311 208.76595 
L 137.016339 207.044995 
L 137.107884 207.044995 
L 137.198951 206.471343 
L 137.289545 206.471343 
L 137.37967 205.209309 
L 137.469333 205.209309 
L 137.469333 204.176736 
L 137.735587 204.176736 
L 137.823442 203.832545 
L 137.910857 203.832545 
L 137.997836 203.144163 
L 138.084384 203.144163 
L 138.170504 202.570511 
L 138.256201 202.570511 
L 138.341479 202.22632 
L 138.510793 202.22632 
L 138.594838 201.767399 
L 138.67848 201.767399 
L 138.67848 200.734826 
L 138.84457 200.734826 
L 138.927025 199.816983 
L 139.009092 199.816983 
L 139.090775 199.358062 
L 139.172077 199.358062 
L 139.253002 198.096028 
L 139.333553 198.096028 
L 139.413734 197.178185 
L 139.572998 197.178185 
L 139.652088 196.833994 
L 139.730821 196.833994 
L 139.8092 196.375073 
L 139.964909 196.375073 
L 140.042245 195.801421 
L 140.195896 195.801421 
L 140.272217 195.57196 
L 140.348205 195.57196 
L 140.348205 195.227769 
L 140.499195 195.227769 
L 140.574203 194.768848 
L 140.64889 194.768848 
L 140.723258 194.309927 
L 140.79731 194.309927 
L 140.871049 194.080466 
L 140.944478 194.080466 
L 141.017599 193.621545 
L 141.090414 193.621545 
L 141.162927 192.818432 
L 141.235139 192.818432 
L 141.307054 192.359511 
L 141.378673 192.359511 
L 141.45 192.13005 
L 141.521035 192.13005 
L 141.591783 191.097477 
L 141.732423 191.097477 
L 141.732423 190.638556 
L 141.871938 190.638556 
L 141.871938 189.950174 
L 142.215919 189.950174 
L 142.283909 189.032331 
L 142.419098 189.032331 
L 142.419098 188.573409 
L 142.553247 188.573409 
L 142.619936 188.343949 
L 142.752555 188.343949 
L 142.818488 188.114488 
L 142.884173 188.114488 
L 142.949611 187.770297 
L 143.014805 187.770297 
L 143.079756 187.311376 
L 143.144465 187.311376 
L 143.208936 186.967185 
L 143.273169 186.967185 
L 143.273169 186.737724 
L 143.464461 186.737724 
L 143.464461 186.508263 
L 143.590833 186.508263 
L 143.653678 186.049342 
L 143.716296 186.049342 
L 143.716296 185.934612 
L 143.902815 185.934612 
L 143.964547 185.131499 
L 144.026061 185.131499 
L 144.087359 184.328387 
L 144.148442 184.328387 
L 144.148442 184.213656 
L 144.269971 184.213656 
L 144.330419 183.984196 
L 144.390658 183.984196 
L 144.390658 183.640005 
L 144.510517 183.640005 
L 144.570138 183.295814 
L 144.629556 183.295814 
L 144.688773 182.607432 
L 144.747789 182.607432 
L 144.806606 181.91905 
L 144.865226 181.91905 
L 144.865226 181.689589 
L 144.981877 181.689589 
L 144.981877 181.574858 
L 145.097753 181.574858 
L 145.097753 180.886476 
L 145.384119 180.886476 
L 145.384119 180.657016 
L 145.609873 180.657016 
L 145.609873 180.542285 
L 145.832743 180.542285 
L 145.832743 180.427555 
L 146.484754 180.427555 
L 146.484754 180.198094 
L 146.801841 180.198094 
L 146.906268 178.82133 
L 147.164632 178.82133 
L 147.164632 178.59187 
L 147.419225 178.59187 
L 147.419225 178.477139 
L 147.670154 178.477139 
L 147.769524 177.903487 
L 147.818997 177.903487 
L 147.818997 177.788757 
L 147.96658 177.788757 
L 148.064279 175.953072 
L 148.161434 175.953072 
L 148.258051 175.723611 
L 148.306159 175.723611 
L 148.354135 175.37942 
L 148.592055 175.37942 
L 148.592055 175.035229 
L 148.919783 175.035229 
L 149.012299 174.461577 
L 149.286939 174.461577 
L 149.377533 174.002656 
L 149.467659 174.002656 
L 149.467659 173.887925 
L 149.646525 173.887925 
L 149.735275 171.708049 
L 149.911431 171.708049 
L 149.998846 171.134397 
L 150.042389 171.134397 
L 150.085825 170.446015 
L 150.172372 170.446015 
L 150.215485 170.216554 
L 150.344189 170.216554 
L 150.344189 170.101824 
L 150.47195 170.101824 
L 150.556607 169.642903 
L 150.640855 169.642903 
L 150.724698 169.069251 
L 150.849711 169.069251 
L 150.891184 168.72506 
L 150.973835 168.72506 
L 151.015013 168.266139 
L 151.13797 168.266139 
L 151.178764 167.463026 
L 151.300575 167.463026 
L 151.381313 166.430453 
L 151.421542 166.430453 
L 151.461678 165.51261 
L 151.541675 165.51261 
L 151.621307 164.709498 
L 151.660987 164.709498 
L 151.700576 163.791655 
L 151.818809 163.791655 
L 151.897188 163.562195 
L 151.975216 163.562195 
L 152.052897 162.759082 
L 152.207228 162.759082 
L 152.283884 161.95597 
L 152.360205 161.95597 
L 152.436193 161.611779 
L 152.474064 161.611779 
L 152.549559 160.923397 
L 152.624728 160.923397 
L 152.699575 160.693936 
L 152.736878 160.693936 
L 152.811246 160.235015 
L 152.922207 160.235015 
L 153.032466 159.661363 
L 153.214697 159.661363 
L 153.214697 159.546632 
L 153.395042 159.546632 
L 153.502361 159.087711 
L 153.537988 159.087711 
L 153.609024 158.74352 
L 153.679772 158.74352 
L 153.750233 158.399329 
L 153.994632 158.399329 
L 154.098334 158.169868 
L 154.132765 158.169868 
L 154.235652 157.710947 
L 154.269814 157.710947 
L 154.371897 157.137295 
L 154.439623 157.137295 
L 154.507086 156.219453 
L 154.57429 156.219453 
L 154.641235 155.645801 
L 154.707925 155.645801 
L 154.807483 154.842688 
L 154.840544 154.842688 
L 154.93935 154.383767 
L 155.004911 154.383767 
L 155.102793 153.810115 
L 155.135299 153.810115 
L 155.200129 153.465924 
L 155.264719 153.465924 
L 155.361158 152.892273 
L 155.393186 152.892273 
L 155.488919 152.203891 
L 155.520713 152.203891 
L 155.61575 151.744969 
L 155.710272 151.744969 
L 155.804285 151.056587 
L 155.86668 151.056587 
L 155.959855 150.368205 
L 155.990803 150.368205 
L 156.083319 150.024014 
L 156.114049 150.024014 
L 156.175347 149.450362 
L 156.327657 149.450362 
L 156.418408 148.64725 
L 156.448553 148.64725 
L 156.448553 148.53252 
L 156.568618 148.53252 
L 156.568618 148.417789 
L 156.687861 148.417789 
L 156.776762 147.270486 
L 156.806295 147.270486 
L 156.865211 146.811564 
L 156.953214 146.811564 
L 157.040776 146.467373 
L 157.1279 146.467373 
L 157.214591 145.778991 
L 157.272146 145.778991 
L 157.358125 145.090609 
L 157.38669 145.090609 
L 157.443681 144.631688 
L 157.500487 144.631688 
L 157.557108 144.287497 
L 157.641697 144.287497 
L 157.669802 143.943306 
L 157.781772 143.943306 
L 157.86528 143.599115 
L 157.893028 143.599115 
L 158.003578 143.140193 
L 158.113432 143.140193 
L 158.195371 142.796002 
L 158.276927 142.796002 
L 158.385078 142.222351 
L 158.412011 142.222351 
L 158.51933 141.763429 
L 158.625992 141.763429 
L 158.705563 141.419238 
L 158.784773 141.419238 
L 158.863624 141.075047 
L 158.942121 141.075047 
L 159.046236 140.501395 
L 159.072168 140.501395 
L 159.175513 139.927744 
L 159.405822 139.927744 
L 159.431225 139.698283 
L 159.582872 139.698283 
L 159.683242 139.124631 
L 159.708245 139.124631 
L 159.733212 138.895171 
L 159.882266 138.895171 
L 159.906985 138.66571 
L 160.005512 138.66571 
L 160.079044 138.321519 
L 160.152267 138.321519 
L 160.225184 137.633137 
L 160.297798 137.633137 
L 160.346039 137.403676 
L 160.418152 137.403676 
L 160.513841 136.944755 
L 160.56149 136.944755 
L 160.656397 136.485833 
L 160.727241 136.485833 
L 160.797798 136.256373 
L 160.844678 136.256373 
L 160.844678 136.141642 
L 161.007772 136.141642 
L 161.100288 135.797451 
L 161.26102 135.797451 
L 161.329454 135.45326 
L 161.420284 135.45326 
L 161.510643 135.109069 
L 161.53316 135.109069 
L 161.53316 134.994339 
L 161.712255 134.994339 
L 161.734513 134.650148 
L 161.977497 134.650148 
L 162.086834 134.191227 
L 162.10862 134.191227 
L 162.173813 133.847036 
L 162.281931 133.847036 
L 162.367945 133.273384 
L 162.410793 133.273384 
L 162.517456 132.470271 
L 162.602318 132.470271 
L 162.68677 131.89662 
L 162.728843 131.89662 
L 162.791763 131.552429 
L 162.875305 131.552429 
L 162.875305 131.322968 
L 163.020547 131.322968 
L 163.123555 130.749316 
L 163.144084 130.749316 
L 163.225959 129.831474 
L 163.327764 129.831474 
L 163.368321 129.257822 
L 163.449152 129.257822 
L 163.549667 128.56944 
L 163.569701 128.56944 
L 163.669525 127.766327 
L 163.709295 127.766327 
L 163.788565 127.307406 
L 163.828065 127.307406 
L 163.906798 126.619024 
L 164.024234 126.619024 
L 164.082658 126.160103 
L 164.160252 126.160103 
L 164.218222 125.701181 
L 164.276 125.701181 
L 164.35274 125.24226 
L 164.429145 125.24226 
L 164.524182 124.783338 
L 164.543127 124.783338 
L 164.637547 124.209687 
L 164.675172 124.209687 
L 164.675172 124.094956 
L 164.824867 124.094956 
L 164.899235 123.636035 
L 164.9363 123.636035 
L 165.02862 123.177114 
L 165.065412 123.177114 
L 165.157053 122.488732 
L 165.230021 122.488732 
L 165.266391 122.02981 
L 165.356985 122.02981 
L 165.447111 121.570889 
L 165.536773 121.570889 
L 165.643763 121.111967 
L 165.661531 121.111967 
L 165.7501 120.538316 
L 165.820633 120.538316 
L 165.855793 120.308855 
L 165.943384 120.308855 
L 165.943384 120.194125 
L 166.099947 120.194125 
L 166.099947 119.964664 
L 166.289413 119.964664 
L 166.374858 119.620473 
L 166.425924 119.620473 
L 166.425924 119.505743 
L 166.595075 119.505743 
L 166.662278 119.161552 
L 166.729224 119.161552 
L 166.812546 118.5879 
L 166.845764 118.5879 
L 166.895472 118.358439 
L 166.994465 118.358439 
L 167.076532 118.014248 
L 167.158215 118.014248 
L 167.239518 117.784787 
L 167.336582 117.784787 
L 167.43311 117.555327 
L 167.497166 117.555327 
L 167.497166 117.440596 
L 167.608702 117.440596 
L 167.624577 117.096405 
L 167.76681 117.096405 
L 167.84533 116.866945 
L 168.001318 116.866945 
L 168.047843 116.522754 
L 168.18668 116.522754 
L 168.18668 116.408023 
L 168.354881 116.408023 
L 168.445948 116.178563 
L 168.551595 116.178563 
L 168.656606 115.834372 
L 168.71633 115.834372 
L 168.820356 115.37545 
L 168.938489 115.37545 
L 168.938489 115.26072 
L 169.099626 115.26072 
L 169.099626 115.14599 
L 169.259288 115.14599 
L 169.259288 115.031259 
L 169.388841 115.031259 
L 169.446113 114.801798 
L 169.602648 114.801798 
L 169.659223 114.457607 
L 169.78585 114.457607 
L 169.841835 114.228147 
L 169.897641 114.228147 
L 169.994873 113.883956 
L 170.036379 113.883956 
L 170.14658 113.539765 
L 170.201421 113.539765 
L 170.28336 112.736652 
L 170.364915 112.736652 
L 170.459584 111.93354 
L 170.486538 111.93354 
L 170.526891 111.474619 
L 170.674059 111.474619 
L 170.753812 111.015697 
L 170.806779 111.015697 
L 170.833202 110.786236 
L 170.977818 110.786236 
L 170.977818 110.671506 
L 171.108254 110.671506 
L 171.198983 110.212585 
L 171.263501 110.212585 
L 171.340609 109.638933 
L 171.379036 109.638933 
L 171.43014 109.409472 
L 171.645677 109.409472 
L 171.708567 109.065281 
L 171.771231 109.065281 
L 171.858583 108.72109 
L 171.920711 108.72109 
L 171.945501 108.376899 
L 172.068921 108.376899 
L 172.105778 108.147439 
L 172.313173 108.147439 
L 172.42198 107.573787 
L 172.434028 107.573787 
L 172.470121 107.000135 
L 172.66137 107.000135 
L 172.744386 106.655944 
L 172.885786 106.655944 
L 172.967743 106.197023 
L 173.360433 106.197023 
L 173.406055 105.738101 
L 173.564801 105.738101 
L 173.666095 105.27918 
L 173.677313 105.27918 
L 173.688525 105.049719 
L 173.83362 105.049719 
L 173.83362 104.934989 
L 173.999552 104.934989 
L 173.999552 104.820259 
L 174.16392 104.820259 
L 174.272644 104.246607 
L 174.283479 104.246607 
L 174.283479 104.131877 
L 174.911127 104.131877 
L 174.984116 103.902416 
L 175.149812 103.902416 
L 175.221811 103.672955 
L 175.273058 103.672955 
L 175.344551 103.328764 
L 175.607562 103.328764 
L 175.617599 103.099303 
L 175.727626 103.099303 
L 175.727626 102.869843 
L 175.906187 102.869843 
L 176.014414 102.296191 
L 176.03402 102.296191 
L 176.141459 101.952 
L 176.151193 101.952 
L 176.23856 101.607809 
L 176.296562 101.607809 
L 176.392805 101.148888 
L 176.421575 101.148888 
L 176.52666 100.575236 
L 176.60269 100.575236 
L 176.697263 100.231045 
L 176.716117 100.231045 
L 176.819447 99.657393 
L 176.884885 99.657393 
L 176.959372 99.427932 
L 177.14421 99.427932 
L 177.14421 99.313202 
L 177.263313 99.313202 
L 177.327109 99.083741 
L 177.444973 99.083741 
L 177.526107 98.854281 
L 177.633702 98.854281 
L 177.678338 98.62482 
L 177.864572 98.62482 
L 177.864572 98.51009 
L 177.996389 98.51009 
L 178.022633 98.280629 
L 178.205245 98.280629 
L 178.248444 98.051168 
L 178.385964 98.051168 
L 178.496907 97.477517 
L 178.513913 97.477517 
L 178.513913 97.362786 
L 178.657795 97.362786 
L 178.657795 97.248056 
L 178.817212 97.248056 
L 178.817212 97.133326 
L 179.107114 97.133326 
L 179.107114 97.018595 
L 179.319393 97.018595 
L 179.416503 96.674404 
L 179.593145 96.674404 
L 179.688747 96.330213 
L 179.744273 96.330213 
L 179.744273 96.215483 
L 179.9098 96.215483 
L 179.995881 95.986022 
L 180.08154 95.986022 
L 180.182234 95.527101 
L 180.243911 95.527101 
L 180.290026 95.29764 
L 180.480872 95.29764 
L 180.549068 95.068179 
L 180.67716 95.068179 
L 180.67716 94.953449 
L 181.289386 94.953449 
L 181.289386 94.723988 
L 181.55553 94.723988 
L 181.584061 94.494528 
L 181.669373 94.494528 
L 181.669373 94.379797 
L 181.950772 94.379797 
L 182.020417 94.150337 
L 182.062072 94.150337 
L 182.15888 93.806146 
L 182.296252 93.806146 
L 182.296252 93.691415 
L 182.418968 93.691415 
L 182.527329 93.347224 
L 182.554315 93.347224 
L 182.554315 93.232494 
L 183.085434 93.232494 
L 183.196243 92.773573 
L 183.41577 92.773573 
L 183.428598 92.544112 
L 183.664224 92.544112 
L 183.664224 92.429381 
L 184.002497 92.429381 
L 184.002497 92.314651 
L 184.163058 92.314651 
L 184.163058 92.199921 
L 184.297772 92.199921 
L 184.297772 92.08519 
L 184.473775 92.08519 
L 184.473775 91.97046 
L 184.653996 91.97046 
L 184.653996 91.85573 
L 184.832374 91.85573 
L 184.844202 91.511539 
L 185.026506 91.511539 
L 185.026506 91.396808 
L 185.206924 91.396808 
L 185.2185 91.167348 
L 185.436997 91.167348 
L 185.545227 90.937887 
L 185.798914 90.937887 
L 185.798914 90.823157 
L 186.037927 90.823157 
L 186.05448 90.478966 
L 186.20276 90.478966 
L 186.246454 90.020044 
L 186.484833 90.020044 
L 186.484833 89.905314 
L 187.366163 89.905314 
L 187.366163 89.790584 
L 187.539233 89.790584 
L 187.615046 89.446393 
L 187.750682 89.446393 
L 187.835545 88.872741 
L 187.964542 88.872741 
L 187.964542 88.75801 
L 188.175811 88.75801 
L 188.263494 88.52855 
L 188.403842 88.52855 
L 188.403842 88.413819 
L 188.789967 88.413819 
L 188.794681 88.184359 
L 188.958872 88.184359 
L 188.972874 87.954898 
L 189.278104 87.954898 
L 189.296432 87.725437 
L 189.744023 87.725437 
L 189.744023 87.610707 
L 189.87742 87.610707 
L 189.87742 87.495977 
L 190.018593 87.495977 
L 190.018593 87.381246 
L 190.520976 87.381246 
L 190.631621 87.037055 
L 190.686682 87.037055 
L 190.686682 86.922325 
L 190.846637 86.922325 
L 190.884308 86.692864 
L 191.013442 86.692864 
L 191.013442 86.578134 
L 191.145746 86.578134 
L 191.236127 86.348673 
L 191.272966 86.348673 
L 191.334192 86.119213 
L 191.572952 86.119213 
L 191.665149 85.889752 
L 191.740946 85.889752 
L 191.820378 85.660291 
L 191.978165 85.660291 
L 191.978165 85.545561 
L 192.485145 85.545561 
L 192.553669 85.20137 
L 192.60678 85.20137 
L 192.686144 84.971909 
L 192.735094 84.971909 
L 192.821362 84.742448 
L 193.096061 84.742448 
L 193.107106 84.512988 
L 193.399106 84.512988 
L 193.507358 84.168797 
L 193.661356 84.168797 
L 193.736073 83.709875 
L 193.881033 83.709875 
L 193.881033 83.595145 
L 194.115355 83.595145 
L 194.115355 83.480415 
L 194.346571 83.480415 
L 194.442298 83.250954 
L 194.628816 83.250954 
L 194.628816 83.136224 
L 194.843373 83.136224 
L 194.856696 82.906763 
L 195.071774 82.906763 
L 195.163611 82.677302 
L 195.39434 82.677302 
L 195.490921 82.447842 
L 195.739557 82.447842 
L 195.777496 82.218381 
L 197.000042 82.218381 
L 197.108643 81.87419 
L 197.309381 81.87419 
L 197.309381 81.75946 
L 198.225002 81.75946 
L 198.293483 81.529999 
L 199.066193 81.529999 
L 199.066193 81.415268 
L 199.372108 81.415268 
L 199.443917 81.185808 
L 200.010463 81.185808 
L 200.010463 81.071077 
L 201.573447 81.071077 
L 201.636756 80.841617 
L 201.814148 80.841617 
L 201.916614 80.612156 
L 202.781012 80.612156 
L 202.781012 80.497426 
L 202.938816 80.497426 
L 202.938816 80.382695 
L 203.628757 80.382695 
L 203.628757 80.267965 
L 204.228363 80.267965 
L 204.228363 80.153235 
L 206.238049 80.153235 
L 206.238049 80.038504 
L 206.523466 80.038504 
L 206.523466 79.923774 
L 208.395803 79.923774 
L 208.411114 79.694313 
L 209.6629 79.694313 
L 209.6629 79.579583 
L 212.733385 79.579583 
L 212.733385 79.464853 
L 213.284783 79.464853 
L 213.284783 79.350122 
L 215.043553 79.350122 
L 215.043553 79.235392 
L 217.893401 79.235392 
L 217.893401 79.120662 
L 218.308693 79.120662 
L 218.308693 79.005931 
L 224.279101 79.005931 
L 224.279101 78.891201 
L 228.224451 78.891201 
L 228.224451 78.776471 
L 232.592064 78.776471 
L 232.592064 78.66174 
L 338.688 78.66174 
L 338.688 78.66174 
" style="fill:none;stroke:#00bfbf;stroke-linecap:square;stroke-width:1.5;"/>
   </g>
   <g id="line2d_31">
    <defs>
     <path d="M -6 0 
L 6 0 
M 0 6 
L 0 -6 
" id="m67aafc7da4" style="stroke:#00bfbf;stroke-width:1.5;"/>
    </defs>
    <g>
     <use style="fill-opacity:0;stroke:#00bfbf;stroke-width:1.5;" x="121.489881" xlink:href="#m67aafc7da4" y="255.117009"/>
     <use style="fill-opacity:0;stroke:#00bfbf;stroke-width:1.5;" x="150.042389" xlink:href="#m67aafc7da4" y="171.134397"/>
     <use style="fill-opacity:0;stroke:#00bfbf;stroke-width:1.5;" x="183.664224" xlink:href="#m67aafc7da4" y="92.429381"/>
     <use style="fill-opacity:0;stroke:#00bfbf;stroke-width:1.5;" x="232.592064" xlink:href="#m67aafc7da4" y="78.66174"/>
     <use style="fill-opacity:0;stroke:#00bfbf;stroke-width:1.5;" x="232.592064" xlink:href="#m67aafc7da4" y="78.66174"/>
     <use style="fill-opacity:0;stroke:#00bfbf;stroke-width:1.5;" x="338.688" xlink:href="#m67aafc7da4" y="78.66174"/>
    </g>
   </g>
   <g id="line2d_32">
    <path style="fill:none;stroke:#00bfbf;stroke-linecap:square;stroke-width:1.5;"/>
    <g/>
   </g>
   <g id="line2d_33">
    <path clip-path="url(#pf627f16c19)" d="M 151.740076 163.791655 
" style="fill:none;stroke:#00bfbf;stroke-linecap:square;stroke-width:1.5;"/>
    <defs>
     <path d="M -12 12 
L 12 -12 
M -12 -12 
L 12 12 
" id="md0bc7d57d0" style="stroke:#00bfbf;"/>
    </defs>
    <g clip-path="url(#pf627f16c19)">
     <use style="fill:#00bfbf;stroke:#00bfbf;" x="151.740076" xlink:href="#md0bc7d57d0" y="163.791655"/>
    </g>
   </g>
   <g id="line2d_34">
    <defs>
     <path d="M 0 1.5 
C 0.397805 1.5 0.77937 1.341951 1.06066 1.06066 
C 1.341951 0.77937 1.5 0.397805 1.5 0 
C 1.5 -0.397805 1.341951 -0.77937 1.06066 -1.06066 
C 0.77937 -1.341951 0.397805 -1.5 0 -1.5 
C -0.397805 -1.5 -0.77937 -1.341951 -1.06066 -1.06066 
C -1.341951 -0.77937 -1.5 -0.397805 -1.5 0 
C -1.5 0.397805 -1.341951 0.77937 -1.06066 1.06066 
C -0.77937 1.341951 -0.397805 1.5 0 1.5 
z
" id="mb0717fbdc0" style="stroke:#008000;"/>
    </defs>
    <g>
     <use style="fill:#008000;stroke:#008000;" x="223.811639" xlink:href="#mb0717fbdc0" y="122.259271"/>
     <use style="fill:#008000;stroke:#008000;" x="223.811639" xlink:href="#mb0717fbdc0" y="122.259271"/>
    </g>
   </g>
   <g id="line2d_35">
    <path d="M 38.440992 298.944 
L 38.440992 285.979471 
L 76.759008 285.979471 
L 76.759008 285.864741 
L 78.59642 285.864741 
L 78.59642 285.75001 
L 83.171864 285.75001 
L 83.171864 285.63528 
L 85.66744 285.63528 
L 85.66744 285.405819 
L 87.850195 285.405819 
L 87.850195 285.061628 
L 88.846997 285.061628 
L 88.846997 284.717437 
L 89.78989 284.717437 
L 89.78989 284.487977 
L 90.684409 284.487977 
L 90.684409 284.029055 
L 91.535274 284.029055 
L 91.535274 283.914325 
L 92.34655 283.914325 
L 92.34655 283.799595 
L 94.575872 283.799595 
L 94.575872 283.684864 
L 95.259853 283.684864 
L 95.259853 283.570134 
L 97.16421 283.570134 
L 97.16421 283.455404 
L 97.755429 283.455404 
L 97.755429 283.340673 
L 98.32726 283.340673 
L 98.32726 282.996482 
L 98.880934 282.996482 
L 98.880934 282.767022 
L 99.41757 282.767022 
L 99.41757 282.19337 
L 99.938184 282.19337 
L 99.938184 281.849179 
L 101.412804 281.849179 
L 101.412804 281.734448 
L 101.877879 281.734448 
L 101.877879 280.931336 
L 102.330873 280.931336 
L 102.330873 280.701875 
L 102.772397 280.701875 
L 102.772397 279.784033 
L 103.203018 279.784033 
L 103.203018 278.86619 
L 103.623262 278.86619 
L 103.623262 278.063077 
L 104.033617 278.063077 
L 104.033617 274.276976 
L 104.434538 274.276976 
L 104.434538 271.982369 
L 104.826449 271.982369 
L 104.826449 271.523448 
L 105.209745 271.523448 
L 105.209745 270.949796 
L 105.584798 270.949796 
L 105.584798 269.458302 
L 106.66386 269.458302 
L 106.66386 269.343571 
L 107.347841 269.343571 
L 107.347841 269.228841 
L 108.326001 269.228841 
L 108.326001 269.114111 
L 109.843417 269.114111 
L 109.843417 268.88465 
L 110.131676 268.88465 
L 110.131676 268.76992 
L 110.415248 268.76992 
L 110.415248 268.655189 
L 110.694282 268.655189 
L 110.694282 268.540459 
L 111.239304 268.540459 
L 111.239304 268.425729 
L 112.280765 268.425729 
L 112.280765 268.310998 
L 112.779064 268.310998 
L 112.779064 268.196268 
L 114.193835 268.196268 
L 114.193835 268.081538 
L 114.641021 268.081538 
L 114.641021 267.966807 
L 115.077025 267.966807 
L 115.077025 267.852077 
L 115.291007 267.852077 
L 115.291007 267.737347 
L 116.121606 267.737347 
L 116.121606 266.704773 
L 116.522527 266.704773 
L 116.522527 266.360582 
L 116.719583 266.360582 
L 116.719583 266.245852 
L 116.914437 266.245852 
L 116.914437 266.131122 
L 117.297733 266.131122 
L 117.297733 266.016391 
L 117.486268 266.016391 
L 117.486268 265.786931 
L 117.857331 265.786931 
L 117.857331 265.55747 
L 118.039942 265.55747 
L 118.039942 265.44274 
L 118.399528 265.44274 
L 118.399528 264.983818 
L 118.751849 264.983818 
L 118.751849 264.639627 
L 118.925375 264.639627 
L 118.925375 264.524897 
L 119.097192 264.524897 
L 119.097192 264.410167 
L 119.267333 264.410167 
L 119.267333 264.295436 
L 119.43583 264.295436 
L 119.43583 264.065976 
L 119.768017 264.065976 
L 119.768017 263.836515 
L 119.931767 263.836515 
L 119.931767 263.492324 
L 120.093994 263.492324 
L 120.093994 263.262863 
L 120.41399 263.262863 
L 120.41399 262.803942 
L 120.571812 262.803942 
L 120.571812 262.459751 
L 121.189196 262.459751 
L 121.189196 262.34502 
L 121.340187 262.34502 
L 121.340187 262.23029 
L 121.489881 262.23029 
L 121.489881 261.886099 
L 122.076131 261.886099 
L 122.076131 261.771369 
L 122.219665 261.771369 
L 122.219665 261.656638 
L 122.503236 261.656638 
L 122.503236 261.427178 
L 122.643312 261.427178 
L 122.643312 261.197717 
L 122.782271 261.197717 
L 122.782271 261.082987 
L 122.920132 261.082987 
L 122.920132 260.738796 
L 123.192626 260.738796 
L 123.192626 260.624065 
L 123.327293 260.624065 
L 123.327293 260.394605 
L 123.460928 260.394605 
L 123.460928 260.050414 
L 123.593547 260.050414 
L 123.593547 259.706222 
L 123.985457 259.706222 
L 123.985457 259.476762 
L 124.241922 259.476762 
L 124.241922 259.362031 
L 124.368753 259.362031 
L 124.368753 258.90311 
L 124.867052 258.90311 
L 124.867052 258.673649 
L 124.989434 258.673649 
L 124.989434 258.558919 
L 125.351508 258.558919 
L 125.351508 258.444189 
L 125.588781 258.444189 
L 125.588781 258.214728 
L 125.706218 258.214728 
L 125.706218 257.985267 
L 125.938745 257.985267 
L 125.938745 257.755807 
L 126.053856 257.755807 
L 126.053856 257.641076 
L 126.281824 257.641076 
L 126.281824 257.296885 
L 126.3947 257.296885 
L 126.3947 257.182155 
L 126.50685 257.182155 
L 126.50685 257.067425 
L 126.618283 257.067425 
L 126.618283 256.952694 
L 126.839037 256.952694 
L 126.948374 256.379043 
L 127.05703 256.379043 
L 127.05703 256.264312 
L 127.272333 256.264312 
L 127.378995 255.805391 
L 127.48501 255.805391 
L 127.590383 255.346469 
L 127.695124 255.346469 
L 127.799239 255.117009 
L 127.902737 255.117009 
L 128.005624 254.543357 
L 128.107907 254.543357 
L 128.107907 254.428627 
L 128.411207 254.428627 
L 128.511146 254.084436 
L 128.610515 254.084436 
L 128.709321 253.281323 
L 128.905271 253.281323 
L 129.002426 252.592941 
L 129.195127 252.592941 
L 129.290685 252.36348 
L 129.574256 252.36348 
L 129.574256 252.24875 
L 129.760775 252.24875 
L 129.760775 251.675098 
L 129.945319 251.675098 
L 130.036864 251.445638 
L 130.127931 251.445638 
L 130.218525 251.216177 
L 130.30865 251.216177 
L 130.398313 250.757256 
L 130.487516 250.757256 
L 130.487516 250.642525 
L 130.752422 250.642525 
L 130.752422 250.413065 
L 130.926816 250.413065 
L 130.926816 249.609952 
L 131.185181 249.609952 
L 131.185181 248.80684 
L 131.355321 248.80684 
L 131.355321 248.577379 
L 131.523818 248.577379 
L 131.523818 248.462649 
L 131.77355 248.462649 
L 131.856005 248.233188 
L 132.019755 248.233188 
L 132.101058 247.888997 
L 132.181982 247.888997 
L 132.181982 247.544806 
L 132.342714 247.544806 
L 132.342714 247.315345 
L 132.501978 247.315345 
L 132.501978 247.085885 
L 132.816208 247.085885 
L 132.893889 246.856424 
L 132.971225 246.856424 
L 133.04822 246.397503 
L 133.124876 246.397503 
L 133.201197 246.168042 
L 133.800029 246.168042 
L 133.873458 245.823851 
L 133.946579 245.823851 
L 133.946579 245.709121 
L 134.307653 245.709121 
L 134.37898 245.47966 
L 134.450015 245.47966 
L 134.450015 245.36493 
L 134.661403 245.36493 
L 134.7313 245.020738 
L 134.800918 245.020738 
L 134.870259 244.561817 
L 135.00812 244.561817 
L 135.00812 244.217626 
L 135.144899 244.217626 
L 135.212889 243.873435 
L 135.280614 243.873435 
L 135.348078 243.414514 
L 135.681535 243.414514 
L 135.747468 242.496671 
L 135.813153 242.496671 
L 135.878591 242.26721 
L 135.943785 242.26721 
L 135.943785 241.923019 
L 136.073445 241.923019 
L 136.137916 241.693559 
L 136.266147 241.693559 
L 136.266147 241.464098 
L 136.393441 241.464098 
L 136.393441 241.349368 
L 136.582658 241.349368 
L 136.645276 241.119907 
L 136.707671 241.119907 
L 136.707671 240.890446 
L 136.831795 240.890446 
L 136.831795 240.316794 
L 136.955041 240.316794 
L 137.016339 240.087334 
L 137.138292 240.087334 
L 137.138292 239.972603 
L 137.259399 239.972603 
L 137.319638 239.743143 
L 137.37967 239.743143 
L 137.439497 239.054761 
L 137.558536 239.054761 
L 137.617753 238.366379 
L 137.794206 238.366379 
L 137.852629 237.219075 
L 137.910857 237.219075 
L 137.910857 237.104345 
L 138.084384 237.104345 
L 138.141844 236.874884 
L 138.199116 236.874884 
L 138.256201 235.727581 
L 138.313099 235.727581 
L 138.313099 235.38339 
L 138.426341 235.38339 
L 138.482688 234.809738 
L 138.538853 234.809738 
L 138.594838 234.121356 
L 138.650644 234.121356 
L 138.761723 231.597288 
L 138.872098 231.597288 
L 138.981779 231.023637 
L 139.036363 231.023637 
L 139.090775 230.679446 
L 139.199094 230.679446 
L 139.253002 230.335255 
L 139.360321 230.335255 
L 139.466984 229.646872 
L 139.520072 229.646872 
L 139.572998 229.302681 
L 139.678372 229.302681 
L 139.783113 228.499569 
L 139.835248 228.499569 
L 139.939053 228.040648 
L 139.990725 228.040648 
L 139.990725 227.352266 
L 140.144829 227.352266 
L 140.144829 226.893344 
L 140.297583 226.893344 
L 140.39868 226.434423 
L 140.698504 226.434423 
L 140.79731 225.975501 
L 140.944478 225.975501 
L 140.993259 225.746041 
L 141.090414 225.746041 
L 141.187031 225.51658 
L 141.235139 225.51658 
L 141.33096 224.828198 
L 141.568232 224.828198 
L 141.615302 224.369277 
L 141.709062 224.369277 
L 141.755753 224.139816 
L 141.895083 224.139816 
L 141.987354 223.680895 
L 142.07914 223.680895 
L 142.07914 223.566164 
L 142.486301 223.566164 
L 142.575505 223.221973 
L 142.664255 223.221973 
L 142.752555 222.877782 
L 142.796538 222.877782 
L 142.796538 222.763052 
L 143.058132 222.763052 
L 143.144465 221.271557 
L 143.187472 221.271557 
L 143.273169 220.927366 
L 143.31586 220.927366 
L 143.40093 219.780063 
L 143.44331 219.780063 
L 143.485587 219.550602 
L 143.611807 219.550602 
L 143.653678 219.321142 
L 143.737119 219.321142 
L 143.820164 218.059108 
L 143.861538 218.059108 
L 143.943994 217.141265 
L 143.985075 217.141265 
L 143.985075 217.026535 
L 144.107744 217.026535 
L 144.189046 216.452883 
L 144.390658 216.452883 
L 144.470655 215.993962 
L 144.510517 215.993962 
L 144.510517 215.42031 
L 144.708467 215.42031 
L 144.708467 215.305579 
L 144.865226 215.305579 
L 144.94308 214.961388 
L 144.981877 214.961388 
L 145.059213 213.928815 
L 145.136208 213.928815 
L 145.136208 213.699355 
L 145.327221 213.699355 
L 145.403044 212.896242 
L 145.440832 212.896242 
L 145.478539 212.666782 
L 145.553708 212.666782 
L 145.553708 212.437321 
L 145.703082 212.437321 
L 145.703082 212.322591 
L 145.851187 212.322591 
L 145.888018 212.09313 
L 145.998045 212.09313 
L 146.034567 211.634209 
L 146.179895 211.634209 
L 146.252108 210.372175 
L 146.359869 210.372175 
L 146.466968 209.683793 
L 146.502522 209.683793 
L 146.608752 208.192298 
L 146.679213 208.192298 
L 146.714338 207.733377 
L 146.854132 207.733377 
L 146.958248 206.815534 
L 147.027314 206.815534 
L 147.130404 205.5535 
L 147.266916 205.5535 
L 147.368603 205.209309 
L 147.402367 205.209309 
L 147.50327 204.176736 
L 147.536775 204.176736 
L 147.603592 203.947275 
L 147.736463 203.947275 
L 147.736463 203.144163 
L 147.901141 203.144163 
L 147.933891 201.99686 
L 148.096724 201.99686 
L 148.193699 201.423208 
L 148.258051 201.423208 
L 148.354135 200.849556 
L 148.386046 200.849556 
L 148.48143 200.161174 
L 148.513109 200.161174 
L 148.607802 199.587522 
L 148.639252 199.587522 
L 148.701984 199.013871 
L 148.857832 199.013871 
L 148.950676 198.66968 
L 149.012299 198.66968 
L 149.104327 198.325489 
L 149.165411 198.325489 
L 149.226281 197.637107 
L 149.377533 197.637107 
L 149.437669 197.063455 
L 149.497598 197.063455 
L 149.587107 196.719264 
L 149.676158 196.719264 
L 149.705742 196.489803 
L 149.911431 196.489803 
L 149.969756 196.260342 
L 150.143571 196.260342 
L 150.172372 195.916151 
L 150.287105 195.916151 
L 150.287105 195.801421 
L 150.401087 195.801421 
L 150.401087 195.57196 
L 150.51433 195.57196 
L 150.51433 195.45723 
L 150.960087 195.45723 
L 151.069768 195.227769 
L 151.124351 195.227769 
L 151.124351 195.113039 
L 151.367883 195.113039 
L 151.367883 194.998309 
L 151.975216 194.998309 
L 152.027042 194.768848 
L 152.309362 194.768848 
L 152.309362 194.654118 
L 152.712018 194.654118 
L 152.736878 194.424657 
L 152.909913 194.424657 
L 152.934492 193.965736 
L 153.081247 193.965736 
L 153.178403 193.506814 
L 153.202607 193.506814 
L 153.250915 192.588971 
L 153.371104 192.588971 
L 153.442821 192.359511 
L 153.514245 192.359511 
L 153.609024 191.671129 
L 153.656221 191.671129 
L 153.750233 191.097477 
L 153.820412 191.097477 
L 153.820412 190.753286 
L 153.983071 190.753286 
L 154.05232 190.294365 
L 154.144227 190.294365 
L 154.235652 189.376522 
L 154.258434 189.376522 
L 154.349264 188.458679 
L 154.371897 188.458679 
L 154.46214 187.770297 
L 154.484627 187.770297 
L 154.551917 186.852454 
L 154.596634 186.852454 
L 154.663493 186.622994 
L 154.730098 186.622994 
L 154.81851 186.049342 
L 155.804285 186.049342 
L 155.908152 185.819881 
L 156.175347 185.819881 
L 156.175347 185.705151 
L 156.478647 185.705151 
L 156.478647 185.590421 
L 156.757045 185.590421 
L 156.757045 185.36096 
L 157.147202 185.36096 
L 157.224197 185.016769 
L 157.453162 185.016769 
L 157.453162 184.902038 
L 157.566527 184.902038 
L 157.641697 184.672578 
L 157.67916 184.672578 
L 157.772468 184.328387 
L 157.809652 184.328387 
L 157.920731 183.984196 
L 157.957601 183.984196 
L 158.067744 182.607432 
L 158.231665 182.607432 
L 158.340096 181.345398 
L 158.447857 181.345398 
L 158.537152 180.312825 
L 158.590511 180.312825 
L 158.69674 179.280252 
L 158.749613 179.280252 
L 158.802326 179.050791 
L 158.872364 179.050791 
L 158.942121 178.477139 
L 159.028927 178.477139 
L 159.132527 177.674027 
L 159.201253 177.674027 
L 159.26971 176.756184 
L 159.405822 176.756184 
L 159.456591 176.526723 
L 159.557689 176.526723 
L 159.658204 176.067802 
L 159.807898 176.067802 
L 159.807898 175.953072 
L 160.249422 175.953072 
L 160.249422 175.838341 
L 160.521792 175.838341 
L 160.521792 175.723611 
L 160.69579 175.723611 
L 160.80562 175.149959 
L 161.299072 175.149959 
L 161.299072 175.035229 
L 161.495615 175.035229 
L 161.600536 174.805768 
L 161.660209 174.805768 
L 161.689969 174.576308 
L 161.79373 174.576308 
L 161.896878 174.002656 
L 161.926237 174.002656 
L 162.014019 173.773195 
L 162.043181 173.773195 
L 162.115875 173.199543 
L 162.159347 173.199543 
L 162.260361 172.625892 
L 162.274744 172.625892 
L 162.274744 172.511161 
L 162.417924 172.511161 
L 162.474869 171.822779 
L 162.531628 171.822779 
L 162.588203 171.593319 
L 162.644595 171.593319 
L 162.644595 171.478588 
L 162.79874 171.478588 
L 162.854457 170.904937 
L 162.909996 170.904937 
L 163.020547 170.331285 
L 163.048075 170.331285 
L 163.157756 169.642903 
L 163.171418 169.642903 
L 163.253165 169.183981 
L 163.348054 169.183981 
L 163.375071 168.954521 
L 163.482721 168.954521 
L 163.50953 168.61033 
L 163.603039 168.61033 
L 163.656248 168.266139 
L 163.814908 168.266139 
L 163.919885 167.463026 
L 163.959089 167.463026 
L 163.985177 166.774644 
L 164.076176 166.774644 
L 164.179597 165.971532 
L 164.192481 165.971532 
L 164.295217 164.938959 
L 164.320806 164.938959 
L 164.42279 164.480037 
L 164.486229 164.480037 
L 164.587254 163.906386 
L 164.66264 163.906386 
L 164.76265 163.218003 
L 164.800007 163.218003 
L 164.874481 162.529621 
L 164.948638 162.529621 
L 164.997901 162.0707 
L 165.083779 162.0707 
L 165.193576 161.152857 
L 165.230021 161.152857 
L 165.302685 160.464475 
L 165.35096 160.464475 
L 165.447111 159.890824 
L 165.506937 159.890824 
L 165.602233 159.317172 
L 165.625977 159.317172 
L 165.732422 158.85825 
L 165.755989 158.85825 
L 165.791279 158.169868 
L 165.885039 158.169868 
L 165.93173 157.940408 
L 166.059491 157.940408 
L 166.151824 157.481486 
L 166.174831 157.481486 
L 166.266556 157.022565 
L 166.300829 157.022565 
L 166.391896 156.563644 
L 166.414589 156.563644 
L 166.493781 155.875262 
L 166.550128 155.875262 
L 166.639906 155.53107 
L 166.662278 155.53107 
L 166.695783 155.30161 
L 166.795913 155.30161 
L 166.840232 154.957419 
L 166.928532 154.957419 
L 167.027338 154.498497 
L 167.08199 154.498497 
L 167.136471 154.039576 
L 167.201624 154.039576 
L 167.201624 153.924846 
L 167.374185 153.924846 
L 167.449146 153.465924 
L 167.523787 153.465924 
L 167.523787 153.351194 
L 167.651004 153.351194 
L 167.661564 153.121733 
L 168.047843 153.121733 
L 168.078792 152.777542 
L 168.324419 152.777542 
L 168.324419 152.662812 
L 168.546579 152.662812 
L 168.546579 152.548082 
L 168.913944 152.548082 
L 168.943394 152.203891 
L 169.031447 152.203891 
L 169.119057 151.744969 
L 169.225542 151.744969 
L 169.302579 151.515508 
L 169.417501 151.515508 
L 169.512694 151.286048 
L 169.710923 151.286048 
L 169.720307 151.056587 
L 169.925477 151.056587 
L 169.934746 150.827126 
L 170.082381 150.827126 
L 170.082381 150.712396 
L 170.265184 150.712396 
L 170.310587 150.368205 
L 170.382987 150.368205 
L 170.428085 150.024014 
L 170.562682 150.024014 
L 170.634045 149.794553 
L 170.696249 149.794553 
L 170.758232 149.220902 
L 170.925369 149.220902 
L 171.012696 148.876711 
L 171.082245 148.876711 
L 171.177424 148.417789 
L 171.194673 148.417789 
L 171.263501 148.073598 
L 171.323504 148.073598 
L 171.357698 147.729407 
L 171.46837 147.729407 
L 171.578344 147.270486 
L 171.620458 147.270486 
L 171.704381 146.926295 
L 171.812882 146.926295 
L 171.812882 146.811564 
L 171.986738 146.811564 
L 171.986738 146.696834 
L 172.158878 146.696834 
L 172.158878 146.582104 
L 172.305086 146.582104 
L 172.321256 146.237913 
L 172.490141 146.237913 
L 172.554051 145.893722 
L 172.641546 145.893722 
L 172.712807 145.549531 
L 172.807372 145.549531 
L 172.885786 144.975879 
L 172.956059 144.975879 
L 173.041565 144.516957 
L 173.310873 144.516957 
L 173.38706 143.943306 
L 173.462916 143.943306 
L 173.538444 143.599115 
L 173.613646 143.599115 
L 173.718386 143.254924 
L 173.763084 143.254924 
L 173.800244 142.910733 
L 173.970168 142.910733 
L 174.072796 142.451811 
L 174.15301 142.451811 
L 174.261802 141.419238 
L 174.276256 141.419238 
L 174.355542 140.960317 
L 174.577064 140.960317 
L 174.66913 140.501395 
L 174.718503 140.501395 
L 174.774759 140.042474 
L 174.830834 140.042474 
L 174.893703 139.583553 
L 175.046437 139.583553 
L 175.149812 139.124631 
L 175.177275 139.124631 
L 175.279879 138.78044 
L 175.354741 138.78044 
L 175.449557 138.092058 
L 175.476552 138.092058 
L 175.57071 137.633137 
L 175.717652 137.633137 
L 175.764148 137.403676 
L 175.830357 137.403676 
L 175.896315 137.059485 
L 176.014414 137.059485 
L 176.086194 136.715294 
L 176.254691 136.715294 
L 176.312639 136.371103 
L 176.54887 136.371103 
L 176.631116 135.912182 
L 176.775685 135.912182 
L 176.844405 135.682721 
L 176.94388 135.682721 
L 176.950079 135.45326 
L 177.141145 135.45326 
L 177.141145 135.33853 
L 177.336204 135.33853 
L 177.38463 135.109069 
L 177.690222 135.109069 
L 177.737676 134.879609 
L 177.808615 134.879609 
L 177.867512 134.650148 
L 177.943781 134.650148 
L 178.048838 134.305957 
L 178.187935 134.305957 
L 178.187935 134.191227 
L 178.388818 134.191227 
L 178.44579 133.847036 
L 178.513913 133.847036 
L 178.6156 133.388114 
L 179.01652 133.388114 
L 179.1208 133.043923 
L 179.208133 133.043923 
L 179.208133 132.929193 
L 179.327506 132.929193 
L 179.370713 132.470271 
L 179.478263 132.470271 
L 179.478263 132.355541 
L 179.606455 132.355541 
L 179.606455 132.240811 
L 179.881012 132.240811 
L 179.969841 131.89662 
L 180.001085 131.89662 
L 180.099656 131.667159 
L 180.177084 131.667159 
L 180.264422 131.437698 
L 180.32581 131.437698 
L 180.351324 131.208238 
L 180.447941 131.208238 
L 180.503634 130.978777 
L 180.559149 130.978777 
L 180.634567 130.749316 
L 180.739608 130.749316 
L 180.764525 130.519856 
L 180.987189 130.519856 
L 181.006844 130.290395 
L 181.119435 130.290395 
L 181.124314 130.060934 
L 181.714232 130.060934 
L 181.714232 129.946204 
L 181.883182 129.946204 
L 181.883182 129.831474 
L 182.133577 129.831474 
L 182.133577 129.716743 
L 182.47549 129.716743 
L 182.574526 129.487282 
L 182.592473 129.487282 
L 182.690848 129.257822 
L 182.793106 129.257822 
L 182.828533 129.028361 
L 182.92559 129.028361 
L 182.92559 128.913631 
L 183.039601 128.913631 
L 183.043972 128.68417 
L 183.295588 128.68417 
L 183.295588 128.56944 
L 183.863389 128.56944 
L 183.946572 128.339979 
L 184.066487 128.339979 
L 184.165107 128.110518 
L 184.324185 128.110518 
L 184.397118 127.881058 
L 184.441539 127.881058 
L 184.441539 127.766327 
L 184.618101 127.766327 
L 184.618101 127.651597 
L 184.733501 127.651597 
L 184.832374 127.307406 
L 185.245481 127.307406 
L 185.306995 127.077945 
L 185.467445 127.077945 
L 185.562255 126.733754 
L 186.353405 126.733754 
L 186.371467 126.504294 
L 186.650846 126.504294 
L 186.650846 126.389563 
L 186.781822 126.389563 
L 186.845187 126.160103 
L 187.785676 126.160103 
L 187.785676 126.045372 
L 188.307171 126.045372 
L 188.307171 125.930642 
L 188.419901 125.930642 
L 188.419901 125.815911 
L 188.54785 125.815911 
L 188.54785 125.701181 
L 188.807245 125.701181 
L 188.807245 125.47172 
L 189.320839 125.47172 
L 189.320839 125.35699 
L 189.499799 125.35699 
L 189.499799 125.24226 
L 190.740163 125.24226 
L 190.740163 125.127529 
L 191.657151 125.127529 
L 191.657151 125.012799 
L 191.94541 125.012799 
L 191.94541 124.898069 
L 192.203158 124.898069 
L 192.283089 124.668608 
L 193.415989 124.668608 
L 193.415989 124.553878 
L 195.420148 124.553878 
L 195.420148 124.439147 
L 196.332816 124.439147 
L 196.332816 124.324417 
L 196.72604 124.324417 
L 196.823472 124.094956 
L 197.680474 124.094956 
L 197.680474 123.980226 
L 198.839809 123.980226 
L 198.839809 123.865496 
L 200.047587 123.865496 
L 200.047587 123.750765 
L 200.967304 123.750765 
L 200.967304 123.636035 
L 202.51336 123.636035 
L 202.519082 123.406574 
L 204.013716 123.406574 
L 204.013716 123.291844 
L 204.149727 123.291844 
L 204.149727 123.177114 
L 205.35022 123.177114 
L 205.35022 123.062383 
L 206.54846 123.062383 
L 206.54846 122.947653 
L 210.213904 122.947653 
L 210.213904 122.832923 
L 212.280831 122.832923 
L 212.280831 122.718192 
L 212.559723 122.718192 
L 212.559723 122.603462 
L 213.530321 122.603462 
L 213.530321 122.488732 
L 215.026804 122.488732 
L 215.026804 122.374001 
L 223.811639 122.374001 
L 223.811639 122.259271 
L 338.688 122.259271 
L 338.688 122.259271 
" style="fill:none;stroke:#008000;stroke-linecap:square;stroke-width:1.5;"/>
   </g>
   <g id="line2d_36">
    <defs>
     <path d="M -0 6 
L 6 -6 
L -6 -6 
z
" id="m37545a542d" style="stroke:#008000;stroke-linejoin:miter;stroke-width:1.5;"/>
    </defs>
    <g>
     <use style="fill-opacity:0;stroke:#008000;stroke-linejoin:miter;stroke-width:1.5;" x="122.782271" xlink:href="#m37545a542d" y="261.082987"/>
     <use style="fill-opacity:0;stroke:#008000;stroke-linejoin:miter;stroke-width:1.5;" x="147.603592" xlink:href="#m37545a542d" y="203.947275"/>
     <use style="fill-opacity:0;stroke:#008000;stroke-linejoin:miter;stroke-width:1.5;" x="210.213904" xlink:href="#m37545a542d" y="122.947653"/>
     <use style="fill-opacity:0;stroke:#008000;stroke-linejoin:miter;stroke-width:1.5;" x="223.811639" xlink:href="#m37545a542d" y="122.259271"/>
     <use style="fill-opacity:0;stroke:#008000;stroke-linejoin:miter;stroke-width:1.5;" x="223.811639" xlink:href="#m37545a542d" y="122.259271"/>
     <use style="fill-opacity:0;stroke:#008000;stroke-linejoin:miter;stroke-width:1.5;" x="338.688" xlink:href="#m37545a542d" y="122.259271"/>
    </g>
   </g>
   <g id="line2d_37">
    <path style="fill:none;stroke:#008000;stroke-linecap:square;stroke-width:1.5;"/>
    <g/>
   </g>
   <g id="line2d_38">
    <path clip-path="url(#pf627f16c19)" d="M 158.67908 179.394982 
" style="fill:none;stroke:#008000;stroke-linecap:square;stroke-width:1.5;"/>
    <defs>
     <path d="M -12 12 
L 12 -12 
M -12 -12 
L 12 12 
" id="mff20ac3bfc" style="stroke:#008000;"/>
    </defs>
    <g clip-path="url(#pf627f16c19)">
     <use style="fill:#008000;stroke:#008000;" x="158.67908" xlink:href="#mff20ac3bfc" y="179.394982"/>
    </g>
   </g>
   <g id="line2d_39">
    <path d="M 338.688 122.259271 
L 369.60768 293.092752 
" style="fill:none;stroke:#008000;stroke-linecap:square;stroke-width:1.5;"/>
    <g>
     <use style="fill-opacity:0;stroke:#008000;stroke-linejoin:miter;stroke-width:1.5;" x="338.688" xlink:href="#m37545a542d" y="122.259271"/>
     <use style="fill-opacity:0;stroke:#008000;stroke-linejoin:miter;stroke-width:1.5;" x="369.60768" xlink:href="#m37545a542d" y="293.092752"/>
    </g>
   </g>
   <g id="line2d_40">
    <path d="M 338.688 78.66174 
L 369.60768 12.232871 
" style="fill:none;stroke:#00bfbf;stroke-linecap:square;stroke-width:1.5;"/>
    <g>
     <use style="fill-opacity:0;stroke:#00bfbf;stroke-width:1.5;" x="338.688" xlink:href="#m67aafc7da4" y="78.66174"/>
     <use style="fill-opacity:0;stroke:#00bfbf;stroke-width:1.5;" x="369.60768" xlink:href="#m67aafc7da4" y="12.232871"/>
    </g>
   </g>
   <g id="line2d_41">
    <path d="M 338.688 298.944 
L 338.688 6.381624 
" style="fill:none;stroke:#000000;stroke-linecap:square;stroke-width:1.5;"/>
   </g>
   <g id="patch_3">
    <path d="M 57.6 298.944 
L 57.6 3.456 
" style="fill:none;stroke:#000000;stroke-linecap:square;stroke-linejoin:miter;stroke-width:0.8;"/>
   </g>
   <g id="patch_4">
    <path d="M 338.688 298.944 
L 338.688 3.456 
" style="fill:none;stroke:#000000;stroke-linecap:square;stroke-linejoin:miter;stroke-width:0.8;"/>
   </g>
   <g id="patch_5">
    <path d="M 57.6 298.944 
L 338.688 298.944 
" style="fill:none;stroke:#000000;stroke-linecap:square;stroke-linejoin:miter;stroke-width:0.8;"/>
   </g>
   <g id="patch_6">
    <path d="M 57.6 3.456 
L 338.688 3.456 
" style="fill:none;stroke:#000000;stroke-linecap:square;stroke-linejoin:miter;stroke-width:0.8;"/>
   </g>
   <g id="text_13">
    <!-- 3-D -->
    <defs>
     <path d="M 40.578125 39.3125 
Q 47.65625 37.796875 51.625 33 
Q 55.609375 28.21875 55.609375 21.1875 
Q 55.609375 10.40625 48.1875 4.484375 
Q 40.765625 -1.421875 27.09375 -1.421875 
Q 22.515625 -1.421875 17.65625 -0.515625 
Q 12.796875 0.390625 7.625 2.203125 
L 7.625 11.71875 
Q 11.71875 9.328125 16.59375 8.109375 
Q 21.484375 6.890625 26.8125 6.890625 
Q 36.078125 6.890625 40.9375 10.546875 
Q 45.796875 14.203125 45.796875 21.1875 
Q 45.796875 27.640625 41.28125 31.265625 
Q 36.765625 34.90625 28.71875 34.90625 
L 20.21875 34.90625 
L 20.21875 43.015625 
L 29.109375 43.015625 
Q 36.375 43.015625 40.234375 45.921875 
Q 44.09375 48.828125 44.09375 54.296875 
Q 44.09375 59.90625 40.109375 62.90625 
Q 36.140625 65.921875 28.71875 65.921875 
Q 24.65625 65.921875 20.015625 65.03125 
Q 15.375 64.15625 9.8125 62.3125 
L 9.8125 71.09375 
Q 15.4375 72.65625 20.34375 73.4375 
Q 25.25 74.21875 29.59375 74.21875 
Q 40.828125 74.21875 47.359375 69.109375 
Q 53.90625 64.015625 53.90625 55.328125 
Q 53.90625 49.265625 50.4375 45.09375 
Q 46.96875 40.921875 40.578125 39.3125 
z
" id="DejaVuSans-51"/>
     <path d="M 19.671875 64.796875 
L 19.671875 8.109375 
L 31.59375 8.109375 
Q 46.6875 8.109375 53.6875 14.9375 
Q 60.6875 21.78125 60.6875 36.53125 
Q 60.6875 51.171875 53.6875 57.984375 
Q 46.6875 64.796875 31.59375 64.796875 
z
M 9.8125 72.90625 
L 30.078125 72.90625 
Q 51.265625 72.90625 61.171875 64.09375 
Q 71.09375 55.28125 71.09375 36.53125 
Q 71.09375 17.671875 61.125 8.828125 
Q 51.171875 0 30.078125 0 
L 9.8125 0 
z
" id="DejaVuSans-68"/>
    </defs>
    <g transform="translate(375.22944 297.78369)scale(0.17 -0.17)">
     <use xlink:href="#DejaVuSans-51"/>
     <use x="63.623047" xlink:href="#DejaVuSans-45"/>
     <use x="99.707031" xlink:href="#DejaVuSans-68"/>
    </g>
   </g>
   <g id="text_14">
    <!-- 2-D -->
    <g transform="translate(375.22944 16.923809)scale(0.17 -0.17)">
     <use xlink:href="#DejaVuSans-50"/>
     <use x="63.623047" xlink:href="#DejaVuSans-45"/>
     <use x="99.707031" xlink:href="#DejaVuSans-68"/>
    </g>
   </g>
   <g id="text_15">
    <!-- bbob f20-f24 -->
    <defs>
     <path d="M 48.6875 27.296875 
Q 48.6875 37.203125 44.609375 42.84375 
Q 40.53125 48.484375 33.40625 48.484375 
Q 26.265625 48.484375 22.1875 42.84375 
Q 18.109375 37.203125 18.109375 27.296875 
Q 18.109375 17.390625 22.1875 11.75 
Q 26.265625 6.109375 33.40625 6.109375 
Q 40.53125 6.109375 44.609375 11.75 
Q 48.6875 17.390625 48.6875 27.296875 
z
M 18.109375 46.390625 
Q 20.953125 51.265625 25.265625 53.625 
Q 29.59375 56 35.59375 56 
Q 45.5625 56 51.78125 48.09375 
Q 58.015625 40.1875 58.015625 27.296875 
Q 58.015625 14.40625 51.78125 6.484375 
Q 45.5625 -1.421875 35.59375 -1.421875 
Q 29.59375 -1.421875 25.265625 0.953125 
Q 20.953125 3.328125 18.109375 8.203125 
L 18.109375 0 
L 9.078125 0 
L 9.078125 75.984375 
L 18.109375 75.984375 
z
" id="DejaVuSans-98"/>
    </defs>
    <g transform="translate(60.41088 14.161286)scale(0.102 -0.102)">
     <use xlink:href="#DejaVuSans-98"/>
     <use x="63.476562" xlink:href="#DejaVuSans-98"/>
     <use x="126.953125" xlink:href="#DejaVuSans-111"/>
     <use x="188.134766" xlink:href="#DejaVuSans-98"/>
     <use x="251.611328" xlink:href="#DejaVuSans-32"/>
     <use x="283.398438" xlink:href="#DejaVuSans-102"/>
     <use x="318.603516" xlink:href="#DejaVuSans-50"/>
     <use x="382.226562" xlink:href="#DejaVuSans-48"/>
     <use x="445.849609" xlink:href="#DejaVuSans-45"/>
     <use x="481.933594" xlink:href="#DejaVuSans-102"/>
     <use x="517.138672" xlink:href="#DejaVuSans-50"/>
     <use x="580.761719" xlink:href="#DejaVuSans-52"/>
    </g>
    <!-- 51 targets: 100..1e-08 -->
    <defs>
     <path d="M 10.796875 72.90625 
L 49.515625 72.90625 
L 49.515625 64.59375 
L 19.828125 64.59375 
L 19.828125 46.734375 
Q 21.96875 47.46875 24.109375 47.828125 
Q 26.265625 48.1875 28.421875 48.1875 
Q 40.625 48.1875 47.75 41.5 
Q 54.890625 34.8125 54.890625 23.390625 
Q 54.890625 11.625 47.5625 5.09375 
Q 40.234375 -1.421875 26.90625 -1.421875 
Q 22.3125 -1.421875 17.546875 -0.640625 
Q 12.796875 0.140625 7.71875 1.703125 
L 7.71875 11.625 
Q 12.109375 9.234375 16.796875 8.0625 
Q 21.484375 6.890625 26.703125 6.890625 
Q 35.15625 6.890625 40.078125 11.328125 
Q 45.015625 15.765625 45.015625 23.390625 
Q 45.015625 31 40.078125 35.4375 
Q 35.15625 39.890625 26.703125 39.890625 
Q 22.75 39.890625 18.8125 39.015625 
Q 14.890625 38.140625 10.796875 36.28125 
z
" id="DejaVuSans-53"/>
     <path d="M 11.71875 12.40625 
L 22.015625 12.40625 
L 22.015625 0 
L 11.71875 0 
z
M 11.71875 51.703125 
L 22.015625 51.703125 
L 22.015625 39.3125 
L 11.71875 39.3125 
z
" id="DejaVuSans-58"/>
    </defs>
    <g transform="translate(60.41088 25.583055)scale(0.102 -0.102)">
     <use xlink:href="#DejaVuSans-53"/>
     <use x="63.623047" xlink:href="#DejaVuSans-49"/>
     <use x="127.246094" xlink:href="#DejaVuSans-32"/>
     <use x="159.033203" xlink:href="#DejaVuSans-116"/>
     <use x="198.242188" xlink:href="#DejaVuSans-97"/>
     <use x="259.521484" xlink:href="#DejaVuSans-114"/>
     <use x="298.884766" xlink:href="#DejaVuSans-103"/>
     <use x="362.361328" xlink:href="#DejaVuSans-101"/>
     <use x="423.884766" xlink:href="#DejaVuSans-116"/>
     <use x="463.09375" xlink:href="#DejaVuSans-115"/>
     <use x="515.193359" xlink:href="#DejaVuSans-58"/>
     <use x="548.884766" xlink:href="#DejaVuSans-32"/>
     <use x="580.671875" xlink:href="#DejaVuSans-49"/>
     <use x="644.294922" xlink:href="#DejaVuSans-48"/>
     <use x="707.917969" xlink:href="#DejaVuSans-48"/>
     <use x="771.541016" xlink:href="#DejaVuSans-46"/>
     <use x="803.328125" xlink:href="#DejaVuSans-46"/>
     <use x="835.115234" xlink:href="#DejaVuSans-49"/>
     <use x="898.738281" xlink:href="#DejaVuSans-101"/>
     <use x="960.261719" xlink:href="#DejaVuSans-45"/>
     <use x="996.345703" xlink:href="#DejaVuSans-48"/>
     <use x="1059.96875" xlink:href="#DejaVuSans-56"/>
    </g>
    <!-- 15 instances -->
    <g transform="translate(60.41088 37.004824)scale(0.102 -0.102)">
     <use xlink:href="#DejaVuSans-49"/>
     <use x="63.623047" xlink:href="#DejaVuSans-53"/>
     <use x="127.246094" xlink:href="#DejaVuSans-32"/>
     <use x="159.033203" xlink:href="#DejaVuSans-105"/>
     <use x="186.816406" xlink:href="#DejaVuSans-110"/>
     <use x="250.195312" xlink:href="#DejaVuSans-115"/>
     <use x="302.294922" xlink:href="#DejaVuSans-116"/>
     <use x="341.503906" xlink:href="#DejaVuSans-97"/>
     <use x="402.783203" xlink:href="#DejaVuSans-110"/>
     <use x="466.162109" xlink:href="#DejaVuSans-99"/>
     <use x="521.142578" xlink:href="#DejaVuSans-101"/>
     <use x="582.666016" xlink:href="#DejaVuSans-115"/>
    </g>
   </g>
   <g id="text_16">
    <!-- v2.3.3.5 -->
    <g style="fill:#808080;" transform="translate(177.692437 293.909432)scale(0.1 -0.1)">
     <use xlink:href="#DejaVuSans-118"/>
     <use x="59.179688" xlink:href="#DejaVuSans-50"/>
     <use x="122.802734" xlink:href="#DejaVuSans-46"/>
     <use x="154.589844" xlink:href="#DejaVuSans-51"/>
     <use x="218.212891" xlink:href="#DejaVuSans-46"/>
     <use x="250" xlink:href="#DejaVuSans-51"/>
     <use x="313.623047" xlink:href="#DejaVuSans-46"/>
     <use x="345.410156" xlink:href="#DejaVuSans-53"/>
    </g>
   </g>
  </g>
 </g>
 <defs>
  <clipPath id="pf627f16c19">
   <rect height="295.488" width="281.088" x="57.6" y="3.456"/>
  </clipPath>
 </defs>
</svg>
