<?xml version="1.0" encoding="utf-8" standalone="no"?>
<!DOCTYPE svg PUBLIC "-//W3C//DTD SVG 1.1//EN"
  "http://www.w3.org/Graphics/SVG/1.1/DTD/svg11.dtd">
<!-- Created with matplotlib (https://matplotlib.org/) -->
<svg height="345.6pt" version="1.1" viewBox="0 0 460.8 345.6" width="460.8pt" xmlns="http://www.w3.org/2000/svg" xmlns:xlink="http://www.w3.org/1999/xlink">
 <defs>
  <style type="text/css">
*{stroke-linecap:butt;stroke-linejoin:round;}
  </style>
 </defs>
 <g id="figure_1">
  <g id="patch_1">
   <path d="M 0 345.6 
L 460.8 345.6 
L 460.8 0 
L 0 0 
z
" style="fill:#ffffff;"/>
  </g>
  <g id="axes_1">
   <g id="patch_2">
    <path d="M 57.6 298.944 
L 338.688 298.944 
L 338.688 3.456 
L 57.6 3.456 
z
" style="fill:#ffffff;"/>
   </g>
   <g id="matplotlib.axis_1">
    <g id="xtick_1">
     <g id="line2d_1">
      <path clip-path="url(#p601816c486)" d="M 57.6 298.944 
L 57.6 3.456 
" style="fill:none;stroke:#b0b0b0;stroke-linecap:square;stroke-width:0.8;"/>
     </g>
     <g id="line2d_2">
      <defs>
       <path d="M 0 0 
L 0 3.5 
" id="ma3304f9e7b" style="stroke:#000000;stroke-width:0.8;"/>
      </defs>
      <g>
       <use style="stroke:#000000;stroke-width:0.8;" x="57.6" xlink:href="#ma3304f9e7b" y="298.944"/>
      </g>
     </g>
     <g id="text_1">
      <!-- 0 -->
      <defs>
       <path d="M 31.78125 66.40625 
Q 24.171875 66.40625 20.328125 58.90625 
Q 16.5 51.421875 16.5 36.375 
Q 16.5 21.390625 20.328125 13.890625 
Q 24.171875 6.390625 31.78125 6.390625 
Q 39.453125 6.390625 43.28125 13.890625 
Q 47.125 21.390625 47.125 36.375 
Q 47.125 51.421875 43.28125 58.90625 
Q 39.453125 66.40625 31.78125 66.40625 
z
M 31.78125 74.21875 
Q 44.046875 74.21875 50.515625 64.515625 
Q 56.984375 54.828125 56.984375 36.375 
Q 56.984375 17.96875 50.515625 8.265625 
Q 44.046875 -1.421875 31.78125 -1.421875 
Q 19.53125 -1.421875 13.0625 8.265625 
Q 6.59375 17.96875 6.59375 36.375 
Q 6.59375 54.828125 13.0625 64.515625 
Q 19.53125 74.21875 31.78125 74.21875 
z
" id="DejaVuSans-48"/>
      </defs>
      <g transform="translate(51.2375 321.140875)scale(0.2 -0.2)">
       <use xlink:href="#DejaVuSans-48"/>
      </g>
     </g>
    </g>
    <g id="xtick_2">
     <g id="line2d_3">
      <path clip-path="url(#p601816c486)" d="M 137.910857 298.944 
L 137.910857 3.456 
" style="fill:none;stroke:#b0b0b0;stroke-linecap:square;stroke-width:0.8;"/>
     </g>
     <g id="line2d_4">
      <g>
       <use style="stroke:#000000;stroke-width:0.8;" x="137.910857" xlink:href="#ma3304f9e7b" y="298.944"/>
      </g>
     </g>
     <g id="text_2">
      <!-- 2 -->
      <defs>
       <path d="M 19.1875 8.296875 
L 53.609375 8.296875 
L 53.609375 0 
L 7.328125 0 
L 7.328125 8.296875 
Q 12.9375 14.109375 22.625 23.890625 
Q 32.328125 33.6875 34.8125 36.53125 
Q 39.546875 41.84375 41.421875 45.53125 
Q 43.3125 49.21875 43.3125 52.78125 
Q 43.3125 58.59375 39.234375 62.25 
Q 35.15625 65.921875 28.609375 65.921875 
Q 23.96875 65.921875 18.8125 64.3125 
Q 13.671875 62.703125 7.8125 59.421875 
L 7.8125 69.390625 
Q 13.765625 71.78125 18.9375 73 
Q 24.125 74.21875 28.421875 74.21875 
Q 39.75 74.21875 46.484375 68.546875 
Q 53.21875 62.890625 53.21875 53.421875 
Q 53.21875 48.921875 51.53125 44.890625 
Q 49.859375 40.875 45.40625 35.40625 
Q 44.1875 33.984375 37.640625 27.21875 
Q 31.109375 20.453125 19.1875 8.296875 
z
" id="DejaVuSans-50"/>
      </defs>
      <g transform="translate(131.548357 321.140875)scale(0.2 -0.2)">
       <use xlink:href="#DejaVuSans-50"/>
      </g>
     </g>
    </g>
    <g id="xtick_3">
     <g id="line2d_5">
      <path clip-path="url(#p601816c486)" d="M 218.221714 298.944 
L 218.221714 3.456 
" style="fill:none;stroke:#b0b0b0;stroke-linecap:square;stroke-width:0.8;"/>
     </g>
     <g id="line2d_6">
      <g>
       <use style="stroke:#000000;stroke-width:0.8;" x="218.221714" xlink:href="#ma3304f9e7b" y="298.944"/>
      </g>
     </g>
     <g id="text_3">
      <!-- 4 -->
      <defs>
       <path d="M 37.796875 64.3125 
L 12.890625 25.390625 
L 37.796875 25.390625 
z
M 35.203125 72.90625 
L 47.609375 72.90625 
L 47.609375 25.390625 
L 58.015625 25.390625 
L 58.015625 17.1875 
L 47.609375 17.1875 
L 47.609375 0 
L 37.796875 0 
L 37.796875 17.1875 
L 4.890625 17.1875 
L 4.890625 26.703125 
z
" id="DejaVuSans-52"/>
      </defs>
      <g transform="translate(211.859214 321.140875)scale(0.2 -0.2)">
       <use xlink:href="#DejaVuSans-52"/>
      </g>
     </g>
    </g>
    <g id="xtick_4">
     <g id="line2d_7">
      <path clip-path="url(#p601816c486)" d="M 298.532571 298.944 
L 298.532571 3.456 
" style="fill:none;stroke:#b0b0b0;stroke-linecap:square;stroke-width:0.8;"/>
     </g>
     <g id="line2d_8">
      <g>
       <use style="stroke:#000000;stroke-width:0.8;" x="298.532571" xlink:href="#ma3304f9e7b" y="298.944"/>
      </g>
     </g>
     <g id="text_4">
      <!-- 6 -->
      <defs>
       <path d="M 33.015625 40.375 
Q 26.375 40.375 22.484375 35.828125 
Q 18.609375 31.296875 18.609375 23.390625 
Q 18.609375 15.53125 22.484375 10.953125 
Q 26.375 6.390625 33.015625 6.390625 
Q 39.65625 6.390625 43.53125 10.953125 
Q 47.40625 15.53125 47.40625 23.390625 
Q 47.40625 31.296875 43.53125 35.828125 
Q 39.65625 40.375 33.015625 40.375 
z
M 52.59375 71.296875 
L 52.59375 62.3125 
Q 48.875 64.0625 45.09375 64.984375 
Q 41.3125 65.921875 37.59375 65.921875 
Q 27.828125 65.921875 22.671875 59.328125 
Q 17.53125 52.734375 16.796875 39.40625 
Q 19.671875 43.65625 24.015625 45.921875 
Q 28.375 48.1875 33.59375 48.1875 
Q 44.578125 48.1875 50.953125 41.515625 
Q 57.328125 34.859375 57.328125 23.390625 
Q 57.328125 12.15625 50.6875 5.359375 
Q 44.046875 -1.421875 33.015625 -1.421875 
Q 20.359375 -1.421875 13.671875 8.265625 
Q 6.984375 17.96875 6.984375 36.375 
Q 6.984375 53.65625 15.1875 63.9375 
Q 23.390625 74.21875 37.203125 74.21875 
Q 40.921875 74.21875 44.703125 73.484375 
Q 48.484375 72.75 52.59375 71.296875 
z
" id="DejaVuSans-54"/>
      </defs>
      <g transform="translate(292.170071 321.140875)scale(0.2 -0.2)">
       <use xlink:href="#DejaVuSans-54"/>
      </g>
     </g>
    </g>
    <g id="xtick_5">
     <g id="line2d_9">
      <path clip-path="url(#p601816c486)" d="M 97.755429 298.944 
L 97.755429 3.456 
" style="fill:none;stroke:#b0b0b0;stroke-linecap:square;stroke-width:0.8;"/>
     </g>
     <g id="line2d_10">
      <defs>
       <path d="M 0 0 
L 0 2 
" id="m032a88e461" style="stroke:#000000;stroke-width:0.6;"/>
      </defs>
      <g>
       <use style="stroke:#000000;stroke-width:0.6;" x="97.755429" xlink:href="#m032a88e461" y="298.944"/>
      </g>
     </g>
    </g>
    <g id="xtick_6">
     <g id="line2d_11">
      <path clip-path="url(#p601816c486)" d="M 178.066286 298.944 
L 178.066286 3.456 
" style="fill:none;stroke:#b0b0b0;stroke-linecap:square;stroke-width:0.8;"/>
     </g>
     <g id="line2d_12">
      <g>
       <use style="stroke:#000000;stroke-width:0.6;" x="178.066286" xlink:href="#m032a88e461" y="298.944"/>
      </g>
     </g>
    </g>
    <g id="xtick_7">
     <g id="line2d_13">
      <path clip-path="url(#p601816c486)" d="M 258.377143 298.944 
L 258.377143 3.456 
" style="fill:none;stroke:#b0b0b0;stroke-linecap:square;stroke-width:0.8;"/>
     </g>
     <g id="line2d_14">
      <g>
       <use style="stroke:#000000;stroke-width:0.6;" x="258.377143" xlink:href="#m032a88e461" y="298.944"/>
      </g>
     </g>
    </g>
    <g id="xtick_8">
     <g id="line2d_15">
      <path clip-path="url(#p601816c486)" d="M 338.688 298.944 
L 338.688 3.456 
" style="fill:none;stroke:#b0b0b0;stroke-linecap:square;stroke-width:0.8;"/>
     </g>
     <g id="line2d_16">
      <g>
       <use style="stroke:#000000;stroke-width:0.6;" x="338.688" xlink:href="#m032a88e461" y="298.944"/>
      </g>
     </g>
    </g>
    <g id="text_5">
     <!-- log10(# f-evals / dimension) -->
     <defs>
      <path d="M 9.421875 75.984375 
L 18.40625 75.984375 
L 18.40625 0 
L 9.421875 0 
z
" id="DejaVuSans-108"/>
      <path d="M 30.609375 48.390625 
Q 23.390625 48.390625 19.1875 42.75 
Q 14.984375 37.109375 14.984375 27.296875 
Q 14.984375 17.484375 19.15625 11.84375 
Q 23.34375 6.203125 30.609375 6.203125 
Q 37.796875 6.203125 41.984375 11.859375 
Q 46.1875 17.53125 46.1875 27.296875 
Q 46.1875 37.015625 41.984375 42.703125 
Q 37.796875 48.390625 30.609375 48.390625 
z
M 30.609375 56 
Q 42.328125 56 49.015625 48.375 
Q 55.71875 40.765625 55.71875 27.296875 
Q 55.71875 13.875 49.015625 6.21875 
Q 42.328125 -1.421875 30.609375 -1.421875 
Q 18.84375 -1.421875 12.171875 6.21875 
Q 5.515625 13.875 5.515625 27.296875 
Q 5.515625 40.765625 12.171875 48.375 
Q 18.84375 56 30.609375 56 
z
" id="DejaVuSans-111"/>
      <path d="M 45.40625 27.984375 
Q 45.40625 37.75 41.375 43.109375 
Q 37.359375 48.484375 30.078125 48.484375 
Q 22.859375 48.484375 18.828125 43.109375 
Q 14.796875 37.75 14.796875 27.984375 
Q 14.796875 18.265625 18.828125 12.890625 
Q 22.859375 7.515625 30.078125 7.515625 
Q 37.359375 7.515625 41.375 12.890625 
Q 45.40625 18.265625 45.40625 27.984375 
z
M 54.390625 6.78125 
Q 54.390625 -7.171875 48.1875 -13.984375 
Q 42 -20.796875 29.203125 -20.796875 
Q 24.46875 -20.796875 20.265625 -20.09375 
Q 16.0625 -19.390625 12.109375 -17.921875 
L 12.109375 -9.1875 
Q 16.0625 -11.328125 19.921875 -12.34375 
Q 23.78125 -13.375 27.78125 -13.375 
Q 36.625 -13.375 41.015625 -8.765625 
Q 45.40625 -4.15625 45.40625 5.171875 
L 45.40625 9.625 
Q 42.625 4.78125 38.28125 2.390625 
Q 33.9375 0 27.875 0 
Q 17.828125 0 11.671875 7.65625 
Q 5.515625 15.328125 5.515625 27.984375 
Q 5.515625 40.671875 11.671875 48.328125 
Q 17.828125 56 27.875 56 
Q 33.9375 56 38.28125 53.609375 
Q 42.625 51.21875 45.40625 46.390625 
L 45.40625 54.6875 
L 54.390625 54.6875 
z
" id="DejaVuSans-103"/>
      <path d="M 12.40625 8.296875 
L 28.515625 8.296875 
L 28.515625 63.921875 
L 10.984375 60.40625 
L 10.984375 69.390625 
L 28.421875 72.90625 
L 38.28125 72.90625 
L 38.28125 8.296875 
L 54.390625 8.296875 
L 54.390625 0 
L 12.40625 0 
z
" id="DejaVuSans-49"/>
      <path d="M 31 75.875 
Q 24.46875 64.65625 21.28125 53.65625 
Q 18.109375 42.671875 18.109375 31.390625 
Q 18.109375 20.125 21.3125 9.0625 
Q 24.515625 -2 31 -13.1875 
L 23.1875 -13.1875 
Q 15.875 -1.703125 12.234375 9.375 
Q 8.59375 20.453125 8.59375 31.390625 
Q 8.59375 42.28125 12.203125 53.3125 
Q 15.828125 64.359375 23.1875 75.875 
z
" id="DejaVuSans-40"/>
      <path d="M 51.125 44 
L 36.921875 44 
L 32.8125 27.6875 
L 47.125 27.6875 
z
M 43.796875 71.78125 
L 38.71875 51.515625 
L 52.984375 51.515625 
L 58.109375 71.78125 
L 65.921875 71.78125 
L 60.890625 51.515625 
L 76.125 51.515625 
L 76.125 44 
L 58.984375 44 
L 54.984375 27.6875 
L 70.515625 27.6875 
L 70.515625 20.21875 
L 53.078125 20.21875 
L 48 0 
L 40.1875 0 
L 45.21875 20.21875 
L 30.90625 20.21875 
L 25.875 0 
L 18.015625 0 
L 23.09375 20.21875 
L 7.71875 20.21875 
L 7.71875 27.6875 
L 24.90625 27.6875 
L 29 44 
L 13.28125 44 
L 13.28125 51.515625 
L 30.90625 51.515625 
L 35.890625 71.78125 
z
" id="DejaVuSans-35"/>
      <path id="DejaVuSans-32"/>
      <path d="M 37.109375 75.984375 
L 37.109375 68.5 
L 28.515625 68.5 
Q 23.6875 68.5 21.796875 66.546875 
Q 19.921875 64.59375 19.921875 59.515625 
L 19.921875 54.6875 
L 34.71875 54.6875 
L 34.71875 47.703125 
L 19.921875 47.703125 
L 19.921875 0 
L 10.890625 0 
L 10.890625 47.703125 
L 2.296875 47.703125 
L 2.296875 54.6875 
L 10.890625 54.6875 
L 10.890625 58.5 
Q 10.890625 67.625 15.140625 71.796875 
Q 19.390625 75.984375 28.609375 75.984375 
z
" id="DejaVuSans-102"/>
      <path d="M 4.890625 31.390625 
L 31.203125 31.390625 
L 31.203125 23.390625 
L 4.890625 23.390625 
z
" id="DejaVuSans-45"/>
      <path d="M 56.203125 29.59375 
L 56.203125 25.203125 
L 14.890625 25.203125 
Q 15.484375 15.921875 20.484375 11.0625 
Q 25.484375 6.203125 34.421875 6.203125 
Q 39.59375 6.203125 44.453125 7.46875 
Q 49.3125 8.734375 54.109375 11.28125 
L 54.109375 2.78125 
Q 49.265625 0.734375 44.1875 -0.34375 
Q 39.109375 -1.421875 33.890625 -1.421875 
Q 20.796875 -1.421875 13.15625 6.1875 
Q 5.515625 13.8125 5.515625 26.8125 
Q 5.515625 40.234375 12.765625 48.109375 
Q 20.015625 56 32.328125 56 
Q 43.359375 56 49.78125 48.890625 
Q 56.203125 41.796875 56.203125 29.59375 
z
M 47.21875 32.234375 
Q 47.125 39.59375 43.09375 43.984375 
Q 39.0625 48.390625 32.421875 48.390625 
Q 24.90625 48.390625 20.390625 44.140625 
Q 15.875 39.890625 15.1875 32.171875 
z
" id="DejaVuSans-101"/>
      <path d="M 2.984375 54.6875 
L 12.5 54.6875 
L 29.59375 8.796875 
L 46.6875 54.6875 
L 56.203125 54.6875 
L 35.6875 0 
L 23.484375 0 
z
" id="DejaVuSans-118"/>
      <path d="M 34.28125 27.484375 
Q 23.390625 27.484375 19.1875 25 
Q 14.984375 22.515625 14.984375 16.5 
Q 14.984375 11.71875 18.140625 8.90625 
Q 21.296875 6.109375 26.703125 6.109375 
Q 34.1875 6.109375 38.703125 11.40625 
Q 43.21875 16.703125 43.21875 25.484375 
L 43.21875 27.484375 
z
M 52.203125 31.203125 
L 52.203125 0 
L 43.21875 0 
L 43.21875 8.296875 
Q 40.140625 3.328125 35.546875 0.953125 
Q 30.953125 -1.421875 24.3125 -1.421875 
Q 15.921875 -1.421875 10.953125 3.296875 
Q 6 8.015625 6 15.921875 
Q 6 25.140625 12.171875 29.828125 
Q 18.359375 34.515625 30.609375 34.515625 
L 43.21875 34.515625 
L 43.21875 35.40625 
Q 43.21875 41.609375 39.140625 45 
Q 35.0625 48.390625 27.6875 48.390625 
Q 23 48.390625 18.546875 47.265625 
Q 14.109375 46.140625 10.015625 43.890625 
L 10.015625 52.203125 
Q 14.9375 54.109375 19.578125 55.046875 
Q 24.21875 56 28.609375 56 
Q 40.484375 56 46.34375 49.84375 
Q 52.203125 43.703125 52.203125 31.203125 
z
" id="DejaVuSans-97"/>
      <path d="M 44.28125 53.078125 
L 44.28125 44.578125 
Q 40.484375 46.53125 36.375 47.5 
Q 32.28125 48.484375 27.875 48.484375 
Q 21.1875 48.484375 17.84375 46.4375 
Q 14.5 44.390625 14.5 40.28125 
Q 14.5 37.15625 16.890625 35.375 
Q 19.28125 33.59375 26.515625 31.984375 
L 29.59375 31.296875 
Q 39.15625 29.25 43.1875 25.515625 
Q 47.21875 21.78125 47.21875 15.09375 
Q 47.21875 7.46875 41.1875 3.015625 
Q 35.15625 -1.421875 24.609375 -1.421875 
Q 20.21875 -1.421875 15.453125 -0.5625 
Q 10.6875 0.296875 5.421875 2 
L 5.421875 11.28125 
Q 10.40625 8.6875 15.234375 7.390625 
Q 20.0625 6.109375 24.8125 6.109375 
Q 31.15625 6.109375 34.5625 8.28125 
Q 37.984375 10.453125 37.984375 14.40625 
Q 37.984375 18.0625 35.515625 20.015625 
Q 33.0625 21.96875 24.703125 23.78125 
L 21.578125 24.515625 
Q 13.234375 26.265625 9.515625 29.90625 
Q 5.8125 33.546875 5.8125 39.890625 
Q 5.8125 47.609375 11.28125 51.796875 
Q 16.75 56 26.8125 56 
Q 31.78125 56 36.171875 55.265625 
Q 40.578125 54.546875 44.28125 53.078125 
z
" id="DejaVuSans-115"/>
      <path d="M 25.390625 72.90625 
L 33.6875 72.90625 
L 8.296875 -9.28125 
L 0 -9.28125 
z
" id="DejaVuSans-47"/>
      <path d="M 45.40625 46.390625 
L 45.40625 75.984375 
L 54.390625 75.984375 
L 54.390625 0 
L 45.40625 0 
L 45.40625 8.203125 
Q 42.578125 3.328125 38.25 0.953125 
Q 33.9375 -1.421875 27.875 -1.421875 
Q 17.96875 -1.421875 11.734375 6.484375 
Q 5.515625 14.40625 5.515625 27.296875 
Q 5.515625 40.1875 11.734375 48.09375 
Q 17.96875 56 27.875 56 
Q 33.9375 56 38.25 53.625 
Q 42.578125 51.265625 45.40625 46.390625 
z
M 14.796875 27.296875 
Q 14.796875 17.390625 18.875 11.75 
Q 22.953125 6.109375 30.078125 6.109375 
Q 37.203125 6.109375 41.296875 11.75 
Q 45.40625 17.390625 45.40625 27.296875 
Q 45.40625 37.203125 41.296875 42.84375 
Q 37.203125 48.484375 30.078125 48.484375 
Q 22.953125 48.484375 18.875 42.84375 
Q 14.796875 37.203125 14.796875 27.296875 
z
" id="DejaVuSans-100"/>
      <path d="M 9.421875 54.6875 
L 18.40625 54.6875 
L 18.40625 0 
L 9.421875 0 
z
M 9.421875 75.984375 
L 18.40625 75.984375 
L 18.40625 64.59375 
L 9.421875 64.59375 
z
" id="DejaVuSans-105"/>
      <path d="M 52 44.1875 
Q 55.375 50.25 60.0625 53.125 
Q 64.75 56 71.09375 56 
Q 79.640625 56 84.28125 50.015625 
Q 88.921875 44.046875 88.921875 33.015625 
L 88.921875 0 
L 79.890625 0 
L 79.890625 32.71875 
Q 79.890625 40.578125 77.09375 44.375 
Q 74.3125 48.1875 68.609375 48.1875 
Q 61.625 48.1875 57.5625 43.546875 
Q 53.515625 38.921875 53.515625 30.90625 
L 53.515625 0 
L 44.484375 0 
L 44.484375 32.71875 
Q 44.484375 40.625 41.703125 44.40625 
Q 38.921875 48.1875 33.109375 48.1875 
Q 26.21875 48.1875 22.15625 43.53125 
Q 18.109375 38.875 18.109375 30.90625 
L 18.109375 0 
L 9.078125 0 
L 9.078125 54.6875 
L 18.109375 54.6875 
L 18.109375 46.1875 
Q 21.1875 51.21875 25.484375 53.609375 
Q 29.78125 56 35.6875 56 
Q 41.65625 56 45.828125 52.96875 
Q 50 49.953125 52 44.1875 
z
" id="DejaVuSans-109"/>
      <path d="M 54.890625 33.015625 
L 54.890625 0 
L 45.90625 0 
L 45.90625 32.71875 
Q 45.90625 40.484375 42.875 44.328125 
Q 39.84375 48.1875 33.796875 48.1875 
Q 26.515625 48.1875 22.3125 43.546875 
Q 18.109375 38.921875 18.109375 30.90625 
L 18.109375 0 
L 9.078125 0 
L 9.078125 54.6875 
L 18.109375 54.6875 
L 18.109375 46.1875 
Q 21.34375 51.125 25.703125 53.5625 
Q 30.078125 56 35.796875 56 
Q 45.21875 56 50.046875 50.171875 
Q 54.890625 44.34375 54.890625 33.015625 
z
" id="DejaVuSans-110"/>
      <path d="M 8.015625 75.875 
L 15.828125 75.875 
Q 23.140625 64.359375 26.78125 53.3125 
Q 30.421875 42.28125 30.421875 31.390625 
Q 30.421875 20.453125 26.78125 9.375 
Q 23.140625 -1.703125 15.828125 -13.1875 
L 8.015625 -13.1875 
Q 14.5 -2 17.703125 9.0625 
Q 20.90625 20.125 20.90625 31.390625 
Q 20.90625 42.671875 17.703125 53.65625 
Q 14.5 64.65625 8.015625 75.875 
z
" id="DejaVuSans-41"/>
     </defs>
     <g transform="translate(77.764078 342.217594)scale(0.17 -0.17)">
      <use xlink:href="#DejaVuSans-108"/>
      <use x="27.783203" xlink:href="#DejaVuSans-111"/>
      <use x="88.964844" xlink:href="#DejaVuSans-103"/>
      <use x="152.441406" xlink:href="#DejaVuSans-49"/>
      <use x="216.064453" xlink:href="#DejaVuSans-48"/>
      <use x="279.6875" xlink:href="#DejaVuSans-40"/>
      <use x="318.701172" xlink:href="#DejaVuSans-35"/>
      <use x="402.490234" xlink:href="#DejaVuSans-32"/>
      <use x="434.277344" xlink:href="#DejaVuSans-102"/>
      <use x="463.982422" xlink:href="#DejaVuSans-45"/>
      <use x="500.066406" xlink:href="#DejaVuSans-101"/>
      <use x="561.589844" xlink:href="#DejaVuSans-118"/>
      <use x="620.769531" xlink:href="#DejaVuSans-97"/>
      <use x="682.048828" xlink:href="#DejaVuSans-108"/>
      <use x="709.832031" xlink:href="#DejaVuSans-115"/>
      <use x="761.931641" xlink:href="#DejaVuSans-32"/>
      <use x="793.71875" xlink:href="#DejaVuSans-47"/>
      <use x="827.410156" xlink:href="#DejaVuSans-32"/>
      <use x="859.197266" xlink:href="#DejaVuSans-100"/>
      <use x="922.673828" xlink:href="#DejaVuSans-105"/>
      <use x="950.457031" xlink:href="#DejaVuSans-109"/>
      <use x="1047.869141" xlink:href="#DejaVuSans-101"/>
      <use x="1109.392578" xlink:href="#DejaVuSans-110"/>
      <use x="1172.771484" xlink:href="#DejaVuSans-115"/>
      <use x="1224.871094" xlink:href="#DejaVuSans-105"/>
      <use x="1252.654297" xlink:href="#DejaVuSans-111"/>
      <use x="1313.835938" xlink:href="#DejaVuSans-110"/>
      <use x="1377.214844" xlink:href="#DejaVuSans-41"/>
     </g>
    </g>
   </g>
   <g id="matplotlib.axis_2">
    <g id="ytick_1">
     <g id="line2d_17">
      <path clip-path="url(#p601816c486)" d="M 57.6 298.944 
L 338.688 298.944 
" style="fill:none;stroke:#b0b0b0;stroke-linecap:square;stroke-width:0.8;"/>
     </g>
     <g id="line2d_18">
      <defs>
       <path d="M 0 0 
L -3.5 0 
" id="m80cc43c742" style="stroke:#000000;stroke-width:0.8;"/>
      </defs>
      <g>
       <use style="stroke:#000000;stroke-width:0.8;" x="57.6" xlink:href="#m80cc43c742" y="298.944"/>
      </g>
     </g>
     <g id="text_6">
      <!-- 0.0 -->
      <defs>
       <path d="M 10.6875 12.40625 
L 21 12.40625 
L 21 0 
L 10.6875 0 
z
" id="DejaVuSans-46"/>
      </defs>
      <g transform="translate(25.155 305.02275)scale(0.16 -0.16)">
       <use xlink:href="#DejaVuSans-48"/>
       <use x="63.623047" xlink:href="#DejaVuSans-46"/>
       <use x="95.410156" xlink:href="#DejaVuSans-48"/>
      </g>
     </g>
    </g>
    <g id="ytick_2">
     <g id="line2d_19">
      <path clip-path="url(#p601816c486)" d="M 57.6 240.431525 
L 338.688 240.431525 
" style="fill:none;stroke:#b0b0b0;stroke-linecap:square;stroke-width:0.8;"/>
     </g>
     <g id="line2d_20">
      <g>
       <use style="stroke:#000000;stroke-width:0.8;" x="57.6" xlink:href="#m80cc43c742" y="240.431525"/>
      </g>
     </g>
     <g id="text_7">
      <!-- 0.2 -->
      <g transform="translate(25.155 246.510275)scale(0.16 -0.16)">
       <use xlink:href="#DejaVuSans-48"/>
       <use x="63.623047" xlink:href="#DejaVuSans-46"/>
       <use x="95.410156" xlink:href="#DejaVuSans-50"/>
      </g>
     </g>
    </g>
    <g id="ytick_3">
     <g id="line2d_21">
      <path clip-path="url(#p601816c486)" d="M 57.6 181.91905 
L 338.688 181.91905 
" style="fill:none;stroke:#b0b0b0;stroke-linecap:square;stroke-width:0.8;"/>
     </g>
     <g id="line2d_22">
      <g>
       <use style="stroke:#000000;stroke-width:0.8;" x="57.6" xlink:href="#m80cc43c742" y="181.91905"/>
      </g>
     </g>
     <g id="text_8">
      <!-- 0.4 -->
      <g transform="translate(25.155 187.9978)scale(0.16 -0.16)">
       <use xlink:href="#DejaVuSans-48"/>
       <use x="63.623047" xlink:href="#DejaVuSans-46"/>
       <use x="95.410156" xlink:href="#DejaVuSans-52"/>
      </g>
     </g>
    </g>
    <g id="ytick_4">
     <g id="line2d_23">
      <path clip-path="url(#p601816c486)" d="M 57.6 123.406574 
L 338.688 123.406574 
" style="fill:none;stroke:#b0b0b0;stroke-linecap:square;stroke-width:0.8;"/>
     </g>
     <g id="line2d_24">
      <g>
       <use style="stroke:#000000;stroke-width:0.8;" x="57.6" xlink:href="#m80cc43c742" y="123.406574"/>
      </g>
     </g>
     <g id="text_9">
      <!-- 0.6 -->
      <g transform="translate(25.155 129.485324)scale(0.16 -0.16)">
       <use xlink:href="#DejaVuSans-48"/>
       <use x="63.623047" xlink:href="#DejaVuSans-46"/>
       <use x="95.410156" xlink:href="#DejaVuSans-54"/>
      </g>
     </g>
    </g>
    <g id="ytick_5">
     <g id="line2d_25">
      <path clip-path="url(#p601816c486)" d="M 57.6 64.894099 
L 338.688 64.894099 
" style="fill:none;stroke:#b0b0b0;stroke-linecap:square;stroke-width:0.8;"/>
     </g>
     <g id="line2d_26">
      <g>
       <use style="stroke:#000000;stroke-width:0.8;" x="57.6" xlink:href="#m80cc43c742" y="64.894099"/>
      </g>
     </g>
     <g id="text_10">
      <!-- 0.8 -->
      <defs>
       <path d="M 31.78125 34.625 
Q 24.75 34.625 20.71875 30.859375 
Q 16.703125 27.09375 16.703125 20.515625 
Q 16.703125 13.921875 20.71875 10.15625 
Q 24.75 6.390625 31.78125 6.390625 
Q 38.8125 6.390625 42.859375 10.171875 
Q 46.921875 13.96875 46.921875 20.515625 
Q 46.921875 27.09375 42.890625 30.859375 
Q 38.875 34.625 31.78125 34.625 
z
M 21.921875 38.8125 
Q 15.578125 40.375 12.03125 44.71875 
Q 8.5 49.078125 8.5 55.328125 
Q 8.5 64.0625 14.71875 69.140625 
Q 20.953125 74.21875 31.78125 74.21875 
Q 42.671875 74.21875 48.875 69.140625 
Q 55.078125 64.0625 55.078125 55.328125 
Q 55.078125 49.078125 51.53125 44.71875 
Q 48 40.375 41.703125 38.8125 
Q 48.828125 37.15625 52.796875 32.3125 
Q 56.78125 27.484375 56.78125 20.515625 
Q 56.78125 9.90625 50.3125 4.234375 
Q 43.84375 -1.421875 31.78125 -1.421875 
Q 19.734375 -1.421875 13.25 4.234375 
Q 6.78125 9.90625 6.78125 20.515625 
Q 6.78125 27.484375 10.78125 32.3125 
Q 14.796875 37.15625 21.921875 38.8125 
z
M 18.3125 54.390625 
Q 18.3125 48.734375 21.84375 45.5625 
Q 25.390625 42.390625 31.78125 42.390625 
Q 38.140625 42.390625 41.71875 45.5625 
Q 45.3125 48.734375 45.3125 54.390625 
Q 45.3125 60.0625 41.71875 63.234375 
Q 38.140625 66.40625 31.78125 66.40625 
Q 25.390625 66.40625 21.84375 63.234375 
Q 18.3125 60.0625 18.3125 54.390625 
z
" id="DejaVuSans-56"/>
      </defs>
      <g transform="translate(25.155 70.972849)scale(0.16 -0.16)">
       <use xlink:href="#DejaVuSans-48"/>
       <use x="63.623047" xlink:href="#DejaVuSans-46"/>
       <use x="95.410156" xlink:href="#DejaVuSans-56"/>
      </g>
     </g>
    </g>
    <g id="ytick_6">
     <g id="line2d_27">
      <path clip-path="url(#p601816c486)" d="M 57.6 6.381624 
L 338.688 6.381624 
" style="fill:none;stroke:#b0b0b0;stroke-linecap:square;stroke-width:0.8;"/>
     </g>
     <g id="line2d_28">
      <g>
       <use style="stroke:#000000;stroke-width:0.8;" x="57.6" xlink:href="#m80cc43c742" y="6.381624"/>
      </g>
     </g>
     <g id="text_11">
      <!-- 1.0 -->
      <g transform="translate(25.155 12.460374)scale(0.16 -0.16)">
       <use xlink:href="#DejaVuSans-49"/>
       <use x="63.623047" xlink:href="#DejaVuSans-46"/>
       <use x="95.410156" xlink:href="#DejaVuSans-48"/>
      </g>
     </g>
    </g>
    <g id="text_12">
     <!-- Fraction of function,target pairs -->
     <defs>
      <path d="M 9.8125 72.90625 
L 51.703125 72.90625 
L 51.703125 64.59375 
L 19.671875 64.59375 
L 19.671875 43.109375 
L 48.578125 43.109375 
L 48.578125 34.8125 
L 19.671875 34.8125 
L 19.671875 0 
L 9.8125 0 
z
" id="DejaVuSans-70"/>
      <path d="M 41.109375 46.296875 
Q 39.59375 47.171875 37.8125 47.578125 
Q 36.03125 48 33.890625 48 
Q 26.265625 48 22.1875 43.046875 
Q 18.109375 38.09375 18.109375 28.8125 
L 18.109375 0 
L 9.078125 0 
L 9.078125 54.6875 
L 18.109375 54.6875 
L 18.109375 46.1875 
Q 20.953125 51.171875 25.484375 53.578125 
Q 30.03125 56 36.53125 56 
Q 37.453125 56 38.578125 55.875 
Q 39.703125 55.765625 41.0625 55.515625 
z
" id="DejaVuSans-114"/>
      <path d="M 48.78125 52.59375 
L 48.78125 44.1875 
Q 44.96875 46.296875 41.140625 47.34375 
Q 37.3125 48.390625 33.40625 48.390625 
Q 24.65625 48.390625 19.8125 42.84375 
Q 14.984375 37.3125 14.984375 27.296875 
Q 14.984375 17.28125 19.8125 11.734375 
Q 24.65625 6.203125 33.40625 6.203125 
Q 37.3125 6.203125 41.140625 7.25 
Q 44.96875 8.296875 48.78125 10.40625 
L 48.78125 2.09375 
Q 45.015625 0.34375 40.984375 -0.53125 
Q 36.96875 -1.421875 32.421875 -1.421875 
Q 20.0625 -1.421875 12.78125 6.34375 
Q 5.515625 14.109375 5.515625 27.296875 
Q 5.515625 40.671875 12.859375 48.328125 
Q 20.21875 56 33.015625 56 
Q 37.15625 56 41.109375 55.140625 
Q 45.0625 54.296875 48.78125 52.59375 
z
" id="DejaVuSans-99"/>
      <path d="M 18.3125 70.21875 
L 18.3125 54.6875 
L 36.8125 54.6875 
L 36.8125 47.703125 
L 18.3125 47.703125 
L 18.3125 18.015625 
Q 18.3125 11.328125 20.140625 9.421875 
Q 21.96875 7.515625 27.59375 7.515625 
L 36.8125 7.515625 
L 36.8125 0 
L 27.59375 0 
Q 17.1875 0 13.234375 3.875 
Q 9.28125 7.765625 9.28125 18.015625 
L 9.28125 47.703125 
L 2.6875 47.703125 
L 2.6875 54.6875 
L 9.28125 54.6875 
L 9.28125 70.21875 
z
" id="DejaVuSans-116"/>
      <path d="M 8.5 21.578125 
L 8.5 54.6875 
L 17.484375 54.6875 
L 17.484375 21.921875 
Q 17.484375 14.15625 20.5 10.265625 
Q 23.53125 6.390625 29.59375 6.390625 
Q 36.859375 6.390625 41.078125 11.03125 
Q 45.3125 15.671875 45.3125 23.6875 
L 45.3125 54.6875 
L 54.296875 54.6875 
L 54.296875 0 
L 45.3125 0 
L 45.3125 8.40625 
Q 42.046875 3.421875 37.71875 1 
Q 33.40625 -1.421875 27.6875 -1.421875 
Q 18.265625 -1.421875 13.375 4.4375 
Q 8.5 10.296875 8.5 21.578125 
z
M 31.109375 56 
z
" id="DejaVuSans-117"/>
      <path d="M 11.71875 12.40625 
L 22.015625 12.40625 
L 22.015625 4 
L 14.015625 -11.625 
L 7.71875 -11.625 
L 11.71875 4 
z
" id="DejaVuSans-44"/>
      <path d="M 18.109375 8.203125 
L 18.109375 -20.796875 
L 9.078125 -20.796875 
L 9.078125 54.6875 
L 18.109375 54.6875 
L 18.109375 46.390625 
Q 20.953125 51.265625 25.265625 53.625 
Q 29.59375 56 35.59375 56 
Q 45.5625 56 51.78125 48.09375 
Q 58.015625 40.1875 58.015625 27.296875 
Q 58.015625 14.40625 51.78125 6.484375 
Q 45.5625 -1.421875 35.59375 -1.421875 
Q 29.59375 -1.421875 25.265625 0.953125 
Q 20.953125 3.328125 18.109375 8.203125 
z
M 48.6875 27.296875 
Q 48.6875 37.203125 44.609375 42.84375 
Q 40.53125 48.484375 33.40625 48.484375 
Q 26.265625 48.484375 22.1875 42.84375 
Q 18.109375 37.203125 18.109375 27.296875 
Q 18.109375 17.390625 22.1875 11.75 
Q 26.265625 6.109375 33.40625 6.109375 
Q 40.53125 6.109375 44.609375 11.75 
Q 48.6875 17.390625 48.6875 27.296875 
z
" id="DejaVuSans-112"/>
     </defs>
     <g transform="translate(17.619531 285.585)rotate(-90)scale(0.17 -0.17)">
      <use xlink:href="#DejaVuSans-70"/>
      <use x="50.269531" xlink:href="#DejaVuSans-114"/>
      <use x="91.382812" xlink:href="#DejaVuSans-97"/>
      <use x="152.662109" xlink:href="#DejaVuSans-99"/>
      <use x="207.642578" xlink:href="#DejaVuSans-116"/>
      <use x="246.851562" xlink:href="#DejaVuSans-105"/>
      <use x="274.634766" xlink:href="#DejaVuSans-111"/>
      <use x="335.816406" xlink:href="#DejaVuSans-110"/>
      <use x="399.195312" xlink:href="#DejaVuSans-32"/>
      <use x="430.982422" xlink:href="#DejaVuSans-111"/>
      <use x="492.164062" xlink:href="#DejaVuSans-102"/>
      <use x="527.369141" xlink:href="#DejaVuSans-32"/>
      <use x="559.15625" xlink:href="#DejaVuSans-102"/>
      <use x="594.361328" xlink:href="#DejaVuSans-117"/>
      <use x="657.740234" xlink:href="#DejaVuSans-110"/>
      <use x="721.119141" xlink:href="#DejaVuSans-99"/>
      <use x="776.099609" xlink:href="#DejaVuSans-116"/>
      <use x="815.308594" xlink:href="#DejaVuSans-105"/>
      <use x="843.091797" xlink:href="#DejaVuSans-111"/>
      <use x="904.273438" xlink:href="#DejaVuSans-110"/>
      <use x="967.652344" xlink:href="#DejaVuSans-44"/>
      <use x="999.439453" xlink:href="#DejaVuSans-116"/>
      <use x="1038.648438" xlink:href="#DejaVuSans-97"/>
      <use x="1099.927734" xlink:href="#DejaVuSans-114"/>
      <use x="1139.291016" xlink:href="#DejaVuSans-103"/>
      <use x="1202.767578" xlink:href="#DejaVuSans-101"/>
      <use x="1264.291016" xlink:href="#DejaVuSans-116"/>
      <use x="1303.5" xlink:href="#DejaVuSans-32"/>
      <use x="1335.287109" xlink:href="#DejaVuSans-112"/>
      <use x="1398.763672" xlink:href="#DejaVuSans-97"/>
      <use x="1460.042969" xlink:href="#DejaVuSans-105"/>
      <use x="1487.826172" xlink:href="#DejaVuSans-114"/>
      <use x="1528.939453" xlink:href="#DejaVuSans-115"/>
     </g>
    </g>
   </g>
   <g id="line2d_29">
    <defs>
     <path d="M 0 1.5 
C 0.397805 1.5 0.77937 1.341951 1.06066 1.06066 
C 1.341951 0.77937 1.5 0.397805 1.5 0 
C 1.5 -0.397805 1.341951 -0.77937 1.06066 -1.06066 
C 0.77937 -1.341951 0.397805 -1.5 0 -1.5 
C -0.397805 -1.5 -0.77937 -1.341951 -1.06066 -1.06066 
C -1.341951 -0.77937 -1.5 -0.397805 -1.5 0 
C -1.5 0.397805 -1.341951 0.77937 -1.06066 1.06066 
C -0.77937 1.341951 -0.397805 1.5 0 1.5 
z
" id="md7b0de1c24" style="stroke:#00bfbf;"/>
    </defs>
    <g>
     <use style="fill:#00bfbf;stroke:#00bfbf;" x="229.411054" xlink:href="#md7b0de1c24" y="61.452189"/>
     <use style="fill:#00bfbf;stroke:#00bfbf;" x="229.411054" xlink:href="#md7b0de1c24" y="61.452189"/>
    </g>
   </g>
   <g id="line2d_30">
    <path d="M 45.512012 298.944 
L 45.512012 284.029055 
L 92.73846 284.029055 
L 92.73846 283.914325 
L 94.921215 283.914325 
L 94.921215 283.570134 
L 96.86091 283.570134 
L 96.86091 283.455404 
L 97.755429 283.455404 
L 97.755429 283.340673 
L 98.606294 283.340673 
L 98.606294 283.225943 
L 99.41757 283.225943 
L 99.41757 282.996482 
L 100.192776 282.996482 
L 100.192776 282.767022 
L 100.934985 282.767022 
L 100.934985 282.652291 
L 101.646892 282.652291 
L 101.646892 282.537561 
L 102.989037 282.537561 
L 102.989037 281.963909 
L 103.623262 281.963909 
L 103.623262 280.931336 
L 104.23523 280.931336 
L 104.23523 280.816606 
L 104.826449 280.816606 
L 104.826449 280.472415 
L 105.398279 280.472415 
L 105.398279 279.898763 
L 105.951954 279.898763 
L 105.951954 279.210381 
L 106.48859 279.210381 
L 106.48859 278.636729 
L 107.009204 278.636729 
L 107.009204 278.177808 
L 107.514726 278.177808 
L 107.514726 275.42428 
L 108.006005 275.42428 
L 108.006005 274.850628 
L 108.483824 274.850628 
L 108.483824 273.014942 
L 108.948899 273.014942 
L 108.948899 270.835066 
L 109.401893 270.835066 
L 109.401893 267.163695 
L 109.843417 267.163695 
L 109.843417 244.676547 
L 110.274038 244.676547 
L 110.274038 244.332356 
L 110.694282 244.332356 
L 110.694282 244.217626 
L 111.104637 244.217626 
L 111.104637 243.299783 
L 111.505558 243.299783 
L 111.505558 242.611401 
L 111.897469 242.611401 
L 111.897469 241.808289 
L 112.280765 241.808289 
L 112.280765 240.316794 
L 112.655818 240.316794 
L 112.655818 231.597288 
L 113.022974 231.597288 
L 113.022974 231.138367 
L 113.382559 231.138367 
L 113.382559 231.023637 
L 113.73488 231.023637 
L 113.73488 230.449985 
L 114.080224 230.449985 
L 114.080224 229.991063 
L 114.418861 229.991063 
L 114.418861 229.646872 
L 114.751048 229.646872 
L 114.751048 228.614299 
L 115.077025 228.614299 
L 115.077025 227.696457 
L 115.397021 227.696457 
L 115.397021 227.466996 
L 115.711251 227.466996 
L 115.711251 227.237535 
L 116.019919 227.237535 
L 116.019919 227.008075 
L 116.323218 227.008075 
L 116.323218 225.287119 
L 116.621333 225.287119 
L 116.621333 224.942928 
L 116.914437 224.942928 
L 116.914437 224.828198 
L 117.202696 224.828198 
L 117.202696 223.910355 
L 117.486268 223.910355 
L 117.486268 223.107243 
L 117.765302 223.107243 
L 117.765302 222.533591 
L 118.039942 222.533591 
L 118.039942 222.418861 
L 118.310324 222.418861 
L 118.310324 220.697906 
L 118.576578 220.697906 
L 118.576578 220.583175 
L 118.838828 220.583175 
L 118.838828 220.124254 
L 119.097192 220.124254 
L 119.097192 219.550602 
L 119.351785 219.550602 
L 119.351785 218.97695 
L 119.602714 218.97695 
L 119.602714 218.403299 
L 119.850084 218.403299 
L 119.850084 217.944377 
L 120.093994 217.944377 
L 120.093994 217.600186 
L 120.33454 217.600186 
L 120.33454 216.911804 
L 120.571812 216.911804 
L 120.571812 216.338153 
L 120.8059 216.338153 
L 120.8059 215.076119 
L 121.036887 215.076119 
L 121.036887 214.617197 
L 121.264855 214.617197 
L 121.264855 214.043546 
L 121.489881 214.043546 
L 121.489881 213.469894 
L 121.712041 213.469894 
L 121.712041 212.437321 
L 121.931406 212.437321 
L 121.931406 211.634209 
L 122.148045 211.634209 
L 122.148045 210.831096 
L 122.362027 210.831096 
L 122.362027 209.913253 
L 122.573415 209.913253 
L 122.573415 209.798523 
L 122.782271 209.798523 
L 122.782271 208.76595 
L 122.988655 208.76595 
L 122.988655 207.962838 
L 123.192626 207.962838 
L 123.192626 207.389186 
L 123.394238 207.389186 
L 123.394238 206.356613 
L 123.593547 206.356613 
L 123.593547 204.750388 
L 123.790603 204.750388 
L 123.790603 204.291467 
L 123.985457 204.291467 
L 123.985457 204.176736 
L 124.178158 204.176736 
L 124.178158 203.947275 
L 124.368753 203.947275 
L 124.368753 202.799972 
L 124.557288 202.799972 
L 124.557288 201.882129 
L 124.743806 201.882129 
L 124.743806 199.587522 
L 124.92835 199.587522 
L 124.92835 199.013871 
L 125.110962 199.013871 
L 125.110962 198.554949 
L 125.291682 198.554949 
L 125.291682 198.210758 
L 125.470548 198.210758 
L 125.470548 197.178185 
L 125.647598 197.178185 
L 125.647598 196.030882 
L 125.822869 196.030882 
L 125.822869 195.45723 
L 125.996395 195.45723 
L 125.996395 194.309927 
L 126.168212 194.309927 
L 126.168212 193.736275 
L 126.338353 193.736275 
L 126.338353 192.588971 
L 126.50685 192.588971 
L 126.50685 191.441668 
L 126.673734 191.441668 
L 126.673734 190.294365 
L 126.839037 190.294365 
L 126.839037 190.064904 
L 127.002787 190.064904 
L 127.002787 188.80287 
L 127.165014 188.80287 
L 127.165014 187.885027 
L 127.325746 187.885027 
L 127.325746 186.278803 
L 127.48501 186.278803 
L 127.48501 185.246229 
L 127.642832 185.246229 
L 127.642832 183.754735 
L 127.799239 183.754735 
L 127.799239 182.14851 
L 127.954256 182.14851 
L 127.954256 181.689589 
L 128.107907 181.689589 
L 128.107907 180.198094 
L 128.260216 180.198094 
L 128.260216 178.936061 
L 128.411207 178.936061 
L 128.411207 177.329836 
L 128.560901 177.329836 
L 128.560901 176.297263 
L 128.709321 176.297263 
L 128.709321 175.149959 
L 128.856489 175.149959 
L 128.856489 175.035229 
L 129.002426 175.035229 
L 129.002426 173.887925 
L 129.147151 173.887925 
L 129.147151 173.429004 
L 129.290685 173.429004 
L 129.290685 171.363858 
L 129.433047 171.363858 
L 129.433047 169.528172 
L 129.574256 169.528172 
L 129.574256 169.183981 
L 129.714332 169.183981 
L 129.714332 167.921948 
L 129.853291 167.921948 
L 129.853291 167.577757 
L 129.991152 167.577757 
L 129.991152 166.430453 
L 130.127931 166.430453 
L 130.127931 165.856801 
L 130.263646 165.856801 
L 130.263646 164.021116 
L 130.398313 164.021116 
L 130.398313 162.873812 
L 130.531948 162.873812 
L 130.531948 160.923397 
L 130.664567 160.923397 
L 130.664567 159.431902 
L 130.796184 159.431902 
L 130.796184 158.85825 
L 130.926816 158.85825 
L 130.926816 158.055138 
L 131.056477 158.055138 
L 131.056477 157.366756 
L 131.185181 157.366756 
L 131.185181 156.793104 
L 131.312942 156.793104 
L 131.312942 156.104722 
L 131.439773 156.104722 
L 131.439773 155.072149 
L 131.565689 155.072149 
L 131.565689 154.383767 
L 131.690703 154.383767 
L 131.690703 153.236464 
L 131.814826 153.236464 
L 131.814826 151.97443 
L 131.938072 151.97443 
L 131.938072 151.400778 
L 132.060454 151.400778 
L 132.060454 151.056587 
L 132.181982 151.056587 
L 132.181982 149.909284 
L 132.30267 149.909284 
L 132.30267 149.220902 
L 132.422528 149.220902 
L 132.422528 147.844137 
L 132.541568 147.844137 
L 132.541568 146.926295 
L 132.659801 146.926295 
L 132.659801 139.468822 
L 132.777237 139.468822 
L 132.777237 138.895171 
L 132.893889 138.895171 
L 132.893889 137.747867 
L 133.009765 137.747867 
L 133.009765 137.174215 
L 133.124876 137.174215 
L 133.124876 136.600564 
L 133.239232 136.600564 
L 133.239232 135.912182 
L 133.352844 135.912182 
L 133.352844 135.567991 
L 133.46572 135.567991 
L 133.46572 131.437698 
L 133.57787 131.437698 
L 133.57787 130.519856 
L 133.689303 130.519856 
L 133.800029 125.47172 
L 133.910056 125.47172 
L 134.019394 121.91508 
L 134.12805 121.91508 
L 134.236034 121.226698 
L 134.343353 121.226698 
L 134.450015 120.653046 
L 134.55603 120.653046 
L 134.661403 119.505743 
L 134.766144 119.505743 
L 134.870259 118.817361 
L 134.973757 118.817361 
L 135.076644 118.243709 
L 135.178927 118.243709 
L 135.280614 117.784787 
L 135.381712 117.784787 
L 135.482227 116.522754 
L 135.681535 116.522754 
L 135.780341 115.949102 
L 135.878591 115.949102 
L 135.878591 115.604911 
L 136.073445 115.604911 
L 136.170062 115.26072 
L 136.456742 115.26072 
L 136.551264 114.572338 
L 136.738785 114.572338 
L 136.831795 114.228147 
L 136.924311 114.228147 
L 137.016339 113.883956 
L 137.107884 113.883956 
L 137.107884 113.539765 
L 137.37967 113.539765 
L 137.37967 113.425034 
L 137.558536 113.425034 
L 137.647286 113.195574 
L 137.910857 113.195574 
L 137.997836 112.966113 
L 138.084384 112.966113 
L 138.170504 112.507192 
L 138.510793 112.507192 
L 138.510793 112.392461 
L 139.652088 112.392461 
L 139.730821 112.163001 
L 140.042245 112.163001 
L 140.11924 111.704079 
L 140.723258 111.704079 
L 140.723258 111.474619 
L 140.871049 111.474619 
L 140.871049 111.245158 
L 141.017599 111.245158 
L 141.017599 111.130427 
L 141.162927 111.130427 
L 141.235139 110.900967 
L 141.307054 110.900967 
L 141.307054 110.556776 
L 141.521035 110.556776 
L 141.521035 110.327315 
L 142.010346 110.327315 
L 142.010346 109.638933 
L 142.884173 109.638933 
L 142.884173 109.524203 
L 143.014805 109.524203 
L 143.079756 109.065281 
L 143.273169 109.065281 
L 143.273169 108.835821 
L 143.40093 108.835821 
L 143.40093 108.60636 
L 143.527762 108.60636 
L 143.527762 108.49163 
L 143.653678 108.49163 
L 143.653678 108.376899 
L 144.087359 108.376899 
L 144.087359 108.262169 
L 144.209312 108.262169 
L 144.209312 108.147439 
L 144.510517 108.147439 
L 144.510517 108.032708 
L 144.923649 108.032708 
L 144.923649 107.917978 
L 145.384119 107.917978 
L 145.384119 107.803248 
L 145.609873 107.803248 
L 145.609873 107.573787 
L 146.161795 107.573787 
L 146.216039 107.344326 
L 146.644018 107.344326 
L 146.644018 107.229596 
L 147.419225 107.229596 
L 147.419225 107.114865 
L 148.966103 107.114865 
L 148.966103 107.000135 
L 149.286939 107.000135 
L 149.377533 106.655944 
L 149.467659 106.655944 
L 149.467659 106.426483 
L 149.646525 106.426483 
L 149.646525 106.311753 
L 149.779481 106.311753 
L 149.867558 106.082292 
L 149.911431 106.082292 
L 149.998846 105.623371 
L 150.042389 105.623371 
L 150.129152 105.27918 
L 150.215485 105.27918 
L 150.215485 105.16445 
L 150.38688 105.16445 
L 150.429467 104.934989 
L 150.51433 104.934989 
L 150.598782 104.590798 
L 150.682827 104.590798 
L 150.724698 104.131877 
L 150.849711 104.131877 
L 150.932558 103.672955 
L 151.621307 103.672955 
L 151.621307 103.558225 
L 152.0141 103.558225 
L 152.0141 103.443494 
L 152.511852 103.443494 
L 152.511852 103.328764 
L 153.142033 103.328764 
L 153.142033 103.214034 
L 153.679772 103.214034 
L 153.679772 103.099303 
L 154.098334 103.099303 
L 154.132765 102.869843 
L 154.269814 102.869843 
L 154.269814 102.755112 
L 155.232454 102.755112 
L 155.232454 102.640382 
L 156.175347 102.640382 
L 156.175347 102.525652 
L 156.538679 102.525652 
L 156.538679 102.410921 
L 156.98245 102.410921 
L 156.98245 102.296191 
L 157.214591 102.296191 
L 157.214591 102.181461 
L 157.753847 102.181461 
L 157.753847 102.06673 
L 158.304027 102.06673 
L 158.304027 101.952 
L 159.072168 101.952 
L 159.072168 101.83727 
L 159.658204 101.83727 
L 159.658204 101.722539 
L 159.783038 101.722539 
L 159.783038 101.607809 
L 160.249422 101.607809 
L 160.249422 101.493079 
L 161.823263 101.493079 
L 161.823263 101.378348 
L 162.260361 101.378348 
L 162.260361 101.263618 
L 162.389382 101.263618 
L 162.474869 101.034157 
L 162.517456 101.034157 
L 162.62347 100.689966 
L 162.644595 100.689966 
L 162.68677 100.460506 
L 162.812686 100.460506 
L 162.916926 100.116315 
L 162.958448 100.116315 
L 163.020547 99.772123 
L 163.123555 99.772123 
L 163.123555 99.657393 
L 163.327764 99.657393 
L 163.408783 99.313202 
L 163.449152 99.313202 
L 163.449152 99.198472 
L 163.589711 99.198472 
L 163.589711 99.083741 
L 163.828065 99.083741 
L 163.867476 98.854281 
L 163.946031 98.854281 
L 163.946031 98.73955 
L 164.102088 98.73955 
L 164.102088 98.62482 
L 164.9363 98.62482 
L 164.9363 98.51009 
L 165.518877 98.51009 
L 165.518877 98.395359 
L 165.679281 98.395359 
L 165.679281 98.280629 
L 166.306535 98.280629 
L 166.306535 98.165899 
L 166.928532 98.165899 
L 166.928532 98.051168 
L 167.141909 98.051168 
L 167.239518 97.821708 
L 168.278627 97.821708 
L 168.278627 97.706977 
L 168.521475 97.706977 
L 168.521475 97.592247 
L 168.835167 97.592247 
L 168.909031 97.362786 
L 169.070439 97.362786 
L 169.085039 97.133326 
L 169.630959 97.133326 
L 169.659223 96.789135 
L 169.827856 96.789135 
L 169.925477 96.330213 
L 169.939378 96.330213 
L 170.050192 95.756561 
L 170.160306 95.756561 
L 170.228776 95.527101 
L 170.337772 95.527101 
L 170.337772 95.41237 
L 170.607318 95.41237 
L 170.700684 94.838719 
L 171.198983 94.838719 
L 171.198983 94.723988 
L 171.557249 94.723988 
L 171.557249 94.609258 
L 174.637316 94.609258 
L 174.637316 94.494528 
L 174.890216 94.494528 
L 174.973708 94.265067 
L 175.160115 94.265067 
L 175.252577 93.461955 
L 175.303734 93.461955 
L 175.395439 93.003033 
L 175.436043 93.003033 
L 175.436043 92.888303 
L 175.607562 92.888303 
L 175.717652 92.544112 
L 175.78735 92.544112 
L 175.78735 92.429381 
L 175.916053 92.429381 
L 175.916053 92.314651 
L 177.245042 92.314651 
L 177.245042 92.199921 
L 177.48108 92.199921 
L 177.48108 92.08519 
L 178.867253 92.08519 
L 178.933752 91.85573 
L 179.01652 91.85573 
L 179.074226 91.511539 
L 179.139941 91.511539 
L 179.213577 91.167348 
L 179.295031 91.167348 
L 179.359921 90.478966 
L 179.432635 90.478966 
L 179.432635 90.364235 
L 179.553156 90.364235 
L 179.553156 90.249505 
L 179.744273 90.249505 
L 179.846927 90.020044 
L 179.870531 90.020044 
L 179.870531 89.905314 
L 180.065997 89.905314 
L 180.065997 89.790584 
L 180.343674 89.790584 
L 180.343674 89.675853 
L 180.759545 89.675853 
L 180.759545 89.561123 
L 181.754271 89.561123 
L 181.803604 89.331662 
L 181.90885 89.331662 
L 181.978663 88.987471 
L 182.055136 88.987471 
L 182.096708 88.75801 
L 182.30993 88.75801 
L 182.344078 88.52855 
L 182.527329 88.52855 
L 182.61488 87.840168 
L 182.675235 87.840168 
L 182.78202 87.037055 
L 182.821896 87.037055 
L 182.88154 86.807595 
L 183.306352 86.807595 
L 183.306352 86.692864 
L 183.62623 86.692864 
L 183.62623 86.578134 
L 184.612111 86.578134 
L 184.612111 86.463404 
L 184.926769 86.463404 
L 184.950287 86.233943 
L 185.061571 86.233943 
L 185.154736 85.889752 
L 185.189545 85.889752 
L 185.293557 85.545561 
L 185.333839 85.545561 
L 185.339586 85.3161 
L 185.482649 85.3161 
L 185.567927 84.857179 
L 185.658433 84.857179 
L 185.658433 84.742448 
L 187.232646 84.742448 
L 187.340566 84.283527 
L 187.493588 84.283527 
L 187.549361 84.054066 
L 187.765688 84.054066 
L 187.840524 83.824606 
L 187.900163 83.824606 
L 188.008973 83.365684 
L 188.112208 83.365684 
L 188.126906 83.136224 
L 189.116905 83.136224 
L 189.116905 83.021493 
L 189.245983 83.021493 
L 189.314741 82.677302 
L 189.446909 82.677302 
L 189.519403 82.447842 
L 189.739559 82.447842 
L 189.784149 82.218381 
L 189.850822 82.218381 
L 189.95256 81.98892 
L 190.193469 81.98892 
L 190.193469 81.87419 
L 191.021741 81.87419 
L 191.021741 81.75946 
L 191.219729 81.75946 
L 191.219729 81.644729 
L 191.44791 81.644729 
L 191.552844 81.300538 
L 191.593036 81.300538 
L 191.593036 81.185808 
L 191.744926 81.185808 
L 191.744926 81.071077 
L 192.033055 81.071077 
L 192.033055 80.956347 
L 192.431662 80.956347 
L 192.431662 80.841617 
L 193.107106 80.841617 
L 193.21718 80.267965 
L 193.239112 80.267965 
L 193.30838 79.694313 
L 193.467743 79.694313 
L 193.467743 79.579583 
L 194.425242 79.579583 
L 194.445707 79.350122 
L 194.649043 79.350122 
L 194.749829 79.120662 
L 194.786638 79.120662 
L 194.886635 78.776471 
L 195.83425 78.776471 
L 195.83425 78.66174 
L 196.022108 78.66174 
L 196.078073 78.317549 
L 196.155505 78.317549 
L 196.192551 78.088089 
L 196.275617 78.088089 
L 196.275617 77.973358 
L 196.413188 77.973358 
L 196.413188 77.858628 
L 196.920363 77.858628 
L 196.994152 77.629167 
L 197.050024 77.629167 
L 197.050024 77.514437 
L 197.2282 77.514437 
L 197.332506 76.940785 
L 197.482077 76.940785 
L 197.482077 76.826055 
L 197.729487 76.826055 
L 197.777424 76.596594 
L 198.21402 76.596594 
L 198.260646 76.367133 
L 198.429643 76.367133 
L 198.50273 76.137673 
L 198.562056 76.137673 
L 198.642632 75.793482 
L 198.908561 75.793482 
L 198.908561 75.678751 
L 199.540901 75.678751 
L 199.579037 75.449291 
L 199.675275 75.449291 
L 199.773496 74.990369 
L 199.821148 74.990369 
L 199.898617 74.646178 
L 199.953387 74.646178 
L 199.953387 74.531448 
L 200.315001 74.531448 
L 200.315001 74.416718 
L 200.438728 74.416718 
L 200.484598 74.187257 
L 200.799991 74.187257 
L 200.896804 73.498875 
L 201.074853 73.498875 
L 201.074853 73.384144 
L 201.609652 73.384144 
L 201.609652 73.269414 
L 201.989754 73.269414 
L 202.097792 72.925223 
L 202.523373 72.925223 
L 202.632429 72.236841 
L 202.660119 72.236841 
L 202.660119 72.122111 
L 202.961841 72.122111 
L 202.961841 72.00738 
L 203.424218 72.00738 
L 203.464912 71.663189 
L 203.543992 71.663189 
L 203.564212 71.433729 
L 203.703091 71.433729 
L 203.749139 71.089538 
L 204.249747 71.089538 
L 204.306 70.745347 
L 204.435273 70.745347 
L 204.510083 70.401156 
L 204.811798 70.401156 
L 204.811798 70.286425 
L 205.171154 70.286425 
L 205.277715 69.598043 
L 205.292362 69.598043 
L 205.308826 69.368582 
L 205.487095 69.368582 
L 205.487095 69.253852 
L 205.633076 69.253852 
L 205.633076 69.139122 
L 205.958455 69.139122 
L 205.958455 69.024391 
L 206.589849 69.024391 
L 206.694865 68.794931 
L 206.75387 68.794931 
L 206.817707 68.56547 
L 206.92303 68.56547 
L 206.92303 68.45074 
L 207.347837 68.45074 
L 207.347837 68.336009 
L 207.492011 68.336009 
L 207.538733 68.106549 
L 207.650996 68.106549 
L 207.650996 67.991818 
L 208.035196 67.991818 
L 208.136547 67.532897 
L 208.172269 67.532897 
L 208.172269 67.418167 
L 208.36514 67.418167 
L 208.36514 67.303436 
L 208.957996 67.303436 
L 208.977267 66.959245 
L 209.308922 66.959245 
L 209.308922 66.844515 
L 209.509816 66.844515 
L 209.581518 66.615054 
L 209.748157 66.615054 
L 209.748157 66.500324 
L 210.140603 66.500324 
L 210.16138 66.270863 
L 210.472816 66.270863 
L 210.472816 66.156133 
L 210.72526 66.156133 
L 210.72526 66.041402 
L 210.846798 66.041402 
L 210.846798 65.926672 
L 211.169867 65.926672 
L 211.169867 65.811942 
L 211.412489 65.811942 
L 211.412489 65.697211 
L 211.632707 65.697211 
L 211.679718 65.467751 
L 211.871527 65.467751 
L 211.871527 65.35302 
L 212.301659 65.35302 
L 212.301659 65.23829 
L 212.495261 65.23829 
L 212.553288 65.008829 
L 212.884427 65.008829 
L 212.930549 64.779369 
L 213.137183 64.779369 
L 213.167502 64.549908 
L 213.298665 64.549908 
L 213.298665 64.435178 
L 213.660303 64.435178 
L 213.660303 64.320447 
L 214.29643 64.320447 
L 214.29643 64.205717 
L 214.55012 64.205717 
L 214.65314 63.976256 
L 214.705489 63.976256 
L 214.705489 63.861526 
L 214.81714 63.861526 
L 214.81714 63.746796 
L 215.093701 63.746796 
L 215.166578 63.517335 
L 215.329959 63.517335 
L 215.329959 63.402605 
L 215.831128 63.402605 
L 215.833128 63.173144 
L 216.082329 63.173144 
L 216.104987 62.943683 
L 216.420113 62.943683 
L 216.482846 62.714222 
L 217.178791 62.714222 
L 217.178791 62.599492 
L 218.122026 62.599492 
L 218.133423 62.370031 
L 218.46847 62.370031 
L 218.46847 62.255301 
L 219.65887 62.255301 
L 219.65887 62.140571 
L 219.841792 62.140571 
L 219.841792 62.02584 
L 221.206907 62.02584 
L 221.206907 61.91111 
L 225.801445 61.91111 
L 225.801445 61.79638 
L 226.082594 61.79638 
L 226.082594 61.681649 
L 228.926527 61.681649 
L 228.926527 61.566919 
L 229.411054 61.566919 
L 229.411054 61.452189 
L 338.688 61.452189 
L 338.688 61.452189 
" style="fill:none;stroke:#00bfbf;stroke-linecap:square;stroke-width:1.5;"/>
   </g>
   <g id="line2d_31">
    <defs>
     <path d="M -6 0 
L 6 0 
M 0 6 
L 0 -6 
" id="m6131bfeee0" style="stroke:#00bfbf;stroke-width:1.5;"/>
    </defs>
    <g>
     <use style="fill-opacity:0;stroke:#00bfbf;stroke-width:1.5;" x="109.843417" xlink:href="#m6131bfeee0" y="267.163695"/>
     <use style="fill-opacity:0;stroke:#00bfbf;stroke-width:1.5;" x="132.541568" xlink:href="#m6131bfeee0" y="146.926295"/>
     <use style="fill-opacity:0;stroke:#00bfbf;stroke-width:1.5;" x="182.695307" xlink:href="#m6131bfeee0" y="87.610707"/>
     <use style="fill-opacity:0;stroke:#00bfbf;stroke-width:1.5;" x="229.411054" xlink:href="#m6131bfeee0" y="61.452189"/>
     <use style="fill-opacity:0;stroke:#00bfbf;stroke-width:1.5;" x="229.411054" xlink:href="#m6131bfeee0" y="61.452189"/>
     <use style="fill-opacity:0;stroke:#00bfbf;stroke-width:1.5;" x="338.688" xlink:href="#m6131bfeee0" y="61.452189"/>
    </g>
   </g>
   <g id="line2d_32">
    <path style="fill:none;stroke:#00bfbf;stroke-linecap:square;stroke-width:1.5;"/>
    <g/>
   </g>
   <g id="line2d_33">
    <path clip-path="url(#p601816c486)" d="M 151.260066 103.672955 
" style="fill:none;stroke:#00bfbf;stroke-linecap:square;stroke-width:1.5;"/>
    <defs>
     <path d="M -12 12 
L 12 -12 
M -12 -12 
L 12 12 
" id="mdedea0dac1" style="stroke:#00bfbf;"/>
    </defs>
    <g clip-path="url(#p601816c486)">
     <use style="fill:#00bfbf;stroke:#00bfbf;" x="151.260066" xlink:href="#mdedea0dac1" y="103.672955"/>
    </g>
   </g>
   <g id="line2d_34">
    <defs>
     <path d="M 0 1.5 
C 0.397805 1.5 0.77937 1.341951 1.06066 1.06066 
C 1.341951 0.77937 1.5 0.397805 1.5 0 
C 1.5 -0.397805 1.341951 -0.77937 1.06066 -1.06066 
C 0.77937 -1.341951 0.397805 -1.5 0 -1.5 
C -0.397805 -1.5 -0.77937 -1.341951 -1.06066 -1.06066 
C -1.341951 -0.77937 -1.5 -0.397805 -1.5 0 
C -1.5 0.397805 -1.341951 0.77937 -1.06066 1.06066 
C -0.77937 1.341951 -0.397805 1.5 0 1.5 
z
" id="m268717a008" style="stroke:#008000;"/>
    </defs>
    <g>
     <use style="fill:#008000;stroke:#008000;" x="229.64436" xlink:href="#m268717a008" y="101.607809"/>
     <use style="fill:#008000;stroke:#008000;" x="229.64436" xlink:href="#m268717a008" y="101.607809"/>
    </g>
   </g>
   <g id="line2d_35">
    <path d="M 38.440992 298.944 
L 38.440992 289.306651 
L 84.464254 289.306651 
L 84.464254 289.191921 
L 93.121756 289.191921 
L 93.121756 289.07719 
L 93.863965 289.07719 
L 93.863965 288.84773 
L 94.575872 288.84773 
L 94.575872 288.732999 
L 95.918017 288.732999 
L 95.918017 288.503539 
L 96.552242 288.503539 
L 96.552242 288.274078 
L 97.16421 288.274078 
L 97.16421 288.159348 
L 97.755429 288.159348 
L 97.755429 287.929887 
L 98.32726 287.929887 
L 98.32726 287.700426 
L 98.880934 287.700426 
L 98.880934 287.585696 
L 99.938184 287.585696 
L 99.938184 287.470966 
L 100.443706 287.470966 
L 100.443706 287.126775 
L 100.934985 287.126775 
L 100.934985 287.012044 
L 102.772397 287.012044 
L 102.772397 286.667853 
L 103.203018 286.667853 
L 103.203018 286.208932 
L 103.623262 286.208932 
L 103.623262 284.946898 
L 104.033617 284.946898 
L 104.033617 284.832168 
L 104.434538 284.832168 
L 104.434538 284.143786 
L 104.826449 284.143786 
L 104.826449 283.684864 
L 105.209745 283.684864 
L 105.209745 283.455404 
L 105.584798 283.455404 
L 105.584798 282.3081 
L 105.951954 282.3081 
L 105.951954 281.619718 
L 106.311539 281.619718 
L 106.311539 280.931336 
L 106.66386 280.931336 
L 106.66386 280.242954 
L 107.009204 280.242954 
L 107.009204 279.784033 
L 107.347841 279.784033 
L 107.347841 279.669302 
L 107.680028 279.669302 
L 107.680028 279.439842 
L 108.006005 279.439842 
L 108.006005 278.98092 
L 108.326001 278.98092 
L 108.326001 278.407268 
L 108.640231 278.407268 
L 108.640231 275.65374 
L 108.948899 275.65374 
L 108.948899 275.42428 
L 109.550313 275.42428 
L 109.550313 275.194819 
L 110.131676 275.194819 
L 110.131676 267.966807 
L 111.505558 267.966807 
L 111.505558 267.852077 
L 111.767808 267.852077 
L 111.767808 267.737347 
L 112.026172 267.737347 
L 112.026172 267.622616 
L 112.779064 267.622616 
L 112.779064 267.507886 
L 113.500792 267.507886 
L 113.500792 267.393156 
L 114.193835 267.393156 
L 114.193835 267.163695 
L 114.418861 267.163695 
L 114.418861 267.048964 
L 115.291007 267.048964 
L 115.291007 266.934234 
L 115.917635 266.934234 
L 115.917635 266.704773 
L 118.220662 266.704773 
L 118.220662 266.590043 
L 118.576578 266.590043 
L 118.576578 266.475313 
L 118.751849 266.475313 
L 118.751849 266.245852 
L 119.097192 266.245852 
L 119.097192 266.016391 
L 119.267333 266.016391 
L 119.267333 265.55747 
L 119.43583 265.55747 
L 119.43583 265.213279 
L 119.931767 265.213279 
L 119.931767 264.983818 
L 120.093994 264.983818 
L 120.093994 264.869088 
L 120.254726 264.869088 
L 120.254726 264.754358 
L 120.41399 264.754358 
L 120.41399 264.639627 
L 120.728219 264.639627 
L 120.728219 264.295436 
L 120.883236 264.295436 
L 120.883236 264.180706 
L 121.036887 264.180706 
L 121.036887 263.492324 
L 121.189196 263.492324 
L 121.189196 263.377593 
L 121.340187 263.377593 
L 121.340187 263.262863 
L 121.489881 263.262863 
L 121.489881 263.148133 
L 121.638301 263.148133 
L 121.638301 263.033402 
L 122.219665 263.033402 
L 122.219665 262.803942 
L 122.362027 262.803942 
L 122.362027 262.689211 
L 122.503236 262.689211 
L 122.503236 262.574481 
L 122.643312 262.574481 
L 122.643312 262.34502 
L 122.782271 262.34502 
L 122.782271 262.11556 
L 123.056911 262.11556 
L 123.056911 261.886099 
L 123.725164 261.886099 
L 123.725164 261.656638 
L 123.985457 261.656638 
L 123.985457 261.312447 
L 124.114161 261.312447 
L 124.114161 261.197717 
L 124.368753 261.197717 
L 124.368753 260.968256 
L 124.494669 260.968256 
L 124.494669 260.738796 
L 124.619683 260.738796 
L 124.619683 260.624065 
L 126.053856 260.624065 
L 126.053856 260.509335 
L 126.50685 260.509335 
L 126.50685 260.279874 
L 126.618283 260.279874 
L 126.729009 259.476762 
L 126.948374 259.476762 
L 127.05703 258.90311 
L 127.272333 258.90311 
L 127.378995 258.558919 
L 127.48501 258.558919 
L 127.590383 257.296885 
L 127.799239 257.296885 
L 127.902737 246.282772 
L 128.005624 246.282772 
L 128.107907 245.823851 
L 128.209594 245.823851 
L 128.310692 245.47966 
L 128.411207 245.47966 
L 128.511146 245.020738 
L 128.610515 245.020738 
L 128.709321 244.791278 
L 129.002426 244.791278 
L 129.099042 244.561817 
L 129.290685 244.561817 
L 129.385722 244.102896 
L 129.480244 244.102896 
L 129.574256 243.529244 
L 129.760775 243.529244 
L 129.853291 242.955592 
L 129.945319 242.955592 
L 130.036864 242.611401 
L 130.127931 242.611401 
L 130.218525 242.15248 
L 130.30865 242.15248 
L 130.398313 241.349368 
L 130.487516 241.349368 
L 130.576266 241.005176 
L 130.664567 241.005176 
L 130.752422 240.660985 
L 130.839837 240.660985 
L 130.926816 239.169491 
L 131.099484 239.169491 
L 131.185181 238.94003 
L 131.270459 238.94003 
L 131.355321 238.481109 
L 131.439773 238.481109 
L 131.523818 237.907457 
L 131.60746 237.907457 
L 131.690703 236.874884 
L 131.856005 236.874884 
L 131.856005 235.727581 
L 132.101058 235.727581 
L 132.181982 235.38339 
L 132.262533 235.38339 
L 132.342714 234.350817 
L 132.422528 234.350817 
L 132.501978 233.547704 
L 132.581068 233.547704 
L 132.659801 233.203513 
L 132.73818 233.203513 
L 132.816208 232.515131 
L 132.893889 232.515131 
L 132.971225 231.712019 
L 133.04822 231.712019 
L 133.04822 231.253097 
L 133.201197 231.253097 
L 133.277185 230.794176 
L 133.352844 230.794176 
L 133.428175 230.335255 
L 133.503183 230.335255 
L 133.57787 229.646872 
L 133.652238 229.646872 
L 133.72629 229.302681 
L 133.800029 229.302681 
L 133.873458 227.237535 
L 134.019394 227.237535 
L 134.091907 226.663884 
L 134.164119 226.663884 
L 134.236034 226.090232 
L 134.307653 226.090232 
L 134.37898 225.51658 
L 134.450015 225.51658 
L 134.520763 224.942928 
L 134.591225 224.942928 
L 134.661403 224.369277 
L 134.7313 224.369277 
L 134.7313 223.451434 
L 134.870259 223.451434 
L 134.939326 223.107243 
L 135.00812 223.107243 
L 135.076644 222.1894 
L 135.144899 222.1894 
L 135.212889 221.042097 
L 135.280614 221.042097 
L 135.348078 219.206411 
L 135.415281 219.206411 
L 135.482227 217.944377 
L 135.548916 217.944377 
L 135.615352 217.370726 
L 135.681535 217.370726 
L 135.747468 215.993962 
L 135.813153 215.993962 
L 135.878591 215.190849 
L 136.008736 215.190849 
L 136.073445 213.928815 
L 136.137916 213.928815 
L 136.202149 213.125703 
L 136.266147 213.125703 
L 136.32991 212.20786 
L 136.393441 212.20786 
L 136.456742 210.831096 
L 136.519813 210.831096 
L 136.519813 210.027984 
L 136.645276 210.027984 
L 136.707671 209.339602 
L 136.769843 209.339602 
L 136.831795 208.536489 
L 136.893527 208.536489 
L 136.955041 207.618646 
L 137.016339 207.618646 
L 137.077422 207.159725 
L 137.198951 207.159725 
L 137.259399 206.930264 
L 137.319638 206.930264 
L 137.319638 206.356613 
L 137.439497 206.356613 
L 137.499118 205.5535 
L 137.558536 205.5535 
L 137.558536 205.094579 
L 137.676769 205.094579 
L 137.676769 204.750388 
L 137.794206 204.750388 
L 137.852629 204.062006 
L 137.968891 204.062006 
L 138.026733 200.275904 
L 138.084384 200.275904 
L 138.141844 198.78441 
L 138.256201 198.78441 
L 138.313099 197.981298 
L 138.369812 197.981298 
L 138.426341 194.883578 
L 138.482688 194.883578 
L 138.538853 194.195196 
L 138.594838 194.195196 
L 138.650644 193.851005 
L 138.706272 193.851005 
L 138.816998 193.162623 
L 138.872098 193.162623 
L 138.981779 189.835443 
L 139.036363 189.835443 
L 139.145019 189.032331 
L 139.253002 189.032331 
L 139.360321 188.458679 
L 139.413734 188.458679 
L 139.520072 187.540836 
L 139.572998 187.540836 
L 139.678372 186.852454 
L 139.730821 186.852454 
L 139.835248 185.47569 
L 139.887228 185.47569 
L 139.990725 181.460128 
L 140.042245 181.460128 
L 140.144829 173.887925 
L 140.195896 173.887925 
L 140.297583 173.084813 
L 140.348205 173.084813 
L 140.44901 169.757633 
L 140.549236 169.757633 
L 140.64889 168.954521 
L 140.747977 168.954521 
L 140.846504 168.266139 
L 140.89556 168.266139 
L 140.944478 167.233566 
L 141.138789 167.233566 
L 141.235139 166.430453 
L 141.283115 166.430453 
L 141.378673 166.200992 
L 141.426256 166.200992 
L 141.47371 165.51261 
L 141.568232 165.51261 
L 141.615302 164.594768 
L 141.709062 164.594768 
L 141.755753 164.250577 
L 141.848763 164.250577 
L 141.941279 163.447464 
L 141.987354 163.447464 
L 142.07914 162.759082 
L 142.170445 162.759082 
L 142.215919 162.414891 
L 142.306513 162.414891 
L 142.396639 158.85825 
L 142.441528 158.85825 
L 142.441528 158.62879 
L 142.619936 158.62879 
L 142.708461 157.481486 
L 142.796538 157.481486 
L 142.884173 156.678374 
L 142.927826 156.678374 
L 142.971369 156.448913 
L 143.058132 156.448913 
L 143.144465 155.875262 
L 143.187472 155.875262 
L 143.273169 155.30161 
L 143.358447 155.30161 
L 143.40093 154.957419 
L 143.485587 154.957419 
L 143.569835 154.039576 
L 143.611807 154.039576 
L 143.695448 152.548082 
L 143.778691 152.548082 
L 143.820164 152.08916 
L 143.902815 152.08916 
L 143.985075 151.630239 
L 144.06695 151.630239 
L 144.148442 147.270486 
L 144.269971 147.270486 
L 144.269971 146.696834 
L 144.390658 146.696834 
L 144.470655 145.664261 
L 144.510517 145.664261 
L 144.589967 144.861149 
L 144.708467 144.861149 
L 144.787023 144.287497 
L 144.904196 144.287497 
L 144.904196 144.172766 
L 145.020588 144.172766 
L 145.020588 144.058036 
L 145.251067 144.058036 
L 145.251067 143.828575 
L 145.403044 143.828575 
L 145.478539 143.484384 
L 145.591172 143.484384 
L 145.628555 143.140193 
L 145.740226 143.140193 
L 145.851187 142.337081 
L 145.888018 142.337081 
L 145.998045 141.87816 
L 146.143677 141.87816 
L 146.252108 141.189778 
L 146.288102 141.189778 
L 146.359869 140.616126 
L 146.502522 140.616126 
L 146.608752 140.042474 
L 146.644018 140.042474 
L 146.749392 139.583553 
L 146.854132 139.583553 
L 146.923612 138.895171 
L 146.992815 138.895171 
L 147.061745 138.436249 
L 147.130404 138.436249 
L 147.232888 137.288946 
L 147.334773 137.288946 
L 147.402367 136.944755 
L 147.4697 136.944755 
L 147.570215 135.912182 
L 147.603592 135.912182 
L 147.70334 135.109069 
L 147.736463 135.109069 
L 147.802521 134.650148 
L 147.86833 134.650148 
L 147.96658 133.732305 
L 147.999207 133.732305 
L 148.064279 133.388114 
L 148.129109 133.388114 
L 148.225905 132.699732 
L 148.290138 132.699732 
L 148.354135 132.12608 
L 148.417899 132.12608 
L 148.513109 131.322968 
L 148.607802 131.322968 
L 148.639252 130.519856 
L 148.76449 130.519856 
L 148.79566 130.175665 
L 148.888835 130.175665 
L 148.981515 129.257822 
L 149.012299 129.257822 
L 149.104327 128.7989 
L 149.134896 128.7989 
L 149.195872 128.110518 
L 149.256637 128.110518 
L 149.347388 126.733754 
L 149.497598 126.733754 
L 149.587107 126.389563 
L 149.616841 126.389563 
L 149.705742 125.47172 
L 149.794191 125.47172 
L 149.823575 125.127529 
L 149.940618 125.127529 
L 150.027887 124.553878 
L 150.201126 124.553878 
L 150.201126 124.439147 
L 150.344189 124.439147 
L 150.429467 123.980226 
L 150.626842 123.980226 
L 150.654857 123.521305 
L 150.849711 123.521305 
L 150.849711 123.291844 
L 151.042412 123.291844 
L 151.097081 122.947653 
L 151.205907 122.947653 
L 151.314058 122.603462 
L 151.367883 122.603462 
L 151.421542 122.14454 
L 151.60806 122.14454 
L 151.660987 121.91508 
L 152.334802 121.91508 
L 152.334802 121.800349 
L 152.687123 121.800349 
L 152.786492 121.570889 
L 152.983548 121.570889 
L 153.008024 121.226698 
L 153.105587 121.226698 
L 153.202607 120.882507 
L 153.347132 120.882507 
L 153.395042 120.653046 
L 153.585377 120.653046 
L 153.679772 120.423585 
L 153.726778 120.423585 
L 153.820412 120.194125 
L 153.936752 120.194125 
L 154.029268 119.964664 
L 154.098334 119.964664 
L 154.098334 119.391012 
L 154.57429 119.391012 
L 154.663493 119.046821 
L 154.840544 119.046821 
L 154.928399 118.817361 
L 154.994001 118.817361 
L 154.994001 118.70263 
L 155.382516 118.70263 
L 155.46769 118.243709 
L 155.61575 118.243709 
L 155.699795 117.899518 
L 155.741666 117.899518 
L 155.741666 117.670057 
L 155.908152 117.670057 
L 155.990803 117.211136 
L 156.175347 117.211136 
L 156.175347 116.752214 
L 156.297301 116.752214 
L 156.378132 116.063832 
L 156.478647 116.063832 
L 156.518691 115.719641 
L 156.638275 115.719641 
L 156.677955 115.490181 
L 156.757045 115.490181 
L 156.835778 114.916529 
L 157.1279 114.916529 
L 157.147202 114.342877 
L 157.339055 114.342877 
L 157.415209 113.998686 
L 157.566527 113.998686 
L 157.622935 113.654495 
L 157.735205 113.654495 
L 157.772468 113.310304 
L 157.902267 113.310304 
L 157.957601 112.966113 
L 158.049435 112.966113 
L 158.159001 112.621922 
L 158.213527 112.621922 
L 158.322071 112.392461 
L 158.376091 112.392461 
L 158.412011 112.163001 
L 158.994256 112.163001 
L 159.0116 111.93354 
L 159.708245 111.93354 
L 159.708245 111.81881 
L 160.038232 111.81881 
L 160.038232 111.704079 
L 160.281688 111.704079 
L 160.281688 111.589349 
L 160.648508 111.589349 
L 160.648508 111.474619 
L 160.80562 111.474619 
L 160.821253 111.245158 
L 161.100288 111.245158 
L 161.100288 111.130427 
L 162.868358 111.130427 
L 162.868358 111.015697 
L 162.992975 111.015697 
L 163.006766 110.671506 
L 163.266752 110.671506 
L 163.280329 110.442045 
L 163.549667 110.442045 
L 163.563025 110.212585 
L 163.788565 110.212585 
L 163.788565 110.097854 
L 163.946031 110.097854 
L 163.946031 109.983124 
L 165.157053 109.983124 
L 165.157053 109.868394 
L 165.814766 109.868394 
L 165.814766 109.753663 
L 165.966667 109.753663 
L 165.966667 109.638933 
L 166.414589 109.638933 
L 166.48249 109.409472 
L 166.851294 109.409472 
L 166.851294 109.294742 
L 169.560096 109.294742 
L 169.560096 109.180012 
L 170.907851 109.180012 
L 170.907851 109.065281 
L 171.116915 109.065281 
L 171.116915 108.950551 
L 171.645677 108.950551 
L 171.645677 108.835821 
L 172.482136 108.835821 
L 172.482136 108.72109 
L 172.854463 108.72109 
L 172.854463 108.60636 
L 172.994977 108.60636 
L 172.994977 108.49163 
L 173.318507 108.49163 
L 173.318507 108.376899 
L 173.666095 108.376899 
L 173.673575 108.147439 
L 174.225613 108.147439 
L 174.225613 108.032708 
L 179.082454 108.032708 
L 179.082454 107.917978 
L 179.284192 107.917978 
L 179.295031 107.688517 
L 179.419193 107.688517 
L 179.419193 107.573787 
L 179.775924 107.573787 
L 179.775924 107.459056 
L 180.351324 107.459056 
L 180.351324 107.344326 
L 180.523841 107.344326 
L 180.523841 107.229596 
L 182.124367 107.229596 
L 182.124367 107.114865 
L 183.475552 107.114865 
L 183.475552 107.000135 
L 183.729465 107.000135 
L 183.729465 106.885405 
L 184.12819 106.885405 
L 184.12819 106.770674 
L 184.761242 106.770674 
L 184.761242 106.655944 
L 187.792333 106.655944 
L 187.792333 106.541214 
L 188.03689 106.541214 
L 188.03689 106.426483 
L 188.640029 106.426483 
L 188.640029 106.311753 
L 188.944859 106.311753 
L 188.944859 106.197023 
L 189.769298 106.197023 
L 189.769298 106.082292 
L 190.098962 106.082292 
L 190.171705 105.852832 
L 190.855016 105.852832 
L 190.855016 105.738101 
L 191.200578 105.738101 
L 191.200578 105.623371 
L 191.334192 105.623371 
L 191.334192 105.508641 
L 192.740107 105.508641 
L 192.740107 105.39391 
L 195.134145 105.39391 
L 195.169063 105.16445 
L 195.316688 105.16445 
L 195.424445 104.934989 
L 195.792228 104.934989 
L 195.792228 104.820259 
L 197.001023 104.820259 
L 197.001023 104.705528 
L 197.287191 104.705528 
L 197.370019 104.476068 
L 197.444804 104.476068 
L 197.444804 104.361337 
L 199.06445 104.361337 
L 199.085362 104.131877 
L 200.377379 104.131877 
L 200.377379 104.017146 
L 201.018823 104.017146 
L 201.018823 103.902416 
L 201.751481 103.902416 
L 201.751481 103.787685 
L 202.027312 103.787685 
L 202.106582 103.558225 
L 203.330943 103.558225 
L 203.330943 103.443494 
L 203.468299 103.443494 
L 203.471008 103.214034 
L 204.675819 103.214034 
L 204.675819 103.099303 
L 204.859392 103.099303 
L 204.859392 102.984573 
L 205.049715 102.984573 
L 205.049715 102.869843 
L 208.289789 102.869843 
L 208.289789 102.755112 
L 208.980723 102.755112 
L 208.980723 102.640382 
L 209.285163 102.640382 
L 209.285163 102.525652 
L 211.014135 102.525652 
L 211.014135 102.410921 
L 211.708456 102.410921 
L 211.708456 102.296191 
L 214.57844 102.296191 
L 214.57844 102.181461 
L 214.786375 102.181461 
L 214.786375 102.06673 
L 216.007579 102.06673 
L 216.007579 101.952 
L 219.401632 101.952 
L 219.401632 101.83727 
L 226.631291 101.83727 
L 226.631291 101.722539 
L 229.64436 101.722539 
L 229.64436 101.607809 
L 338.688 101.607809 
L 338.688 101.607809 
" style="fill:none;stroke:#008000;stroke-linecap:square;stroke-width:1.5;"/>
   </g>
   <g id="line2d_36">
    <defs>
     <path d="M -0 6 
L 6 -6 
L -6 -6 
z
" id="m0759337072" style="stroke:#008000;stroke-linejoin:miter;stroke-width:1.5;"/>
    </defs>
    <g>
     <use style="fill-opacity:0;stroke:#008000;stroke-linejoin:miter;stroke-width:1.5;" x="122.503236" xlink:href="#m0759337072" y="262.689211"/>
     <use style="fill-opacity:0;stroke:#008000;stroke-linejoin:miter;stroke-width:1.5;" x="142.306513" xlink:href="#m0759337072" y="162.414891"/>
     <use style="fill-opacity:0;stroke:#008000;stroke-linejoin:miter;stroke-width:1.5;" x="202.106582" xlink:href="#m0759337072" y="103.558225"/>
     <use style="fill-opacity:0;stroke:#008000;stroke-linejoin:miter;stroke-width:1.5;" x="229.64436" xlink:href="#m0759337072" y="101.607809"/>
     <use style="fill-opacity:0;stroke:#008000;stroke-linejoin:miter;stroke-width:1.5;" x="229.64436" xlink:href="#m0759337072" y="101.607809"/>
     <use style="fill-opacity:0;stroke:#008000;stroke-linejoin:miter;stroke-width:1.5;" x="338.688" xlink:href="#m0759337072" y="101.607809"/>
    </g>
   </g>
   <g id="line2d_37">
    <path style="fill:none;stroke:#008000;stroke-linecap:square;stroke-width:1.5;"/>
    <g/>
   </g>
   <g id="line2d_38">
    <path clip-path="url(#p601816c486)" d="M 158.213527 112.507192 
" style="fill:none;stroke:#008000;stroke-linecap:square;stroke-width:1.5;"/>
    <defs>
     <path d="M -12 12 
L 12 -12 
M -12 -12 
L 12 12 
" id="m8594f3cd97" style="stroke:#008000;"/>
    </defs>
    <g clip-path="url(#p601816c486)">
     <use style="fill:#008000;stroke:#008000;" x="158.213527" xlink:href="#m8594f3cd97" y="112.507192"/>
    </g>
   </g>
   <g id="line2d_39">
    <path d="M 338.688 101.607809 
L 369.60768 293.092752 
" style="fill:none;stroke:#008000;stroke-linecap:square;stroke-width:1.5;"/>
    <g>
     <use style="fill-opacity:0;stroke:#008000;stroke-linejoin:miter;stroke-width:1.5;" x="338.688" xlink:href="#m0759337072" y="101.607809"/>
     <use style="fill-opacity:0;stroke:#008000;stroke-linejoin:miter;stroke-width:1.5;" x="369.60768" xlink:href="#m0759337072" y="293.092752"/>
    </g>
   </g>
   <g id="line2d_40">
    <path d="M 338.688 61.452189 
L 369.60768 12.232871 
" style="fill:none;stroke:#00bfbf;stroke-linecap:square;stroke-width:1.5;"/>
    <g>
     <use style="fill-opacity:0;stroke:#00bfbf;stroke-width:1.5;" x="338.688" xlink:href="#m6131bfeee0" y="61.452189"/>
     <use style="fill-opacity:0;stroke:#00bfbf;stroke-width:1.5;" x="369.60768" xlink:href="#m6131bfeee0" y="12.232871"/>
    </g>
   </g>
   <g id="line2d_41">
    <path d="M 338.688 298.944 
L 338.688 6.381624 
" style="fill:none;stroke:#000000;stroke-linecap:square;stroke-width:1.5;"/>
   </g>
   <g id="patch_3">
    <path d="M 57.6 298.944 
L 57.6 3.456 
" style="fill:none;stroke:#000000;stroke-linecap:square;stroke-linejoin:miter;stroke-width:0.8;"/>
   </g>
   <g id="patch_4">
    <path d="M 338.688 298.944 
L 338.688 3.456 
" style="fill:none;stroke:#000000;stroke-linecap:square;stroke-linejoin:miter;stroke-width:0.8;"/>
   </g>
   <g id="patch_5">
    <path d="M 57.6 298.944 
L 338.688 298.944 
" style="fill:none;stroke:#000000;stroke-linecap:square;stroke-linejoin:miter;stroke-width:0.8;"/>
   </g>
   <g id="patch_6">
    <path d="M 57.6 3.456 
L 338.688 3.456 
" style="fill:none;stroke:#000000;stroke-linecap:square;stroke-linejoin:miter;stroke-width:0.8;"/>
   </g>
   <g id="text_13">
    <!-- 3-D -->
    <defs>
     <path d="M 40.578125 39.3125 
Q 47.65625 37.796875 51.625 33 
Q 55.609375 28.21875 55.609375 21.1875 
Q 55.609375 10.40625 48.1875 4.484375 
Q 40.765625 -1.421875 27.09375 -1.421875 
Q 22.515625 -1.421875 17.65625 -0.515625 
Q 12.796875 0.390625 7.625 2.203125 
L 7.625 11.71875 
Q 11.71875 9.328125 16.59375 8.109375 
Q 21.484375 6.890625 26.8125 6.890625 
Q 36.078125 6.890625 40.9375 10.546875 
Q 45.796875 14.203125 45.796875 21.1875 
Q 45.796875 27.640625 41.28125 31.265625 
Q 36.765625 34.90625 28.71875 34.90625 
L 20.21875 34.90625 
L 20.21875 43.015625 
L 29.109375 43.015625 
Q 36.375 43.015625 40.234375 45.921875 
Q 44.09375 48.828125 44.09375 54.296875 
Q 44.09375 59.90625 40.109375 62.90625 
Q 36.140625 65.921875 28.71875 65.921875 
Q 24.65625 65.921875 20.015625 65.03125 
Q 15.375 64.15625 9.8125 62.3125 
L 9.8125 71.09375 
Q 15.4375 72.65625 20.34375 73.4375 
Q 25.25 74.21875 29.59375 74.21875 
Q 40.828125 74.21875 47.359375 69.109375 
Q 53.90625 64.015625 53.90625 55.328125 
Q 53.90625 49.265625 50.4375 45.09375 
Q 46.96875 40.921875 40.578125 39.3125 
z
" id="DejaVuSans-51"/>
     <path d="M 19.671875 64.796875 
L 19.671875 8.109375 
L 31.59375 8.109375 
Q 46.6875 8.109375 53.6875 14.9375 
Q 60.6875 21.78125 60.6875 36.53125 
Q 60.6875 51.171875 53.6875 57.984375 
Q 46.6875 64.796875 31.59375 64.796875 
z
M 9.8125 72.90625 
L 30.078125 72.90625 
Q 51.265625 72.90625 61.171875 64.09375 
Q 71.09375 55.28125 71.09375 36.53125 
Q 71.09375 17.671875 61.125 8.828125 
Q 51.171875 0 30.078125 0 
L 9.8125 0 
z
" id="DejaVuSans-68"/>
    </defs>
    <g transform="translate(375.22944 297.78369)scale(0.17 -0.17)">
     <use xlink:href="#DejaVuSans-51"/>
     <use x="63.623047" xlink:href="#DejaVuSans-45"/>
     <use x="99.707031" xlink:href="#DejaVuSans-68"/>
    </g>
   </g>
   <g id="text_14">
    <!-- 2-D -->
    <g transform="translate(375.22944 16.923809)scale(0.17 -0.17)">
     <use xlink:href="#DejaVuSans-50"/>
     <use x="63.623047" xlink:href="#DejaVuSans-45"/>
     <use x="99.707031" xlink:href="#DejaVuSans-68"/>
    </g>
   </g>
   <g id="text_15">
    <!-- bbob f1-f5 -->
    <defs>
     <path d="M 48.6875 27.296875 
Q 48.6875 37.203125 44.609375 42.84375 
Q 40.53125 48.484375 33.40625 48.484375 
Q 26.265625 48.484375 22.1875 42.84375 
Q 18.109375 37.203125 18.109375 27.296875 
Q 18.109375 17.390625 22.1875 11.75 
Q 26.265625 6.109375 33.40625 6.109375 
Q 40.53125 6.109375 44.609375 11.75 
Q 48.6875 17.390625 48.6875 27.296875 
z
M 18.109375 46.390625 
Q 20.953125 51.265625 25.265625 53.625 
Q 29.59375 56 35.59375 56 
Q 45.5625 56 51.78125 48.09375 
Q 58.015625 40.1875 58.015625 27.296875 
Q 58.015625 14.40625 51.78125 6.484375 
Q 45.5625 -1.421875 35.59375 -1.421875 
Q 29.59375 -1.421875 25.265625 0.953125 
Q 20.953125 3.328125 18.109375 8.203125 
L 18.109375 0 
L 9.078125 0 
L 9.078125 75.984375 
L 18.109375 75.984375 
z
" id="DejaVuSans-98"/>
     <path d="M 10.796875 72.90625 
L 49.515625 72.90625 
L 49.515625 64.59375 
L 19.828125 64.59375 
L 19.828125 46.734375 
Q 21.96875 47.46875 24.109375 47.828125 
Q 26.265625 48.1875 28.421875 48.1875 
Q 40.625 48.1875 47.75 41.5 
Q 54.890625 34.8125 54.890625 23.390625 
Q 54.890625 11.625 47.5625 5.09375 
Q 40.234375 -1.421875 26.90625 -1.421875 
Q 22.3125 -1.421875 17.546875 -0.640625 
Q 12.796875 0.140625 7.71875 1.703125 
L 7.71875 11.625 
Q 12.109375 9.234375 16.796875 8.0625 
Q 21.484375 6.890625 26.703125 6.890625 
Q 35.15625 6.890625 40.078125 11.328125 
Q 45.015625 15.765625 45.015625 23.390625 
Q 45.015625 31 40.078125 35.4375 
Q 35.15625 39.890625 26.703125 39.890625 
Q 22.75 39.890625 18.8125 39.015625 
Q 14.890625 38.140625 10.796875 36.28125 
z
" id="DejaVuSans-53"/>
    </defs>
    <g transform="translate(60.41088 14.161286)scale(0.102 -0.102)">
     <use xlink:href="#DejaVuSans-98"/>
     <use x="63.476562" xlink:href="#DejaVuSans-98"/>
     <use x="126.953125" xlink:href="#DejaVuSans-111"/>
     <use x="188.134766" xlink:href="#DejaVuSans-98"/>
     <use x="251.611328" xlink:href="#DejaVuSans-32"/>
     <use x="283.398438" xlink:href="#DejaVuSans-102"/>
     <use x="318.603516" xlink:href="#DejaVuSans-49"/>
     <use x="382.226562" xlink:href="#DejaVuSans-45"/>
     <use x="418.310547" xlink:href="#DejaVuSans-102"/>
     <use x="453.515625" xlink:href="#DejaVuSans-53"/>
    </g>
    <!-- 51 targets: 100..1e-08 -->
    <defs>
     <path d="M 11.71875 12.40625 
L 22.015625 12.40625 
L 22.015625 0 
L 11.71875 0 
z
M 11.71875 51.703125 
L 22.015625 51.703125 
L 22.015625 39.3125 
L 11.71875 39.3125 
z
" id="DejaVuSans-58"/>
    </defs>
    <g transform="translate(60.41088 25.583055)scale(0.102 -0.102)">
     <use xlink:href="#DejaVuSans-53"/>
     <use x="63.623047" xlink:href="#DejaVuSans-49"/>
     <use x="127.246094" xlink:href="#DejaVuSans-32"/>
     <use x="159.033203" xlink:href="#DejaVuSans-116"/>
     <use x="198.242188" xlink:href="#DejaVuSans-97"/>
     <use x="259.521484" xlink:href="#DejaVuSans-114"/>
     <use x="298.884766" xlink:href="#DejaVuSans-103"/>
     <use x="362.361328" xlink:href="#DejaVuSans-101"/>
     <use x="423.884766" xlink:href="#DejaVuSans-116"/>
     <use x="463.09375" xlink:href="#DejaVuSans-115"/>
     <use x="515.193359" xlink:href="#DejaVuSans-58"/>
     <use x="548.884766" xlink:href="#DejaVuSans-32"/>
     <use x="580.671875" xlink:href="#DejaVuSans-49"/>
     <use x="644.294922" xlink:href="#DejaVuSans-48"/>
     <use x="707.917969" xlink:href="#DejaVuSans-48"/>
     <use x="771.541016" xlink:href="#DejaVuSans-46"/>
     <use x="803.328125" xlink:href="#DejaVuSans-46"/>
     <use x="835.115234" xlink:href="#DejaVuSans-49"/>
     <use x="898.738281" xlink:href="#DejaVuSans-101"/>
     <use x="960.261719" xlink:href="#DejaVuSans-45"/>
     <use x="996.345703" xlink:href="#DejaVuSans-48"/>
     <use x="1059.96875" xlink:href="#DejaVuSans-56"/>
    </g>
    <!-- 15 instances -->
    <g transform="translate(60.41088 37.004824)scale(0.102 -0.102)">
     <use xlink:href="#DejaVuSans-49"/>
     <use x="63.623047" xlink:href="#DejaVuSans-53"/>
     <use x="127.246094" xlink:href="#DejaVuSans-32"/>
     <use x="159.033203" xlink:href="#DejaVuSans-105"/>
     <use x="186.816406" xlink:href="#DejaVuSans-110"/>
     <use x="250.195312" xlink:href="#DejaVuSans-115"/>
     <use x="302.294922" xlink:href="#DejaVuSans-116"/>
     <use x="341.503906" xlink:href="#DejaVuSans-97"/>
     <use x="402.783203" xlink:href="#DejaVuSans-110"/>
     <use x="466.162109" xlink:href="#DejaVuSans-99"/>
     <use x="521.142578" xlink:href="#DejaVuSans-101"/>
     <use x="582.666016" xlink:href="#DejaVuSans-115"/>
    </g>
   </g>
   <g id="text_16">
    <!-- v2.3.3.5 -->
    <g style="fill:#808080;" transform="translate(177.692437 293.909432)scale(0.1 -0.1)">
     <use xlink:href="#DejaVuSans-118"/>
     <use x="59.179688" xlink:href="#DejaVuSans-50"/>
     <use x="122.802734" xlink:href="#DejaVuSans-46"/>
     <use x="154.589844" xlink:href="#DejaVuSans-51"/>
     <use x="218.212891" xlink:href="#DejaVuSans-46"/>
     <use x="250" xlink:href="#DejaVuSans-51"/>
     <use x="313.623047" xlink:href="#DejaVuSans-46"/>
     <use x="345.410156" xlink:href="#DejaVuSans-53"/>
    </g>
   </g>
  </g>
 </g>
 <defs>
  <clipPath id="p601816c486">
   <rect height="295.488" width="281.088" x="57.6" y="3.456"/>
  </clipPath>
 </defs>
</svg>
