<?xml version="1.0" encoding="utf-8" standalone="no"?>
<!DOCTYPE svg PUBLIC "-//W3C//DTD SVG 1.1//EN"
  "http://www.w3.org/Graphics/SVG/1.1/DTD/svg11.dtd">
<!-- Created with matplotlib (https://matplotlib.org/) -->
<svg height="345.6pt" version="1.1" viewBox="0 0 460.8 345.6" width="460.8pt" xmlns="http://www.w3.org/2000/svg" xmlns:xlink="http://www.w3.org/1999/xlink">
 <defs>
  <style type="text/css">
*{stroke-linecap:butt;stroke-linejoin:round;}
  </style>
 </defs>
 <g id="figure_1">
  <g id="patch_1">
   <path d="M 0 345.6 
L 460.8 345.6 
L 460.8 0 
L 0 0 
z
" style="fill:#ffffff;"/>
  </g>
  <g id="axes_1">
   <g id="patch_2">
    <path d="M 57.6 298.944 
L 338.688 298.944 
L 338.688 3.456 
L 57.6 3.456 
z
" style="fill:#ffffff;"/>
   </g>
   <g id="matplotlib.axis_1">
    <g id="xtick_1">
     <g id="line2d_1">
      <path clip-path="url(#pb31a61541e)" d="M 57.6 298.944 
L 57.6 3.456 
" style="fill:none;stroke:#b0b0b0;stroke-linecap:square;stroke-width:0.8;"/>
     </g>
     <g id="line2d_2">
      <defs>
       <path d="M 0 0 
L 0 3.5 
" id="m00f722f334" style="stroke:#000000;stroke-width:0.8;"/>
      </defs>
      <g>
       <use style="stroke:#000000;stroke-width:0.8;" x="57.6" xlink:href="#m00f722f334" y="298.944"/>
      </g>
     </g>
     <g id="text_1">
      <!-- 0 -->
      <defs>
       <path d="M 31.78125 66.40625 
Q 24.171875 66.40625 20.328125 58.90625 
Q 16.5 51.421875 16.5 36.375 
Q 16.5 21.390625 20.328125 13.890625 
Q 24.171875 6.390625 31.78125 6.390625 
Q 39.453125 6.390625 43.28125 13.890625 
Q 47.125 21.390625 47.125 36.375 
Q 47.125 51.421875 43.28125 58.90625 
Q 39.453125 66.40625 31.78125 66.40625 
z
M 31.78125 74.21875 
Q 44.046875 74.21875 50.515625 64.515625 
Q 56.984375 54.828125 56.984375 36.375 
Q 56.984375 17.96875 50.515625 8.265625 
Q 44.046875 -1.421875 31.78125 -1.421875 
Q 19.53125 -1.421875 13.0625 8.265625 
Q 6.59375 17.96875 6.59375 36.375 
Q 6.59375 54.828125 13.0625 64.515625 
Q 19.53125 74.21875 31.78125 74.21875 
z
" id="DejaVuSans-48"/>
      </defs>
      <g transform="translate(51.2375 321.140875)scale(0.2 -0.2)">
       <use xlink:href="#DejaVuSans-48"/>
      </g>
     </g>
    </g>
    <g id="xtick_2">
     <g id="line2d_3">
      <path clip-path="url(#pb31a61541e)" d="M 137.910857 298.944 
L 137.910857 3.456 
" style="fill:none;stroke:#b0b0b0;stroke-linecap:square;stroke-width:0.8;"/>
     </g>
     <g id="line2d_4">
      <g>
       <use style="stroke:#000000;stroke-width:0.8;" x="137.910857" xlink:href="#m00f722f334" y="298.944"/>
      </g>
     </g>
     <g id="text_2">
      <!-- 2 -->
      <defs>
       <path d="M 19.1875 8.296875 
L 53.609375 8.296875 
L 53.609375 0 
L 7.328125 0 
L 7.328125 8.296875 
Q 12.9375 14.109375 22.625 23.890625 
Q 32.328125 33.6875 34.8125 36.53125 
Q 39.546875 41.84375 41.421875 45.53125 
Q 43.3125 49.21875 43.3125 52.78125 
Q 43.3125 58.59375 39.234375 62.25 
Q 35.15625 65.921875 28.609375 65.921875 
Q 23.96875 65.921875 18.8125 64.3125 
Q 13.671875 62.703125 7.8125 59.421875 
L 7.8125 69.390625 
Q 13.765625 71.78125 18.9375 73 
Q 24.125 74.21875 28.421875 74.21875 
Q 39.75 74.21875 46.484375 68.546875 
Q 53.21875 62.890625 53.21875 53.421875 
Q 53.21875 48.921875 51.53125 44.890625 
Q 49.859375 40.875 45.40625 35.40625 
Q 44.1875 33.984375 37.640625 27.21875 
Q 31.109375 20.453125 19.1875 8.296875 
z
" id="DejaVuSans-50"/>
      </defs>
      <g transform="translate(131.548357 321.140875)scale(0.2 -0.2)">
       <use xlink:href="#DejaVuSans-50"/>
      </g>
     </g>
    </g>
    <g id="xtick_3">
     <g id="line2d_5">
      <path clip-path="url(#pb31a61541e)" d="M 218.221714 298.944 
L 218.221714 3.456 
" style="fill:none;stroke:#b0b0b0;stroke-linecap:square;stroke-width:0.8;"/>
     </g>
     <g id="line2d_6">
      <g>
       <use style="stroke:#000000;stroke-width:0.8;" x="218.221714" xlink:href="#m00f722f334" y="298.944"/>
      </g>
     </g>
     <g id="text_3">
      <!-- 4 -->
      <defs>
       <path d="M 37.796875 64.3125 
L 12.890625 25.390625 
L 37.796875 25.390625 
z
M 35.203125 72.90625 
L 47.609375 72.90625 
L 47.609375 25.390625 
L 58.015625 25.390625 
L 58.015625 17.1875 
L 47.609375 17.1875 
L 47.609375 0 
L 37.796875 0 
L 37.796875 17.1875 
L 4.890625 17.1875 
L 4.890625 26.703125 
z
" id="DejaVuSans-52"/>
      </defs>
      <g transform="translate(211.859214 321.140875)scale(0.2 -0.2)">
       <use xlink:href="#DejaVuSans-52"/>
      </g>
     </g>
    </g>
    <g id="xtick_4">
     <g id="line2d_7">
      <path clip-path="url(#pb31a61541e)" d="M 298.532571 298.944 
L 298.532571 3.456 
" style="fill:none;stroke:#b0b0b0;stroke-linecap:square;stroke-width:0.8;"/>
     </g>
     <g id="line2d_8">
      <g>
       <use style="stroke:#000000;stroke-width:0.8;" x="298.532571" xlink:href="#m00f722f334" y="298.944"/>
      </g>
     </g>
     <g id="text_4">
      <!-- 6 -->
      <defs>
       <path d="M 33.015625 40.375 
Q 26.375 40.375 22.484375 35.828125 
Q 18.609375 31.296875 18.609375 23.390625 
Q 18.609375 15.53125 22.484375 10.953125 
Q 26.375 6.390625 33.015625 6.390625 
Q 39.65625 6.390625 43.53125 10.953125 
Q 47.40625 15.53125 47.40625 23.390625 
Q 47.40625 31.296875 43.53125 35.828125 
Q 39.65625 40.375 33.015625 40.375 
z
M 52.59375 71.296875 
L 52.59375 62.3125 
Q 48.875 64.0625 45.09375 64.984375 
Q 41.3125 65.921875 37.59375 65.921875 
Q 27.828125 65.921875 22.671875 59.328125 
Q 17.53125 52.734375 16.796875 39.40625 
Q 19.671875 43.65625 24.015625 45.921875 
Q 28.375 48.1875 33.59375 48.1875 
Q 44.578125 48.1875 50.953125 41.515625 
Q 57.328125 34.859375 57.328125 23.390625 
Q 57.328125 12.15625 50.6875 5.359375 
Q 44.046875 -1.421875 33.015625 -1.421875 
Q 20.359375 -1.421875 13.671875 8.265625 
Q 6.984375 17.96875 6.984375 36.375 
Q 6.984375 53.65625 15.1875 63.9375 
Q 23.390625 74.21875 37.203125 74.21875 
Q 40.921875 74.21875 44.703125 73.484375 
Q 48.484375 72.75 52.59375 71.296875 
z
" id="DejaVuSans-54"/>
      </defs>
      <g transform="translate(292.170071 321.140875)scale(0.2 -0.2)">
       <use xlink:href="#DejaVuSans-54"/>
      </g>
     </g>
    </g>
    <g id="xtick_5">
     <g id="line2d_9">
      <path clip-path="url(#pb31a61541e)" d="M 97.755429 298.944 
L 97.755429 3.456 
" style="fill:none;stroke:#b0b0b0;stroke-linecap:square;stroke-width:0.8;"/>
     </g>
     <g id="line2d_10">
      <defs>
       <path d="M 0 0 
L 0 2 
" id="mea345ca596" style="stroke:#000000;stroke-width:0.6;"/>
      </defs>
      <g>
       <use style="stroke:#000000;stroke-width:0.6;" x="97.755429" xlink:href="#mea345ca596" y="298.944"/>
      </g>
     </g>
    </g>
    <g id="xtick_6">
     <g id="line2d_11">
      <path clip-path="url(#pb31a61541e)" d="M 178.066286 298.944 
L 178.066286 3.456 
" style="fill:none;stroke:#b0b0b0;stroke-linecap:square;stroke-width:0.8;"/>
     </g>
     <g id="line2d_12">
      <g>
       <use style="stroke:#000000;stroke-width:0.6;" x="178.066286" xlink:href="#mea345ca596" y="298.944"/>
      </g>
     </g>
    </g>
    <g id="xtick_7">
     <g id="line2d_13">
      <path clip-path="url(#pb31a61541e)" d="M 258.377143 298.944 
L 258.377143 3.456 
" style="fill:none;stroke:#b0b0b0;stroke-linecap:square;stroke-width:0.8;"/>
     </g>
     <g id="line2d_14">
      <g>
       <use style="stroke:#000000;stroke-width:0.6;" x="258.377143" xlink:href="#mea345ca596" y="298.944"/>
      </g>
     </g>
    </g>
    <g id="xtick_8">
     <g id="line2d_15">
      <path clip-path="url(#pb31a61541e)" d="M 338.688 298.944 
L 338.688 3.456 
" style="fill:none;stroke:#b0b0b0;stroke-linecap:square;stroke-width:0.8;"/>
     </g>
     <g id="line2d_16">
      <g>
       <use style="stroke:#000000;stroke-width:0.6;" x="338.688" xlink:href="#mea345ca596" y="298.944"/>
      </g>
     </g>
    </g>
    <g id="text_5">
     <!-- log10(# f-evals / dimension) -->
     <defs>
      <path d="M 9.421875 75.984375 
L 18.40625 75.984375 
L 18.40625 0 
L 9.421875 0 
z
" id="DejaVuSans-108"/>
      <path d="M 30.609375 48.390625 
Q 23.390625 48.390625 19.1875 42.75 
Q 14.984375 37.109375 14.984375 27.296875 
Q 14.984375 17.484375 19.15625 11.84375 
Q 23.34375 6.203125 30.609375 6.203125 
Q 37.796875 6.203125 41.984375 11.859375 
Q 46.1875 17.53125 46.1875 27.296875 
Q 46.1875 37.015625 41.984375 42.703125 
Q 37.796875 48.390625 30.609375 48.390625 
z
M 30.609375 56 
Q 42.328125 56 49.015625 48.375 
Q 55.71875 40.765625 55.71875 27.296875 
Q 55.71875 13.875 49.015625 6.21875 
Q 42.328125 -1.421875 30.609375 -1.421875 
Q 18.84375 -1.421875 12.171875 6.21875 
Q 5.515625 13.875 5.515625 27.296875 
Q 5.515625 40.765625 12.171875 48.375 
Q 18.84375 56 30.609375 56 
z
" id="DejaVuSans-111"/>
      <path d="M 45.40625 27.984375 
Q 45.40625 37.75 41.375 43.109375 
Q 37.359375 48.484375 30.078125 48.484375 
Q 22.859375 48.484375 18.828125 43.109375 
Q 14.796875 37.75 14.796875 27.984375 
Q 14.796875 18.265625 18.828125 12.890625 
Q 22.859375 7.515625 30.078125 7.515625 
Q 37.359375 7.515625 41.375 12.890625 
Q 45.40625 18.265625 45.40625 27.984375 
z
M 54.390625 6.78125 
Q 54.390625 -7.171875 48.1875 -13.984375 
Q 42 -20.796875 29.203125 -20.796875 
Q 24.46875 -20.796875 20.265625 -20.09375 
Q 16.0625 -19.390625 12.109375 -17.921875 
L 12.109375 -9.1875 
Q 16.0625 -11.328125 19.921875 -12.34375 
Q 23.78125 -13.375 27.78125 -13.375 
Q 36.625 -13.375 41.015625 -8.765625 
Q 45.40625 -4.15625 45.40625 5.171875 
L 45.40625 9.625 
Q 42.625 4.78125 38.28125 2.390625 
Q 33.9375 0 27.875 0 
Q 17.828125 0 11.671875 7.65625 
Q 5.515625 15.328125 5.515625 27.984375 
Q 5.515625 40.671875 11.671875 48.328125 
Q 17.828125 56 27.875 56 
Q 33.9375 56 38.28125 53.609375 
Q 42.625 51.21875 45.40625 46.390625 
L 45.40625 54.6875 
L 54.390625 54.6875 
z
" id="DejaVuSans-103"/>
      <path d="M 12.40625 8.296875 
L 28.515625 8.296875 
L 28.515625 63.921875 
L 10.984375 60.40625 
L 10.984375 69.390625 
L 28.421875 72.90625 
L 38.28125 72.90625 
L 38.28125 8.296875 
L 54.390625 8.296875 
L 54.390625 0 
L 12.40625 0 
z
" id="DejaVuSans-49"/>
      <path d="M 31 75.875 
Q 24.46875 64.65625 21.28125 53.65625 
Q 18.109375 42.671875 18.109375 31.390625 
Q 18.109375 20.125 21.3125 9.0625 
Q 24.515625 -2 31 -13.1875 
L 23.1875 -13.1875 
Q 15.875 -1.703125 12.234375 9.375 
Q 8.59375 20.453125 8.59375 31.390625 
Q 8.59375 42.28125 12.203125 53.3125 
Q 15.828125 64.359375 23.1875 75.875 
z
" id="DejaVuSans-40"/>
      <path d="M 51.125 44 
L 36.921875 44 
L 32.8125 27.6875 
L 47.125 27.6875 
z
M 43.796875 71.78125 
L 38.71875 51.515625 
L 52.984375 51.515625 
L 58.109375 71.78125 
L 65.921875 71.78125 
L 60.890625 51.515625 
L 76.125 51.515625 
L 76.125 44 
L 58.984375 44 
L 54.984375 27.6875 
L 70.515625 27.6875 
L 70.515625 20.21875 
L 53.078125 20.21875 
L 48 0 
L 40.1875 0 
L 45.21875 20.21875 
L 30.90625 20.21875 
L 25.875 0 
L 18.015625 0 
L 23.09375 20.21875 
L 7.71875 20.21875 
L 7.71875 27.6875 
L 24.90625 27.6875 
L 29 44 
L 13.28125 44 
L 13.28125 51.515625 
L 30.90625 51.515625 
L 35.890625 71.78125 
z
" id="DejaVuSans-35"/>
      <path id="DejaVuSans-32"/>
      <path d="M 37.109375 75.984375 
L 37.109375 68.5 
L 28.515625 68.5 
Q 23.6875 68.5 21.796875 66.546875 
Q 19.921875 64.59375 19.921875 59.515625 
L 19.921875 54.6875 
L 34.71875 54.6875 
L 34.71875 47.703125 
L 19.921875 47.703125 
L 19.921875 0 
L 10.890625 0 
L 10.890625 47.703125 
L 2.296875 47.703125 
L 2.296875 54.6875 
L 10.890625 54.6875 
L 10.890625 58.5 
Q 10.890625 67.625 15.140625 71.796875 
Q 19.390625 75.984375 28.609375 75.984375 
z
" id="DejaVuSans-102"/>
      <path d="M 4.890625 31.390625 
L 31.203125 31.390625 
L 31.203125 23.390625 
L 4.890625 23.390625 
z
" id="DejaVuSans-45"/>
      <path d="M 56.203125 29.59375 
L 56.203125 25.203125 
L 14.890625 25.203125 
Q 15.484375 15.921875 20.484375 11.0625 
Q 25.484375 6.203125 34.421875 6.203125 
Q 39.59375 6.203125 44.453125 7.46875 
Q 49.3125 8.734375 54.109375 11.28125 
L 54.109375 2.78125 
Q 49.265625 0.734375 44.1875 -0.34375 
Q 39.109375 -1.421875 33.890625 -1.421875 
Q 20.796875 -1.421875 13.15625 6.1875 
Q 5.515625 13.8125 5.515625 26.8125 
Q 5.515625 40.234375 12.765625 48.109375 
Q 20.015625 56 32.328125 56 
Q 43.359375 56 49.78125 48.890625 
Q 56.203125 41.796875 56.203125 29.59375 
z
M 47.21875 32.234375 
Q 47.125 39.59375 43.09375 43.984375 
Q 39.0625 48.390625 32.421875 48.390625 
Q 24.90625 48.390625 20.390625 44.140625 
Q 15.875 39.890625 15.1875 32.171875 
z
" id="DejaVuSans-101"/>
      <path d="M 2.984375 54.6875 
L 12.5 54.6875 
L 29.59375 8.796875 
L 46.6875 54.6875 
L 56.203125 54.6875 
L 35.6875 0 
L 23.484375 0 
z
" id="DejaVuSans-118"/>
      <path d="M 34.28125 27.484375 
Q 23.390625 27.484375 19.1875 25 
Q 14.984375 22.515625 14.984375 16.5 
Q 14.984375 11.71875 18.140625 8.90625 
Q 21.296875 6.109375 26.703125 6.109375 
Q 34.1875 6.109375 38.703125 11.40625 
Q 43.21875 16.703125 43.21875 25.484375 
L 43.21875 27.484375 
z
M 52.203125 31.203125 
L 52.203125 0 
L 43.21875 0 
L 43.21875 8.296875 
Q 40.140625 3.328125 35.546875 0.953125 
Q 30.953125 -1.421875 24.3125 -1.421875 
Q 15.921875 -1.421875 10.953125 3.296875 
Q 6 8.015625 6 15.921875 
Q 6 25.140625 12.171875 29.828125 
Q 18.359375 34.515625 30.609375 34.515625 
L 43.21875 34.515625 
L 43.21875 35.40625 
Q 43.21875 41.609375 39.140625 45 
Q 35.0625 48.390625 27.6875 48.390625 
Q 23 48.390625 18.546875 47.265625 
Q 14.109375 46.140625 10.015625 43.890625 
L 10.015625 52.203125 
Q 14.9375 54.109375 19.578125 55.046875 
Q 24.21875 56 28.609375 56 
Q 40.484375 56 46.34375 49.84375 
Q 52.203125 43.703125 52.203125 31.203125 
z
" id="DejaVuSans-97"/>
      <path d="M 44.28125 53.078125 
L 44.28125 44.578125 
Q 40.484375 46.53125 36.375 47.5 
Q 32.28125 48.484375 27.875 48.484375 
Q 21.1875 48.484375 17.84375 46.4375 
Q 14.5 44.390625 14.5 40.28125 
Q 14.5 37.15625 16.890625 35.375 
Q 19.28125 33.59375 26.515625 31.984375 
L 29.59375 31.296875 
Q 39.15625 29.25 43.1875 25.515625 
Q 47.21875 21.78125 47.21875 15.09375 
Q 47.21875 7.46875 41.1875 3.015625 
Q 35.15625 -1.421875 24.609375 -1.421875 
Q 20.21875 -1.421875 15.453125 -0.5625 
Q 10.6875 0.296875 5.421875 2 
L 5.421875 11.28125 
Q 10.40625 8.6875 15.234375 7.390625 
Q 20.0625 6.109375 24.8125 6.109375 
Q 31.15625 6.109375 34.5625 8.28125 
Q 37.984375 10.453125 37.984375 14.40625 
Q 37.984375 18.0625 35.515625 20.015625 
Q 33.0625 21.96875 24.703125 23.78125 
L 21.578125 24.515625 
Q 13.234375 26.265625 9.515625 29.90625 
Q 5.8125 33.546875 5.8125 39.890625 
Q 5.8125 47.609375 11.28125 51.796875 
Q 16.75 56 26.8125 56 
Q 31.78125 56 36.171875 55.265625 
Q 40.578125 54.546875 44.28125 53.078125 
z
" id="DejaVuSans-115"/>
      <path d="M 25.390625 72.90625 
L 33.6875 72.90625 
L 8.296875 -9.28125 
L 0 -9.28125 
z
" id="DejaVuSans-47"/>
      <path d="M 45.40625 46.390625 
L 45.40625 75.984375 
L 54.390625 75.984375 
L 54.390625 0 
L 45.40625 0 
L 45.40625 8.203125 
Q 42.578125 3.328125 38.25 0.953125 
Q 33.9375 -1.421875 27.875 -1.421875 
Q 17.96875 -1.421875 11.734375 6.484375 
Q 5.515625 14.40625 5.515625 27.296875 
Q 5.515625 40.1875 11.734375 48.09375 
Q 17.96875 56 27.875 56 
Q 33.9375 56 38.25 53.625 
Q 42.578125 51.265625 45.40625 46.390625 
z
M 14.796875 27.296875 
Q 14.796875 17.390625 18.875 11.75 
Q 22.953125 6.109375 30.078125 6.109375 
Q 37.203125 6.109375 41.296875 11.75 
Q 45.40625 17.390625 45.40625 27.296875 
Q 45.40625 37.203125 41.296875 42.84375 
Q 37.203125 48.484375 30.078125 48.484375 
Q 22.953125 48.484375 18.875 42.84375 
Q 14.796875 37.203125 14.796875 27.296875 
z
" id="DejaVuSans-100"/>
      <path d="M 9.421875 54.6875 
L 18.40625 54.6875 
L 18.40625 0 
L 9.421875 0 
z
M 9.421875 75.984375 
L 18.40625 75.984375 
L 18.40625 64.59375 
L 9.421875 64.59375 
z
" id="DejaVuSans-105"/>
      <path d="M 52 44.1875 
Q 55.375 50.25 60.0625 53.125 
Q 64.75 56 71.09375 56 
Q 79.640625 56 84.28125 50.015625 
Q 88.921875 44.046875 88.921875 33.015625 
L 88.921875 0 
L 79.890625 0 
L 79.890625 32.71875 
Q 79.890625 40.578125 77.09375 44.375 
Q 74.3125 48.1875 68.609375 48.1875 
Q 61.625 48.1875 57.5625 43.546875 
Q 53.515625 38.921875 53.515625 30.90625 
L 53.515625 0 
L 44.484375 0 
L 44.484375 32.71875 
Q 44.484375 40.625 41.703125 44.40625 
Q 38.921875 48.1875 33.109375 48.1875 
Q 26.21875 48.1875 22.15625 43.53125 
Q 18.109375 38.875 18.109375 30.90625 
L 18.109375 0 
L 9.078125 0 
L 9.078125 54.6875 
L 18.109375 54.6875 
L 18.109375 46.1875 
Q 21.1875 51.21875 25.484375 53.609375 
Q 29.78125 56 35.6875 56 
Q 41.65625 56 45.828125 52.96875 
Q 50 49.953125 52 44.1875 
z
" id="DejaVuSans-109"/>
      <path d="M 54.890625 33.015625 
L 54.890625 0 
L 45.90625 0 
L 45.90625 32.71875 
Q 45.90625 40.484375 42.875 44.328125 
Q 39.84375 48.1875 33.796875 48.1875 
Q 26.515625 48.1875 22.3125 43.546875 
Q 18.109375 38.921875 18.109375 30.90625 
L 18.109375 0 
L 9.078125 0 
L 9.078125 54.6875 
L 18.109375 54.6875 
L 18.109375 46.1875 
Q 21.34375 51.125 25.703125 53.5625 
Q 30.078125 56 35.796875 56 
Q 45.21875 56 50.046875 50.171875 
Q 54.890625 44.34375 54.890625 33.015625 
z
" id="DejaVuSans-110"/>
      <path d="M 8.015625 75.875 
L 15.828125 75.875 
Q 23.140625 64.359375 26.78125 53.3125 
Q 30.421875 42.28125 30.421875 31.390625 
Q 30.421875 20.453125 26.78125 9.375 
Q 23.140625 -1.703125 15.828125 -13.1875 
L 8.015625 -13.1875 
Q 14.5 -2 17.703125 9.0625 
Q 20.90625 20.125 20.90625 31.390625 
Q 20.90625 42.671875 17.703125 53.65625 
Q 14.5 64.65625 8.015625 75.875 
z
" id="DejaVuSans-41"/>
     </defs>
     <g transform="translate(77.764078 342.217594)scale(0.17 -0.17)">
      <use xlink:href="#DejaVuSans-108"/>
      <use x="27.783203" xlink:href="#DejaVuSans-111"/>
      <use x="88.964844" xlink:href="#DejaVuSans-103"/>
      <use x="152.441406" xlink:href="#DejaVuSans-49"/>
      <use x="216.064453" xlink:href="#DejaVuSans-48"/>
      <use x="279.6875" xlink:href="#DejaVuSans-40"/>
      <use x="318.701172" xlink:href="#DejaVuSans-35"/>
      <use x="402.490234" xlink:href="#DejaVuSans-32"/>
      <use x="434.277344" xlink:href="#DejaVuSans-102"/>
      <use x="463.982422" xlink:href="#DejaVuSans-45"/>
      <use x="500.066406" xlink:href="#DejaVuSans-101"/>
      <use x="561.589844" xlink:href="#DejaVuSans-118"/>
      <use x="620.769531" xlink:href="#DejaVuSans-97"/>
      <use x="682.048828" xlink:href="#DejaVuSans-108"/>
      <use x="709.832031" xlink:href="#DejaVuSans-115"/>
      <use x="761.931641" xlink:href="#DejaVuSans-32"/>
      <use x="793.71875" xlink:href="#DejaVuSans-47"/>
      <use x="827.410156" xlink:href="#DejaVuSans-32"/>
      <use x="859.197266" xlink:href="#DejaVuSans-100"/>
      <use x="922.673828" xlink:href="#DejaVuSans-105"/>
      <use x="950.457031" xlink:href="#DejaVuSans-109"/>
      <use x="1047.869141" xlink:href="#DejaVuSans-101"/>
      <use x="1109.392578" xlink:href="#DejaVuSans-110"/>
      <use x="1172.771484" xlink:href="#DejaVuSans-115"/>
      <use x="1224.871094" xlink:href="#DejaVuSans-105"/>
      <use x="1252.654297" xlink:href="#DejaVuSans-111"/>
      <use x="1313.835938" xlink:href="#DejaVuSans-110"/>
      <use x="1377.214844" xlink:href="#DejaVuSans-41"/>
     </g>
    </g>
   </g>
   <g id="matplotlib.axis_2">
    <g id="ytick_1">
     <g id="line2d_17">
      <path clip-path="url(#pb31a61541e)" d="M 57.6 298.944 
L 338.688 298.944 
" style="fill:none;stroke:#b0b0b0;stroke-linecap:square;stroke-width:0.8;"/>
     </g>
     <g id="line2d_18">
      <defs>
       <path d="M 0 0 
L -3.5 0 
" id="m5916145c29" style="stroke:#000000;stroke-width:0.8;"/>
      </defs>
      <g>
       <use style="stroke:#000000;stroke-width:0.8;" x="57.6" xlink:href="#m5916145c29" y="298.944"/>
      </g>
     </g>
     <g id="text_6">
      <!-- 0.0 -->
      <defs>
       <path d="M 10.6875 12.40625 
L 21 12.40625 
L 21 0 
L 10.6875 0 
z
" id="DejaVuSans-46"/>
      </defs>
      <g transform="translate(25.155 305.02275)scale(0.16 -0.16)">
       <use xlink:href="#DejaVuSans-48"/>
       <use x="63.623047" xlink:href="#DejaVuSans-46"/>
       <use x="95.410156" xlink:href="#DejaVuSans-48"/>
      </g>
     </g>
    </g>
    <g id="ytick_2">
     <g id="line2d_19">
      <path clip-path="url(#pb31a61541e)" d="M 57.6 240.431525 
L 338.688 240.431525 
" style="fill:none;stroke:#b0b0b0;stroke-linecap:square;stroke-width:0.8;"/>
     </g>
     <g id="line2d_20">
      <g>
       <use style="stroke:#000000;stroke-width:0.8;" x="57.6" xlink:href="#m5916145c29" y="240.431525"/>
      </g>
     </g>
     <g id="text_7">
      <!-- 0.2 -->
      <g transform="translate(25.155 246.510275)scale(0.16 -0.16)">
       <use xlink:href="#DejaVuSans-48"/>
       <use x="63.623047" xlink:href="#DejaVuSans-46"/>
       <use x="95.410156" xlink:href="#DejaVuSans-50"/>
      </g>
     </g>
    </g>
    <g id="ytick_3">
     <g id="line2d_21">
      <path clip-path="url(#pb31a61541e)" d="M 57.6 181.91905 
L 338.688 181.91905 
" style="fill:none;stroke:#b0b0b0;stroke-linecap:square;stroke-width:0.8;"/>
     </g>
     <g id="line2d_22">
      <g>
       <use style="stroke:#000000;stroke-width:0.8;" x="57.6" xlink:href="#m5916145c29" y="181.91905"/>
      </g>
     </g>
     <g id="text_8">
      <!-- 0.4 -->
      <g transform="translate(25.155 187.9978)scale(0.16 -0.16)">
       <use xlink:href="#DejaVuSans-48"/>
       <use x="63.623047" xlink:href="#DejaVuSans-46"/>
       <use x="95.410156" xlink:href="#DejaVuSans-52"/>
      </g>
     </g>
    </g>
    <g id="ytick_4">
     <g id="line2d_23">
      <path clip-path="url(#pb31a61541e)" d="M 57.6 123.406574 
L 338.688 123.406574 
" style="fill:none;stroke:#b0b0b0;stroke-linecap:square;stroke-width:0.8;"/>
     </g>
     <g id="line2d_24">
      <g>
       <use style="stroke:#000000;stroke-width:0.8;" x="57.6" xlink:href="#m5916145c29" y="123.406574"/>
      </g>
     </g>
     <g id="text_9">
      <!-- 0.6 -->
      <g transform="translate(25.155 129.485324)scale(0.16 -0.16)">
       <use xlink:href="#DejaVuSans-48"/>
       <use x="63.623047" xlink:href="#DejaVuSans-46"/>
       <use x="95.410156" xlink:href="#DejaVuSans-54"/>
      </g>
     </g>
    </g>
    <g id="ytick_5">
     <g id="line2d_25">
      <path clip-path="url(#pb31a61541e)" d="M 57.6 64.894099 
L 338.688 64.894099 
" style="fill:none;stroke:#b0b0b0;stroke-linecap:square;stroke-width:0.8;"/>
     </g>
     <g id="line2d_26">
      <g>
       <use style="stroke:#000000;stroke-width:0.8;" x="57.6" xlink:href="#m5916145c29" y="64.894099"/>
      </g>
     </g>
     <g id="text_10">
      <!-- 0.8 -->
      <defs>
       <path d="M 31.78125 34.625 
Q 24.75 34.625 20.71875 30.859375 
Q 16.703125 27.09375 16.703125 20.515625 
Q 16.703125 13.921875 20.71875 10.15625 
Q 24.75 6.390625 31.78125 6.390625 
Q 38.8125 6.390625 42.859375 10.171875 
Q 46.921875 13.96875 46.921875 20.515625 
Q 46.921875 27.09375 42.890625 30.859375 
Q 38.875 34.625 31.78125 34.625 
z
M 21.921875 38.8125 
Q 15.578125 40.375 12.03125 44.71875 
Q 8.5 49.078125 8.5 55.328125 
Q 8.5 64.0625 14.71875 69.140625 
Q 20.953125 74.21875 31.78125 74.21875 
Q 42.671875 74.21875 48.875 69.140625 
Q 55.078125 64.0625 55.078125 55.328125 
Q 55.078125 49.078125 51.53125 44.71875 
Q 48 40.375 41.703125 38.8125 
Q 48.828125 37.15625 52.796875 32.3125 
Q 56.78125 27.484375 56.78125 20.515625 
Q 56.78125 9.90625 50.3125 4.234375 
Q 43.84375 -1.421875 31.78125 -1.421875 
Q 19.734375 -1.421875 13.25 4.234375 
Q 6.78125 9.90625 6.78125 20.515625 
Q 6.78125 27.484375 10.78125 32.3125 
Q 14.796875 37.15625 21.921875 38.8125 
z
M 18.3125 54.390625 
Q 18.3125 48.734375 21.84375 45.5625 
Q 25.390625 42.390625 31.78125 42.390625 
Q 38.140625 42.390625 41.71875 45.5625 
Q 45.3125 48.734375 45.3125 54.390625 
Q 45.3125 60.0625 41.71875 63.234375 
Q 38.140625 66.40625 31.78125 66.40625 
Q 25.390625 66.40625 21.84375 63.234375 
Q 18.3125 60.0625 18.3125 54.390625 
z
" id="DejaVuSans-56"/>
      </defs>
      <g transform="translate(25.155 70.972849)scale(0.16 -0.16)">
       <use xlink:href="#DejaVuSans-48"/>
       <use x="63.623047" xlink:href="#DejaVuSans-46"/>
       <use x="95.410156" xlink:href="#DejaVuSans-56"/>
      </g>
     </g>
    </g>
    <g id="ytick_6">
     <g id="line2d_27">
      <path clip-path="url(#pb31a61541e)" d="M 57.6 6.381624 
L 338.688 6.381624 
" style="fill:none;stroke:#b0b0b0;stroke-linecap:square;stroke-width:0.8;"/>
     </g>
     <g id="line2d_28">
      <g>
       <use style="stroke:#000000;stroke-width:0.8;" x="57.6" xlink:href="#m5916145c29" y="6.381624"/>
      </g>
     </g>
     <g id="text_11">
      <!-- 1.0 -->
      <g transform="translate(25.155 12.460374)scale(0.16 -0.16)">
       <use xlink:href="#DejaVuSans-49"/>
       <use x="63.623047" xlink:href="#DejaVuSans-46"/>
       <use x="95.410156" xlink:href="#DejaVuSans-48"/>
      </g>
     </g>
    </g>
    <g id="text_12">
     <!-- Fraction of function,target pairs -->
     <defs>
      <path d="M 9.8125 72.90625 
L 51.703125 72.90625 
L 51.703125 64.59375 
L 19.671875 64.59375 
L 19.671875 43.109375 
L 48.578125 43.109375 
L 48.578125 34.8125 
L 19.671875 34.8125 
L 19.671875 0 
L 9.8125 0 
z
" id="DejaVuSans-70"/>
      <path d="M 41.109375 46.296875 
Q 39.59375 47.171875 37.8125 47.578125 
Q 36.03125 48 33.890625 48 
Q 26.265625 48 22.1875 43.046875 
Q 18.109375 38.09375 18.109375 28.8125 
L 18.109375 0 
L 9.078125 0 
L 9.078125 54.6875 
L 18.109375 54.6875 
L 18.109375 46.1875 
Q 20.953125 51.171875 25.484375 53.578125 
Q 30.03125 56 36.53125 56 
Q 37.453125 56 38.578125 55.875 
Q 39.703125 55.765625 41.0625 55.515625 
z
" id="DejaVuSans-114"/>
      <path d="M 48.78125 52.59375 
L 48.78125 44.1875 
Q 44.96875 46.296875 41.140625 47.34375 
Q 37.3125 48.390625 33.40625 48.390625 
Q 24.65625 48.390625 19.8125 42.84375 
Q 14.984375 37.3125 14.984375 27.296875 
Q 14.984375 17.28125 19.8125 11.734375 
Q 24.65625 6.203125 33.40625 6.203125 
Q 37.3125 6.203125 41.140625 7.25 
Q 44.96875 8.296875 48.78125 10.40625 
L 48.78125 2.09375 
Q 45.015625 0.34375 40.984375 -0.53125 
Q 36.96875 -1.421875 32.421875 -1.421875 
Q 20.0625 -1.421875 12.78125 6.34375 
Q 5.515625 14.109375 5.515625 27.296875 
Q 5.515625 40.671875 12.859375 48.328125 
Q 20.21875 56 33.015625 56 
Q 37.15625 56 41.109375 55.140625 
Q 45.0625 54.296875 48.78125 52.59375 
z
" id="DejaVuSans-99"/>
      <path d="M 18.3125 70.21875 
L 18.3125 54.6875 
L 36.8125 54.6875 
L 36.8125 47.703125 
L 18.3125 47.703125 
L 18.3125 18.015625 
Q 18.3125 11.328125 20.140625 9.421875 
Q 21.96875 7.515625 27.59375 7.515625 
L 36.8125 7.515625 
L 36.8125 0 
L 27.59375 0 
Q 17.1875 0 13.234375 3.875 
Q 9.28125 7.765625 9.28125 18.015625 
L 9.28125 47.703125 
L 2.6875 47.703125 
L 2.6875 54.6875 
L 9.28125 54.6875 
L 9.28125 70.21875 
z
" id="DejaVuSans-116"/>
      <path d="M 8.5 21.578125 
L 8.5 54.6875 
L 17.484375 54.6875 
L 17.484375 21.921875 
Q 17.484375 14.15625 20.5 10.265625 
Q 23.53125 6.390625 29.59375 6.390625 
Q 36.859375 6.390625 41.078125 11.03125 
Q 45.3125 15.671875 45.3125 23.6875 
L 45.3125 54.6875 
L 54.296875 54.6875 
L 54.296875 0 
L 45.3125 0 
L 45.3125 8.40625 
Q 42.046875 3.421875 37.71875 1 
Q 33.40625 -1.421875 27.6875 -1.421875 
Q 18.265625 -1.421875 13.375 4.4375 
Q 8.5 10.296875 8.5 21.578125 
z
M 31.109375 56 
z
" id="DejaVuSans-117"/>
      <path d="M 11.71875 12.40625 
L 22.015625 12.40625 
L 22.015625 4 
L 14.015625 -11.625 
L 7.71875 -11.625 
L 11.71875 4 
z
" id="DejaVuSans-44"/>
      <path d="M 18.109375 8.203125 
L 18.109375 -20.796875 
L 9.078125 -20.796875 
L 9.078125 54.6875 
L 18.109375 54.6875 
L 18.109375 46.390625 
Q 20.953125 51.265625 25.265625 53.625 
Q 29.59375 56 35.59375 56 
Q 45.5625 56 51.78125 48.09375 
Q 58.015625 40.1875 58.015625 27.296875 
Q 58.015625 14.40625 51.78125 6.484375 
Q 45.5625 -1.421875 35.59375 -1.421875 
Q 29.59375 -1.421875 25.265625 0.953125 
Q 20.953125 3.328125 18.109375 8.203125 
z
M 48.6875 27.296875 
Q 48.6875 37.203125 44.609375 42.84375 
Q 40.53125 48.484375 33.40625 48.484375 
Q 26.265625 48.484375 22.1875 42.84375 
Q 18.109375 37.203125 18.109375 27.296875 
Q 18.109375 17.390625 22.1875 11.75 
Q 26.265625 6.109375 33.40625 6.109375 
Q 40.53125 6.109375 44.609375 11.75 
Q 48.6875 17.390625 48.6875 27.296875 
z
" id="DejaVuSans-112"/>
     </defs>
     <g transform="translate(17.619531 285.585)rotate(-90)scale(0.17 -0.17)">
      <use xlink:href="#DejaVuSans-70"/>
      <use x="50.269531" xlink:href="#DejaVuSans-114"/>
      <use x="91.382812" xlink:href="#DejaVuSans-97"/>
      <use x="152.662109" xlink:href="#DejaVuSans-99"/>
      <use x="207.642578" xlink:href="#DejaVuSans-116"/>
      <use x="246.851562" xlink:href="#DejaVuSans-105"/>
      <use x="274.634766" xlink:href="#DejaVuSans-111"/>
      <use x="335.816406" xlink:href="#DejaVuSans-110"/>
      <use x="399.195312" xlink:href="#DejaVuSans-32"/>
      <use x="430.982422" xlink:href="#DejaVuSans-111"/>
      <use x="492.164062" xlink:href="#DejaVuSans-102"/>
      <use x="527.369141" xlink:href="#DejaVuSans-32"/>
      <use x="559.15625" xlink:href="#DejaVuSans-102"/>
      <use x="594.361328" xlink:href="#DejaVuSans-117"/>
      <use x="657.740234" xlink:href="#DejaVuSans-110"/>
      <use x="721.119141" xlink:href="#DejaVuSans-99"/>
      <use x="776.099609" xlink:href="#DejaVuSans-116"/>
      <use x="815.308594" xlink:href="#DejaVuSans-105"/>
      <use x="843.091797" xlink:href="#DejaVuSans-111"/>
      <use x="904.273438" xlink:href="#DejaVuSans-110"/>
      <use x="967.652344" xlink:href="#DejaVuSans-44"/>
      <use x="999.439453" xlink:href="#DejaVuSans-116"/>
      <use x="1038.648438" xlink:href="#DejaVuSans-97"/>
      <use x="1099.927734" xlink:href="#DejaVuSans-114"/>
      <use x="1139.291016" xlink:href="#DejaVuSans-103"/>
      <use x="1202.767578" xlink:href="#DejaVuSans-101"/>
      <use x="1264.291016" xlink:href="#DejaVuSans-116"/>
      <use x="1303.5" xlink:href="#DejaVuSans-32"/>
      <use x="1335.287109" xlink:href="#DejaVuSans-112"/>
      <use x="1398.763672" xlink:href="#DejaVuSans-97"/>
      <use x="1460.042969" xlink:href="#DejaVuSans-105"/>
      <use x="1487.826172" xlink:href="#DejaVuSans-114"/>
      <use x="1528.939453" xlink:href="#DejaVuSans-115"/>
     </g>
    </g>
   </g>
   <g id="line2d_29">
    <defs>
     <path d="M 0 1.5 
C 0.397805 1.5 0.77937 1.341951 1.06066 1.06066 
C 1.341951 0.77937 1.5 0.397805 1.5 0 
C 1.5 -0.397805 1.341951 -0.77937 1.06066 -1.06066 
C 0.77937 -1.341951 0.397805 -1.5 0 -1.5 
C -0.397805 -1.5 -0.77937 -1.341951 -1.06066 -1.06066 
C -1.341951 -0.77937 -1.5 -0.397805 -1.5 0 
C -1.5 0.397805 -1.341951 0.77937 -1.06066 1.06066 
C -0.77937 1.341951 -0.397805 1.5 0 1.5 
z
" id="mf057d9fae1" style="stroke:#000080;"/>
    </defs>
    <g>
     <use style="fill:#000080;stroke:#000080;" x="207.933777" xlink:href="#mf057d9fae1" y="224.369277"/>
     <use style="fill:#000080;stroke:#000080;" x="207.933777" xlink:href="#mf057d9fae1" y="224.369277"/>
    </g>
   </g>
   <g id="line2d_30">
    <path d="M 103.203018 298.944 
L 103.203018 297.796697 
L 103.623262 297.796697 
L 103.623262 295.50209 
L 104.033617 295.50209 
L 104.033617 278.292538 
L 104.434538 278.292538 
L 104.434538 269.114111 
L 104.826449 269.114111 
L 104.826449 266.819504 
L 105.584798 266.819504 
L 105.584798 259.362031 
L 107.347841 259.362031 
L 107.347841 258.78838 
L 110.131676 258.78838 
L 110.131676 258.214728 
L 116.522527 258.214728 
L 116.522527 257.067425 
L 117.857331 257.067425 
L 117.857331 256.493773 
L 118.039942 256.493773 
L 118.039942 255.920121 
L 118.751849 255.920121 
L 118.751849 255.346469 
L 119.43583 255.346469 
L 119.43583 254.772818 
L 119.602714 254.772818 
L 119.602714 253.625514 
L 119.768017 253.625514 
L 119.768017 252.478211 
L 120.093994 252.478211 
L 120.093994 251.330907 
L 120.254726 251.330907 
L 120.254726 250.757256 
L 120.41399 250.757256 
L 120.41399 250.183604 
L 120.571812 250.183604 
L 120.571812 249.036301 
L 121.489881 249.036301 
L 121.489881 248.462649 
L 127.902737 248.462649 
L 127.902737 247.888997 
L 132.971225 247.888997 
L 132.971225 246.741694 
L 133.124876 246.741694 
L 133.124876 246.168042 
L 133.873458 246.168042 
L 133.873458 245.59439 
L 138.761723 245.59439 
L 138.761723 245.020738 
L 139.090775 245.020738 
L 139.090775 243.873435 
L 139.520072 243.873435 
L 139.520072 243.299783 
L 139.783113 243.299783 
L 139.783113 242.726132 
L 140.348205 242.726132 
L 140.348205 242.15248 
L 140.39868 242.15248 
L 140.39868 241.578828 
L 146.538004 241.578828 
L 146.538004 241.005176 
L 147.130404 241.005176 
L 147.130404 240.431525 
L 147.536775 240.431525 
L 147.536775 239.857873 
L 149.043029 239.857873 
L 149.043029 239.284221 
L 149.073705 239.284221 
L 149.073705 238.71057 
L 150.932558 238.71057 
L 150.932558 238.136918 
L 151.069768 238.136918 
L 151.069768 237.563266 
L 153.585377 237.563266 
L 153.585377 236.989614 
L 154.281186 236.989614 
L 154.281186 236.415963 
L 154.484627 236.415963 
L 154.484627 235.842311 
L 154.81851 235.842311 
L 154.81851 235.268659 
L 156.175347 235.268659 
L 156.175347 234.695008 
L 161.70483 234.695008 
L 161.70483 234.121356 
L 164.269589 234.121356 
L 164.269589 233.547704 
L 165.98992 233.547704 
L 165.98992 232.974052 
L 166.02474 232.974052 
L 166.02474 232.400401 
L 175.156681 232.400401 
L 175.156681 231.826749 
L 175.651014 231.826749 
L 175.651014 231.253097 
L 176.54887 231.253097 
L 176.54887 230.679446 
L 179.19724 230.679446 
L 179.19724 230.105794 
L 181.207046 230.105794 
L 181.207046 229.532142 
L 181.462482 229.532142 
L 181.462482 228.95849 
L 181.54839 228.95849 
L 181.54839 228.384839 
L 181.906518 228.384839 
L 181.906518 227.811187 
L 184.417324 227.811187 
L 184.417324 227.237535 
L 188.969763 227.237535 
L 188.969763 226.663884 
L 198.009597 226.663884 
L 198.009597 226.090232 
L 199.588346 226.090232 
L 199.588346 225.51658 
L 204.602353 225.51658 
L 204.602353 224.942928 
L 207.933777 224.942928 
L 207.933777 224.369277 
L 338.688 224.369277 
" style="fill:none;stroke:#000080;stroke-linecap:square;stroke-width:1.5;"/>
   </g>
   <g id="line2d_31">
    <defs>
     <path d="M 0 6 
C 1.591219 6 3.117479 5.367802 4.242641 4.242641 
C 5.367802 3.117479 6 1.591219 6 0 
C 6 -1.591219 5.367802 -3.117479 4.242641 -4.242641 
C 3.117479 -5.367802 1.591219 -6 0 -6 
C -1.591219 -6 -3.117479 -5.367802 -4.242641 -4.242641 
C -5.367802 -3.117479 -6 -1.591219 -6 0 
C -6 1.591219 -5.367802 3.117479 -4.242641 4.242641 
C -3.117479 5.367802 -1.591219 6 0 6 
z
" id="m694eae8c40" style="stroke:#000080;stroke-width:1.5;"/>
    </defs>
    <g>
     <use style="fill-opacity:0;stroke:#000080;stroke-width:1.5;" x="104.033617" xlink:href="#m694eae8c40" y="278.292538"/>
     <use style="fill-opacity:0;stroke:#000080;stroke-width:1.5;" x="154.281186" xlink:href="#m694eae8c40" y="236.415963"/>
     <use style="fill-opacity:0;stroke:#000080;stroke-width:1.5;" x="207.933777" xlink:href="#m694eae8c40" y="224.942928"/>
     <use style="fill-opacity:0;stroke:#000080;stroke-width:1.5;" x="207.933777" xlink:href="#m694eae8c40" y="224.369277"/>
     <use style="fill-opacity:0;stroke:#000080;stroke-width:1.5;" x="338.688" xlink:href="#m694eae8c40" y="224.369277"/>
    </g>
   </g>
   <g id="line2d_32">
    <path style="fill:none;stroke:#000080;stroke-linecap:square;stroke-width:1.5;"/>
    <g/>
   </g>
   <g id="line2d_33">
    <path clip-path="url(#pb31a61541e)" d="M 159.115303 234.695008 
" style="fill:none;stroke:#000080;stroke-linecap:square;stroke-width:1.5;"/>
    <defs>
     <path d="M -12 12 
L 12 -12 
M -12 -12 
L 12 12 
" id="mf1dcc9c22a" style="stroke:#000080;"/>
    </defs>
    <g clip-path="url(#pb31a61541e)">
     <use style="fill:#000080;stroke:#000080;" x="159.115303" xlink:href="#mf1dcc9c22a" y="234.695008"/>
    </g>
   </g>
   <g id="line2d_34">
    <defs>
     <path d="M 0 1.5 
C 0.397805 1.5 0.77937 1.341951 1.06066 1.06066 
C 1.341951 0.77937 1.5 0.397805 1.5 0 
C 1.5 -0.397805 1.341951 -0.77937 1.06066 -1.06066 
C 0.77937 -1.341951 0.397805 -1.5 0 -1.5 
C -0.397805 -1.5 -0.77937 -1.341951 -1.06066 -1.06066 
C -1.341951 -0.77937 -1.5 -0.397805 -1.5 0 
C -1.5 0.397805 -1.341951 0.77937 -1.06066 1.06066 
C -0.77937 1.341951 -0.397805 1.5 0 1.5 
z
" id="m706caad228" style="stroke:#ff00ff;"/>
    </defs>
    <g>
     <use style="fill:#ff00ff;stroke:#ff00ff;" x="194.976143" xlink:href="#m706caad228" y="6.381624"/>
     <use style="fill:#ff00ff;stroke:#ff00ff;" x="194.976143" xlink:href="#m706caad228" y="6.381624"/>
    </g>
   </g>
   <g id="line2d_35">
    <path d="M 38.440992 298.944 
L 38.440992 279.439842 
L 93.863965 279.439842 
L 93.863965 278.86619 
L 94.575872 278.86619 
L 94.575872 278.292538 
L 97.16421 278.292538 
L 97.16421 277.718886 
L 98.32726 277.718886 
L 98.32726 277.145235 
L 98.880934 277.145235 
L 98.880934 275.997931 
L 99.938184 275.997931 
L 99.938184 274.850628 
L 100.443706 274.850628 
L 100.443706 274.276976 
L 100.934985 274.276976 
L 100.934985 273.703324 
L 101.877879 273.703324 
L 101.877879 273.129673 
L 102.772397 273.129673 
L 102.772397 270.835066 
L 103.203018 270.835066 
L 103.203018 268.540459 
L 103.623262 268.540459 
L 103.623262 267.966807 
L 114.641021 267.966807 
L 114.641021 267.393156 
L 116.522527 267.393156 
L 116.522527 266.819504 
L 116.914437 266.819504 
L 116.914437 266.245852 
L 117.486268 266.245852 
L 117.486268 265.098549 
L 117.857331 265.098549 
L 117.857331 264.524897 
L 118.039942 264.524897 
L 118.039942 263.951245 
L 118.399528 263.951245 
L 118.399528 262.23029 
L 118.925375 262.23029 
L 118.925375 261.656638 
L 119.43583 261.656638 
L 119.43583 260.509335 
L 121.036887 260.509335 
L 121.036887 259.935683 
L 122.219665 259.935683 
L 122.219665 258.78838 
L 122.503236 258.78838 
L 122.503236 258.214728 
L 124.368753 258.214728 
L 124.368753 257.641076 
L 124.867052 257.641076 
L 124.867052 257.067425 
L 125.938745 257.067425 
L 125.938745 256.493773 
L 126.281824 256.493773 
L 126.281824 255.920121 
L 126.729009 255.920121 
L 126.839037 254.772818 
L 126.948374 254.772818 
L 126.948374 254.199166 
L 127.272333 254.199166 
L 127.272333 253.625514 
L 127.695124 253.625514 
L 127.695124 252.478211 
L 127.902737 252.478211 
L 127.902737 251.904559 
L 128.107907 251.904559 
L 128.107907 251.330907 
L 128.411207 251.330907 
L 128.511146 249.036301 
L 128.610515 249.036301 
L 128.709321 244.447087 
L 128.905271 244.447087 
L 129.002426 242.726132 
L 129.760775 242.726132 
L 129.760775 241.578828 
L 129.945319 241.578828 
L 130.036864 239.857873 
L 130.127931 239.857873 
L 130.127931 239.284221 
L 130.30865 239.284221 
L 130.30865 238.136918 
L 130.487516 238.136918 
L 130.487516 237.563266 
L 130.752422 237.563266 
L 130.752422 236.415963 
L 130.926816 236.415963 
L 130.926816 232.974052 
L 131.185181 232.974052 
L 131.185181 230.105794 
L 131.439773 230.105794 
L 131.439773 229.532142 
L 131.77355 229.532142 
L 131.856005 228.384839 
L 132.019755 228.384839 
L 132.101058 227.237535 
L 132.181982 227.237535 
L 132.181982 226.663884 
L 132.342714 226.663884 
L 132.342714 224.942928 
L 133.277185 224.942928 
L 133.277185 224.369277 
L 134.019394 224.369277 
L 134.019394 223.795625 
L 134.661403 223.795625 
L 134.661403 223.221973 
L 134.870259 223.221973 
L 134.870259 222.648321 
L 135.00812 222.648321 
L 135.00812 222.07467 
L 135.212889 222.07467 
L 135.280614 220.353715 
L 135.348078 220.353715 
L 135.348078 219.206411 
L 135.681535 219.206411 
L 135.747468 216.911804 
L 135.943785 216.911804 
L 135.943785 214.617197 
L 136.137916 214.617197 
L 136.137916 214.043546 
L 136.266147 214.043546 
L 136.266147 213.469894 
L 136.645276 213.469894 
L 136.645276 212.896242 
L 137.138292 212.896242 
L 137.138292 212.322591 
L 137.558536 212.322591 
L 137.558536 211.748939 
L 137.794206 211.748939 
L 137.852629 210.601635 
L 137.968891 210.601635 
L 137.968891 210.027984 
L 138.141844 210.027984 
L 138.141844 209.454332 
L 138.256201 209.454332 
L 138.256201 208.88068 
L 138.482688 208.88068 
L 138.482688 208.307029 
L 138.761723 208.307029 
L 138.761723 207.159725 
L 138.927025 207.159725 
L 138.981779 206.012422 
L 139.199094 206.012422 
L 139.199094 205.43877 
L 139.360321 205.43877 
L 139.360321 203.717815 
L 139.678372 203.717815 
L 139.730821 201.99686 
L 141.283115 201.99686 
L 141.283115 200.849556 
L 142.796538 200.849556 
L 142.796538 200.275904 
L 142.927826 200.275904 
L 142.927826 199.702253 
L 143.820164 199.702253 
L 143.820164 199.128601 
L 143.943994 199.128601 
L 143.943994 196.260342 
L 144.390658 196.260342 
L 144.390658 193.965736 
L 144.510517 193.965736 
L 144.510517 192.818432 
L 144.865226 192.818432 
L 144.94308 189.950174 
L 145.059213 189.950174 
L 145.136208 188.80287 
L 145.403044 188.80287 
L 145.403044 187.655567 
L 146.466968 187.655567 
L 146.466968 186.508263 
L 146.854132 186.508263 
L 146.854132 185.934612 
L 147.027314 185.934612 
L 147.130404 182.492701 
L 147.50327 182.492701 
L 147.50327 181.91905 
L 147.736463 181.91905 
L 147.736463 177.329836 
L 147.901141 177.329836 
L 147.933891 171.593319 
L 148.129109 171.593319 
L 148.193699 168.151408 
L 148.354135 168.151408 
L 148.417899 164.135846 
L 148.576295 164.135846 
L 148.670646 161.841239 
L 148.888835 161.841239 
L 148.950676 158.972981 
L 149.104327 158.972981 
L 149.165411 157.825677 
L 149.226281 157.825677 
L 149.31719 155.53107 
L 149.407627 155.53107 
L 149.437669 153.810115 
L 151.975216 153.810115 
L 151.975216 153.236464 
L 152.662192 153.236464 
L 152.662192 152.662812 
L 152.909913 152.662812 
L 152.934492 149.220902 
L 153.081247 149.220902 
L 153.105587 147.499946 
L 153.226778 147.499946 
L 153.250915 143.484384 
L 153.371104 143.484384 
L 153.371104 142.910733 
L 153.49047 142.910733 
L 153.561699 138.895171 
L 153.609024 138.895171 
L 153.656221 137.174215 
L 153.750233 137.174215 
L 153.820412 134.305957 
L 153.983071 134.305957 
L 154.05232 132.585002 
L 154.212841 132.585002 
L 154.281186 129.143091 
L 154.326601 129.143091 
L 154.394502 125.701181 
L 154.46214 125.701181 
L 154.551917 119.391012 
L 154.596634 119.391012 
L 154.596634 118.817361 
L 154.707925 118.817361 
L 154.796449 117.096405 
L 156.478647 117.096405 
L 156.478647 116.522754 
L 157.185742 116.522754 
L 157.185742 115.949102 
L 157.641697 115.949102 
L 157.641697 115.37545 
L 157.883783 115.37545 
L 157.994392 108.49163 
L 158.231665 108.49163 
L 158.340096 105.049719 
L 158.465753 105.049719 
L 158.501489 101.607809 
L 158.608261 101.607809 
L 158.608261 101.034157 
L 161.238149 101.034157 
L 161.268637 99.886854 
L 161.867469 99.886854 
L 161.88218 98.73955 
L 161.984807 98.73955 
L 161.984807 98.165899 
L 162.115875 98.165899 
L 162.115875 97.592247 
L 162.245966 97.592247 
L 162.303474 95.871292 
L 162.375093 95.871292 
L 162.417924 94.150337 
L 162.489076 94.150337 
L 162.574077 93.003033 
L 163.006766 93.003033 
L 163.006766 92.429381 
L 163.669525 92.429381 
L 163.696049 91.282078 
L 163.814908 91.282078 
L 163.8937 90.134775 
L 164.076176 90.134775 
L 164.076176 89.561123 
L 164.282408 89.561123 
L 164.282408 88.987471 
L 164.612418 88.987471 
L 164.675172 87.840168 
L 164.812441 87.840168 
L 164.812441 87.266516 
L 165.193576 87.266516 
L 165.302685 85.545561 
L 165.363008 85.545561 
L 165.363008 84.971909 
L 165.53081 84.971909 
L 165.53081 83.824606 
L 165.93173 83.824606 
L 166.001534 81.529999 
L 166.094173 81.529999 
L 166.174831 79.809044 
L 166.209284 79.809044 
L 166.300829 78.66174 
L 166.369174 78.66174 
L 166.471192 75.21983 
L 166.505065 75.21983 
L 166.505065 74.072526 
L 166.628709 74.072526 
L 166.628709 72.925223 
L 166.829163 72.925223 
L 166.917519 71.77792 
L 167.016388 71.77792 
L 167.125588 70.630616 
L 167.449146 70.630616 
L 167.545055 69.483313 
L 167.59811 69.483313 
L 167.59811 68.909661 
L 167.724788 68.909661 
L 167.819196 67.188706 
L 168.191801 67.188706 
L 168.263336 66.041402 
L 168.48627 66.041402 
L 168.596677 64.320447 
L 168.626667 64.320447 
L 168.71633 63.173144 
L 168.854895 63.173144 
L 168.923766 62.02584 
L 169.011918 62.02584 
L 169.119057 59.157582 
L 169.138466 59.157582 
L 169.16754 58.010278 
L 169.254471 58.010278 
L 169.302579 55.715672 
L 169.512694 55.715672 
L 169.512694 55.14202 
L 169.710923 55.14202 
L 169.710923 54.568368 
L 169.823193 54.568368 
L 169.841835 53.421065 
L 170.464079 53.421065 
L 170.553741 51.126458 
L 170.634045 51.126458 
L 170.642945 48.258199 
L 170.793552 48.258199 
L 170.793552 47.684547 
L 170.934121 47.684547 
L 170.934121 47.110896 
L 171.099589 47.110896 
L 171.099589 46.537244 
L 171.357698 46.537244 
L 171.357698 45.963592 
L 172.109868 45.963592 
L 172.109868 45.389941 
L 172.305086 45.389941 
L 172.305086 44.816289 
L 172.425997 44.816289 
L 172.442055 43.668985 
L 172.62567 43.668985 
L 172.689086 42.521682 
L 173.072554 42.521682 
L 173.172891 41.374379 
L 173.280304 41.374379 
L 173.341388 40.227075 
L 173.785389 40.227075 
L 173.785389 39.653423 
L 173.970168 39.653423 
L 173.970168 39.079772 
L 174.505913 39.079772 
L 174.505913 38.50612 
L 174.640854 38.50612 
L 174.640854 37.932468 
L 175.018766 37.932468 
L 175.122305 36.211513 
L 175.136064 36.211513 
L 175.225232 34.490558 
L 175.273058 34.490558 
L 175.273058 33.916906 
L 175.537141 33.916906 
L 175.624287 32.769603 
L 176.099213 32.769603 
L 176.099213 32.195951 
L 176.453486 32.195951 
L 176.542527 30.474996 
L 177.576999 30.474996 
L 177.576999 29.901344 
L 177.773182 29.901344 
L 177.785001 28.754041 
L 177.943781 28.754041 
L 178.025547 27.033086 
L 178.130113 27.033086 
L 178.141693 25.885782 
L 178.297273 25.885782 
L 178.297273 25.31213 
L 178.491235 25.31213 
L 178.491235 24.738479 
L 178.654985 24.738479 
L 178.654985 24.164827 
L 179.531791 24.164827 
L 179.531791 23.591175 
L 179.995881 23.591175 
L 179.995881 23.017524 
L 180.295143 23.017524 
L 180.295143 22.443872 
L 181.090134 22.443872 
L 181.090134 21.87022 
L 181.207046 21.87022 
L 181.279719 20.722917 
L 181.337641 20.722917 
L 181.337641 20.149265 
L 181.812985 20.149265 
L 181.812985 19.575613 
L 182.197912 19.575613 
L 182.229991 18.42831 
L 182.384967 18.42831 
L 182.384967 17.854658 
L 182.815256 17.854658 
L 182.916789 16.707355 
L 183.061441 16.707355 
L 183.061441 16.133703 
L 184.848142 16.133703 
L 184.848142 15.560051 
L 184.965949 15.560051 
L 184.965949 14.9864 
L 185.210783 14.9864 
L 185.210783 14.412748 
L 185.341502 14.412748 
L 185.341502 13.839096 
L 185.6302 13.839096 
L 185.6302 13.265444 
L 185.825013 13.265444 
L 185.825013 12.691793 
L 186.418342 12.691793 
L 186.418342 12.118141 
L 186.887302 12.118141 
L 186.887302 11.544489 
L 187.106755 11.544489 
L 187.106755 10.970838 
L 187.90843 10.970838 
L 187.90843 10.397186 
L 188.154636 10.397186 
L 188.154636 9.823534 
L 188.541475 9.823534 
L 188.541475 9.249882 
L 190.107707 9.249882 
L 190.107707 8.676231 
L 190.382393 8.676231 
L 190.382393 8.102579 
L 190.58206 8.102579 
L 190.58206 7.528927 
L 191.715717 7.528927 
L 191.715717 6.955275 
L 194.976143 6.955275 
L 194.976143 6.381624 
L 338.688 6.381624 
L 338.688 6.381624 
" style="fill:none;stroke:#ff00ff;stroke-linecap:square;stroke-width:1.5;"/>
   </g>
   <g id="line2d_36">
    <defs>
     <path d="M -0 8.485281 
L 5.091169 0 
L 0 -8.485281 
L -5.091169 -0 
z
" id="ma79906f95e" style="stroke:#ff00ff;stroke-linejoin:miter;stroke-width:1.5;"/>
    </defs>
    <g>
     <use style="fill-opacity:0;stroke:#ff00ff;stroke-linejoin:miter;stroke-width:1.5;" x="103.623262" xlink:href="#ma79906f95e" y="268.540459"/>
     <use style="fill-opacity:0;stroke:#ff00ff;stroke-linejoin:miter;stroke-width:1.5;" x="148.576295" xlink:href="#ma79906f95e" y="164.135846"/>
     <use style="fill-opacity:0;stroke:#ff00ff;stroke-linejoin:miter;stroke-width:1.5;" x="176.542527" xlink:href="#ma79906f95e" y="31.048648"/>
     <use style="fill-opacity:0;stroke:#ff00ff;stroke-linejoin:miter;stroke-width:1.5;" x="194.976143" xlink:href="#ma79906f95e" y="6.381624"/>
     <use style="fill-opacity:0;stroke:#ff00ff;stroke-linejoin:miter;stroke-width:1.5;" x="194.976143" xlink:href="#ma79906f95e" y="6.381624"/>
     <use style="fill-opacity:0;stroke:#ff00ff;stroke-linejoin:miter;stroke-width:1.5;" x="338.688" xlink:href="#ma79906f95e" y="6.381624"/>
    </g>
   </g>
   <g id="line2d_37">
    <path style="fill:none;stroke:#ff00ff;stroke-linecap:square;stroke-width:1.5;"/>
    <g/>
   </g>
   <g id="line2d_38">
    <path clip-path="url(#pb31a61541e)" d="M 159.235515 101.034157 
" style="fill:none;stroke:#ff00ff;stroke-linecap:square;stroke-width:1.5;"/>
    <defs>
     <path d="M -12 12 
L 12 -12 
M -12 -12 
L 12 12 
" id="m05663d15f0" style="stroke:#ff00ff;"/>
    </defs>
    <g clip-path="url(#pb31a61541e)">
     <use style="fill:#ff00ff;stroke:#ff00ff;" x="159.235515" xlink:href="#m05663d15f0" y="101.034157"/>
    </g>
   </g>
   <g id="line2d_39">
    <defs>
     <path d="M 0 1.5 
C 0.397805 1.5 0.77937 1.341951 1.06066 1.06066 
C 1.341951 0.77937 1.5 0.397805 1.5 0 
C 1.5 -0.397805 1.341951 -0.77937 1.06066 -1.06066 
C 0.77937 -1.341951 0.397805 -1.5 0 -1.5 
C -0.397805 -1.5 -0.77937 -1.341951 -1.06066 -1.06066 
C -1.341951 -0.77937 -1.5 -0.397805 -1.5 0 
C -1.5 0.397805 -1.341951 0.77937 -1.06066 1.06066 
C -0.77937 1.341951 -0.397805 1.5 0 1.5 
z
" id="mfd1fd9306d" style="stroke:#ffa500;"/>
    </defs>
    <g>
     <use style="fill:#ffa500;stroke:#ffa500;" x="191.758187" xlink:href="#mfd1fd9306d" y="6.381624"/>
     <use style="fill:#ffa500;stroke:#ffa500;" x="191.758187" xlink:href="#mfd1fd9306d" y="6.381624"/>
    </g>
   </g>
   <g id="line2d_40">
    <path d="M 38.440992 298.944 
L 38.440992 288.044617 
L 98.32726 288.044617 
L 98.32726 286.897314 
L 99.41757 286.897314 
L 99.41757 285.176359 
L 101.877879 285.176359 
L 101.877879 284.029055 
L 102.330873 284.029055 
L 102.330873 283.455404 
L 102.772397 283.455404 
L 102.772397 282.3081 
L 103.203018 282.3081 
L 103.203018 280.013493 
L 103.623262 280.013493 
L 103.623262 278.292538 
L 104.033617 278.292538 
L 104.033617 277.718886 
L 104.434538 277.718886 
L 104.434538 275.997931 
L 104.826449 275.997931 
L 104.826449 274.850628 
L 105.209745 274.850628 
L 105.209745 271.982369 
L 106.66386 271.982369 
L 106.66386 271.408718 
L 110.415248 271.408718 
L 110.415248 270.835066 
L 114.193835 270.835066 
L 114.193835 270.261414 
L 114.418861 270.261414 
L 114.418861 269.687762 
L 115.291007 269.687762 
L 115.291007 269.114111 
L 115.917635 269.114111 
L 115.917635 268.540459 
L 116.121606 268.540459 
L 116.121606 263.377593 
L 117.297733 263.377593 
L 117.297733 262.803942 
L 117.857331 262.803942 
L 117.857331 262.23029 
L 118.399528 262.23029 
L 118.399528 260.509335 
L 118.751849 260.509335 
L 118.751849 259.935683 
L 119.097192 259.935683 
L 119.097192 259.362031 
L 119.267333 259.362031 
L 119.267333 257.641076 
L 119.602714 257.641076 
L 119.602714 257.067425 
L 119.931767 257.067425 
L 119.931767 255.920121 
L 120.093994 255.920121 
L 120.093994 255.346469 
L 120.41399 255.346469 
L 120.41399 254.772818 
L 121.340187 254.772818 
L 121.340187 254.199166 
L 121.489881 254.199166 
L 121.489881 253.625514 
L 122.219665 253.625514 
L 122.219665 253.051863 
L 122.643312 253.051863 
L 122.643312 251.904559 
L 122.782271 251.904559 
L 122.782271 251.330907 
L 122.920132 251.330907 
L 122.920132 250.757256 
L 123.192626 250.757256 
L 123.192626 250.183604 
L 123.327293 250.183604 
L 123.327293 249.609952 
L 123.460928 249.609952 
L 123.460928 248.462649 
L 123.985457 248.462649 
L 123.985457 246.741694 
L 124.368753 246.741694 
L 124.368753 246.168042 
L 124.989434 246.168042 
L 124.989434 245.59439 
L 125.351508 245.59439 
L 125.351508 245.020738 
L 125.706218 245.020738 
L 125.706218 244.447087 
L 125.938745 244.447087 
L 125.938745 243.873435 
L 126.618283 243.873435 
L 126.618283 243.299783 
L 132.501978 243.299783 
L 132.501978 242.726132 
L 134.307653 242.726132 
L 134.37898 241.578828 
L 134.450015 241.578828 
L 134.450015 241.005176 
L 134.661403 241.005176 
L 134.661403 240.431525 
L 134.800918 240.431525 
L 134.800918 239.284221 
L 135.00812 239.284221 
L 135.00812 238.136918 
L 135.144899 238.136918 
L 135.144899 237.563266 
L 135.280614 237.563266 
L 135.280614 236.415963 
L 135.681535 236.415963 
L 135.681535 234.695008 
L 135.813153 234.695008 
L 135.813153 234.121356 
L 135.943785 234.121356 
L 135.943785 233.547704 
L 136.073445 233.547704 
L 136.073445 232.974052 
L 136.266147 232.974052 
L 136.32991 231.826749 
L 136.519813 231.826749 
L 136.519813 230.679446 
L 136.645276 230.679446 
L 136.707671 229.532142 
L 136.831795 229.532142 
L 136.831795 225.51658 
L 136.955041 225.51658 
L 136.955041 224.942928 
L 137.077422 224.942928 
L 137.077422 224.369277 
L 137.198951 224.369277 
L 137.259399 223.221973 
L 137.319638 223.221973 
L 137.37967 219.206411 
L 137.439497 219.206411 
L 137.439497 218.632759 
L 137.558536 218.632759 
L 137.558536 215.764501 
L 137.852629 215.764501 
L 137.852629 211.748939 
L 137.968891 211.748939 
L 137.968891 211.175287 
L 138.199116 211.175287 
L 138.199116 207.733377 
L 138.313099 207.733377 
L 138.313099 207.159725 
L 138.426341 207.159725 
L 138.426341 206.012422 
L 138.538853 206.012422 
L 138.594838 203.717815 
L 138.650644 203.717815 
L 138.761723 199.128601 
L 138.872098 199.128601 
L 138.872098 196.260342 
L 139.090775 196.260342 
L 139.090775 195.113039 
L 139.253002 195.113039 
L 139.306744 193.392084 
L 139.466984 193.392084 
L 139.572998 190.523825 
L 139.625765 190.523825 
L 139.730821 188.229218 
L 139.990725 188.229218 
L 139.990725 184.787308 
L 140.144829 184.787308 
L 140.144829 183.066353 
L 140.549236 183.066353 
L 140.549236 182.492701 
L 141.187031 182.492701 
L 141.283115 181.345398 
L 141.568232 181.345398 
L 141.615302 179.624443 
L 141.709062 179.624443 
L 141.755753 178.477139 
L 141.987354 178.477139 
L 141.987354 177.329836 
L 142.575505 177.329836 
L 142.664255 176.182532 
L 142.796538 176.182532 
L 142.796538 175.608881 
L 143.058132 175.608881 
L 143.144465 169.872363 
L 143.273169 169.872363 
L 143.358447 167.577757 
L 143.40093 167.577757 
L 143.485587 165.856801 
L 143.569835 165.856801 
L 143.653678 163.562195 
L 143.737119 163.562195 
L 143.820164 158.399329 
L 143.861538 158.399329 
L 143.902815 156.104722 
L 144.107744 156.104722 
L 144.107744 153.810115 
L 144.510517 153.810115 
L 144.510517 150.368205 
L 144.708467 150.368205 
L 144.708467 149.794553 
L 144.904196 149.794553 
L 144.981877 145.778991 
L 145.888018 145.778991 
L 145.998045 144.058036 
L 146.179895 144.058036 
L 146.216039 140.042474 
L 146.359869 140.042474 
L 146.395642 138.321519 
L 146.538004 138.321519 
L 146.608752 132.585002 
L 146.679213 132.585002 
L 146.749392 131.437698 
L 146.958248 131.437698 
L 147.027314 127.422136 
L 147.266916 127.422136 
L 147.368603 126.274833 
L 147.436066 126.274833 
L 147.50327 124.553878 
L 147.603592 124.553878 
L 147.670154 123.406574 
L 148.607802 123.406574 
L 148.639252 122.259271 
L 148.733265 122.259271 
L 148.733265 121.685619 
L 152.309362 121.685619 
L 152.309362 121.111967 
L 152.736878 121.111967 
L 152.736878 120.538316 
L 153.514245 120.538316 
L 153.514245 119.964664 
L 155.804285 119.964664 
L 155.908152 118.243709 
L 158.340096 118.243709 
L 158.447857 117.096405 
L 158.537152 117.096405 
L 158.590511 115.949102 
L 158.661402 115.949102 
L 158.69674 113.654495 
L 158.802326 113.654495 
L 158.907277 110.786236 
L 159.028927 110.786236 
L 159.132527 107.917978 
L 159.201253 107.917978 
L 159.201253 103.328764 
L 159.405822 103.328764 
L 159.507213 101.034157 
L 159.658204 101.034157 
L 159.658204 100.460506 
L 159.857512 100.460506 
L 159.857512 99.886854 
L 160.329974 99.886854 
L 160.329974 99.313202 
L 160.505887 99.313202 
L 160.505887 98.165899 
L 160.94582 98.165899 
L 160.94582 97.592247 
L 161.719678 97.592247 
L 161.778945 96.444944 
L 161.940898 96.444944 
L 162.043181 95.29764 
L 162.130378 95.29764 
L 162.188268 94.150337 
L 162.616422 94.150337 
L 162.700806 91.85573 
L 162.812686 91.85573 
L 162.909996 87.840168 
L 162.9377 87.840168 
L 163.020547 85.545561 
L 163.089286 85.545561 
L 163.19871 83.250954 
L 163.266752 83.250954 
L 163.375071 80.382695 
L 163.589711 80.382695 
L 163.696049 78.088089 
L 163.748975 78.088089 
L 163.841212 76.367133 
L 163.8937 76.367133 
L 163.985177 74.072526 
L 164.024234 74.072526 
L 164.127963 68.909661 
L 164.153799 68.909661 
L 164.218222 67.188706 
L 164.282408 67.188706 
L 164.346358 64.320447 
L 164.486229 64.320447 
L 164.574657 62.599492 
L 164.75018 62.599492 
L 164.75018 62.02584 
L 164.960967 62.02584 
L 164.960967 61.452189 
L 165.083779 61.452189 
L 165.169236 60.304885 
L 165.242153 60.304885 
L 165.242153 59.157582 
L 165.363008 59.157582 
L 165.435121 57.436627 
L 165.494988 57.436627 
L 165.59035 53.994716 
L 165.732422 53.994716 
L 165.803027 52.273761 
L 165.849938 52.273761 
L 165.9084 51.126458 
L 166.001534 51.126458 
L 166.001534 50.552806 
L 166.425924 50.552806 
L 166.425924 49.979154 
L 166.628709 49.979154 
L 166.628709 49.405503 
L 167.08199 49.405503 
L 167.08199 48.831851 
L 169.654516 48.831851 
L 169.654516 48.258199 
L 170.491026 48.258199 
L 170.562682 47.110896 
L 170.607318 47.110896 
L 170.607318 46.537244 
L 171.030109 46.537244 
L 171.134225 45.389941 
L 171.151517 45.389941 
L 171.151517 44.816289 
L 171.434392 44.816289 
L 171.434392 43.668985 
L 172.401882 43.668985 
L 172.401882 43.095334 
L 172.538095 43.095334 
L 172.562023 41.94803 
L 173.057066 41.94803 
L 173.057066 41.374379 
L 173.265 41.374379 
L 173.371849 38.50612 
L 173.402258 38.50612 
L 173.440194 36.211513 
L 173.636143 36.211513 
L 173.703462 34.490558 
L 173.770522 34.490558 
L 173.866933 33.343255 
L 173.955458 33.343255 
L 173.999552 32.195951 
L 174.167555 32.195951 
L 174.247335 30.474996 
L 174.283479 30.474996 
L 174.283479 29.901344 
L 174.513041 29.901344 
L 174.534408 28.754041 
L 174.907643 28.754041 
L 174.949398 27.606737 
L 175.032607 27.606737 
L 175.032607 27.033086 
L 175.218389 27.033086 
L 175.218389 26.459434 
L 175.388663 26.459434 
L 175.490035 25.31213 
L 175.54386 25.31213 
L 175.637655 24.164827 
L 177.873391 24.164827 
L 177.873391 23.591175 
L 178.12432 23.591175 
L 178.199477 22.443872 
L 178.822779 22.443872 
L 178.822779 21.87022 
L 179.289612 21.87022 
L 179.338318 20.722917 
L 179.403048 20.722917 
L 179.499694 19.575613 
L 179.643667 19.575613 
L 179.738993 17.854658 
L 179.875772 17.854658 
L 179.875772 17.281006 
L 180.001085 17.281006 
L 180.021883 16.133703 
L 180.177084 16.133703 
L 180.177084 15.560051 
L 180.341123 15.560051 
L 180.341123 14.9864 
L 180.694668 14.9864 
L 180.694668 14.412748 
L 180.913283 14.412748 
L 180.913283 13.839096 
L 181.119435 13.839096 
L 181.119435 13.265444 
L 182.837379 13.265444 
L 182.907984 12.118141 
L 183.509622 12.118141 
L 183.509622 11.544489 
L 184.295739 11.544489 
L 184.299805 10.397186 
L 184.437506 10.397186 
L 184.437506 9.823534 
L 184.76916 9.823534 
L 184.76916 9.249882 
L 185.005042 9.249882 
L 185.005042 8.676231 
L 185.398861 8.676231 
L 185.398861 8.102579 
L 187.828904 8.102579 
L 187.828904 7.528927 
L 188.407055 7.528927 
L 188.407055 6.955275 
L 191.758187 6.955275 
L 191.758187 6.381624 
L 338.688 6.381624 
L 338.688 6.381624 
" style="fill:none;stroke:#ffa500;stroke-linecap:square;stroke-width:1.5;"/>
   </g>
   <g id="line2d_41">
    <defs>
     <path d="M 0 -6 
L -1.347084 -1.854102 
L -5.706339 -1.854102 
L -2.179628 0.708204 
L -3.526712 4.854102 
L -0 2.291796 
L 3.526712 4.854102 
L 2.179628 0.708204 
L 5.706339 -1.854102 
L 1.347084 -1.854102 
z
" id="m5d1b118053" style="stroke:#ffa500;stroke-linejoin:bevel;stroke-width:1.5;"/>
    </defs>
    <g>
     <use style="fill-opacity:0;stroke:#ffa500;stroke-linejoin:bevel;stroke-width:1.5;" x="135.00812" xlink:href="#m5d1b118053" y="239.284221"/>
     <use style="fill-opacity:0;stroke:#ffa500;stroke-linejoin:bevel;stroke-width:1.5;" x="163.020547" xlink:href="#m5d1b118053" y="85.545561"/>
     <use style="fill-opacity:0;stroke:#ffa500;stroke-linejoin:bevel;stroke-width:1.5;" x="191.758187" xlink:href="#m5d1b118053" y="6.955275"/>
     <use style="fill-opacity:0;stroke:#ffa500;stroke-linejoin:bevel;stroke-width:1.5;" x="191.758187" xlink:href="#m5d1b118053" y="6.381624"/>
     <use style="fill-opacity:0;stroke:#ffa500;stroke-linejoin:bevel;stroke-width:1.5;" x="191.758187" xlink:href="#m5d1b118053" y="6.381624"/>
     <use style="fill-opacity:0;stroke:#ffa500;stroke-linejoin:bevel;stroke-width:1.5;" x="338.688" xlink:href="#m5d1b118053" y="6.381624"/>
    </g>
   </g>
   <g id="line2d_42">
    <path style="fill:none;stroke:#ffa500;stroke-linecap:square;stroke-width:1.5;"/>
    <g/>
   </g>
   <g id="line2d_43">
    <path clip-path="url(#pb31a61541e)" d="M 158.67908 114.801798 
" style="fill:none;stroke:#ffa500;stroke-linecap:square;stroke-width:1.5;"/>
    <defs>
     <path d="M -12 12 
L 12 -12 
M -12 -12 
L 12 12 
" id="maf4e7d524b" style="stroke:#ffa500;"/>
    </defs>
    <g clip-path="url(#pb31a61541e)">
     <use style="fill:#ffa500;stroke:#ffa500;" x="158.67908" xlink:href="#maf4e7d524b" y="114.801798"/>
    </g>
   </g>
   <g id="line2d_44">
    <defs>
     <path d="M 0 1.5 
C 0.397805 1.5 0.77937 1.341951 1.06066 1.06066 
C 1.341951 0.77937 1.5 0.397805 1.5 0 
C 1.5 -0.397805 1.341951 -0.77937 1.06066 -1.06066 
C 0.77937 -1.341951 0.397805 -1.5 0 -1.5 
C -0.397805 -1.5 -0.77937 -1.341951 -1.06066 -1.06066 
C -1.341951 -0.77937 -1.5 -0.397805 -1.5 0 
C -1.5 0.397805 -1.341951 0.77937 -1.06066 1.06066 
C -0.77937 1.341951 -0.397805 1.5 0 1.5 
z
" id="m1fea6eaa85" style="stroke:#6495ed;"/>
    </defs>
    <g>
     <use style="fill:#6495ed;stroke:#6495ed;" x="216.669385" xlink:href="#m1fea6eaa85" y="121.111967"/>
     <use style="fill:#6495ed;stroke:#6495ed;" x="216.669385" xlink:href="#m1fea6eaa85" y="121.111967"/>
    </g>
   </g>
   <g id="line2d_45">
    <path d="M 38.440992 298.944 
L 38.440992 276.571583 
L 74.704957 276.571583 
L 74.704957 275.997931 
L 85.66744 275.997931 
L 85.66744 275.42428 
L 87.850195 275.42428 
L 87.850195 273.703324 
L 88.846997 273.703324 
L 88.846997 273.129673 
L 89.78989 273.129673 
L 89.78989 272.556021 
L 90.684409 272.556021 
L 90.684409 271.408718 
L 103.203018 271.408718 
L 103.203018 270.835066 
L 121.189196 270.835066 
L 121.189196 270.261414 
L 121.489881 270.261414 
L 121.489881 269.687762 
L 122.219665 269.687762 
L 122.219665 268.540459 
L 122.920132 268.540459 
L 122.920132 267.966807 
L 123.327293 267.966807 
L 123.327293 267.393156 
L 123.460928 267.393156 
L 123.460928 266.819504 
L 123.593547 266.819504 
L 123.593547 265.6722 
L 124.368753 265.6722 
L 124.368753 264.524897 
L 124.743806 264.524897 
L 124.743806 263.951245 
L 125.588781 263.951245 
L 125.588781 262.803942 
L 125.938745 262.803942 
L 125.938745 262.23029 
L 126.281824 262.23029 
L 126.281824 261.656638 
L 126.3947 261.656638 
L 126.3947 261.082987 
L 126.50685 261.082987 
L 126.50685 260.509335 
L 126.839037 260.509335 
L 126.948374 258.214728 
L 127.272333 258.214728 
L 127.378995 256.493773 
L 127.48501 256.493773 
L 127.590383 255.346469 
L 127.902737 255.346469 
L 128.005624 254.199166 
L 128.610515 254.199166 
L 128.610515 253.625514 
L 129.099042 253.625514 
L 129.195127 252.478211 
L 129.290685 252.478211 
L 129.290685 251.904559 
L 129.480244 251.904559 
L 129.480244 250.757256 
L 129.760775 250.757256 
L 129.760775 249.609952 
L 129.945319 249.609952 
L 130.036864 247.315345 
L 130.30865 247.315345 
L 130.30865 246.741694 
L 130.839837 246.741694 
L 130.926816 245.59439 
L 131.185181 245.59439 
L 131.185181 245.020738 
L 132.181982 245.020738 
L 132.181982 244.447087 
L 133.201197 244.447087 
L 133.201197 243.873435 
L 133.946579 243.873435 
L 133.946579 243.299783 
L 134.7313 243.299783 
L 134.7313 242.726132 
L 135.747468 242.726132 
L 135.747468 242.15248 
L 136.393441 242.15248 
L 136.393441 241.005176 
L 137.259399 241.005176 
L 137.319638 239.857873 
L 137.558536 239.857873 
L 137.558536 239.284221 
L 138.256201 239.284221 
L 138.313099 238.136918 
L 138.426341 238.136918 
L 138.426341 236.989614 
L 138.538853 236.989614 
L 138.538853 236.415963 
L 138.706272 236.415963 
L 138.706272 235.842311 
L 138.872098 235.842311 
L 138.981779 234.695008 
L 139.572998 234.695008 
L 139.572998 234.121356 
L 139.835248 234.121356 
L 139.939053 232.400401 
L 140.297583 232.400401 
L 140.297583 231.253097 
L 140.698504 231.253097 
L 140.698504 230.105794 
L 140.993259 230.105794 
L 141.090414 228.384839 
L 141.138789 228.384839 
L 141.235139 227.237535 
L 141.521035 227.237535 
L 141.615302 225.51658 
L 141.755753 225.51658 
L 141.848763 224.369277 
L 141.895083 224.369277 
L 141.895083 223.221973 
L 142.170445 223.221973 
L 142.170445 222.648321 
L 142.486301 222.648321 
L 142.486301 222.07467 
L 142.971369 222.07467 
L 142.971369 221.501018 
L 143.101352 221.501018 
L 143.187472 220.353715 
L 143.230373 220.353715 
L 143.31586 218.632759 
L 144.430703 218.632759 
L 144.470655 217.485456 
L 145.136208 217.485456 
L 145.136208 216.911804 
L 145.440832 216.911804 
L 145.478539 215.764501 
L 145.553708 215.764501 
L 145.553708 215.190849 
L 145.703082 215.190849 
L 145.703082 214.617197 
L 145.814278 214.617197 
L 145.814278 213.469894 
L 146.252108 213.469894 
L 146.252108 212.322591 
L 146.714338 212.322591 
L 146.819289 211.175287 
L 146.958248 211.175287 
L 147.061745 210.027984 
L 147.164632 210.027984 
L 147.164632 209.454332 
L 147.334773 209.454332 
L 147.402367 207.159725 
L 147.536775 207.159725 
L 147.536775 206.586073 
L 148.096724 206.586073 
L 148.129109 205.43877 
L 148.322166 205.43877 
L 148.322166 203.144163 
L 148.48143 203.144163 
L 148.513109 201.99686 
L 148.857832 201.99686 
L 148.857832 201.423208 
L 149.012299 201.423208 
L 149.012299 200.849556 
L 149.377533 200.849556 
L 149.437669 199.702253 
L 149.497598 199.702253 
L 149.527485 198.554949 
L 149.705742 198.554949 
L 149.705742 197.407646 
L 149.911431 197.407646 
L 149.911431 196.833994 
L 150.172372 196.833994 
L 150.172372 196.260342 
L 150.287105 196.260342 
L 150.287105 195.686691 
L 150.401087 195.686691 
L 150.401087 195.113039 
L 152.027042 195.113039 
L 152.027042 194.539387 
L 153.703291 194.539387 
L 153.703291 193.965736 
L 154.144227 193.965736 
L 154.144227 193.392084 
L 156.757045 193.392084 
L 156.757045 191.671129 
L 157.069866 191.671129 
L 157.147202 190.523825 
L 157.224197 190.523825 
L 157.224197 189.950174 
L 157.453162 189.950174 
L 157.453162 189.376522 
L 157.566527 189.376522 
L 157.566527 188.80287 
L 157.67916 188.80287 
L 157.67916 187.655567 
L 157.994392 187.655567 
L 157.994392 187.081915 
L 158.231665 187.081915 
L 158.267884 185.36096 
L 158.447857 185.36096 
L 158.51933 183.640005 
L 158.590511 183.640005 
L 158.590511 183.066353 
L 158.942121 183.066353 
L 158.942121 182.492701 
L 159.063529 182.492701 
L 159.063529 181.91905 
L 159.422762 181.91905 
L 159.456591 180.771746 
L 159.658204 180.771746 
L 159.658204 179.624443 
L 163.239567 179.624443 
L 163.239567 179.050791 
L 163.854349 179.050791 
L 163.946031 177.903487 
L 163.972138 177.903487 
L 163.972138 177.329836 
L 164.11503 177.329836 
L 164.192481 175.608881 
L 164.384616 175.608881 
L 164.410075 174.461577 
L 164.675172 174.461577 
L 164.700211 172.740622 
L 164.960967 172.740622 
L 164.960967 172.16697 
L 165.083779 172.16697 
L 165.193576 170.446015 
L 165.290595 170.446015 
L 165.302685 168.72506 
L 165.614109 168.72506 
L 165.625977 167.577757 
L 166.471192 167.577757 
L 166.572616 165.856801 
L 166.895472 165.856801 
L 166.895472 165.28315 
L 167.427761 165.28315 
L 167.491837 164.135846 
L 169.080173 164.135846 
L 169.080173 163.562195 
L 170.265184 163.562195 
L 170.328715 162.414891 
L 170.464079 162.414891 
L 170.562682 160.693936 
L 170.625141 160.693936 
L 170.625141 160.120284 
L 170.784729 160.120284 
L 170.85519 158.972981 
L 170.925369 158.972981 
L 170.925369 158.399329 
L 171.082245 158.399329 
L 171.125572 157.252026 
L 171.254912 157.252026 
L 171.323504 156.104722 
L 171.637275 156.104722 
L 171.637275 155.53107 
L 172.337411 155.53107 
L 172.337411 154.957419 
L 173.172891 154.957419 
L 173.22668 153.236464 
L 173.379457 153.236464 
L 173.394661 152.08916 
L 173.643636 152.08916 
L 173.681051 150.941857 
L 173.948098 150.941857 
L 173.948098 150.368205 
L 174.145733 150.368205 
L 174.145733 149.794553 
L 174.746654 149.794553 
L 174.746654 149.220902 
L 175.011842 149.220902 
L 175.011842 148.64725 
L 175.259407 148.64725 
L 175.347948 147.499946 
L 175.496772 147.499946 
L 175.55729 145.778991 
L 176.073165 145.778991 
L 176.073165 145.20534 
L 176.687829 145.20534 
L 176.687829 144.631688 
L 177.30587 144.631688 
L 177.30587 144.058036 
L 177.565038 144.058036 
L 177.565038 143.484384 
L 177.684281 143.484384 
L 177.684281 142.910733 
L 177.867512 142.910733 
L 177.867512 142.337081 
L 177.984712 142.337081 
L 177.984712 141.763429 
L 178.343106 141.763429 
L 178.37169 139.468822 
L 179.569163 139.468822 
L 179.569163 138.895171 
L 179.954198 138.895171 
L 179.954198 138.321519 
L 180.078951 138.321519 
L 180.078951 137.747867 
L 180.346224 137.747867 
L 180.447941 136.600564 
L 180.654624 136.600564 
L 180.724641 135.45326 
L 180.903405 135.45326 
L 180.903405 134.879609 
L 181.070572 134.879609 
L 181.070572 134.305957 
L 181.409774 134.305957 
L 181.409774 133.732305 
L 183.039601 133.732305 
L 183.039601 133.158653 
L 183.183243 133.158653 
L 183.183243 132.585002 
L 184.441539 132.585002 
L 184.441539 132.01135 
L 185.903074 132.01135 
L 185.903074 131.437698 
L 186.725304 131.437698 
L 186.725304 130.864047 
L 188.54785 130.864047 
L 188.54785 130.290395 
L 188.665372 130.290395 
L 188.665372 129.716743 
L 190.215205 129.716743 
L 190.215205 129.143091 
L 191.667814 129.143091 
L 191.667814 128.56944 
L 193.360454 128.56944 
L 193.360454 127.995788 
L 194.807796 127.995788 
L 194.807796 127.422136 
L 194.940837 127.422136 
L 194.940837 126.848485 
L 195.428742 126.848485 
L 195.428742 126.274833 
L 199.020801 126.274833 
L 199.020801 125.701181 
L 199.60864 125.701181 
L 199.60864 125.127529 
L 201.428634 125.127529 
L 201.428634 124.553878 
L 202.784534 124.553878 
L 202.784534 123.980226 
L 204.668233 123.980226 
L 204.668233 123.406574 
L 208.835949 123.406574 
L 208.835949 122.832923 
L 212.22517 122.832923 
L 212.22517 122.259271 
L 215.93814 122.259271 
L 215.93814 121.685619 
L 216.669385 121.685619 
L 216.669385 121.111967 
L 338.688 121.111967 
L 338.688 121.111967 
" style="fill:none;stroke:#6495ed;stroke-linecap:square;stroke-width:1.5;"/>
   </g>
   <g id="line2d_46">
    <defs>
     <path d="M -0 6 
L 6 -6 
L -6 -6 
z
" id="m52cdc0b3ca" style="stroke:#6495ed;stroke-linejoin:miter;stroke-width:1.5;"/>
    </defs>
    <g>
     <use style="fill-opacity:0;stroke:#6495ed;stroke-linejoin:miter;stroke-width:1.5;" x="148.322166" xlink:href="#m52cdc0b3ca" y="205.43877"/>
     <use style="fill-opacity:0;stroke:#6495ed;stroke-linejoin:miter;stroke-width:1.5;" x="177.684281" xlink:href="#m52cdc0b3ca" y="142.910733"/>
     <use style="fill-opacity:0;stroke:#6495ed;stroke-linejoin:miter;stroke-width:1.5;" x="216.669385" xlink:href="#m52cdc0b3ca" y="121.685619"/>
     <use style="fill-opacity:0;stroke:#6495ed;stroke-linejoin:miter;stroke-width:1.5;" x="216.669385" xlink:href="#m52cdc0b3ca" y="121.111967"/>
     <use style="fill-opacity:0;stroke:#6495ed;stroke-linejoin:miter;stroke-width:1.5;" x="338.688" xlink:href="#m52cdc0b3ca" y="121.111967"/>
    </g>
   </g>
   <g id="line2d_47">
    <path style="fill:none;stroke:#6495ed;stroke-linecap:square;stroke-width:1.5;"/>
    <g/>
   </g>
   <g id="line2d_48">
    <path clip-path="url(#pb31a61541e)" d="M 158.67908 183.066353 
" style="fill:none;stroke:#6495ed;stroke-linecap:square;stroke-width:1.5;"/>
    <defs>
     <path d="M -12 12 
L 12 -12 
M -12 -12 
L 12 12 
" id="m9a14a2d497" style="stroke:#6495ed;"/>
    </defs>
    <g clip-path="url(#pb31a61541e)">
     <use style="fill:#6495ed;stroke:#6495ed;" x="158.67908" xlink:href="#m9a14a2d497" y="183.066353"/>
    </g>
   </g>
   <g id="line2d_49">
    <defs>
     <path d="M 0 1.5 
C 0.397805 1.5 0.77937 1.341951 1.06066 1.06066 
C 1.341951 0.77937 1.5 0.397805 1.5 0 
C 1.5 -0.397805 1.341951 -0.77937 1.06066 -1.06066 
C 0.77937 -1.341951 0.397805 -1.5 0 -1.5 
C -0.397805 -1.5 -0.77937 -1.341951 -1.06066 -1.06066 
C -1.341951 -0.77937 -1.5 -0.397805 -1.5 0 
C -1.5 0.397805 -1.341951 0.77937 -1.06066 1.06066 
C -0.77937 1.341951 -0.397805 1.5 0 1.5 
z
" id="mb1b52a7b19" style="stroke:#ff0000;"/>
    </defs>
    <g>
     <use style="fill:#ff0000;stroke:#ff0000;" x="219.68027" xlink:href="#mb1b52a7b19" y="253.051863"/>
     <use style="fill:#ff0000;stroke:#ff0000;" x="219.68027" xlink:href="#mb1b52a7b19" y="253.051863"/>
    </g>
   </g>
   <g id="line2d_50">
    <path d="M 38.440992 298.944 
L 38.440992 288.618269 
L 87.850195 288.618269 
L 87.850195 288.044617 
L 88.846997 288.044617 
L 88.846997 286.323662 
L 89.78989 286.323662 
L 89.78989 285.75001 
L 90.684409 285.75001 
L 90.684409 284.602707 
L 92.34655 284.602707 
L 92.34655 284.029055 
L 95.259853 284.029055 
L 95.259853 283.455404 
L 99.41757 283.455404 
L 99.41757 282.881752 
L 102.330873 282.881752 
L 102.330873 282.3081 
L 106.66386 282.3081 
L 106.66386 281.734448 
L 109.843417 281.734448 
L 109.843417 280.587145 
L 110.131676 280.587145 
L 110.131676 280.013493 
L 110.694282 280.013493 
L 110.694282 279.439842 
L 111.239304 279.439842 
L 111.239304 278.86619 
L 112.280765 278.86619 
L 112.280765 278.292538 
L 115.077025 278.292538 
L 115.077025 277.718886 
L 117.672786 277.718886 
L 117.672786 277.145235 
L 122.503236 277.145235 
L 122.503236 276.571583 
L 125.351508 276.571583 
L 125.351508 275.997931 
L 125.706218 275.997931 
L 125.706218 275.42428 
L 129.574256 275.42428 
L 129.574256 274.850628 
L 129.760775 274.850628 
L 129.760775 274.276976 
L 130.839837 274.276976 
L 130.839837 273.703324 
L 131.355321 273.703324 
L 131.355321 273.129673 
L 131.690703 273.129673 
L 131.690703 271.982369 
L 132.893889 271.982369 
L 132.893889 271.408718 
L 135.813153 271.408718 
L 135.813153 270.835066 
L 137.852629 270.835066 
L 137.852629 270.261414 
L 138.084384 270.261414 
L 138.084384 269.687762 
L 139.783113 269.687762 
L 139.783113 269.114111 
L 140.144829 269.114111 
L 140.144829 268.540459 
L 143.101352 268.540459 
L 143.101352 267.966807 
L 143.778691 267.966807 
L 143.778691 267.393156 
L 148.417899 267.393156 
L 148.417899 266.819504 
L 148.888835 266.819504 
L 148.888835 266.245852 
L 149.012299 266.245852 
L 149.012299 265.6722 
L 149.377533 265.6722 
L 149.377533 265.098549 
L 149.998846 265.098549 
L 149.998846 264.524897 
L 150.401087 264.524897 
L 150.401087 263.951245 
L 150.51433 263.951245 
L 150.51433 263.377593 
L 150.626842 263.377593 
L 150.626842 262.803942 
L 153.250915 262.803942 
L 153.250915 262.23029 
L 161.038665 262.23029 
L 161.038665 261.656638 
L 167.125588 261.656638 
L 167.125588 261.082987 
L 178.744676 261.082987 
L 178.744676 260.509335 
L 185.098509 260.509335 
L 185.098509 259.935683 
L 187.868712 259.935683 
L 187.868712 259.362031 
L 190.52809 259.362031 
L 190.52809 258.78838 
L 190.896847 258.78838 
L 190.896847 258.214728 
L 194.235372 258.214728 
L 194.235372 257.641076 
L 196.191523 257.641076 
L 196.191523 257.067425 
L 197.676698 257.067425 
L 197.676698 256.493773 
L 197.983643 256.493773 
L 197.983643 255.920121 
L 198.901522 255.920121 
L 198.901522 255.346469 
L 202.937419 255.346469 
L 202.937419 254.772818 
L 212.511399 254.772818 
L 212.511399 254.199166 
L 214.864773 254.199166 
L 214.864773 253.625514 
L 219.68027 253.625514 
L 219.68027 253.051863 
L 338.688 253.051863 
" style="fill:none;stroke:#ff0000;stroke-linecap:square;stroke-width:1.5;"/>
   </g>
   <g id="line2d_51">
    <defs>
     <path d="M 0 -6 
L -5.196152 -3 
L -5.196152 3 
L -0 6 
L 5.196152 3 
L 5.196152 -3 
z
" id="m15c4f5b2dc" style="stroke:#ff0000;stroke-linejoin:miter;stroke-width:1.5;"/>
    </defs>
    <g>
     <use style="fill-opacity:0;stroke:#ff0000;stroke-linejoin:miter;stroke-width:1.5;" x="117.672786" xlink:href="#m15c4f5b2dc" y="277.145235"/>
     <use style="fill-opacity:0;stroke:#ff0000;stroke-linejoin:miter;stroke-width:1.5;" x="187.868712" xlink:href="#m15c4f5b2dc" y="259.935683"/>
     <use style="fill-opacity:0;stroke:#ff0000;stroke-linejoin:miter;stroke-width:1.5;" x="219.68027" xlink:href="#m15c4f5b2dc" y="253.625514"/>
     <use style="fill-opacity:0;stroke:#ff0000;stroke-linejoin:miter;stroke-width:1.5;" x="219.68027" xlink:href="#m15c4f5b2dc" y="253.051863"/>
     <use style="fill-opacity:0;stroke:#ff0000;stroke-linejoin:miter;stroke-width:1.5;" x="219.68027" xlink:href="#m15c4f5b2dc" y="253.051863"/>
     <use style="fill-opacity:0;stroke:#ff0000;stroke-linejoin:miter;stroke-width:1.5;" x="338.688" xlink:href="#m15c4f5b2dc" y="253.051863"/>
    </g>
   </g>
   <g id="line2d_52">
    <path style="fill:none;stroke:#ff0000;stroke-linecap:square;stroke-width:1.5;"/>
    <g/>
   </g>
   <g id="line2d_53">
    <path clip-path="url(#pb31a61541e)" d="M 158.304027 262.23029 
" style="fill:none;stroke:#ff0000;stroke-linecap:square;stroke-width:1.5;"/>
    <defs>
     <path d="M -12 12 
L 12 -12 
M -12 -12 
L 12 12 
" id="md85657d275" style="stroke:#ff0000;"/>
    </defs>
    <g clip-path="url(#pb31a61541e)">
     <use style="fill:#ff0000;stroke:#ff0000;" x="158.304027" xlink:href="#md85657d275" y="262.23029"/>
    </g>
   </g>
   <g id="line2d_54">
    <path d="M 338.688 253.051863 
L 369.60768 293.092752 
" style="fill:none;stroke:#ff0000;stroke-linecap:square;stroke-width:1.5;"/>
    <g>
     <use style="fill-opacity:0;stroke:#ff0000;stroke-linejoin:miter;stroke-width:1.5;" x="338.688" xlink:href="#m15c4f5b2dc" y="253.051863"/>
     <use style="fill-opacity:0;stroke:#ff0000;stroke-linejoin:miter;stroke-width:1.5;" x="369.60768" xlink:href="#m15c4f5b2dc" y="293.092752"/>
    </g>
   </g>
   <g id="line2d_55">
    <path d="M 338.688 224.369277 
L 369.60768 222.877782 
" style="fill:none;stroke:#000080;stroke-linecap:square;stroke-width:1.5;"/>
    <g>
     <use style="fill-opacity:0;stroke:#000080;stroke-width:1.5;" x="338.688" xlink:href="#m694eae8c40" y="224.369277"/>
     <use style="fill-opacity:0;stroke:#000080;stroke-width:1.5;" x="369.60768" xlink:href="#m694eae8c40" y="222.877782"/>
    </g>
   </g>
   <g id="line2d_56">
    <path d="M 338.688 121.111967 
L 369.60768 152.662812 
" style="fill:none;stroke:#6495ed;stroke-linecap:square;stroke-width:1.5;"/>
    <g>
     <use style="fill-opacity:0;stroke:#6495ed;stroke-linejoin:miter;stroke-width:1.5;" x="338.688" xlink:href="#m52cdc0b3ca" y="121.111967"/>
     <use style="fill-opacity:0;stroke:#6495ed;stroke-linejoin:miter;stroke-width:1.5;" x="369.60768" xlink:href="#m52cdc0b3ca" y="152.662812"/>
    </g>
   </g>
   <g id="line2d_57">
    <path d="M 338.688 6.381624 
L 369.60768 82.447842 
" style="fill:none;stroke:#ff00ff;stroke-linecap:square;stroke-width:1.5;"/>
    <g>
     <use style="fill-opacity:0;stroke:#ff00ff;stroke-linejoin:miter;stroke-width:1.5;" x="338.688" xlink:href="#ma79906f95e" y="6.381624"/>
     <use style="fill-opacity:0;stroke:#ff00ff;stroke-linejoin:miter;stroke-width:1.5;" x="369.60768" xlink:href="#ma79906f95e" y="82.447842"/>
    </g>
   </g>
   <g id="line2d_58">
    <path d="M 338.688 6.381624 
L 369.60768 12.232871 
" style="fill:none;stroke:#ffa500;stroke-linecap:square;stroke-width:1.5;"/>
    <g>
     <use style="fill-opacity:0;stroke:#ffa500;stroke-linejoin:bevel;stroke-width:1.5;" x="338.688" xlink:href="#m5d1b118053" y="6.381624"/>
     <use style="fill-opacity:0;stroke:#ffa500;stroke-linejoin:bevel;stroke-width:1.5;" x="369.60768" xlink:href="#m5d1b118053" y="12.232871"/>
    </g>
   </g>
   <g id="line2d_59">
    <path d="M 338.688 298.944 
L 338.688 6.381624 
" style="fill:none;stroke:#000000;stroke-linecap:square;stroke-width:1.5;"/>
   </g>
   <g id="patch_3">
    <path d="M 57.6 298.944 
L 57.6 3.456 
" style="fill:none;stroke:#000000;stroke-linecap:square;stroke-linejoin:miter;stroke-width:0.8;"/>
   </g>
   <g id="patch_4">
    <path d="M 338.688 298.944 
L 338.688 3.456 
" style="fill:none;stroke:#000000;stroke-linecap:square;stroke-linejoin:miter;stroke-width:0.8;"/>
   </g>
   <g id="patch_5">
    <path d="M 57.6 298.944 
L 338.688 298.944 
" style="fill:none;stroke:#000000;stroke-linecap:square;stroke-linejoin:miter;stroke-width:0.8;"/>
   </g>
   <g id="patch_6">
    <path d="M 57.6 3.456 
L 338.688 3.456 
" style="fill:none;stroke:#000000;stroke-linecap:square;stroke-linejoin:miter;stroke-width:0.8;"/>
   </g>
   <g id="text_13">
    <!-- f24 -->
    <g transform="translate(375.22944 297.78369)scale(0.17 -0.17)">
     <use xlink:href="#DejaVuSans-102"/>
     <use x="35.205078" xlink:href="#DejaVuSans-50"/>
     <use x="98.828125" xlink:href="#DejaVuSans-52"/>
    </g>
   </g>
   <g id="text_14">
    <!-- f20 -->
    <g transform="translate(375.22944 227.56872)scale(0.17 -0.17)">
     <use xlink:href="#DejaVuSans-102"/>
     <use x="35.205078" xlink:href="#DejaVuSans-50"/>
     <use x="98.828125" xlink:href="#DejaVuSans-48"/>
    </g>
   </g>
   <g id="text_15">
    <!-- f23 -->
    <defs>
     <path d="M 40.578125 39.3125 
Q 47.65625 37.796875 51.625 33 
Q 55.609375 28.21875 55.609375 21.1875 
Q 55.609375 10.40625 48.1875 4.484375 
Q 40.765625 -1.421875 27.09375 -1.421875 
Q 22.515625 -1.421875 17.65625 -0.515625 
Q 12.796875 0.390625 7.625 2.203125 
L 7.625 11.71875 
Q 11.71875 9.328125 16.59375 8.109375 
Q 21.484375 6.890625 26.8125 6.890625 
Q 36.078125 6.890625 40.9375 10.546875 
Q 45.796875 14.203125 45.796875 21.1875 
Q 45.796875 27.640625 41.28125 31.265625 
Q 36.765625 34.90625 28.71875 34.90625 
L 20.21875 34.90625 
L 20.21875 43.015625 
L 29.109375 43.015625 
Q 36.375 43.015625 40.234375 45.921875 
Q 44.09375 48.828125 44.09375 54.296875 
Q 44.09375 59.90625 40.109375 62.90625 
Q 36.140625 65.921875 28.71875 65.921875 
Q 24.65625 65.921875 20.015625 65.03125 
Q 15.375 64.15625 9.8125 62.3125 
L 9.8125 71.09375 
Q 15.4375 72.65625 20.34375 73.4375 
Q 25.25 74.21875 29.59375 74.21875 
Q 40.828125 74.21875 47.359375 69.109375 
Q 53.90625 64.015625 53.90625 55.328125 
Q 53.90625 49.265625 50.4375 45.09375 
Q 46.96875 40.921875 40.578125 39.3125 
z
" id="DejaVuSans-51"/>
    </defs>
    <g transform="translate(375.22944 157.353749)scale(0.17 -0.17)">
     <use xlink:href="#DejaVuSans-102"/>
     <use x="35.205078" xlink:href="#DejaVuSans-50"/>
     <use x="98.828125" xlink:href="#DejaVuSans-51"/>
    </g>
   </g>
   <g id="text_16">
    <!-- f21 -->
    <g transform="translate(375.22944 87.138779)scale(0.17 -0.17)">
     <use xlink:href="#DejaVuSans-102"/>
     <use x="35.205078" xlink:href="#DejaVuSans-50"/>
     <use x="98.828125" xlink:href="#DejaVuSans-49"/>
    </g>
   </g>
   <g id="text_17">
    <!-- f22 -->
    <g transform="translate(375.22944 16.923809)scale(0.17 -0.17)">
     <use xlink:href="#DejaVuSans-102"/>
     <use x="35.205078" xlink:href="#DejaVuSans-50"/>
     <use x="98.828125" xlink:href="#DejaVuSans-50"/>
    </g>
   </g>
   <g id="text_18">
    <!-- bbob -->
    <defs>
     <path d="M 48.6875 27.296875 
Q 48.6875 37.203125 44.609375 42.84375 
Q 40.53125 48.484375 33.40625 48.484375 
Q 26.265625 48.484375 22.1875 42.84375 
Q 18.109375 37.203125 18.109375 27.296875 
Q 18.109375 17.390625 22.1875 11.75 
Q 26.265625 6.109375 33.40625 6.109375 
Q 40.53125 6.109375 44.609375 11.75 
Q 48.6875 17.390625 48.6875 27.296875 
z
M 18.109375 46.390625 
Q 20.953125 51.265625 25.265625 53.625 
Q 29.59375 56 35.59375 56 
Q 45.5625 56 51.78125 48.09375 
Q 58.015625 40.1875 58.015625 27.296875 
Q 58.015625 14.40625 51.78125 6.484375 
Q 45.5625 -1.421875 35.59375 -1.421875 
Q 29.59375 -1.421875 25.265625 0.953125 
Q 20.953125 3.328125 18.109375 8.203125 
L 18.109375 0 
L 9.078125 0 
L 9.078125 75.984375 
L 18.109375 75.984375 
z
" id="DejaVuSans-98"/>
    </defs>
    <g transform="translate(60.41088 14.161286)scale(0.102 -0.102)">
     <use xlink:href="#DejaVuSans-98"/>
     <use x="63.476562" xlink:href="#DejaVuSans-98"/>
     <use x="126.953125" xlink:href="#DejaVuSans-111"/>
     <use x="188.134766" xlink:href="#DejaVuSans-98"/>
    </g>
    <!-- Weak structure functions, 3-D -->
    <defs>
     <path d="M 3.328125 72.90625 
L 13.28125 72.90625 
L 28.609375 11.28125 
L 43.890625 72.90625 
L 54.984375 72.90625 
L 70.3125 11.28125 
L 85.59375 72.90625 
L 95.609375 72.90625 
L 77.296875 0 
L 64.890625 0 
L 49.515625 63.28125 
L 33.984375 0 
L 21.578125 0 
z
" id="DejaVuSans-87"/>
     <path d="M 9.078125 75.984375 
L 18.109375 75.984375 
L 18.109375 31.109375 
L 44.921875 54.6875 
L 56.390625 54.6875 
L 27.390625 29.109375 
L 57.625 0 
L 45.90625 0 
L 18.109375 26.703125 
L 18.109375 0 
L 9.078125 0 
z
" id="DejaVuSans-107"/>
     <path d="M 19.671875 64.796875 
L 19.671875 8.109375 
L 31.59375 8.109375 
Q 46.6875 8.109375 53.6875 14.9375 
Q 60.6875 21.78125 60.6875 36.53125 
Q 60.6875 51.171875 53.6875 57.984375 
Q 46.6875 64.796875 31.59375 64.796875 
z
M 9.8125 72.90625 
L 30.078125 72.90625 
Q 51.265625 72.90625 61.171875 64.09375 
Q 71.09375 55.28125 71.09375 36.53125 
Q 71.09375 17.671875 61.125 8.828125 
Q 51.171875 0 30.078125 0 
L 9.8125 0 
z
" id="DejaVuSans-68"/>
    </defs>
    <g transform="translate(60.41088 25.583055)scale(0.102 -0.102)">
     <use xlink:href="#DejaVuSans-87"/>
     <use x="93.001953" xlink:href="#DejaVuSans-101"/>
     <use x="154.525391" xlink:href="#DejaVuSans-97"/>
     <use x="215.804688" xlink:href="#DejaVuSans-107"/>
     <use x="273.714844" xlink:href="#DejaVuSans-32"/>
     <use x="305.501953" xlink:href="#DejaVuSans-115"/>
     <use x="357.601562" xlink:href="#DejaVuSans-116"/>
     <use x="396.810547" xlink:href="#DejaVuSans-114"/>
     <use x="437.923828" xlink:href="#DejaVuSans-117"/>
     <use x="501.302734" xlink:href="#DejaVuSans-99"/>
     <use x="556.283203" xlink:href="#DejaVuSans-116"/>
     <use x="595.492188" xlink:href="#DejaVuSans-117"/>
     <use x="658.871094" xlink:href="#DejaVuSans-114"/>
     <use x="697.734375" xlink:href="#DejaVuSans-101"/>
     <use x="759.257812" xlink:href="#DejaVuSans-32"/>
     <use x="791.044922" xlink:href="#DejaVuSans-102"/>
     <use x="826.25" xlink:href="#DejaVuSans-117"/>
     <use x="889.628906" xlink:href="#DejaVuSans-110"/>
     <use x="953.007812" xlink:href="#DejaVuSans-99"/>
     <use x="1007.988281" xlink:href="#DejaVuSans-116"/>
     <use x="1047.197266" xlink:href="#DejaVuSans-105"/>
     <use x="1074.980469" xlink:href="#DejaVuSans-111"/>
     <use x="1136.162109" xlink:href="#DejaVuSans-110"/>
     <use x="1199.541016" xlink:href="#DejaVuSans-115"/>
     <use x="1251.640625" xlink:href="#DejaVuSans-44"/>
     <use x="1283.427734" xlink:href="#DejaVuSans-32"/>
     <use x="1315.214844" xlink:href="#DejaVuSans-51"/>
     <use x="1378.837891" xlink:href="#DejaVuSans-45"/>
     <use x="1414.921875" xlink:href="#DejaVuSans-68"/>
    </g>
    <!-- 51 targets: 100..1e-08 -->
    <defs>
     <path d="M 10.796875 72.90625 
L 49.515625 72.90625 
L 49.515625 64.59375 
L 19.828125 64.59375 
L 19.828125 46.734375 
Q 21.96875 47.46875 24.109375 47.828125 
Q 26.265625 48.1875 28.421875 48.1875 
Q 40.625 48.1875 47.75 41.5 
Q 54.890625 34.8125 54.890625 23.390625 
Q 54.890625 11.625 47.5625 5.09375 
Q 40.234375 -1.421875 26.90625 -1.421875 
Q 22.3125 -1.421875 17.546875 -0.640625 
Q 12.796875 0.140625 7.71875 1.703125 
L 7.71875 11.625 
Q 12.109375 9.234375 16.796875 8.0625 
Q 21.484375 6.890625 26.703125 6.890625 
Q 35.15625 6.890625 40.078125 11.328125 
Q 45.015625 15.765625 45.015625 23.390625 
Q 45.015625 31 40.078125 35.4375 
Q 35.15625 39.890625 26.703125 39.890625 
Q 22.75 39.890625 18.8125 39.015625 
Q 14.890625 38.140625 10.796875 36.28125 
z
" id="DejaVuSans-53"/>
     <path d="M 11.71875 12.40625 
L 22.015625 12.40625 
L 22.015625 0 
L 11.71875 0 
z
M 11.71875 51.703125 
L 22.015625 51.703125 
L 22.015625 39.3125 
L 11.71875 39.3125 
z
" id="DejaVuSans-58"/>
    </defs>
    <g transform="translate(60.41088 37.004824)scale(0.102 -0.102)">
     <use xlink:href="#DejaVuSans-53"/>
     <use x="63.623047" xlink:href="#DejaVuSans-49"/>
     <use x="127.246094" xlink:href="#DejaVuSans-32"/>
     <use x="159.033203" xlink:href="#DejaVuSans-116"/>
     <use x="198.242188" xlink:href="#DejaVuSans-97"/>
     <use x="259.521484" xlink:href="#DejaVuSans-114"/>
     <use x="298.884766" xlink:href="#DejaVuSans-103"/>
     <use x="362.361328" xlink:href="#DejaVuSans-101"/>
     <use x="423.884766" xlink:href="#DejaVuSans-116"/>
     <use x="463.09375" xlink:href="#DejaVuSans-115"/>
     <use x="515.193359" xlink:href="#DejaVuSans-58"/>
     <use x="548.884766" xlink:href="#DejaVuSans-32"/>
     <use x="580.671875" xlink:href="#DejaVuSans-49"/>
     <use x="644.294922" xlink:href="#DejaVuSans-48"/>
     <use x="707.917969" xlink:href="#DejaVuSans-48"/>
     <use x="771.541016" xlink:href="#DejaVuSans-46"/>
     <use x="803.328125" xlink:href="#DejaVuSans-46"/>
     <use x="835.115234" xlink:href="#DejaVuSans-49"/>
     <use x="898.738281" xlink:href="#DejaVuSans-101"/>
     <use x="960.261719" xlink:href="#DejaVuSans-45"/>
     <use x="996.345703" xlink:href="#DejaVuSans-48"/>
     <use x="1059.96875" xlink:href="#DejaVuSans-56"/>
    </g>
    <!-- 15 instances -->
    <g transform="translate(60.41088 48.426593)scale(0.102 -0.102)">
     <use xlink:href="#DejaVuSans-49"/>
     <use x="63.623047" xlink:href="#DejaVuSans-53"/>
     <use x="127.246094" xlink:href="#DejaVuSans-32"/>
     <use x="159.033203" xlink:href="#DejaVuSans-105"/>
     <use x="186.816406" xlink:href="#DejaVuSans-110"/>
     <use x="250.195312" xlink:href="#DejaVuSans-115"/>
     <use x="302.294922" xlink:href="#DejaVuSans-116"/>
     <use x="341.503906" xlink:href="#DejaVuSans-97"/>
     <use x="402.783203" xlink:href="#DejaVuSans-110"/>
     <use x="466.162109" xlink:href="#DejaVuSans-99"/>
     <use x="521.142578" xlink:href="#DejaVuSans-101"/>
     <use x="582.666016" xlink:href="#DejaVuSans-115"/>
    </g>
   </g>
   <g id="text_19">
    <!-- v2.3.3.5 -->
    <g style="fill:#808080;" transform="translate(177.692437 293.909432)scale(0.1 -0.1)">
     <use xlink:href="#DejaVuSans-118"/>
     <use x="59.179688" xlink:href="#DejaVuSans-50"/>
     <use x="122.802734" xlink:href="#DejaVuSans-46"/>
     <use x="154.589844" xlink:href="#DejaVuSans-51"/>
     <use x="218.212891" xlink:href="#DejaVuSans-46"/>
     <use x="250" xlink:href="#DejaVuSans-51"/>
     <use x="313.623047" xlink:href="#DejaVuSans-46"/>
     <use x="345.410156" xlink:href="#DejaVuSans-53"/>
    </g>
   </g>
  </g>
 </g>
 <defs>
  <clipPath id="pb31a61541e">
   <rect height="295.488" width="281.088" x="57.6" y="3.456"/>
  </clipPath>
 </defs>
</svg>
