<?xml version="1.0" encoding="utf-8" standalone="no"?>
<!DOCTYPE svg PUBLIC "-//W3C//DTD SVG 1.1//EN"
  "http://www.w3.org/Graphics/SVG/1.1/DTD/svg11.dtd">
<!-- Created with matplotlib (https://matplotlib.org/) -->
<svg height="345.6pt" version="1.1" viewBox="0 0 460.8 345.6" width="460.8pt" xmlns="http://www.w3.org/2000/svg" xmlns:xlink="http://www.w3.org/1999/xlink">
 <defs>
  <style type="text/css">
*{stroke-linecap:butt;stroke-linejoin:round;}
  </style>
 </defs>
 <g id="figure_1">
  <g id="patch_1">
   <path d="M 0 345.6 
L 460.8 345.6 
L 460.8 0 
L 0 0 
z
" style="fill:#ffffff;"/>
  </g>
  <g id="axes_1">
   <g id="patch_2">
    <path d="M 57.6 298.944 
L 338.688 298.944 
L 338.688 3.456 
L 57.6 3.456 
z
" style="fill:#ffffff;"/>
   </g>
   <g id="matplotlib.axis_1">
    <g id="xtick_1">
     <g id="line2d_1">
      <path clip-path="url(#p3a4a70220b)" d="M 57.6 298.944 
L 57.6 3.456 
" style="fill:none;stroke:#b0b0b0;stroke-linecap:square;stroke-width:0.8;"/>
     </g>
     <g id="line2d_2">
      <defs>
       <path d="M 0 0 
L 0 3.5 
" id="me3a5243d3d" style="stroke:#000000;stroke-width:0.8;"/>
      </defs>
      <g>
       <use style="stroke:#000000;stroke-width:0.8;" x="57.6" xlink:href="#me3a5243d3d" y="298.944"/>
      </g>
     </g>
     <g id="text_1">
      <!-- 0 -->
      <defs>
       <path d="M 31.78125 66.40625 
Q 24.171875 66.40625 20.328125 58.90625 
Q 16.5 51.421875 16.5 36.375 
Q 16.5 21.390625 20.328125 13.890625 
Q 24.171875 6.390625 31.78125 6.390625 
Q 39.453125 6.390625 43.28125 13.890625 
Q 47.125 21.390625 47.125 36.375 
Q 47.125 51.421875 43.28125 58.90625 
Q 39.453125 66.40625 31.78125 66.40625 
z
M 31.78125 74.21875 
Q 44.046875 74.21875 50.515625 64.515625 
Q 56.984375 54.828125 56.984375 36.375 
Q 56.984375 17.96875 50.515625 8.265625 
Q 44.046875 -1.421875 31.78125 -1.421875 
Q 19.53125 -1.421875 13.0625 8.265625 
Q 6.59375 17.96875 6.59375 36.375 
Q 6.59375 54.828125 13.0625 64.515625 
Q 19.53125 74.21875 31.78125 74.21875 
z
" id="DejaVuSans-48"/>
      </defs>
      <g transform="translate(51.2375 321.140875)scale(0.2 -0.2)">
       <use xlink:href="#DejaVuSans-48"/>
      </g>
     </g>
    </g>
    <g id="xtick_2">
     <g id="line2d_3">
      <path clip-path="url(#p3a4a70220b)" d="M 137.910857 298.944 
L 137.910857 3.456 
" style="fill:none;stroke:#b0b0b0;stroke-linecap:square;stroke-width:0.8;"/>
     </g>
     <g id="line2d_4">
      <g>
       <use style="stroke:#000000;stroke-width:0.8;" x="137.910857" xlink:href="#me3a5243d3d" y="298.944"/>
      </g>
     </g>
     <g id="text_2">
      <!-- 2 -->
      <defs>
       <path d="M 19.1875 8.296875 
L 53.609375 8.296875 
L 53.609375 0 
L 7.328125 0 
L 7.328125 8.296875 
Q 12.9375 14.109375 22.625 23.890625 
Q 32.328125 33.6875 34.8125 36.53125 
Q 39.546875 41.84375 41.421875 45.53125 
Q 43.3125 49.21875 43.3125 52.78125 
Q 43.3125 58.59375 39.234375 62.25 
Q 35.15625 65.921875 28.609375 65.921875 
Q 23.96875 65.921875 18.8125 64.3125 
Q 13.671875 62.703125 7.8125 59.421875 
L 7.8125 69.390625 
Q 13.765625 71.78125 18.9375 73 
Q 24.125 74.21875 28.421875 74.21875 
Q 39.75 74.21875 46.484375 68.546875 
Q 53.21875 62.890625 53.21875 53.421875 
Q 53.21875 48.921875 51.53125 44.890625 
Q 49.859375 40.875 45.40625 35.40625 
Q 44.1875 33.984375 37.640625 27.21875 
Q 31.109375 20.453125 19.1875 8.296875 
z
" id="DejaVuSans-50"/>
      </defs>
      <g transform="translate(131.548357 321.140875)scale(0.2 -0.2)">
       <use xlink:href="#DejaVuSans-50"/>
      </g>
     </g>
    </g>
    <g id="xtick_3">
     <g id="line2d_5">
      <path clip-path="url(#p3a4a70220b)" d="M 218.221714 298.944 
L 218.221714 3.456 
" style="fill:none;stroke:#b0b0b0;stroke-linecap:square;stroke-width:0.8;"/>
     </g>
     <g id="line2d_6">
      <g>
       <use style="stroke:#000000;stroke-width:0.8;" x="218.221714" xlink:href="#me3a5243d3d" y="298.944"/>
      </g>
     </g>
     <g id="text_3">
      <!-- 4 -->
      <defs>
       <path d="M 37.796875 64.3125 
L 12.890625 25.390625 
L 37.796875 25.390625 
z
M 35.203125 72.90625 
L 47.609375 72.90625 
L 47.609375 25.390625 
L 58.015625 25.390625 
L 58.015625 17.1875 
L 47.609375 17.1875 
L 47.609375 0 
L 37.796875 0 
L 37.796875 17.1875 
L 4.890625 17.1875 
L 4.890625 26.703125 
z
" id="DejaVuSans-52"/>
      </defs>
      <g transform="translate(211.859214 321.140875)scale(0.2 -0.2)">
       <use xlink:href="#DejaVuSans-52"/>
      </g>
     </g>
    </g>
    <g id="xtick_4">
     <g id="line2d_7">
      <path clip-path="url(#p3a4a70220b)" d="M 298.532571 298.944 
L 298.532571 3.456 
" style="fill:none;stroke:#b0b0b0;stroke-linecap:square;stroke-width:0.8;"/>
     </g>
     <g id="line2d_8">
      <g>
       <use style="stroke:#000000;stroke-width:0.8;" x="298.532571" xlink:href="#me3a5243d3d" y="298.944"/>
      </g>
     </g>
     <g id="text_4">
      <!-- 6 -->
      <defs>
       <path d="M 33.015625 40.375 
Q 26.375 40.375 22.484375 35.828125 
Q 18.609375 31.296875 18.609375 23.390625 
Q 18.609375 15.53125 22.484375 10.953125 
Q 26.375 6.390625 33.015625 6.390625 
Q 39.65625 6.390625 43.53125 10.953125 
Q 47.40625 15.53125 47.40625 23.390625 
Q 47.40625 31.296875 43.53125 35.828125 
Q 39.65625 40.375 33.015625 40.375 
z
M 52.59375 71.296875 
L 52.59375 62.3125 
Q 48.875 64.0625 45.09375 64.984375 
Q 41.3125 65.921875 37.59375 65.921875 
Q 27.828125 65.921875 22.671875 59.328125 
Q 17.53125 52.734375 16.796875 39.40625 
Q 19.671875 43.65625 24.015625 45.921875 
Q 28.375 48.1875 33.59375 48.1875 
Q 44.578125 48.1875 50.953125 41.515625 
Q 57.328125 34.859375 57.328125 23.390625 
Q 57.328125 12.15625 50.6875 5.359375 
Q 44.046875 -1.421875 33.015625 -1.421875 
Q 20.359375 -1.421875 13.671875 8.265625 
Q 6.984375 17.96875 6.984375 36.375 
Q 6.984375 53.65625 15.1875 63.9375 
Q 23.390625 74.21875 37.203125 74.21875 
Q 40.921875 74.21875 44.703125 73.484375 
Q 48.484375 72.75 52.59375 71.296875 
z
" id="DejaVuSans-54"/>
      </defs>
      <g transform="translate(292.170071 321.140875)scale(0.2 -0.2)">
       <use xlink:href="#DejaVuSans-54"/>
      </g>
     </g>
    </g>
    <g id="xtick_5">
     <g id="line2d_9">
      <path clip-path="url(#p3a4a70220b)" d="M 97.755429 298.944 
L 97.755429 3.456 
" style="fill:none;stroke:#b0b0b0;stroke-linecap:square;stroke-width:0.8;"/>
     </g>
     <g id="line2d_10">
      <defs>
       <path d="M 0 0 
L 0 2 
" id="m4bfc89bdd5" style="stroke:#000000;stroke-width:0.6;"/>
      </defs>
      <g>
       <use style="stroke:#000000;stroke-width:0.6;" x="97.755429" xlink:href="#m4bfc89bdd5" y="298.944"/>
      </g>
     </g>
    </g>
    <g id="xtick_6">
     <g id="line2d_11">
      <path clip-path="url(#p3a4a70220b)" d="M 178.066286 298.944 
L 178.066286 3.456 
" style="fill:none;stroke:#b0b0b0;stroke-linecap:square;stroke-width:0.8;"/>
     </g>
     <g id="line2d_12">
      <g>
       <use style="stroke:#000000;stroke-width:0.6;" x="178.066286" xlink:href="#m4bfc89bdd5" y="298.944"/>
      </g>
     </g>
    </g>
    <g id="xtick_7">
     <g id="line2d_13">
      <path clip-path="url(#p3a4a70220b)" d="M 258.377143 298.944 
L 258.377143 3.456 
" style="fill:none;stroke:#b0b0b0;stroke-linecap:square;stroke-width:0.8;"/>
     </g>
     <g id="line2d_14">
      <g>
       <use style="stroke:#000000;stroke-width:0.6;" x="258.377143" xlink:href="#m4bfc89bdd5" y="298.944"/>
      </g>
     </g>
    </g>
    <g id="xtick_8">
     <g id="line2d_15">
      <path clip-path="url(#p3a4a70220b)" d="M 338.688 298.944 
L 338.688 3.456 
" style="fill:none;stroke:#b0b0b0;stroke-linecap:square;stroke-width:0.8;"/>
     </g>
     <g id="line2d_16">
      <g>
       <use style="stroke:#000000;stroke-width:0.6;" x="338.688" xlink:href="#m4bfc89bdd5" y="298.944"/>
      </g>
     </g>
    </g>
    <g id="text_5">
     <!-- log10(# f-evals / dimension) -->
     <defs>
      <path d="M 9.421875 75.984375 
L 18.40625 75.984375 
L 18.40625 0 
L 9.421875 0 
z
" id="DejaVuSans-108"/>
      <path d="M 30.609375 48.390625 
Q 23.390625 48.390625 19.1875 42.75 
Q 14.984375 37.109375 14.984375 27.296875 
Q 14.984375 17.484375 19.15625 11.84375 
Q 23.34375 6.203125 30.609375 6.203125 
Q 37.796875 6.203125 41.984375 11.859375 
Q 46.1875 17.53125 46.1875 27.296875 
Q 46.1875 37.015625 41.984375 42.703125 
Q 37.796875 48.390625 30.609375 48.390625 
z
M 30.609375 56 
Q 42.328125 56 49.015625 48.375 
Q 55.71875 40.765625 55.71875 27.296875 
Q 55.71875 13.875 49.015625 6.21875 
Q 42.328125 -1.421875 30.609375 -1.421875 
Q 18.84375 -1.421875 12.171875 6.21875 
Q 5.515625 13.875 5.515625 27.296875 
Q 5.515625 40.765625 12.171875 48.375 
Q 18.84375 56 30.609375 56 
z
" id="DejaVuSans-111"/>
      <path d="M 45.40625 27.984375 
Q 45.40625 37.75 41.375 43.109375 
Q 37.359375 48.484375 30.078125 48.484375 
Q 22.859375 48.484375 18.828125 43.109375 
Q 14.796875 37.75 14.796875 27.984375 
Q 14.796875 18.265625 18.828125 12.890625 
Q 22.859375 7.515625 30.078125 7.515625 
Q 37.359375 7.515625 41.375 12.890625 
Q 45.40625 18.265625 45.40625 27.984375 
z
M 54.390625 6.78125 
Q 54.390625 -7.171875 48.1875 -13.984375 
Q 42 -20.796875 29.203125 -20.796875 
Q 24.46875 -20.796875 20.265625 -20.09375 
Q 16.0625 -19.390625 12.109375 -17.921875 
L 12.109375 -9.1875 
Q 16.0625 -11.328125 19.921875 -12.34375 
Q 23.78125 -13.375 27.78125 -13.375 
Q 36.625 -13.375 41.015625 -8.765625 
Q 45.40625 -4.15625 45.40625 5.171875 
L 45.40625 9.625 
Q 42.625 4.78125 38.28125 2.390625 
Q 33.9375 0 27.875 0 
Q 17.828125 0 11.671875 7.65625 
Q 5.515625 15.328125 5.515625 27.984375 
Q 5.515625 40.671875 11.671875 48.328125 
Q 17.828125 56 27.875 56 
Q 33.9375 56 38.28125 53.609375 
Q 42.625 51.21875 45.40625 46.390625 
L 45.40625 54.6875 
L 54.390625 54.6875 
z
" id="DejaVuSans-103"/>
      <path d="M 12.40625 8.296875 
L 28.515625 8.296875 
L 28.515625 63.921875 
L 10.984375 60.40625 
L 10.984375 69.390625 
L 28.421875 72.90625 
L 38.28125 72.90625 
L 38.28125 8.296875 
L 54.390625 8.296875 
L 54.390625 0 
L 12.40625 0 
z
" id="DejaVuSans-49"/>
      <path d="M 31 75.875 
Q 24.46875 64.65625 21.28125 53.65625 
Q 18.109375 42.671875 18.109375 31.390625 
Q 18.109375 20.125 21.3125 9.0625 
Q 24.515625 -2 31 -13.1875 
L 23.1875 -13.1875 
Q 15.875 -1.703125 12.234375 9.375 
Q 8.59375 20.453125 8.59375 31.390625 
Q 8.59375 42.28125 12.203125 53.3125 
Q 15.828125 64.359375 23.1875 75.875 
z
" id="DejaVuSans-40"/>
      <path d="M 51.125 44 
L 36.921875 44 
L 32.8125 27.6875 
L 47.125 27.6875 
z
M 43.796875 71.78125 
L 38.71875 51.515625 
L 52.984375 51.515625 
L 58.109375 71.78125 
L 65.921875 71.78125 
L 60.890625 51.515625 
L 76.125 51.515625 
L 76.125 44 
L 58.984375 44 
L 54.984375 27.6875 
L 70.515625 27.6875 
L 70.515625 20.21875 
L 53.078125 20.21875 
L 48 0 
L 40.1875 0 
L 45.21875 20.21875 
L 30.90625 20.21875 
L 25.875 0 
L 18.015625 0 
L 23.09375 20.21875 
L 7.71875 20.21875 
L 7.71875 27.6875 
L 24.90625 27.6875 
L 29 44 
L 13.28125 44 
L 13.28125 51.515625 
L 30.90625 51.515625 
L 35.890625 71.78125 
z
" id="DejaVuSans-35"/>
      <path id="DejaVuSans-32"/>
      <path d="M 37.109375 75.984375 
L 37.109375 68.5 
L 28.515625 68.5 
Q 23.6875 68.5 21.796875 66.546875 
Q 19.921875 64.59375 19.921875 59.515625 
L 19.921875 54.6875 
L 34.71875 54.6875 
L 34.71875 47.703125 
L 19.921875 47.703125 
L 19.921875 0 
L 10.890625 0 
L 10.890625 47.703125 
L 2.296875 47.703125 
L 2.296875 54.6875 
L 10.890625 54.6875 
L 10.890625 58.5 
Q 10.890625 67.625 15.140625 71.796875 
Q 19.390625 75.984375 28.609375 75.984375 
z
" id="DejaVuSans-102"/>
      <path d="M 4.890625 31.390625 
L 31.203125 31.390625 
L 31.203125 23.390625 
L 4.890625 23.390625 
z
" id="DejaVuSans-45"/>
      <path d="M 56.203125 29.59375 
L 56.203125 25.203125 
L 14.890625 25.203125 
Q 15.484375 15.921875 20.484375 11.0625 
Q 25.484375 6.203125 34.421875 6.203125 
Q 39.59375 6.203125 44.453125 7.46875 
Q 49.3125 8.734375 54.109375 11.28125 
L 54.109375 2.78125 
Q 49.265625 0.734375 44.1875 -0.34375 
Q 39.109375 -1.421875 33.890625 -1.421875 
Q 20.796875 -1.421875 13.15625 6.1875 
Q 5.515625 13.8125 5.515625 26.8125 
Q 5.515625 40.234375 12.765625 48.109375 
Q 20.015625 56 32.328125 56 
Q 43.359375 56 49.78125 48.890625 
Q 56.203125 41.796875 56.203125 29.59375 
z
M 47.21875 32.234375 
Q 47.125 39.59375 43.09375 43.984375 
Q 39.0625 48.390625 32.421875 48.390625 
Q 24.90625 48.390625 20.390625 44.140625 
Q 15.875 39.890625 15.1875 32.171875 
z
" id="DejaVuSans-101"/>
      <path d="M 2.984375 54.6875 
L 12.5 54.6875 
L 29.59375 8.796875 
L 46.6875 54.6875 
L 56.203125 54.6875 
L 35.6875 0 
L 23.484375 0 
z
" id="DejaVuSans-118"/>
      <path d="M 34.28125 27.484375 
Q 23.390625 27.484375 19.1875 25 
Q 14.984375 22.515625 14.984375 16.5 
Q 14.984375 11.71875 18.140625 8.90625 
Q 21.296875 6.109375 26.703125 6.109375 
Q 34.1875 6.109375 38.703125 11.40625 
Q 43.21875 16.703125 43.21875 25.484375 
L 43.21875 27.484375 
z
M 52.203125 31.203125 
L 52.203125 0 
L 43.21875 0 
L 43.21875 8.296875 
Q 40.140625 3.328125 35.546875 0.953125 
Q 30.953125 -1.421875 24.3125 -1.421875 
Q 15.921875 -1.421875 10.953125 3.296875 
Q 6 8.015625 6 15.921875 
Q 6 25.140625 12.171875 29.828125 
Q 18.359375 34.515625 30.609375 34.515625 
L 43.21875 34.515625 
L 43.21875 35.40625 
Q 43.21875 41.609375 39.140625 45 
Q 35.0625 48.390625 27.6875 48.390625 
Q 23 48.390625 18.546875 47.265625 
Q 14.109375 46.140625 10.015625 43.890625 
L 10.015625 52.203125 
Q 14.9375 54.109375 19.578125 55.046875 
Q 24.21875 56 28.609375 56 
Q 40.484375 56 46.34375 49.84375 
Q 52.203125 43.703125 52.203125 31.203125 
z
" id="DejaVuSans-97"/>
      <path d="M 44.28125 53.078125 
L 44.28125 44.578125 
Q 40.484375 46.53125 36.375 47.5 
Q 32.28125 48.484375 27.875 48.484375 
Q 21.1875 48.484375 17.84375 46.4375 
Q 14.5 44.390625 14.5 40.28125 
Q 14.5 37.15625 16.890625 35.375 
Q 19.28125 33.59375 26.515625 31.984375 
L 29.59375 31.296875 
Q 39.15625 29.25 43.1875 25.515625 
Q 47.21875 21.78125 47.21875 15.09375 
Q 47.21875 7.46875 41.1875 3.015625 
Q 35.15625 -1.421875 24.609375 -1.421875 
Q 20.21875 -1.421875 15.453125 -0.5625 
Q 10.6875 0.296875 5.421875 2 
L 5.421875 11.28125 
Q 10.40625 8.6875 15.234375 7.390625 
Q 20.0625 6.109375 24.8125 6.109375 
Q 31.15625 6.109375 34.5625 8.28125 
Q 37.984375 10.453125 37.984375 14.40625 
Q 37.984375 18.0625 35.515625 20.015625 
Q 33.0625 21.96875 24.703125 23.78125 
L 21.578125 24.515625 
Q 13.234375 26.265625 9.515625 29.90625 
Q 5.8125 33.546875 5.8125 39.890625 
Q 5.8125 47.609375 11.28125 51.796875 
Q 16.75 56 26.8125 56 
Q 31.78125 56 36.171875 55.265625 
Q 40.578125 54.546875 44.28125 53.078125 
z
" id="DejaVuSans-115"/>
      <path d="M 25.390625 72.90625 
L 33.6875 72.90625 
L 8.296875 -9.28125 
L 0 -9.28125 
z
" id="DejaVuSans-47"/>
      <path d="M 45.40625 46.390625 
L 45.40625 75.984375 
L 54.390625 75.984375 
L 54.390625 0 
L 45.40625 0 
L 45.40625 8.203125 
Q 42.578125 3.328125 38.25 0.953125 
Q 33.9375 -1.421875 27.875 -1.421875 
Q 17.96875 -1.421875 11.734375 6.484375 
Q 5.515625 14.40625 5.515625 27.296875 
Q 5.515625 40.1875 11.734375 48.09375 
Q 17.96875 56 27.875 56 
Q 33.9375 56 38.25 53.625 
Q 42.578125 51.265625 45.40625 46.390625 
z
M 14.796875 27.296875 
Q 14.796875 17.390625 18.875 11.75 
Q 22.953125 6.109375 30.078125 6.109375 
Q 37.203125 6.109375 41.296875 11.75 
Q 45.40625 17.390625 45.40625 27.296875 
Q 45.40625 37.203125 41.296875 42.84375 
Q 37.203125 48.484375 30.078125 48.484375 
Q 22.953125 48.484375 18.875 42.84375 
Q 14.796875 37.203125 14.796875 27.296875 
z
" id="DejaVuSans-100"/>
      <path d="M 9.421875 54.6875 
L 18.40625 54.6875 
L 18.40625 0 
L 9.421875 0 
z
M 9.421875 75.984375 
L 18.40625 75.984375 
L 18.40625 64.59375 
L 9.421875 64.59375 
z
" id="DejaVuSans-105"/>
      <path d="M 52 44.1875 
Q 55.375 50.25 60.0625 53.125 
Q 64.75 56 71.09375 56 
Q 79.640625 56 84.28125 50.015625 
Q 88.921875 44.046875 88.921875 33.015625 
L 88.921875 0 
L 79.890625 0 
L 79.890625 32.71875 
Q 79.890625 40.578125 77.09375 44.375 
Q 74.3125 48.1875 68.609375 48.1875 
Q 61.625 48.1875 57.5625 43.546875 
Q 53.515625 38.921875 53.515625 30.90625 
L 53.515625 0 
L 44.484375 0 
L 44.484375 32.71875 
Q 44.484375 40.625 41.703125 44.40625 
Q 38.921875 48.1875 33.109375 48.1875 
Q 26.21875 48.1875 22.15625 43.53125 
Q 18.109375 38.875 18.109375 30.90625 
L 18.109375 0 
L 9.078125 0 
L 9.078125 54.6875 
L 18.109375 54.6875 
L 18.109375 46.1875 
Q 21.1875 51.21875 25.484375 53.609375 
Q 29.78125 56 35.6875 56 
Q 41.65625 56 45.828125 52.96875 
Q 50 49.953125 52 44.1875 
z
" id="DejaVuSans-109"/>
      <path d="M 54.890625 33.015625 
L 54.890625 0 
L 45.90625 0 
L 45.90625 32.71875 
Q 45.90625 40.484375 42.875 44.328125 
Q 39.84375 48.1875 33.796875 48.1875 
Q 26.515625 48.1875 22.3125 43.546875 
Q 18.109375 38.921875 18.109375 30.90625 
L 18.109375 0 
L 9.078125 0 
L 9.078125 54.6875 
L 18.109375 54.6875 
L 18.109375 46.1875 
Q 21.34375 51.125 25.703125 53.5625 
Q 30.078125 56 35.796875 56 
Q 45.21875 56 50.046875 50.171875 
Q 54.890625 44.34375 54.890625 33.015625 
z
" id="DejaVuSans-110"/>
      <path d="M 8.015625 75.875 
L 15.828125 75.875 
Q 23.140625 64.359375 26.78125 53.3125 
Q 30.421875 42.28125 30.421875 31.390625 
Q 30.421875 20.453125 26.78125 9.375 
Q 23.140625 -1.703125 15.828125 -13.1875 
L 8.015625 -13.1875 
Q 14.5 -2 17.703125 9.0625 
Q 20.90625 20.125 20.90625 31.390625 
Q 20.90625 42.671875 17.703125 53.65625 
Q 14.5 64.65625 8.015625 75.875 
z
" id="DejaVuSans-41"/>
     </defs>
     <g transform="translate(77.764078 342.217594)scale(0.17 -0.17)">
      <use xlink:href="#DejaVuSans-108"/>
      <use x="27.783203" xlink:href="#DejaVuSans-111"/>
      <use x="88.964844" xlink:href="#DejaVuSans-103"/>
      <use x="152.441406" xlink:href="#DejaVuSans-49"/>
      <use x="216.064453" xlink:href="#DejaVuSans-48"/>
      <use x="279.6875" xlink:href="#DejaVuSans-40"/>
      <use x="318.701172" xlink:href="#DejaVuSans-35"/>
      <use x="402.490234" xlink:href="#DejaVuSans-32"/>
      <use x="434.277344" xlink:href="#DejaVuSans-102"/>
      <use x="463.982422" xlink:href="#DejaVuSans-45"/>
      <use x="500.066406" xlink:href="#DejaVuSans-101"/>
      <use x="561.589844" xlink:href="#DejaVuSans-118"/>
      <use x="620.769531" xlink:href="#DejaVuSans-97"/>
      <use x="682.048828" xlink:href="#DejaVuSans-108"/>
      <use x="709.832031" xlink:href="#DejaVuSans-115"/>
      <use x="761.931641" xlink:href="#DejaVuSans-32"/>
      <use x="793.71875" xlink:href="#DejaVuSans-47"/>
      <use x="827.410156" xlink:href="#DejaVuSans-32"/>
      <use x="859.197266" xlink:href="#DejaVuSans-100"/>
      <use x="922.673828" xlink:href="#DejaVuSans-105"/>
      <use x="950.457031" xlink:href="#DejaVuSans-109"/>
      <use x="1047.869141" xlink:href="#DejaVuSans-101"/>
      <use x="1109.392578" xlink:href="#DejaVuSans-110"/>
      <use x="1172.771484" xlink:href="#DejaVuSans-115"/>
      <use x="1224.871094" xlink:href="#DejaVuSans-105"/>
      <use x="1252.654297" xlink:href="#DejaVuSans-111"/>
      <use x="1313.835938" xlink:href="#DejaVuSans-110"/>
      <use x="1377.214844" xlink:href="#DejaVuSans-41"/>
     </g>
    </g>
   </g>
   <g id="matplotlib.axis_2">
    <g id="ytick_1">
     <g id="line2d_17">
      <path clip-path="url(#p3a4a70220b)" d="M 57.6 298.944 
L 338.688 298.944 
" style="fill:none;stroke:#b0b0b0;stroke-linecap:square;stroke-width:0.8;"/>
     </g>
     <g id="line2d_18">
      <defs>
       <path d="M 0 0 
L -3.5 0 
" id="m762e9d2234" style="stroke:#000000;stroke-width:0.8;"/>
      </defs>
      <g>
       <use style="stroke:#000000;stroke-width:0.8;" x="57.6" xlink:href="#m762e9d2234" y="298.944"/>
      </g>
     </g>
     <g id="text_6">
      <!-- 0.0 -->
      <defs>
       <path d="M 10.6875 12.40625 
L 21 12.40625 
L 21 0 
L 10.6875 0 
z
" id="DejaVuSans-46"/>
      </defs>
      <g transform="translate(25.155 305.02275)scale(0.16 -0.16)">
       <use xlink:href="#DejaVuSans-48"/>
       <use x="63.623047" xlink:href="#DejaVuSans-46"/>
       <use x="95.410156" xlink:href="#DejaVuSans-48"/>
      </g>
     </g>
    </g>
    <g id="ytick_2">
     <g id="line2d_19">
      <path clip-path="url(#p3a4a70220b)" d="M 57.6 240.431525 
L 338.688 240.431525 
" style="fill:none;stroke:#b0b0b0;stroke-linecap:square;stroke-width:0.8;"/>
     </g>
     <g id="line2d_20">
      <g>
       <use style="stroke:#000000;stroke-width:0.8;" x="57.6" xlink:href="#m762e9d2234" y="240.431525"/>
      </g>
     </g>
     <g id="text_7">
      <!-- 0.2 -->
      <g transform="translate(25.155 246.510275)scale(0.16 -0.16)">
       <use xlink:href="#DejaVuSans-48"/>
       <use x="63.623047" xlink:href="#DejaVuSans-46"/>
       <use x="95.410156" xlink:href="#DejaVuSans-50"/>
      </g>
     </g>
    </g>
    <g id="ytick_3">
     <g id="line2d_21">
      <path clip-path="url(#p3a4a70220b)" d="M 57.6 181.91905 
L 338.688 181.91905 
" style="fill:none;stroke:#b0b0b0;stroke-linecap:square;stroke-width:0.8;"/>
     </g>
     <g id="line2d_22">
      <g>
       <use style="stroke:#000000;stroke-width:0.8;" x="57.6" xlink:href="#m762e9d2234" y="181.91905"/>
      </g>
     </g>
     <g id="text_8">
      <!-- 0.4 -->
      <g transform="translate(25.155 187.9978)scale(0.16 -0.16)">
       <use xlink:href="#DejaVuSans-48"/>
       <use x="63.623047" xlink:href="#DejaVuSans-46"/>
       <use x="95.410156" xlink:href="#DejaVuSans-52"/>
      </g>
     </g>
    </g>
    <g id="ytick_4">
     <g id="line2d_23">
      <path clip-path="url(#p3a4a70220b)" d="M 57.6 123.406574 
L 338.688 123.406574 
" style="fill:none;stroke:#b0b0b0;stroke-linecap:square;stroke-width:0.8;"/>
     </g>
     <g id="line2d_24">
      <g>
       <use style="stroke:#000000;stroke-width:0.8;" x="57.6" xlink:href="#m762e9d2234" y="123.406574"/>
      </g>
     </g>
     <g id="text_9">
      <!-- 0.6 -->
      <g transform="translate(25.155 129.485324)scale(0.16 -0.16)">
       <use xlink:href="#DejaVuSans-48"/>
       <use x="63.623047" xlink:href="#DejaVuSans-46"/>
       <use x="95.410156" xlink:href="#DejaVuSans-54"/>
      </g>
     </g>
    </g>
    <g id="ytick_5">
     <g id="line2d_25">
      <path clip-path="url(#p3a4a70220b)" d="M 57.6 64.894099 
L 338.688 64.894099 
" style="fill:none;stroke:#b0b0b0;stroke-linecap:square;stroke-width:0.8;"/>
     </g>
     <g id="line2d_26">
      <g>
       <use style="stroke:#000000;stroke-width:0.8;" x="57.6" xlink:href="#m762e9d2234" y="64.894099"/>
      </g>
     </g>
     <g id="text_10">
      <!-- 0.8 -->
      <defs>
       <path d="M 31.78125 34.625 
Q 24.75 34.625 20.71875 30.859375 
Q 16.703125 27.09375 16.703125 20.515625 
Q 16.703125 13.921875 20.71875 10.15625 
Q 24.75 6.390625 31.78125 6.390625 
Q 38.8125 6.390625 42.859375 10.171875 
Q 46.921875 13.96875 46.921875 20.515625 
Q 46.921875 27.09375 42.890625 30.859375 
Q 38.875 34.625 31.78125 34.625 
z
M 21.921875 38.8125 
Q 15.578125 40.375 12.03125 44.71875 
Q 8.5 49.078125 8.5 55.328125 
Q 8.5 64.0625 14.71875 69.140625 
Q 20.953125 74.21875 31.78125 74.21875 
Q 42.671875 74.21875 48.875 69.140625 
Q 55.078125 64.0625 55.078125 55.328125 
Q 55.078125 49.078125 51.53125 44.71875 
Q 48 40.375 41.703125 38.8125 
Q 48.828125 37.15625 52.796875 32.3125 
Q 56.78125 27.484375 56.78125 20.515625 
Q 56.78125 9.90625 50.3125 4.234375 
Q 43.84375 -1.421875 31.78125 -1.421875 
Q 19.734375 -1.421875 13.25 4.234375 
Q 6.78125 9.90625 6.78125 20.515625 
Q 6.78125 27.484375 10.78125 32.3125 
Q 14.796875 37.15625 21.921875 38.8125 
z
M 18.3125 54.390625 
Q 18.3125 48.734375 21.84375 45.5625 
Q 25.390625 42.390625 31.78125 42.390625 
Q 38.140625 42.390625 41.71875 45.5625 
Q 45.3125 48.734375 45.3125 54.390625 
Q 45.3125 60.0625 41.71875 63.234375 
Q 38.140625 66.40625 31.78125 66.40625 
Q 25.390625 66.40625 21.84375 63.234375 
Q 18.3125 60.0625 18.3125 54.390625 
z
" id="DejaVuSans-56"/>
      </defs>
      <g transform="translate(25.155 70.972849)scale(0.16 -0.16)">
       <use xlink:href="#DejaVuSans-48"/>
       <use x="63.623047" xlink:href="#DejaVuSans-46"/>
       <use x="95.410156" xlink:href="#DejaVuSans-56"/>
      </g>
     </g>
    </g>
    <g id="ytick_6">
     <g id="line2d_27">
      <path clip-path="url(#p3a4a70220b)" d="M 57.6 6.381624 
L 338.688 6.381624 
" style="fill:none;stroke:#b0b0b0;stroke-linecap:square;stroke-width:0.8;"/>
     </g>
     <g id="line2d_28">
      <g>
       <use style="stroke:#000000;stroke-width:0.8;" x="57.6" xlink:href="#m762e9d2234" y="6.381624"/>
      </g>
     </g>
     <g id="text_11">
      <!-- 1.0 -->
      <g transform="translate(25.155 12.460374)scale(0.16 -0.16)">
       <use xlink:href="#DejaVuSans-49"/>
       <use x="63.623047" xlink:href="#DejaVuSans-46"/>
       <use x="95.410156" xlink:href="#DejaVuSans-48"/>
      </g>
     </g>
    </g>
    <g id="text_12">
     <!-- Fraction of function,target pairs -->
     <defs>
      <path d="M 9.8125 72.90625 
L 51.703125 72.90625 
L 51.703125 64.59375 
L 19.671875 64.59375 
L 19.671875 43.109375 
L 48.578125 43.109375 
L 48.578125 34.8125 
L 19.671875 34.8125 
L 19.671875 0 
L 9.8125 0 
z
" id="DejaVuSans-70"/>
      <path d="M 41.109375 46.296875 
Q 39.59375 47.171875 37.8125 47.578125 
Q 36.03125 48 33.890625 48 
Q 26.265625 48 22.1875 43.046875 
Q 18.109375 38.09375 18.109375 28.8125 
L 18.109375 0 
L 9.078125 0 
L 9.078125 54.6875 
L 18.109375 54.6875 
L 18.109375 46.1875 
Q 20.953125 51.171875 25.484375 53.578125 
Q 30.03125 56 36.53125 56 
Q 37.453125 56 38.578125 55.875 
Q 39.703125 55.765625 41.0625 55.515625 
z
" id="DejaVuSans-114"/>
      <path d="M 48.78125 52.59375 
L 48.78125 44.1875 
Q 44.96875 46.296875 41.140625 47.34375 
Q 37.3125 48.390625 33.40625 48.390625 
Q 24.65625 48.390625 19.8125 42.84375 
Q 14.984375 37.3125 14.984375 27.296875 
Q 14.984375 17.28125 19.8125 11.734375 
Q 24.65625 6.203125 33.40625 6.203125 
Q 37.3125 6.203125 41.140625 7.25 
Q 44.96875 8.296875 48.78125 10.40625 
L 48.78125 2.09375 
Q 45.015625 0.34375 40.984375 -0.53125 
Q 36.96875 -1.421875 32.421875 -1.421875 
Q 20.0625 -1.421875 12.78125 6.34375 
Q 5.515625 14.109375 5.515625 27.296875 
Q 5.515625 40.671875 12.859375 48.328125 
Q 20.21875 56 33.015625 56 
Q 37.15625 56 41.109375 55.140625 
Q 45.0625 54.296875 48.78125 52.59375 
z
" id="DejaVuSans-99"/>
      <path d="M 18.3125 70.21875 
L 18.3125 54.6875 
L 36.8125 54.6875 
L 36.8125 47.703125 
L 18.3125 47.703125 
L 18.3125 18.015625 
Q 18.3125 11.328125 20.140625 9.421875 
Q 21.96875 7.515625 27.59375 7.515625 
L 36.8125 7.515625 
L 36.8125 0 
L 27.59375 0 
Q 17.1875 0 13.234375 3.875 
Q 9.28125 7.765625 9.28125 18.015625 
L 9.28125 47.703125 
L 2.6875 47.703125 
L 2.6875 54.6875 
L 9.28125 54.6875 
L 9.28125 70.21875 
z
" id="DejaVuSans-116"/>
      <path d="M 8.5 21.578125 
L 8.5 54.6875 
L 17.484375 54.6875 
L 17.484375 21.921875 
Q 17.484375 14.15625 20.5 10.265625 
Q 23.53125 6.390625 29.59375 6.390625 
Q 36.859375 6.390625 41.078125 11.03125 
Q 45.3125 15.671875 45.3125 23.6875 
L 45.3125 54.6875 
L 54.296875 54.6875 
L 54.296875 0 
L 45.3125 0 
L 45.3125 8.40625 
Q 42.046875 3.421875 37.71875 1 
Q 33.40625 -1.421875 27.6875 -1.421875 
Q 18.265625 -1.421875 13.375 4.4375 
Q 8.5 10.296875 8.5 21.578125 
z
M 31.109375 56 
z
" id="DejaVuSans-117"/>
      <path d="M 11.71875 12.40625 
L 22.015625 12.40625 
L 22.015625 4 
L 14.015625 -11.625 
L 7.71875 -11.625 
L 11.71875 4 
z
" id="DejaVuSans-44"/>
      <path d="M 18.109375 8.203125 
L 18.109375 -20.796875 
L 9.078125 -20.796875 
L 9.078125 54.6875 
L 18.109375 54.6875 
L 18.109375 46.390625 
Q 20.953125 51.265625 25.265625 53.625 
Q 29.59375 56 35.59375 56 
Q 45.5625 56 51.78125 48.09375 
Q 58.015625 40.1875 58.015625 27.296875 
Q 58.015625 14.40625 51.78125 6.484375 
Q 45.5625 -1.421875 35.59375 -1.421875 
Q 29.59375 -1.421875 25.265625 0.953125 
Q 20.953125 3.328125 18.109375 8.203125 
z
M 48.6875 27.296875 
Q 48.6875 37.203125 44.609375 42.84375 
Q 40.53125 48.484375 33.40625 48.484375 
Q 26.265625 48.484375 22.1875 42.84375 
Q 18.109375 37.203125 18.109375 27.296875 
Q 18.109375 17.390625 22.1875 11.75 
Q 26.265625 6.109375 33.40625 6.109375 
Q 40.53125 6.109375 44.609375 11.75 
Q 48.6875 17.390625 48.6875 27.296875 
z
" id="DejaVuSans-112"/>
     </defs>
     <g transform="translate(17.619531 285.585)rotate(-90)scale(0.17 -0.17)">
      <use xlink:href="#DejaVuSans-70"/>
      <use x="50.269531" xlink:href="#DejaVuSans-114"/>
      <use x="91.382812" xlink:href="#DejaVuSans-97"/>
      <use x="152.662109" xlink:href="#DejaVuSans-99"/>
      <use x="207.642578" xlink:href="#DejaVuSans-116"/>
      <use x="246.851562" xlink:href="#DejaVuSans-105"/>
      <use x="274.634766" xlink:href="#DejaVuSans-111"/>
      <use x="335.816406" xlink:href="#DejaVuSans-110"/>
      <use x="399.195312" xlink:href="#DejaVuSans-32"/>
      <use x="430.982422" xlink:href="#DejaVuSans-111"/>
      <use x="492.164062" xlink:href="#DejaVuSans-102"/>
      <use x="527.369141" xlink:href="#DejaVuSans-32"/>
      <use x="559.15625" xlink:href="#DejaVuSans-102"/>
      <use x="594.361328" xlink:href="#DejaVuSans-117"/>
      <use x="657.740234" xlink:href="#DejaVuSans-110"/>
      <use x="721.119141" xlink:href="#DejaVuSans-99"/>
      <use x="776.099609" xlink:href="#DejaVuSans-116"/>
      <use x="815.308594" xlink:href="#DejaVuSans-105"/>
      <use x="843.091797" xlink:href="#DejaVuSans-111"/>
      <use x="904.273438" xlink:href="#DejaVuSans-110"/>
      <use x="967.652344" xlink:href="#DejaVuSans-44"/>
      <use x="999.439453" xlink:href="#DejaVuSans-116"/>
      <use x="1038.648438" xlink:href="#DejaVuSans-97"/>
      <use x="1099.927734" xlink:href="#DejaVuSans-114"/>
      <use x="1139.291016" xlink:href="#DejaVuSans-103"/>
      <use x="1202.767578" xlink:href="#DejaVuSans-101"/>
      <use x="1264.291016" xlink:href="#DejaVuSans-116"/>
      <use x="1303.5" xlink:href="#DejaVuSans-32"/>
      <use x="1335.287109" xlink:href="#DejaVuSans-112"/>
      <use x="1398.763672" xlink:href="#DejaVuSans-97"/>
      <use x="1460.042969" xlink:href="#DejaVuSans-105"/>
      <use x="1487.826172" xlink:href="#DejaVuSans-114"/>
      <use x="1528.939453" xlink:href="#DejaVuSans-115"/>
     </g>
    </g>
   </g>
   <g id="line2d_29">
    <defs>
     <path d="M 0 1.5 
C 0.397805 1.5 0.77937 1.341951 1.06066 1.06066 
C 1.341951 0.77937 1.5 0.397805 1.5 0 
C 1.5 -0.397805 1.341951 -0.77937 1.06066 -1.06066 
C 0.77937 -1.341951 0.397805 -1.5 0 -1.5 
C -0.397805 -1.5 -0.77937 -1.341951 -1.06066 -1.06066 
C -1.341951 -0.77937 -1.5 -0.397805 -1.5 0 
C -1.5 0.397805 -1.341951 0.77937 -1.06066 1.06066 
C -0.77937 1.341951 -0.397805 1.5 0 1.5 
z
" id="ma141ec1a2a" style="stroke:#000080;"/>
    </defs>
    <g>
     <use style="fill:#000080;stroke:#000080;" x="207.469411" xlink:href="#ma141ec1a2a" y="6.381624"/>
     <use style="fill:#000080;stroke:#000080;" x="207.469411" xlink:href="#ma141ec1a2a" y="6.381624"/>
    </g>
   </g>
   <g id="line2d_30">
    <path d="M 45.512012 298.944 
L 45.512012 294.354786 
L 96.86091 294.354786 
L 96.86091 293.781135 
L 98.606294 293.781135 
L 98.606294 293.207483 
L 100.192776 293.207483 
L 100.192776 292.633831 
L 101.646892 292.633831 
L 101.646892 292.060179 
L 102.330873 292.060179 
L 102.330873 290.339224 
L 105.951954 290.339224 
L 105.951954 289.765573 
L 106.48859 289.765573 
L 106.48859 289.191921 
L 107.009204 289.191921 
L 107.009204 285.75001 
L 107.514726 285.75001 
L 107.514726 285.176359 
L 108.006005 285.176359 
L 108.006005 280.013493 
L 108.483824 280.013493 
L 108.483824 275.42428 
L 108.948899 275.42428 
L 108.948899 269.687762 
L 110.694282 269.687762 
L 110.694282 269.114111 
L 111.104637 269.114111 
L 111.104637 268.540459 
L 113.022974 268.540459 
L 113.022974 266.819504 
L 113.73488 266.819504 
L 113.73488 266.245852 
L 114.751048 266.245852 
L 114.751048 265.6722 
L 115.077025 265.6722 
L 115.077025 265.098549 
L 118.838828 265.098549 
L 118.838828 259.362031 
L 119.351785 259.362031 
L 119.351785 258.78838 
L 119.602714 258.78838 
L 119.602714 258.214728 
L 120.33454 258.214728 
L 120.33454 256.493773 
L 120.571812 256.493773 
L 120.571812 255.920121 
L 120.8059 255.920121 
L 120.8059 254.772818 
L 121.931406 254.772818 
L 121.931406 253.625514 
L 122.148045 253.625514 
L 122.148045 251.904559 
L 122.362027 251.904559 
L 122.362027 250.757256 
L 122.573415 250.757256 
L 122.573415 249.609952 
L 122.782271 249.609952 
L 122.782271 249.036301 
L 123.192626 249.036301 
L 123.192626 247.888997 
L 123.593547 247.888997 
L 123.593547 247.315345 
L 123.790603 247.315345 
L 123.790603 246.741694 
L 123.985457 246.741694 
L 123.985457 245.59439 
L 124.368753 245.59439 
L 124.368753 244.447087 
L 124.557288 244.447087 
L 124.557288 243.299783 
L 124.743806 243.299783 
L 124.743806 239.857873 
L 125.110962 239.857873 
L 125.110962 238.136918 
L 125.470548 238.136918 
L 125.470548 236.989614 
L 125.647598 236.989614 
L 125.647598 235.268659 
L 125.822869 235.268659 
L 125.822869 233.547704 
L 125.996395 233.547704 
L 125.996395 232.974052 
L 126.168212 232.974052 
L 126.168212 231.826749 
L 126.338353 231.826749 
L 126.338353 231.253097 
L 126.50685 231.253097 
L 126.50685 228.384839 
L 126.673734 228.384839 
L 126.673734 222.648321 
L 126.839037 222.648321 
L 126.839037 220.927366 
L 127.002787 220.927366 
L 127.002787 217.485456 
L 127.165014 217.485456 
L 127.165014 216.911804 
L 127.325746 216.911804 
L 127.325746 213.469894 
L 127.48501 213.469894 
L 127.48501 212.896242 
L 127.642832 212.896242 
L 127.642832 211.748939 
L 127.799239 211.748939 
L 127.799239 207.733377 
L 128.107907 207.733377 
L 128.107907 206.586073 
L 128.260216 206.586073 
L 128.260216 206.012422 
L 128.560901 206.012422 
L 128.560901 198.554949 
L 128.709321 198.554949 
L 128.709321 197.407646 
L 128.856489 197.407646 
L 128.856489 196.260342 
L 129.002426 196.260342 
L 129.002426 194.539387 
L 129.290685 194.539387 
L 129.290685 189.376522 
L 129.433047 189.376522 
L 129.433047 187.655567 
L 129.574256 187.655567 
L 129.574256 185.36096 
L 129.714332 185.36096 
L 129.714332 181.91905 
L 129.853291 181.91905 
L 129.853291 180.198094 
L 130.127931 180.198094 
L 130.127931 176.756184 
L 130.263646 176.756184 
L 130.263646 175.035229 
L 130.398313 175.035229 
L 130.398313 172.740622 
L 130.531948 172.740622 
L 130.531948 171.019667 
L 130.664567 171.019667 
L 130.664567 165.28315 
L 130.796184 165.28315 
L 130.796184 164.709498 
L 130.926816 164.709498 
L 130.926816 162.988543 
L 131.056477 162.988543 
L 131.056477 162.414891 
L 131.185181 162.414891 
L 131.185181 158.972981 
L 131.312942 158.972981 
L 131.312942 156.678374 
L 131.439773 156.678374 
L 131.439773 155.53107 
L 131.565689 155.53107 
L 131.565689 154.957419 
L 131.690703 154.957419 
L 131.690703 152.662812 
L 131.814826 152.662812 
L 131.814826 146.352643 
L 131.938072 146.352643 
L 131.938072 145.20534 
L 132.060454 145.20534 
L 132.060454 141.763429 
L 132.181982 141.763429 
L 132.181982 140.042474 
L 132.30267 140.042474 
L 132.30267 137.747867 
L 132.541568 137.747867 
L 132.541568 134.879609 
L 132.659801 134.879609 
L 132.659801 131.437698 
L 132.777237 131.437698 
L 132.777237 129.716743 
L 132.893889 129.716743 
L 132.893889 125.127529 
L 133.009765 125.127529 
L 133.009765 123.406574 
L 133.124876 123.406574 
L 133.124876 119.964664 
L 133.239232 119.964664 
L 133.239232 118.243709 
L 133.352844 118.243709 
L 133.352844 117.670057 
L 133.46572 117.670057 
L 133.46572 117.096405 
L 133.57787 117.096405 
L 133.57787 116.522754 
L 133.689303 116.522754 
L 133.800029 113.080843 
L 133.910056 113.080843 
L 134.019394 111.359888 
L 134.12805 111.359888 
L 134.12805 109.638933 
L 134.343353 109.638933 
L 134.450015 104.476068 
L 134.766144 104.476068 
L 134.870259 99.313202 
L 135.076644 99.313202 
L 135.178927 95.29764 
L 135.381712 95.29764 
L 135.482227 94.150337 
L 135.780341 94.150337 
L 135.878591 92.429381 
L 135.97629 92.429381 
L 136.073445 89.561123 
L 136.170062 89.561123 
L 136.266147 86.692864 
L 136.361705 86.692864 
L 136.456742 80.956347 
L 136.551264 80.956347 
L 136.645276 78.088089 
L 136.831795 78.088089 
L 136.831795 76.367133 
L 137.107884 76.367133 
L 137.107884 75.21983 
L 137.289545 75.21983 
L 137.37967 72.925223 
L 137.469333 72.925223 
L 137.558536 68.909661 
L 137.647286 68.909661 
L 137.647286 67.188706 
L 137.910857 67.188706 
L 137.910857 66.615054 
L 138.170504 66.615054 
L 138.256201 64.894099 
L 138.341479 64.894099 
L 138.341479 63.746796 
L 138.761723 63.746796 
L 138.84457 58.58393 
L 138.927025 58.58393 
L 139.009092 57.436627 
L 139.652088 57.436627 
L 139.730821 55.14202 
L 140.042245 55.14202 
L 140.11924 52.847413 
L 140.499195 52.847413 
L 140.574203 49.979154 
L 140.79731 49.979154 
L 140.79731 48.831851 
L 141.090414 48.831851 
L 141.090414 47.110896 
L 141.521035 47.110896 
L 141.521035 45.963592 
L 141.871938 45.963592 
L 141.871938 44.816289 
L 142.010346 44.816289 
L 142.010346 44.242637 
L 142.147664 44.242637 
L 142.147664 41.94803 
L 142.553247 41.94803 
L 142.553247 40.800727 
L 142.686372 40.800727 
L 142.686372 38.50612 
L 142.818488 38.50612 
L 142.818488 37.932468 
L 143.208936 37.932468 
L 143.208936 35.637861 
L 143.653678 35.637861 
L 143.716296 34.490558 
L 143.778691 34.490558 
L 143.778691 32.195951 
L 143.902815 32.195951 
L 143.964547 29.327692 
L 144.747789 29.327692 
L 144.747789 28.754041 
L 146.161795 28.754041 
L 146.161795 27.033086 
L 146.591092 27.033086 
L 146.591092 26.459434 
L 153.750233 26.459434 
L 153.750233 25.885782 
L 154.57429 25.885782 
L 154.57429 25.31213 
L 156.052535 25.31213 
L 156.052535 24.738479 
L 156.236431 24.738479 
L 156.236431 24.164827 
L 159.405822 24.164827 
L 159.507213 23.017524 
L 159.980933 23.017524 
L 159.980933 22.443872 
L 160.56149 22.443872 
L 160.56149 21.87022 
L 160.86807 21.87022 
L 160.86807 21.296568 
L 162.281931 21.296568 
L 162.281931 20.722917 
L 167.449146 20.722917 
L 167.449146 20.149265 
L 167.76681 20.149265 
L 167.76681 19.575613 
L 168.370092 19.575613 
L 168.370092 19.001962 
L 168.879523 19.001962 
L 168.879523 18.42831 
L 169.085039 18.42831 
L 169.085039 17.854658 
L 169.259288 17.854658 
L 169.259288 16.707355 
L 169.630959 16.707355 
L 169.630959 16.133703 
L 172.093501 16.133703 
L 172.093501 15.560051 
L 174.196608 15.560051 
L 174.196608 14.9864 
L 175.221811 14.9864 
L 175.221811 14.412748 
L 177.226752 14.412748 
L 177.226752 13.839096 
L 177.705065 13.839096 
L 177.705065 13.265444 
L 178.403079 13.265444 
L 178.403079 12.691793 
L 178.8005 12.691793 
L 178.8005 12.118141 
L 183.479815 12.118141 
L 183.505367 10.970838 
L 184.002497 10.970838 
L 184.002497 10.397186 
L 185.044047 10.397186 
L 185.044047 9.823534 
L 186.328086 9.823534 
L 186.328086 9.249882 
L 187.569598 9.249882 
L 187.569598 8.676231 
L 189.841947 8.676231 
L 189.841947 8.102579 
L 194.418415 8.102579 
L 194.418415 7.528927 
L 206.554136 7.528927 
L 206.554136 6.955275 
L 207.469411 6.955275 
L 207.469411 6.381624 
L 338.688 6.381624 
L 338.688 6.381624 
" style="fill:none;stroke:#000080;stroke-linecap:square;stroke-width:1.5;"/>
   </g>
   <g id="line2d_31">
    <defs>
     <path d="M 0 6 
C 1.591219 6 3.117479 5.367802 4.242641 4.242641 
C 5.367802 3.117479 6 1.591219 6 0 
C 6 -1.591219 5.367802 -3.117479 4.242641 -4.242641 
C 3.117479 -5.367802 1.591219 -6 0 -6 
C -1.591219 -6 -3.117479 -5.367802 -4.242641 -4.242641 
C -5.367802 -3.117479 -6 -1.591219 -6 0 
C -6 1.591219 -5.367802 3.117479 -4.242641 4.242641 
C -3.117479 5.367802 -1.591219 6 0 6 
z
" id="mfaeaf976ae" style="stroke:#000080;stroke-width:1.5;"/>
    </defs>
    <g>
     <use style="fill-opacity:0;stroke:#000080;stroke-width:1.5;" x="126.50685" xlink:href="#mfaeaf976ae" y="228.384839"/>
     <use style="fill-opacity:0;stroke:#000080;stroke-width:1.5;" x="135.381712" xlink:href="#mfaeaf976ae" y="94.723988"/>
     <use style="fill-opacity:0;stroke:#000080;stroke-width:1.5;" x="207.469411" xlink:href="#mfaeaf976ae" y="6.955275"/>
     <use style="fill-opacity:0;stroke:#000080;stroke-width:1.5;" x="207.469411" xlink:href="#mfaeaf976ae" y="6.381624"/>
     <use style="fill-opacity:0;stroke:#000080;stroke-width:1.5;" x="207.469411" xlink:href="#mfaeaf976ae" y="6.381624"/>
     <use style="fill-opacity:0;stroke:#000080;stroke-width:1.5;" x="338.688" xlink:href="#mfaeaf976ae" y="6.381624"/>
    </g>
   </g>
   <g id="line2d_32">
    <path style="fill:none;stroke:#000080;stroke-linecap:square;stroke-width:1.5;"/>
    <g/>
   </g>
   <g id="line2d_33">
    <path clip-path="url(#p3a4a70220b)" d="M 152.549559 26.459434 
" style="fill:none;stroke:#000080;stroke-linecap:square;stroke-width:1.5;"/>
    <defs>
     <path d="M -12 12 
L 12 -12 
M -12 -12 
L 12 12 
" id="ma8b9ee5a18" style="stroke:#000080;"/>
    </defs>
    <g clip-path="url(#p3a4a70220b)">
     <use style="fill:#000080;stroke:#000080;" x="152.549559" xlink:href="#ma8b9ee5a18" y="26.459434"/>
    </g>
   </g>
   <g id="line2d_34">
    <defs>
     <path d="M 0 1.5 
C 0.397805 1.5 0.77937 1.341951 1.06066 1.06066 
C 1.341951 0.77937 1.5 0.397805 1.5 0 
C 1.5 -0.397805 1.341951 -0.77937 1.06066 -1.06066 
C 0.77937 -1.341951 0.397805 -1.5 0 -1.5 
C -0.397805 -1.5 -0.77937 -1.341951 -1.06066 -1.06066 
C -1.341951 -0.77937 -1.5 -0.397805 -1.5 0 
C -1.5 0.397805 -1.341951 0.77937 -1.06066 1.06066 
C -0.77937 1.341951 -0.397805 1.5 0 1.5 
z
" id="me57c0957b2" style="stroke:#ff00ff;"/>
    </defs>
    <g>
     <use style="fill:#ff00ff;stroke:#ff00ff;" x="212.45647" xlink:href="#me57c0957b2" y="189.950174"/>
     <use style="fill:#ff00ff;stroke:#ff00ff;" x="212.45647" xlink:href="#me57c0957b2" y="189.950174"/>
    </g>
   </g>
   <g id="line2d_35">
    <path d="M 45.512012 298.944 
L 45.512012 282.3081 
L 88.846997 282.3081 
L 88.846997 278.292538 
L 91.535274 278.292538 
L 91.535274 277.718886 
L 93.863965 277.718886 
L 93.863965 276.571583 
L 96.86091 276.571583 
L 96.86091 275.997931 
L 99.41757 275.997931 
L 99.41757 275.42428 
L 115.077025 275.42428 
L 115.077025 266.819504 
L 115.397021 266.819504 
L 115.397021 265.098549 
L 115.711251 265.098549 
L 115.711251 264.524897 
L 116.621333 264.524897 
L 116.621333 262.803942 
L 120.571812 262.803942 
L 120.571812 262.23029 
L 120.8059 262.23029 
L 120.8059 261.082987 
L 121.036887 261.082987 
L 121.036887 260.509335 
L 126.338353 260.509335 
L 126.338353 259.935683 
L 126.50685 259.935683 
L 126.50685 259.362031 
L 126.839037 259.362031 
L 126.839037 256.493773 
L 131.690703 256.493773 
L 131.690703 255.920121 
L 133.352844 255.920121 
L 133.352844 253.625514 
L 133.689303 253.625514 
L 133.689303 251.904559 
L 134.019394 251.904559 
L 134.019394 250.757256 
L 140.944478 250.757256 
L 141.017599 249.036301 
L 141.521035 249.036301 
L 141.521035 246.168042 
L 142.07914 246.168042 
L 142.07914 245.59439 
L 142.215919 245.59439 
L 142.215919 244.447087 
L 142.419098 244.447087 
L 142.419098 243.873435 
L 145.212864 243.873435 
L 145.212864 243.299783 
L 145.384119 243.299783 
L 145.440832 241.005176 
L 145.553708 241.005176 
L 145.553708 237.563266 
L 145.888018 237.563266 
L 145.888018 234.121356 
L 147.96658 234.121356 
L 147.96658 232.974052 
L 150.129152 232.974052 
L 150.129152 231.253097 
L 150.891184 231.253097 
L 150.891184 230.679446 
L 151.700576 230.679446 
L 151.700576 230.105794 
L 153.142033 230.105794 
L 153.142033 228.95849 
L 153.359122 228.95849 
L 153.359122 228.384839 
L 153.679772 228.384839 
L 153.715038 227.237535 
L 156.508689 227.237535 
L 156.508689 226.663884 
L 159.226956 226.663884 
L 159.252621 225.51658 
L 160.200913 225.51658 
L 160.200913 224.942928 
L 160.321935 224.942928 
L 160.321935 224.369277 
L 160.609008 224.369277 
L 160.703658 222.648321 
L 162.770815 222.648321 
L 162.812686 221.501018 
L 163.50953 221.501018 
L 163.50953 220.927366 
L 163.808326 220.927366 
L 163.847782 219.780063 
L 164.19892 219.780063 
L 164.19892 219.206411 
L 165.732422 219.206411 
L 165.803027 218.059108 
L 167.656285 218.059108 
L 167.656285 217.485456 
L 168.278627 217.485456 
L 168.354881 215.190849 
L 169.659223 215.190849 
L 169.659223 214.617197 
L 170.753812 214.617197 
L 170.753812 214.043546 
L 171.030109 214.043546 
L 171.030109 213.469894 
L 171.846131 213.469894 
L 171.908303 212.322591 
L 172.240256 212.322591 
L 172.240256 211.748939 
L 172.897518 211.748939 
L 172.897518 211.175287 
L 173.09576 211.175287 
L 173.09576 210.601635 
L 173.257343 210.601635 
L 173.280304 209.454332 
L 173.485609 209.454332 
L 173.485609 208.88068 
L 173.710926 208.88068 
L 173.710926 208.307029 
L 173.866933 208.307029 
L 173.866933 207.733377 
L 174.616074 207.733377 
L 174.616074 207.159725 
L 174.890216 207.159725 
L 174.890216 206.586073 
L 175.324155 206.586073 
L 175.324155 205.43877 
L 177.153401 205.43877 
L 177.153401 204.865118 
L 177.408792 204.865118 
L 177.408792 204.291467 
L 177.899821 204.291467 
L 177.899821 203.717815 
L 178.022633 203.717815 
L 178.022633 203.144163 
L 179.432635 203.144163 
L 179.432635 202.570511 
L 180.781946 202.570511 
L 180.781946 201.99686 
L 181.033834 201.99686 
L 181.033834 201.423208 
L 181.216753 201.423208 
L 181.238575 199.702253 
L 181.455304 199.702253 
L 181.455304 199.128601 
L 182.255154 199.128601 
L 182.255154 198.554949 
L 182.473233 198.554949 
L 182.567792 197.407646 
L 184.082962 197.407646 
L 184.082962 196.833994 
L 184.985507 196.833994 
L 184.985507 196.260342 
L 186.032405 196.260342 
L 186.032405 195.686691 
L 187.124054 195.686691 
L 187.124054 195.113039 
L 188.652705 195.113039 
L 188.652705 194.539387 
L 189.264345 194.539387 
L 189.342168 193.392084 
L 197.749242 193.392084 
L 197.749242 192.818432 
L 199.263837 192.818432 
L 199.263837 192.24478 
L 200.276004 192.24478 
L 200.276004 191.671129 
L 208.266657 191.671129 
L 208.266657 191.097477 
L 211.806146 191.097477 
L 211.806146 190.523825 
L 212.45647 190.523825 
L 212.45647 189.950174 
L 338.688 189.950174 
L 338.688 189.950174 
" style="fill:none;stroke:#ff00ff;stroke-linecap:square;stroke-width:1.5;"/>
   </g>
   <g id="line2d_36">
    <defs>
     <path d="M -0 8.485281 
L 5.091169 0 
L 0 -8.485281 
L -5.091169 -0 
z
" id="m49a4ef800c" style="stroke:#ff00ff;stroke-linejoin:miter;stroke-width:1.5;"/>
    </defs>
    <g>
     <use style="fill-opacity:0;stroke:#ff00ff;stroke-linejoin:miter;stroke-width:1.5;" x="99.41757" xlink:href="#m49a4ef800c" y="275.997931"/>
     <use style="fill-opacity:0;stroke:#ff00ff;stroke-linejoin:miter;stroke-width:1.5;" x="151.700576" xlink:href="#m49a4ef800c" y="230.679446"/>
     <use style="fill-opacity:0;stroke:#ff00ff;stroke-linejoin:miter;stroke-width:1.5;" x="212.45647" xlink:href="#m49a4ef800c" y="190.523825"/>
     <use style="fill-opacity:0;stroke:#ff00ff;stroke-linejoin:miter;stroke-width:1.5;" x="212.45647" xlink:href="#m49a4ef800c" y="189.950174"/>
     <use style="fill-opacity:0;stroke:#ff00ff;stroke-linejoin:miter;stroke-width:1.5;" x="212.45647" xlink:href="#m49a4ef800c" y="189.950174"/>
     <use style="fill-opacity:0;stroke:#ff00ff;stroke-linejoin:miter;stroke-width:1.5;" x="338.688" xlink:href="#m49a4ef800c" y="189.950174"/>
    </g>
   </g>
   <g id="line2d_37">
    <path style="fill:none;stroke:#ff00ff;stroke-linecap:square;stroke-width:1.5;"/>
    <g/>
   </g>
   <g id="line2d_38">
    <path clip-path="url(#p3a4a70220b)" d="M 150.808139 231.253097 
" style="fill:none;stroke:#ff00ff;stroke-linecap:square;stroke-width:1.5;"/>
    <defs>
     <path d="M -12 12 
L 12 -12 
M -12 -12 
L 12 12 
" id="m668bbffd20" style="stroke:#ff00ff;"/>
    </defs>
    <g clip-path="url(#p3a4a70220b)">
     <use style="fill:#ff00ff;stroke:#ff00ff;" x="150.808139" xlink:href="#m668bbffd20" y="231.253097"/>
    </g>
   </g>
   <g id="line2d_39">
    <defs>
     <path d="M 0 1.5 
C 0.397805 1.5 0.77937 1.341951 1.06066 1.06066 
C 1.341951 0.77937 1.5 0.397805 1.5 0 
C 1.5 -0.397805 1.341951 -0.77937 1.06066 -1.06066 
C 0.77937 -1.341951 0.397805 -1.5 0 -1.5 
C -0.397805 -1.5 -0.77937 -1.341951 -1.06066 -1.06066 
C -1.341951 -0.77937 -1.5 -0.397805 -1.5 0 
C -1.5 0.397805 -1.341951 0.77937 -1.06066 1.06066 
C -0.77937 1.341951 -0.397805 1.5 0 1.5 
z
" id="mc336bd0940" style="stroke:#ffa500;"/>
    </defs>
    <g>
     <use style="fill:#ffa500;stroke:#ffa500;" x="141.162927" xlink:href="#mc336bd0940" y="6.381624"/>
     <use style="fill:#ffa500;stroke:#ffa500;" x="141.162927" xlink:href="#mc336bd0940" y="6.381624"/>
    </g>
   </g>
   <g id="line2d_40">
    <path d="M 45.512012 298.944 
L 45.512012 291.486528 
L 87.329581 291.486528 
L 87.329581 290.912876 
L 96.86091 290.912876 
L 96.86091 289.765573 
L 98.606294 289.765573 
L 98.606294 289.191921 
L 99.41757 289.191921 
L 99.41757 288.044617 
L 100.192776 288.044617 
L 100.192776 286.323662 
L 100.934985 286.323662 
L 100.934985 285.75001 
L 101.646892 285.75001 
L 101.646892 285.176359 
L 102.330873 285.176359 
L 102.330873 284.602707 
L 102.989037 284.602707 
L 102.989037 282.3081 
L 103.623262 282.3081 
L 103.623262 280.587145 
L 104.23523 280.587145 
L 104.23523 280.013493 
L 105.398279 280.013493 
L 105.398279 275.42428 
L 105.951954 275.42428 
L 105.951954 271.982369 
L 106.48859 271.982369 
L 106.48859 259.362031 
L 107.009204 259.362031 
L 107.009204 252.478211 
L 107.514726 252.478211 
L 107.514726 251.330907 
L 108.006005 251.330907 
L 108.006005 249.609952 
L 108.948899 249.609952 
L 108.948899 249.036301 
L 109.401893 249.036301 
L 109.401893 246.168042 
L 109.843417 246.168042 
L 109.843417 238.136918 
L 110.274038 238.136918 
L 110.274038 234.695008 
L 110.694282 234.695008 
L 110.694282 234.121356 
L 111.104637 234.121356 
L 111.104637 232.974052 
L 111.897469 232.974052 
L 111.897469 231.253097 
L 112.280765 231.253097 
L 112.280765 229.532142 
L 112.655818 229.532142 
L 112.655818 227.811187 
L 113.022974 227.811187 
L 113.022974 226.663884 
L 113.382559 226.663884 
L 113.382559 225.51658 
L 113.73488 225.51658 
L 113.73488 224.942928 
L 114.080224 224.942928 
L 114.080224 223.795625 
L 114.418861 223.795625 
L 114.418861 222.648321 
L 115.711251 222.648321 
L 115.711251 222.07467 
L 116.019919 222.07467 
L 116.019919 220.927366 
L 116.914437 220.927366 
L 116.914437 220.353715 
L 117.202696 220.353715 
L 117.202696 219.780063 
L 118.310324 219.780063 
L 118.310324 219.206411 
L 119.097192 219.206411 
L 119.097192 218.632759 
L 119.850084 218.632759 
L 119.850084 218.059108 
L 120.093994 218.059108 
L 120.093994 217.485456 
L 120.33454 217.485456 
L 120.33454 216.911804 
L 120.8059 216.911804 
L 120.8059 214.043546 
L 121.036887 214.043546 
L 121.036887 212.322591 
L 121.489881 212.322591 
L 121.489881 211.748939 
L 121.712041 211.748939 
L 121.712041 210.601635 
L 121.931406 210.601635 
L 121.931406 210.027984 
L 122.573415 210.027984 
L 122.573415 209.454332 
L 122.782271 209.454332 
L 122.782271 208.88068 
L 123.593547 208.88068 
L 123.593547 206.586073 
L 123.985457 206.586073 
L 123.985457 206.012422 
L 124.178158 206.012422 
L 124.178158 204.865118 
L 124.557288 204.865118 
L 124.557288 204.291467 
L 124.743806 204.291467 
L 124.743806 203.144163 
L 124.92835 203.144163 
L 124.92835 202.570511 
L 125.470548 202.570511 
L 125.470548 200.849556 
L 125.647598 200.849556 
L 125.647598 199.128601 
L 125.822869 199.128601 
L 125.822869 197.981298 
L 126.168212 197.981298 
L 126.168212 196.833994 
L 126.338353 196.833994 
L 126.338353 195.686691 
L 126.50685 195.686691 
L 126.50685 194.539387 
L 126.673734 194.539387 
L 126.673734 192.818432 
L 126.839037 192.818432 
L 126.839037 188.80287 
L 127.002787 188.80287 
L 127.002787 188.229218 
L 127.165014 188.229218 
L 127.165014 185.934612 
L 127.325746 185.934612 
L 127.325746 183.640005 
L 127.48501 183.640005 
L 127.48501 183.066353 
L 127.642832 183.066353 
L 127.642832 182.492701 
L 127.799239 182.492701 
L 127.799239 180.198094 
L 127.954256 180.198094 
L 127.954256 179.050791 
L 128.107907 179.050791 
L 128.107907 177.903487 
L 128.260216 177.903487 
L 128.260216 177.329836 
L 128.411207 177.329836 
L 128.411207 176.756184 
L 128.560901 176.756184 
L 128.560901 171.593319 
L 128.709321 171.593319 
L 128.709321 169.872363 
L 128.856489 169.872363 
L 128.856489 168.151408 
L 129.002426 168.151408 
L 129.002426 166.430453 
L 129.147151 166.430453 
L 129.147151 165.28315 
L 129.290685 165.28315 
L 129.290685 162.414891 
L 129.574256 162.414891 
L 129.574256 160.120284 
L 129.714332 160.120284 
L 129.714332 158.972981 
L 129.853291 158.972981 
L 129.853291 157.252026 
L 129.991152 157.252026 
L 129.991152 154.957419 
L 130.127931 154.957419 
L 130.127931 150.368205 
L 130.263646 150.368205 
L 130.263646 145.778991 
L 130.398313 145.778991 
L 130.398313 142.910733 
L 130.531948 142.910733 
L 130.531948 141.763429 
L 130.664567 141.763429 
L 130.664567 136.600564 
L 130.796184 136.600564 
L 130.796184 134.879609 
L 130.926816 134.879609 
L 130.926816 132.01135 
L 131.056477 132.01135 
L 131.056477 130.290395 
L 131.185181 130.290395 
L 131.185181 125.701181 
L 131.312942 125.701181 
L 131.312942 123.406574 
L 131.439773 123.406574 
L 131.439773 118.817361 
L 131.565689 118.817361 
L 131.565689 113.654495 
L 131.690703 113.654495 
L 131.690703 112.507192 
L 131.938072 112.507192 
L 131.938072 109.065281 
L 132.060454 109.065281 
L 132.060454 108.49163 
L 132.181982 108.49163 
L 132.181982 106.770674 
L 132.30267 106.770674 
L 132.30267 106.197023 
L 132.422528 106.197023 
L 132.422528 103.328764 
L 132.541568 103.328764 
L 132.541568 100.460506 
L 132.659801 100.460506 
L 132.659801 95.871292 
L 132.777237 95.871292 
L 132.777237 92.429381 
L 132.893889 92.429381 
L 132.893889 90.134775 
L 133.009765 90.134775 
L 133.009765 88.987471 
L 133.124876 88.987471 
L 133.124876 84.971909 
L 133.239232 84.971909 
L 133.239232 80.956347 
L 133.352844 80.956347 
L 133.352844 77.514437 
L 133.46572 77.514437 
L 133.46572 75.21983 
L 133.57787 75.21983 
L 133.57787 73.498875 
L 133.689303 73.498875 
L 133.800029 66.041402 
L 133.910056 66.041402 
L 133.910056 64.894099 
L 134.12805 64.894099 
L 134.236034 59.157582 
L 134.343353 59.157582 
L 134.450015 51.126458 
L 134.55603 51.126458 
L 134.661403 48.258199 
L 134.766144 48.258199 
L 134.870259 43.668985 
L 134.973757 43.668985 
L 135.076644 40.800727 
L 135.178927 40.800727 
L 135.280614 39.079772 
L 135.381712 39.079772 
L 135.381712 36.785165 
L 135.582166 36.785165 
L 135.681535 33.916906 
L 135.780341 33.916906 
L 135.878591 29.901344 
L 136.170062 29.901344 
L 136.266147 28.180389 
L 136.551264 28.180389 
L 136.645276 25.31213 
L 136.924311 25.31213 
L 137.016339 22.443872 
L 137.198951 22.443872 
L 137.289545 21.296568 
L 137.469333 21.296568 
L 137.469333 20.722917 
L 137.735587 20.722917 
L 137.823442 19.001962 
L 137.910857 19.001962 
L 137.910857 17.854658 
L 138.341479 17.854658 
L 138.426341 14.9864 
L 138.927025 14.9864 
L 138.927025 14.412748 
L 139.172077 14.412748 
L 139.172077 13.839096 
L 139.493548 13.839096 
L 139.493548 12.691793 
L 139.730821 12.691793 
L 139.730821 12.118141 
L 139.964909 12.118141 
L 139.964909 11.544489 
L 140.11924 11.544489 
L 140.11924 10.397186 
L 140.272217 10.397186 
L 140.272217 9.823534 
L 140.723258 9.823534 
L 140.723258 8.676231 
L 141.162927 8.676231 
L 141.162927 6.381624 
L 338.688 6.381624 
L 338.688 6.381624 
" style="fill:none;stroke:#ffa500;stroke-linecap:square;stroke-width:1.5;"/>
   </g>
   <g id="line2d_41">
    <defs>
     <path d="M 0 -6 
L -1.347084 -1.854102 
L -5.706339 -1.854102 
L -2.179628 0.708204 
L -3.526712 4.854102 
L -0 2.291796 
L 3.526712 4.854102 
L 2.179628 0.708204 
L 5.706339 -1.854102 
L 1.347084 -1.854102 
z
" id="mc4e8c825a5" style="stroke:#ffa500;stroke-linejoin:bevel;stroke-width:1.5;"/>
    </defs>
    <g>
     <use style="fill-opacity:0;stroke:#ffa500;stroke-linejoin:bevel;stroke-width:1.5;" x="129.290685" xlink:href="#mc4e8c825a5" y="162.414891"/>
     <use style="fill-opacity:0;stroke:#ffa500;stroke-linejoin:bevel;stroke-width:1.5;" x="141.162927" xlink:href="#mc4e8c825a5" y="8.676231"/>
     <use style="fill-opacity:0;stroke:#ffa500;stroke-linejoin:bevel;stroke-width:1.5;" x="141.162927" xlink:href="#mc4e8c825a5" y="8.676231"/>
     <use style="fill-opacity:0;stroke:#ffa500;stroke-linejoin:bevel;stroke-width:1.5;" x="141.162927" xlink:href="#mc4e8c825a5" y="6.381624"/>
     <use style="fill-opacity:0;stroke:#ffa500;stroke-linejoin:bevel;stroke-width:1.5;" x="141.162927" xlink:href="#mc4e8c825a5" y="6.381624"/>
     <use style="fill-opacity:0;stroke:#ffa500;stroke-linejoin:bevel;stroke-width:1.5;" x="338.688" xlink:href="#mc4e8c825a5" y="6.381624"/>
    </g>
   </g>
   <g id="line2d_42">
    <path style="fill:none;stroke:#ffa500;stroke-linecap:square;stroke-width:1.5;"/>
    <g/>
   </g>
   <g id="line2d_43">
    <defs>
     <path d="M 0 1.5 
C 0.397805 1.5 0.77937 1.341951 1.06066 1.06066 
C 1.341951 0.77937 1.5 0.397805 1.5 0 
C 1.5 -0.397805 1.341951 -0.77937 1.06066 -1.06066 
C 0.77937 -1.341951 0.397805 -1.5 0 -1.5 
C -0.397805 -1.5 -0.77937 -1.341951 -1.06066 -1.06066 
C -1.341951 -0.77937 -1.5 -0.397805 -1.5 0 
C -1.5 0.397805 -1.341951 0.77937 -1.06066 1.06066 
C -0.77937 1.341951 -0.397805 1.5 0 1.5 
z
" id="m3da3e09759" style="stroke:#6495ed;"/>
    </defs>
    <g>
     <use style="fill:#6495ed;stroke:#6495ed;" x="133.124876" xlink:href="#m3da3e09759" y="6.381624"/>
     <use style="fill:#6495ed;stroke:#6495ed;" x="133.124876" xlink:href="#m3da3e09759" y="6.381624"/>
    </g>
   </g>
   <g id="line2d_44">
    <path d="M 45.512012 298.944 
L 45.512012 264.524897 
L 85.66744 264.524897 
L 85.66744 263.377593 
L 87.329581 263.377593 
L 87.329581 260.509335 
L 88.846997 260.509335 
L 88.846997 258.78838 
L 97.755429 258.78838 
L 97.755429 257.067425 
L 98.606294 257.067425 
L 98.606294 255.346469 
L 99.41757 255.346469 
L 99.41757 251.330907 
L 100.192776 251.330907 
L 100.192776 247.888997 
L 100.934985 247.888997 
L 100.934985 240.431525 
L 101.646892 240.431525 
L 101.646892 225.51658 
L 102.330873 225.51658 
L 102.330873 220.353715 
L 102.989037 220.353715 
L 102.989037 216.338153 
L 105.398279 216.338153 
L 105.398279 215.764501 
L 105.951954 215.764501 
L 105.951954 215.190849 
L 106.48859 215.190849 
L 106.48859 214.043546 
L 111.104637 214.043546 
L 111.104637 213.469894 
L 116.914437 213.469894 
L 116.914437 212.896242 
L 118.310324 212.896242 
L 118.310324 211.175287 
L 119.097192 211.175287 
L 119.097192 210.601635 
L 119.351785 210.601635 
L 119.351785 210.027984 
L 119.602714 210.027984 
L 119.602714 209.454332 
L 120.093994 209.454332 
L 120.093994 208.88068 
L 120.33454 208.88068 
L 120.33454 207.733377 
L 120.571812 207.733377 
L 120.571812 207.159725 
L 120.8059 207.159725 
L 120.8059 206.012422 
L 121.036887 206.012422 
L 121.036887 204.865118 
L 121.264855 204.865118 
L 121.264855 203.717815 
L 121.489881 203.717815 
L 121.489881 203.144163 
L 121.712041 203.144163 
L 121.712041 200.849556 
L 121.931406 200.849556 
L 121.931406 197.981298 
L 122.148045 197.981298 
L 122.148045 197.407646 
L 122.362027 197.407646 
L 122.362027 196.833994 
L 122.573415 196.833994 
L 122.573415 195.113039 
L 122.782271 195.113039 
L 122.782271 192.24478 
L 122.988655 192.24478 
L 122.988655 191.097477 
L 123.192626 191.097477 
L 123.192626 188.229218 
L 123.394238 188.229218 
L 123.394238 187.081915 
L 123.593547 187.081915 
L 123.593547 185.36096 
L 123.790603 185.36096 
L 123.790603 179.624443 
L 123.985457 179.624443 
L 123.985457 176.182532 
L 124.178158 176.182532 
L 124.178158 173.314274 
L 124.368753 173.314274 
L 124.368753 171.019667 
L 124.557288 171.019667 
L 124.557288 168.72506 
L 124.743806 168.72506 
L 124.743806 164.709498 
L 124.92835 164.709498 
L 124.92835 162.414891 
L 125.110962 162.414891 
L 125.110962 158.972981 
L 125.291682 158.972981 
L 125.291682 157.252026 
L 125.470548 157.252026 
L 125.470548 155.53107 
L 125.647598 155.53107 
L 125.647598 152.08916 
L 125.822869 152.08916 
L 125.822869 145.778991 
L 125.996395 145.778991 
L 125.996395 141.763429 
L 126.168212 141.763429 
L 126.168212 140.042474 
L 126.338353 140.042474 
L 126.338353 134.305957 
L 126.50685 134.305957 
L 126.50685 132.01135 
L 126.673734 132.01135 
L 126.673734 126.274833 
L 126.839037 126.274833 
L 126.839037 123.406574 
L 127.002787 123.406574 
L 127.002787 119.391012 
L 127.165014 119.391012 
L 127.165014 116.522754 
L 127.325746 116.522754 
L 127.325746 109.638933 
L 127.48501 109.638933 
L 127.48501 104.476068 
L 127.642832 104.476068 
L 127.642832 99.313202 
L 127.799239 99.313202 
L 127.799239 97.018595 
L 127.954256 97.018595 
L 127.954256 91.282078 
L 128.260216 91.282078 
L 128.260216 88.987471 
L 128.560901 88.987471 
L 128.560901 82.677302 
L 128.709321 82.677302 
L 128.709321 77.514437 
L 128.856489 77.514437 
L 128.856489 73.498875 
L 129.002426 73.498875 
L 129.002426 69.483313 
L 129.147151 69.483313 
L 129.147151 66.615054 
L 129.290685 66.615054 
L 129.290685 62.599492 
L 129.433047 62.599492 
L 129.433047 60.304885 
L 129.574256 60.304885 
L 129.574256 54.568368 
L 129.714332 54.568368 
L 129.714332 48.831851 
L 129.853291 48.831851 
L 129.853291 46.537244 
L 129.991152 46.537244 
L 129.991152 45.963592 
L 130.127931 45.963592 
L 130.127931 44.242637 
L 130.263646 44.242637 
L 130.263646 40.800727 
L 130.398313 40.800727 
L 130.398313 39.079772 
L 130.531948 39.079772 
L 130.531948 35.637861 
L 130.796184 35.637861 
L 130.796184 28.754041 
L 130.926816 28.754041 
L 130.926816 24.738479 
L 131.056477 24.738479 
L 131.056477 20.149265 
L 131.185181 20.149265 
L 131.185181 18.42831 
L 131.690703 18.42831 
L 131.690703 17.854658 
L 131.814826 17.854658 
L 131.814826 13.839096 
L 132.060454 13.839096 
L 132.060454 12.118141 
L 132.181982 12.118141 
L 132.181982 10.397186 
L 132.422528 10.397186 
L 132.422528 9.823534 
L 132.893889 9.823534 
L 132.893889 8.102579 
L 133.124876 8.102579 
L 133.124876 6.381624 
L 338.688 6.381624 
L 338.688 6.381624 
" style="fill:none;stroke:#6495ed;stroke-linecap:square;stroke-width:1.5;"/>
   </g>
   <g id="line2d_45">
    <defs>
     <path d="M -0 6 
L 6 -6 
L -6 -6 
z
" id="m93a1a15fd8" style="stroke:#6495ed;stroke-linejoin:miter;stroke-width:1.5;"/>
    </defs>
    <g>
     <use style="fill-opacity:0;stroke:#6495ed;stroke-linejoin:miter;stroke-width:1.5;" x="88.846997" xlink:href="#m93a1a15fd8" y="260.509335"/>
     <use style="fill-opacity:0;stroke:#6495ed;stroke-linejoin:miter;stroke-width:1.5;" x="125.470548" xlink:href="#m93a1a15fd8" y="155.53107"/>
     <use style="fill-opacity:0;stroke:#6495ed;stroke-linejoin:miter;stroke-width:1.5;" x="133.124876" xlink:href="#m93a1a15fd8" y="8.102579"/>
     <use style="fill-opacity:0;stroke:#6495ed;stroke-linejoin:miter;stroke-width:1.5;" x="133.124876" xlink:href="#m93a1a15fd8" y="6.381624"/>
     <use style="fill-opacity:0;stroke:#6495ed;stroke-linejoin:miter;stroke-width:1.5;" x="133.124876" xlink:href="#m93a1a15fd8" y="6.381624"/>
     <use style="fill-opacity:0;stroke:#6495ed;stroke-linejoin:miter;stroke-width:1.5;" x="338.688" xlink:href="#m93a1a15fd8" y="6.381624"/>
    </g>
   </g>
   <g id="line2d_46">
    <path style="fill:none;stroke:#6495ed;stroke-linecap:square;stroke-width:1.5;"/>
    <g/>
   </g>
   <g id="line2d_47">
    <path d="M 338.688 189.950174 
L 369.60768 293.092752 
" style="fill:none;stroke:#ff00ff;stroke-linecap:square;stroke-width:1.5;"/>
    <g>
     <use style="fill-opacity:0;stroke:#ff00ff;stroke-linejoin:miter;stroke-width:1.5;" x="338.688" xlink:href="#m49a4ef800c" y="189.950174"/>
     <use style="fill-opacity:0;stroke:#ff00ff;stroke-linejoin:miter;stroke-width:1.5;" x="369.60768" xlink:href="#m49a4ef800c" y="293.092752"/>
    </g>
   </g>
   <g id="line2d_48">
    <path d="M 338.688 6.381624 
L 369.60768 199.472792 
" style="fill:none;stroke:#000080;stroke-linecap:square;stroke-width:1.5;"/>
    <g>
     <use style="fill-opacity:0;stroke:#000080;stroke-width:1.5;" x="338.688" xlink:href="#mfaeaf976ae" y="6.381624"/>
     <use style="fill-opacity:0;stroke:#000080;stroke-width:1.5;" x="369.60768" xlink:href="#mfaeaf976ae" y="199.472792"/>
    </g>
   </g>
   <g id="line2d_49">
    <path d="M 338.688 6.381624 
L 369.60768 105.852832 
" style="fill:none;stroke:#ffa500;stroke-linecap:square;stroke-width:1.5;"/>
    <g>
     <use style="fill-opacity:0;stroke:#ffa500;stroke-linejoin:bevel;stroke-width:1.5;" x="338.688" xlink:href="#mc4e8c825a5" y="6.381624"/>
     <use style="fill-opacity:0;stroke:#ffa500;stroke-linejoin:bevel;stroke-width:1.5;" x="369.60768" xlink:href="#mc4e8c825a5" y="105.852832"/>
    </g>
   </g>
   <g id="line2d_50">
    <path d="M 338.688 6.381624 
L 369.60768 12.232871 
" style="fill:none;stroke:#6495ed;stroke-linecap:square;stroke-width:1.5;"/>
    <g>
     <use style="fill-opacity:0;stroke:#6495ed;stroke-linejoin:miter;stroke-width:1.5;" x="338.688" xlink:href="#m93a1a15fd8" y="6.381624"/>
     <use style="fill-opacity:0;stroke:#6495ed;stroke-linejoin:miter;stroke-width:1.5;" x="369.60768" xlink:href="#m93a1a15fd8" y="12.232871"/>
    </g>
   </g>
   <g id="line2d_51">
    <path d="M 338.688 298.944 
L 338.688 6.381624 
" style="fill:none;stroke:#000000;stroke-linecap:square;stroke-width:1.5;"/>
   </g>
   <g id="patch_3">
    <path d="M 57.6 298.944 
L 57.6 3.456 
" style="fill:none;stroke:#000000;stroke-linecap:square;stroke-linejoin:miter;stroke-width:0.8;"/>
   </g>
   <g id="patch_4">
    <path d="M 338.688 298.944 
L 338.688 3.456 
" style="fill:none;stroke:#000000;stroke-linecap:square;stroke-linejoin:miter;stroke-width:0.8;"/>
   </g>
   <g id="patch_5">
    <path d="M 57.6 298.944 
L 338.688 298.944 
" style="fill:none;stroke:#000000;stroke-linecap:square;stroke-linejoin:miter;stroke-width:0.8;"/>
   </g>
   <g id="patch_6">
    <path d="M 57.6 3.456 
L 338.688 3.456 
" style="fill:none;stroke:#000000;stroke-linecap:square;stroke-linejoin:miter;stroke-width:0.8;"/>
   </g>
   <g id="text_13">
    <!-- f7 -->
    <defs>
     <path d="M 8.203125 72.90625 
L 55.078125 72.90625 
L 55.078125 68.703125 
L 28.609375 0 
L 18.3125 0 
L 43.21875 64.59375 
L 8.203125 64.59375 
z
" id="DejaVuSans-55"/>
    </defs>
    <g transform="translate(375.22944 297.78369)scale(0.17 -0.17)">
     <use xlink:href="#DejaVuSans-102"/>
     <use x="35.205078" xlink:href="#DejaVuSans-55"/>
    </g>
   </g>
   <g id="text_14">
    <!-- f6 -->
    <g transform="translate(375.22944 204.16373)scale(0.17 -0.17)">
     <use xlink:href="#DejaVuSans-102"/>
     <use x="35.205078" xlink:href="#DejaVuSans-54"/>
    </g>
   </g>
   <g id="text_15">
    <!-- f8 -->
    <g transform="translate(375.22944 110.543769)scale(0.17 -0.17)">
     <use xlink:href="#DejaVuSans-102"/>
     <use x="35.205078" xlink:href="#DejaVuSans-56"/>
    </g>
   </g>
   <g id="text_16">
    <!-- f9 -->
    <defs>
     <path d="M 10.984375 1.515625 
L 10.984375 10.5 
Q 14.703125 8.734375 18.5 7.8125 
Q 22.3125 6.890625 25.984375 6.890625 
Q 35.75 6.890625 40.890625 13.453125 
Q 46.046875 20.015625 46.78125 33.40625 
Q 43.953125 29.203125 39.59375 26.953125 
Q 35.25 24.703125 29.984375 24.703125 
Q 19.046875 24.703125 12.671875 31.3125 
Q 6.296875 37.9375 6.296875 49.421875 
Q 6.296875 60.640625 12.9375 67.421875 
Q 19.578125 74.21875 30.609375 74.21875 
Q 43.265625 74.21875 49.921875 64.515625 
Q 56.59375 54.828125 56.59375 36.375 
Q 56.59375 19.140625 48.40625 8.859375 
Q 40.234375 -1.421875 26.421875 -1.421875 
Q 22.703125 -1.421875 18.890625 -0.6875 
Q 15.09375 0.046875 10.984375 1.515625 
z
M 30.609375 32.421875 
Q 37.25 32.421875 41.125 36.953125 
Q 45.015625 41.5 45.015625 49.421875 
Q 45.015625 57.28125 41.125 61.84375 
Q 37.25 66.40625 30.609375 66.40625 
Q 23.96875 66.40625 20.09375 61.84375 
Q 16.21875 57.28125 16.21875 49.421875 
Q 16.21875 41.5 20.09375 36.953125 
Q 23.96875 32.421875 30.609375 32.421875 
z
" id="DejaVuSans-57"/>
    </defs>
    <g transform="translate(375.22944 16.923809)scale(0.17 -0.17)">
     <use xlink:href="#DejaVuSans-102"/>
     <use x="35.205078" xlink:href="#DejaVuSans-57"/>
    </g>
   </g>
   <g id="text_17">
    <!-- bbob -->
    <defs>
     <path d="M 48.6875 27.296875 
Q 48.6875 37.203125 44.609375 42.84375 
Q 40.53125 48.484375 33.40625 48.484375 
Q 26.265625 48.484375 22.1875 42.84375 
Q 18.109375 37.203125 18.109375 27.296875 
Q 18.109375 17.390625 22.1875 11.75 
Q 26.265625 6.109375 33.40625 6.109375 
Q 40.53125 6.109375 44.609375 11.75 
Q 48.6875 17.390625 48.6875 27.296875 
z
M 18.109375 46.390625 
Q 20.953125 51.265625 25.265625 53.625 
Q 29.59375 56 35.59375 56 
Q 45.5625 56 51.78125 48.09375 
Q 58.015625 40.1875 58.015625 27.296875 
Q 58.015625 14.40625 51.78125 6.484375 
Q 45.5625 -1.421875 35.59375 -1.421875 
Q 29.59375 -1.421875 25.265625 0.953125 
Q 20.953125 3.328125 18.109375 8.203125 
L 18.109375 0 
L 9.078125 0 
L 9.078125 75.984375 
L 18.109375 75.984375 
z
" id="DejaVuSans-98"/>
    </defs>
    <g transform="translate(60.41088 14.161286)scale(0.102 -0.102)">
     <use xlink:href="#DejaVuSans-98"/>
     <use x="63.476562" xlink:href="#DejaVuSans-98"/>
     <use x="126.953125" xlink:href="#DejaVuSans-111"/>
     <use x="188.134766" xlink:href="#DejaVuSans-98"/>
    </g>
    <!-- Misc. moderate functions, 2-D -->
    <defs>
     <path d="M 9.8125 72.90625 
L 24.515625 72.90625 
L 43.109375 23.296875 
L 61.8125 72.90625 
L 76.515625 72.90625 
L 76.515625 0 
L 66.890625 0 
L 66.890625 64.015625 
L 48.09375 14.015625 
L 38.1875 14.015625 
L 19.390625 64.015625 
L 19.390625 0 
L 9.8125 0 
z
" id="DejaVuSans-77"/>
     <path d="M 19.671875 64.796875 
L 19.671875 8.109375 
L 31.59375 8.109375 
Q 46.6875 8.109375 53.6875 14.9375 
Q 60.6875 21.78125 60.6875 36.53125 
Q 60.6875 51.171875 53.6875 57.984375 
Q 46.6875 64.796875 31.59375 64.796875 
z
M 9.8125 72.90625 
L 30.078125 72.90625 
Q 51.265625 72.90625 61.171875 64.09375 
Q 71.09375 55.28125 71.09375 36.53125 
Q 71.09375 17.671875 61.125 8.828125 
Q 51.171875 0 30.078125 0 
L 9.8125 0 
z
" id="DejaVuSans-68"/>
    </defs>
    <g transform="translate(60.41088 25.583055)scale(0.102 -0.102)">
     <use xlink:href="#DejaVuSans-77"/>
     <use x="86.279297" xlink:href="#DejaVuSans-105"/>
     <use x="114.0625" xlink:href="#DejaVuSans-115"/>
     <use x="166.162109" xlink:href="#DejaVuSans-99"/>
     <use x="221.142578" xlink:href="#DejaVuSans-46"/>
     <use x="252.929688" xlink:href="#DejaVuSans-32"/>
     <use x="284.716797" xlink:href="#DejaVuSans-109"/>
     <use x="382.128906" xlink:href="#DejaVuSans-111"/>
     <use x="443.310547" xlink:href="#DejaVuSans-100"/>
     <use x="506.787109" xlink:href="#DejaVuSans-101"/>
     <use x="568.310547" xlink:href="#DejaVuSans-114"/>
     <use x="609.423828" xlink:href="#DejaVuSans-97"/>
     <use x="670.703125" xlink:href="#DejaVuSans-116"/>
     <use x="709.912109" xlink:href="#DejaVuSans-101"/>
     <use x="771.435547" xlink:href="#DejaVuSans-32"/>
     <use x="803.222656" xlink:href="#DejaVuSans-102"/>
     <use x="838.427734" xlink:href="#DejaVuSans-117"/>
     <use x="901.806641" xlink:href="#DejaVuSans-110"/>
     <use x="965.185547" xlink:href="#DejaVuSans-99"/>
     <use x="1020.166016" xlink:href="#DejaVuSans-116"/>
     <use x="1059.375" xlink:href="#DejaVuSans-105"/>
     <use x="1087.158203" xlink:href="#DejaVuSans-111"/>
     <use x="1148.339844" xlink:href="#DejaVuSans-110"/>
     <use x="1211.71875" xlink:href="#DejaVuSans-115"/>
     <use x="1263.818359" xlink:href="#DejaVuSans-44"/>
     <use x="1295.605469" xlink:href="#DejaVuSans-32"/>
     <use x="1327.392578" xlink:href="#DejaVuSans-50"/>
     <use x="1391.015625" xlink:href="#DejaVuSans-45"/>
     <use x="1427.099609" xlink:href="#DejaVuSans-68"/>
    </g>
    <!-- 51 targets: 100..1e-08 -->
    <defs>
     <path d="M 10.796875 72.90625 
L 49.515625 72.90625 
L 49.515625 64.59375 
L 19.828125 64.59375 
L 19.828125 46.734375 
Q 21.96875 47.46875 24.109375 47.828125 
Q 26.265625 48.1875 28.421875 48.1875 
Q 40.625 48.1875 47.75 41.5 
Q 54.890625 34.8125 54.890625 23.390625 
Q 54.890625 11.625 47.5625 5.09375 
Q 40.234375 -1.421875 26.90625 -1.421875 
Q 22.3125 -1.421875 17.546875 -0.640625 
Q 12.796875 0.140625 7.71875 1.703125 
L 7.71875 11.625 
Q 12.109375 9.234375 16.796875 8.0625 
Q 21.484375 6.890625 26.703125 6.890625 
Q 35.15625 6.890625 40.078125 11.328125 
Q 45.015625 15.765625 45.015625 23.390625 
Q 45.015625 31 40.078125 35.4375 
Q 35.15625 39.890625 26.703125 39.890625 
Q 22.75 39.890625 18.8125 39.015625 
Q 14.890625 38.140625 10.796875 36.28125 
z
" id="DejaVuSans-53"/>
     <path d="M 11.71875 12.40625 
L 22.015625 12.40625 
L 22.015625 0 
L 11.71875 0 
z
M 11.71875 51.703125 
L 22.015625 51.703125 
L 22.015625 39.3125 
L 11.71875 39.3125 
z
" id="DejaVuSans-58"/>
    </defs>
    <g transform="translate(60.41088 37.004824)scale(0.102 -0.102)">
     <use xlink:href="#DejaVuSans-53"/>
     <use x="63.623047" xlink:href="#DejaVuSans-49"/>
     <use x="127.246094" xlink:href="#DejaVuSans-32"/>
     <use x="159.033203" xlink:href="#DejaVuSans-116"/>
     <use x="198.242188" xlink:href="#DejaVuSans-97"/>
     <use x="259.521484" xlink:href="#DejaVuSans-114"/>
     <use x="298.884766" xlink:href="#DejaVuSans-103"/>
     <use x="362.361328" xlink:href="#DejaVuSans-101"/>
     <use x="423.884766" xlink:href="#DejaVuSans-116"/>
     <use x="463.09375" xlink:href="#DejaVuSans-115"/>
     <use x="515.193359" xlink:href="#DejaVuSans-58"/>
     <use x="548.884766" xlink:href="#DejaVuSans-32"/>
     <use x="580.671875" xlink:href="#DejaVuSans-49"/>
     <use x="644.294922" xlink:href="#DejaVuSans-48"/>
     <use x="707.917969" xlink:href="#DejaVuSans-48"/>
     <use x="771.541016" xlink:href="#DejaVuSans-46"/>
     <use x="803.328125" xlink:href="#DejaVuSans-46"/>
     <use x="835.115234" xlink:href="#DejaVuSans-49"/>
     <use x="898.738281" xlink:href="#DejaVuSans-101"/>
     <use x="960.261719" xlink:href="#DejaVuSans-45"/>
     <use x="996.345703" xlink:href="#DejaVuSans-48"/>
     <use x="1059.96875" xlink:href="#DejaVuSans-56"/>
    </g>
    <!-- 15 instances -->
    <g transform="translate(60.41088 48.426593)scale(0.102 -0.102)">
     <use xlink:href="#DejaVuSans-49"/>
     <use x="63.623047" xlink:href="#DejaVuSans-53"/>
     <use x="127.246094" xlink:href="#DejaVuSans-32"/>
     <use x="159.033203" xlink:href="#DejaVuSans-105"/>
     <use x="186.816406" xlink:href="#DejaVuSans-110"/>
     <use x="250.195312" xlink:href="#DejaVuSans-115"/>
     <use x="302.294922" xlink:href="#DejaVuSans-116"/>
     <use x="341.503906" xlink:href="#DejaVuSans-97"/>
     <use x="402.783203" xlink:href="#DejaVuSans-110"/>
     <use x="466.162109" xlink:href="#DejaVuSans-99"/>
     <use x="521.142578" xlink:href="#DejaVuSans-101"/>
     <use x="582.666016" xlink:href="#DejaVuSans-115"/>
    </g>
   </g>
   <g id="text_18">
    <!-- v2.3.3.5 -->
    <defs>
     <path d="M 40.578125 39.3125 
Q 47.65625 37.796875 51.625 33 
Q 55.609375 28.21875 55.609375 21.1875 
Q 55.609375 10.40625 48.1875 4.484375 
Q 40.765625 -1.421875 27.09375 -1.421875 
Q 22.515625 -1.421875 17.65625 -0.515625 
Q 12.796875 0.390625 7.625 2.203125 
L 7.625 11.71875 
Q 11.71875 9.328125 16.59375 8.109375 
Q 21.484375 6.890625 26.8125 6.890625 
Q 36.078125 6.890625 40.9375 10.546875 
Q 45.796875 14.203125 45.796875 21.1875 
Q 45.796875 27.640625 41.28125 31.265625 
Q 36.765625 34.90625 28.71875 34.90625 
L 20.21875 34.90625 
L 20.21875 43.015625 
L 29.109375 43.015625 
Q 36.375 43.015625 40.234375 45.921875 
Q 44.09375 48.828125 44.09375 54.296875 
Q 44.09375 59.90625 40.109375 62.90625 
Q 36.140625 65.921875 28.71875 65.921875 
Q 24.65625 65.921875 20.015625 65.03125 
Q 15.375 64.15625 9.8125 62.3125 
L 9.8125 71.09375 
Q 15.4375 72.65625 20.34375 73.4375 
Q 25.25 74.21875 29.59375 74.21875 
Q 40.828125 74.21875 47.359375 69.109375 
Q 53.90625 64.015625 53.90625 55.328125 
Q 53.90625 49.265625 50.4375 45.09375 
Q 46.96875 40.921875 40.578125 39.3125 
z
" id="DejaVuSans-51"/>
    </defs>
    <g style="fill:#808080;" transform="translate(177.692437 293.909432)scale(0.1 -0.1)">
     <use xlink:href="#DejaVuSans-118"/>
     <use x="59.179688" xlink:href="#DejaVuSans-50"/>
     <use x="122.802734" xlink:href="#DejaVuSans-46"/>
     <use x="154.589844" xlink:href="#DejaVuSans-51"/>
     <use x="218.212891" xlink:href="#DejaVuSans-46"/>
     <use x="250" xlink:href="#DejaVuSans-51"/>
     <use x="313.623047" xlink:href="#DejaVuSans-46"/>
     <use x="345.410156" xlink:href="#DejaVuSans-53"/>
    </g>
   </g>
  </g>
 </g>
 <defs>
  <clipPath id="p3a4a70220b">
   <rect height="295.488" width="281.088" x="57.6" y="3.456"/>
  </clipPath>
 </defs>
</svg>
