<?xml version="1.0" encoding="utf-8" standalone="no"?>
<!DOCTYPE svg PUBLIC "-//W3C//DTD SVG 1.1//EN"
  "http://www.w3.org/Graphics/SVG/1.1/DTD/svg11.dtd">
<!-- Created with matplotlib (https://matplotlib.org/) -->
<svg height="345.6pt" version="1.1" viewBox="0 0 460.8 345.6" width="460.8pt" xmlns="http://www.w3.org/2000/svg" xmlns:xlink="http://www.w3.org/1999/xlink">
 <defs>
  <style type="text/css">
*{stroke-linecap:butt;stroke-linejoin:round;}
  </style>
 </defs>
 <g id="figure_1">
  <g id="patch_1">
   <path d="M 0 345.6 
L 460.8 345.6 
L 460.8 0 
L 0 0 
z
" style="fill:#ffffff;"/>
  </g>
  <g id="axes_1">
   <g id="patch_2">
    <path d="M 57.6 298.944 
L 338.688 298.944 
L 338.688 27.648 
L 57.6 27.648 
z
" style="fill:#ffffff;"/>
   </g>
   <g id="matplotlib.axis_1">
    <g id="xtick_1">
     <g id="line2d_1">
      <path clip-path="url(#pb1f0111a26)" d="M 57.6 298.944 
L 57.6 27.648 
" style="fill:none;stroke:#b0b0b0;stroke-linecap:square;stroke-width:0.8;"/>
     </g>
     <g id="line2d_2">
      <defs>
       <path d="M 0 0 
L 0 3.5 
" id="mc99a9cc9fe" style="stroke:#000000;stroke-width:0.8;"/>
      </defs>
      <g>
       <use style="stroke:#000000;stroke-width:0.8;" x="57.6" xlink:href="#mc99a9cc9fe" y="298.944"/>
      </g>
     </g>
     <g id="text_1">
      <!-- 0 -->
      <defs>
       <path d="M 31.78125 66.40625 
Q 24.171875 66.40625 20.328125 58.90625 
Q 16.5 51.421875 16.5 36.375 
Q 16.5 21.390625 20.328125 13.890625 
Q 24.171875 6.390625 31.78125 6.390625 
Q 39.453125 6.390625 43.28125 13.890625 
Q 47.125 21.390625 47.125 36.375 
Q 47.125 51.421875 43.28125 58.90625 
Q 39.453125 66.40625 31.78125 66.40625 
z
M 31.78125 74.21875 
Q 44.046875 74.21875 50.515625 64.515625 
Q 56.984375 54.828125 56.984375 36.375 
Q 56.984375 17.96875 50.515625 8.265625 
Q 44.046875 -1.421875 31.78125 -1.421875 
Q 19.53125 -1.421875 13.0625 8.265625 
Q 6.59375 17.96875 6.59375 36.375 
Q 6.59375 54.828125 13.0625 64.515625 
Q 19.53125 74.21875 31.78125 74.21875 
z
" id="DejaVuSans-48"/>
      </defs>
      <g transform="translate(51.2375 321.140875)scale(0.2 -0.2)">
       <use xlink:href="#DejaVuSans-48"/>
      </g>
     </g>
    </g>
    <g id="xtick_2">
     <g id="line2d_3">
      <path clip-path="url(#pb1f0111a26)" d="M 137.910857 298.944 
L 137.910857 27.648 
" style="fill:none;stroke:#b0b0b0;stroke-linecap:square;stroke-width:0.8;"/>
     </g>
     <g id="line2d_4">
      <g>
       <use style="stroke:#000000;stroke-width:0.8;" x="137.910857" xlink:href="#mc99a9cc9fe" y="298.944"/>
      </g>
     </g>
     <g id="text_2">
      <!-- 2 -->
      <defs>
       <path d="M 19.1875 8.296875 
L 53.609375 8.296875 
L 53.609375 0 
L 7.328125 0 
L 7.328125 8.296875 
Q 12.9375 14.109375 22.625 23.890625 
Q 32.328125 33.6875 34.8125 36.53125 
Q 39.546875 41.84375 41.421875 45.53125 
Q 43.3125 49.21875 43.3125 52.78125 
Q 43.3125 58.59375 39.234375 62.25 
Q 35.15625 65.921875 28.609375 65.921875 
Q 23.96875 65.921875 18.8125 64.3125 
Q 13.671875 62.703125 7.8125 59.421875 
L 7.8125 69.390625 
Q 13.765625 71.78125 18.9375 73 
Q 24.125 74.21875 28.421875 74.21875 
Q 39.75 74.21875 46.484375 68.546875 
Q 53.21875 62.890625 53.21875 53.421875 
Q 53.21875 48.921875 51.53125 44.890625 
Q 49.859375 40.875 45.40625 35.40625 
Q 44.1875 33.984375 37.640625 27.21875 
Q 31.109375 20.453125 19.1875 8.296875 
z
" id="DejaVuSans-50"/>
      </defs>
      <g transform="translate(131.548357 321.140875)scale(0.2 -0.2)">
       <use xlink:href="#DejaVuSans-50"/>
      </g>
     </g>
    </g>
    <g id="xtick_3">
     <g id="line2d_5">
      <path clip-path="url(#pb1f0111a26)" d="M 218.221714 298.944 
L 218.221714 27.648 
" style="fill:none;stroke:#b0b0b0;stroke-linecap:square;stroke-width:0.8;"/>
     </g>
     <g id="line2d_6">
      <g>
       <use style="stroke:#000000;stroke-width:0.8;" x="218.221714" xlink:href="#mc99a9cc9fe" y="298.944"/>
      </g>
     </g>
     <g id="text_3">
      <!-- 4 -->
      <defs>
       <path d="M 37.796875 64.3125 
L 12.890625 25.390625 
L 37.796875 25.390625 
z
M 35.203125 72.90625 
L 47.609375 72.90625 
L 47.609375 25.390625 
L 58.015625 25.390625 
L 58.015625 17.1875 
L 47.609375 17.1875 
L 47.609375 0 
L 37.796875 0 
L 37.796875 17.1875 
L 4.890625 17.1875 
L 4.890625 26.703125 
z
" id="DejaVuSans-52"/>
      </defs>
      <g transform="translate(211.859214 321.140875)scale(0.2 -0.2)">
       <use xlink:href="#DejaVuSans-52"/>
      </g>
     </g>
    </g>
    <g id="xtick_4">
     <g id="line2d_7">
      <path clip-path="url(#pb1f0111a26)" d="M 298.532571 298.944 
L 298.532571 27.648 
" style="fill:none;stroke:#b0b0b0;stroke-linecap:square;stroke-width:0.8;"/>
     </g>
     <g id="line2d_8">
      <g>
       <use style="stroke:#000000;stroke-width:0.8;" x="298.532571" xlink:href="#mc99a9cc9fe" y="298.944"/>
      </g>
     </g>
     <g id="text_4">
      <!-- 6 -->
      <defs>
       <path d="M 33.015625 40.375 
Q 26.375 40.375 22.484375 35.828125 
Q 18.609375 31.296875 18.609375 23.390625 
Q 18.609375 15.53125 22.484375 10.953125 
Q 26.375 6.390625 33.015625 6.390625 
Q 39.65625 6.390625 43.53125 10.953125 
Q 47.40625 15.53125 47.40625 23.390625 
Q 47.40625 31.296875 43.53125 35.828125 
Q 39.65625 40.375 33.015625 40.375 
z
M 52.59375 71.296875 
L 52.59375 62.3125 
Q 48.875 64.0625 45.09375 64.984375 
Q 41.3125 65.921875 37.59375 65.921875 
Q 27.828125 65.921875 22.671875 59.328125 
Q 17.53125 52.734375 16.796875 39.40625 
Q 19.671875 43.65625 24.015625 45.921875 
Q 28.375 48.1875 33.59375 48.1875 
Q 44.578125 48.1875 50.953125 41.515625 
Q 57.328125 34.859375 57.328125 23.390625 
Q 57.328125 12.15625 50.6875 5.359375 
Q 44.046875 -1.421875 33.015625 -1.421875 
Q 20.359375 -1.421875 13.671875 8.265625 
Q 6.984375 17.96875 6.984375 36.375 
Q 6.984375 53.65625 15.1875 63.9375 
Q 23.390625 74.21875 37.203125 74.21875 
Q 40.921875 74.21875 44.703125 73.484375 
Q 48.484375 72.75 52.59375 71.296875 
z
" id="DejaVuSans-54"/>
      </defs>
      <g transform="translate(292.170071 321.140875)scale(0.2 -0.2)">
       <use xlink:href="#DejaVuSans-54"/>
      </g>
     </g>
    </g>
    <g id="xtick_5">
     <g id="line2d_9">
      <path clip-path="url(#pb1f0111a26)" d="M 97.755429 298.944 
L 97.755429 27.648 
" style="fill:none;stroke:#b0b0b0;stroke-linecap:square;stroke-width:0.8;"/>
     </g>
     <g id="line2d_10">
      <defs>
       <path d="M 0 0 
L 0 2 
" id="m9bd89b4eef" style="stroke:#000000;stroke-width:0.6;"/>
      </defs>
      <g>
       <use style="stroke:#000000;stroke-width:0.6;" x="97.755429" xlink:href="#m9bd89b4eef" y="298.944"/>
      </g>
     </g>
    </g>
    <g id="xtick_6">
     <g id="line2d_11">
      <path clip-path="url(#pb1f0111a26)" d="M 178.066286 298.944 
L 178.066286 27.648 
" style="fill:none;stroke:#b0b0b0;stroke-linecap:square;stroke-width:0.8;"/>
     </g>
     <g id="line2d_12">
      <g>
       <use style="stroke:#000000;stroke-width:0.6;" x="178.066286" xlink:href="#m9bd89b4eef" y="298.944"/>
      </g>
     </g>
    </g>
    <g id="xtick_7">
     <g id="line2d_13">
      <path clip-path="url(#pb1f0111a26)" d="M 258.377143 298.944 
L 258.377143 27.648 
" style="fill:none;stroke:#b0b0b0;stroke-linecap:square;stroke-width:0.8;"/>
     </g>
     <g id="line2d_14">
      <g>
       <use style="stroke:#000000;stroke-width:0.6;" x="258.377143" xlink:href="#m9bd89b4eef" y="298.944"/>
      </g>
     </g>
    </g>
    <g id="xtick_8">
     <g id="line2d_15">
      <path clip-path="url(#pb1f0111a26)" d="M 338.688 298.944 
L 338.688 27.648 
" style="fill:none;stroke:#b0b0b0;stroke-linecap:square;stroke-width:0.8;"/>
     </g>
     <g id="line2d_16">
      <g>
       <use style="stroke:#000000;stroke-width:0.6;" x="338.688" xlink:href="#m9bd89b4eef" y="298.944"/>
      </g>
     </g>
    </g>
    <g id="text_5">
     <!-- log10(# f-evals / dimension) -->
     <defs>
      <path d="M 9.421875 75.984375 
L 18.40625 75.984375 
L 18.40625 0 
L 9.421875 0 
z
" id="DejaVuSans-108"/>
      <path d="M 30.609375 48.390625 
Q 23.390625 48.390625 19.1875 42.75 
Q 14.984375 37.109375 14.984375 27.296875 
Q 14.984375 17.484375 19.15625 11.84375 
Q 23.34375 6.203125 30.609375 6.203125 
Q 37.796875 6.203125 41.984375 11.859375 
Q 46.1875 17.53125 46.1875 27.296875 
Q 46.1875 37.015625 41.984375 42.703125 
Q 37.796875 48.390625 30.609375 48.390625 
z
M 30.609375 56 
Q 42.328125 56 49.015625 48.375 
Q 55.71875 40.765625 55.71875 27.296875 
Q 55.71875 13.875 49.015625 6.21875 
Q 42.328125 -1.421875 30.609375 -1.421875 
Q 18.84375 -1.421875 12.171875 6.21875 
Q 5.515625 13.875 5.515625 27.296875 
Q 5.515625 40.765625 12.171875 48.375 
Q 18.84375 56 30.609375 56 
z
" id="DejaVuSans-111"/>
      <path d="M 45.40625 27.984375 
Q 45.40625 37.75 41.375 43.109375 
Q 37.359375 48.484375 30.078125 48.484375 
Q 22.859375 48.484375 18.828125 43.109375 
Q 14.796875 37.75 14.796875 27.984375 
Q 14.796875 18.265625 18.828125 12.890625 
Q 22.859375 7.515625 30.078125 7.515625 
Q 37.359375 7.515625 41.375 12.890625 
Q 45.40625 18.265625 45.40625 27.984375 
z
M 54.390625 6.78125 
Q 54.390625 -7.171875 48.1875 -13.984375 
Q 42 -20.796875 29.203125 -20.796875 
Q 24.46875 -20.796875 20.265625 -20.09375 
Q 16.0625 -19.390625 12.109375 -17.921875 
L 12.109375 -9.1875 
Q 16.0625 -11.328125 19.921875 -12.34375 
Q 23.78125 -13.375 27.78125 -13.375 
Q 36.625 -13.375 41.015625 -8.765625 
Q 45.40625 -4.15625 45.40625 5.171875 
L 45.40625 9.625 
Q 42.625 4.78125 38.28125 2.390625 
Q 33.9375 0 27.875 0 
Q 17.828125 0 11.671875 7.65625 
Q 5.515625 15.328125 5.515625 27.984375 
Q 5.515625 40.671875 11.671875 48.328125 
Q 17.828125 56 27.875 56 
Q 33.9375 56 38.28125 53.609375 
Q 42.625 51.21875 45.40625 46.390625 
L 45.40625 54.6875 
L 54.390625 54.6875 
z
" id="DejaVuSans-103"/>
      <path d="M 12.40625 8.296875 
L 28.515625 8.296875 
L 28.515625 63.921875 
L 10.984375 60.40625 
L 10.984375 69.390625 
L 28.421875 72.90625 
L 38.28125 72.90625 
L 38.28125 8.296875 
L 54.390625 8.296875 
L 54.390625 0 
L 12.40625 0 
z
" id="DejaVuSans-49"/>
      <path d="M 31 75.875 
Q 24.46875 64.65625 21.28125 53.65625 
Q 18.109375 42.671875 18.109375 31.390625 
Q 18.109375 20.125 21.3125 9.0625 
Q 24.515625 -2 31 -13.1875 
L 23.1875 -13.1875 
Q 15.875 -1.703125 12.234375 9.375 
Q 8.59375 20.453125 8.59375 31.390625 
Q 8.59375 42.28125 12.203125 53.3125 
Q 15.828125 64.359375 23.1875 75.875 
z
" id="DejaVuSans-40"/>
      <path d="M 51.125 44 
L 36.921875 44 
L 32.8125 27.6875 
L 47.125 27.6875 
z
M 43.796875 71.78125 
L 38.71875 51.515625 
L 52.984375 51.515625 
L 58.109375 71.78125 
L 65.921875 71.78125 
L 60.890625 51.515625 
L 76.125 51.515625 
L 76.125 44 
L 58.984375 44 
L 54.984375 27.6875 
L 70.515625 27.6875 
L 70.515625 20.21875 
L 53.078125 20.21875 
L 48 0 
L 40.1875 0 
L 45.21875 20.21875 
L 30.90625 20.21875 
L 25.875 0 
L 18.015625 0 
L 23.09375 20.21875 
L 7.71875 20.21875 
L 7.71875 27.6875 
L 24.90625 27.6875 
L 29 44 
L 13.28125 44 
L 13.28125 51.515625 
L 30.90625 51.515625 
L 35.890625 71.78125 
z
" id="DejaVuSans-35"/>
      <path id="DejaVuSans-32"/>
      <path d="M 37.109375 75.984375 
L 37.109375 68.5 
L 28.515625 68.5 
Q 23.6875 68.5 21.796875 66.546875 
Q 19.921875 64.59375 19.921875 59.515625 
L 19.921875 54.6875 
L 34.71875 54.6875 
L 34.71875 47.703125 
L 19.921875 47.703125 
L 19.921875 0 
L 10.890625 0 
L 10.890625 47.703125 
L 2.296875 47.703125 
L 2.296875 54.6875 
L 10.890625 54.6875 
L 10.890625 58.5 
Q 10.890625 67.625 15.140625 71.796875 
Q 19.390625 75.984375 28.609375 75.984375 
z
" id="DejaVuSans-102"/>
      <path d="M 4.890625 31.390625 
L 31.203125 31.390625 
L 31.203125 23.390625 
L 4.890625 23.390625 
z
" id="DejaVuSans-45"/>
      <path d="M 56.203125 29.59375 
L 56.203125 25.203125 
L 14.890625 25.203125 
Q 15.484375 15.921875 20.484375 11.0625 
Q 25.484375 6.203125 34.421875 6.203125 
Q 39.59375 6.203125 44.453125 7.46875 
Q 49.3125 8.734375 54.109375 11.28125 
L 54.109375 2.78125 
Q 49.265625 0.734375 44.1875 -0.34375 
Q 39.109375 -1.421875 33.890625 -1.421875 
Q 20.796875 -1.421875 13.15625 6.1875 
Q 5.515625 13.8125 5.515625 26.8125 
Q 5.515625 40.234375 12.765625 48.109375 
Q 20.015625 56 32.328125 56 
Q 43.359375 56 49.78125 48.890625 
Q 56.203125 41.796875 56.203125 29.59375 
z
M 47.21875 32.234375 
Q 47.125 39.59375 43.09375 43.984375 
Q 39.0625 48.390625 32.421875 48.390625 
Q 24.90625 48.390625 20.390625 44.140625 
Q 15.875 39.890625 15.1875 32.171875 
z
" id="DejaVuSans-101"/>
      <path d="M 2.984375 54.6875 
L 12.5 54.6875 
L 29.59375 8.796875 
L 46.6875 54.6875 
L 56.203125 54.6875 
L 35.6875 0 
L 23.484375 0 
z
" id="DejaVuSans-118"/>
      <path d="M 34.28125 27.484375 
Q 23.390625 27.484375 19.1875 25 
Q 14.984375 22.515625 14.984375 16.5 
Q 14.984375 11.71875 18.140625 8.90625 
Q 21.296875 6.109375 26.703125 6.109375 
Q 34.1875 6.109375 38.703125 11.40625 
Q 43.21875 16.703125 43.21875 25.484375 
L 43.21875 27.484375 
z
M 52.203125 31.203125 
L 52.203125 0 
L 43.21875 0 
L 43.21875 8.296875 
Q 40.140625 3.328125 35.546875 0.953125 
Q 30.953125 -1.421875 24.3125 -1.421875 
Q 15.921875 -1.421875 10.953125 3.296875 
Q 6 8.015625 6 15.921875 
Q 6 25.140625 12.171875 29.828125 
Q 18.359375 34.515625 30.609375 34.515625 
L 43.21875 34.515625 
L 43.21875 35.40625 
Q 43.21875 41.609375 39.140625 45 
Q 35.0625 48.390625 27.6875 48.390625 
Q 23 48.390625 18.546875 47.265625 
Q 14.109375 46.140625 10.015625 43.890625 
L 10.015625 52.203125 
Q 14.9375 54.109375 19.578125 55.046875 
Q 24.21875 56 28.609375 56 
Q 40.484375 56 46.34375 49.84375 
Q 52.203125 43.703125 52.203125 31.203125 
z
" id="DejaVuSans-97"/>
      <path d="M 44.28125 53.078125 
L 44.28125 44.578125 
Q 40.484375 46.53125 36.375 47.5 
Q 32.28125 48.484375 27.875 48.484375 
Q 21.1875 48.484375 17.84375 46.4375 
Q 14.5 44.390625 14.5 40.28125 
Q 14.5 37.15625 16.890625 35.375 
Q 19.28125 33.59375 26.515625 31.984375 
L 29.59375 31.296875 
Q 39.15625 29.25 43.1875 25.515625 
Q 47.21875 21.78125 47.21875 15.09375 
Q 47.21875 7.46875 41.1875 3.015625 
Q 35.15625 -1.421875 24.609375 -1.421875 
Q 20.21875 -1.421875 15.453125 -0.5625 
Q 10.6875 0.296875 5.421875 2 
L 5.421875 11.28125 
Q 10.40625 8.6875 15.234375 7.390625 
Q 20.0625 6.109375 24.8125 6.109375 
Q 31.15625 6.109375 34.5625 8.28125 
Q 37.984375 10.453125 37.984375 14.40625 
Q 37.984375 18.0625 35.515625 20.015625 
Q 33.0625 21.96875 24.703125 23.78125 
L 21.578125 24.515625 
Q 13.234375 26.265625 9.515625 29.90625 
Q 5.8125 33.546875 5.8125 39.890625 
Q 5.8125 47.609375 11.28125 51.796875 
Q 16.75 56 26.8125 56 
Q 31.78125 56 36.171875 55.265625 
Q 40.578125 54.546875 44.28125 53.078125 
z
" id="DejaVuSans-115"/>
      <path d="M 25.390625 72.90625 
L 33.6875 72.90625 
L 8.296875 -9.28125 
L 0 -9.28125 
z
" id="DejaVuSans-47"/>
      <path d="M 45.40625 46.390625 
L 45.40625 75.984375 
L 54.390625 75.984375 
L 54.390625 0 
L 45.40625 0 
L 45.40625 8.203125 
Q 42.578125 3.328125 38.25 0.953125 
Q 33.9375 -1.421875 27.875 -1.421875 
Q 17.96875 -1.421875 11.734375 6.484375 
Q 5.515625 14.40625 5.515625 27.296875 
Q 5.515625 40.1875 11.734375 48.09375 
Q 17.96875 56 27.875 56 
Q 33.9375 56 38.25 53.625 
Q 42.578125 51.265625 45.40625 46.390625 
z
M 14.796875 27.296875 
Q 14.796875 17.390625 18.875 11.75 
Q 22.953125 6.109375 30.078125 6.109375 
Q 37.203125 6.109375 41.296875 11.75 
Q 45.40625 17.390625 45.40625 27.296875 
Q 45.40625 37.203125 41.296875 42.84375 
Q 37.203125 48.484375 30.078125 48.484375 
Q 22.953125 48.484375 18.875 42.84375 
Q 14.796875 37.203125 14.796875 27.296875 
z
" id="DejaVuSans-100"/>
      <path d="M 9.421875 54.6875 
L 18.40625 54.6875 
L 18.40625 0 
L 9.421875 0 
z
M 9.421875 75.984375 
L 18.40625 75.984375 
L 18.40625 64.59375 
L 9.421875 64.59375 
z
" id="DejaVuSans-105"/>
      <path d="M 52 44.1875 
Q 55.375 50.25 60.0625 53.125 
Q 64.75 56 71.09375 56 
Q 79.640625 56 84.28125 50.015625 
Q 88.921875 44.046875 88.921875 33.015625 
L 88.921875 0 
L 79.890625 0 
L 79.890625 32.71875 
Q 79.890625 40.578125 77.09375 44.375 
Q 74.3125 48.1875 68.609375 48.1875 
Q 61.625 48.1875 57.5625 43.546875 
Q 53.515625 38.921875 53.515625 30.90625 
L 53.515625 0 
L 44.484375 0 
L 44.484375 32.71875 
Q 44.484375 40.625 41.703125 44.40625 
Q 38.921875 48.1875 33.109375 48.1875 
Q 26.21875 48.1875 22.15625 43.53125 
Q 18.109375 38.875 18.109375 30.90625 
L 18.109375 0 
L 9.078125 0 
L 9.078125 54.6875 
L 18.109375 54.6875 
L 18.109375 46.1875 
Q 21.1875 51.21875 25.484375 53.609375 
Q 29.78125 56 35.6875 56 
Q 41.65625 56 45.828125 52.96875 
Q 50 49.953125 52 44.1875 
z
" id="DejaVuSans-109"/>
      <path d="M 54.890625 33.015625 
L 54.890625 0 
L 45.90625 0 
L 45.90625 32.71875 
Q 45.90625 40.484375 42.875 44.328125 
Q 39.84375 48.1875 33.796875 48.1875 
Q 26.515625 48.1875 22.3125 43.546875 
Q 18.109375 38.921875 18.109375 30.90625 
L 18.109375 0 
L 9.078125 0 
L 9.078125 54.6875 
L 18.109375 54.6875 
L 18.109375 46.1875 
Q 21.34375 51.125 25.703125 53.5625 
Q 30.078125 56 35.796875 56 
Q 45.21875 56 50.046875 50.171875 
Q 54.890625 44.34375 54.890625 33.015625 
z
" id="DejaVuSans-110"/>
      <path d="M 8.015625 75.875 
L 15.828125 75.875 
Q 23.140625 64.359375 26.78125 53.3125 
Q 30.421875 42.28125 30.421875 31.390625 
Q 30.421875 20.453125 26.78125 9.375 
Q 23.140625 -1.703125 15.828125 -13.1875 
L 8.015625 -13.1875 
Q 14.5 -2 17.703125 9.0625 
Q 20.90625 20.125 20.90625 31.390625 
Q 20.90625 42.671875 17.703125 53.65625 
Q 14.5 64.65625 8.015625 75.875 
z
" id="DejaVuSans-41"/>
     </defs>
     <g transform="translate(77.764078 342.217594)scale(0.17 -0.17)">
      <use xlink:href="#DejaVuSans-108"/>
      <use x="27.783203" xlink:href="#DejaVuSans-111"/>
      <use x="88.964844" xlink:href="#DejaVuSans-103"/>
      <use x="152.441406" xlink:href="#DejaVuSans-49"/>
      <use x="216.064453" xlink:href="#DejaVuSans-48"/>
      <use x="279.6875" xlink:href="#DejaVuSans-40"/>
      <use x="318.701172" xlink:href="#DejaVuSans-35"/>
      <use x="402.490234" xlink:href="#DejaVuSans-32"/>
      <use x="434.277344" xlink:href="#DejaVuSans-102"/>
      <use x="463.982422" xlink:href="#DejaVuSans-45"/>
      <use x="500.066406" xlink:href="#DejaVuSans-101"/>
      <use x="561.589844" xlink:href="#DejaVuSans-118"/>
      <use x="620.769531" xlink:href="#DejaVuSans-97"/>
      <use x="682.048828" xlink:href="#DejaVuSans-108"/>
      <use x="709.832031" xlink:href="#DejaVuSans-115"/>
      <use x="761.931641" xlink:href="#DejaVuSans-32"/>
      <use x="793.71875" xlink:href="#DejaVuSans-47"/>
      <use x="827.410156" xlink:href="#DejaVuSans-32"/>
      <use x="859.197266" xlink:href="#DejaVuSans-100"/>
      <use x="922.673828" xlink:href="#DejaVuSans-105"/>
      <use x="950.457031" xlink:href="#DejaVuSans-109"/>
      <use x="1047.869141" xlink:href="#DejaVuSans-101"/>
      <use x="1109.392578" xlink:href="#DejaVuSans-110"/>
      <use x="1172.771484" xlink:href="#DejaVuSans-115"/>
      <use x="1224.871094" xlink:href="#DejaVuSans-105"/>
      <use x="1252.654297" xlink:href="#DejaVuSans-111"/>
      <use x="1313.835938" xlink:href="#DejaVuSans-110"/>
      <use x="1377.214844" xlink:href="#DejaVuSans-41"/>
     </g>
    </g>
   </g>
   <g id="matplotlib.axis_2">
    <g id="ytick_1">
     <g id="line2d_17">
      <path clip-path="url(#pb1f0111a26)" d="M 57.6 298.944 
L 338.688 298.944 
" style="fill:none;stroke:#b0b0b0;stroke-linecap:square;stroke-width:0.8;"/>
     </g>
     <g id="line2d_18">
      <defs>
       <path d="M 0 0 
L -3.5 0 
" id="m92b8c37402" style="stroke:#000000;stroke-width:0.8;"/>
      </defs>
      <g>
       <use style="stroke:#000000;stroke-width:0.8;" x="57.6" xlink:href="#m92b8c37402" y="298.944"/>
      </g>
     </g>
     <g id="text_6">
      <!-- 0.0 -->
      <defs>
       <path d="M 10.6875 12.40625 
L 21 12.40625 
L 21 0 
L 10.6875 0 
z
" id="DejaVuSans-46"/>
      </defs>
      <g transform="translate(25.155 305.02275)scale(0.16 -0.16)">
       <use xlink:href="#DejaVuSans-48"/>
       <use x="63.623047" xlink:href="#DejaVuSans-46"/>
       <use x="95.410156" xlink:href="#DejaVuSans-48"/>
      </g>
     </g>
    </g>
    <g id="ytick_2">
     <g id="line2d_19">
      <path clip-path="url(#pb1f0111a26)" d="M 57.6 245.22202 
L 338.688 245.22202 
" style="fill:none;stroke:#b0b0b0;stroke-linecap:square;stroke-width:0.8;"/>
     </g>
     <g id="line2d_20">
      <g>
       <use style="stroke:#000000;stroke-width:0.8;" x="57.6" xlink:href="#m92b8c37402" y="245.22202"/>
      </g>
     </g>
     <g id="text_7">
      <!-- 0.2 -->
      <g transform="translate(25.155 251.30077)scale(0.16 -0.16)">
       <use xlink:href="#DejaVuSans-48"/>
       <use x="63.623047" xlink:href="#DejaVuSans-46"/>
       <use x="95.410156" xlink:href="#DejaVuSans-50"/>
      </g>
     </g>
    </g>
    <g id="ytick_3">
     <g id="line2d_21">
      <path clip-path="url(#pb1f0111a26)" d="M 57.6 191.50004 
L 338.688 191.50004 
" style="fill:none;stroke:#b0b0b0;stroke-linecap:square;stroke-width:0.8;"/>
     </g>
     <g id="line2d_22">
      <g>
       <use style="stroke:#000000;stroke-width:0.8;" x="57.6" xlink:href="#m92b8c37402" y="191.50004"/>
      </g>
     </g>
     <g id="text_8">
      <!-- 0.4 -->
      <g transform="translate(25.155 197.57879)scale(0.16 -0.16)">
       <use xlink:href="#DejaVuSans-48"/>
       <use x="63.623047" xlink:href="#DejaVuSans-46"/>
       <use x="95.410156" xlink:href="#DejaVuSans-52"/>
      </g>
     </g>
    </g>
    <g id="ytick_4">
     <g id="line2d_23">
      <path clip-path="url(#pb1f0111a26)" d="M 57.6 137.778059 
L 338.688 137.778059 
" style="fill:none;stroke:#b0b0b0;stroke-linecap:square;stroke-width:0.8;"/>
     </g>
     <g id="line2d_24">
      <g>
       <use style="stroke:#000000;stroke-width:0.8;" x="57.6" xlink:href="#m92b8c37402" y="137.778059"/>
      </g>
     </g>
     <g id="text_9">
      <!-- 0.6 -->
      <g transform="translate(25.155 143.856809)scale(0.16 -0.16)">
       <use xlink:href="#DejaVuSans-48"/>
       <use x="63.623047" xlink:href="#DejaVuSans-46"/>
       <use x="95.410156" xlink:href="#DejaVuSans-54"/>
      </g>
     </g>
    </g>
    <g id="ytick_5">
     <g id="line2d_25">
      <path clip-path="url(#pb1f0111a26)" d="M 57.6 84.056079 
L 338.688 84.056079 
" style="fill:none;stroke:#b0b0b0;stroke-linecap:square;stroke-width:0.8;"/>
     </g>
     <g id="line2d_26">
      <g>
       <use style="stroke:#000000;stroke-width:0.8;" x="57.6" xlink:href="#m92b8c37402" y="84.056079"/>
      </g>
     </g>
     <g id="text_10">
      <!-- 0.8 -->
      <defs>
       <path d="M 31.78125 34.625 
Q 24.75 34.625 20.71875 30.859375 
Q 16.703125 27.09375 16.703125 20.515625 
Q 16.703125 13.921875 20.71875 10.15625 
Q 24.75 6.390625 31.78125 6.390625 
Q 38.8125 6.390625 42.859375 10.171875 
Q 46.921875 13.96875 46.921875 20.515625 
Q 46.921875 27.09375 42.890625 30.859375 
Q 38.875 34.625 31.78125 34.625 
z
M 21.921875 38.8125 
Q 15.578125 40.375 12.03125 44.71875 
Q 8.5 49.078125 8.5 55.328125 
Q 8.5 64.0625 14.71875 69.140625 
Q 20.953125 74.21875 31.78125 74.21875 
Q 42.671875 74.21875 48.875 69.140625 
Q 55.078125 64.0625 55.078125 55.328125 
Q 55.078125 49.078125 51.53125 44.71875 
Q 48 40.375 41.703125 38.8125 
Q 48.828125 37.15625 52.796875 32.3125 
Q 56.78125 27.484375 56.78125 20.515625 
Q 56.78125 9.90625 50.3125 4.234375 
Q 43.84375 -1.421875 31.78125 -1.421875 
Q 19.734375 -1.421875 13.25 4.234375 
Q 6.78125 9.90625 6.78125 20.515625 
Q 6.78125 27.484375 10.78125 32.3125 
Q 14.796875 37.15625 21.921875 38.8125 
z
M 18.3125 54.390625 
Q 18.3125 48.734375 21.84375 45.5625 
Q 25.390625 42.390625 31.78125 42.390625 
Q 38.140625 42.390625 41.71875 45.5625 
Q 45.3125 48.734375 45.3125 54.390625 
Q 45.3125 60.0625 41.71875 63.234375 
Q 38.140625 66.40625 31.78125 66.40625 
Q 25.390625 66.40625 21.84375 63.234375 
Q 18.3125 60.0625 18.3125 54.390625 
z
" id="DejaVuSans-56"/>
      </defs>
      <g transform="translate(25.155 90.134829)scale(0.16 -0.16)">
       <use xlink:href="#DejaVuSans-48"/>
       <use x="63.623047" xlink:href="#DejaVuSans-46"/>
       <use x="95.410156" xlink:href="#DejaVuSans-56"/>
      </g>
     </g>
    </g>
    <g id="ytick_6">
     <g id="line2d_27">
      <path clip-path="url(#pb1f0111a26)" d="M 57.6 30.334099 
L 338.688 30.334099 
" style="fill:none;stroke:#b0b0b0;stroke-linecap:square;stroke-width:0.8;"/>
     </g>
     <g id="line2d_28">
      <g>
       <use style="stroke:#000000;stroke-width:0.8;" x="57.6" xlink:href="#m92b8c37402" y="30.334099"/>
      </g>
     </g>
     <g id="text_11">
      <!-- 1.0 -->
      <g transform="translate(25.155 36.412849)scale(0.16 -0.16)">
       <use xlink:href="#DejaVuSans-49"/>
       <use x="63.623047" xlink:href="#DejaVuSans-46"/>
       <use x="95.410156" xlink:href="#DejaVuSans-48"/>
      </g>
     </g>
    </g>
    <g id="text_12">
     <!-- Fraction of function,target pairs -->
     <defs>
      <path d="M 9.8125 72.90625 
L 51.703125 72.90625 
L 51.703125 64.59375 
L 19.671875 64.59375 
L 19.671875 43.109375 
L 48.578125 43.109375 
L 48.578125 34.8125 
L 19.671875 34.8125 
L 19.671875 0 
L 9.8125 0 
z
" id="DejaVuSans-70"/>
      <path d="M 41.109375 46.296875 
Q 39.59375 47.171875 37.8125 47.578125 
Q 36.03125 48 33.890625 48 
Q 26.265625 48 22.1875 43.046875 
Q 18.109375 38.09375 18.109375 28.8125 
L 18.109375 0 
L 9.078125 0 
L 9.078125 54.6875 
L 18.109375 54.6875 
L 18.109375 46.1875 
Q 20.953125 51.171875 25.484375 53.578125 
Q 30.03125 56 36.53125 56 
Q 37.453125 56 38.578125 55.875 
Q 39.703125 55.765625 41.0625 55.515625 
z
" id="DejaVuSans-114"/>
      <path d="M 48.78125 52.59375 
L 48.78125 44.1875 
Q 44.96875 46.296875 41.140625 47.34375 
Q 37.3125 48.390625 33.40625 48.390625 
Q 24.65625 48.390625 19.8125 42.84375 
Q 14.984375 37.3125 14.984375 27.296875 
Q 14.984375 17.28125 19.8125 11.734375 
Q 24.65625 6.203125 33.40625 6.203125 
Q 37.3125 6.203125 41.140625 7.25 
Q 44.96875 8.296875 48.78125 10.40625 
L 48.78125 2.09375 
Q 45.015625 0.34375 40.984375 -0.53125 
Q 36.96875 -1.421875 32.421875 -1.421875 
Q 20.0625 -1.421875 12.78125 6.34375 
Q 5.515625 14.109375 5.515625 27.296875 
Q 5.515625 40.671875 12.859375 48.328125 
Q 20.21875 56 33.015625 56 
Q 37.15625 56 41.109375 55.140625 
Q 45.0625 54.296875 48.78125 52.59375 
z
" id="DejaVuSans-99"/>
      <path d="M 18.3125 70.21875 
L 18.3125 54.6875 
L 36.8125 54.6875 
L 36.8125 47.703125 
L 18.3125 47.703125 
L 18.3125 18.015625 
Q 18.3125 11.328125 20.140625 9.421875 
Q 21.96875 7.515625 27.59375 7.515625 
L 36.8125 7.515625 
L 36.8125 0 
L 27.59375 0 
Q 17.1875 0 13.234375 3.875 
Q 9.28125 7.765625 9.28125 18.015625 
L 9.28125 47.703125 
L 2.6875 47.703125 
L 2.6875 54.6875 
L 9.28125 54.6875 
L 9.28125 70.21875 
z
" id="DejaVuSans-116"/>
      <path d="M 8.5 21.578125 
L 8.5 54.6875 
L 17.484375 54.6875 
L 17.484375 21.921875 
Q 17.484375 14.15625 20.5 10.265625 
Q 23.53125 6.390625 29.59375 6.390625 
Q 36.859375 6.390625 41.078125 11.03125 
Q 45.3125 15.671875 45.3125 23.6875 
L 45.3125 54.6875 
L 54.296875 54.6875 
L 54.296875 0 
L 45.3125 0 
L 45.3125 8.40625 
Q 42.046875 3.421875 37.71875 1 
Q 33.40625 -1.421875 27.6875 -1.421875 
Q 18.265625 -1.421875 13.375 4.4375 
Q 8.5 10.296875 8.5 21.578125 
z
M 31.109375 56 
z
" id="DejaVuSans-117"/>
      <path d="M 11.71875 12.40625 
L 22.015625 12.40625 
L 22.015625 4 
L 14.015625 -11.625 
L 7.71875 -11.625 
L 11.71875 4 
z
" id="DejaVuSans-44"/>
      <path d="M 18.109375 8.203125 
L 18.109375 -20.796875 
L 9.078125 -20.796875 
L 9.078125 54.6875 
L 18.109375 54.6875 
L 18.109375 46.390625 
Q 20.953125 51.265625 25.265625 53.625 
Q 29.59375 56 35.59375 56 
Q 45.5625 56 51.78125 48.09375 
Q 58.015625 40.1875 58.015625 27.296875 
Q 58.015625 14.40625 51.78125 6.484375 
Q 45.5625 -1.421875 35.59375 -1.421875 
Q 29.59375 -1.421875 25.265625 0.953125 
Q 20.953125 3.328125 18.109375 8.203125 
z
M 48.6875 27.296875 
Q 48.6875 37.203125 44.609375 42.84375 
Q 40.53125 48.484375 33.40625 48.484375 
Q 26.265625 48.484375 22.1875 42.84375 
Q 18.109375 37.203125 18.109375 27.296875 
Q 18.109375 17.390625 22.1875 11.75 
Q 26.265625 6.109375 33.40625 6.109375 
Q 40.53125 6.109375 44.609375 11.75 
Q 48.6875 17.390625 48.6875 27.296875 
z
" id="DejaVuSans-112"/>
     </defs>
     <g transform="translate(17.619531 297.681)rotate(-90)scale(0.17 -0.17)">
      <use xlink:href="#DejaVuSans-70"/>
      <use x="50.269531" xlink:href="#DejaVuSans-114"/>
      <use x="91.382812" xlink:href="#DejaVuSans-97"/>
      <use x="152.662109" xlink:href="#DejaVuSans-99"/>
      <use x="207.642578" xlink:href="#DejaVuSans-116"/>
      <use x="246.851562" xlink:href="#DejaVuSans-105"/>
      <use x="274.634766" xlink:href="#DejaVuSans-111"/>
      <use x="335.816406" xlink:href="#DejaVuSans-110"/>
      <use x="399.195312" xlink:href="#DejaVuSans-32"/>
      <use x="430.982422" xlink:href="#DejaVuSans-111"/>
      <use x="492.164062" xlink:href="#DejaVuSans-102"/>
      <use x="527.369141" xlink:href="#DejaVuSans-32"/>
      <use x="559.15625" xlink:href="#DejaVuSans-102"/>
      <use x="594.361328" xlink:href="#DejaVuSans-117"/>
      <use x="657.740234" xlink:href="#DejaVuSans-110"/>
      <use x="721.119141" xlink:href="#DejaVuSans-99"/>
      <use x="776.099609" xlink:href="#DejaVuSans-116"/>
      <use x="815.308594" xlink:href="#DejaVuSans-105"/>
      <use x="843.091797" xlink:href="#DejaVuSans-111"/>
      <use x="904.273438" xlink:href="#DejaVuSans-110"/>
      <use x="967.652344" xlink:href="#DejaVuSans-44"/>
      <use x="999.439453" xlink:href="#DejaVuSans-116"/>
      <use x="1038.648438" xlink:href="#DejaVuSans-97"/>
      <use x="1099.927734" xlink:href="#DejaVuSans-114"/>
      <use x="1139.291016" xlink:href="#DejaVuSans-103"/>
      <use x="1202.767578" xlink:href="#DejaVuSans-101"/>
      <use x="1264.291016" xlink:href="#DejaVuSans-116"/>
      <use x="1303.5" xlink:href="#DejaVuSans-32"/>
      <use x="1335.287109" xlink:href="#DejaVuSans-112"/>
      <use x="1398.763672" xlink:href="#DejaVuSans-97"/>
      <use x="1460.042969" xlink:href="#DejaVuSans-105"/>
      <use x="1487.826172" xlink:href="#DejaVuSans-114"/>
      <use x="1528.939453" xlink:href="#DejaVuSans-115"/>
     </g>
    </g>
   </g>
   <g id="line2d_29">
    <defs>
     <path d="M 0 1.5 
C 0.397805 1.5 0.77937 1.341951 1.06066 1.06066 
C 1.341951 0.77937 1.5 0.397805 1.5 0 
C 1.5 -0.397805 1.341951 -0.77937 1.06066 -1.06066 
C 0.77937 -1.341951 0.397805 -1.5 0 -1.5 
C -0.397805 -1.5 -0.77937 -1.341951 -1.06066 -1.06066 
C -1.341951 -0.77937 -1.5 -0.397805 -1.5 0 
C -1.5 0.397805 -1.341951 0.77937 -1.06066 1.06066 
C -0.77937 1.341951 -0.397805 1.5 0 1.5 
z
" id="mdbd70bb0d1" style="stroke:#00bfbf;"/>
    </defs>
    <g>
     <use style="fill:#00bfbf;stroke:#00bfbf;" x="176.781943" xlink:href="#mdbd70bb0d1" y="30.334099"/>
     <use style="fill:#00bfbf;stroke:#00bfbf;" x="176.781943" xlink:href="#mdbd70bb0d1" y="30.334099"/>
    </g>
   </g>
   <g id="line2d_30">
    <path d="M 105.398279 298.944 
L 105.398279 298.417314 
L 110.274038 298.417314 
L 110.274038 296.837256 
L 110.694282 296.837256 
L 110.694282 293.150453 
L 112.280765 293.150453 
L 112.280765 292.097081 
L 112.655818 292.097081 
L 112.655818 290.517023 
L 113.022974 290.517023 
L 113.022974 289.463651 
L 113.73488 289.463651 
L 113.73488 288.936964 
L 114.080224 288.936964 
L 114.080224 285.250162 
L 114.418861 285.250162 
L 114.418861 283.670104 
L 114.751048 283.670104 
L 114.751048 279.983301 
L 115.077025 279.983301 
L 115.077025 279.456615 
L 115.397021 279.456615 
L 115.397021 274.189754 
L 115.711251 274.189754 
L 115.711251 271.556324 
L 116.019919 271.556324 
L 116.019919 269.976266 
L 116.323218 269.976266 
L 116.323218 265.236091 
L 116.914437 265.236091 
L 116.914437 264.182719 
L 117.202696 264.182719 
L 117.202696 263.129347 
L 117.486268 263.129347 
L 117.486268 262.075974 
L 118.039942 262.075974 
L 118.039942 261.549288 
L 118.310324 261.549288 
L 118.310324 259.96923 
L 118.576578 259.96923 
L 118.576578 259.442544 
L 118.838828 259.442544 
L 118.838828 258.389172 
L 119.097192 258.389172 
L 119.097192 257.3358 
L 124.368753 257.3358 
L 124.368753 256.809114 
L 124.743806 256.809114 
L 124.743806 256.282427 
L 124.92835 256.282427 
L 124.92835 255.229055 
L 125.291682 255.229055 
L 125.291682 254.702369 
L 125.996395 254.702369 
L 125.996395 251.542253 
L 126.673734 251.542253 
L 126.673734 251.015567 
L 127.48501 251.015567 
L 127.48501 249.962195 
L 127.642832 249.962195 
L 127.642832 248.382136 
L 127.799239 248.382136 
L 127.799239 246.275392 
L 127.954256 246.275392 
L 127.954256 244.695334 
L 128.107907 244.695334 
L 128.107907 244.168648 
L 128.260216 244.168648 
L 128.260216 243.115275 
L 128.411207 243.115275 
L 128.411207 242.588589 
L 129.002426 242.588589 
L 129.002426 239.428473 
L 129.290685 239.428473 
L 129.290685 238.375101 
L 129.433047 238.375101 
L 129.433047 236.795043 
L 129.574256 236.795043 
L 129.574256 236.268356 
L 129.714332 236.268356 
L 129.714332 234.688298 
L 129.853291 234.688298 
L 129.853291 231.001496 
L 129.991152 231.001496 
L 129.991152 227.841379 
L 130.398313 227.841379 
L 130.398313 227.314693 
L 130.531948 227.314693 
L 130.531948 226.788007 
L 130.664567 226.788007 
L 130.664567 225.207949 
L 130.926816 225.207949 
L 130.926816 224.154577 
L 131.056477 224.154577 
L 131.056477 222.574518 
L 131.185181 222.574518 
L 131.185181 219.414402 
L 131.312942 219.414402 
L 131.312942 218.887716 
L 131.439773 218.887716 
L 131.439773 216.254285 
L 131.565689 216.254285 
L 131.565689 215.200913 
L 131.690703 215.200913 
L 131.690703 213.620855 
L 131.814826 213.620855 
L 131.814826 212.040797 
L 131.938072 212.040797 
L 131.938072 209.934052 
L 132.181982 209.934052 
L 132.181982 208.353994 
L 132.30267 208.353994 
L 132.30267 205.720564 
L 132.422528 205.720564 
L 132.422528 204.140506 
L 132.541568 204.140506 
L 132.541568 203.613819 
L 132.659801 203.613819 
L 132.659801 200.980389 
L 132.777237 200.980389 
L 132.777237 197.293586 
L 132.893889 197.293586 
L 132.893889 193.080098 
L 133.009765 193.080098 
L 133.009765 192.553412 
L 133.124876 192.553412 
L 133.124876 186.233179 
L 133.239232 186.233179 
L 133.239232 185.706493 
L 133.352844 185.706493 
L 133.352844 183.599748 
L 133.46572 183.599748 
L 133.46572 180.439632 
L 133.57787 180.439632 
L 133.57787 178.332888 
L 133.689303 178.332888 
L 133.689303 176.752829 
L 133.910056 176.752829 
L 133.910056 175.172771 
L 134.12805 175.172771 
L 134.236034 173.066027 
L 134.343353 173.066027 
L 134.450015 165.165736 
L 134.55603 165.165736 
L 134.661403 158.845503 
L 134.766144 158.845503 
L 134.766144 158.318817 
L 135.178927 158.318817 
L 135.280614 155.1587 
L 135.381712 155.1587 
L 135.482227 151.998584 
L 135.582166 151.998584 
L 135.681535 149.365153 
L 135.780341 149.365153 
L 135.878591 144.624978 
L 135.97629 144.624978 
L 136.073445 141.991548 
L 136.170062 141.991548 
L 136.266147 140.41149 
L 136.361705 140.41149 
L 136.456742 134.617943 
L 136.551264 134.617943 
L 136.551264 129.351082 
L 136.831795 129.351082 
L 136.924311 125.66428 
L 137.016339 125.66428 
L 137.107884 121.977477 
L 137.37967 121.977477 
L 137.37967 119.870733 
L 137.558536 119.870733 
L 137.647286 114.603872 
L 137.823442 114.603872 
L 137.910857 110.917069 
L 137.997836 110.917069 
L 137.997836 109.863697 
L 138.170504 109.863697 
L 138.170504 109.337011 
L 138.341479 109.337011 
L 138.341479 108.810325 
L 138.510793 108.810325 
L 138.594838 105.650209 
L 138.927025 105.650209 
L 138.927025 105.123522 
L 139.090775 105.123522 
L 139.090775 104.596836 
L 139.253002 104.596836 
L 139.333553 102.490092 
L 139.413734 102.490092 
L 139.493548 99.329976 
L 139.8092 99.329976 
L 139.8092 98.803289 
L 139.964909 98.803289 
L 139.964909 97.749917 
L 140.11924 97.749917 
L 140.11924 96.696545 
L 140.348205 96.696545 
L 140.423864 94.589801 
L 141.45 94.589801 
L 141.45 94.063115 
L 142.147664 94.063115 
L 142.147664 93.536429 
L 142.752555 93.536429 
L 142.752555 93.009743 
L 143.014805 93.009743 
L 143.014805 92.483056 
L 143.653678 92.483056 
L 143.716296 89.849626 
L 143.840863 89.849626 
L 143.840863 89.32294 
L 144.209312 89.32294 
L 144.209312 88.796254 
L 144.629556 88.796254 
L 144.688773 87.742882 
L 144.806606 87.742882 
L 144.865226 86.68951 
L 144.981877 86.68951 
L 144.981877 85.636137 
L 145.270136 85.636137 
L 145.270136 85.109451 
L 145.497361 85.109451 
L 145.497361 84.582765 
L 145.609873 84.582765 
L 145.609873 84.056079 
L 145.777292 84.056079 
L 145.832743 81.949335 
L 146.958248 81.949335 
L 147.061745 80.895963 
L 147.317833 80.895963 
L 147.317833 80.369277 
L 148.966103 80.369277 
L 148.966103 79.842591 
L 149.286939 79.842591 
L 149.332295 78.789218 
L 149.646525 78.789218 
L 149.690956 77.735846 
L 151.381313 77.735846 
L 151.381313 76.682474 
L 151.501723 76.682474 
L 151.501723 76.155788 
L 154.439623 76.155788 
L 154.439623 75.629102 
L 155.070227 75.629102 
L 155.102793 74.57573 
L 155.361158 74.57573 
L 155.361158 74.049044 
L 155.520713 74.049044 
L 155.520713 73.522358 
L 155.647315 73.522358 
L 155.741666 71.942299 
L 156.021696 71.942299 
L 156.083319 70.888927 
L 156.297301 70.888927 
L 156.357959 68.782183 
L 156.508689 68.782183 
L 156.508689 67.728811 
L 156.658127 67.728811 
L 156.747178 66.675439 
L 156.865211 66.675439 
L 156.923929 65.622066 
L 157.272146 65.622066 
L 157.300853 64.568694 
L 157.528821 64.568694 
L 157.613546 62.988636 
L 157.86528 62.988636 
L 157.976006 59.301833 
L 158.003578 59.301833 
L 158.086033 57.721775 
L 158.304027 57.721775 
L 158.358103 56.141717 
L 158.438903 56.141717 
L 158.492562 55.088345 
L 158.572743 55.088345 
L 158.67908 52.454914 
L 158.75841 52.454914 
L 158.863624 50.34817 
L 159.020266 50.34817 
L 159.098062 49.294798 
L 159.252621 49.294798 
L 159.278248 48.241426 
L 159.431225 48.241426 
L 159.431225 47.71474 
L 159.658204 47.71474 
L 159.658204 47.188054 
L 159.956318 47.188054 
L 160.005512 45.607995 
L 160.152267 45.607995 
L 160.152267 45.081309 
L 160.37011 45.081309 
L 160.37011 44.554623 
L 161.306672 44.554623 
L 161.306672 44.027937 
L 161.578106 44.027937 
L 161.578106 43.501251 
L 162.875305 43.501251 
L 162.875305 42.974565 
L 165.714726 42.974565 
L 165.714726 42.447879 
L 166.306535 42.447879 
L 166.306535 41.921193 
L 166.544502 41.921193 
L 166.544502 41.394507 
L 166.679039 41.394507 
L 166.679039 40.867821 
L 166.862349 40.867821 
L 166.862349 40.341135 
L 167.06015 40.341135 
L 167.0929 38.761076 
L 167.223287 38.761076 
L 167.288118 37.707704 
L 167.798261 37.707704 
L 167.798261 37.181018 
L 167.970232 37.181018 
L 167.970232 36.654332 
L 168.202038 36.654332 
L 168.202038 36.127646 
L 168.746115 36.127646 
L 168.760989 35.074274 
L 171.353428 35.074274 
L 171.353428 34.547588 
L 173.130511 34.547588 
L 173.130511 34.020902 
L 173.609893 34.020902 
L 173.609893 33.494215 
L 173.966492 33.494215 
L 174.021557 32.440843 
L 174.142093 32.440843 
L 174.142093 31.914157 
L 174.315944 31.914157 
L 174.315944 31.387471 
L 176.781943 31.387471 
L 176.781943 30.334099 
L 338.688 30.334099 
L 338.688 30.334099 
" style="fill:none;stroke:#00bfbf;stroke-linecap:square;stroke-width:1.5;"/>
   </g>
   <g id="line2d_31">
    <defs>
     <path d="M -6 0 
L 6 0 
M 0 6 
L 0 -6 
" id="mee4d04a42e" style="stroke:#00bfbf;stroke-width:1.5;"/>
    </defs>
    <g>
     <use style="fill-opacity:0;stroke:#00bfbf;stroke-width:1.5;" x="135.178927" xlink:href="#mee4d04a42e" y="157.265444"/>
     <use style="fill-opacity:0;stroke:#00bfbf;stroke-width:1.5;" x="167.798261" xlink:href="#mee4d04a42e" y="37.181018"/>
     <use style="fill-opacity:0;stroke:#00bfbf;stroke-width:1.5;" x="176.781943" xlink:href="#mee4d04a42e" y="30.334099"/>
     <use style="fill-opacity:0;stroke:#00bfbf;stroke-width:1.5;" x="176.781943" xlink:href="#mee4d04a42e" y="30.334099"/>
     <use style="fill-opacity:0;stroke:#00bfbf;stroke-width:1.5;" x="338.688" xlink:href="#mee4d04a42e" y="30.334099"/>
    </g>
   </g>
   <g id="line2d_32">
    <path style="fill:none;stroke:#00bfbf;stroke-linecap:square;stroke-width:1.5;"/>
    <g/>
   </g>
   <g id="line2d_33">
    <path clip-path="url(#pb1f0111a26)" d="M 153.178403 76.155788 
" style="fill:none;stroke:#00bfbf;stroke-linecap:square;stroke-width:1.5;"/>
    <defs>
     <path d="M -12 12 
L 12 -12 
M -12 -12 
L 12 12 
" id="m2c82a3baed" style="stroke:#00bfbf;"/>
    </defs>
    <g clip-path="url(#pb1f0111a26)">
     <use style="fill:#00bfbf;stroke:#00bfbf;" x="153.178403" xlink:href="#m2c82a3baed" y="76.155788"/>
    </g>
   </g>
   <g id="line2d_34">
    <defs>
     <path d="M 0 1.5 
C 0.397805 1.5 0.77937 1.341951 1.06066 1.06066 
C 1.341951 0.77937 1.5 0.397805 1.5 0 
C 1.5 -0.397805 1.341951 -0.77937 1.06066 -1.06066 
C 0.77937 -1.341951 0.397805 -1.5 0 -1.5 
C -0.397805 -1.5 -0.77937 -1.341951 -1.06066 -1.06066 
C -1.341951 -0.77937 -1.5 -0.397805 -1.5 0 
C -1.5 0.397805 -1.341951 0.77937 -1.06066 1.06066 
C -0.77937 1.341951 -0.397805 1.5 0 1.5 
z
" id="m8fa02130e0" style="stroke:#008000;"/>
    </defs>
    <g>
     <use style="fill:#008000;stroke:#008000;" x="222.238752" xlink:href="#m8fa02130e0" y="30.334099"/>
     <use style="fill:#008000;stroke:#008000;" x="222.238752" xlink:href="#m8fa02130e0" y="30.334099"/>
    </g>
   </g>
   <g id="line2d_35">
    <path d="M 122.076131 298.944 
L 122.076131 297.890628 
L 122.643312 297.890628 
L 122.643312 296.837256 
L 122.920132 296.837256 
L 122.920132 295.783884 
L 123.056911 295.783884 
L 123.056911 294.203825 
L 123.460928 294.203825 
L 123.460928 293.677139 
L 123.725164 293.677139 
L 123.725164 293.150453 
L 123.985457 293.150453 
L 123.985457 291.570395 
L 124.114161 291.570395 
L 124.114161 291.043709 
L 124.241922 291.043709 
L 124.241922 289.990337 
L 124.368753 289.990337 
L 124.368753 289.463651 
L 124.619683 289.463651 
L 124.619683 288.410278 
L 124.743806 288.410278 
L 124.743806 287.883592 
L 124.867052 287.883592 
L 124.867052 287.356906 
L 125.351508 287.356906 
L 125.351508 286.83022 
L 125.470548 286.83022 
L 125.470548 284.723476 
L 125.588781 284.723476 
L 125.588781 284.19679 
L 125.706218 284.19679 
L 125.706218 283.143418 
L 125.822869 283.143418 
L 125.822869 282.616732 
L 125.938745 282.616732 
L 125.938745 281.563359 
L 126.281824 281.563359 
L 126.281824 279.983301 
L 126.50685 279.983301 
L 126.50685 279.456615 
L 126.729009 279.456615 
L 126.729009 276.296499 
L 126.948374 276.296499 
L 126.948374 275.769812 
L 127.165014 275.769812 
L 127.165014 275.243126 
L 127.590383 275.243126 
L 127.590383 274.71644 
L 127.902737 274.71644 
L 128.005624 272.609696 
L 128.107907 272.609696 
L 128.107907 272.08301 
L 128.610515 272.08301 
L 128.709321 269.976266 
L 129.002426 269.976266 
L 129.002426 268.396207 
L 129.195127 268.396207 
L 129.195127 267.342835 
L 129.480244 267.342835 
L 129.574256 265.762777 
L 129.760775 265.762777 
L 129.760775 262.60266 
L 129.945319 262.60266 
L 129.945319 261.022602 
L 130.487516 261.022602 
L 130.487516 260.495916 
L 131.355321 260.495916 
L 131.439773 259.442544 
L 131.523818 259.442544 
L 131.523818 258.915858 
L 131.690703 258.915858 
L 131.690703 257.3358 
L 132.181982 257.3358 
L 132.181982 256.809114 
L 132.342714 256.809114 
L 132.342714 256.282427 
L 133.201197 256.282427 
L 133.201197 255.755741 
L 135.548916 255.755741 
L 135.615352 254.702369 
L 135.681535 254.702369 
L 135.681535 254.175683 
L 136.32991 254.175683 
L 136.32991 253.648997 
L 137.910857 253.648997 
L 137.910857 253.122311 
L 138.369812 253.122311 
L 138.426341 252.068939 
L 138.761723 252.068939 
L 138.761723 251.542253 
L 139.572998 251.542253 
L 139.678372 250.488881 
L 140.093612 250.488881 
L 140.093612 249.435508 
L 140.44901 249.435508 
L 140.44901 248.908822 
L 140.846504 248.908822 
L 140.846504 248.382136 
L 141.378673 248.382136 
L 141.378673 247.328764 
L 141.848763 247.328764 
L 141.848763 246.802078 
L 142.441528 246.802078 
L 142.441528 246.275392 
L 142.927826 246.275392 
L 142.927826 245.22202 
L 143.943994 245.22202 
L 143.943994 244.168648 
L 144.269971 244.168648 
L 144.269971 243.641962 
L 144.470655 243.641962 
L 144.510517 242.588589 
L 144.708467 242.588589 
L 144.708467 241.535217 
L 144.826168 241.535217 
L 144.826168 241.008531 
L 145.097753 241.008531 
L 145.097753 239.955159 
L 145.212864 239.955159 
L 145.289185 238.375101 
L 145.403044 238.375101 
L 145.478539 235.74167 
L 145.628555 235.74167 
L 145.628555 235.214984 
L 145.888018 235.214984 
L 145.961446 234.161612 
L 146.288102 234.161612 
L 146.288102 233.10824 
L 146.502522 233.10824 
L 146.608752 231.001496 
L 146.923612 231.001496 
L 146.958248 228.894751 
L 147.164632 228.894751 
L 147.164632 228.368065 
L 147.368603 228.368065 
L 147.402367 226.788007 
L 147.536775 226.788007 
L 147.536775 226.261321 
L 147.835457 226.261321 
L 147.933891 225.207949 
L 148.064279 225.207949 
L 148.096724 224.154577 
L 148.258051 224.154577 
L 148.258051 223.627891 
L 148.670646 223.627891 
L 148.670646 223.101204 
L 148.826773 223.101204 
L 148.919783 222.047832 
L 149.073705 222.047832 
L 149.073705 221.521146 
L 149.226281 221.521146 
L 149.31719 219.941088 
L 149.377533 219.941088 
L 149.467659 217.307658 
L 149.587107 217.307658 
L 149.646525 215.727599 
L 149.705742 215.727599 
L 149.705742 215.200913 
L 149.969756 215.200913 
L 150.027887 214.147541 
L 150.258492 214.147541 
L 150.31567 212.567483 
L 150.598782 212.567483 
L 150.598782 211.514111 
L 150.87737 211.514111 
L 150.904986 210.460738 
L 151.124351 210.460738 
L 151.124351 209.934052 
L 151.314058 209.934052 
L 151.421542 208.88068 
L 151.44831 208.88068 
L 151.44831 208.353994 
L 151.660987 208.353994 
L 151.660987 207.827308 
L 151.818809 207.827308 
L 151.897188 205.193878 
L 152.027042 205.193878 
L 152.130233 204.140506 
L 152.232818 204.140506 
L 152.232818 203.613819 
L 152.410901 203.613819 
L 152.410901 203.087133 
L 152.612222 203.087133 
L 152.662192 201.507075 
L 152.736878 201.507075 
L 152.736878 200.980389 
L 152.860649 200.980389 
L 152.860649 199.927017 
L 153.008024 199.927017 
L 153.032466 198.346959 
L 153.129893 198.346959 
L 153.129893 197.820273 
L 153.371104 197.820273 
L 153.371104 197.293586 
L 153.561699 197.293586 
L 153.632638 195.713528 
L 153.750233 195.713528 
L 153.750233 195.186842 
L 153.867041 195.186842 
L 153.936752 194.13347 
L 154.006185 194.13347 
L 154.006185 193.606784 
L 154.235652 193.606784 
L 154.235652 193.080098 
L 154.46214 193.080098 
L 154.46214 192.553412 
L 154.707925 192.553412 
L 154.752243 191.50004 
L 154.950294 191.50004 
L 154.994001 190.446667 
L 155.146121 190.446667 
L 155.167744 189.393295 
L 155.318362 189.393295 
L 155.403849 188.339923 
L 155.446436 188.339923 
L 155.46769 187.286551 
L 155.657823 187.286551 
L 155.741666 185.706493 
L 155.783437 185.706493 
L 155.86668 184.653121 
L 155.928852 184.653121 
L 155.928852 183.599748 
L 156.154939 183.599748 
L 156.236431 181.493004 
L 156.357959 181.493004 
L 156.398281 177.806202 
L 156.598505 177.806202 
L 156.677955 176.752829 
L 156.796456 176.752829 
L 156.796456 175.172771 
L 156.992185 175.172771 
L 156.992185 174.119399 
L 157.185742 174.119399 
L 157.185742 173.066027 
L 157.358125 173.066027 
L 157.358125 171.485969 
L 158.067744 171.485969 
L 158.122556 170.432596 
L 158.625992 170.432596 
L 158.625992 169.90591 
L 159.507213 169.90591 
L 159.608019 168.852538 
L 159.906985 168.852538 
L 159.98913 166.219108 
L 160.103486 166.219108 
L 160.103486 164.63905 
L 160.329974 164.63905 
L 160.410154 162.005619 
L 160.489968 162.005619 
L 160.585265 160.425561 
L 160.601097 160.425561 
L 160.680044 158.318817 
L 160.727241 158.318817 
L 160.789972 156.738758 
L 160.852479 156.738758 
L 160.852479 155.1587 
L 161.054091 155.1587 
L 161.161694 151.998584 
L 161.207607 151.998584 
L 161.207607 150.945211 
L 161.329454 150.945211 
L 161.435376 148.311781 
L 161.600536 148.311781 
L 161.70483 147.258409 
L 161.823263 147.258409 
L 161.823263 146.731723 
L 161.984807 146.731723 
L 162.072295 145.151665 
L 162.217141 145.151665 
L 162.217141 144.624978 
L 162.531628 144.624978 
L 162.531628 144.098292 
L 162.644595 144.098292 
L 162.644595 143.571606 
L 162.826621 143.571606 
L 162.909996 142.518234 
L 163.130401 142.518234 
L 163.19871 140.41149 
L 163.307451 140.41149 
L 163.307451 139.884804 
L 163.428979 139.884804 
L 163.428979 139.358118 
L 163.589711 139.358118 
L 163.682792 138.304745 
L 163.735759 138.304745 
L 163.841212 137.251373 
L 164.050224 137.251373 
L 164.050224 136.724687 
L 164.166702 136.724687 
L 164.179597 135.671315 
L 164.320806 135.671315 
L 164.384616 134.617943 
L 164.498889 134.617943 
L 164.498889 134.091257 
L 164.725213 134.091257 
L 164.725213 133.564571 
L 164.911599 133.564571 
L 164.911599 133.037885 
L 165.169236 133.037885 
L 165.169236 131.984513 
L 165.779524 131.984513 
L 165.861646 130.93114 
L 165.920069 130.93114 
L 165.920069 130.404454 
L 166.516342 130.404454 
L 166.516342 129.877768 
L 166.662278 129.877768 
L 166.662278 129.351082 
L 166.928532 129.351082 
L 166.928532 128.824396 
L 167.212459 128.824396 
L 167.309674 127.771024 
L 167.363449 127.771024 
L 167.470505 126.717652 
L 167.491837 126.717652 
L 167.555679 125.66428 
L 167.640438 125.66428 
L 167.651004 124.610907 
L 167.819196 124.610907 
L 167.840107 123.557535 
L 168.150791 123.557535 
L 168.150791 123.030849 
L 168.48627 123.030849 
L 168.51645 121.450791 
L 168.923766 121.450791 
L 168.972794 120.397419 
L 169.225542 120.397419 
L 169.225542 119.870733 
L 169.560096 119.870733 
L 169.645097 118.817361 
L 169.739058 118.817361 
L 169.804532 117.237302 
L 170.228776 117.237302 
L 170.29244 115.130558 
L 170.392016 115.130558 
L 170.473066 114.077186 
L 170.562682 114.077186 
L 170.625141 112.497128 
L 170.784729 112.497128 
L 170.793552 111.443755 
L 171.263501 111.443755 
L 171.323504 109.863697 
L 171.434392 109.863697 
L 171.51075 108.283639 
L 171.645677 108.283639 
L 171.754542 106.703581 
L 171.771231 106.703581 
L 171.846131 105.123522 
L 171.986738 105.123522 
L 172.044307 103.543464 
L 172.522125 103.543464 
L 172.522125 103.016778 
L 172.948265 103.016778 
L 173.018286 100.910034 
L 173.111214 100.910034 
L 173.180585 99.856662 
L 173.249682 99.856662 
L 173.249682 99.329976 
L 173.38706 99.329976 
L 173.38706 98.803289 
L 173.500721 98.803289 
L 173.523365 97.749917 
L 173.688525 97.749917 
L 173.695995 96.696545 
L 174.080103 96.696545 
L 174.080103 96.169859 
L 174.297915 96.169859 
L 174.297915 95.643173 
L 174.412979 95.643173 
L 174.412979 95.116487 
L 174.725545 95.116487 
L 174.788794 93.536429 
L 174.956347 93.536429 
L 175.011842 92.483056 
L 175.129186 92.483056 
L 175.197844 90.902998 
L 175.442801 90.902998 
L 175.54386 89.32294 
L 175.817135 89.32294 
L 175.823747 88.269568 
L 176.001331 88.269568 
L 176.099213 86.68951 
L 176.138213 86.68951 
L 176.24824 85.636137 
L 176.293345 85.636137 
L 176.293345 85.109451 
L 176.912855 85.109451 
L 176.94388 84.056079 
L 177.153401 84.056079 
L 177.153401 83.529393 
L 177.636682 83.529393 
L 177.672393 82.476021 
L 177.978871 82.476021 
L 178.019719 81.422649 
L 178.711096 81.422649 
L 178.711096 80.895963 
L 178.98346 80.895963 
L 179.049518 79.842591 
L 179.273347 79.842591 
L 179.354523 78.262532 
L 179.472902 78.262532 
L 179.579826 77.20916 
L 179.828547 77.20916 
L 179.860045 75.629102 
L 180.042657 75.629102 
L 180.042657 75.102416 
L 180.269546 75.102416 
L 180.269546 74.57573 
L 180.614487 74.57573 
L 180.709661 73.522358 
L 180.794378 73.522358 
L 180.794378 72.995672 
L 180.992105 72.995672 
L 181.085245 70.888927 
L 181.177891 70.888927 
L 181.177891 70.362241 
L 181.376149 70.362241 
L 181.486388 69.308869 
L 181.652818 69.308869 
L 181.652818 68.782183 
L 182.348626 68.782183 
L 182.348626 68.255497 
L 182.753163 68.255497 
L 182.757606 67.202125 
L 182.894767 67.202125 
L 182.92119 66.148752 
L 183.048341 66.148752 
L 183.144185 64.042008 
L 183.437144 64.042008 
L 183.492595 62.988636 
L 183.708446 62.988636 
L 183.708446 62.46195 
L 184.074726 62.46195 
L 184.185583 60.355206 
L 185.036253 60.355206 
L 185.137306 58.775147 
L 185.566037 58.775147 
L 185.584933 57.721775 
L 185.914197 57.721775 
L 185.914197 57.195089 
L 186.127863 57.195089 
L 186.127863 56.668403 
L 186.277338 56.668403 
L 186.277338 56.141717 
L 186.418342 56.141717 
L 186.515297 55.088345 
L 186.643738 55.088345 
L 186.643738 54.561659 
L 187.158601 54.561659 
L 187.158601 54.034973 
L 187.347395 54.034973 
L 187.347395 53.508287 
L 187.534168 53.508287 
L 187.554422 52.454914 
L 188.131803 52.454914 
L 188.203462 50.874856 
L 188.506369 50.874856 
L 188.551037 49.821484 
L 188.681193 49.821484 
L 188.681193 49.294798 
L 188.794681 49.294798 
L 188.794681 48.768112 
L 189.284215 48.768112 
L 189.284215 48.241426 
L 189.563056 48.241426 
L 189.563056 47.71474 
L 189.95256 47.71474 
L 190.049323 46.661368 
L 190.125184 46.661368 
L 190.125184 46.134681 
L 190.916333 46.134681 
L 190.916333 45.607995 
L 191.041088 45.607995 
L 191.063174 44.554623 
L 191.287952 44.554623 
L 191.287952 44.027937 
L 191.710401 44.027937 
L 191.710401 43.501251 
L 192.867447 43.501251 
L 192.867447 42.974565 
L 193.025942 42.974565 
L 193.025942 42.447879 
L 193.757362 42.447879 
L 193.757362 41.921193 
L 194.821146 41.921193 
L 194.907672 40.867821 
L 195.121033 40.867821 
L 195.158158 39.814448 
L 195.567803 39.814448 
L 195.567803 39.287762 
L 195.688843 39.287762 
L 195.688843 38.761076 
L 196.156535 38.761076 
L 196.203855 37.707704 
L 196.708085 37.707704 
L 196.732021 36.654332 
L 197.141773 36.654332 
L 197.141773 36.127646 
L 197.373862 36.127646 
L 197.394983 35.074274 
L 197.564938 35.074274 
L 197.564938 34.547588 
L 198.425121 34.547588 
L 198.484712 33.494215 
L 198.696143 33.494215 
L 198.696143 32.967529 
L 199.620467 32.967529 
L 199.620467 32.440843 
L 200.92347 32.440843 
L 200.92347 31.914157 
L 203.283091 31.914157 
L 203.283091 31.387471 
L 203.400436 31.387471 
L 203.400436 30.860785 
L 222.238752 30.860785 
L 222.238752 30.334099 
L 338.688 30.334099 
L 338.688 30.334099 
" style="fill:none;stroke:#008000;stroke-linecap:square;stroke-width:1.5;"/>
   </g>
   <g id="line2d_36">
    <defs>
     <path d="M -0 6 
L 6 -6 
L -6 -6 
z
" id="m858f01b343" style="stroke:#008000;stroke-linejoin:miter;stroke-width:1.5;"/>
    </defs>
    <g>
     <use style="fill-opacity:0;stroke:#008000;stroke-linejoin:miter;stroke-width:1.5;" x="151.660987" xlink:href="#m858f01b343" y="207.827308"/>
     <use style="fill-opacity:0;stroke:#008000;stroke-linejoin:miter;stroke-width:1.5;" x="171.846131" xlink:href="#m858f01b343" y="105.123522"/>
     <use style="fill-opacity:0;stroke:#008000;stroke-linejoin:miter;stroke-width:1.5;" x="222.238752" xlink:href="#m858f01b343" y="30.860785"/>
     <use style="fill-opacity:0;stroke:#008000;stroke-linejoin:miter;stroke-width:1.5;" x="222.238752" xlink:href="#m858f01b343" y="30.334099"/>
     <use style="fill-opacity:0;stroke:#008000;stroke-linejoin:miter;stroke-width:1.5;" x="338.688" xlink:href="#m858f01b343" y="30.334099"/>
    </g>
   </g>
   <g id="line2d_37">
    <path style="fill:none;stroke:#008000;stroke-linecap:square;stroke-width:1.5;"/>
    <g/>
   </g>
   <g id="line2d_38">
    <path clip-path="url(#pb1f0111a26)" d="M 162.115875 145.151665 
" style="fill:none;stroke:#008000;stroke-linecap:square;stroke-width:1.5;"/>
    <defs>
     <path d="M -12 12 
L 12 -12 
M -12 -12 
L 12 12 
" id="mcf92d4221c" style="stroke:#008000;"/>
    </defs>
    <g clip-path="url(#pb1f0111a26)">
     <use style="fill:#008000;stroke:#008000;" x="162.115875" xlink:href="#mcf92d4221c" y="145.151665"/>
    </g>
   </g>
   <g id="line2d_39">
    <path d="M 338.688 30.334099 
L 369.60768 293.571802 
" style="fill:none;stroke:#008000;stroke-linecap:square;stroke-width:1.5;"/>
    <g>
     <use style="fill-opacity:0;stroke:#008000;stroke-linejoin:miter;stroke-width:1.5;" x="338.688" xlink:href="#m858f01b343" y="30.334099"/>
     <use style="fill-opacity:0;stroke:#008000;stroke-linejoin:miter;stroke-width:1.5;" x="369.60768" xlink:href="#m858f01b343" y="293.571802"/>
    </g>
   </g>
   <g id="line2d_40">
    <path d="M 338.688 30.334099 
L 369.60768 35.706297 
" style="fill:none;stroke:#00bfbf;stroke-linecap:square;stroke-width:1.5;"/>
    <g>
     <use style="fill-opacity:0;stroke:#00bfbf;stroke-width:1.5;" x="338.688" xlink:href="#mee4d04a42e" y="30.334099"/>
     <use style="fill-opacity:0;stroke:#00bfbf;stroke-width:1.5;" x="369.60768" xlink:href="#mee4d04a42e" y="35.706297"/>
    </g>
   </g>
   <g id="line2d_41">
    <path d="M 338.688 298.944 
L 338.688 30.334099 
" style="fill:none;stroke:#000000;stroke-linecap:square;stroke-width:1.5;"/>
   </g>
   <g id="patch_3">
    <path d="M 57.6 298.944 
L 57.6 27.648 
" style="fill:none;stroke:#000000;stroke-linecap:square;stroke-linejoin:miter;stroke-width:0.8;"/>
   </g>
   <g id="patch_4">
    <path d="M 338.688 298.944 
L 338.688 27.648 
" style="fill:none;stroke:#000000;stroke-linecap:square;stroke-linejoin:miter;stroke-width:0.8;"/>
   </g>
   <g id="patch_5">
    <path d="M 57.6 298.944 
L 338.688 298.944 
" style="fill:none;stroke:#000000;stroke-linecap:square;stroke-linejoin:miter;stroke-width:0.8;"/>
   </g>
   <g id="patch_6">
    <path d="M 57.6 27.648 
L 338.688 27.648 
" style="fill:none;stroke:#000000;stroke-linecap:square;stroke-linejoin:miter;stroke-width:0.8;"/>
   </g>
   <g id="text_13">
    <!-- 3-D -->
    <defs>
     <path d="M 40.578125 39.3125 
Q 47.65625 37.796875 51.625 33 
Q 55.609375 28.21875 55.609375 21.1875 
Q 55.609375 10.40625 48.1875 4.484375 
Q 40.765625 -1.421875 27.09375 -1.421875 
Q 22.515625 -1.421875 17.65625 -0.515625 
Q 12.796875 0.390625 7.625 2.203125 
L 7.625 11.71875 
Q 11.71875 9.328125 16.59375 8.109375 
Q 21.484375 6.890625 26.8125 6.890625 
Q 36.078125 6.890625 40.9375 10.546875 
Q 45.796875 14.203125 45.796875 21.1875 
Q 45.796875 27.640625 41.28125 31.265625 
Q 36.765625 34.90625 28.71875 34.90625 
L 20.21875 34.90625 
L 20.21875 43.015625 
L 29.109375 43.015625 
Q 36.375 43.015625 40.234375 45.921875 
Q 44.09375 48.828125 44.09375 54.296875 
Q 44.09375 59.90625 40.109375 62.90625 
Q 36.140625 65.921875 28.71875 65.921875 
Q 24.65625 65.921875 20.015625 65.03125 
Q 15.375 64.15625 9.8125 62.3125 
L 9.8125 71.09375 
Q 15.4375 72.65625 20.34375 73.4375 
Q 25.25 74.21875 29.59375 74.21875 
Q 40.828125 74.21875 47.359375 69.109375 
Q 53.90625 64.015625 53.90625 55.328125 
Q 53.90625 49.265625 50.4375 45.09375 
Q 46.96875 40.921875 40.578125 39.3125 
z
" id="DejaVuSans-51"/>
     <path d="M 19.671875 64.796875 
L 19.671875 8.109375 
L 31.59375 8.109375 
Q 46.6875 8.109375 53.6875 14.9375 
Q 60.6875 21.78125 60.6875 36.53125 
Q 60.6875 51.171875 53.6875 57.984375 
Q 46.6875 64.796875 31.59375 64.796875 
z
M 9.8125 72.90625 
L 30.078125 72.90625 
Q 51.265625 72.90625 61.171875 64.09375 
Q 71.09375 55.28125 71.09375 36.53125 
Q 71.09375 17.671875 61.125 8.828125 
Q 51.171875 0 30.078125 0 
L 9.8125 0 
z
" id="DejaVuSans-68"/>
    </defs>
    <g transform="translate(375.22944 298.262739)scale(0.17 -0.17)">
     <use xlink:href="#DejaVuSans-51"/>
     <use x="63.623047" xlink:href="#DejaVuSans-45"/>
     <use x="99.707031" xlink:href="#DejaVuSans-68"/>
    </g>
   </g>
   <g id="text_14">
    <!-- 2-D -->
    <g transform="translate(375.22944 40.397235)scale(0.17 -0.17)">
     <use xlink:href="#DejaVuSans-50"/>
     <use x="63.623047" xlink:href="#DejaVuSans-45"/>
     <use x="99.707031" xlink:href="#DejaVuSans-68"/>
    </g>
   </g>
   <g id="text_15">
    <!-- bbob f12 -->
    <defs>
     <path d="M 48.6875 27.296875 
Q 48.6875 37.203125 44.609375 42.84375 
Q 40.53125 48.484375 33.40625 48.484375 
Q 26.265625 48.484375 22.1875 42.84375 
Q 18.109375 37.203125 18.109375 27.296875 
Q 18.109375 17.390625 22.1875 11.75 
Q 26.265625 6.109375 33.40625 6.109375 
Q 40.53125 6.109375 44.609375 11.75 
Q 48.6875 17.390625 48.6875 27.296875 
z
M 18.109375 46.390625 
Q 20.953125 51.265625 25.265625 53.625 
Q 29.59375 56 35.59375 56 
Q 45.5625 56 51.78125 48.09375 
Q 58.015625 40.1875 58.015625 27.296875 
Q 58.015625 14.40625 51.78125 6.484375 
Q 45.5625 -1.421875 35.59375 -1.421875 
Q 29.59375 -1.421875 25.265625 0.953125 
Q 20.953125 3.328125 18.109375 8.203125 
L 18.109375 0 
L 9.078125 0 
L 9.078125 75.984375 
L 18.109375 75.984375 
z
" id="DejaVuSans-98"/>
    </defs>
    <g transform="translate(60.41088 38.111366)scale(0.102 -0.102)">
     <use xlink:href="#DejaVuSans-98"/>
     <use x="63.476562" xlink:href="#DejaVuSans-98"/>
     <use x="126.953125" xlink:href="#DejaVuSans-111"/>
     <use x="188.134766" xlink:href="#DejaVuSans-98"/>
     <use x="251.611328" xlink:href="#DejaVuSans-32"/>
     <use x="283.398438" xlink:href="#DejaVuSans-102"/>
     <use x="318.603516" xlink:href="#DejaVuSans-49"/>
     <use x="382.226562" xlink:href="#DejaVuSans-50"/>
    </g>
    <!-- 51 targets: 100..1e-08 -->
    <defs>
     <path d="M 10.796875 72.90625 
L 49.515625 72.90625 
L 49.515625 64.59375 
L 19.828125 64.59375 
L 19.828125 46.734375 
Q 21.96875 47.46875 24.109375 47.828125 
Q 26.265625 48.1875 28.421875 48.1875 
Q 40.625 48.1875 47.75 41.5 
Q 54.890625 34.8125 54.890625 23.390625 
Q 54.890625 11.625 47.5625 5.09375 
Q 40.234375 -1.421875 26.90625 -1.421875 
Q 22.3125 -1.421875 17.546875 -0.640625 
Q 12.796875 0.140625 7.71875 1.703125 
L 7.71875 11.625 
Q 12.109375 9.234375 16.796875 8.0625 
Q 21.484375 6.890625 26.703125 6.890625 
Q 35.15625 6.890625 40.078125 11.328125 
Q 45.015625 15.765625 45.015625 23.390625 
Q 45.015625 31 40.078125 35.4375 
Q 35.15625 39.890625 26.703125 39.890625 
Q 22.75 39.890625 18.8125 39.015625 
Q 14.890625 38.140625 10.796875 36.28125 
z
" id="DejaVuSans-53"/>
     <path d="M 11.71875 12.40625 
L 22.015625 12.40625 
L 22.015625 0 
L 11.71875 0 
z
M 11.71875 51.703125 
L 22.015625 51.703125 
L 22.015625 39.3125 
L 11.71875 39.3125 
z
" id="DejaVuSans-58"/>
    </defs>
    <g transform="translate(60.41088 49.533135)scale(0.102 -0.102)">
     <use xlink:href="#DejaVuSans-53"/>
     <use x="63.623047" xlink:href="#DejaVuSans-49"/>
     <use x="127.246094" xlink:href="#DejaVuSans-32"/>
     <use x="159.033203" xlink:href="#DejaVuSans-116"/>
     <use x="198.242188" xlink:href="#DejaVuSans-97"/>
     <use x="259.521484" xlink:href="#DejaVuSans-114"/>
     <use x="298.884766" xlink:href="#DejaVuSans-103"/>
     <use x="362.361328" xlink:href="#DejaVuSans-101"/>
     <use x="423.884766" xlink:href="#DejaVuSans-116"/>
     <use x="463.09375" xlink:href="#DejaVuSans-115"/>
     <use x="515.193359" xlink:href="#DejaVuSans-58"/>
     <use x="548.884766" xlink:href="#DejaVuSans-32"/>
     <use x="580.671875" xlink:href="#DejaVuSans-49"/>
     <use x="644.294922" xlink:href="#DejaVuSans-48"/>
     <use x="707.917969" xlink:href="#DejaVuSans-48"/>
     <use x="771.541016" xlink:href="#DejaVuSans-46"/>
     <use x="803.328125" xlink:href="#DejaVuSans-46"/>
     <use x="835.115234" xlink:href="#DejaVuSans-49"/>
     <use x="898.738281" xlink:href="#DejaVuSans-101"/>
     <use x="960.261719" xlink:href="#DejaVuSans-45"/>
     <use x="996.345703" xlink:href="#DejaVuSans-48"/>
     <use x="1059.96875" xlink:href="#DejaVuSans-56"/>
    </g>
    <!-- 15 instances -->
    <g transform="translate(60.41088 60.954904)scale(0.102 -0.102)">
     <use xlink:href="#DejaVuSans-49"/>
     <use x="63.623047" xlink:href="#DejaVuSans-53"/>
     <use x="127.246094" xlink:href="#DejaVuSans-32"/>
     <use x="159.033203" xlink:href="#DejaVuSans-105"/>
     <use x="186.816406" xlink:href="#DejaVuSans-110"/>
     <use x="250.195312" xlink:href="#DejaVuSans-115"/>
     <use x="302.294922" xlink:href="#DejaVuSans-116"/>
     <use x="341.503906" xlink:href="#DejaVuSans-97"/>
     <use x="402.783203" xlink:href="#DejaVuSans-110"/>
     <use x="466.162109" xlink:href="#DejaVuSans-99"/>
     <use x="521.142578" xlink:href="#DejaVuSans-101"/>
     <use x="582.666016" xlink:href="#DejaVuSans-115"/>
    </g>
   </g>
   <g id="text_16">
    <!-- v2.3.3.5 -->
    <g style="fill:#808080;" transform="translate(177.692437 294.151352)scale(0.1 -0.1)">
     <use xlink:href="#DejaVuSans-118"/>
     <use x="59.179688" xlink:href="#DejaVuSans-50"/>
     <use x="122.802734" xlink:href="#DejaVuSans-46"/>
     <use x="154.589844" xlink:href="#DejaVuSans-51"/>
     <use x="218.212891" xlink:href="#DejaVuSans-46"/>
     <use x="250" xlink:href="#DejaVuSans-51"/>
     <use x="313.623047" xlink:href="#DejaVuSans-46"/>
     <use x="345.410156" xlink:href="#DejaVuSans-53"/>
    </g>
   </g>
   <g id="text_17">
    <!-- 12 Bent cigar -->
    <defs>
     <path d="M 19.671875 34.8125 
L 19.671875 8.109375 
L 35.5 8.109375 
Q 43.453125 8.109375 47.28125 11.40625 
Q 51.125 14.703125 51.125 21.484375 
Q 51.125 28.328125 47.28125 31.5625 
Q 43.453125 34.8125 35.5 34.8125 
z
M 19.671875 64.796875 
L 19.671875 42.828125 
L 34.28125 42.828125 
Q 41.5 42.828125 45.03125 45.53125 
Q 48.578125 48.25 48.578125 53.8125 
Q 48.578125 59.328125 45.03125 62.0625 
Q 41.5 64.796875 34.28125 64.796875 
z
M 9.8125 72.90625 
L 35.015625 72.90625 
Q 46.296875 72.90625 52.390625 68.21875 
Q 58.5 63.53125 58.5 54.890625 
Q 58.5 48.1875 55.375 44.234375 
Q 52.25 40.28125 46.1875 39.3125 
Q 53.46875 37.75 57.5 32.78125 
Q 61.53125 27.828125 61.53125 20.40625 
Q 61.53125 10.640625 54.890625 5.3125 
Q 48.25 0 35.984375 0 
L 9.8125 0 
z
" id="DejaVuSans-66"/>
    </defs>
    <g transform="translate(130.926812 21.648)scale(0.2 -0.2)">
     <use xlink:href="#DejaVuSans-49"/>
     <use x="63.623047" xlink:href="#DejaVuSans-50"/>
     <use x="127.246094" xlink:href="#DejaVuSans-32"/>
     <use x="159.033203" xlink:href="#DejaVuSans-66"/>
     <use x="227.636719" xlink:href="#DejaVuSans-101"/>
     <use x="289.160156" xlink:href="#DejaVuSans-110"/>
     <use x="352.539062" xlink:href="#DejaVuSans-116"/>
     <use x="391.748047" xlink:href="#DejaVuSans-32"/>
     <use x="423.535156" xlink:href="#DejaVuSans-99"/>
     <use x="478.515625" xlink:href="#DejaVuSans-105"/>
     <use x="506.298828" xlink:href="#DejaVuSans-103"/>
     <use x="569.775391" xlink:href="#DejaVuSans-97"/>
     <use x="631.054688" xlink:href="#DejaVuSans-114"/>
    </g>
   </g>
  </g>
 </g>
 <defs>
  <clipPath id="pb1f0111a26">
   <rect height="271.296" width="281.088" x="57.6" y="27.648"/>
  </clipPath>
 </defs>
</svg>
