<?xml version="1.0" encoding="utf-8" standalone="no"?>
<!DOCTYPE svg PUBLIC "-//W3C//DTD SVG 1.1//EN"
  "http://www.w3.org/Graphics/SVG/1.1/DTD/svg11.dtd">
<!-- Created with matplotlib (https://matplotlib.org/) -->
<svg height="345.6pt" version="1.1" viewBox="0 0 460.8 345.6" width="460.8pt" xmlns="http://www.w3.org/2000/svg" xmlns:xlink="http://www.w3.org/1999/xlink">
 <defs>
  <style type="text/css">
*{stroke-linecap:butt;stroke-linejoin:round;}
  </style>
 </defs>
 <g id="figure_1">
  <g id="patch_1">
   <path d="M 0 345.6 
L 460.8 345.6 
L 460.8 0 
L 0 0 
z
" style="fill:#ffffff;"/>
  </g>
  <g id="axes_1">
   <g id="patch_2">
    <path d="M 57.6 298.944 
L 338.688 298.944 
L 338.688 3.456 
L 57.6 3.456 
z
" style="fill:#ffffff;"/>
   </g>
   <g id="matplotlib.axis_1">
    <g id="xtick_1">
     <g id="line2d_1">
      <path clip-path="url(#p9b2aee9c79)" d="M 57.6 298.944 
L 57.6 3.456 
" style="fill:none;stroke:#b0b0b0;stroke-linecap:square;stroke-width:0.8;"/>
     </g>
     <g id="line2d_2">
      <defs>
       <path d="M 0 0 
L 0 3.5 
" id="m644fe45b90" style="stroke:#000000;stroke-width:0.8;"/>
      </defs>
      <g>
       <use style="stroke:#000000;stroke-width:0.8;" x="57.6" xlink:href="#m644fe45b90" y="298.944"/>
      </g>
     </g>
     <g id="text_1">
      <!-- 0 -->
      <defs>
       <path d="M 31.78125 66.40625 
Q 24.171875 66.40625 20.328125 58.90625 
Q 16.5 51.421875 16.5 36.375 
Q 16.5 21.390625 20.328125 13.890625 
Q 24.171875 6.390625 31.78125 6.390625 
Q 39.453125 6.390625 43.28125 13.890625 
Q 47.125 21.390625 47.125 36.375 
Q 47.125 51.421875 43.28125 58.90625 
Q 39.453125 66.40625 31.78125 66.40625 
z
M 31.78125 74.21875 
Q 44.046875 74.21875 50.515625 64.515625 
Q 56.984375 54.828125 56.984375 36.375 
Q 56.984375 17.96875 50.515625 8.265625 
Q 44.046875 -1.421875 31.78125 -1.421875 
Q 19.53125 -1.421875 13.0625 8.265625 
Q 6.59375 17.96875 6.59375 36.375 
Q 6.59375 54.828125 13.0625 64.515625 
Q 19.53125 74.21875 31.78125 74.21875 
z
" id="DejaVuSans-48"/>
      </defs>
      <g transform="translate(51.2375 321.140875)scale(0.2 -0.2)">
       <use xlink:href="#DejaVuSans-48"/>
      </g>
     </g>
    </g>
    <g id="xtick_2">
     <g id="line2d_3">
      <path clip-path="url(#p9b2aee9c79)" d="M 137.910857 298.944 
L 137.910857 3.456 
" style="fill:none;stroke:#b0b0b0;stroke-linecap:square;stroke-width:0.8;"/>
     </g>
     <g id="line2d_4">
      <g>
       <use style="stroke:#000000;stroke-width:0.8;" x="137.910857" xlink:href="#m644fe45b90" y="298.944"/>
      </g>
     </g>
     <g id="text_2">
      <!-- 2 -->
      <defs>
       <path d="M 19.1875 8.296875 
L 53.609375 8.296875 
L 53.609375 0 
L 7.328125 0 
L 7.328125 8.296875 
Q 12.9375 14.109375 22.625 23.890625 
Q 32.328125 33.6875 34.8125 36.53125 
Q 39.546875 41.84375 41.421875 45.53125 
Q 43.3125 49.21875 43.3125 52.78125 
Q 43.3125 58.59375 39.234375 62.25 
Q 35.15625 65.921875 28.609375 65.921875 
Q 23.96875 65.921875 18.8125 64.3125 
Q 13.671875 62.703125 7.8125 59.421875 
L 7.8125 69.390625 
Q 13.765625 71.78125 18.9375 73 
Q 24.125 74.21875 28.421875 74.21875 
Q 39.75 74.21875 46.484375 68.546875 
Q 53.21875 62.890625 53.21875 53.421875 
Q 53.21875 48.921875 51.53125 44.890625 
Q 49.859375 40.875 45.40625 35.40625 
Q 44.1875 33.984375 37.640625 27.21875 
Q 31.109375 20.453125 19.1875 8.296875 
z
" id="DejaVuSans-50"/>
      </defs>
      <g transform="translate(131.548357 321.140875)scale(0.2 -0.2)">
       <use xlink:href="#DejaVuSans-50"/>
      </g>
     </g>
    </g>
    <g id="xtick_3">
     <g id="line2d_5">
      <path clip-path="url(#p9b2aee9c79)" d="M 218.221714 298.944 
L 218.221714 3.456 
" style="fill:none;stroke:#b0b0b0;stroke-linecap:square;stroke-width:0.8;"/>
     </g>
     <g id="line2d_6">
      <g>
       <use style="stroke:#000000;stroke-width:0.8;" x="218.221714" xlink:href="#m644fe45b90" y="298.944"/>
      </g>
     </g>
     <g id="text_3">
      <!-- 4 -->
      <defs>
       <path d="M 37.796875 64.3125 
L 12.890625 25.390625 
L 37.796875 25.390625 
z
M 35.203125 72.90625 
L 47.609375 72.90625 
L 47.609375 25.390625 
L 58.015625 25.390625 
L 58.015625 17.1875 
L 47.609375 17.1875 
L 47.609375 0 
L 37.796875 0 
L 37.796875 17.1875 
L 4.890625 17.1875 
L 4.890625 26.703125 
z
" id="DejaVuSans-52"/>
      </defs>
      <g transform="translate(211.859214 321.140875)scale(0.2 -0.2)">
       <use xlink:href="#DejaVuSans-52"/>
      </g>
     </g>
    </g>
    <g id="xtick_4">
     <g id="line2d_7">
      <path clip-path="url(#p9b2aee9c79)" d="M 298.532571 298.944 
L 298.532571 3.456 
" style="fill:none;stroke:#b0b0b0;stroke-linecap:square;stroke-width:0.8;"/>
     </g>
     <g id="line2d_8">
      <g>
       <use style="stroke:#000000;stroke-width:0.8;" x="298.532571" xlink:href="#m644fe45b90" y="298.944"/>
      </g>
     </g>
     <g id="text_4">
      <!-- 6 -->
      <defs>
       <path d="M 33.015625 40.375 
Q 26.375 40.375 22.484375 35.828125 
Q 18.609375 31.296875 18.609375 23.390625 
Q 18.609375 15.53125 22.484375 10.953125 
Q 26.375 6.390625 33.015625 6.390625 
Q 39.65625 6.390625 43.53125 10.953125 
Q 47.40625 15.53125 47.40625 23.390625 
Q 47.40625 31.296875 43.53125 35.828125 
Q 39.65625 40.375 33.015625 40.375 
z
M 52.59375 71.296875 
L 52.59375 62.3125 
Q 48.875 64.0625 45.09375 64.984375 
Q 41.3125 65.921875 37.59375 65.921875 
Q 27.828125 65.921875 22.671875 59.328125 
Q 17.53125 52.734375 16.796875 39.40625 
Q 19.671875 43.65625 24.015625 45.921875 
Q 28.375 48.1875 33.59375 48.1875 
Q 44.578125 48.1875 50.953125 41.515625 
Q 57.328125 34.859375 57.328125 23.390625 
Q 57.328125 12.15625 50.6875 5.359375 
Q 44.046875 -1.421875 33.015625 -1.421875 
Q 20.359375 -1.421875 13.671875 8.265625 
Q 6.984375 17.96875 6.984375 36.375 
Q 6.984375 53.65625 15.1875 63.9375 
Q 23.390625 74.21875 37.203125 74.21875 
Q 40.921875 74.21875 44.703125 73.484375 
Q 48.484375 72.75 52.59375 71.296875 
z
" id="DejaVuSans-54"/>
      </defs>
      <g transform="translate(292.170071 321.140875)scale(0.2 -0.2)">
       <use xlink:href="#DejaVuSans-54"/>
      </g>
     </g>
    </g>
    <g id="xtick_5">
     <g id="line2d_9">
      <path clip-path="url(#p9b2aee9c79)" d="M 97.755429 298.944 
L 97.755429 3.456 
" style="fill:none;stroke:#b0b0b0;stroke-linecap:square;stroke-width:0.8;"/>
     </g>
     <g id="line2d_10">
      <defs>
       <path d="M 0 0 
L 0 2 
" id="me674dff150" style="stroke:#000000;stroke-width:0.6;"/>
      </defs>
      <g>
       <use style="stroke:#000000;stroke-width:0.6;" x="97.755429" xlink:href="#me674dff150" y="298.944"/>
      </g>
     </g>
    </g>
    <g id="xtick_6">
     <g id="line2d_11">
      <path clip-path="url(#p9b2aee9c79)" d="M 178.066286 298.944 
L 178.066286 3.456 
" style="fill:none;stroke:#b0b0b0;stroke-linecap:square;stroke-width:0.8;"/>
     </g>
     <g id="line2d_12">
      <g>
       <use style="stroke:#000000;stroke-width:0.6;" x="178.066286" xlink:href="#me674dff150" y="298.944"/>
      </g>
     </g>
    </g>
    <g id="xtick_7">
     <g id="line2d_13">
      <path clip-path="url(#p9b2aee9c79)" d="M 258.377143 298.944 
L 258.377143 3.456 
" style="fill:none;stroke:#b0b0b0;stroke-linecap:square;stroke-width:0.8;"/>
     </g>
     <g id="line2d_14">
      <g>
       <use style="stroke:#000000;stroke-width:0.6;" x="258.377143" xlink:href="#me674dff150" y="298.944"/>
      </g>
     </g>
    </g>
    <g id="xtick_8">
     <g id="line2d_15">
      <path clip-path="url(#p9b2aee9c79)" d="M 338.688 298.944 
L 338.688 3.456 
" style="fill:none;stroke:#b0b0b0;stroke-linecap:square;stroke-width:0.8;"/>
     </g>
     <g id="line2d_16">
      <g>
       <use style="stroke:#000000;stroke-width:0.6;" x="338.688" xlink:href="#me674dff150" y="298.944"/>
      </g>
     </g>
    </g>
    <g id="text_5">
     <!-- log10(# f-evals / dimension) -->
     <defs>
      <path d="M 9.421875 75.984375 
L 18.40625 75.984375 
L 18.40625 0 
L 9.421875 0 
z
" id="DejaVuSans-108"/>
      <path d="M 30.609375 48.390625 
Q 23.390625 48.390625 19.1875 42.75 
Q 14.984375 37.109375 14.984375 27.296875 
Q 14.984375 17.484375 19.15625 11.84375 
Q 23.34375 6.203125 30.609375 6.203125 
Q 37.796875 6.203125 41.984375 11.859375 
Q 46.1875 17.53125 46.1875 27.296875 
Q 46.1875 37.015625 41.984375 42.703125 
Q 37.796875 48.390625 30.609375 48.390625 
z
M 30.609375 56 
Q 42.328125 56 49.015625 48.375 
Q 55.71875 40.765625 55.71875 27.296875 
Q 55.71875 13.875 49.015625 6.21875 
Q 42.328125 -1.421875 30.609375 -1.421875 
Q 18.84375 -1.421875 12.171875 6.21875 
Q 5.515625 13.875 5.515625 27.296875 
Q 5.515625 40.765625 12.171875 48.375 
Q 18.84375 56 30.609375 56 
z
" id="DejaVuSans-111"/>
      <path d="M 45.40625 27.984375 
Q 45.40625 37.75 41.375 43.109375 
Q 37.359375 48.484375 30.078125 48.484375 
Q 22.859375 48.484375 18.828125 43.109375 
Q 14.796875 37.75 14.796875 27.984375 
Q 14.796875 18.265625 18.828125 12.890625 
Q 22.859375 7.515625 30.078125 7.515625 
Q 37.359375 7.515625 41.375 12.890625 
Q 45.40625 18.265625 45.40625 27.984375 
z
M 54.390625 6.78125 
Q 54.390625 -7.171875 48.1875 -13.984375 
Q 42 -20.796875 29.203125 -20.796875 
Q 24.46875 -20.796875 20.265625 -20.09375 
Q 16.0625 -19.390625 12.109375 -17.921875 
L 12.109375 -9.1875 
Q 16.0625 -11.328125 19.921875 -12.34375 
Q 23.78125 -13.375 27.78125 -13.375 
Q 36.625 -13.375 41.015625 -8.765625 
Q 45.40625 -4.15625 45.40625 5.171875 
L 45.40625 9.625 
Q 42.625 4.78125 38.28125 2.390625 
Q 33.9375 0 27.875 0 
Q 17.828125 0 11.671875 7.65625 
Q 5.515625 15.328125 5.515625 27.984375 
Q 5.515625 40.671875 11.671875 48.328125 
Q 17.828125 56 27.875 56 
Q 33.9375 56 38.28125 53.609375 
Q 42.625 51.21875 45.40625 46.390625 
L 45.40625 54.6875 
L 54.390625 54.6875 
z
" id="DejaVuSans-103"/>
      <path d="M 12.40625 8.296875 
L 28.515625 8.296875 
L 28.515625 63.921875 
L 10.984375 60.40625 
L 10.984375 69.390625 
L 28.421875 72.90625 
L 38.28125 72.90625 
L 38.28125 8.296875 
L 54.390625 8.296875 
L 54.390625 0 
L 12.40625 0 
z
" id="DejaVuSans-49"/>
      <path d="M 31 75.875 
Q 24.46875 64.65625 21.28125 53.65625 
Q 18.109375 42.671875 18.109375 31.390625 
Q 18.109375 20.125 21.3125 9.0625 
Q 24.515625 -2 31 -13.1875 
L 23.1875 -13.1875 
Q 15.875 -1.703125 12.234375 9.375 
Q 8.59375 20.453125 8.59375 31.390625 
Q 8.59375 42.28125 12.203125 53.3125 
Q 15.828125 64.359375 23.1875 75.875 
z
" id="DejaVuSans-40"/>
      <path d="M 51.125 44 
L 36.921875 44 
L 32.8125 27.6875 
L 47.125 27.6875 
z
M 43.796875 71.78125 
L 38.71875 51.515625 
L 52.984375 51.515625 
L 58.109375 71.78125 
L 65.921875 71.78125 
L 60.890625 51.515625 
L 76.125 51.515625 
L 76.125 44 
L 58.984375 44 
L 54.984375 27.6875 
L 70.515625 27.6875 
L 70.515625 20.21875 
L 53.078125 20.21875 
L 48 0 
L 40.1875 0 
L 45.21875 20.21875 
L 30.90625 20.21875 
L 25.875 0 
L 18.015625 0 
L 23.09375 20.21875 
L 7.71875 20.21875 
L 7.71875 27.6875 
L 24.90625 27.6875 
L 29 44 
L 13.28125 44 
L 13.28125 51.515625 
L 30.90625 51.515625 
L 35.890625 71.78125 
z
" id="DejaVuSans-35"/>
      <path id="DejaVuSans-32"/>
      <path d="M 37.109375 75.984375 
L 37.109375 68.5 
L 28.515625 68.5 
Q 23.6875 68.5 21.796875 66.546875 
Q 19.921875 64.59375 19.921875 59.515625 
L 19.921875 54.6875 
L 34.71875 54.6875 
L 34.71875 47.703125 
L 19.921875 47.703125 
L 19.921875 0 
L 10.890625 0 
L 10.890625 47.703125 
L 2.296875 47.703125 
L 2.296875 54.6875 
L 10.890625 54.6875 
L 10.890625 58.5 
Q 10.890625 67.625 15.140625 71.796875 
Q 19.390625 75.984375 28.609375 75.984375 
z
" id="DejaVuSans-102"/>
      <path d="M 4.890625 31.390625 
L 31.203125 31.390625 
L 31.203125 23.390625 
L 4.890625 23.390625 
z
" id="DejaVuSans-45"/>
      <path d="M 56.203125 29.59375 
L 56.203125 25.203125 
L 14.890625 25.203125 
Q 15.484375 15.921875 20.484375 11.0625 
Q 25.484375 6.203125 34.421875 6.203125 
Q 39.59375 6.203125 44.453125 7.46875 
Q 49.3125 8.734375 54.109375 11.28125 
L 54.109375 2.78125 
Q 49.265625 0.734375 44.1875 -0.34375 
Q 39.109375 -1.421875 33.890625 -1.421875 
Q 20.796875 -1.421875 13.15625 6.1875 
Q 5.515625 13.8125 5.515625 26.8125 
Q 5.515625 40.234375 12.765625 48.109375 
Q 20.015625 56 32.328125 56 
Q 43.359375 56 49.78125 48.890625 
Q 56.203125 41.796875 56.203125 29.59375 
z
M 47.21875 32.234375 
Q 47.125 39.59375 43.09375 43.984375 
Q 39.0625 48.390625 32.421875 48.390625 
Q 24.90625 48.390625 20.390625 44.140625 
Q 15.875 39.890625 15.1875 32.171875 
z
" id="DejaVuSans-101"/>
      <path d="M 2.984375 54.6875 
L 12.5 54.6875 
L 29.59375 8.796875 
L 46.6875 54.6875 
L 56.203125 54.6875 
L 35.6875 0 
L 23.484375 0 
z
" id="DejaVuSans-118"/>
      <path d="M 34.28125 27.484375 
Q 23.390625 27.484375 19.1875 25 
Q 14.984375 22.515625 14.984375 16.5 
Q 14.984375 11.71875 18.140625 8.90625 
Q 21.296875 6.109375 26.703125 6.109375 
Q 34.1875 6.109375 38.703125 11.40625 
Q 43.21875 16.703125 43.21875 25.484375 
L 43.21875 27.484375 
z
M 52.203125 31.203125 
L 52.203125 0 
L 43.21875 0 
L 43.21875 8.296875 
Q 40.140625 3.328125 35.546875 0.953125 
Q 30.953125 -1.421875 24.3125 -1.421875 
Q 15.921875 -1.421875 10.953125 3.296875 
Q 6 8.015625 6 15.921875 
Q 6 25.140625 12.171875 29.828125 
Q 18.359375 34.515625 30.609375 34.515625 
L 43.21875 34.515625 
L 43.21875 35.40625 
Q 43.21875 41.609375 39.140625 45 
Q 35.0625 48.390625 27.6875 48.390625 
Q 23 48.390625 18.546875 47.265625 
Q 14.109375 46.140625 10.015625 43.890625 
L 10.015625 52.203125 
Q 14.9375 54.109375 19.578125 55.046875 
Q 24.21875 56 28.609375 56 
Q 40.484375 56 46.34375 49.84375 
Q 52.203125 43.703125 52.203125 31.203125 
z
" id="DejaVuSans-97"/>
      <path d="M 44.28125 53.078125 
L 44.28125 44.578125 
Q 40.484375 46.53125 36.375 47.5 
Q 32.28125 48.484375 27.875 48.484375 
Q 21.1875 48.484375 17.84375 46.4375 
Q 14.5 44.390625 14.5 40.28125 
Q 14.5 37.15625 16.890625 35.375 
Q 19.28125 33.59375 26.515625 31.984375 
L 29.59375 31.296875 
Q 39.15625 29.25 43.1875 25.515625 
Q 47.21875 21.78125 47.21875 15.09375 
Q 47.21875 7.46875 41.1875 3.015625 
Q 35.15625 -1.421875 24.609375 -1.421875 
Q 20.21875 -1.421875 15.453125 -0.5625 
Q 10.6875 0.296875 5.421875 2 
L 5.421875 11.28125 
Q 10.40625 8.6875 15.234375 7.390625 
Q 20.0625 6.109375 24.8125 6.109375 
Q 31.15625 6.109375 34.5625 8.28125 
Q 37.984375 10.453125 37.984375 14.40625 
Q 37.984375 18.0625 35.515625 20.015625 
Q 33.0625 21.96875 24.703125 23.78125 
L 21.578125 24.515625 
Q 13.234375 26.265625 9.515625 29.90625 
Q 5.8125 33.546875 5.8125 39.890625 
Q 5.8125 47.609375 11.28125 51.796875 
Q 16.75 56 26.8125 56 
Q 31.78125 56 36.171875 55.265625 
Q 40.578125 54.546875 44.28125 53.078125 
z
" id="DejaVuSans-115"/>
      <path d="M 25.390625 72.90625 
L 33.6875 72.90625 
L 8.296875 -9.28125 
L 0 -9.28125 
z
" id="DejaVuSans-47"/>
      <path d="M 45.40625 46.390625 
L 45.40625 75.984375 
L 54.390625 75.984375 
L 54.390625 0 
L 45.40625 0 
L 45.40625 8.203125 
Q 42.578125 3.328125 38.25 0.953125 
Q 33.9375 -1.421875 27.875 -1.421875 
Q 17.96875 -1.421875 11.734375 6.484375 
Q 5.515625 14.40625 5.515625 27.296875 
Q 5.515625 40.1875 11.734375 48.09375 
Q 17.96875 56 27.875 56 
Q 33.9375 56 38.25 53.625 
Q 42.578125 51.265625 45.40625 46.390625 
z
M 14.796875 27.296875 
Q 14.796875 17.390625 18.875 11.75 
Q 22.953125 6.109375 30.078125 6.109375 
Q 37.203125 6.109375 41.296875 11.75 
Q 45.40625 17.390625 45.40625 27.296875 
Q 45.40625 37.203125 41.296875 42.84375 
Q 37.203125 48.484375 30.078125 48.484375 
Q 22.953125 48.484375 18.875 42.84375 
Q 14.796875 37.203125 14.796875 27.296875 
z
" id="DejaVuSans-100"/>
      <path d="M 9.421875 54.6875 
L 18.40625 54.6875 
L 18.40625 0 
L 9.421875 0 
z
M 9.421875 75.984375 
L 18.40625 75.984375 
L 18.40625 64.59375 
L 9.421875 64.59375 
z
" id="DejaVuSans-105"/>
      <path d="M 52 44.1875 
Q 55.375 50.25 60.0625 53.125 
Q 64.75 56 71.09375 56 
Q 79.640625 56 84.28125 50.015625 
Q 88.921875 44.046875 88.921875 33.015625 
L 88.921875 0 
L 79.890625 0 
L 79.890625 32.71875 
Q 79.890625 40.578125 77.09375 44.375 
Q 74.3125 48.1875 68.609375 48.1875 
Q 61.625 48.1875 57.5625 43.546875 
Q 53.515625 38.921875 53.515625 30.90625 
L 53.515625 0 
L 44.484375 0 
L 44.484375 32.71875 
Q 44.484375 40.625 41.703125 44.40625 
Q 38.921875 48.1875 33.109375 48.1875 
Q 26.21875 48.1875 22.15625 43.53125 
Q 18.109375 38.875 18.109375 30.90625 
L 18.109375 0 
L 9.078125 0 
L 9.078125 54.6875 
L 18.109375 54.6875 
L 18.109375 46.1875 
Q 21.1875 51.21875 25.484375 53.609375 
Q 29.78125 56 35.6875 56 
Q 41.65625 56 45.828125 52.96875 
Q 50 49.953125 52 44.1875 
z
" id="DejaVuSans-109"/>
      <path d="M 54.890625 33.015625 
L 54.890625 0 
L 45.90625 0 
L 45.90625 32.71875 
Q 45.90625 40.484375 42.875 44.328125 
Q 39.84375 48.1875 33.796875 48.1875 
Q 26.515625 48.1875 22.3125 43.546875 
Q 18.109375 38.921875 18.109375 30.90625 
L 18.109375 0 
L 9.078125 0 
L 9.078125 54.6875 
L 18.109375 54.6875 
L 18.109375 46.1875 
Q 21.34375 51.125 25.703125 53.5625 
Q 30.078125 56 35.796875 56 
Q 45.21875 56 50.046875 50.171875 
Q 54.890625 44.34375 54.890625 33.015625 
z
" id="DejaVuSans-110"/>
      <path d="M 8.015625 75.875 
L 15.828125 75.875 
Q 23.140625 64.359375 26.78125 53.3125 
Q 30.421875 42.28125 30.421875 31.390625 
Q 30.421875 20.453125 26.78125 9.375 
Q 23.140625 -1.703125 15.828125 -13.1875 
L 8.015625 -13.1875 
Q 14.5 -2 17.703125 9.0625 
Q 20.90625 20.125 20.90625 31.390625 
Q 20.90625 42.671875 17.703125 53.65625 
Q 14.5 64.65625 8.015625 75.875 
z
" id="DejaVuSans-41"/>
     </defs>
     <g transform="translate(77.764078 342.217594)scale(0.17 -0.17)">
      <use xlink:href="#DejaVuSans-108"/>
      <use x="27.783203" xlink:href="#DejaVuSans-111"/>
      <use x="88.964844" xlink:href="#DejaVuSans-103"/>
      <use x="152.441406" xlink:href="#DejaVuSans-49"/>
      <use x="216.064453" xlink:href="#DejaVuSans-48"/>
      <use x="279.6875" xlink:href="#DejaVuSans-40"/>
      <use x="318.701172" xlink:href="#DejaVuSans-35"/>
      <use x="402.490234" xlink:href="#DejaVuSans-32"/>
      <use x="434.277344" xlink:href="#DejaVuSans-102"/>
      <use x="463.982422" xlink:href="#DejaVuSans-45"/>
      <use x="500.066406" xlink:href="#DejaVuSans-101"/>
      <use x="561.589844" xlink:href="#DejaVuSans-118"/>
      <use x="620.769531" xlink:href="#DejaVuSans-97"/>
      <use x="682.048828" xlink:href="#DejaVuSans-108"/>
      <use x="709.832031" xlink:href="#DejaVuSans-115"/>
      <use x="761.931641" xlink:href="#DejaVuSans-32"/>
      <use x="793.71875" xlink:href="#DejaVuSans-47"/>
      <use x="827.410156" xlink:href="#DejaVuSans-32"/>
      <use x="859.197266" xlink:href="#DejaVuSans-100"/>
      <use x="922.673828" xlink:href="#DejaVuSans-105"/>
      <use x="950.457031" xlink:href="#DejaVuSans-109"/>
      <use x="1047.869141" xlink:href="#DejaVuSans-101"/>
      <use x="1109.392578" xlink:href="#DejaVuSans-110"/>
      <use x="1172.771484" xlink:href="#DejaVuSans-115"/>
      <use x="1224.871094" xlink:href="#DejaVuSans-105"/>
      <use x="1252.654297" xlink:href="#DejaVuSans-111"/>
      <use x="1313.835938" xlink:href="#DejaVuSans-110"/>
      <use x="1377.214844" xlink:href="#DejaVuSans-41"/>
     </g>
    </g>
   </g>
   <g id="matplotlib.axis_2">
    <g id="ytick_1">
     <g id="line2d_17">
      <path clip-path="url(#p9b2aee9c79)" d="M 57.6 298.944 
L 338.688 298.944 
" style="fill:none;stroke:#b0b0b0;stroke-linecap:square;stroke-width:0.8;"/>
     </g>
     <g id="line2d_18">
      <defs>
       <path d="M 0 0 
L -3.5 0 
" id="m5b9035fd54" style="stroke:#000000;stroke-width:0.8;"/>
      </defs>
      <g>
       <use style="stroke:#000000;stroke-width:0.8;" x="57.6" xlink:href="#m5b9035fd54" y="298.944"/>
      </g>
     </g>
     <g id="text_6">
      <!-- 0.0 -->
      <defs>
       <path d="M 10.6875 12.40625 
L 21 12.40625 
L 21 0 
L 10.6875 0 
z
" id="DejaVuSans-46"/>
      </defs>
      <g transform="translate(25.155 305.02275)scale(0.16 -0.16)">
       <use xlink:href="#DejaVuSans-48"/>
       <use x="63.623047" xlink:href="#DejaVuSans-46"/>
       <use x="95.410156" xlink:href="#DejaVuSans-48"/>
      </g>
     </g>
    </g>
    <g id="ytick_2">
     <g id="line2d_19">
      <path clip-path="url(#p9b2aee9c79)" d="M 57.6 240.431525 
L 338.688 240.431525 
" style="fill:none;stroke:#b0b0b0;stroke-linecap:square;stroke-width:0.8;"/>
     </g>
     <g id="line2d_20">
      <g>
       <use style="stroke:#000000;stroke-width:0.8;" x="57.6" xlink:href="#m5b9035fd54" y="240.431525"/>
      </g>
     </g>
     <g id="text_7">
      <!-- 0.2 -->
      <g transform="translate(25.155 246.510275)scale(0.16 -0.16)">
       <use xlink:href="#DejaVuSans-48"/>
       <use x="63.623047" xlink:href="#DejaVuSans-46"/>
       <use x="95.410156" xlink:href="#DejaVuSans-50"/>
      </g>
     </g>
    </g>
    <g id="ytick_3">
     <g id="line2d_21">
      <path clip-path="url(#p9b2aee9c79)" d="M 57.6 181.91905 
L 338.688 181.91905 
" style="fill:none;stroke:#b0b0b0;stroke-linecap:square;stroke-width:0.8;"/>
     </g>
     <g id="line2d_22">
      <g>
       <use style="stroke:#000000;stroke-width:0.8;" x="57.6" xlink:href="#m5b9035fd54" y="181.91905"/>
      </g>
     </g>
     <g id="text_8">
      <!-- 0.4 -->
      <g transform="translate(25.155 187.9978)scale(0.16 -0.16)">
       <use xlink:href="#DejaVuSans-48"/>
       <use x="63.623047" xlink:href="#DejaVuSans-46"/>
       <use x="95.410156" xlink:href="#DejaVuSans-52"/>
      </g>
     </g>
    </g>
    <g id="ytick_4">
     <g id="line2d_23">
      <path clip-path="url(#p9b2aee9c79)" d="M 57.6 123.406574 
L 338.688 123.406574 
" style="fill:none;stroke:#b0b0b0;stroke-linecap:square;stroke-width:0.8;"/>
     </g>
     <g id="line2d_24">
      <g>
       <use style="stroke:#000000;stroke-width:0.8;" x="57.6" xlink:href="#m5b9035fd54" y="123.406574"/>
      </g>
     </g>
     <g id="text_9">
      <!-- 0.6 -->
      <g transform="translate(25.155 129.485324)scale(0.16 -0.16)">
       <use xlink:href="#DejaVuSans-48"/>
       <use x="63.623047" xlink:href="#DejaVuSans-46"/>
       <use x="95.410156" xlink:href="#DejaVuSans-54"/>
      </g>
     </g>
    </g>
    <g id="ytick_5">
     <g id="line2d_25">
      <path clip-path="url(#p9b2aee9c79)" d="M 57.6 64.894099 
L 338.688 64.894099 
" style="fill:none;stroke:#b0b0b0;stroke-linecap:square;stroke-width:0.8;"/>
     </g>
     <g id="line2d_26">
      <g>
       <use style="stroke:#000000;stroke-width:0.8;" x="57.6" xlink:href="#m5b9035fd54" y="64.894099"/>
      </g>
     </g>
     <g id="text_10">
      <!-- 0.8 -->
      <defs>
       <path d="M 31.78125 34.625 
Q 24.75 34.625 20.71875 30.859375 
Q 16.703125 27.09375 16.703125 20.515625 
Q 16.703125 13.921875 20.71875 10.15625 
Q 24.75 6.390625 31.78125 6.390625 
Q 38.8125 6.390625 42.859375 10.171875 
Q 46.921875 13.96875 46.921875 20.515625 
Q 46.921875 27.09375 42.890625 30.859375 
Q 38.875 34.625 31.78125 34.625 
z
M 21.921875 38.8125 
Q 15.578125 40.375 12.03125 44.71875 
Q 8.5 49.078125 8.5 55.328125 
Q 8.5 64.0625 14.71875 69.140625 
Q 20.953125 74.21875 31.78125 74.21875 
Q 42.671875 74.21875 48.875 69.140625 
Q 55.078125 64.0625 55.078125 55.328125 
Q 55.078125 49.078125 51.53125 44.71875 
Q 48 40.375 41.703125 38.8125 
Q 48.828125 37.15625 52.796875 32.3125 
Q 56.78125 27.484375 56.78125 20.515625 
Q 56.78125 9.90625 50.3125 4.234375 
Q 43.84375 -1.421875 31.78125 -1.421875 
Q 19.734375 -1.421875 13.25 4.234375 
Q 6.78125 9.90625 6.78125 20.515625 
Q 6.78125 27.484375 10.78125 32.3125 
Q 14.796875 37.15625 21.921875 38.8125 
z
M 18.3125 54.390625 
Q 18.3125 48.734375 21.84375 45.5625 
Q 25.390625 42.390625 31.78125 42.390625 
Q 38.140625 42.390625 41.71875 45.5625 
Q 45.3125 48.734375 45.3125 54.390625 
Q 45.3125 60.0625 41.71875 63.234375 
Q 38.140625 66.40625 31.78125 66.40625 
Q 25.390625 66.40625 21.84375 63.234375 
Q 18.3125 60.0625 18.3125 54.390625 
z
" id="DejaVuSans-56"/>
      </defs>
      <g transform="translate(25.155 70.972849)scale(0.16 -0.16)">
       <use xlink:href="#DejaVuSans-48"/>
       <use x="63.623047" xlink:href="#DejaVuSans-46"/>
       <use x="95.410156" xlink:href="#DejaVuSans-56"/>
      </g>
     </g>
    </g>
    <g id="ytick_6">
     <g id="line2d_27">
      <path clip-path="url(#p9b2aee9c79)" d="M 57.6 6.381624 
L 338.688 6.381624 
" style="fill:none;stroke:#b0b0b0;stroke-linecap:square;stroke-width:0.8;"/>
     </g>
     <g id="line2d_28">
      <g>
       <use style="stroke:#000000;stroke-width:0.8;" x="57.6" xlink:href="#m5b9035fd54" y="6.381624"/>
      </g>
     </g>
     <g id="text_11">
      <!-- 1.0 -->
      <g transform="translate(25.155 12.460374)scale(0.16 -0.16)">
       <use xlink:href="#DejaVuSans-49"/>
       <use x="63.623047" xlink:href="#DejaVuSans-46"/>
       <use x="95.410156" xlink:href="#DejaVuSans-48"/>
      </g>
     </g>
    </g>
    <g id="text_12">
     <!-- Fraction of function,target pairs -->
     <defs>
      <path d="M 9.8125 72.90625 
L 51.703125 72.90625 
L 51.703125 64.59375 
L 19.671875 64.59375 
L 19.671875 43.109375 
L 48.578125 43.109375 
L 48.578125 34.8125 
L 19.671875 34.8125 
L 19.671875 0 
L 9.8125 0 
z
" id="DejaVuSans-70"/>
      <path d="M 41.109375 46.296875 
Q 39.59375 47.171875 37.8125 47.578125 
Q 36.03125 48 33.890625 48 
Q 26.265625 48 22.1875 43.046875 
Q 18.109375 38.09375 18.109375 28.8125 
L 18.109375 0 
L 9.078125 0 
L 9.078125 54.6875 
L 18.109375 54.6875 
L 18.109375 46.1875 
Q 20.953125 51.171875 25.484375 53.578125 
Q 30.03125 56 36.53125 56 
Q 37.453125 56 38.578125 55.875 
Q 39.703125 55.765625 41.0625 55.515625 
z
" id="DejaVuSans-114"/>
      <path d="M 48.78125 52.59375 
L 48.78125 44.1875 
Q 44.96875 46.296875 41.140625 47.34375 
Q 37.3125 48.390625 33.40625 48.390625 
Q 24.65625 48.390625 19.8125 42.84375 
Q 14.984375 37.3125 14.984375 27.296875 
Q 14.984375 17.28125 19.8125 11.734375 
Q 24.65625 6.203125 33.40625 6.203125 
Q 37.3125 6.203125 41.140625 7.25 
Q 44.96875 8.296875 48.78125 10.40625 
L 48.78125 2.09375 
Q 45.015625 0.34375 40.984375 -0.53125 
Q 36.96875 -1.421875 32.421875 -1.421875 
Q 20.0625 -1.421875 12.78125 6.34375 
Q 5.515625 14.109375 5.515625 27.296875 
Q 5.515625 40.671875 12.859375 48.328125 
Q 20.21875 56 33.015625 56 
Q 37.15625 56 41.109375 55.140625 
Q 45.0625 54.296875 48.78125 52.59375 
z
" id="DejaVuSans-99"/>
      <path d="M 18.3125 70.21875 
L 18.3125 54.6875 
L 36.8125 54.6875 
L 36.8125 47.703125 
L 18.3125 47.703125 
L 18.3125 18.015625 
Q 18.3125 11.328125 20.140625 9.421875 
Q 21.96875 7.515625 27.59375 7.515625 
L 36.8125 7.515625 
L 36.8125 0 
L 27.59375 0 
Q 17.1875 0 13.234375 3.875 
Q 9.28125 7.765625 9.28125 18.015625 
L 9.28125 47.703125 
L 2.6875 47.703125 
L 2.6875 54.6875 
L 9.28125 54.6875 
L 9.28125 70.21875 
z
" id="DejaVuSans-116"/>
      <path d="M 8.5 21.578125 
L 8.5 54.6875 
L 17.484375 54.6875 
L 17.484375 21.921875 
Q 17.484375 14.15625 20.5 10.265625 
Q 23.53125 6.390625 29.59375 6.390625 
Q 36.859375 6.390625 41.078125 11.03125 
Q 45.3125 15.671875 45.3125 23.6875 
L 45.3125 54.6875 
L 54.296875 54.6875 
L 54.296875 0 
L 45.3125 0 
L 45.3125 8.40625 
Q 42.046875 3.421875 37.71875 1 
Q 33.40625 -1.421875 27.6875 -1.421875 
Q 18.265625 -1.421875 13.375 4.4375 
Q 8.5 10.296875 8.5 21.578125 
z
M 31.109375 56 
z
" id="DejaVuSans-117"/>
      <path d="M 11.71875 12.40625 
L 22.015625 12.40625 
L 22.015625 4 
L 14.015625 -11.625 
L 7.71875 -11.625 
L 11.71875 4 
z
" id="DejaVuSans-44"/>
      <path d="M 18.109375 8.203125 
L 18.109375 -20.796875 
L 9.078125 -20.796875 
L 9.078125 54.6875 
L 18.109375 54.6875 
L 18.109375 46.390625 
Q 20.953125 51.265625 25.265625 53.625 
Q 29.59375 56 35.59375 56 
Q 45.5625 56 51.78125 48.09375 
Q 58.015625 40.1875 58.015625 27.296875 
Q 58.015625 14.40625 51.78125 6.484375 
Q 45.5625 -1.421875 35.59375 -1.421875 
Q 29.59375 -1.421875 25.265625 0.953125 
Q 20.953125 3.328125 18.109375 8.203125 
z
M 48.6875 27.296875 
Q 48.6875 37.203125 44.609375 42.84375 
Q 40.53125 48.484375 33.40625 48.484375 
Q 26.265625 48.484375 22.1875 42.84375 
Q 18.109375 37.203125 18.109375 27.296875 
Q 18.109375 17.390625 22.1875 11.75 
Q 26.265625 6.109375 33.40625 6.109375 
Q 40.53125 6.109375 44.609375 11.75 
Q 48.6875 17.390625 48.6875 27.296875 
z
" id="DejaVuSans-112"/>
     </defs>
     <g transform="translate(17.619531 285.585)rotate(-90)scale(0.17 -0.17)">
      <use xlink:href="#DejaVuSans-70"/>
      <use x="50.269531" xlink:href="#DejaVuSans-114"/>
      <use x="91.382812" xlink:href="#DejaVuSans-97"/>
      <use x="152.662109" xlink:href="#DejaVuSans-99"/>
      <use x="207.642578" xlink:href="#DejaVuSans-116"/>
      <use x="246.851562" xlink:href="#DejaVuSans-105"/>
      <use x="274.634766" xlink:href="#DejaVuSans-111"/>
      <use x="335.816406" xlink:href="#DejaVuSans-110"/>
      <use x="399.195312" xlink:href="#DejaVuSans-32"/>
      <use x="430.982422" xlink:href="#DejaVuSans-111"/>
      <use x="492.164062" xlink:href="#DejaVuSans-102"/>
      <use x="527.369141" xlink:href="#DejaVuSans-32"/>
      <use x="559.15625" xlink:href="#DejaVuSans-102"/>
      <use x="594.361328" xlink:href="#DejaVuSans-117"/>
      <use x="657.740234" xlink:href="#DejaVuSans-110"/>
      <use x="721.119141" xlink:href="#DejaVuSans-99"/>
      <use x="776.099609" xlink:href="#DejaVuSans-116"/>
      <use x="815.308594" xlink:href="#DejaVuSans-105"/>
      <use x="843.091797" xlink:href="#DejaVuSans-111"/>
      <use x="904.273438" xlink:href="#DejaVuSans-110"/>
      <use x="967.652344" xlink:href="#DejaVuSans-44"/>
      <use x="999.439453" xlink:href="#DejaVuSans-116"/>
      <use x="1038.648438" xlink:href="#DejaVuSans-97"/>
      <use x="1099.927734" xlink:href="#DejaVuSans-114"/>
      <use x="1139.291016" xlink:href="#DejaVuSans-103"/>
      <use x="1202.767578" xlink:href="#DejaVuSans-101"/>
      <use x="1264.291016" xlink:href="#DejaVuSans-116"/>
      <use x="1303.5" xlink:href="#DejaVuSans-32"/>
      <use x="1335.287109" xlink:href="#DejaVuSans-112"/>
      <use x="1398.763672" xlink:href="#DejaVuSans-97"/>
      <use x="1460.042969" xlink:href="#DejaVuSans-105"/>
      <use x="1487.826172" xlink:href="#DejaVuSans-114"/>
      <use x="1528.939453" xlink:href="#DejaVuSans-115"/>
     </g>
    </g>
   </g>
   <g id="line2d_29">
    <defs>
     <path d="M 0 1.5 
C 0.397805 1.5 0.77937 1.341951 1.06066 1.06066 
C 1.341951 0.77937 1.5 0.397805 1.5 0 
C 1.5 -0.397805 1.341951 -0.77937 1.06066 -1.06066 
C 0.77937 -1.341951 0.397805 -1.5 0 -1.5 
C -0.397805 -1.5 -0.77937 -1.341951 -1.06066 -1.06066 
C -1.341951 -0.77937 -1.5 -0.397805 -1.5 0 
C -1.5 0.397805 -1.341951 0.77937 -1.06066 1.06066 
C -0.77937 1.341951 -0.397805 1.5 0 1.5 
z
" id="m4a8f25b7b8" style="stroke:#00bfbf;"/>
    </defs>
    <g>
     <use style="fill:#00bfbf;stroke:#00bfbf;" x="229.260762" xlink:href="#m4a8f25b7b8" y="75.21983"/>
     <use style="fill:#00bfbf;stroke:#00bfbf;" x="229.260762" xlink:href="#m4a8f25b7b8" y="75.21983"/>
    </g>
   </g>
   <g id="line2d_30">
    <path d="M 45.512012 298.944 
L 45.512012 282.833948 
L 76.759008 282.810045 
L 76.759008 282.666632 
L 79.447285 282.666632 
L 79.447285 282.52322 
L 83.830028 282.427611 
L 83.830028 282.021274 
L 85.66744 282.021274 
L 85.66744 281.734448 
L 87.329581 281.734448 
L 87.329581 281.256405 
L 88.846997 281.256405 
L 88.846997 280.969579 
L 91.535274 280.945677 
L 91.535274 280.850069 
L 93.863965 280.75446 
L 93.863965 280.658851 
L 94.921215 280.658851 
L 94.921215 280.41983 
L 96.86091 280.324221 
L 96.86091 280.180808 
L 97.755429 280.180808 
L 97.755429 279.917885 
L 98.606294 279.917885 
L 98.606294 279.583255 
L 99.41757 279.583255 
L 99.41757 279.224722 
L 100.192776 279.224722 
L 100.192776 278.603266 
L 100.934985 278.603266 
L 100.934985 278.173027 
L 101.646892 278.173027 
L 101.646892 277.360354 
L 102.330873 277.360354 
L 102.330873 276.906213 
L 102.989037 276.906213 
L 102.989037 276.404268 
L 103.623262 276.404268 
L 103.623262 276.045736 
L 104.23523 276.045736 
L 104.23523 275.75891 
L 104.826449 275.75891 
L 104.826449 275.448182 
L 105.398279 275.448182 
L 105.398279 274.659411 
L 105.951954 274.659411 
L 105.951954 274.229172 
L 106.48859 274.229172 
L 106.48859 272.006271 
L 107.009204 272.006271 
L 107.009204 270.715555 
L 107.514726 270.715555 
L 107.514726 269.616056 
L 108.006005 269.616056 
L 108.006005 269.042404 
L 108.483824 269.042404 
L 108.483824 268.516557 
L 108.948899 268.516557 
L 108.948899 267.656079 
L 109.401893 267.656079 
L 109.401893 266.484874 
L 109.843417 266.484874 
L 109.843417 261.106889 
L 110.274038 261.106889 
L 110.274038 260.652748 
L 110.694282 260.652748 
L 110.694282 259.983487 
L 111.104637 259.983487 
L 111.104637 259.505444 
L 111.505558 259.505444 
L 111.505558 259.242521 
L 111.897469 259.242521 
L 111.897469 258.764478 
L 112.280765 258.764478 
L 112.280765 258.190826 
L 112.655818 258.190826 
L 112.655818 256.183045 
L 113.022974 256.183045 
L 113.022974 255.776708 
L 113.382559 255.776708 
L 113.382559 255.489882 
L 113.73488 255.489882 
L 113.73488 255.107448 
L 114.080224 255.107448 
L 114.080224 254.677209 
L 114.418861 254.677209 
L 114.418861 254.366481 
L 114.751048 254.366481 
L 114.751048 253.625514 
L 115.077025 253.625514 
L 115.077025 252.932352 
L 115.397021 252.932352 
L 115.397021 252.263091 
L 115.711251 252.263091 
L 115.711251 251.68944 
L 116.019919 251.68944 
L 116.019919 251.13969 
L 116.323218 251.13969 
L 116.323218 250.159702 
L 116.621333 250.159702 
L 116.621333 249.58605 
L 116.914437 249.58605 
L 116.914437 249.108007 
L 117.202696 249.108007 
L 117.202696 248.653866 
L 117.486268 248.653866 
L 117.486268 248.319236 
L 117.765302 248.319236 
L 117.765302 247.984606 
L 118.039942 247.984606 
L 118.039942 247.649976 
L 118.310324 247.649976 
L 118.310324 247.004617 
L 118.576578 247.004617 
L 118.576578 246.693889 
L 118.838828 246.693889 
L 118.838828 246.096335 
L 119.097192 246.096335 
L 119.097192 245.642195 
L 119.351785 245.642195 
L 119.351785 245.211956 
L 119.602714 245.211956 
L 119.602714 244.901228 
L 119.850084 244.901228 
L 119.850084 244.231967 
L 120.093994 244.231967 
L 120.093994 244.016848 
L 120.33454 244.016848 
L 120.33454 243.275881 
L 120.571812 243.275881 
L 120.571812 242.989055 
L 120.8059 242.989055 
L 120.8059 242.319795 
L 121.036887 242.319795 
L 121.036887 241.937361 
L 121.264855 241.937361 
L 121.264855 241.722241 
L 121.489881 241.722241 
L 121.489881 241.387611 
L 121.712041 241.387611 
L 121.712041 240.957372 
L 121.931406 240.957372 
L 121.931406 240.120797 
L 122.148045 240.120797 
L 122.148045 239.666656 
L 122.362027 239.666656 
L 122.362027 239.260319 
L 122.573415 239.260319 
L 122.573415 238.543255 
L 122.782271 238.543255 
L 122.782271 238.136918 
L 122.988655 238.136918 
L 122.988655 237.82619 
L 123.192626 237.82619 
L 123.192626 237.180832 
L 123.394238 237.180832 
L 123.394238 236.894006 
L 123.593547 236.894006 
L 123.593547 235.961822 
L 123.790603 235.961822 
L 123.790603 235.603289 
L 123.985457 235.603289 
L 123.985457 234.814518 
L 124.178158 234.814518 
L 124.178158 234.16916 
L 124.368753 234.16916 
L 124.368753 233.4999 
L 124.557288 233.4999 
L 124.557288 232.902346 
L 124.743806 232.902346 
L 124.743806 231.826749 
L 124.92835 231.826749 
L 124.92835 231.324804 
L 125.110962 231.324804 
L 125.110962 230.631641 
L 125.291682 230.631641 
L 125.291682 230.105794 
L 125.470548 230.105794 
L 125.470548 229.484338 
L 125.647598 229.484338 
L 125.647598 228.504349 
L 125.822869 228.504349 
L 125.822869 227.882893 
L 125.996395 227.882893 
L 125.996395 226.902905 
L 126.168212 226.902905 
L 126.168212 226.281449 
L 126.338353 226.281449 
L 126.338353 225.540482 
L 126.50685 225.540482 
L 126.50685 224.560494 
L 126.673734 224.560494 
L 126.673734 223.532701 
L 126.839037 223.532701 
L 126.839037 222.839539 
L 127.002787 222.839539 
L 127.002787 222.07467 
L 127.165014 222.07467 
L 127.165014 221.19029 
L 127.325746 221.19029 
L 127.325746 220.1864 
L 127.48501 220.1864 
L 127.48501 219.206411 
L 127.642832 219.206411 
L 127.642832 218.178619 
L 127.799239 218.178619 
L 127.799239 217.222532 
L 127.954256 217.222532 
L 127.954256 216.123033 
L 128.107907 216.123033 
L 128.107907 215.405969 
L 128.260216 215.405969 
L 128.260216 214.42598 
L 128.411207 214.42598 
L 128.411207 213.732818 
L 128.560901 213.732818 
L 128.560901 212.322591 
L 128.709321 212.322591 
L 128.709321 211.486015 
L 128.856489 211.486015 
L 128.856489 210.864559 
L 129.002426 210.864559 
L 129.002426 209.310919 
L 129.147151 209.310919 
L 129.147151 208.904582 
L 129.290685 208.904582 
L 129.290685 207.398747 
L 129.433047 207.398747 
L 129.433047 206.227541 
L 129.574256 206.227541 
L 129.574256 204.984629 
L 129.714332 204.984629 
L 129.714332 203.813423 
L 129.853291 203.813423 
L 129.853291 202.785631 
L 129.991152 202.785631 
L 129.991152 201.949055 
L 130.127931 201.949055 
L 130.127931 201.279795 
L 130.263646 201.279795 
L 130.263646 200.204198 
L 130.398313 200.204198 
L 130.398313 198.961286 
L 130.531948 198.961286 
L 130.531948 197.742276 
L 130.664567 197.742276 
L 130.664567 196.379853 
L 130.796184 196.379853 
L 130.796184 195.184745 
L 130.926816 195.184745 
L 130.926816 194.228659 
L 131.056477 194.228659 
L 131.056477 193.34428 
L 131.185181 193.34428 
L 131.185181 192.24478 
L 131.312942 192.24478 
L 131.312942 191.456009 
L 131.439773 191.456009 
L 131.439773 190.738945 
L 131.565689 190.738945 
L 131.565689 189.47213 
L 131.690703 189.47213 
L 131.690703 188.587751 
L 131.814826 188.587751 
L 131.814826 187.416545 
L 131.938072 187.416545 
L 131.938072 186.651676 
L 132.060454 186.651676 
L 132.060454 186.221437 
L 132.181982 186.221437 
L 132.181982 185.002427 
L 132.30267 185.002427 
L 132.30267 184.213656 
L 132.422528 184.213656 
L 132.422528 183.161962 
L 132.541568 183.161962 
L 132.541568 182.277582 
L 132.659801 182.277582 
L 132.659801 179.959073 
L 132.777237 179.959073 
L 132.777237 179.026889 
L 132.893889 179.026889 
L 132.893889 177.736172 
L 133.009765 177.736172 
L 133.009765 177.186423 
L 133.124876 177.186423 
L 133.124876 176.254239 
L 133.239232 176.254239 
L 133.239232 175.178642 
L 133.352844 175.178642 
L 133.352844 174.126947 
L 133.46572 174.126947 
L 133.46572 172.549405 
L 133.57787 172.549405 
L 133.57787 171.736732 
L 133.689303 171.736732 
L 133.800029 169.107494 
L 133.910056 169.107494 
L 134.019394 166.741181 
L 134.12805 166.741181 
L 134.236034 165.163639 
L 134.343353 165.163639 
L 134.450015 163.370977 
L 134.55603 163.370977 
L 134.661403 162.151967 
L 134.766144 162.151967 
L 134.870259 160.646132 
L 134.973757 160.646132 
L 135.076644 159.331513 
L 135.178927 159.331513 
L 135.280614 157.658362 
L 135.381712 157.658362 
L 135.482227 156.295939 
L 135.582166 156.295939 
L 135.681535 155.339853 
L 135.780341 155.339853 
L 135.878591 154.168648 
L 135.97629 154.168648 
L 136.073445 153.379877 
L 136.170062 153.379877 
L 136.266147 152.256475 
L 136.361705 152.256475 
L 136.456742 151.061368 
L 136.551264 151.061368 
L 136.645276 150.033575 
L 136.738785 150.033575 
L 136.831795 149.196999 
L 136.924311 149.196999 
L 137.016339 147.882381 
L 137.107884 147.882381 
L 137.198951 146.902393 
L 137.289545 146.902393 
L 137.37967 146.065817 
L 137.469333 146.065817 
L 137.558536 145.133633 
L 137.647286 145.133633 
L 137.735587 144.392666 
L 137.823442 144.392666 
L 137.910857 143.579993 
L 137.997836 143.579993 
L 138.084384 142.958537 
L 138.170504 142.958537 
L 138.256201 142.576103 
L 138.341479 142.576103 
L 138.426341 141.930744 
L 138.510793 141.930744 
L 138.594838 141.285386 
L 138.67848 141.285386 
L 138.761723 140.87905 
L 138.84457 140.87905 
L 138.927025 140.138083 
L 139.009092 140.138083 
L 139.090775 139.899061 
L 139.172077 139.899061 
L 139.253002 139.397116 
L 139.333553 139.397116 
L 139.413734 138.77566 
L 139.493548 138.77566 
L 139.572998 138.56054 
L 139.730821 138.464932 
L 139.8092 137.867378 
L 139.964909 137.771769 
L 140.042245 137.413237 
L 140.11924 137.413237 
L 140.195896 137.0069 
L 140.348205 136.911292 
L 140.423864 136.624466 
L 140.499195 136.624466 
L 140.574203 136.289836 
L 140.64889 136.289836 
L 140.723258 136.026912 
L 140.871049 135.955206 
L 140.944478 135.716184 
L 141.017599 135.716184 
L 141.090414 135.214239 
L 141.162927 135.214239 
L 141.235139 134.640587 
L 141.307054 134.640587 
L 141.378673 134.425468 
L 141.45 134.425468 
L 141.521035 134.066935 
L 141.591783 134.066935 
L 141.662245 133.851816 
L 141.871938 133.756207 
L 141.941279 133.421577 
L 142.010346 133.421577 
L 142.07914 133.015241 
L 142.147664 133.015241 
L 142.215919 132.632806 
L 142.283909 132.632806 
L 142.351634 132.417687 
L 142.553247 132.322078 
L 142.619936 132.202567 
L 142.686372 132.202567 
L 142.752555 132.01135 
L 142.818488 132.01135 
L 142.884173 131.772328 
L 143.014805 131.724524 
L 143.079756 131.533307 
L 143.208936 131.437698 
L 143.273169 131.174775 
L 143.337167 131.174775 
L 143.40093 130.959655 
L 143.590833 130.911851 
L 143.653678 130.720634 
L 143.716296 130.720634 
L 143.778691 130.362101 
L 143.902815 130.290395 
L 143.964547 130.027471 
L 144.026061 130.027471 
L 144.087359 129.812352 
L 144.269971 129.740645 
L 144.330419 129.597232 
L 144.570138 129.525526 
L 144.629556 129.286504 
L 144.747789 129.190896 
L 144.806606 129.071385 
L 144.865226 129.071385 
L 144.923649 128.832363 
L 144.981877 128.832363 
L 144.981877 128.712853 
L 145.097753 128.712853 
L 145.155404 128.497733 
L 145.384119 128.426027 
L 145.440832 128.210907 
L 145.553708 128.187005 
L 145.609873 127.780669 
L 145.832743 127.68506 
L 145.888018 127.469941 
L 146.161795 127.422136 
L 146.270114 127.254821 
L 146.484754 127.159213 
L 146.591092 127.087506 
L 146.749392 126.991897 
L 146.854132 126.80068 
L 146.906268 126.80068 
L 147.010073 126.561659 
L 147.317833 126.489952 
L 147.419225 126.394344 
L 147.670154 126.298735 
L 147.769524 125.988007 
L 147.96658 125.940203 
L 148.064279 125.653377 
L 148.354135 125.557768 
L 148.354135 125.509964 
L 148.639252 125.414355 
L 148.733265 125.366551 
L 148.87334 125.270942 
L 148.966103 125.079725 
L 149.058374 124.984116 
L 149.104327 124.816801 
L 149.286939 124.792899 
L 149.377533 124.57778 
L 149.467659 124.553878 
L 149.557321 124.434367 
L 149.646525 124.434367 
L 149.735275 123.956324 
L 149.867558 123.932422 
L 149.955193 123.621694 
L 150.042389 123.549987 
L 150.129152 123.239259 
L 150.258492 123.167553 
L 150.344189 122.976335 
L 150.38688 122.976335 
L 150.47195 122.832923 
L 150.640855 122.737314 
L 150.724698 122.498292 
L 150.849711 122.47439 
L 150.932558 122.187564 
L 151.13797 122.115858 
L 151.178764 121.900738 
L 151.381313 121.80513 
L 151.461678 121.542206 
L 151.581536 121.494402 
L 151.660987 121.13587 
L 151.700576 121.13587 
L 151.779487 120.872946 
L 151.858043 120.801239 
L 151.897188 120.538316 
L 152.052897 120.490511 
L 152.130233 120.323196 
L 152.245598 120.299294 
L 152.283884 120.012468 
L 152.436193 119.940762 
L 152.474064 119.773447 
L 152.736878 119.70174 
L 152.811246 119.582229 
L 152.959038 119.486621 
L 153.069065 119.391012 
L 153.359122 119.295404 
L 153.466662 119.175893 
L 153.609024 119.080284 
L 153.679772 118.912969 
L 153.959927 118.817361 
L 154.063835 118.626143 
L 154.167129 118.530535 
L 154.235652 118.339317 
L 154.337936 118.267611 
L 154.439623 117.932981 
L 154.57429 117.861274 
L 154.674612 117.622253 
L 154.77436 117.526644 
L 154.873541 117.26372 
L 154.93935 117.239818 
L 155.0376 117.024699 
L 155.102793 116.952992 
L 155.200129 116.690069 
L 155.361158 116.618362 
L 155.457066 116.427145 
L 155.55245 116.427145 
L 155.647315 116.164221 
L 155.83551 116.068613 
L 155.928852 115.9252 
L 156.021696 115.829591 
L 156.114049 115.59057 
L 156.266892 115.518863 
L 156.357959 115.279842 
L 156.448553 115.232037 
L 156.538679 115.064722 
L 156.598505 115.04082 
L 156.687861 114.825701 
L 156.776762 114.753994 
L 156.865211 114.586679 
L 157.069866 114.514973 
L 157.098907 114.419364 
L 157.243392 114.347658 
L 157.329512 114.228147 
L 157.443681 114.132538 
L 157.500487 113.965223 
L 157.613546 113.917419 
L 157.669802 113.726202 
L 157.781772 113.678397 
L 157.86528 113.367669 
L 157.94839 113.272061 
L 158.058592 113.080843 
L 158.140788 112.985235 
L 158.195371 112.770115 
L 158.276927 112.770115 
L 158.358103 112.554996 
L 158.51933 112.483289 
L 158.625992 112.339877 
L 158.784773 112.26817 
L 158.863624 112.172561 
L 158.994256 112.076953 
L 159.098062 111.93354 
L 159.175513 111.837931 
L 159.278248 111.670616 
L 159.431225 111.575008 
L 159.532469 111.407692 
L 159.683242 111.335986 
L 159.783038 111.168671 
L 159.857512 111.096964 
L 159.906985 110.977454 
L 160.225184 110.881845 
L 160.297798 110.786236 
L 160.489968 110.690628 
L 160.585265 110.595019 
L 160.750792 110.523313 
L 160.844678 110.3799 
L 160.984566 110.284291 
L 161.007772 110.188683 
L 161.442917 110.116976 
L 161.510643 110.021368 
L 161.778945 109.925759 
L 161.867469 109.782346 
L 162.021314 109.734542 
L 162.130378 109.615031 
L 162.346481 109.519422 
L 162.453536 109.328205 
L 162.53871 109.232596 
L 162.62347 109.041379 
L 162.68677 108.969673 
L 162.791763 108.850162 
L 162.875305 108.754553 
L 162.979172 108.539434 
L 163.041197 108.49163 
L 163.144084 108.324315 
L 163.205526 108.252608 
L 163.307451 108.061391 
L 163.469301 107.965782 
L 163.569701 107.822369 
L 163.669525 107.726761 
L 163.768781 107.631152 
L 163.926426 107.535543 
L 164.024234 107.416033 
L 164.276 107.320424 
L 164.333587 107.129207 
L 164.524182 107.033598 
L 164.618704 106.890185 
L 164.880672 106.794577 
L 164.991751 106.675066 
L 165.193576 106.579457 
L 165.284547 106.436044 
L 165.338904 106.364338 
L 165.429123 106.244827 
L 165.625977 106.149218 
L 165.714726 106.005805 
L 165.855793 105.910197 
L 165.960849 105.814588 
L 166.047915 105.742882 
L 166.134549 105.623371 
L 166.442913 105.527762 
L 166.527611 105.456056 
L 166.812546 105.360447 
L 166.895472 105.145328 
L 167.010909 105.097524 
L 167.109252 104.906306 
L 167.239518 104.810698 
L 167.336582 104.667285 
L 167.481174 104.595578 
L 167.560988 104.428263 
L 167.84533 104.332655 
L 167.892273 104.28485 
L 168.140524 104.189242 
L 168.217383 104.045829 
L 168.415645 103.95022 
L 168.476198 103.854612 
L 168.656606 103.759003 
L 168.760989 103.61559 
L 169.070439 103.519981 
L 169.172381 103.424373 
L 169.488944 103.328764 
L 169.588476 103.185351 
L 169.715615 103.089743 
L 169.799863 103.018036 
L 169.967148 102.922427 
L 170.077786 102.802917 
L 170.174022 102.73121 
L 170.256089 102.563895 
L 170.337772 102.468287 
L 170.446091 102.300971 
L 170.58055 102.205363 
L 170.674059 102.014146 
L 170.727268 101.966341 
L 170.833202 101.703418 
L 170.885928 101.631711 
L 170.990905 101.488298 
L 171.121244 101.39269 
L 171.18605 101.297081 
L 171.353428 101.225374 
L 171.455636 101.058059 
L 171.569909 100.962451 
L 171.658273 100.723429 
L 172.105778 100.627821 
L 172.215882 100.532212 
L 172.434028 100.436603 
L 172.542086 100.364897 
L 172.720707 100.269288 
L 172.791647 100.149778 
L 172.920958 100.054169 
L 173.014404 99.934658 
L 173.176739 99.862952 
L 173.245851 99.671734 
L 173.383259 99.576126 
L 173.462916 99.528321 
L 173.722116 99.432713 
L 173.800244 99.337104 
L 174.065485 99.241496 
L 174.16392 99.098083 
L 174.412979 99.002474 
L 174.520166 98.859061 
L 174.637316 98.763453 
L 174.743137 98.667844 
L 174.963293 98.572235 
L 175.036065 98.476627 
L 175.149812 98.381018 
L 175.221811 98.213703 
L 175.334356 98.118094 
L 175.385274 97.998584 
L 175.577416 97.902975 
L 175.687696 97.73566 
L 175.747557 97.640051 
L 175.846869 97.40103 
L 175.984964 97.305421 
L 176.082938 97.0664 
L 176.257915 96.970791 
L 176.363988 96.827378 
L 176.60269 96.731769 
L 176.67839 96.612259 
L 176.82881 96.51665 
L 176.884885 96.444944 
L 177.245042 96.349335 
L 177.31801 96.301531 
L 177.758396 96.205922 
L 177.811565 96.134215 
L 178.075003 96.038607 
L 178.10983 95.990803 
L 178.547874 95.895194 
L 178.58177 95.84739 
L 178.883902 95.751781 
L 178.991731 95.63227 
L 179.107114 95.536662 
L 179.19724 95.273738 
L 179.27877 95.178129 
L 179.376106 94.939108 
L 179.513075 94.843499 
L 179.561161 94.771793 
L 179.752191 94.676184 
L 179.846927 94.556673 
L 180.159048 94.461065 
L 180.266984 94.389358 
L 180.511214 94.29375 
L 180.594385 94.174239 
L 180.804318 94.07863 
L 180.900935 93.983022 
L 180.974893 93.911315 
L 180.982272 93.839609 
L 181.462482 93.744 
L 181.47683 93.696196 
L 181.66228 93.648391 
L 181.711874 93.552783 
L 181.873839 93.457174 
L 181.880847 93.40937 
L 182.172666 93.313761 
L 182.200205 93.218153 
L 182.391773 93.122544 
L 182.493539 92.931327 
L 182.594715 92.85962 
L 182.701992 92.764012 
L 182.795322 92.668403 
L 182.901377 92.548892 
L 183.059259 92.453284 
L 183.118098 92.309871 
L 183.364365 92.214262 
L 183.460626 92.142556 
L 183.651569 92.046947 
L 183.733666 91.927436 
L 183.871725 91.831828 
L 183.959015 91.760121 
L 184.273356 91.664513 
L 184.334333 91.545002 
L 184.761242 91.449393 
L 184.814618 91.377687 
L 184.950287 91.282078 
L 185.055732 91.162567 
L 185.114038 91.066959 
L 185.119858 91.019154 
L 185.282031 90.923546 
L 185.379762 90.804035 
L 185.550905 90.708426 
L 185.6302 90.588916 
L 185.714761 90.493307 
L 185.770908 90.4216 
L 186.25736 90.325992 
L 186.344367 90.254285 
L 186.640183 90.158677 
L 186.74652 89.895753 
L 186.90482 89.800144 
L 187.004339 89.728438 
L 187.206852 89.632829 
L 187.28412 89.537221 
L 187.508816 89.441612 
L 187.610002 89.250395 
L 187.815615 89.154786 
L 187.919997 89.08308 
L 187.974425 88.987471 
L 188.077864 88.844058 
L 188.326548 88.74845 
L 188.379724 88.652841 
L 188.595589 88.557232 
L 188.681193 88.509428 
L 188.841751 88.413819 
L 188.893381 88.342113 
L 189.255166 88.246504 
L 189.360429 88.150896 
L 189.460524 88.055287 
L 189.555537 87.959679 
L 189.708278 87.86407 
L 189.810849 87.744559 
L 189.95256 87.64895 
L 190.058093 87.52944 
L 190.262931 87.433831 
L 190.353682 87.386027 
L 190.508164 87.290418 
L 190.61889 87.170907 
L 190.800485 87.075299 
L 190.800485 87.051397 
L 191.054895 86.955788 
L 191.054895 86.907984 
L 191.248415 86.812375 
L 191.346412 86.692864 
L 191.423604 86.597256 
L 191.532713 86.501647 
L 191.641145 86.406038 
L 191.729 86.31043 
L 192.219948 86.214821 
L 192.304942 86.167017 
L 192.712519 86.071408 
L 192.712519 86.047506 
L 192.970385 85.951897 
L 193.066571 85.856289 
L 193.15856 85.76068 
L 193.228149 85.665072 
L 193.413578 85.569463 
L 193.514551 85.449952 
L 194.184696 85.354344 
L 194.277872 85.282637 
L 194.591671 85.187029 
L 194.689427 85.115322 
L 195.143973 85.019713 
L 195.254968 84.924105 
L 195.490921 84.828496 
L 195.583777 84.75679 
L 195.786968 84.661181 
L 195.875125 84.589475 
L 195.940951 84.493866 
L 196.028335 84.374355 
L 196.247973 84.278747 
L 196.330776 84.183138 
L 196.440572 84.087529 
L 196.467914 84.015823 
L 196.819506 83.920214 
L 196.92332 83.776801 
L 197.222387 83.681193 
L 197.309381 83.561682 
L 197.404575 83.489976 
L 197.450544 83.394367 
L 197.870105 83.298758 
L 197.965081 83.250954 
L 198.161761 83.155345 
L 198.16727 83.107541 
L 198.462164 83.011932 
L 198.567439 82.796813 
L 198.786737 82.701204 
L 198.863638 82.605596 
L 199.081878 82.509987 
L 199.081878 82.486085 
L 199.469491 82.390476 
L 199.558708 82.270966 
L 199.614555 82.175357 
L 199.720676 81.98414 
L 199.955872 81.888531 
L 200.020371 81.816825 
L 200.187939 81.721216 
L 200.271123 81.673412 
L 200.585571 81.577803 
L 200.664498 81.43439 
L 200.955573 81.338782 
L 201.04686 81.267075 
L 201.317889 81.171467 
L 201.398154 81.075858 
L 201.697587 80.980249 
L 201.764929 80.836836 
L 201.923276 80.741228 
L 201.991965 80.597815 
L 202.261871 80.502206 
L 202.340084 80.4305 
L 202.538382 80.334891 
L 202.619634 80.263185 
L 202.730212 80.167576 
L 202.812687 79.976359 
L 203.059879 79.88075 
L 203.128386 79.832946 
L 203.556127 79.737337 
L 203.658931 79.474414 
L 204.342757 79.378805 
L 204.394858 79.331001 
L 204.578855 79.235392 
L 204.689086 79.091979 
L 205.275883 78.99637 
L 205.376346 78.924664 
L 205.866613 78.829055 
L 205.89846 78.781251 
L 206.163347 78.685642 
L 206.163347 78.66174 
L 206.669516 78.566132 
L 206.713431 78.518327 
L 206.999533 78.422719 
L 207.045936 78.351012 
L 207.681344 78.255404 
L 207.718009 78.183697 
L 208.099194 78.088089 
L 208.209466 77.968578 
L 208.774603 77.872969 
L 208.858338 77.753458 
L 209.41905 77.65785 
L 209.423383 77.610045 
L 209.779314 77.514437 
L 209.779314 77.490535 
L 210.334934 77.394926 
L 210.418339 77.347122 
L 210.925147 77.251513 
L 210.972781 77.203709 
L 211.280568 77.1081 
L 211.384119 77.060296 
L 211.745575 76.964687 
L 211.808665 76.916883 
L 212.643569 76.821274 
L 212.643569 76.797372 
L 213.254667 76.701764 
L 213.291725 76.653959 
L 213.561484 76.558351 
L 213.561484 76.534448 
L 214.8954 76.43884 
L 214.8954 76.414938 
L 215.449965 76.319329 
L 215.531548 76.247623 
L 216.176707 76.152014 
L 216.176707 76.128112 
L 217.368451 76.032503 
L 217.456136 75.960797 
L 218.449546 75.865188 
L 218.53283 75.793482 
L 220.036964 75.697873 
L 220.106757 75.650069 
L 221.899816 75.55446 
L 221.947064 75.506656 
L 224.975968 75.411047 
L 224.975968 75.387145 
L 228.247529 75.291536 
L 228.247529 75.267634 
L 338.688 75.21983 
L 338.688 75.21983 
" style="fill:none;stroke:#00bfbf;stroke-linecap:square;stroke-width:1.5;"/>
   </g>
   <g id="line2d_31">
    <defs>
     <path d="M -6 0 
L 6 0 
M 0 6 
L 0 -6 
" id="m92ffb87210" style="stroke:#00bfbf;stroke-width:1.5;"/>
    </defs>
    <g>
     <use style="fill-opacity:0;stroke:#00bfbf;stroke-width:1.5;" x="130.796184" xlink:href="#m92ffb87210" y="196.379853"/>
     <use style="fill-opacity:0;stroke:#00bfbf;stroke-width:1.5;" x="148.919783" xlink:href="#m92ffb87210" y="125.199236"/>
     <use style="fill-opacity:0;stroke:#00bfbf;stroke-width:1.5;" x="226.546923" xlink:href="#m92ffb87210" y="75.315439"/>
     <use style="fill-opacity:0;stroke:#00bfbf;stroke-width:1.5;" x="229.260762" xlink:href="#m92ffb87210" y="75.21983"/>
     <use style="fill-opacity:0;stroke:#00bfbf;stroke-width:1.5;" x="229.260762" xlink:href="#m92ffb87210" y="75.21983"/>
     <use style="fill-opacity:0;stroke:#00bfbf;stroke-width:1.5;" x="338.688" xlink:href="#m92ffb87210" y="75.21983"/>
    </g>
   </g>
   <g id="line2d_32">
    <path style="fill:none;stroke:#00bfbf;stroke-linecap:square;stroke-width:1.5;"/>
    <g/>
   </g>
   <g id="line2d_33">
    <path clip-path="url(#p9b2aee9c79)" d="M 151.381313 121.685619 
" style="fill:none;stroke:#00bfbf;stroke-linecap:square;stroke-width:1.5;"/>
    <defs>
     <path d="M -12 12 
L 12 -12 
M -12 -12 
L 12 12 
" id="m5cb0c1eac9" style="stroke:#00bfbf;"/>
    </defs>
    <g clip-path="url(#p9b2aee9c79)">
     <use style="fill:#00bfbf;stroke:#00bfbf;" x="151.381313" xlink:href="#m5cb0c1eac9" y="121.685619"/>
    </g>
   </g>
   <g id="line2d_34">
    <defs>
     <path d="M 0 1.5 
C 0.397805 1.5 0.77937 1.341951 1.06066 1.06066 
C 1.341951 0.77937 1.5 0.397805 1.5 0 
C 1.5 -0.397805 1.341951 -0.77937 1.06066 -1.06066 
C 0.77937 -1.341951 0.397805 -1.5 0 -1.5 
C -0.397805 -1.5 -0.77937 -1.341951 -1.06066 -1.06066 
C -1.341951 -0.77937 -1.5 -0.397805 -1.5 0 
C -1.5 0.397805 -1.341951 0.77937 -1.06066 1.06066 
C -0.77937 1.341951 -0.397805 1.5 0 1.5 
z
" id="m4bafcec428" style="stroke:#008000;"/>
    </defs>
    <g>
     <use style="fill:#008000;stroke:#008000;" x="232.194746" xlink:href="#m4bafcec428" y="108.204804"/>
     <use style="fill:#008000;stroke:#008000;" x="232.194746" xlink:href="#m4bafcec428" y="108.204804"/>
    </g>
   </g>
   <g id="line2d_35">
    <path d="M 38.440992 298.944 
L 38.440992 285.941228 
L 80.258561 285.869521 
L 80.258561 285.821717 
L 83.171864 285.726108 
L 83.171864 285.606598 
L 84.464254 285.606598 
L 84.464254 285.463185 
L 85.66744 285.463185 
L 85.66744 285.200261 
L 86.792945 285.200261 
L 86.792945 284.985142 
L 87.850195 284.985142 
L 87.850195 284.865631 
L 88.846997 284.865631 
L 88.846997 284.674414 
L 89.78989 284.674414 
L 89.78989 284.554903 
L 90.684409 284.554903 
L 90.684409 284.435392 
L 92.34655 284.363685 
L 92.34655 284.268077 
L 93.121756 284.268077 
L 93.121756 284.124664 
L 94.575872 284.029055 
L 94.575872 283.909545 
L 95.259853 283.909545 
L 95.259853 283.718327 
L 95.918017 283.718327 
L 95.918017 283.551012 
L 96.552242 283.551012 
L 96.552242 283.359795 
L 97.16421 283.359795 
L 97.16421 283.19248 
L 97.755429 283.19248 
L 97.755429 283.072969 
L 98.32726 283.072969 
L 98.32726 282.833948 
L 98.880934 282.833948 
L 98.880934 282.666632 
L 99.41757 282.666632 
L 99.41757 282.427611 
L 99.938184 282.427611 
L 99.938184 282.069079 
L 100.443706 282.069079 
L 100.443706 281.853959 
L 100.934985 281.853959 
L 100.934985 281.591036 
L 101.877879 281.591036 
L 101.877879 281.352014 
L 102.772397 281.30421 
L 102.772397 280.921775 
L 103.203018 280.921775 
L 103.203018 280.491536 
L 103.623262 280.491536 
L 103.623262 279.941787 
L 104.033617 279.941787 
L 104.033617 278.985701 
L 104.434538 278.985701 
L 104.434538 278.31644 
L 104.826449 278.31644 
L 104.826449 277.790593 
L 105.209745 277.790593 
L 105.209745 277.527669 
L 105.584798 277.527669 
L 105.584798 276.906213 
L 105.951954 276.906213 
L 105.951954 276.571583 
L 106.311539 276.571583 
L 106.311539 276.332561 
L 106.66386 276.332561 
L 106.66386 276.021833 
L 107.009204 276.021833 
L 107.009204 275.902323 
L 107.347841 275.902323 
L 107.347841 275.782812 
L 107.680028 275.782812 
L 107.680028 275.615497 
L 108.006005 275.615497 
L 108.006005 275.495986 
L 108.326001 275.495986 
L 108.326001 275.280867 
L 108.640231 275.280867 
L 108.640231 274.587704 
L 108.948899 274.587704 
L 108.948899 274.444291 
L 109.550313 274.372585 
L 109.550313 274.32478 
L 110.131676 274.253074 
L 110.131676 272.795043 
L 110.694282 272.77114 
L 110.694282 272.675532 
L 111.239304 272.579923 
L 111.239304 272.508217 
L 112.026172 272.412608 
L 112.026172 272.293097 
L 112.531694 272.221391 
L 112.531694 272.10188 
L 112.779064 272.10188 
L 112.779064 271.743348 
L 113.26352 271.647739 
L 113.26352 271.599935 
L 113.965867 271.504326 
L 113.965867 271.43262 
L 114.418861 271.337011 
L 114.418861 271.241402 
L 114.860386 271.193598 
L 114.860386 271.026283 
L 115.291007 270.954577 
L 115.291007 270.858968 
L 115.917635 270.763359 
L 115.917635 270.596044 
L 116.121606 270.596044 
L 116.121606 270.333121 
L 116.323218 270.333121 
L 116.323218 270.21361 
L 116.522527 270.21361 
L 116.522527 270.094099 
L 116.914437 269.99849 
L 116.914437 269.950686 
L 117.297733 269.855077 
L 117.297733 269.687762 
L 117.857331 269.592154 
L 117.857331 269.353132 
L 118.039942 269.353132 
L 118.039942 269.161915 
L 118.220662 269.161915 
L 118.220662 269.018502 
L 118.399528 269.018502 
L 118.399528 268.803383 
L 118.751849 268.707774 
L 118.751849 268.44485 
L 118.925375 268.44485 
L 118.925375 268.301437 
L 119.097192 268.301437 
L 119.097192 268.181927 
L 119.267333 268.181927 
L 119.267333 268.014612 
L 119.43583 268.014612 
L 119.43583 267.799492 
L 119.768017 267.727786 
L 119.768017 267.608275 
L 119.931767 267.608275 
L 119.931767 267.417058 
L 120.093994 267.417058 
L 120.093994 267.273645 
L 120.254726 267.273645 
L 120.254726 267.082427 
L 120.41399 267.082427 
L 120.41399 266.843406 
L 120.571812 266.843406 
L 120.571812 266.604384 
L 120.728219 266.604384 
L 120.728219 266.389265 
L 121.036887 266.365363 
L 121.036887 266.078537 
L 121.189196 266.078537 
L 121.189196 265.815613 
L 121.489881 265.791711 
L 121.489881 265.648298 
L 121.638301 265.648298 
L 121.638301 265.409277 
L 121.785469 265.409277 
L 121.785469 265.289766 
L 121.931406 265.289766 
L 121.931406 265.170255 
L 122.076131 265.170255 
L 122.076131 265.050744 
L 122.219665 265.050744 
L 122.219665 264.835625 
L 122.362027 264.835625 
L 122.362027 264.596603 
L 122.643312 264.500995 
L 122.643312 264.261973 
L 122.782271 264.261973 
L 122.782271 264.094658 
L 122.920132 264.094658 
L 122.920132 263.927343 
L 123.056911 263.927343 
L 123.056911 263.760028 
L 123.192626 263.760028 
L 123.192626 263.592713 
L 123.327293 263.592713 
L 123.327293 263.473202 
L 123.460928 263.473202 
L 123.460928 263.281985 
L 123.593547 263.281985 
L 123.593547 263.090768 
L 123.725164 263.090768 
L 123.725164 262.923453 
L 123.985457 262.827844 
L 123.985457 262.588822 
L 124.114161 262.588822 
L 124.114161 262.421507 
L 124.241922 262.421507 
L 124.241922 262.278094 
L 124.368753 262.278094 
L 124.368753 262.110779 
L 124.494669 262.110779 
L 124.494669 261.967366 
L 124.743806 261.943464 
L 124.743806 261.752247 
L 124.989434 261.656638 
L 124.989434 261.489323 
L 125.23165 261.393715 
L 125.23165 261.274204 
L 125.470548 261.178595 
L 125.470548 260.963476 
L 125.706218 260.867867 
L 125.706218 260.700552 
L 125.938745 260.652748 
L 125.938745 260.389824 
L 126.168212 260.318118 
L 126.168212 260.246411 
L 126.281824 260.246411 
L 126.281824 260.1269 
L 126.50685 260.1269 
L 126.50685 259.983487 
L 126.618283 259.983487 
L 126.729009 259.601053 
L 126.839037 259.601053 
L 126.948374 259.338129 
L 127.05703 259.338129 
L 127.165014 259.146912 
L 127.272333 259.146912 
L 127.378995 258.860086 
L 127.48501 258.860086 
L 127.590383 258.382043 
L 127.799239 258.334239 
L 127.902737 256.183045 
L 128.005624 256.183045 
L 128.107907 255.896219 
L 128.209594 255.896219 
L 128.310692 255.728904 
L 128.411207 255.728904 
L 128.511146 255.346469 
L 128.610515 255.346469 
L 128.709321 254.987937 
L 128.807571 254.987937 
L 128.905271 254.677209 
L 129.002426 254.677209 
L 129.099042 254.46209 
L 129.195127 254.46209 
L 129.290685 254.199166 
L 129.385722 254.199166 
L 129.480244 253.888438 
L 129.574256 253.888438 
L 129.667765 253.386493 
L 129.760775 253.386493 
L 129.853291 252.860645 
L 129.945319 252.860645 
L 130.036864 252.310896 
L 130.127931 252.310896 
L 130.218525 251.832853 
L 130.30865 251.832853 
L 130.398313 251.211397 
L 130.487516 251.211397 
L 130.576266 250.828962 
L 130.664567 250.828962 
L 130.752422 250.303115 
L 130.839837 250.303115 
L 130.926816 249.633854 
L 131.013364 249.633854 
L 131.099484 249.299224 
L 131.185181 249.299224 
L 131.270459 248.988496 
L 131.355321 248.988496 
L 131.439773 248.414844 
L 131.523818 248.414844 
L 131.60746 247.912899 
L 131.690703 247.912899 
L 131.77355 247.387052 
L 131.856005 247.387052 
L 131.938072 246.885107 
L 132.101058 246.789498 
L 132.181982 246.287553 
L 132.262533 246.287553 
L 132.342714 245.522684 
L 132.422528 245.522684 
L 132.501978 245.116347 
L 132.659801 245.092445 
L 132.73818 244.686108 
L 132.816208 244.686108 
L 132.893889 243.969044 
L 132.971225 243.969044 
L 133.04822 243.323685 
L 133.124876 243.323685 
L 133.201197 242.965153 
L 133.277185 242.965153 
L 133.352844 242.343697 
L 133.428175 242.343697 
L 133.503183 241.841752 
L 133.57787 241.841752 
L 133.652238 241.363709 
L 133.72629 241.363709 
L 133.800029 240.813959 
L 133.873458 240.813959 
L 133.946579 240.26421 
L 134.019394 240.26421 
L 134.091907 239.881775 
L 134.164119 239.881775 
L 134.236034 239.427634 
L 134.307653 239.427634 
L 134.37898 239.021298 
L 134.450015 239.021298 
L 134.520763 238.49545 
L 134.591225 238.49545 
L 134.661403 237.921798 
L 134.7313 237.921798 
L 134.800918 237.252538 
L 134.870259 237.252538 
L 134.939326 236.870104 
L 135.00812 236.870104 
L 135.076644 236.296452 
L 135.144899 236.296452 
L 135.212889 235.698898 
L 135.280614 235.698898 
L 135.348078 234.934029 
L 135.415281 234.934029 
L 135.482227 234.38428 
L 135.548916 234.38428 
L 135.615352 233.858432 
L 135.681535 233.858432 
L 135.747468 233.189172 
L 135.813153 233.189172 
L 135.878591 232.663324 
L 135.943785 232.663324 
L 136.008736 232.161379 
L 136.073445 232.161379 
L 136.137916 231.516021 
L 136.202149 231.516021 
L 136.266147 231.06188 
L 136.32991 231.06188 
L 136.393441 230.39262 
L 136.456742 230.39262 
L 136.519813 229.532142 
L 136.582658 229.532142 
L 136.645276 228.982393 
L 136.707671 228.982393 
L 136.769843 228.647762 
L 136.831795 228.647762 
L 136.893527 227.930698 
L 136.955041 227.930698 
L 137.016339 227.596068 
L 137.077422 227.596068 
L 137.138292 227.189731 
L 137.198951 227.189731 
L 137.259399 226.855101 
L 137.319638 226.855101 
L 137.37967 226.353156 
L 137.439497 226.353156 
L 137.499118 225.85121 
L 137.558536 225.85121 
L 137.617753 225.229754 
L 137.676769 225.229754 
L 137.735587 224.871222 
L 137.794206 224.871222 
L 137.852629 224.178059 
L 137.910857 224.178059 
L 137.968891 222.95905 
L 138.026733 222.95905 
L 138.084384 222.241985 
L 138.141844 222.241985 
L 138.199116 221.668333 
L 138.256201 221.668333 
L 138.313099 220.951268 
L 138.369812 220.951268 
L 138.426341 219.660552 
L 138.482688 219.660552 
L 138.538853 219.110803 
L 138.594838 219.110803 
L 138.650644 218.776172 
L 138.706272 218.776172 
L 138.816998 218.08301 
L 138.872098 218.08301 
L 138.981779 216.601076 
L 139.036363 216.601076 
L 139.145019 215.955718 
L 139.253002 215.860109 
L 139.360321 215.143045 
L 139.466984 215.047436 
L 139.572998 214.258665 
L 139.625765 214.258665 
L 139.730821 213.613307 
L 139.783113 213.613307 
L 139.887228 212.107471 
L 139.939053 212.107471 
L 140.042245 210.816755 
L 140.093612 210.816755 
L 140.195896 209.549941 
L 140.246813 209.549941 
L 140.348205 208.952387 
L 140.39868 208.952387 
L 140.499195 207.781181 
L 140.549236 207.781181 
L 140.64889 207.303138 
L 140.698504 207.303138 
L 140.79731 207.016312 
L 140.846504 207.016312 
L 140.944478 206.418758 
L 141.041904 206.32315 
L 141.138789 205.845107 
L 141.187031 205.845107 
L 141.283115 205.199748 
L 141.33096 205.199748 
L 141.426256 204.745607 
L 141.47371 204.745607 
L 141.568232 204.100249 
L 141.615302 204.100249 
L 141.709062 203.502695 
L 141.755753 203.502695 
L 141.848763 202.952946 
L 141.895083 202.952946 
L 141.987354 202.283685 
L 142.07914 202.188077 
L 142.170445 201.614425 
L 142.215919 201.614425 
L 142.306513 200.801752 
L 142.351634 200.801752 
L 142.441528 199.630546 
L 142.486301 199.630546 
L 142.53096 199.22421 
L 142.664255 199.152503 
L 142.752555 198.483243 
L 142.796538 198.483243 
L 142.884173 197.813983 
L 142.927826 197.813983 
L 143.014805 196.977407 
L 143.058132 196.977407 
L 143.144465 196.284245 
L 143.187472 196.284245 
L 143.273169 195.591082 
L 143.358447 195.519376 
L 143.44331 194.778409 
L 143.485587 194.778409 
L 143.569835 193.941833 
L 143.611807 193.941833 
L 143.695448 193.248671 
L 143.778691 193.153062 
L 143.861538 192.077465 
L 143.902815 192.077465 
L 143.985075 191.360401 
L 144.026061 191.360401 
L 144.107744 190.954064 
L 144.148442 190.954064 
L 144.229555 189.854565 
L 144.269971 189.854565 
L 144.350522 189.424326 
L 144.390658 189.424326 
L 144.470655 188.946283 
L 144.510517 188.946283 
L 144.589967 188.372631 
L 144.629556 188.372631 
L 144.708467 187.846784 
L 144.747789 187.846784 
L 144.826168 187.464349 
L 144.865226 187.464349 
L 144.94308 187.081915 
L 144.981877 187.081915 
L 145.059213 186.484361 
L 145.136208 186.388752 
L 145.212864 185.910709 
L 145.289185 185.839003 
L 145.365173 185.504373 
L 145.403044 185.504373 
L 145.478539 184.906819 
L 145.516164 184.906819 
L 145.591172 184.404874 
L 145.665858 184.333167 
L 145.740226 184.094146 
L 145.814278 184.046341 
L 145.924771 183.400983 
L 145.998045 183.329277 
L 146.107383 182.970744 
L 146.143677 182.970744 
L 146.252108 182.110267 
L 146.288102 182.110267 
L 146.395642 181.512713 
L 146.431341 181.512713 
L 146.538004 180.891257 
L 146.573414 180.891257 
L 146.679213 180.245899 
L 146.714338 180.245899 
L 146.819289 179.81566 
L 146.888907 179.720051 
L 146.992815 178.835672 
L 147.027314 178.835672 
L 147.130404 177.975194 
L 147.164632 177.975194 
L 147.266916 177.425444 
L 147.300877 177.425444 
L 147.402367 176.588869 
L 147.436066 176.588869 
L 147.536775 175.871804 
L 147.570215 175.871804 
L 147.670154 175.130838 
L 147.70334 175.130838 
L 147.802521 174.198653 
L 147.86833 174.150849 
L 147.96658 173.457687 
L 147.999207 173.457687 
L 148.096724 172.573307 
L 148.129109 172.573307 
L 148.225905 171.880144 
L 148.258051 171.880144 
L 148.354135 170.94796 
L 148.386046 170.94796 
L 148.48143 169.991874 
L 148.513109 169.991874 
L 148.607802 169.203103 
L 148.639252 169.203103 
L 148.733265 168.199213 
L 148.76449 168.199213 
L 148.857832 167.577757 
L 148.888835 167.577757 
L 148.981515 166.645573 
L 149.012299 166.645573 
L 149.104327 165.904606 
L 149.165411 165.832899 
L 149.256637 164.852911 
L 149.286939 164.852911 
L 149.377533 163.896825 
L 149.407627 163.896825 
L 149.497598 162.988543 
L 149.527485 162.988543 
L 149.616841 162.223674 
L 149.646525 162.223674 
L 149.735275 161.697826 
L 149.764758 161.697826 
L 149.852909 160.837349 
L 149.882194 160.837349 
L 149.969756 160.120284 
L 149.998846 160.120284 
L 150.085825 159.594437 
L 150.143571 159.498828 
L 150.229833 158.925176 
L 150.258492 158.925176 
L 150.344189 158.279818 
L 150.401087 158.232014 
L 150.486088 157.753971 
L 150.51433 157.753971 
L 150.598782 157.180319 
L 150.626842 157.180319 
L 150.710752 156.893493 
L 150.738632 156.893493 
L 150.849711 156.272037 
L 150.87737 156.272037 
L 150.987572 155.937407 
L 151.042412 155.865701 
L 151.124351 155.507168 
L 151.178764 155.507168 
L 151.287083 155.029125 
L 151.314058 155.029125 
L 151.421542 154.52718 
L 151.501723 154.431571 
L 151.60806 154.049137 
L 151.713753 154.001333 
L 151.818809 153.594996 
L 151.871101 153.571094 
L 151.975216 153.236464 
L 152.027042 153.140855 
L 152.130233 152.567203 
L 152.207228 152.519399 
L 152.309362 152.065258 
L 152.410901 152.041356 
L 152.486669 151.778432 
L 152.587184 151.730628 
L 152.687123 151.4199 
L 152.736878 151.348193 
L 152.835965 151.061368 
L 152.885298 151.013563 
L 152.983548 150.655031 
L 153.008024 150.655031 
L 153.105587 150.296499 
L 153.154164 150.20089 
L 153.250915 149.794553 
L 153.29909 149.722847 
L 153.395042 149.53163 
L 153.49047 149.483825 
L 153.585377 149.196999 
L 153.656221 149.101391 
L 153.750233 148.790663 
L 153.867041 148.695054 
L 153.936752 148.551641 
L 154.029268 148.456033 
L 154.098334 148.217011 
L 154.167129 148.169207 
L 154.258434 147.834577 
L 154.349264 147.738968 
L 154.417077 147.595555 
L 154.484627 147.499946 
L 154.57429 147.141414 
L 154.663493 147.069708 
L 154.752243 146.87849 
L 154.796449 146.87849 
L 154.884527 146.519958 
L 155.015814 146.448252 
L 155.12447 146.233132 
L 155.210911 146.137524 
L 155.318362 145.970209 
L 155.446436 145.898502 
L 155.55245 145.611676 
L 155.678822 145.516068 
L 155.783437 145.229242 
L 155.804285 145.229242 
L 155.908152 144.942416 
L 155.949527 144.870709 
L 156.052535 144.488275 
L 156.175347 144.392666 
L 156.277034 144.058036 
L 156.317544 143.962427 
L 156.418408 143.484384 
L 156.498681 143.412678 
L 156.598505 143.149754 
L 156.677955 143.054146 
L 156.776762 142.815124 
L 156.796456 142.815124 
L 156.894595 142.384885 
L 156.992185 142.289277 
L 157.089232 142.002451 
L 157.147202 141.954646 
L 157.243392 141.620016 
L 157.28172 141.54831 
L 157.377174 141.118071 
L 157.453162 141.022462 
L 157.547684 140.855147 
L 157.58535 140.759539 
L 157.67916 140.568321 
L 157.772468 140.472713 
L 157.86528 140.281496 
L 157.939176 140.209789 
L 158.049435 139.77955 
L 158.104304 139.707844 
L 158.213527 139.373214 
L 158.231665 139.373214 
L 158.340096 138.966877 
L 158.447857 138.895171 
L 158.537152 138.536638 
L 158.608261 138.44103 
L 158.714382 138.154204 
L 158.889829 138.058595 
L 158.959517 137.843476 
L 159.046236 137.795672 
L 159.132527 137.628356 
L 159.201253 137.580552 
L 159.26971 137.413237 
L 159.507213 137.317628 
L 159.608019 137.22202 
L 159.807898 137.126411 
L 159.906985 137.0069 
L 160.070889 136.911292 
L 160.136022 136.720075 
L 160.410154 136.67227 
L 160.505887 136.504955 
L 160.601097 136.409347 
L 160.69579 136.218129 
L 160.774311 136.122521 
L 160.836873 135.907401 
L 161.069504 135.835695 
L 161.161694 135.572771 
L 161.253399 135.477162 
L 161.359783 135.190337 
L 161.435376 135.094728 
L 161.510643 134.975217 
L 161.570623 134.975217 
L 161.660209 134.807902 
L 161.838011 134.736196 
L 161.940898 134.521076 
L 162.057744 134.425468 
L 162.159347 134.282055 
L 162.332157 134.186446 
L 162.432178 133.995229 
L 162.559939 133.89962 
L 162.644595 133.684501 
L 162.784783 133.588892 
L 162.882249 133.493284 
L 162.951535 133.397675 
L 163.020547 133.302066 
L 163.185069 133.206458 
L 163.266752 133.063045 
L 163.428979 132.967436 
L 163.536298 132.824023 
L 163.603039 132.728415 
L 163.682792 132.5611 
L 163.762182 132.465491 
L 163.867476 132.154763 
L 164.037234 132.059154 
L 164.140886 131.915741 
L 164.179597 131.820133 
L 164.282408 131.557209 
L 164.320806 131.4616 
L 164.42279 131.270383 
L 164.498889 131.174775 
L 164.574657 131.00746 
L 164.700211 130.911851 
L 164.800007 130.79234 
L 164.899235 130.696732 
L 164.997901 130.529416 
L 165.230021 130.433808 
L 165.326839 130.242591 
L 165.411116 130.170884 
L 165.518877 129.836254 
L 165.625977 129.740645 
L 165.732422 129.549428 
L 165.838222 129.477722 
L 165.885039 129.358211 
L 166.047915 129.262602 
L 166.140309 129.071385 
L 166.232216 128.975776 
L 166.335035 128.832363 
L 166.391896 128.760657 
L 166.493781 128.497733 
L 166.572616 128.426027 
L 166.673454 128.163103 
L 166.795913 128.067494 
L 166.906499 127.852375 
L 167.016388 127.756766 
L 167.125588 127.565549 
L 167.190782 127.493843 
L 167.255733 127.326528 
L 167.374185 127.230919 
L 167.417059 127.111408 
L 167.608702 127.0158 
L 167.682664 126.944093 
L 167.798261 126.872387 
L 167.892273 126.752876 
L 168.140524 126.657267 
L 168.242927 126.537757 
L 168.354881 126.442148 
L 168.435853 126.322637 
L 168.496336 126.227029 
L 168.576655 126.155322 
L 168.686493 126.059713 
L 168.756032 125.988007 
L 168.825295 125.892398 
L 168.933583 125.772888 
L 169.157854 125.677279 
L 169.264103 125.46216 
L 169.417501 125.366551 
L 169.512694 125.223138 
L 169.682742 125.127529 
L 169.710923 125.031921 
L 169.99949 124.936312 
L 170.109924 124.792899 
L 170.256089 124.697291 
L 170.337772 124.601682 
L 170.43709 124.529976 
L 170.544796 124.36266 
L 170.660731 124.267052 
L 170.713981 124.219248 
L 170.85519 124.123639 
L 170.960352 123.956324 
L 171.073566 123.860715 
L 171.177424 123.741204 
L 171.357698 123.645596 
L 171.451389 123.478281 
L 171.586775 123.382672 
L 171.645677 123.287063 
L 171.904165 123.191455 
L 171.994974 123.071944 
L 172.288901 122.976335 
L 172.353551 122.832923 
L 172.546075 122.737314 
L 172.585918 122.641705 
L 172.799511 122.546097 
L 172.885786 122.47439 
L 173.111214 122.378782 
L 173.211329 122.235369 
L 173.379457 122.13976 
L 173.478048 121.996347 
L 173.598631 121.924641 
L 173.598631 121.900738 
L 173.703462 121.733423 
L 173.785389 121.637815 
L 173.859536 121.59001 
L 173.970168 121.494402 
L 174.072796 121.279282 
L 174.182087 121.183674 
L 174.290699 120.92075 
L 174.455933 120.825142 
L 174.534408 120.729533 
L 174.732584 120.633924 
L 174.795808 120.514414 
L 174.914609 120.418805 
L 175.018766 120.25149 
L 175.094755 120.155881 
L 175.197844 119.91686 
L 175.490035 119.821251 
L 175.537141 119.70174 
L 175.671032 119.630034 
L 175.77741 119.462719 
L 176.001331 119.36711 
L 176.112223 119.223697 
L 176.637426 119.128089 
L 176.744358 119.03248 
L 176.887995 118.936871 
L 176.956275 118.841263 
L 177.257224 118.745654 
L 177.257224 118.721752 
L 177.648594 118.626143 
L 177.755438 118.48273 
L 177.932069 118.387122 
L 178.031372 118.267611 
L 178.199477 118.172002 
L 178.199477 118.1481 
L 178.621232 118.052492 
L 178.683063 117.956883 
L 178.961385 117.885176 
L 178.961385 117.861274 
L 178.977944 117.81347 
L 179.235335 117.717861 
L 179.332913 117.646155 
L 179.590482 117.550546 
L 179.590482 117.502742 
L 179.928095 117.407133 
L 179.928095 117.383231 
L 180.254169 117.287623 
L 180.346224 117.215916 
L 180.463148 117.14421 
L 180.564187 117.000797 
L 180.664644 116.905188 
L 180.719649 116.833482 
L 180.992105 116.737873 
L 181.041188 116.642264 
L 181.294218 116.546656 
L 181.376149 116.451047 
L 181.619658 116.355439 
L 181.690637 116.283732 
L 181.831732 116.188123 
L 181.906518 116.068613 
L 182.179555 115.973004 
L 182.284846 115.877395 
L 182.480004 115.781787 
L 182.574526 115.71008 
L 182.770927 115.614472 
L 182.828533 115.542765 
L 183.048341 115.447157 
L 183.144185 115.37545 
L 183.347196 115.279842 
L 183.449956 115.208135 
L 183.68319 115.112526 
L 183.788183 115.016918 
L 183.884222 114.921309 
L 183.888385 114.873505 
L 184.267247 114.777896 
L 184.364741 114.682288 
L 184.522016 114.586679 
L 184.618101 114.538875 
L 184.816592 114.443266 
L 184.879635 114.299853 
L 185.137306 114.204245 
L 185.2185 114.060832 
L 185.543334 113.965223 
L 185.618894 113.869614 
L 185.917903 113.774006 
L 185.980788 113.654495 
L 186.490213 113.558886 
L 186.58677 113.439376 
L 186.74652 113.343767 
L 186.841673 113.295963 
L 187.422344 113.200354 
L 187.483428 113.128648 
L 187.655344 113.033039 
L 187.745678 112.93743 
L 188.157895 112.841822 
L 188.206713 112.794017 
L 188.471193 112.698409 
L 188.538286 112.578898 
L 188.826075 112.483289 
L 188.904313 112.411583 
L 189.52995 112.315974 
L 189.608099 112.244268 
L 189.887752 112.148659 
L 189.887752 112.124757 
L 190.843844 112.029149 
L 190.913551 111.981344 
L 191.24978 111.885736 
L 191.326041 111.814029 
L 191.94541 111.718421 
L 191.982092 111.622812 
L 192.378015 111.527203 
L 192.469881 111.479399 
L 192.912169 111.38379 
L 192.919612 111.335986 
L 193.669674 111.240377 
L 193.683923 111.192573 
L 193.943126 111.096964 
L 194.015483 111.025258 
L 194.938628 110.929649 
L 194.938628 110.905747 
L 195.312364 110.810139 
L 195.381422 110.738432 
L 195.871984 110.642824 
L 195.871984 110.618921 
L 196.765874 110.523313 
L 196.803632 110.475508 
L 197.484941 110.3799 
L 197.532602 110.308193 
L 198.563851 110.212585 
L 198.614025 110.16478 
L 199.356682 110.069172 
L 199.356682 110.04527 
L 200.568782 109.949661 
L 200.568782 109.925759 
L 202.715367 109.83015 
L 202.816906 109.782346 
L 204.105378 109.686737 
L 204.105378 109.662835 
L 205.108999 109.567227 
L 205.108999 109.543324 
L 206.225332 109.447716 
L 206.32336 109.399911 
L 207.643001 109.304303 
L 207.74718 109.256499 
L 208.878713 109.16089 
L 208.878713 109.136988 
L 211.182927 109.041379 
L 211.182927 109.017477 
L 212.132278 108.921868 
L 212.185772 108.874064 
L 213.555408 108.778455 
L 213.555408 108.754553 
L 215.258453 108.658945 
L 215.258453 108.635043 
L 217.864648 108.539434 
L 217.864648 108.515532 
L 219.498069 108.419923 
L 219.498069 108.396021 
L 229.358491 108.300412 
L 229.358491 108.27651 
L 338.688 108.204804 
L 338.688 108.204804 
" style="fill:none;stroke:#008000;stroke-linecap:square;stroke-width:1.5;"/>
   </g>
   <g id="line2d_36">
    <defs>
     <path d="M -0 6 
L 6 -6 
L -6 -6 
z
" id="m4205f632ac" style="stroke:#008000;stroke-linejoin:miter;stroke-width:1.5;"/>
    </defs>
    <g>
     <use style="fill-opacity:0;stroke:#008000;stroke-linejoin:miter;stroke-width:1.5;" x="134.800918" xlink:href="#m4205f632ac" y="237.252538"/>
     <use style="fill-opacity:0;stroke:#008000;stroke-linejoin:miter;stroke-width:1.5;" x="154.796449" xlink:href="#m4205f632ac" y="146.87849"/>
     <use style="fill-opacity:0;stroke:#008000;stroke-linejoin:miter;stroke-width:1.5;" x="232.194746" xlink:href="#m4205f632ac" y="108.228706"/>
     <use style="fill-opacity:0;stroke:#008000;stroke-linejoin:miter;stroke-width:1.5;" x="232.194746" xlink:href="#m4205f632ac" y="108.204804"/>
     <use style="fill-opacity:0;stroke:#008000;stroke-linejoin:miter;stroke-width:1.5;" x="232.194746" xlink:href="#m4205f632ac" y="108.204804"/>
     <use style="fill-opacity:0;stroke:#008000;stroke-linejoin:miter;stroke-width:1.5;" x="338.688" xlink:href="#m4205f632ac" y="108.204804"/>
    </g>
   </g>
   <g id="line2d_37">
    <path style="fill:none;stroke:#008000;stroke-linecap:square;stroke-width:1.5;"/>
    <g/>
   </g>
   <g id="line2d_38">
    <path clip-path="url(#p9b2aee9c79)" d="M 158.285965 139.11029 
" style="fill:none;stroke:#008000;stroke-linecap:square;stroke-width:1.5;"/>
    <defs>
     <path d="M -12 12 
L 12 -12 
M -12 -12 
L 12 12 
" id="m12c80fc614" style="stroke:#008000;"/>
    </defs>
    <g clip-path="url(#p9b2aee9c79)">
     <use style="fill:#008000;stroke:#008000;" x="158.285965" xlink:href="#m12c80fc614" y="139.11029"/>
    </g>
   </g>
   <g id="line2d_39">
    <path d="M 338.688 108.204804 
L 369.60768 293.092752 
" style="fill:none;stroke:#008000;stroke-linecap:square;stroke-width:1.5;"/>
    <g>
     <use style="fill-opacity:0;stroke:#008000;stroke-linejoin:miter;stroke-width:1.5;" x="338.688" xlink:href="#m4205f632ac" y="108.204804"/>
     <use style="fill-opacity:0;stroke:#008000;stroke-linejoin:miter;stroke-width:1.5;" x="369.60768" xlink:href="#m4205f632ac" y="293.092752"/>
    </g>
   </g>
   <g id="line2d_40">
    <path d="M 338.688 75.21983 
L 369.60768 12.232871 
" style="fill:none;stroke:#00bfbf;stroke-linecap:square;stroke-width:1.5;"/>
    <g>
     <use style="fill-opacity:0;stroke:#00bfbf;stroke-width:1.5;" x="338.688" xlink:href="#m92ffb87210" y="75.21983"/>
     <use style="fill-opacity:0;stroke:#00bfbf;stroke-width:1.5;" x="369.60768" xlink:href="#m92ffb87210" y="12.232871"/>
    </g>
   </g>
   <g id="line2d_41">
    <path d="M 338.688 298.944 
L 338.688 6.381624 
" style="fill:none;stroke:#000000;stroke-linecap:square;stroke-width:1.5;"/>
   </g>
   <g id="patch_3">
    <path d="M 57.6 298.944 
L 57.6 3.456 
" style="fill:none;stroke:#000000;stroke-linecap:square;stroke-linejoin:miter;stroke-width:0.8;"/>
   </g>
   <g id="patch_4">
    <path d="M 338.688 298.944 
L 338.688 3.456 
" style="fill:none;stroke:#000000;stroke-linecap:square;stroke-linejoin:miter;stroke-width:0.8;"/>
   </g>
   <g id="patch_5">
    <path d="M 57.6 298.944 
L 338.688 298.944 
" style="fill:none;stroke:#000000;stroke-linecap:square;stroke-linejoin:miter;stroke-width:0.8;"/>
   </g>
   <g id="patch_6">
    <path d="M 57.6 3.456 
L 338.688 3.456 
" style="fill:none;stroke:#000000;stroke-linecap:square;stroke-linejoin:miter;stroke-width:0.8;"/>
   </g>
   <g id="text_13">
    <!-- 3-D -->
    <defs>
     <path d="M 40.578125 39.3125 
Q 47.65625 37.796875 51.625 33 
Q 55.609375 28.21875 55.609375 21.1875 
Q 55.609375 10.40625 48.1875 4.484375 
Q 40.765625 -1.421875 27.09375 -1.421875 
Q 22.515625 -1.421875 17.65625 -0.515625 
Q 12.796875 0.390625 7.625 2.203125 
L 7.625 11.71875 
Q 11.71875 9.328125 16.59375 8.109375 
Q 21.484375 6.890625 26.8125 6.890625 
Q 36.078125 6.890625 40.9375 10.546875 
Q 45.796875 14.203125 45.796875 21.1875 
Q 45.796875 27.640625 41.28125 31.265625 
Q 36.765625 34.90625 28.71875 34.90625 
L 20.21875 34.90625 
L 20.21875 43.015625 
L 29.109375 43.015625 
Q 36.375 43.015625 40.234375 45.921875 
Q 44.09375 48.828125 44.09375 54.296875 
Q 44.09375 59.90625 40.109375 62.90625 
Q 36.140625 65.921875 28.71875 65.921875 
Q 24.65625 65.921875 20.015625 65.03125 
Q 15.375 64.15625 9.8125 62.3125 
L 9.8125 71.09375 
Q 15.4375 72.65625 20.34375 73.4375 
Q 25.25 74.21875 29.59375 74.21875 
Q 40.828125 74.21875 47.359375 69.109375 
Q 53.90625 64.015625 53.90625 55.328125 
Q 53.90625 49.265625 50.4375 45.09375 
Q 46.96875 40.921875 40.578125 39.3125 
z
" id="DejaVuSans-51"/>
     <path d="M 19.671875 64.796875 
L 19.671875 8.109375 
L 31.59375 8.109375 
Q 46.6875 8.109375 53.6875 14.9375 
Q 60.6875 21.78125 60.6875 36.53125 
Q 60.6875 51.171875 53.6875 57.984375 
Q 46.6875 64.796875 31.59375 64.796875 
z
M 9.8125 72.90625 
L 30.078125 72.90625 
Q 51.265625 72.90625 61.171875 64.09375 
Q 71.09375 55.28125 71.09375 36.53125 
Q 71.09375 17.671875 61.125 8.828125 
Q 51.171875 0 30.078125 0 
L 9.8125 0 
z
" id="DejaVuSans-68"/>
    </defs>
    <g transform="translate(375.22944 297.78369)scale(0.17 -0.17)">
     <use xlink:href="#DejaVuSans-51"/>
     <use x="63.623047" xlink:href="#DejaVuSans-45"/>
     <use x="99.707031" xlink:href="#DejaVuSans-68"/>
    </g>
   </g>
   <g id="text_14">
    <!-- 2-D -->
    <g transform="translate(375.22944 16.923809)scale(0.17 -0.17)">
     <use xlink:href="#DejaVuSans-50"/>
     <use x="63.623047" xlink:href="#DejaVuSans-45"/>
     <use x="99.707031" xlink:href="#DejaVuSans-68"/>
    </g>
   </g>
   <g id="text_15">
    <!-- bbob f1-f24 -->
    <defs>
     <path d="M 48.6875 27.296875 
Q 48.6875 37.203125 44.609375 42.84375 
Q 40.53125 48.484375 33.40625 48.484375 
Q 26.265625 48.484375 22.1875 42.84375 
Q 18.109375 37.203125 18.109375 27.296875 
Q 18.109375 17.390625 22.1875 11.75 
Q 26.265625 6.109375 33.40625 6.109375 
Q 40.53125 6.109375 44.609375 11.75 
Q 48.6875 17.390625 48.6875 27.296875 
z
M 18.109375 46.390625 
Q 20.953125 51.265625 25.265625 53.625 
Q 29.59375 56 35.59375 56 
Q 45.5625 56 51.78125 48.09375 
Q 58.015625 40.1875 58.015625 27.296875 
Q 58.015625 14.40625 51.78125 6.484375 
Q 45.5625 -1.421875 35.59375 -1.421875 
Q 29.59375 -1.421875 25.265625 0.953125 
Q 20.953125 3.328125 18.109375 8.203125 
L 18.109375 0 
L 9.078125 0 
L 9.078125 75.984375 
L 18.109375 75.984375 
z
" id="DejaVuSans-98"/>
    </defs>
    <g transform="translate(60.41088 14.161286)scale(0.102 -0.102)">
     <use xlink:href="#DejaVuSans-98"/>
     <use x="63.476562" xlink:href="#DejaVuSans-98"/>
     <use x="126.953125" xlink:href="#DejaVuSans-111"/>
     <use x="188.134766" xlink:href="#DejaVuSans-98"/>
     <use x="251.611328" xlink:href="#DejaVuSans-32"/>
     <use x="283.398438" xlink:href="#DejaVuSans-102"/>
     <use x="318.603516" xlink:href="#DejaVuSans-49"/>
     <use x="382.226562" xlink:href="#DejaVuSans-45"/>
     <use x="418.310547" xlink:href="#DejaVuSans-102"/>
     <use x="453.515625" xlink:href="#DejaVuSans-50"/>
     <use x="517.138672" xlink:href="#DejaVuSans-52"/>
    </g>
    <!-- 51 targets: 100..1e-08 -->
    <defs>
     <path d="M 10.796875 72.90625 
L 49.515625 72.90625 
L 49.515625 64.59375 
L 19.828125 64.59375 
L 19.828125 46.734375 
Q 21.96875 47.46875 24.109375 47.828125 
Q 26.265625 48.1875 28.421875 48.1875 
Q 40.625 48.1875 47.75 41.5 
Q 54.890625 34.8125 54.890625 23.390625 
Q 54.890625 11.625 47.5625 5.09375 
Q 40.234375 -1.421875 26.90625 -1.421875 
Q 22.3125 -1.421875 17.546875 -0.640625 
Q 12.796875 0.140625 7.71875 1.703125 
L 7.71875 11.625 
Q 12.109375 9.234375 16.796875 8.0625 
Q 21.484375 6.890625 26.703125 6.890625 
Q 35.15625 6.890625 40.078125 11.328125 
Q 45.015625 15.765625 45.015625 23.390625 
Q 45.015625 31 40.078125 35.4375 
Q 35.15625 39.890625 26.703125 39.890625 
Q 22.75 39.890625 18.8125 39.015625 
Q 14.890625 38.140625 10.796875 36.28125 
z
" id="DejaVuSans-53"/>
     <path d="M 11.71875 12.40625 
L 22.015625 12.40625 
L 22.015625 0 
L 11.71875 0 
z
M 11.71875 51.703125 
L 22.015625 51.703125 
L 22.015625 39.3125 
L 11.71875 39.3125 
z
" id="DejaVuSans-58"/>
    </defs>
    <g transform="translate(60.41088 25.583055)scale(0.102 -0.102)">
     <use xlink:href="#DejaVuSans-53"/>
     <use x="63.623047" xlink:href="#DejaVuSans-49"/>
     <use x="127.246094" xlink:href="#DejaVuSans-32"/>
     <use x="159.033203" xlink:href="#DejaVuSans-116"/>
     <use x="198.242188" xlink:href="#DejaVuSans-97"/>
     <use x="259.521484" xlink:href="#DejaVuSans-114"/>
     <use x="298.884766" xlink:href="#DejaVuSans-103"/>
     <use x="362.361328" xlink:href="#DejaVuSans-101"/>
     <use x="423.884766" xlink:href="#DejaVuSans-116"/>
     <use x="463.09375" xlink:href="#DejaVuSans-115"/>
     <use x="515.193359" xlink:href="#DejaVuSans-58"/>
     <use x="548.884766" xlink:href="#DejaVuSans-32"/>
     <use x="580.671875" xlink:href="#DejaVuSans-49"/>
     <use x="644.294922" xlink:href="#DejaVuSans-48"/>
     <use x="707.917969" xlink:href="#DejaVuSans-48"/>
     <use x="771.541016" xlink:href="#DejaVuSans-46"/>
     <use x="803.328125" xlink:href="#DejaVuSans-46"/>
     <use x="835.115234" xlink:href="#DejaVuSans-49"/>
     <use x="898.738281" xlink:href="#DejaVuSans-101"/>
     <use x="960.261719" xlink:href="#DejaVuSans-45"/>
     <use x="996.345703" xlink:href="#DejaVuSans-48"/>
     <use x="1059.96875" xlink:href="#DejaVuSans-56"/>
    </g>
    <!-- 15 instances -->
    <g transform="translate(60.41088 37.004824)scale(0.102 -0.102)">
     <use xlink:href="#DejaVuSans-49"/>
     <use x="63.623047" xlink:href="#DejaVuSans-53"/>
     <use x="127.246094" xlink:href="#DejaVuSans-32"/>
     <use x="159.033203" xlink:href="#DejaVuSans-105"/>
     <use x="186.816406" xlink:href="#DejaVuSans-110"/>
     <use x="250.195312" xlink:href="#DejaVuSans-115"/>
     <use x="302.294922" xlink:href="#DejaVuSans-116"/>
     <use x="341.503906" xlink:href="#DejaVuSans-97"/>
     <use x="402.783203" xlink:href="#DejaVuSans-110"/>
     <use x="466.162109" xlink:href="#DejaVuSans-99"/>
     <use x="521.142578" xlink:href="#DejaVuSans-101"/>
     <use x="582.666016" xlink:href="#DejaVuSans-115"/>
    </g>
   </g>
   <g id="text_16">
    <!-- v2.3.3.5 -->
    <g style="fill:#808080;" transform="translate(177.692437 293.909432)scale(0.1 -0.1)">
     <use xlink:href="#DejaVuSans-118"/>
     <use x="59.179688" xlink:href="#DejaVuSans-50"/>
     <use x="122.802734" xlink:href="#DejaVuSans-46"/>
     <use x="154.589844" xlink:href="#DejaVuSans-51"/>
     <use x="218.212891" xlink:href="#DejaVuSans-46"/>
     <use x="250" xlink:href="#DejaVuSans-51"/>
     <use x="313.623047" xlink:href="#DejaVuSans-46"/>
     <use x="345.410156" xlink:href="#DejaVuSans-53"/>
    </g>
   </g>
  </g>
 </g>
 <defs>
  <clipPath id="p9b2aee9c79">
   <rect height="295.488" width="281.088" x="57.6" y="3.456"/>
  </clipPath>
 </defs>
</svg>
