<?xml version="1.0" encoding="utf-8" standalone="no"?>
<!DOCTYPE svg PUBLIC "-//W3C//DTD SVG 1.1//EN"
  "http://www.w3.org/Graphics/SVG/1.1/DTD/svg11.dtd">
<!-- Created with matplotlib (https://matplotlib.org/) -->
<svg height="345.6pt" version="1.1" viewBox="0 0 460.8 345.6" width="460.8pt" xmlns="http://www.w3.org/2000/svg" xmlns:xlink="http://www.w3.org/1999/xlink">
 <defs>
  <style type="text/css">
*{stroke-linecap:butt;stroke-linejoin:round;}
  </style>
 </defs>
 <g id="figure_1">
  <g id="patch_1">
   <path d="M 0 345.6 
L 460.8 345.6 
L 460.8 0 
L 0 0 
z
" style="fill:#ffffff;"/>
  </g>
  <g id="axes_1">
   <g id="patch_2">
    <path d="M 57.6 298.944 
L 338.688 298.944 
L 338.688 3.456 
L 57.6 3.456 
z
" style="fill:#ffffff;"/>
   </g>
   <g id="matplotlib.axis_1">
    <g id="xtick_1">
     <g id="line2d_1">
      <path clip-path="url(#p9f07c465a6)" d="M 57.6 298.944 
L 57.6 3.456 
" style="fill:none;stroke:#b0b0b0;stroke-linecap:square;stroke-width:0.8;"/>
     </g>
     <g id="line2d_2">
      <defs>
       <path d="M 0 0 
L 0 3.5 
" id="m5651a9dfd6" style="stroke:#000000;stroke-width:0.8;"/>
      </defs>
      <g>
       <use style="stroke:#000000;stroke-width:0.8;" x="57.6" xlink:href="#m5651a9dfd6" y="298.944"/>
      </g>
     </g>
     <g id="text_1">
      <!-- 0 -->
      <defs>
       <path d="M 31.78125 66.40625 
Q 24.171875 66.40625 20.328125 58.90625 
Q 16.5 51.421875 16.5 36.375 
Q 16.5 21.390625 20.328125 13.890625 
Q 24.171875 6.390625 31.78125 6.390625 
Q 39.453125 6.390625 43.28125 13.890625 
Q 47.125 21.390625 47.125 36.375 
Q 47.125 51.421875 43.28125 58.90625 
Q 39.453125 66.40625 31.78125 66.40625 
z
M 31.78125 74.21875 
Q 44.046875 74.21875 50.515625 64.515625 
Q 56.984375 54.828125 56.984375 36.375 
Q 56.984375 17.96875 50.515625 8.265625 
Q 44.046875 -1.421875 31.78125 -1.421875 
Q 19.53125 -1.421875 13.0625 8.265625 
Q 6.59375 17.96875 6.59375 36.375 
Q 6.59375 54.828125 13.0625 64.515625 
Q 19.53125 74.21875 31.78125 74.21875 
z
" id="DejaVuSans-48"/>
      </defs>
      <g transform="translate(51.2375 321.140875)scale(0.2 -0.2)">
       <use xlink:href="#DejaVuSans-48"/>
      </g>
     </g>
    </g>
    <g id="xtick_2">
     <g id="line2d_3">
      <path clip-path="url(#p9f07c465a6)" d="M 137.910857 298.944 
L 137.910857 3.456 
" style="fill:none;stroke:#b0b0b0;stroke-linecap:square;stroke-width:0.8;"/>
     </g>
     <g id="line2d_4">
      <g>
       <use style="stroke:#000000;stroke-width:0.8;" x="137.910857" xlink:href="#m5651a9dfd6" y="298.944"/>
      </g>
     </g>
     <g id="text_2">
      <!-- 2 -->
      <defs>
       <path d="M 19.1875 8.296875 
L 53.609375 8.296875 
L 53.609375 0 
L 7.328125 0 
L 7.328125 8.296875 
Q 12.9375 14.109375 22.625 23.890625 
Q 32.328125 33.6875 34.8125 36.53125 
Q 39.546875 41.84375 41.421875 45.53125 
Q 43.3125 49.21875 43.3125 52.78125 
Q 43.3125 58.59375 39.234375 62.25 
Q 35.15625 65.921875 28.609375 65.921875 
Q 23.96875 65.921875 18.8125 64.3125 
Q 13.671875 62.703125 7.8125 59.421875 
L 7.8125 69.390625 
Q 13.765625 71.78125 18.9375 73 
Q 24.125 74.21875 28.421875 74.21875 
Q 39.75 74.21875 46.484375 68.546875 
Q 53.21875 62.890625 53.21875 53.421875 
Q 53.21875 48.921875 51.53125 44.890625 
Q 49.859375 40.875 45.40625 35.40625 
Q 44.1875 33.984375 37.640625 27.21875 
Q 31.109375 20.453125 19.1875 8.296875 
z
" id="DejaVuSans-50"/>
      </defs>
      <g transform="translate(131.548357 321.140875)scale(0.2 -0.2)">
       <use xlink:href="#DejaVuSans-50"/>
      </g>
     </g>
    </g>
    <g id="xtick_3">
     <g id="line2d_5">
      <path clip-path="url(#p9f07c465a6)" d="M 218.221714 298.944 
L 218.221714 3.456 
" style="fill:none;stroke:#b0b0b0;stroke-linecap:square;stroke-width:0.8;"/>
     </g>
     <g id="line2d_6">
      <g>
       <use style="stroke:#000000;stroke-width:0.8;" x="218.221714" xlink:href="#m5651a9dfd6" y="298.944"/>
      </g>
     </g>
     <g id="text_3">
      <!-- 4 -->
      <defs>
       <path d="M 37.796875 64.3125 
L 12.890625 25.390625 
L 37.796875 25.390625 
z
M 35.203125 72.90625 
L 47.609375 72.90625 
L 47.609375 25.390625 
L 58.015625 25.390625 
L 58.015625 17.1875 
L 47.609375 17.1875 
L 47.609375 0 
L 37.796875 0 
L 37.796875 17.1875 
L 4.890625 17.1875 
L 4.890625 26.703125 
z
" id="DejaVuSans-52"/>
      </defs>
      <g transform="translate(211.859214 321.140875)scale(0.2 -0.2)">
       <use xlink:href="#DejaVuSans-52"/>
      </g>
     </g>
    </g>
    <g id="xtick_4">
     <g id="line2d_7">
      <path clip-path="url(#p9f07c465a6)" d="M 298.532571 298.944 
L 298.532571 3.456 
" style="fill:none;stroke:#b0b0b0;stroke-linecap:square;stroke-width:0.8;"/>
     </g>
     <g id="line2d_8">
      <g>
       <use style="stroke:#000000;stroke-width:0.8;" x="298.532571" xlink:href="#m5651a9dfd6" y="298.944"/>
      </g>
     </g>
     <g id="text_4">
      <!-- 6 -->
      <defs>
       <path d="M 33.015625 40.375 
Q 26.375 40.375 22.484375 35.828125 
Q 18.609375 31.296875 18.609375 23.390625 
Q 18.609375 15.53125 22.484375 10.953125 
Q 26.375 6.390625 33.015625 6.390625 
Q 39.65625 6.390625 43.53125 10.953125 
Q 47.40625 15.53125 47.40625 23.390625 
Q 47.40625 31.296875 43.53125 35.828125 
Q 39.65625 40.375 33.015625 40.375 
z
M 52.59375 71.296875 
L 52.59375 62.3125 
Q 48.875 64.0625 45.09375 64.984375 
Q 41.3125 65.921875 37.59375 65.921875 
Q 27.828125 65.921875 22.671875 59.328125 
Q 17.53125 52.734375 16.796875 39.40625 
Q 19.671875 43.65625 24.015625 45.921875 
Q 28.375 48.1875 33.59375 48.1875 
Q 44.578125 48.1875 50.953125 41.515625 
Q 57.328125 34.859375 57.328125 23.390625 
Q 57.328125 12.15625 50.6875 5.359375 
Q 44.046875 -1.421875 33.015625 -1.421875 
Q 20.359375 -1.421875 13.671875 8.265625 
Q 6.984375 17.96875 6.984375 36.375 
Q 6.984375 53.65625 15.1875 63.9375 
Q 23.390625 74.21875 37.203125 74.21875 
Q 40.921875 74.21875 44.703125 73.484375 
Q 48.484375 72.75 52.59375 71.296875 
z
" id="DejaVuSans-54"/>
      </defs>
      <g transform="translate(292.170071 321.140875)scale(0.2 -0.2)">
       <use xlink:href="#DejaVuSans-54"/>
      </g>
     </g>
    </g>
    <g id="xtick_5">
     <g id="line2d_9">
      <path clip-path="url(#p9f07c465a6)" d="M 97.755429 298.944 
L 97.755429 3.456 
" style="fill:none;stroke:#b0b0b0;stroke-linecap:square;stroke-width:0.8;"/>
     </g>
     <g id="line2d_10">
      <defs>
       <path d="M 0 0 
L 0 2 
" id="m93ff4c4d33" style="stroke:#000000;stroke-width:0.6;"/>
      </defs>
      <g>
       <use style="stroke:#000000;stroke-width:0.6;" x="97.755429" xlink:href="#m93ff4c4d33" y="298.944"/>
      </g>
     </g>
    </g>
    <g id="xtick_6">
     <g id="line2d_11">
      <path clip-path="url(#p9f07c465a6)" d="M 178.066286 298.944 
L 178.066286 3.456 
" style="fill:none;stroke:#b0b0b0;stroke-linecap:square;stroke-width:0.8;"/>
     </g>
     <g id="line2d_12">
      <g>
       <use style="stroke:#000000;stroke-width:0.6;" x="178.066286" xlink:href="#m93ff4c4d33" y="298.944"/>
      </g>
     </g>
    </g>
    <g id="xtick_7">
     <g id="line2d_13">
      <path clip-path="url(#p9f07c465a6)" d="M 258.377143 298.944 
L 258.377143 3.456 
" style="fill:none;stroke:#b0b0b0;stroke-linecap:square;stroke-width:0.8;"/>
     </g>
     <g id="line2d_14">
      <g>
       <use style="stroke:#000000;stroke-width:0.6;" x="258.377143" xlink:href="#m93ff4c4d33" y="298.944"/>
      </g>
     </g>
    </g>
    <g id="xtick_8">
     <g id="line2d_15">
      <path clip-path="url(#p9f07c465a6)" d="M 338.688 298.944 
L 338.688 3.456 
" style="fill:none;stroke:#b0b0b0;stroke-linecap:square;stroke-width:0.8;"/>
     </g>
     <g id="line2d_16">
      <g>
       <use style="stroke:#000000;stroke-width:0.6;" x="338.688" xlink:href="#m93ff4c4d33" y="298.944"/>
      </g>
     </g>
    </g>
    <g id="text_5">
     <!-- log10(# f-evals / dimension) -->
     <defs>
      <path d="M 9.421875 75.984375 
L 18.40625 75.984375 
L 18.40625 0 
L 9.421875 0 
z
" id="DejaVuSans-108"/>
      <path d="M 30.609375 48.390625 
Q 23.390625 48.390625 19.1875 42.75 
Q 14.984375 37.109375 14.984375 27.296875 
Q 14.984375 17.484375 19.15625 11.84375 
Q 23.34375 6.203125 30.609375 6.203125 
Q 37.796875 6.203125 41.984375 11.859375 
Q 46.1875 17.53125 46.1875 27.296875 
Q 46.1875 37.015625 41.984375 42.703125 
Q 37.796875 48.390625 30.609375 48.390625 
z
M 30.609375 56 
Q 42.328125 56 49.015625 48.375 
Q 55.71875 40.765625 55.71875 27.296875 
Q 55.71875 13.875 49.015625 6.21875 
Q 42.328125 -1.421875 30.609375 -1.421875 
Q 18.84375 -1.421875 12.171875 6.21875 
Q 5.515625 13.875 5.515625 27.296875 
Q 5.515625 40.765625 12.171875 48.375 
Q 18.84375 56 30.609375 56 
z
" id="DejaVuSans-111"/>
      <path d="M 45.40625 27.984375 
Q 45.40625 37.75 41.375 43.109375 
Q 37.359375 48.484375 30.078125 48.484375 
Q 22.859375 48.484375 18.828125 43.109375 
Q 14.796875 37.75 14.796875 27.984375 
Q 14.796875 18.265625 18.828125 12.890625 
Q 22.859375 7.515625 30.078125 7.515625 
Q 37.359375 7.515625 41.375 12.890625 
Q 45.40625 18.265625 45.40625 27.984375 
z
M 54.390625 6.78125 
Q 54.390625 -7.171875 48.1875 -13.984375 
Q 42 -20.796875 29.203125 -20.796875 
Q 24.46875 -20.796875 20.265625 -20.09375 
Q 16.0625 -19.390625 12.109375 -17.921875 
L 12.109375 -9.1875 
Q 16.0625 -11.328125 19.921875 -12.34375 
Q 23.78125 -13.375 27.78125 -13.375 
Q 36.625 -13.375 41.015625 -8.765625 
Q 45.40625 -4.15625 45.40625 5.171875 
L 45.40625 9.625 
Q 42.625 4.78125 38.28125 2.390625 
Q 33.9375 0 27.875 0 
Q 17.828125 0 11.671875 7.65625 
Q 5.515625 15.328125 5.515625 27.984375 
Q 5.515625 40.671875 11.671875 48.328125 
Q 17.828125 56 27.875 56 
Q 33.9375 56 38.28125 53.609375 
Q 42.625 51.21875 45.40625 46.390625 
L 45.40625 54.6875 
L 54.390625 54.6875 
z
" id="DejaVuSans-103"/>
      <path d="M 12.40625 8.296875 
L 28.515625 8.296875 
L 28.515625 63.921875 
L 10.984375 60.40625 
L 10.984375 69.390625 
L 28.421875 72.90625 
L 38.28125 72.90625 
L 38.28125 8.296875 
L 54.390625 8.296875 
L 54.390625 0 
L 12.40625 0 
z
" id="DejaVuSans-49"/>
      <path d="M 31 75.875 
Q 24.46875 64.65625 21.28125 53.65625 
Q 18.109375 42.671875 18.109375 31.390625 
Q 18.109375 20.125 21.3125 9.0625 
Q 24.515625 -2 31 -13.1875 
L 23.1875 -13.1875 
Q 15.875 -1.703125 12.234375 9.375 
Q 8.59375 20.453125 8.59375 31.390625 
Q 8.59375 42.28125 12.203125 53.3125 
Q 15.828125 64.359375 23.1875 75.875 
z
" id="DejaVuSans-40"/>
      <path d="M 51.125 44 
L 36.921875 44 
L 32.8125 27.6875 
L 47.125 27.6875 
z
M 43.796875 71.78125 
L 38.71875 51.515625 
L 52.984375 51.515625 
L 58.109375 71.78125 
L 65.921875 71.78125 
L 60.890625 51.515625 
L 76.125 51.515625 
L 76.125 44 
L 58.984375 44 
L 54.984375 27.6875 
L 70.515625 27.6875 
L 70.515625 20.21875 
L 53.078125 20.21875 
L 48 0 
L 40.1875 0 
L 45.21875 20.21875 
L 30.90625 20.21875 
L 25.875 0 
L 18.015625 0 
L 23.09375 20.21875 
L 7.71875 20.21875 
L 7.71875 27.6875 
L 24.90625 27.6875 
L 29 44 
L 13.28125 44 
L 13.28125 51.515625 
L 30.90625 51.515625 
L 35.890625 71.78125 
z
" id="DejaVuSans-35"/>
      <path id="DejaVuSans-32"/>
      <path d="M 37.109375 75.984375 
L 37.109375 68.5 
L 28.515625 68.5 
Q 23.6875 68.5 21.796875 66.546875 
Q 19.921875 64.59375 19.921875 59.515625 
L 19.921875 54.6875 
L 34.71875 54.6875 
L 34.71875 47.703125 
L 19.921875 47.703125 
L 19.921875 0 
L 10.890625 0 
L 10.890625 47.703125 
L 2.296875 47.703125 
L 2.296875 54.6875 
L 10.890625 54.6875 
L 10.890625 58.5 
Q 10.890625 67.625 15.140625 71.796875 
Q 19.390625 75.984375 28.609375 75.984375 
z
" id="DejaVuSans-102"/>
      <path d="M 4.890625 31.390625 
L 31.203125 31.390625 
L 31.203125 23.390625 
L 4.890625 23.390625 
z
" id="DejaVuSans-45"/>
      <path d="M 56.203125 29.59375 
L 56.203125 25.203125 
L 14.890625 25.203125 
Q 15.484375 15.921875 20.484375 11.0625 
Q 25.484375 6.203125 34.421875 6.203125 
Q 39.59375 6.203125 44.453125 7.46875 
Q 49.3125 8.734375 54.109375 11.28125 
L 54.109375 2.78125 
Q 49.265625 0.734375 44.1875 -0.34375 
Q 39.109375 -1.421875 33.890625 -1.421875 
Q 20.796875 -1.421875 13.15625 6.1875 
Q 5.515625 13.8125 5.515625 26.8125 
Q 5.515625 40.234375 12.765625 48.109375 
Q 20.015625 56 32.328125 56 
Q 43.359375 56 49.78125 48.890625 
Q 56.203125 41.796875 56.203125 29.59375 
z
M 47.21875 32.234375 
Q 47.125 39.59375 43.09375 43.984375 
Q 39.0625 48.390625 32.421875 48.390625 
Q 24.90625 48.390625 20.390625 44.140625 
Q 15.875 39.890625 15.1875 32.171875 
z
" id="DejaVuSans-101"/>
      <path d="M 2.984375 54.6875 
L 12.5 54.6875 
L 29.59375 8.796875 
L 46.6875 54.6875 
L 56.203125 54.6875 
L 35.6875 0 
L 23.484375 0 
z
" id="DejaVuSans-118"/>
      <path d="M 34.28125 27.484375 
Q 23.390625 27.484375 19.1875 25 
Q 14.984375 22.515625 14.984375 16.5 
Q 14.984375 11.71875 18.140625 8.90625 
Q 21.296875 6.109375 26.703125 6.109375 
Q 34.1875 6.109375 38.703125 11.40625 
Q 43.21875 16.703125 43.21875 25.484375 
L 43.21875 27.484375 
z
M 52.203125 31.203125 
L 52.203125 0 
L 43.21875 0 
L 43.21875 8.296875 
Q 40.140625 3.328125 35.546875 0.953125 
Q 30.953125 -1.421875 24.3125 -1.421875 
Q 15.921875 -1.421875 10.953125 3.296875 
Q 6 8.015625 6 15.921875 
Q 6 25.140625 12.171875 29.828125 
Q 18.359375 34.515625 30.609375 34.515625 
L 43.21875 34.515625 
L 43.21875 35.40625 
Q 43.21875 41.609375 39.140625 45 
Q 35.0625 48.390625 27.6875 48.390625 
Q 23 48.390625 18.546875 47.265625 
Q 14.109375 46.140625 10.015625 43.890625 
L 10.015625 52.203125 
Q 14.9375 54.109375 19.578125 55.046875 
Q 24.21875 56 28.609375 56 
Q 40.484375 56 46.34375 49.84375 
Q 52.203125 43.703125 52.203125 31.203125 
z
" id="DejaVuSans-97"/>
      <path d="M 44.28125 53.078125 
L 44.28125 44.578125 
Q 40.484375 46.53125 36.375 47.5 
Q 32.28125 48.484375 27.875 48.484375 
Q 21.1875 48.484375 17.84375 46.4375 
Q 14.5 44.390625 14.5 40.28125 
Q 14.5 37.15625 16.890625 35.375 
Q 19.28125 33.59375 26.515625 31.984375 
L 29.59375 31.296875 
Q 39.15625 29.25 43.1875 25.515625 
Q 47.21875 21.78125 47.21875 15.09375 
Q 47.21875 7.46875 41.1875 3.015625 
Q 35.15625 -1.421875 24.609375 -1.421875 
Q 20.21875 -1.421875 15.453125 -0.5625 
Q 10.6875 0.296875 5.421875 2 
L 5.421875 11.28125 
Q 10.40625 8.6875 15.234375 7.390625 
Q 20.0625 6.109375 24.8125 6.109375 
Q 31.15625 6.109375 34.5625 8.28125 
Q 37.984375 10.453125 37.984375 14.40625 
Q 37.984375 18.0625 35.515625 20.015625 
Q 33.0625 21.96875 24.703125 23.78125 
L 21.578125 24.515625 
Q 13.234375 26.265625 9.515625 29.90625 
Q 5.8125 33.546875 5.8125 39.890625 
Q 5.8125 47.609375 11.28125 51.796875 
Q 16.75 56 26.8125 56 
Q 31.78125 56 36.171875 55.265625 
Q 40.578125 54.546875 44.28125 53.078125 
z
" id="DejaVuSans-115"/>
      <path d="M 25.390625 72.90625 
L 33.6875 72.90625 
L 8.296875 -9.28125 
L 0 -9.28125 
z
" id="DejaVuSans-47"/>
      <path d="M 45.40625 46.390625 
L 45.40625 75.984375 
L 54.390625 75.984375 
L 54.390625 0 
L 45.40625 0 
L 45.40625 8.203125 
Q 42.578125 3.328125 38.25 0.953125 
Q 33.9375 -1.421875 27.875 -1.421875 
Q 17.96875 -1.421875 11.734375 6.484375 
Q 5.515625 14.40625 5.515625 27.296875 
Q 5.515625 40.1875 11.734375 48.09375 
Q 17.96875 56 27.875 56 
Q 33.9375 56 38.25 53.625 
Q 42.578125 51.265625 45.40625 46.390625 
z
M 14.796875 27.296875 
Q 14.796875 17.390625 18.875 11.75 
Q 22.953125 6.109375 30.078125 6.109375 
Q 37.203125 6.109375 41.296875 11.75 
Q 45.40625 17.390625 45.40625 27.296875 
Q 45.40625 37.203125 41.296875 42.84375 
Q 37.203125 48.484375 30.078125 48.484375 
Q 22.953125 48.484375 18.875 42.84375 
Q 14.796875 37.203125 14.796875 27.296875 
z
" id="DejaVuSans-100"/>
      <path d="M 9.421875 54.6875 
L 18.40625 54.6875 
L 18.40625 0 
L 9.421875 0 
z
M 9.421875 75.984375 
L 18.40625 75.984375 
L 18.40625 64.59375 
L 9.421875 64.59375 
z
" id="DejaVuSans-105"/>
      <path d="M 52 44.1875 
Q 55.375 50.25 60.0625 53.125 
Q 64.75 56 71.09375 56 
Q 79.640625 56 84.28125 50.015625 
Q 88.921875 44.046875 88.921875 33.015625 
L 88.921875 0 
L 79.890625 0 
L 79.890625 32.71875 
Q 79.890625 40.578125 77.09375 44.375 
Q 74.3125 48.1875 68.609375 48.1875 
Q 61.625 48.1875 57.5625 43.546875 
Q 53.515625 38.921875 53.515625 30.90625 
L 53.515625 0 
L 44.484375 0 
L 44.484375 32.71875 
Q 44.484375 40.625 41.703125 44.40625 
Q 38.921875 48.1875 33.109375 48.1875 
Q 26.21875 48.1875 22.15625 43.53125 
Q 18.109375 38.875 18.109375 30.90625 
L 18.109375 0 
L 9.078125 0 
L 9.078125 54.6875 
L 18.109375 54.6875 
L 18.109375 46.1875 
Q 21.1875 51.21875 25.484375 53.609375 
Q 29.78125 56 35.6875 56 
Q 41.65625 56 45.828125 52.96875 
Q 50 49.953125 52 44.1875 
z
" id="DejaVuSans-109"/>
      <path d="M 54.890625 33.015625 
L 54.890625 0 
L 45.90625 0 
L 45.90625 32.71875 
Q 45.90625 40.484375 42.875 44.328125 
Q 39.84375 48.1875 33.796875 48.1875 
Q 26.515625 48.1875 22.3125 43.546875 
Q 18.109375 38.921875 18.109375 30.90625 
L 18.109375 0 
L 9.078125 0 
L 9.078125 54.6875 
L 18.109375 54.6875 
L 18.109375 46.1875 
Q 21.34375 51.125 25.703125 53.5625 
Q 30.078125 56 35.796875 56 
Q 45.21875 56 50.046875 50.171875 
Q 54.890625 44.34375 54.890625 33.015625 
z
" id="DejaVuSans-110"/>
      <path d="M 8.015625 75.875 
L 15.828125 75.875 
Q 23.140625 64.359375 26.78125 53.3125 
Q 30.421875 42.28125 30.421875 31.390625 
Q 30.421875 20.453125 26.78125 9.375 
Q 23.140625 -1.703125 15.828125 -13.1875 
L 8.015625 -13.1875 
Q 14.5 -2 17.703125 9.0625 
Q 20.90625 20.125 20.90625 31.390625 
Q 20.90625 42.671875 17.703125 53.65625 
Q 14.5 64.65625 8.015625 75.875 
z
" id="DejaVuSans-41"/>
     </defs>
     <g transform="translate(77.764078 342.217594)scale(0.17 -0.17)">
      <use xlink:href="#DejaVuSans-108"/>
      <use x="27.783203" xlink:href="#DejaVuSans-111"/>
      <use x="88.964844" xlink:href="#DejaVuSans-103"/>
      <use x="152.441406" xlink:href="#DejaVuSans-49"/>
      <use x="216.064453" xlink:href="#DejaVuSans-48"/>
      <use x="279.6875" xlink:href="#DejaVuSans-40"/>
      <use x="318.701172" xlink:href="#DejaVuSans-35"/>
      <use x="402.490234" xlink:href="#DejaVuSans-32"/>
      <use x="434.277344" xlink:href="#DejaVuSans-102"/>
      <use x="463.982422" xlink:href="#DejaVuSans-45"/>
      <use x="500.066406" xlink:href="#DejaVuSans-101"/>
      <use x="561.589844" xlink:href="#DejaVuSans-118"/>
      <use x="620.769531" xlink:href="#DejaVuSans-97"/>
      <use x="682.048828" xlink:href="#DejaVuSans-108"/>
      <use x="709.832031" xlink:href="#DejaVuSans-115"/>
      <use x="761.931641" xlink:href="#DejaVuSans-32"/>
      <use x="793.71875" xlink:href="#DejaVuSans-47"/>
      <use x="827.410156" xlink:href="#DejaVuSans-32"/>
      <use x="859.197266" xlink:href="#DejaVuSans-100"/>
      <use x="922.673828" xlink:href="#DejaVuSans-105"/>
      <use x="950.457031" xlink:href="#DejaVuSans-109"/>
      <use x="1047.869141" xlink:href="#DejaVuSans-101"/>
      <use x="1109.392578" xlink:href="#DejaVuSans-110"/>
      <use x="1172.771484" xlink:href="#DejaVuSans-115"/>
      <use x="1224.871094" xlink:href="#DejaVuSans-105"/>
      <use x="1252.654297" xlink:href="#DejaVuSans-111"/>
      <use x="1313.835938" xlink:href="#DejaVuSans-110"/>
      <use x="1377.214844" xlink:href="#DejaVuSans-41"/>
     </g>
    </g>
   </g>
   <g id="matplotlib.axis_2">
    <g id="ytick_1">
     <g id="line2d_17">
      <path clip-path="url(#p9f07c465a6)" d="M 57.6 298.944 
L 338.688 298.944 
" style="fill:none;stroke:#b0b0b0;stroke-linecap:square;stroke-width:0.8;"/>
     </g>
     <g id="line2d_18">
      <defs>
       <path d="M 0 0 
L -3.5 0 
" id="m0424b94f3c" style="stroke:#000000;stroke-width:0.8;"/>
      </defs>
      <g>
       <use style="stroke:#000000;stroke-width:0.8;" x="57.6" xlink:href="#m0424b94f3c" y="298.944"/>
      </g>
     </g>
     <g id="text_6">
      <!-- 0.0 -->
      <defs>
       <path d="M 10.6875 12.40625 
L 21 12.40625 
L 21 0 
L 10.6875 0 
z
" id="DejaVuSans-46"/>
      </defs>
      <g transform="translate(25.155 305.02275)scale(0.16 -0.16)">
       <use xlink:href="#DejaVuSans-48"/>
       <use x="63.623047" xlink:href="#DejaVuSans-46"/>
       <use x="95.410156" xlink:href="#DejaVuSans-48"/>
      </g>
     </g>
    </g>
    <g id="ytick_2">
     <g id="line2d_19">
      <path clip-path="url(#p9f07c465a6)" d="M 57.6 240.431525 
L 338.688 240.431525 
" style="fill:none;stroke:#b0b0b0;stroke-linecap:square;stroke-width:0.8;"/>
     </g>
     <g id="line2d_20">
      <g>
       <use style="stroke:#000000;stroke-width:0.8;" x="57.6" xlink:href="#m0424b94f3c" y="240.431525"/>
      </g>
     </g>
     <g id="text_7">
      <!-- 0.2 -->
      <g transform="translate(25.155 246.510275)scale(0.16 -0.16)">
       <use xlink:href="#DejaVuSans-48"/>
       <use x="63.623047" xlink:href="#DejaVuSans-46"/>
       <use x="95.410156" xlink:href="#DejaVuSans-50"/>
      </g>
     </g>
    </g>
    <g id="ytick_3">
     <g id="line2d_21">
      <path clip-path="url(#p9f07c465a6)" d="M 57.6 181.91905 
L 338.688 181.91905 
" style="fill:none;stroke:#b0b0b0;stroke-linecap:square;stroke-width:0.8;"/>
     </g>
     <g id="line2d_22">
      <g>
       <use style="stroke:#000000;stroke-width:0.8;" x="57.6" xlink:href="#m0424b94f3c" y="181.91905"/>
      </g>
     </g>
     <g id="text_8">
      <!-- 0.4 -->
      <g transform="translate(25.155 187.9978)scale(0.16 -0.16)">
       <use xlink:href="#DejaVuSans-48"/>
       <use x="63.623047" xlink:href="#DejaVuSans-46"/>
       <use x="95.410156" xlink:href="#DejaVuSans-52"/>
      </g>
     </g>
    </g>
    <g id="ytick_4">
     <g id="line2d_23">
      <path clip-path="url(#p9f07c465a6)" d="M 57.6 123.406574 
L 338.688 123.406574 
" style="fill:none;stroke:#b0b0b0;stroke-linecap:square;stroke-width:0.8;"/>
     </g>
     <g id="line2d_24">
      <g>
       <use style="stroke:#000000;stroke-width:0.8;" x="57.6" xlink:href="#m0424b94f3c" y="123.406574"/>
      </g>
     </g>
     <g id="text_9">
      <!-- 0.6 -->
      <g transform="translate(25.155 129.485324)scale(0.16 -0.16)">
       <use xlink:href="#DejaVuSans-48"/>
       <use x="63.623047" xlink:href="#DejaVuSans-46"/>
       <use x="95.410156" xlink:href="#DejaVuSans-54"/>
      </g>
     </g>
    </g>
    <g id="ytick_5">
     <g id="line2d_25">
      <path clip-path="url(#p9f07c465a6)" d="M 57.6 64.894099 
L 338.688 64.894099 
" style="fill:none;stroke:#b0b0b0;stroke-linecap:square;stroke-width:0.8;"/>
     </g>
     <g id="line2d_26">
      <g>
       <use style="stroke:#000000;stroke-width:0.8;" x="57.6" xlink:href="#m0424b94f3c" y="64.894099"/>
      </g>
     </g>
     <g id="text_10">
      <!-- 0.8 -->
      <defs>
       <path d="M 31.78125 34.625 
Q 24.75 34.625 20.71875 30.859375 
Q 16.703125 27.09375 16.703125 20.515625 
Q 16.703125 13.921875 20.71875 10.15625 
Q 24.75 6.390625 31.78125 6.390625 
Q 38.8125 6.390625 42.859375 10.171875 
Q 46.921875 13.96875 46.921875 20.515625 
Q 46.921875 27.09375 42.890625 30.859375 
Q 38.875 34.625 31.78125 34.625 
z
M 21.921875 38.8125 
Q 15.578125 40.375 12.03125 44.71875 
Q 8.5 49.078125 8.5 55.328125 
Q 8.5 64.0625 14.71875 69.140625 
Q 20.953125 74.21875 31.78125 74.21875 
Q 42.671875 74.21875 48.875 69.140625 
Q 55.078125 64.0625 55.078125 55.328125 
Q 55.078125 49.078125 51.53125 44.71875 
Q 48 40.375 41.703125 38.8125 
Q 48.828125 37.15625 52.796875 32.3125 
Q 56.78125 27.484375 56.78125 20.515625 
Q 56.78125 9.90625 50.3125 4.234375 
Q 43.84375 -1.421875 31.78125 -1.421875 
Q 19.734375 -1.421875 13.25 4.234375 
Q 6.78125 9.90625 6.78125 20.515625 
Q 6.78125 27.484375 10.78125 32.3125 
Q 14.796875 37.15625 21.921875 38.8125 
z
M 18.3125 54.390625 
Q 18.3125 48.734375 21.84375 45.5625 
Q 25.390625 42.390625 31.78125 42.390625 
Q 38.140625 42.390625 41.71875 45.5625 
Q 45.3125 48.734375 45.3125 54.390625 
Q 45.3125 60.0625 41.71875 63.234375 
Q 38.140625 66.40625 31.78125 66.40625 
Q 25.390625 66.40625 21.84375 63.234375 
Q 18.3125 60.0625 18.3125 54.390625 
z
" id="DejaVuSans-56"/>
      </defs>
      <g transform="translate(25.155 70.972849)scale(0.16 -0.16)">
       <use xlink:href="#DejaVuSans-48"/>
       <use x="63.623047" xlink:href="#DejaVuSans-46"/>
       <use x="95.410156" xlink:href="#DejaVuSans-56"/>
      </g>
     </g>
    </g>
    <g id="ytick_6">
     <g id="line2d_27">
      <path clip-path="url(#p9f07c465a6)" d="M 57.6 6.381624 
L 338.688 6.381624 
" style="fill:none;stroke:#b0b0b0;stroke-linecap:square;stroke-width:0.8;"/>
     </g>
     <g id="line2d_28">
      <g>
       <use style="stroke:#000000;stroke-width:0.8;" x="57.6" xlink:href="#m0424b94f3c" y="6.381624"/>
      </g>
     </g>
     <g id="text_11">
      <!-- 1.0 -->
      <g transform="translate(25.155 12.460374)scale(0.16 -0.16)">
       <use xlink:href="#DejaVuSans-49"/>
       <use x="63.623047" xlink:href="#DejaVuSans-46"/>
       <use x="95.410156" xlink:href="#DejaVuSans-48"/>
      </g>
     </g>
    </g>
    <g id="text_12">
     <!-- Fraction of function,target pairs -->
     <defs>
      <path d="M 9.8125 72.90625 
L 51.703125 72.90625 
L 51.703125 64.59375 
L 19.671875 64.59375 
L 19.671875 43.109375 
L 48.578125 43.109375 
L 48.578125 34.8125 
L 19.671875 34.8125 
L 19.671875 0 
L 9.8125 0 
z
" id="DejaVuSans-70"/>
      <path d="M 41.109375 46.296875 
Q 39.59375 47.171875 37.8125 47.578125 
Q 36.03125 48 33.890625 48 
Q 26.265625 48 22.1875 43.046875 
Q 18.109375 38.09375 18.109375 28.8125 
L 18.109375 0 
L 9.078125 0 
L 9.078125 54.6875 
L 18.109375 54.6875 
L 18.109375 46.1875 
Q 20.953125 51.171875 25.484375 53.578125 
Q 30.03125 56 36.53125 56 
Q 37.453125 56 38.578125 55.875 
Q 39.703125 55.765625 41.0625 55.515625 
z
" id="DejaVuSans-114"/>
      <path d="M 48.78125 52.59375 
L 48.78125 44.1875 
Q 44.96875 46.296875 41.140625 47.34375 
Q 37.3125 48.390625 33.40625 48.390625 
Q 24.65625 48.390625 19.8125 42.84375 
Q 14.984375 37.3125 14.984375 27.296875 
Q 14.984375 17.28125 19.8125 11.734375 
Q 24.65625 6.203125 33.40625 6.203125 
Q 37.3125 6.203125 41.140625 7.25 
Q 44.96875 8.296875 48.78125 10.40625 
L 48.78125 2.09375 
Q 45.015625 0.34375 40.984375 -0.53125 
Q 36.96875 -1.421875 32.421875 -1.421875 
Q 20.0625 -1.421875 12.78125 6.34375 
Q 5.515625 14.109375 5.515625 27.296875 
Q 5.515625 40.671875 12.859375 48.328125 
Q 20.21875 56 33.015625 56 
Q 37.15625 56 41.109375 55.140625 
Q 45.0625 54.296875 48.78125 52.59375 
z
" id="DejaVuSans-99"/>
      <path d="M 18.3125 70.21875 
L 18.3125 54.6875 
L 36.8125 54.6875 
L 36.8125 47.703125 
L 18.3125 47.703125 
L 18.3125 18.015625 
Q 18.3125 11.328125 20.140625 9.421875 
Q 21.96875 7.515625 27.59375 7.515625 
L 36.8125 7.515625 
L 36.8125 0 
L 27.59375 0 
Q 17.1875 0 13.234375 3.875 
Q 9.28125 7.765625 9.28125 18.015625 
L 9.28125 47.703125 
L 2.6875 47.703125 
L 2.6875 54.6875 
L 9.28125 54.6875 
L 9.28125 70.21875 
z
" id="DejaVuSans-116"/>
      <path d="M 8.5 21.578125 
L 8.5 54.6875 
L 17.484375 54.6875 
L 17.484375 21.921875 
Q 17.484375 14.15625 20.5 10.265625 
Q 23.53125 6.390625 29.59375 6.390625 
Q 36.859375 6.390625 41.078125 11.03125 
Q 45.3125 15.671875 45.3125 23.6875 
L 45.3125 54.6875 
L 54.296875 54.6875 
L 54.296875 0 
L 45.3125 0 
L 45.3125 8.40625 
Q 42.046875 3.421875 37.71875 1 
Q 33.40625 -1.421875 27.6875 -1.421875 
Q 18.265625 -1.421875 13.375 4.4375 
Q 8.5 10.296875 8.5 21.578125 
z
M 31.109375 56 
z
" id="DejaVuSans-117"/>
      <path d="M 11.71875 12.40625 
L 22.015625 12.40625 
L 22.015625 4 
L 14.015625 -11.625 
L 7.71875 -11.625 
L 11.71875 4 
z
" id="DejaVuSans-44"/>
      <path d="M 18.109375 8.203125 
L 18.109375 -20.796875 
L 9.078125 -20.796875 
L 9.078125 54.6875 
L 18.109375 54.6875 
L 18.109375 46.390625 
Q 20.953125 51.265625 25.265625 53.625 
Q 29.59375 56 35.59375 56 
Q 45.5625 56 51.78125 48.09375 
Q 58.015625 40.1875 58.015625 27.296875 
Q 58.015625 14.40625 51.78125 6.484375 
Q 45.5625 -1.421875 35.59375 -1.421875 
Q 29.59375 -1.421875 25.265625 0.953125 
Q 20.953125 3.328125 18.109375 8.203125 
z
M 48.6875 27.296875 
Q 48.6875 37.203125 44.609375 42.84375 
Q 40.53125 48.484375 33.40625 48.484375 
Q 26.265625 48.484375 22.1875 42.84375 
Q 18.109375 37.203125 18.109375 27.296875 
Q 18.109375 17.390625 22.1875 11.75 
Q 26.265625 6.109375 33.40625 6.109375 
Q 40.53125 6.109375 44.609375 11.75 
Q 48.6875 17.390625 48.6875 27.296875 
z
" id="DejaVuSans-112"/>
     </defs>
     <g transform="translate(17.619531 285.585)rotate(-90)scale(0.17 -0.17)">
      <use xlink:href="#DejaVuSans-70"/>
      <use x="50.269531" xlink:href="#DejaVuSans-114"/>
      <use x="91.382812" xlink:href="#DejaVuSans-97"/>
      <use x="152.662109" xlink:href="#DejaVuSans-99"/>
      <use x="207.642578" xlink:href="#DejaVuSans-116"/>
      <use x="246.851562" xlink:href="#DejaVuSans-105"/>
      <use x="274.634766" xlink:href="#DejaVuSans-111"/>
      <use x="335.816406" xlink:href="#DejaVuSans-110"/>
      <use x="399.195312" xlink:href="#DejaVuSans-32"/>
      <use x="430.982422" xlink:href="#DejaVuSans-111"/>
      <use x="492.164062" xlink:href="#DejaVuSans-102"/>
      <use x="527.369141" xlink:href="#DejaVuSans-32"/>
      <use x="559.15625" xlink:href="#DejaVuSans-102"/>
      <use x="594.361328" xlink:href="#DejaVuSans-117"/>
      <use x="657.740234" xlink:href="#DejaVuSans-110"/>
      <use x="721.119141" xlink:href="#DejaVuSans-99"/>
      <use x="776.099609" xlink:href="#DejaVuSans-116"/>
      <use x="815.308594" xlink:href="#DejaVuSans-105"/>
      <use x="843.091797" xlink:href="#DejaVuSans-111"/>
      <use x="904.273438" xlink:href="#DejaVuSans-110"/>
      <use x="967.652344" xlink:href="#DejaVuSans-44"/>
      <use x="999.439453" xlink:href="#DejaVuSans-116"/>
      <use x="1038.648438" xlink:href="#DejaVuSans-97"/>
      <use x="1099.927734" xlink:href="#DejaVuSans-114"/>
      <use x="1139.291016" xlink:href="#DejaVuSans-103"/>
      <use x="1202.767578" xlink:href="#DejaVuSans-101"/>
      <use x="1264.291016" xlink:href="#DejaVuSans-116"/>
      <use x="1303.5" xlink:href="#DejaVuSans-32"/>
      <use x="1335.287109" xlink:href="#DejaVuSans-112"/>
      <use x="1398.763672" xlink:href="#DejaVuSans-97"/>
      <use x="1460.042969" xlink:href="#DejaVuSans-105"/>
      <use x="1487.826172" xlink:href="#DejaVuSans-114"/>
      <use x="1528.939453" xlink:href="#DejaVuSans-115"/>
     </g>
    </g>
   </g>
   <g id="line2d_29">
    <defs>
     <path d="M 0 1.5 
C 0.397805 1.5 0.77937 1.341951 1.06066 1.06066 
C 1.341951 0.77937 1.5 0.397805 1.5 0 
C 1.5 -0.397805 1.341951 -0.77937 1.06066 -1.06066 
C 0.77937 -1.341951 0.397805 -1.5 0 -1.5 
C -0.397805 -1.5 -0.77937 -1.341951 -1.06066 -1.06066 
C -1.341951 -0.77937 -1.5 -0.397805 -1.5 0 
C -1.5 0.397805 -1.341951 0.77937 -1.06066 1.06066 
C -0.77937 1.341951 -0.397805 1.5 0 1.5 
z
" id="m7a0612d258" style="stroke:#000080;"/>
    </defs>
    <g>
     <use style="fill:#000080;stroke:#000080;" x="131.814826" xlink:href="#m7a0612d258" y="6.381624"/>
     <use style="fill:#000080;stroke:#000080;" x="131.814826" xlink:href="#m7a0612d258" y="6.381624"/>
    </g>
   </g>
   <g id="line2d_30">
    <path d="M 45.512012 298.944 
L 45.512012 263.951245 
L 97.755429 263.951245 
L 97.755429 263.377593 
L 100.192776 263.377593 
L 100.192776 262.803942 
L 102.989037 262.803942 
L 102.989037 262.23029 
L 104.23523 262.23029 
L 104.23523 261.082987 
L 104.826449 261.082987 
L 104.826449 259.362031 
L 105.398279 259.362031 
L 105.398279 257.641076 
L 105.951954 257.641076 
L 105.951954 256.493773 
L 106.48859 256.493773 
L 106.48859 255.920121 
L 107.009204 255.920121 
L 107.009204 254.199166 
L 107.514726 254.199166 
L 107.514726 248.462649 
L 108.006005 248.462649 
L 108.006005 243.299783 
L 108.483824 243.299783 
L 108.483824 240.431525 
L 108.948899 240.431525 
L 108.948899 232.400401 
L 109.843417 232.400401 
L 109.843417 231.253097 
L 111.505558 231.253097 
L 111.505558 227.811187 
L 111.897469 227.811187 
L 111.897469 227.237535 
L 112.655818 227.237535 
L 112.655818 226.663884 
L 114.080224 226.663884 
L 114.080224 224.369277 
L 114.751048 224.369277 
L 114.751048 223.795625 
L 115.077025 223.795625 
L 115.077025 223.221973 
L 117.202696 223.221973 
L 117.202696 222.07467 
L 118.310324 222.07467 
L 118.310324 221.501018 
L 118.838828 221.501018 
L 118.838828 219.206411 
L 119.097192 219.206411 
L 119.097192 218.059108 
L 119.351785 218.059108 
L 119.351785 214.617197 
L 119.602714 214.617197 
L 119.602714 212.322591 
L 119.850084 212.322591 
L 119.850084 207.733377 
L 120.33454 207.733377 
L 120.33454 204.865118 
L 120.571812 204.865118 
L 120.571812 204.291467 
L 120.8059 204.291467 
L 120.8059 201.99686 
L 121.036887 201.99686 
L 121.036887 200.275904 
L 121.264855 200.275904 
L 121.264855 198.554949 
L 121.489881 198.554949 
L 121.489881 194.539387 
L 121.712041 194.539387 
L 121.712041 188.229218 
L 121.931406 188.229218 
L 121.931406 185.934612 
L 122.148045 185.934612 
L 122.148045 180.771746 
L 122.362027 180.771746 
L 122.362027 178.477139 
L 122.573415 178.477139 
L 122.573415 177.329836 
L 122.782271 177.329836 
L 122.782271 175.035229 
L 122.988655 175.035229 
L 122.988655 169.298712 
L 123.192626 169.298712 
L 123.192626 162.414891 
L 123.394238 162.414891 
L 123.394238 158.399329 
L 123.593547 158.399329 
L 123.593547 154.383767 
L 123.790603 154.383767 
L 123.790603 152.08916 
L 123.985457 152.08916 
L 123.985457 151.515508 
L 124.178158 151.515508 
L 124.178158 149.220902 
L 124.368753 149.220902 
L 124.368753 141.763429 
L 124.557288 141.763429 
L 124.557288 136.600564 
L 124.743806 136.600564 
L 124.743806 125.127529 
L 124.92835 125.127529 
L 124.92835 122.259271 
L 125.110962 122.259271 
L 125.110962 121.111967 
L 125.291682 121.111967 
L 125.291682 119.391012 
L 125.470548 119.391012 
L 125.470548 113.654495 
L 125.647598 113.654495 
L 125.647598 107.344326 
L 125.822869 107.344326 
L 125.822869 103.328764 
L 125.996395 103.328764 
L 125.996395 95.29764 
L 126.168212 95.29764 
L 126.168212 93.576685 
L 126.338353 93.576685 
L 126.338353 89.561123 
L 126.50685 89.561123 
L 126.50685 87.266516 
L 126.673734 87.266516 
L 126.673734 83.250954 
L 126.839037 83.250954 
L 126.839037 81.529999 
L 127.002787 81.529999 
L 127.002787 77.514437 
L 127.165014 77.514437 
L 127.165014 75.793482 
L 127.325746 75.793482 
L 127.325746 70.630616 
L 127.48501 70.630616 
L 127.48501 64.894099 
L 127.799239 64.894099 
L 127.799239 58.58393 
L 127.954256 58.58393 
L 127.954256 57.436627 
L 128.107907 57.436627 
L 128.107907 55.14202 
L 128.260216 55.14202 
L 128.260216 53.994716 
L 128.411207 53.994716 
L 128.411207 49.979154 
L 128.560901 49.979154 
L 128.560901 46.537244 
L 128.709321 46.537244 
L 128.709321 41.94803 
L 128.856489 41.94803 
L 128.856489 41.374379 
L 129.002426 41.374379 
L 129.002426 38.50612 
L 129.147151 38.50612 
L 129.147151 37.932468 
L 129.290685 37.932468 
L 129.290685 33.343255 
L 129.433047 33.343255 
L 129.433047 25.885782 
L 129.714332 25.885782 
L 129.714332 23.591175 
L 129.853291 23.591175 
L 129.853291 21.296568 
L 129.991152 21.296568 
L 129.991152 20.149265 
L 130.263646 20.149265 
L 130.263646 17.281006 
L 130.398313 17.281006 
L 130.398313 14.9864 
L 130.531948 14.9864 
L 130.531948 13.839096 
L 130.664567 13.839096 
L 130.664567 12.691793 
L 130.796184 12.691793 
L 130.796184 12.118141 
L 130.926816 12.118141 
L 130.926816 11.544489 
L 131.056477 11.544489 
L 131.056477 10.970838 
L 131.312942 10.970838 
L 131.312942 8.676231 
L 131.565689 8.676231 
L 131.565689 8.102579 
L 131.814826 8.102579 
L 131.814826 6.381624 
L 338.688 6.381624 
L 338.688 6.381624 
" style="fill:none;stroke:#000080;stroke-linecap:square;stroke-width:1.5;"/>
   </g>
   <g id="line2d_31">
    <defs>
     <path d="M 0 6 
C 1.591219 6 3.117479 5.367802 4.242641 4.242641 
C 5.367802 3.117479 6 1.591219 6 0 
C 6 -1.591219 5.367802 -3.117479 4.242641 -4.242641 
C 3.117479 -5.367802 1.591219 -6 0 -6 
C -1.591219 -6 -3.117479 -5.367802 -4.242641 -4.242641 
C -5.367802 -3.117479 -6 -1.591219 -6 0 
C -6 1.591219 -5.367802 3.117479 -4.242641 4.242641 
C -3.117479 5.367802 -1.591219 6 0 6 
z
" id="m311eefecc8" style="stroke:#000080;stroke-width:1.5;"/>
    </defs>
    <g>
     <use style="fill-opacity:0;stroke:#000080;stroke-width:1.5;" x="121.931406" xlink:href="#m311eefecc8" y="188.229218"/>
     <use style="fill-opacity:0;stroke:#000080;stroke-width:1.5;" x="127.799239" xlink:href="#m311eefecc8" y="64.894099"/>
     <use style="fill-opacity:0;stroke:#000080;stroke-width:1.5;" x="131.814826" xlink:href="#m311eefecc8" y="8.102579"/>
     <use style="fill-opacity:0;stroke:#000080;stroke-width:1.5;" x="131.814826" xlink:href="#m311eefecc8" y="6.381624"/>
     <use style="fill-opacity:0;stroke:#000080;stroke-width:1.5;" x="131.814826" xlink:href="#m311eefecc8" y="6.381624"/>
     <use style="fill-opacity:0;stroke:#000080;stroke-width:1.5;" x="338.688" xlink:href="#m311eefecc8" y="6.381624"/>
    </g>
   </g>
   <g id="line2d_32">
    <path style="fill:none;stroke:#000080;stroke-linecap:square;stroke-width:1.5;"/>
    <g/>
   </g>
   <g id="line2d_33">
    <defs>
     <path d="M 0 1.5 
C 0.397805 1.5 0.77937 1.341951 1.06066 1.06066 
C 1.341951 0.77937 1.5 0.397805 1.5 0 
C 1.5 -0.397805 1.341951 -0.77937 1.06066 -1.06066 
C 0.77937 -1.341951 0.397805 -1.5 0 -1.5 
C -0.397805 -1.5 -0.77937 -1.341951 -1.06066 -1.06066 
C -1.341951 -0.77937 -1.5 -0.397805 -1.5 0 
C -1.5 0.397805 -1.341951 0.77937 -1.06066 1.06066 
C -0.77937 1.341951 -0.397805 1.5 0 1.5 
z
" id="ma325e09b4c" style="stroke:#ff00ff;"/>
    </defs>
    <g>
     <use style="fill:#ff00ff;stroke:#ff00ff;" x="147.419225" xlink:href="#ma325e09b4c" y="6.381624"/>
     <use style="fill:#ff00ff;stroke:#ff00ff;" x="147.419225" xlink:href="#ma325e09b4c" y="6.381624"/>
    </g>
   </g>
   <g id="line2d_34">
    <path d="M 103.623262 298.944 
L 103.623262 294.928438 
L 105.951954 294.928438 
L 105.951954 294.354786 
L 106.48859 294.354786 
L 106.48859 292.060179 
L 107.514726 292.060179 
L 107.514726 290.912876 
L 110.274038 290.912876 
L 110.274038 289.765573 
L 110.694282 289.765573 
L 110.694282 289.191921 
L 111.104637 289.191921 
L 111.104637 284.602707 
L 111.897469 284.602707 
L 111.897469 283.455404 
L 113.022974 283.455404 
L 113.022974 282.881752 
L 113.73488 282.881752 
L 113.73488 281.734448 
L 114.418861 281.734448 
L 114.418861 278.86619 
L 114.751048 278.86619 
L 114.751048 275.42428 
L 115.077025 275.42428 
L 115.077025 271.982369 
L 115.397021 271.982369 
L 115.397021 270.261414 
L 115.711251 270.261414 
L 115.711251 269.687762 
L 116.019919 269.687762 
L 116.019919 268.540459 
L 116.323218 268.540459 
L 116.323218 258.214728 
L 116.621333 258.214728 
L 116.621333 256.493773 
L 117.202696 256.493773 
L 117.202696 253.625514 
L 117.486268 253.625514 
L 117.486268 250.757256 
L 117.765302 250.757256 
L 117.765302 247.888997 
L 118.310324 247.888997 
L 118.310324 242.15248 
L 118.838828 242.15248 
L 118.838828 241.578828 
L 119.097192 241.578828 
L 119.097192 240.431525 
L 119.351785 240.431525 
L 119.351785 239.857873 
L 119.602714 239.857873 
L 119.602714 238.71057 
L 120.093994 238.71057 
L 120.093994 237.563266 
L 120.571812 237.563266 
L 120.571812 236.989614 
L 121.036887 236.989614 
L 121.036887 236.415963 
L 124.92835 236.415963 
L 124.92835 235.842311 
L 125.291682 235.842311 
L 125.291682 235.268659 
L 125.647598 235.268659 
L 125.647598 234.121356 
L 126.168212 234.121356 
L 126.168212 232.974052 
L 126.338353 232.974052 
L 126.338353 232.400401 
L 126.50685 232.400401 
L 126.50685 231.826749 
L 127.002787 231.826749 
L 127.002787 230.679446 
L 127.165014 230.679446 
L 127.165014 226.663884 
L 127.325746 226.663884 
L 127.325746 226.090232 
L 127.48501 226.090232 
L 127.48501 224.369277 
L 127.642832 224.369277 
L 127.642832 220.353715 
L 127.799239 220.353715 
L 127.799239 216.911804 
L 127.954256 216.911804 
L 127.954256 215.190849 
L 128.107907 215.190849 
L 128.107907 210.601635 
L 128.260216 210.601635 
L 128.260216 208.307029 
L 128.411207 208.307029 
L 128.411207 207.159725 
L 128.560901 207.159725 
L 128.560901 203.717815 
L 128.709321 203.717815 
L 128.709321 201.99686 
L 128.856489 201.99686 
L 128.856489 200.849556 
L 129.002426 200.849556 
L 129.002426 199.702253 
L 129.147151 199.702253 
L 129.147151 198.554949 
L 129.290685 198.554949 
L 129.290685 192.24478 
L 129.433047 192.24478 
L 129.433047 189.950174 
L 129.574256 189.950174 
L 129.574256 187.081915 
L 129.714332 187.081915 
L 129.714332 182.492701 
L 129.853291 182.492701 
L 129.853291 181.345398 
L 129.991152 181.345398 
L 129.991152 179.624443 
L 130.127931 179.624443 
L 130.127931 175.608881 
L 130.263646 175.608881 
L 130.263646 169.872363 
L 130.398313 169.872363 
L 130.398313 168.151408 
L 130.531948 168.151408 
L 130.531948 162.988543 
L 130.664567 162.988543 
L 130.664567 159.546632 
L 130.796184 159.546632 
L 130.796184 158.972981 
L 130.926816 158.972981 
L 130.926816 154.957419 
L 131.056477 154.957419 
L 131.056477 152.08916 
L 131.185181 152.08916 
L 131.185181 147.499946 
L 131.312942 147.499946 
L 131.312942 142.910733 
L 131.439773 142.910733 
L 131.439773 137.174215 
L 131.565689 137.174215 
L 131.565689 133.158653 
L 131.690703 133.158653 
L 131.690703 130.290395 
L 131.814826 130.290395 
L 131.814826 127.422136 
L 131.938072 127.422136 
L 131.938072 122.832923 
L 132.181982 122.832923 
L 132.181982 118.817361 
L 132.30267 118.817361 
L 132.30267 115.37545 
L 132.422528 115.37545 
L 132.422528 107.917978 
L 132.541568 107.917978 
L 132.541568 103.902416 
L 132.659801 103.902416 
L 132.659801 99.886854 
L 132.777237 99.886854 
L 132.777237 95.871292 
L 132.893889 95.871292 
L 132.893889 91.85573 
L 133.009765 91.85573 
L 133.009765 90.708426 
L 133.124876 90.708426 
L 133.124876 87.266516 
L 133.239232 87.266516 
L 133.239232 84.971909 
L 133.352844 84.971909 
L 133.352844 82.677302 
L 133.46572 82.677302 
L 133.46572 79.235392 
L 133.57787 79.235392 
L 133.57787 75.793482 
L 133.689303 75.793482 
L 133.800029 69.483313 
L 133.910056 69.483313 
L 134.019394 64.320447 
L 134.12805 64.320447 
L 134.236034 60.304885 
L 134.343353 60.304885 
L 134.450015 57.436627 
L 134.55603 57.436627 
L 134.661403 51.126458 
L 134.766144 51.126458 
L 134.870259 47.684547 
L 134.973757 47.684547 
L 135.076644 44.242637 
L 135.178927 44.242637 
L 135.178927 43.095334 
L 135.381712 43.095334 
L 135.482227 37.932468 
L 135.681535 37.932468 
L 135.780341 35.637861 
L 135.878591 35.637861 
L 135.878591 33.343255 
L 136.073445 33.343255 
L 136.170062 31.048648 
L 136.456742 31.048648 
L 136.551264 29.327692 
L 136.738785 29.327692 
L 136.831795 27.033086 
L 136.924311 27.033086 
L 136.924311 26.459434 
L 137.107884 26.459434 
L 137.107884 25.885782 
L 137.37967 25.885782 
L 137.37967 25.31213 
L 137.558536 25.31213 
L 137.647286 23.017524 
L 137.910857 23.017524 
L 137.997836 21.296568 
L 138.084384 21.296568 
L 138.084384 19.575613 
L 140.11924 19.575613 
L 140.11924 16.707355 
L 141.017599 16.707355 
L 141.017599 16.133703 
L 141.307054 16.133703 
L 141.307054 15.560051 
L 142.010346 15.560051 
L 142.010346 11.544489 
L 142.884173 11.544489 
L 142.884173 10.970838 
L 143.014805 10.970838 
L 143.079756 8.676231 
L 143.527762 8.676231 
L 143.527762 8.102579 
L 145.609873 8.102579 
L 145.609873 7.528927 
L 147.266916 7.528927 
L 147.266916 6.955275 
L 147.419225 6.955275 
L 147.419225 6.381624 
L 338.688 6.381624 
L 338.688 6.381624 
" style="fill:none;stroke:#ff00ff;stroke-linecap:square;stroke-width:1.5;"/>
   </g>
   <g id="line2d_35">
    <defs>
     <path d="M -0 8.485281 
L 5.091169 0 
L 0 -8.485281 
L -5.091169 -0 
z
" id="m1e0dfe5177" style="stroke:#ff00ff;stroke-linejoin:miter;stroke-width:1.5;"/>
    </defs>
    <g>
     <use style="fill-opacity:0;stroke:#ff00ff;stroke-linejoin:miter;stroke-width:1.5;" x="131.690703" xlink:href="#m1e0dfe5177" y="130.290395"/>
     <use style="fill-opacity:0;stroke:#ff00ff;stroke-linejoin:miter;stroke-width:1.5;" x="147.419225" xlink:href="#m1e0dfe5177" y="6.955275"/>
     <use style="fill-opacity:0;stroke:#ff00ff;stroke-linejoin:miter;stroke-width:1.5;" x="147.419225" xlink:href="#m1e0dfe5177" y="6.381624"/>
     <use style="fill-opacity:0;stroke:#ff00ff;stroke-linejoin:miter;stroke-width:1.5;" x="147.419225" xlink:href="#m1e0dfe5177" y="6.381624"/>
     <use style="fill-opacity:0;stroke:#ff00ff;stroke-linejoin:miter;stroke-width:1.5;" x="338.688" xlink:href="#m1e0dfe5177" y="6.381624"/>
    </g>
   </g>
   <g id="line2d_36">
    <path style="fill:none;stroke:#ff00ff;stroke-linecap:square;stroke-width:1.5;"/>
    <g/>
   </g>
   <g id="line2d_37">
    <path clip-path="url(#p9f07c465a6)" d="M 134.236034 60.304885 
" style="fill:none;stroke:#ff00ff;stroke-linecap:square;stroke-width:1.5;"/>
    <defs>
     <path d="M -12 12 
L 12 -12 
M -12 -12 
L 12 12 
" id="mdc7fed7eef" style="stroke:#ff00ff;"/>
    </defs>
    <g clip-path="url(#p9f07c465a6)">
     <use style="fill:#ff00ff;stroke:#ff00ff;" x="134.236034" xlink:href="#mdc7fed7eef" y="60.304885"/>
    </g>
   </g>
   <g id="line2d_38">
    <defs>
     <path d="M 0 1.5 
C 0.397805 1.5 0.77937 1.341951 1.06066 1.06066 
C 1.341951 0.77937 1.5 0.397805 1.5 0 
C 1.5 -0.397805 1.341951 -0.77937 1.06066 -1.06066 
C 0.77937 -1.341951 0.397805 -1.5 0 -1.5 
C -0.397805 -1.5 -0.77937 -1.341951 -1.06066 -1.06066 
C -1.341951 -0.77937 -1.5 -0.397805 -1.5 0 
C -1.5 0.397805 -1.341951 0.77937 -1.06066 1.06066 
C -0.77937 1.341951 -0.397805 1.5 0 1.5 
z
" id="m4b03a256be" style="stroke:#ffa500;"/>
    </defs>
    <g>
     <use style="fill:#ffa500;stroke:#ffa500;" x="228.184113" xlink:href="#m4b03a256be" y="52.273761"/>
     <use style="fill:#ffa500;stroke:#ffa500;" x="228.184113" xlink:href="#m4b03a256be" y="52.273761"/>
    </g>
   </g>
   <g id="line2d_39">
    <path d="M 45.512012 298.944 
L 45.512012 286.323662 
L 92.73846 286.323662 
L 92.73846 285.75001 
L 94.921215 285.75001 
L 94.921215 285.176359 
L 100.934985 285.176359 
L 100.934985 284.602707 
L 102.989037 284.602707 
L 102.989037 283.455404 
L 104.826449 283.455404 
L 104.826449 282.3081 
L 110.274038 282.3081 
L 110.274038 281.734448 
L 111.104637 281.734448 
L 111.104637 281.160797 
L 112.280765 281.160797 
L 112.280765 280.587145 
L 114.080224 280.587145 
L 114.080224 280.013493 
L 114.751048 280.013493 
L 114.751048 279.439842 
L 116.621333 279.439842 
L 116.621333 278.86619 
L 116.914437 278.86619 
L 116.914437 278.292538 
L 117.202696 278.292538 
L 117.202696 277.718886 
L 117.765302 277.718886 
L 117.765302 277.145235 
L 120.571812 277.145235 
L 120.571812 276.571583 
L 121.264855 276.571583 
L 121.264855 275.997931 
L 124.368753 275.997931 
L 124.368753 275.42428 
L 124.92835 275.42428 
L 124.92835 274.850628 
L 126.338353 274.850628 
L 126.338353 274.276976 
L 127.642832 274.276976 
L 127.642832 272.556021 
L 128.107907 272.556021 
L 128.107907 271.982369 
L 128.709321 271.982369 
L 128.709321 271.408718 
L 129.290685 271.408718 
L 129.290685 270.261414 
L 129.433047 270.261414 
L 129.433047 269.687762 
L 130.531948 269.687762 
L 130.531948 269.114111 
L 130.926816 269.114111 
L 130.926816 268.540459 
L 131.185181 268.540459 
L 131.185181 267.966807 
L 131.439773 267.966807 
L 131.439773 267.393156 
L 132.060454 267.393156 
L 132.060454 266.819504 
L 132.181982 266.819504 
L 132.181982 266.245852 
L 132.659801 266.245852 
L 132.659801 265.098549 
L 132.777237 265.098549 
L 132.777237 264.524897 
L 132.893889 264.524897 
L 132.893889 263.951245 
L 135.076644 263.951245 
L 135.076644 263.377593 
L 135.280614 263.377593 
L 135.280614 262.803942 
L 138.170504 262.803942 
L 138.170504 262.23029 
L 141.521035 262.23029 
L 141.521035 261.656638 
L 143.273169 261.656638 
L 143.273169 260.509335 
L 143.40093 260.509335 
L 143.40093 259.935683 
L 144.209312 259.935683 
L 144.209312 259.362031 
L 144.865226 259.362031 
L 144.865226 258.78838 
L 145.155404 258.78838 
L 145.155404 258.214728 
L 145.327221 258.214728 
L 145.384119 257.067425 
L 146.161795 257.067425 
L 146.161795 256.493773 
L 146.644018 256.493773 
L 146.644018 255.346469 
L 148.826773 255.346469 
L 148.826773 254.772818 
L 148.966103 254.772818 
L 148.966103 254.199166 
L 149.377533 254.199166 
L 149.467659 253.051863 
L 149.646525 253.051863 
L 149.646525 252.478211 
L 149.867558 252.478211 
L 149.955193 250.183604 
L 149.998846 250.183604 
L 150.042389 249.036301 
L 150.215485 249.036301 
L 150.215485 247.888997 
L 150.38688 247.888997 
L 150.429467 246.741694 
L 150.51433 246.741694 
L 150.598782 245.59439 
L 150.682827 245.59439 
L 150.724698 243.873435 
L 150.849711 243.873435 
L 150.932558 240.431525 
L 151.621307 240.431525 
L 151.621307 239.857873 
L 152.0141 239.857873 
L 152.0141 239.284221 
L 154.840544 239.284221 
L 154.840544 238.71057 
L 155.361158 238.71057 
L 155.361158 238.136918 
L 157.697862 238.136918 
L 157.697862 237.563266 
L 159.758143 237.563266 
L 159.758143 236.989614 
L 160.750792 236.989614 
L 160.797798 235.842311 
L 161.12334 235.842311 
L 161.12334 235.268659 
L 161.352206 235.268659 
L 161.352206 234.695008 
L 162.238764 234.695008 
L 162.238764 234.121356 
L 162.389382 234.121356 
L 162.496175 232.400401 
L 162.644595 232.400401 
L 162.728843 231.253097 
L 162.770815 231.253097 
L 162.854457 228.95849 
L 162.896128 228.95849 
L 162.979172 227.811187 
L 163.144084 227.811187 
L 163.246367 224.942928 
L 163.266752 224.942928 
L 163.348054 223.795625 
L 163.629664 223.795625 
L 163.629664 223.221973 
L 164.973287 223.221973 
L 164.973287 222.648321 
L 165.138764 222.648321 
L 165.138764 222.07467 
L 165.732422 222.07467 
L 165.732422 221.501018 
L 166.151824 221.501018 
L 166.151824 220.927366 
L 166.34073 220.927366 
L 166.34073 220.353715 
L 169.503198 220.353715 
L 169.503198 219.780063 
L 169.673338 219.780063 
L 169.771826 218.632759 
L 169.855803 218.632759 
L 169.911564 217.485456 
L 169.981016 217.485456 
L 169.981016 216.911804 
L 170.119095 216.911804 
L 170.187727 215.190849 
L 170.242438 215.190849 
L 170.310587 213.469894 
L 170.419074 213.469894 
L 170.419074 212.322591 
L 170.567151 212.322591 
L 170.59394 211.175287 
L 170.951613 211.175287 
L 170.951613 210.601635 
L 171.18605 210.601635 
L 171.18605 210.027984 
L 172.240256 210.027984 
L 172.240256 209.454332 
L 174.455933 209.454332 
L 174.455933 208.88068 
L 174.658532 208.88068 
L 174.700886 207.733377 
L 174.785287 207.733377 
L 174.806323 206.586073 
L 174.963293 206.586073 
L 174.963293 206.012422 
L 175.108535 206.012422 
L 175.211544 203.717815 
L 175.273058 203.717815 
L 175.324155 201.99686 
L 175.405599 201.99686 
L 175.466434 199.702253 
L 175.637655 199.702253 
L 175.747557 197.981298 
L 175.886437 197.981298 
L 175.93577 196.833994 
L 176.03402 196.833994 
L 176.03402 196.260342 
L 178.89222 196.260342 
L 178.991731 192.818432 
L 179.049518 192.818432 
L 179.090678 191.671129 
L 179.172706 191.671129 
L 179.262495 189.376522 
L 179.303155 189.376522 
L 179.368015 187.081915 
L 179.480944 187.081915 
L 179.545147 185.934612 
L 179.617095 185.934612 
L 179.688747 184.213656 
L 179.736352 184.213656 
L 179.736352 183.640005 
L 179.941152 183.640005 
L 179.941152 183.066353 
L 180.564187 183.066353 
L 180.564187 182.492701 
L 181.74015 182.492701 
L 181.74015 181.91905 
L 181.894854 181.91905 
L 181.943792 180.771746 
L 182.220831 180.771746 
L 182.289409 179.050791 
L 182.418968 179.050791 
L 182.520577 176.756184 
L 182.540827 176.756184 
L 182.64173 175.608881 
L 184.497912 175.608881 
L 184.497912 175.035229 
L 184.861927 175.035229 
L 184.861927 174.461577 
L 184.985507 174.461577 
L 185.049891 173.314274 
L 185.247406 173.314274 
L 185.345331 171.019667 
L 185.362555 171.019667 
L 185.362555 170.446015 
L 185.607581 170.446015 
L 185.607581 169.872363 
L 187.325189 169.872363 
L 187.325189 169.298712 
L 187.5291 169.298712 
L 187.549361 168.151408 
L 187.670432 168.151408 
L 187.780681 165.856801 
L 187.890237 165.856801 
L 187.900163 164.709498 
L 189.314741 164.709498 
L 189.374112 163.562195 
L 189.455987 163.562195 
L 189.555537 161.841239 
L 189.573576 161.841239 
L 189.623088 159.546632 
L 189.69933 159.546632 
L 189.797504 157.825677 
L 189.815295 157.825677 
L 189.815295 157.252026 
L 191.10038 157.252026 
L 191.182777 156.104722 
L 191.256603 156.104722 
L 191.309728 154.383767 
L 191.43171 154.383767 
L 191.520624 152.662812 
L 191.56089 152.662812 
L 191.64915 150.368205 
L 191.681134 150.368205 
L 191.681134 149.794553 
L 191.812451 149.794553 
L 191.812451 149.220902 
L 192.693684 149.220902 
L 192.704987 148.073598 
L 192.825103 148.073598 
L 192.825103 147.499946 
L 192.992629 147.499946 
L 193.07026 145.20534 
L 193.151219 145.20534 
L 193.253717 142.910733 
L 193.428039 142.910733 
L 193.489362 141.763429 
L 193.636379 141.763429 
L 193.636379 141.189778 
L 194.332853 141.189778 
L 194.332853 140.616126 
L 194.574761 140.616126 
L 194.67934 138.321519 
L 194.810022 138.321519 
L 194.810022 137.747867 
L 194.982756 137.747867 
L 194.999275 136.600564 
L 195.094778 136.600564 
L 195.094778 136.026912 
L 195.862558 136.026912 
L 195.962839 134.305957 
L 196.015879 134.305957 
L 196.112186 130.290395 
L 196.136953 130.290395 
L 196.136953 129.716743 
L 196.290957 129.716743 
L 196.336894 127.995788 
L 196.498243 127.995788 
L 196.498243 127.422136 
L 196.935146 127.422136 
L 196.935146 126.848485 
L 197.225294 126.848485 
L 197.2282 125.701181 
L 197.378665 125.701181 
L 197.401698 123.980226 
L 197.516412 123.980226 
L 197.579184 121.111967 
L 197.636055 121.111967 
L 197.675754 119.964664 
L 198.47299 119.964664 
L 198.543201 117.670057 
L 198.586268 117.670057 
L 198.594331 116.522754 
L 198.698814 116.522754 
L 198.698814 115.949102 
L 198.88215 115.949102 
L 198.88215 115.37545 
L 199.433677 115.37545 
L 199.469491 114.228147 
L 199.634818 114.228147 
L 199.680325 113.080843 
L 199.783539 113.080843 
L 199.856176 111.93354 
L 200.537562 111.93354 
L 200.537562 111.359888 
L 200.752569 111.359888 
L 200.762064 110.212585 
L 200.866165 110.212585 
L 200.908573 109.065281 
L 201.025836 109.065281 
L 201.025836 108.49163 
L 201.584769 108.49163 
L 201.661565 106.770674 
L 201.753723 106.770674 
L 201.832012 104.476068 
L 201.903283 104.476068 
L 201.963193 103.328764 
L 202.117563 103.328764 
L 202.141697 102.181461 
L 202.493316 102.181461 
L 202.525518 101.034157 
L 202.664375 101.034157 
L 202.713245 99.886854 
L 202.778898 99.886854 
L 202.778898 99.313202 
L 203.456781 99.313202 
L 203.456781 98.73955 
L 203.606597 98.73955 
L 203.693064 97.592247 
L 204.427582 97.592247 
L 204.444882 95.871292 
L 204.59791 95.871292 
L 204.664439 94.723988 
L 204.743941 94.723988 
L 204.743941 94.150337 
L 205.145334 94.150337 
L 205.178524 93.003033 
L 205.264889 93.003033 
L 205.31431 91.282078 
L 205.412734 91.282078 
L 205.412734 90.708426 
L 205.786743 90.708426 
L 205.786743 90.134775 
L 205.916127 90.134775 
L 205.916127 89.561123 
L 206.06558 89.561123 
L 206.06558 88.987471 
L 206.182488 88.987471 
L 206.187704 87.840168 
L 206.348643 87.840168 
L 206.407112 86.692864 
L 206.745453 86.692864 
L 206.745453 86.119213 
L 206.911359 86.119213 
L 206.911359 85.545561 
L 207.02275 85.545561 
L 207.02275 84.971909 
L 207.35922 84.971909 
L 207.435456 83.824606 
L 207.751419 83.824606 
L 207.751419 83.250954 
L 208.099194 83.250954 
L 208.099194 82.677302 
L 208.26357 82.677302 
L 208.26357 82.103651 
L 208.437112 82.103651 
L 208.437112 81.529999 
L 208.56349 81.529999 
L 208.56349 80.956347 
L 208.931278 80.956347 
L 208.931278 80.382695 
L 209.08803 80.382695 
L 209.08803 79.809044 
L 209.434932 79.809044 
L 209.476734 78.66174 
L 209.595823 78.66174 
L 209.660051 77.514437 
L 209.990275 77.514437 
L 209.990275 76.940785 
L 210.328079 76.940785 
L 210.328079 76.367133 
L 210.509492 76.367133 
L 210.610966 74.646178 
L 210.64062 74.646178 
L 210.711853 73.498875 
L 211.309106 73.498875 
L 211.309106 72.925223 
L 211.65051 72.925223 
L 211.65051 72.351571 
L 211.835095 72.351571 
L 211.835095 71.77792 
L 212.245245 71.77792 
L 212.245245 71.204268 
L 212.466176 71.204268 
L 212.466176 70.630616 
L 212.693923 70.630616 
L 212.693923 70.056964 
L 213.407026 70.056964 
L 213.407026 69.483313 
L 213.846195 69.483313 
L 213.93896 68.336009 
L 214.412892 68.336009 
L 214.412892 67.762358 
L 214.684141 67.762358 
L 214.684141 67.188706 
L 214.884845 67.188706 
L 214.943872 66.041402 
L 215.085353 66.041402 
L 215.085353 65.467751 
L 215.395706 65.467751 
L 215.395706 64.894099 
L 216.238366 64.894099 
L 216.238366 64.320447 
L 216.490552 64.320447 
L 216.490552 63.746796 
L 216.660169 63.746796 
L 216.660169 63.173144 
L 217.31526 63.173144 
L 217.384925 62.02584 
L 217.484357 62.02584 
L 217.484357 61.452189 
L 217.703108 61.452189 
L 217.703108 60.878537 
L 217.824849 60.878537 
L 217.824849 60.304885 
L 218.153568 60.304885 
L 218.207757 59.157582 
L 218.703303 59.157582 
L 218.703303 58.58393 
L 220.221426 58.58393 
L 220.221426 58.010278 
L 220.730946 58.010278 
L 220.730946 57.436627 
L 221.803513 57.436627 
L 221.814161 56.289323 
L 222.560804 56.289323 
L 222.560804 55.715672 
L 222.762245 55.715672 
L 222.762245 55.14202 
L 223.784194 55.14202 
L 223.836091 53.994716 
L 225.030934 53.994716 
L 225.030934 53.421065 
L 226.794545 53.421065 
L 226.794545 52.847413 
L 228.184113 52.847413 
L 228.184113 52.273761 
L 338.688 52.273761 
L 338.688 52.273761 
" style="fill:none;stroke:#ffa500;stroke-linecap:square;stroke-width:1.5;"/>
   </g>
   <g id="line2d_40">
    <defs>
     <path d="M 0 -6 
L -1.347084 -1.854102 
L -5.706339 -1.854102 
L -2.179628 0.708204 
L -3.526712 4.854102 
L -0 2.291796 
L 3.526712 4.854102 
L 2.179628 0.708204 
L 5.706339 -1.854102 
L 1.347084 -1.854102 
z
" id="m43cff021aa" style="stroke:#ffa500;stroke-linejoin:bevel;stroke-width:1.5;"/>
    </defs>
    <g>
     <use style="fill-opacity:0;stroke:#ffa500;stroke-linejoin:bevel;stroke-width:1.5;" x="149.646525" xlink:href="#m43cff021aa" y="252.478211"/>
     <use style="fill-opacity:0;stroke:#ffa500;stroke-linejoin:bevel;stroke-width:1.5;" x="191.520624" xlink:href="#m43cff021aa" y="152.662812"/>
     <use style="fill-opacity:0;stroke:#ffa500;stroke-linejoin:bevel;stroke-width:1.5;" x="228.184113" xlink:href="#m43cff021aa" y="52.847413"/>
     <use style="fill-opacity:0;stroke:#ffa500;stroke-linejoin:bevel;stroke-width:1.5;" x="228.184113" xlink:href="#m43cff021aa" y="52.273761"/>
     <use style="fill-opacity:0;stroke:#ffa500;stroke-linejoin:bevel;stroke-width:1.5;" x="228.184113" xlink:href="#m43cff021aa" y="52.273761"/>
     <use style="fill-opacity:0;stroke:#ffa500;stroke-linejoin:bevel;stroke-width:1.5;" x="338.688" xlink:href="#m43cff021aa" y="52.273761"/>
    </g>
   </g>
   <g id="line2d_41">
    <path style="fill:none;stroke:#ffa500;stroke-linecap:square;stroke-width:1.5;"/>
    <g/>
   </g>
   <g id="line2d_42">
    <path clip-path="url(#p9f07c465a6)" d="M 151.260066 240.431525 
" style="fill:none;stroke:#ffa500;stroke-linecap:square;stroke-width:1.5;"/>
    <defs>
     <path d="M -12 12 
L 12 -12 
M -12 -12 
L 12 12 
" id="mf7d8be412f" style="stroke:#ffa500;"/>
    </defs>
    <g clip-path="url(#p9f07c465a6)">
     <use style="fill:#ffa500;stroke:#ffa500;" x="151.260066" xlink:href="#mf7d8be412f" y="240.431525"/>
    </g>
   </g>
   <g id="line2d_43">
    <defs>
     <path d="M 0 1.5 
C 0.397805 1.5 0.77937 1.341951 1.06066 1.06066 
C 1.341951 0.77937 1.5 0.397805 1.5 0 
C 1.5 -0.397805 1.341951 -0.77937 1.06066 -1.06066 
C 0.77937 -1.341951 0.397805 -1.5 0 -1.5 
C -0.397805 -1.5 -0.77937 -1.341951 -1.06066 -1.06066 
C -1.341951 -0.77937 -1.5 -0.397805 -1.5 0 
C -1.5 0.397805 -1.341951 0.77937 -1.06066 1.06066 
C -0.77937 1.341951 -0.397805 1.5 0 1.5 
z
" id="mf5af583f1d" style="stroke:#6495ed;"/>
    </defs>
    <g>
     <use style="fill:#6495ed;stroke:#6495ed;" x="219.007685" xlink:href="#mf5af583f1d" y="235.842311"/>
     <use style="fill:#6495ed;stroke:#6495ed;" x="219.007685" xlink:href="#mf5af583f1d" y="235.842311"/>
    </g>
   </g>
   <g id="line2d_44">
    <path d="M 45.512012 298.944 
L 45.512012 284.029055 
L 94.921215 284.029055 
L 94.921215 283.455404 
L 96.86091 283.455404 
L 96.86091 282.881752 
L 102.989037 282.881752 
L 102.989037 282.3081 
L 110.274038 282.3081 
L 110.274038 281.734448 
L 111.104637 281.734448 
L 111.104637 281.160797 
L 112.280765 281.160797 
L 112.280765 280.587145 
L 113.73488 280.587145 
L 113.73488 280.013493 
L 116.621333 280.013493 
L 116.621333 279.439842 
L 117.486268 279.439842 
L 117.486268 278.86619 
L 117.765302 278.86619 
L 117.765302 277.718886 
L 119.097192 277.718886 
L 119.097192 277.145235 
L 121.036887 277.145235 
L 121.036887 276.571583 
L 122.988655 276.571583 
L 122.988655 275.997931 
L 124.92835 275.997931 
L 124.92835 275.42428 
L 125.470548 275.42428 
L 125.470548 274.850628 
L 125.647598 274.850628 
L 125.647598 274.276976 
L 126.839037 274.276976 
L 126.839037 273.703324 
L 127.325746 273.703324 
L 127.325746 273.129673 
L 127.954256 273.129673 
L 127.954256 272.556021 
L 128.260216 272.556021 
L 128.260216 271.408718 
L 129.290685 271.408718 
L 129.290685 270.835066 
L 129.714332 270.835066 
L 129.714332 270.261414 
L 129.853291 270.261414 
L 129.853291 269.687762 
L 129.991152 269.687762 
L 129.991152 269.114111 
L 130.664567 269.114111 
L 130.664567 268.540459 
L 133.689303 268.540459 
L 133.689303 267.966807 
L 134.019394 267.966807 
L 134.019394 267.393156 
L 137.647286 267.393156 
L 137.647286 266.819504 
L 138.510793 266.819504 
L 138.510793 266.245852 
L 139.413734 266.245852 
L 139.413734 265.6722 
L 139.652088 265.6722 
L 139.730821 264.524897 
L 140.042245 264.524897 
L 140.042245 263.377593 
L 140.348205 263.377593 
L 140.348205 262.803942 
L 141.521035 262.803942 
L 141.521035 262.23029 
L 144.923649 262.23029 
L 144.923649 261.656638 
L 146.216039 261.656638 
L 146.216039 261.082987 
L 152.922207 261.082987 
L 152.922207 260.509335 
L 153.359122 260.509335 
L 153.466662 259.362031 
L 154.405793 259.362031 
L 154.405793 258.78838 
L 154.707925 258.78838 
L 154.707925 258.214728 
L 156.687861 258.214728 
L 156.687861 257.641076 
L 157.300853 257.641076 
L 157.300853 257.067425 
L 158.304027 257.067425 
L 158.304027 256.493773 
L 161.238149 256.493773 
L 161.238149 255.920121 
L 164.043731 255.920121 
L 164.082658 254.772818 
L 164.824867 254.772818 
L 164.824867 254.199166 
L 165.643763 254.199166 
L 165.643763 253.625514 
L 165.873346 253.625514 
L 165.873346 253.051863 
L 166.561376 253.051863 
L 166.561376 252.478211 
L 167.06015 252.478211 
L 167.06015 251.904559 
L 168.491304 251.904559 
L 168.491304 251.330907 
L 169.417501 251.330907 
L 169.417501 250.757256 
L 170.912232 250.757256 
L 170.912232 250.183604 
L 171.353428 250.183604 
L 171.417378 249.036301 
L 173.026049 249.036301 
L 173.026049 248.462649 
L 174.423728 248.462649 
L 174.423728 247.888997 
L 174.700886 247.888997 
L 174.700886 247.315345 
L 180.435259 247.315345 
L 180.435259 246.741694 
L 180.564187 246.741694 
L 180.564187 246.168042 
L 180.729632 246.168042 
L 180.729632 245.59439 
L 182.84843 245.59439 
L 182.84843 245.020738 
L 183.235184 245.020738 
L 183.235184 244.447087 
L 184.132295 244.447087 
L 184.132295 243.873435 
L 184.808696 243.873435 
L 184.808696 243.299783 
L 185.253182 243.299783 
L 185.253182 242.726132 
L 186.517088 242.726132 
L 186.517088 242.15248 
L 186.634849 242.15248 
L 186.634849 241.578828 
L 188.175811 241.578828 
L 188.175811 241.005176 
L 201.602869 241.005176 
L 201.602869 240.431525 
L 204.959788 240.431525 
L 204.959788 239.857873 
L 207.154829 239.857873 
L 207.154829 239.284221 
L 209.037904 239.284221 
L 209.037904 238.71057 
L 213.986826 238.71057 
L 213.986826 238.136918 
L 214.750236 238.136918 
L 214.750236 237.563266 
L 217.534315 237.563266 
L 217.534315 236.989614 
L 217.862274 236.989614 
L 217.862274 236.415963 
L 219.007685 236.415963 
L 219.007685 235.842311 
L 338.688 235.842311 
L 338.688 235.842311 
" style="fill:none;stroke:#6495ed;stroke-linecap:square;stroke-width:1.5;"/>
   </g>
   <g id="line2d_45">
    <defs>
     <path d="M -0 6 
L 6 -6 
L -6 -6 
z
" id="mfdde3fe965" style="stroke:#6495ed;stroke-linejoin:miter;stroke-width:1.5;"/>
    </defs>
    <g>
     <use style="fill-opacity:0;stroke:#6495ed;stroke-linejoin:miter;stroke-width:1.5;" x="117.765302" xlink:href="#mfdde3fe965" y="277.718886"/>
     <use style="fill-opacity:0;stroke:#6495ed;stroke-linejoin:miter;stroke-width:1.5;" x="185.253182" xlink:href="#mfdde3fe965" y="243.299783"/>
     <use style="fill-opacity:0;stroke:#6495ed;stroke-linejoin:miter;stroke-width:1.5;" x="219.007685" xlink:href="#mfdde3fe965" y="236.415963"/>
     <use style="fill-opacity:0;stroke:#6495ed;stroke-linejoin:miter;stroke-width:1.5;" x="219.007685" xlink:href="#mfdde3fe965" y="235.842311"/>
     <use style="fill-opacity:0;stroke:#6495ed;stroke-linejoin:miter;stroke-width:1.5;" x="219.007685" xlink:href="#mfdde3fe965" y="235.842311"/>
     <use style="fill-opacity:0;stroke:#6495ed;stroke-linejoin:miter;stroke-width:1.5;" x="338.688" xlink:href="#mfdde3fe965" y="235.842311"/>
    </g>
   </g>
   <g id="line2d_46">
    <path style="fill:none;stroke:#6495ed;stroke-linecap:square;stroke-width:1.5;"/>
    <g/>
   </g>
   <g id="line2d_47">
    <path clip-path="url(#p9f07c465a6)" d="M 150.932558 261.082987 
" style="fill:none;stroke:#6495ed;stroke-linecap:square;stroke-width:1.5;"/>
    <defs>
     <path d="M -12 12 
L 12 -12 
M -12 -12 
L 12 12 
" id="maec0828b21" style="stroke:#6495ed;"/>
    </defs>
    <g clip-path="url(#p9f07c465a6)">
     <use style="fill:#6495ed;stroke:#6495ed;" x="150.932558" xlink:href="#maec0828b21" y="261.082987"/>
    </g>
   </g>
   <g id="line2d_48">
    <defs>
     <path d="M 0 1.5 
C 0.397805 1.5 0.77937 1.341951 1.06066 1.06066 
C 1.341951 0.77937 1.5 0.397805 1.5 0 
C 1.5 -0.397805 1.341951 -0.77937 1.06066 -1.06066 
C 0.77937 -1.341951 0.397805 -1.5 0 -1.5 
C -0.397805 -1.5 -0.77937 -1.341951 -1.06066 -1.06066 
C -1.341951 -0.77937 -1.5 -0.397805 -1.5 0 
C -1.5 0.397805 -1.341951 0.77937 -1.06066 1.06066 
C -0.77937 1.341951 -0.397805 1.5 0 1.5 
z
" id="m5bc8b48784" style="stroke:#ff0000;"/>
    </defs>
    <g>
     <use style="fill:#ff0000;stroke:#ff0000;" x="133.910056" xlink:href="#m5bc8b48784" y="6.381624"/>
     <use style="fill:#ff0000;stroke:#ff0000;" x="133.910056" xlink:href="#m5bc8b48784" y="6.381624"/>
    </g>
   </g>
   <g id="line2d_49">
    <path d="M 45.512012 298.944 
L 45.512012 287.470966 
L 107.514726 287.470966 
L 107.514726 281.734448 
L 108.483824 281.734448 
L 108.483824 278.86619 
L 108.948899 278.86619 
L 108.948899 274.850628 
L 109.401893 274.850628 
L 109.401893 255.920121 
L 109.843417 255.920121 
L 109.843417 145.20534 
L 110.274038 145.20534 
L 110.274038 144.058036 
L 111.505558 144.058036 
L 111.505558 142.910733 
L 111.897469 142.910733 
L 111.897469 142.337081 
L 112.280765 142.337081 
L 112.280765 135.45326 
L 112.655818 135.45326 
L 112.655818 93.576685 
L 132.30267 93.576685 
L 132.30267 93.003033 
L 132.422528 93.003033 
L 132.422528 91.282078 
L 132.541568 91.282078 
L 132.541568 88.987471 
L 132.659801 88.987471 
L 132.659801 59.731234 
L 133.124876 59.731234 
L 133.124876 59.157582 
L 133.352844 59.157582 
L 133.352844 58.58393 
L 133.46572 58.58393 
L 133.46572 43.095334 
L 133.57787 43.095334 
L 133.57787 42.521682 
L 133.689303 42.521682 
L 133.689303 41.374379 
L 133.800029 41.374379 
L 133.800029 22.443872 
L 133.910056 22.443872 
L 133.910056 6.381624 
L 338.688 6.381624 
" style="fill:none;stroke:#ff0000;stroke-linecap:square;stroke-width:1.5;"/>
   </g>
   <g id="line2d_50">
    <defs>
     <path d="M 0 -6 
L -5.196152 -3 
L -5.196152 3 
L -0 6 
L 5.196152 3 
L 5.196152 -3 
z
" id="md1b052c446" style="stroke:#ff0000;stroke-linejoin:miter;stroke-width:1.5;"/>
    </defs>
    <g>
     <use style="fill-opacity:0;stroke:#ff0000;stroke-linejoin:miter;stroke-width:1.5;" x="109.843417" xlink:href="#md1b052c446" y="255.920121"/>
     <use style="fill-opacity:0;stroke:#ff0000;stroke-linejoin:miter;stroke-width:1.5;" x="133.910056" xlink:href="#md1b052c446" y="22.443872"/>
     <use style="fill-opacity:0;stroke:#ff0000;stroke-linejoin:miter;stroke-width:1.5;" x="133.910056" xlink:href="#md1b052c446" y="6.381624"/>
     <use style="fill-opacity:0;stroke:#ff0000;stroke-linejoin:miter;stroke-width:1.5;" x="133.910056" xlink:href="#md1b052c446" y="6.381624"/>
     <use style="fill-opacity:0;stroke:#ff0000;stroke-linejoin:miter;stroke-width:1.5;" x="133.910056" xlink:href="#md1b052c446" y="6.381624"/>
     <use style="fill-opacity:0;stroke:#ff0000;stroke-linejoin:miter;stroke-width:1.5;" x="338.688" xlink:href="#md1b052c446" y="6.381624"/>
    </g>
   </g>
   <g id="line2d_51">
    <path style="fill:none;stroke:#ff0000;stroke-linecap:square;stroke-width:1.5;"/>
    <g/>
   </g>
   <g id="line2d_52">
    <path d="M 338.688 235.842311 
L 369.60768 293.092752 
" style="fill:none;stroke:#6495ed;stroke-linecap:square;stroke-width:1.5;"/>
    <g>
     <use style="fill-opacity:0;stroke:#6495ed;stroke-linejoin:miter;stroke-width:1.5;" x="338.688" xlink:href="#mfdde3fe965" y="235.842311"/>
     <use style="fill-opacity:0;stroke:#6495ed;stroke-linejoin:miter;stroke-width:1.5;" x="369.60768" xlink:href="#mfdde3fe965" y="293.092752"/>
    </g>
   </g>
   <g id="line2d_53">
    <path d="M 338.688 52.273761 
L 369.60768 222.877782 
" style="fill:none;stroke:#ffa500;stroke-linecap:square;stroke-width:1.5;"/>
    <g>
     <use style="fill-opacity:0;stroke:#ffa500;stroke-linejoin:bevel;stroke-width:1.5;" x="338.688" xlink:href="#m43cff021aa" y="52.273761"/>
     <use style="fill-opacity:0;stroke:#ffa500;stroke-linejoin:bevel;stroke-width:1.5;" x="369.60768" xlink:href="#m43cff021aa" y="222.877782"/>
    </g>
   </g>
   <g id="line2d_54">
    <path d="M 338.688 6.381624 
L 369.60768 152.662812 
" style="fill:none;stroke:#ff00ff;stroke-linecap:square;stroke-width:1.5;"/>
    <g>
     <use style="fill-opacity:0;stroke:#ff00ff;stroke-linejoin:miter;stroke-width:1.5;" x="338.688" xlink:href="#m1e0dfe5177" y="6.381624"/>
     <use style="fill-opacity:0;stroke:#ff00ff;stroke-linejoin:miter;stroke-width:1.5;" x="369.60768" xlink:href="#m1e0dfe5177" y="152.662812"/>
    </g>
   </g>
   <g id="line2d_55">
    <path d="M 338.688 6.381624 
L 369.60768 82.447842 
" style="fill:none;stroke:#ff0000;stroke-linecap:square;stroke-width:1.5;"/>
    <g>
     <use style="fill-opacity:0;stroke:#ff0000;stroke-linejoin:miter;stroke-width:1.5;" x="338.688" xlink:href="#md1b052c446" y="6.381624"/>
     <use style="fill-opacity:0;stroke:#ff0000;stroke-linejoin:miter;stroke-width:1.5;" x="369.60768" xlink:href="#md1b052c446" y="82.447842"/>
    </g>
   </g>
   <g id="line2d_56">
    <path d="M 338.688 6.381624 
L 369.60768 12.232871 
" style="fill:none;stroke:#000080;stroke-linecap:square;stroke-width:1.5;"/>
    <g>
     <use style="fill-opacity:0;stroke:#000080;stroke-width:1.5;" x="338.688" xlink:href="#m311eefecc8" y="6.381624"/>
     <use style="fill-opacity:0;stroke:#000080;stroke-width:1.5;" x="369.60768" xlink:href="#m311eefecc8" y="12.232871"/>
    </g>
   </g>
   <g id="line2d_57">
    <path d="M 338.688 298.944 
L 338.688 6.381624 
" style="fill:none;stroke:#000000;stroke-linecap:square;stroke-width:1.5;"/>
   </g>
   <g id="patch_3">
    <path d="M 57.6 298.944 
L 57.6 3.456 
" style="fill:none;stroke:#000000;stroke-linecap:square;stroke-linejoin:miter;stroke-width:0.8;"/>
   </g>
   <g id="patch_4">
    <path d="M 338.688 298.944 
L 338.688 3.456 
" style="fill:none;stroke:#000000;stroke-linecap:square;stroke-linejoin:miter;stroke-width:0.8;"/>
   </g>
   <g id="patch_5">
    <path d="M 57.6 298.944 
L 338.688 298.944 
" style="fill:none;stroke:#000000;stroke-linecap:square;stroke-linejoin:miter;stroke-width:0.8;"/>
   </g>
   <g id="patch_6">
    <path d="M 57.6 3.456 
L 338.688 3.456 
" style="fill:none;stroke:#000000;stroke-linecap:square;stroke-linejoin:miter;stroke-width:0.8;"/>
   </g>
   <g id="text_13">
    <!-- f4 -->
    <g transform="translate(375.22944 297.78369)scale(0.17 -0.17)">
     <use xlink:href="#DejaVuSans-102"/>
     <use x="35.205078" xlink:href="#DejaVuSans-52"/>
    </g>
   </g>
   <g id="text_14">
    <!-- f3 -->
    <defs>
     <path d="M 40.578125 39.3125 
Q 47.65625 37.796875 51.625 33 
Q 55.609375 28.21875 55.609375 21.1875 
Q 55.609375 10.40625 48.1875 4.484375 
Q 40.765625 -1.421875 27.09375 -1.421875 
Q 22.515625 -1.421875 17.65625 -0.515625 
Q 12.796875 0.390625 7.625 2.203125 
L 7.625 11.71875 
Q 11.71875 9.328125 16.59375 8.109375 
Q 21.484375 6.890625 26.8125 6.890625 
Q 36.078125 6.890625 40.9375 10.546875 
Q 45.796875 14.203125 45.796875 21.1875 
Q 45.796875 27.640625 41.28125 31.265625 
Q 36.765625 34.90625 28.71875 34.90625 
L 20.21875 34.90625 
L 20.21875 43.015625 
L 29.109375 43.015625 
Q 36.375 43.015625 40.234375 45.921875 
Q 44.09375 48.828125 44.09375 54.296875 
Q 44.09375 59.90625 40.109375 62.90625 
Q 36.140625 65.921875 28.71875 65.921875 
Q 24.65625 65.921875 20.015625 65.03125 
Q 15.375 64.15625 9.8125 62.3125 
L 9.8125 71.09375 
Q 15.4375 72.65625 20.34375 73.4375 
Q 25.25 74.21875 29.59375 74.21875 
Q 40.828125 74.21875 47.359375 69.109375 
Q 53.90625 64.015625 53.90625 55.328125 
Q 53.90625 49.265625 50.4375 45.09375 
Q 46.96875 40.921875 40.578125 39.3125 
z
" id="DejaVuSans-51"/>
    </defs>
    <g transform="translate(375.22944 227.56872)scale(0.17 -0.17)">
     <use xlink:href="#DejaVuSans-102"/>
     <use x="35.205078" xlink:href="#DejaVuSans-51"/>
    </g>
   </g>
   <g id="text_15">
    <!-- f2 -->
    <g transform="translate(375.22944 157.353749)scale(0.17 -0.17)">
     <use xlink:href="#DejaVuSans-102"/>
     <use x="35.205078" xlink:href="#DejaVuSans-50"/>
    </g>
   </g>
   <g id="text_16">
    <!-- f5 -->
    <defs>
     <path d="M 10.796875 72.90625 
L 49.515625 72.90625 
L 49.515625 64.59375 
L 19.828125 64.59375 
L 19.828125 46.734375 
Q 21.96875 47.46875 24.109375 47.828125 
Q 26.265625 48.1875 28.421875 48.1875 
Q 40.625 48.1875 47.75 41.5 
Q 54.890625 34.8125 54.890625 23.390625 
Q 54.890625 11.625 47.5625 5.09375 
Q 40.234375 -1.421875 26.90625 -1.421875 
Q 22.3125 -1.421875 17.546875 -0.640625 
Q 12.796875 0.140625 7.71875 1.703125 
L 7.71875 11.625 
Q 12.109375 9.234375 16.796875 8.0625 
Q 21.484375 6.890625 26.703125 6.890625 
Q 35.15625 6.890625 40.078125 11.328125 
Q 45.015625 15.765625 45.015625 23.390625 
Q 45.015625 31 40.078125 35.4375 
Q 35.15625 39.890625 26.703125 39.890625 
Q 22.75 39.890625 18.8125 39.015625 
Q 14.890625 38.140625 10.796875 36.28125 
z
" id="DejaVuSans-53"/>
    </defs>
    <g transform="translate(375.22944 87.138779)scale(0.17 -0.17)">
     <use xlink:href="#DejaVuSans-102"/>
     <use x="35.205078" xlink:href="#DejaVuSans-53"/>
    </g>
   </g>
   <g id="text_17">
    <!-- f1 -->
    <g transform="translate(375.22944 16.923809)scale(0.17 -0.17)">
     <use xlink:href="#DejaVuSans-102"/>
     <use x="35.205078" xlink:href="#DejaVuSans-49"/>
    </g>
   </g>
   <g id="text_18">
    <!-- bbob -->
    <defs>
     <path d="M 48.6875 27.296875 
Q 48.6875 37.203125 44.609375 42.84375 
Q 40.53125 48.484375 33.40625 48.484375 
Q 26.265625 48.484375 22.1875 42.84375 
Q 18.109375 37.203125 18.109375 27.296875 
Q 18.109375 17.390625 22.1875 11.75 
Q 26.265625 6.109375 33.40625 6.109375 
Q 40.53125 6.109375 44.609375 11.75 
Q 48.6875 17.390625 48.6875 27.296875 
z
M 18.109375 46.390625 
Q 20.953125 51.265625 25.265625 53.625 
Q 29.59375 56 35.59375 56 
Q 45.5625 56 51.78125 48.09375 
Q 58.015625 40.1875 58.015625 27.296875 
Q 58.015625 14.40625 51.78125 6.484375 
Q 45.5625 -1.421875 35.59375 -1.421875 
Q 29.59375 -1.421875 25.265625 0.953125 
Q 20.953125 3.328125 18.109375 8.203125 
L 18.109375 0 
L 9.078125 0 
L 9.078125 75.984375 
L 18.109375 75.984375 
z
" id="DejaVuSans-98"/>
    </defs>
    <g transform="translate(60.41088 14.161286)scale(0.102 -0.102)">
     <use xlink:href="#DejaVuSans-98"/>
     <use x="63.476562" xlink:href="#DejaVuSans-98"/>
     <use x="126.953125" xlink:href="#DejaVuSans-111"/>
     <use x="188.134766" xlink:href="#DejaVuSans-98"/>
    </g>
    <!-- Separable functions, 2-D -->
    <defs>
     <path d="M 53.515625 70.515625 
L 53.515625 60.890625 
Q 47.90625 63.578125 42.921875 64.890625 
Q 37.9375 66.21875 33.296875 66.21875 
Q 25.25 66.21875 20.875 63.09375 
Q 16.5 59.96875 16.5 54.203125 
Q 16.5 49.359375 19.40625 46.890625 
Q 22.3125 44.4375 30.421875 42.921875 
L 36.375 41.703125 
Q 47.40625 39.59375 52.65625 34.296875 
Q 57.90625 29 57.90625 20.125 
Q 57.90625 9.515625 50.796875 4.046875 
Q 43.703125 -1.421875 29.984375 -1.421875 
Q 24.8125 -1.421875 18.96875 -0.25 
Q 13.140625 0.921875 6.890625 3.21875 
L 6.890625 13.375 
Q 12.890625 10.015625 18.65625 8.296875 
Q 24.421875 6.59375 29.984375 6.59375 
Q 38.421875 6.59375 43.015625 9.90625 
Q 47.609375 13.234375 47.609375 19.390625 
Q 47.609375 24.75 44.3125 27.78125 
Q 41.015625 30.8125 33.5 32.328125 
L 27.484375 33.5 
Q 16.453125 35.6875 11.515625 40.375 
Q 6.59375 45.0625 6.59375 53.421875 
Q 6.59375 63.09375 13.40625 68.65625 
Q 20.21875 74.21875 32.171875 74.21875 
Q 37.3125 74.21875 42.625 73.28125 
Q 47.953125 72.359375 53.515625 70.515625 
z
" id="DejaVuSans-83"/>
     <path d="M 19.671875 64.796875 
L 19.671875 8.109375 
L 31.59375 8.109375 
Q 46.6875 8.109375 53.6875 14.9375 
Q 60.6875 21.78125 60.6875 36.53125 
Q 60.6875 51.171875 53.6875 57.984375 
Q 46.6875 64.796875 31.59375 64.796875 
z
M 9.8125 72.90625 
L 30.078125 72.90625 
Q 51.265625 72.90625 61.171875 64.09375 
Q 71.09375 55.28125 71.09375 36.53125 
Q 71.09375 17.671875 61.125 8.828125 
Q 51.171875 0 30.078125 0 
L 9.8125 0 
z
" id="DejaVuSans-68"/>
    </defs>
    <g transform="translate(60.41088 25.583055)scale(0.102 -0.102)">
     <use xlink:href="#DejaVuSans-83"/>
     <use x="63.476562" xlink:href="#DejaVuSans-101"/>
     <use x="125" xlink:href="#DejaVuSans-112"/>
     <use x="188.476562" xlink:href="#DejaVuSans-97"/>
     <use x="249.755859" xlink:href="#DejaVuSans-114"/>
     <use x="290.869141" xlink:href="#DejaVuSans-97"/>
     <use x="352.148438" xlink:href="#DejaVuSans-98"/>
     <use x="415.625" xlink:href="#DejaVuSans-108"/>
     <use x="443.408203" xlink:href="#DejaVuSans-101"/>
     <use x="504.931641" xlink:href="#DejaVuSans-32"/>
     <use x="536.71875" xlink:href="#DejaVuSans-102"/>
     <use x="571.923828" xlink:href="#DejaVuSans-117"/>
     <use x="635.302734" xlink:href="#DejaVuSans-110"/>
     <use x="698.681641" xlink:href="#DejaVuSans-99"/>
     <use x="753.662109" xlink:href="#DejaVuSans-116"/>
     <use x="792.871094" xlink:href="#DejaVuSans-105"/>
     <use x="820.654297" xlink:href="#DejaVuSans-111"/>
     <use x="881.835938" xlink:href="#DejaVuSans-110"/>
     <use x="945.214844" xlink:href="#DejaVuSans-115"/>
     <use x="997.314453" xlink:href="#DejaVuSans-44"/>
     <use x="1029.101562" xlink:href="#DejaVuSans-32"/>
     <use x="1060.888672" xlink:href="#DejaVuSans-50"/>
     <use x="1124.511719" xlink:href="#DejaVuSans-45"/>
     <use x="1160.595703" xlink:href="#DejaVuSans-68"/>
    </g>
    <!-- 51 targets: 100..1e-08 -->
    <defs>
     <path d="M 11.71875 12.40625 
L 22.015625 12.40625 
L 22.015625 0 
L 11.71875 0 
z
M 11.71875 51.703125 
L 22.015625 51.703125 
L 22.015625 39.3125 
L 11.71875 39.3125 
z
" id="DejaVuSans-58"/>
    </defs>
    <g transform="translate(60.41088 37.004824)scale(0.102 -0.102)">
     <use xlink:href="#DejaVuSans-53"/>
     <use x="63.623047" xlink:href="#DejaVuSans-49"/>
     <use x="127.246094" xlink:href="#DejaVuSans-32"/>
     <use x="159.033203" xlink:href="#DejaVuSans-116"/>
     <use x="198.242188" xlink:href="#DejaVuSans-97"/>
     <use x="259.521484" xlink:href="#DejaVuSans-114"/>
     <use x="298.884766" xlink:href="#DejaVuSans-103"/>
     <use x="362.361328" xlink:href="#DejaVuSans-101"/>
     <use x="423.884766" xlink:href="#DejaVuSans-116"/>
     <use x="463.09375" xlink:href="#DejaVuSans-115"/>
     <use x="515.193359" xlink:href="#DejaVuSans-58"/>
     <use x="548.884766" xlink:href="#DejaVuSans-32"/>
     <use x="580.671875" xlink:href="#DejaVuSans-49"/>
     <use x="644.294922" xlink:href="#DejaVuSans-48"/>
     <use x="707.917969" xlink:href="#DejaVuSans-48"/>
     <use x="771.541016" xlink:href="#DejaVuSans-46"/>
     <use x="803.328125" xlink:href="#DejaVuSans-46"/>
     <use x="835.115234" xlink:href="#DejaVuSans-49"/>
     <use x="898.738281" xlink:href="#DejaVuSans-101"/>
     <use x="960.261719" xlink:href="#DejaVuSans-45"/>
     <use x="996.345703" xlink:href="#DejaVuSans-48"/>
     <use x="1059.96875" xlink:href="#DejaVuSans-56"/>
    </g>
    <!-- 15 instances -->
    <g transform="translate(60.41088 48.426593)scale(0.102 -0.102)">
     <use xlink:href="#DejaVuSans-49"/>
     <use x="63.623047" xlink:href="#DejaVuSans-53"/>
     <use x="127.246094" xlink:href="#DejaVuSans-32"/>
     <use x="159.033203" xlink:href="#DejaVuSans-105"/>
     <use x="186.816406" xlink:href="#DejaVuSans-110"/>
     <use x="250.195312" xlink:href="#DejaVuSans-115"/>
     <use x="302.294922" xlink:href="#DejaVuSans-116"/>
     <use x="341.503906" xlink:href="#DejaVuSans-97"/>
     <use x="402.783203" xlink:href="#DejaVuSans-110"/>
     <use x="466.162109" xlink:href="#DejaVuSans-99"/>
     <use x="521.142578" xlink:href="#DejaVuSans-101"/>
     <use x="582.666016" xlink:href="#DejaVuSans-115"/>
    </g>
   </g>
   <g id="text_19">
    <!-- v2.3.3.5 -->
    <g style="fill:#808080;" transform="translate(177.692437 293.909432)scale(0.1 -0.1)">
     <use xlink:href="#DejaVuSans-118"/>
     <use x="59.179688" xlink:href="#DejaVuSans-50"/>
     <use x="122.802734" xlink:href="#DejaVuSans-46"/>
     <use x="154.589844" xlink:href="#DejaVuSans-51"/>
     <use x="218.212891" xlink:href="#DejaVuSans-46"/>
     <use x="250" xlink:href="#DejaVuSans-51"/>
     <use x="313.623047" xlink:href="#DejaVuSans-46"/>
     <use x="345.410156" xlink:href="#DejaVuSans-53"/>
    </g>
   </g>
  </g>
 </g>
 <defs>
  <clipPath id="p9f07c465a6">
   <rect height="295.488" width="281.088" x="57.6" y="3.456"/>
  </clipPath>
 </defs>
</svg>
