<?xml version="1.0" encoding="utf-8" standalone="no"?>
<!DOCTYPE svg PUBLIC "-//W3C//DTD SVG 1.1//EN"
  "http://www.w3.org/Graphics/SVG/1.1/DTD/svg11.dtd">
<!-- Created with matplotlib (https://matplotlib.org/) -->
<svg height="345.6pt" version="1.1" viewBox="0 0 460.8 345.6" width="460.8pt" xmlns="http://www.w3.org/2000/svg" xmlns:xlink="http://www.w3.org/1999/xlink">
 <defs>
  <style type="text/css">
*{stroke-linecap:butt;stroke-linejoin:round;}
  </style>
 </defs>
 <g id="figure_1">
  <g id="patch_1">
   <path d="M 0 345.6 
L 460.8 345.6 
L 460.8 0 
L 0 0 
z
" style="fill:#ffffff;"/>
  </g>
  <g id="axes_1">
   <g id="patch_2">
    <path d="M 57.6 298.944 
L 338.688 298.944 
L 338.688 3.456 
L 57.6 3.456 
z
" style="fill:#ffffff;"/>
   </g>
   <g id="matplotlib.axis_1">
    <g id="xtick_1">
     <g id="line2d_1">
      <path clip-path="url(#p9944aca84b)" d="M 57.6 298.944 
L 57.6 3.456 
" style="fill:none;stroke:#b0b0b0;stroke-linecap:square;stroke-width:0.8;"/>
     </g>
     <g id="line2d_2">
      <defs>
       <path d="M 0 0 
L 0 3.5 
" id="mae1d4c3404" style="stroke:#000000;stroke-width:0.8;"/>
      </defs>
      <g>
       <use style="stroke:#000000;stroke-width:0.8;" x="57.6" xlink:href="#mae1d4c3404" y="298.944"/>
      </g>
     </g>
     <g id="text_1">
      <!-- 0 -->
      <defs>
       <path d="M 31.78125 66.40625 
Q 24.171875 66.40625 20.328125 58.90625 
Q 16.5 51.421875 16.5 36.375 
Q 16.5 21.390625 20.328125 13.890625 
Q 24.171875 6.390625 31.78125 6.390625 
Q 39.453125 6.390625 43.28125 13.890625 
Q 47.125 21.390625 47.125 36.375 
Q 47.125 51.421875 43.28125 58.90625 
Q 39.453125 66.40625 31.78125 66.40625 
z
M 31.78125 74.21875 
Q 44.046875 74.21875 50.515625 64.515625 
Q 56.984375 54.828125 56.984375 36.375 
Q 56.984375 17.96875 50.515625 8.265625 
Q 44.046875 -1.421875 31.78125 -1.421875 
Q 19.53125 -1.421875 13.0625 8.265625 
Q 6.59375 17.96875 6.59375 36.375 
Q 6.59375 54.828125 13.0625 64.515625 
Q 19.53125 74.21875 31.78125 74.21875 
z
" id="DejaVuSans-48"/>
      </defs>
      <g transform="translate(51.2375 321.140875)scale(0.2 -0.2)">
       <use xlink:href="#DejaVuSans-48"/>
      </g>
     </g>
    </g>
    <g id="xtick_2">
     <g id="line2d_3">
      <path clip-path="url(#p9944aca84b)" d="M 137.910857 298.944 
L 137.910857 3.456 
" style="fill:none;stroke:#b0b0b0;stroke-linecap:square;stroke-width:0.8;"/>
     </g>
     <g id="line2d_4">
      <g>
       <use style="stroke:#000000;stroke-width:0.8;" x="137.910857" xlink:href="#mae1d4c3404" y="298.944"/>
      </g>
     </g>
     <g id="text_2">
      <!-- 2 -->
      <defs>
       <path d="M 19.1875 8.296875 
L 53.609375 8.296875 
L 53.609375 0 
L 7.328125 0 
L 7.328125 8.296875 
Q 12.9375 14.109375 22.625 23.890625 
Q 32.328125 33.6875 34.8125 36.53125 
Q 39.546875 41.84375 41.421875 45.53125 
Q 43.3125 49.21875 43.3125 52.78125 
Q 43.3125 58.59375 39.234375 62.25 
Q 35.15625 65.921875 28.609375 65.921875 
Q 23.96875 65.921875 18.8125 64.3125 
Q 13.671875 62.703125 7.8125 59.421875 
L 7.8125 69.390625 
Q 13.765625 71.78125 18.9375 73 
Q 24.125 74.21875 28.421875 74.21875 
Q 39.75 74.21875 46.484375 68.546875 
Q 53.21875 62.890625 53.21875 53.421875 
Q 53.21875 48.921875 51.53125 44.890625 
Q 49.859375 40.875 45.40625 35.40625 
Q 44.1875 33.984375 37.640625 27.21875 
Q 31.109375 20.453125 19.1875 8.296875 
z
" id="DejaVuSans-50"/>
      </defs>
      <g transform="translate(131.548357 321.140875)scale(0.2 -0.2)">
       <use xlink:href="#DejaVuSans-50"/>
      </g>
     </g>
    </g>
    <g id="xtick_3">
     <g id="line2d_5">
      <path clip-path="url(#p9944aca84b)" d="M 218.221714 298.944 
L 218.221714 3.456 
" style="fill:none;stroke:#b0b0b0;stroke-linecap:square;stroke-width:0.8;"/>
     </g>
     <g id="line2d_6">
      <g>
       <use style="stroke:#000000;stroke-width:0.8;" x="218.221714" xlink:href="#mae1d4c3404" y="298.944"/>
      </g>
     </g>
     <g id="text_3">
      <!-- 4 -->
      <defs>
       <path d="M 37.796875 64.3125 
L 12.890625 25.390625 
L 37.796875 25.390625 
z
M 35.203125 72.90625 
L 47.609375 72.90625 
L 47.609375 25.390625 
L 58.015625 25.390625 
L 58.015625 17.1875 
L 47.609375 17.1875 
L 47.609375 0 
L 37.796875 0 
L 37.796875 17.1875 
L 4.890625 17.1875 
L 4.890625 26.703125 
z
" id="DejaVuSans-52"/>
      </defs>
      <g transform="translate(211.859214 321.140875)scale(0.2 -0.2)">
       <use xlink:href="#DejaVuSans-52"/>
      </g>
     </g>
    </g>
    <g id="xtick_4">
     <g id="line2d_7">
      <path clip-path="url(#p9944aca84b)" d="M 298.532571 298.944 
L 298.532571 3.456 
" style="fill:none;stroke:#b0b0b0;stroke-linecap:square;stroke-width:0.8;"/>
     </g>
     <g id="line2d_8">
      <g>
       <use style="stroke:#000000;stroke-width:0.8;" x="298.532571" xlink:href="#mae1d4c3404" y="298.944"/>
      </g>
     </g>
     <g id="text_4">
      <!-- 6 -->
      <defs>
       <path d="M 33.015625 40.375 
Q 26.375 40.375 22.484375 35.828125 
Q 18.609375 31.296875 18.609375 23.390625 
Q 18.609375 15.53125 22.484375 10.953125 
Q 26.375 6.390625 33.015625 6.390625 
Q 39.65625 6.390625 43.53125 10.953125 
Q 47.40625 15.53125 47.40625 23.390625 
Q 47.40625 31.296875 43.53125 35.828125 
Q 39.65625 40.375 33.015625 40.375 
z
M 52.59375 71.296875 
L 52.59375 62.3125 
Q 48.875 64.0625 45.09375 64.984375 
Q 41.3125 65.921875 37.59375 65.921875 
Q 27.828125 65.921875 22.671875 59.328125 
Q 17.53125 52.734375 16.796875 39.40625 
Q 19.671875 43.65625 24.015625 45.921875 
Q 28.375 48.1875 33.59375 48.1875 
Q 44.578125 48.1875 50.953125 41.515625 
Q 57.328125 34.859375 57.328125 23.390625 
Q 57.328125 12.15625 50.6875 5.359375 
Q 44.046875 -1.421875 33.015625 -1.421875 
Q 20.359375 -1.421875 13.671875 8.265625 
Q 6.984375 17.96875 6.984375 36.375 
Q 6.984375 53.65625 15.1875 63.9375 
Q 23.390625 74.21875 37.203125 74.21875 
Q 40.921875 74.21875 44.703125 73.484375 
Q 48.484375 72.75 52.59375 71.296875 
z
" id="DejaVuSans-54"/>
      </defs>
      <g transform="translate(292.170071 321.140875)scale(0.2 -0.2)">
       <use xlink:href="#DejaVuSans-54"/>
      </g>
     </g>
    </g>
    <g id="xtick_5">
     <g id="line2d_9">
      <path clip-path="url(#p9944aca84b)" d="M 97.755429 298.944 
L 97.755429 3.456 
" style="fill:none;stroke:#b0b0b0;stroke-linecap:square;stroke-width:0.8;"/>
     </g>
     <g id="line2d_10">
      <defs>
       <path d="M 0 0 
L 0 2 
" id="m68f77e01ec" style="stroke:#000000;stroke-width:0.6;"/>
      </defs>
      <g>
       <use style="stroke:#000000;stroke-width:0.6;" x="97.755429" xlink:href="#m68f77e01ec" y="298.944"/>
      </g>
     </g>
    </g>
    <g id="xtick_6">
     <g id="line2d_11">
      <path clip-path="url(#p9944aca84b)" d="M 178.066286 298.944 
L 178.066286 3.456 
" style="fill:none;stroke:#b0b0b0;stroke-linecap:square;stroke-width:0.8;"/>
     </g>
     <g id="line2d_12">
      <g>
       <use style="stroke:#000000;stroke-width:0.6;" x="178.066286" xlink:href="#m68f77e01ec" y="298.944"/>
      </g>
     </g>
    </g>
    <g id="xtick_7">
     <g id="line2d_13">
      <path clip-path="url(#p9944aca84b)" d="M 258.377143 298.944 
L 258.377143 3.456 
" style="fill:none;stroke:#b0b0b0;stroke-linecap:square;stroke-width:0.8;"/>
     </g>
     <g id="line2d_14">
      <g>
       <use style="stroke:#000000;stroke-width:0.6;" x="258.377143" xlink:href="#m68f77e01ec" y="298.944"/>
      </g>
     </g>
    </g>
    <g id="xtick_8">
     <g id="line2d_15">
      <path clip-path="url(#p9944aca84b)" d="M 338.688 298.944 
L 338.688 3.456 
" style="fill:none;stroke:#b0b0b0;stroke-linecap:square;stroke-width:0.8;"/>
     </g>
     <g id="line2d_16">
      <g>
       <use style="stroke:#000000;stroke-width:0.6;" x="338.688" xlink:href="#m68f77e01ec" y="298.944"/>
      </g>
     </g>
    </g>
    <g id="text_5">
     <!-- log10(# f-evals / dimension) -->
     <defs>
      <path d="M 9.421875 75.984375 
L 18.40625 75.984375 
L 18.40625 0 
L 9.421875 0 
z
" id="DejaVuSans-108"/>
      <path d="M 30.609375 48.390625 
Q 23.390625 48.390625 19.1875 42.75 
Q 14.984375 37.109375 14.984375 27.296875 
Q 14.984375 17.484375 19.15625 11.84375 
Q 23.34375 6.203125 30.609375 6.203125 
Q 37.796875 6.203125 41.984375 11.859375 
Q 46.1875 17.53125 46.1875 27.296875 
Q 46.1875 37.015625 41.984375 42.703125 
Q 37.796875 48.390625 30.609375 48.390625 
z
M 30.609375 56 
Q 42.328125 56 49.015625 48.375 
Q 55.71875 40.765625 55.71875 27.296875 
Q 55.71875 13.875 49.015625 6.21875 
Q 42.328125 -1.421875 30.609375 -1.421875 
Q 18.84375 -1.421875 12.171875 6.21875 
Q 5.515625 13.875 5.515625 27.296875 
Q 5.515625 40.765625 12.171875 48.375 
Q 18.84375 56 30.609375 56 
z
" id="DejaVuSans-111"/>
      <path d="M 45.40625 27.984375 
Q 45.40625 37.75 41.375 43.109375 
Q 37.359375 48.484375 30.078125 48.484375 
Q 22.859375 48.484375 18.828125 43.109375 
Q 14.796875 37.75 14.796875 27.984375 
Q 14.796875 18.265625 18.828125 12.890625 
Q 22.859375 7.515625 30.078125 7.515625 
Q 37.359375 7.515625 41.375 12.890625 
Q 45.40625 18.265625 45.40625 27.984375 
z
M 54.390625 6.78125 
Q 54.390625 -7.171875 48.1875 -13.984375 
Q 42 -20.796875 29.203125 -20.796875 
Q 24.46875 -20.796875 20.265625 -20.09375 
Q 16.0625 -19.390625 12.109375 -17.921875 
L 12.109375 -9.1875 
Q 16.0625 -11.328125 19.921875 -12.34375 
Q 23.78125 -13.375 27.78125 -13.375 
Q 36.625 -13.375 41.015625 -8.765625 
Q 45.40625 -4.15625 45.40625 5.171875 
L 45.40625 9.625 
Q 42.625 4.78125 38.28125 2.390625 
Q 33.9375 0 27.875 0 
Q 17.828125 0 11.671875 7.65625 
Q 5.515625 15.328125 5.515625 27.984375 
Q 5.515625 40.671875 11.671875 48.328125 
Q 17.828125 56 27.875 56 
Q 33.9375 56 38.28125 53.609375 
Q 42.625 51.21875 45.40625 46.390625 
L 45.40625 54.6875 
L 54.390625 54.6875 
z
" id="DejaVuSans-103"/>
      <path d="M 12.40625 8.296875 
L 28.515625 8.296875 
L 28.515625 63.921875 
L 10.984375 60.40625 
L 10.984375 69.390625 
L 28.421875 72.90625 
L 38.28125 72.90625 
L 38.28125 8.296875 
L 54.390625 8.296875 
L 54.390625 0 
L 12.40625 0 
z
" id="DejaVuSans-49"/>
      <path d="M 31 75.875 
Q 24.46875 64.65625 21.28125 53.65625 
Q 18.109375 42.671875 18.109375 31.390625 
Q 18.109375 20.125 21.3125 9.0625 
Q 24.515625 -2 31 -13.1875 
L 23.1875 -13.1875 
Q 15.875 -1.703125 12.234375 9.375 
Q 8.59375 20.453125 8.59375 31.390625 
Q 8.59375 42.28125 12.203125 53.3125 
Q 15.828125 64.359375 23.1875 75.875 
z
" id="DejaVuSans-40"/>
      <path d="M 51.125 44 
L 36.921875 44 
L 32.8125 27.6875 
L 47.125 27.6875 
z
M 43.796875 71.78125 
L 38.71875 51.515625 
L 52.984375 51.515625 
L 58.109375 71.78125 
L 65.921875 71.78125 
L 60.890625 51.515625 
L 76.125 51.515625 
L 76.125 44 
L 58.984375 44 
L 54.984375 27.6875 
L 70.515625 27.6875 
L 70.515625 20.21875 
L 53.078125 20.21875 
L 48 0 
L 40.1875 0 
L 45.21875 20.21875 
L 30.90625 20.21875 
L 25.875 0 
L 18.015625 0 
L 23.09375 20.21875 
L 7.71875 20.21875 
L 7.71875 27.6875 
L 24.90625 27.6875 
L 29 44 
L 13.28125 44 
L 13.28125 51.515625 
L 30.90625 51.515625 
L 35.890625 71.78125 
z
" id="DejaVuSans-35"/>
      <path id="DejaVuSans-32"/>
      <path d="M 37.109375 75.984375 
L 37.109375 68.5 
L 28.515625 68.5 
Q 23.6875 68.5 21.796875 66.546875 
Q 19.921875 64.59375 19.921875 59.515625 
L 19.921875 54.6875 
L 34.71875 54.6875 
L 34.71875 47.703125 
L 19.921875 47.703125 
L 19.921875 0 
L 10.890625 0 
L 10.890625 47.703125 
L 2.296875 47.703125 
L 2.296875 54.6875 
L 10.890625 54.6875 
L 10.890625 58.5 
Q 10.890625 67.625 15.140625 71.796875 
Q 19.390625 75.984375 28.609375 75.984375 
z
" id="DejaVuSans-102"/>
      <path d="M 4.890625 31.390625 
L 31.203125 31.390625 
L 31.203125 23.390625 
L 4.890625 23.390625 
z
" id="DejaVuSans-45"/>
      <path d="M 56.203125 29.59375 
L 56.203125 25.203125 
L 14.890625 25.203125 
Q 15.484375 15.921875 20.484375 11.0625 
Q 25.484375 6.203125 34.421875 6.203125 
Q 39.59375 6.203125 44.453125 7.46875 
Q 49.3125 8.734375 54.109375 11.28125 
L 54.109375 2.78125 
Q 49.265625 0.734375 44.1875 -0.34375 
Q 39.109375 -1.421875 33.890625 -1.421875 
Q 20.796875 -1.421875 13.15625 6.1875 
Q 5.515625 13.8125 5.515625 26.8125 
Q 5.515625 40.234375 12.765625 48.109375 
Q 20.015625 56 32.328125 56 
Q 43.359375 56 49.78125 48.890625 
Q 56.203125 41.796875 56.203125 29.59375 
z
M 47.21875 32.234375 
Q 47.125 39.59375 43.09375 43.984375 
Q 39.0625 48.390625 32.421875 48.390625 
Q 24.90625 48.390625 20.390625 44.140625 
Q 15.875 39.890625 15.1875 32.171875 
z
" id="DejaVuSans-101"/>
      <path d="M 2.984375 54.6875 
L 12.5 54.6875 
L 29.59375 8.796875 
L 46.6875 54.6875 
L 56.203125 54.6875 
L 35.6875 0 
L 23.484375 0 
z
" id="DejaVuSans-118"/>
      <path d="M 34.28125 27.484375 
Q 23.390625 27.484375 19.1875 25 
Q 14.984375 22.515625 14.984375 16.5 
Q 14.984375 11.71875 18.140625 8.90625 
Q 21.296875 6.109375 26.703125 6.109375 
Q 34.1875 6.109375 38.703125 11.40625 
Q 43.21875 16.703125 43.21875 25.484375 
L 43.21875 27.484375 
z
M 52.203125 31.203125 
L 52.203125 0 
L 43.21875 0 
L 43.21875 8.296875 
Q 40.140625 3.328125 35.546875 0.953125 
Q 30.953125 -1.421875 24.3125 -1.421875 
Q 15.921875 -1.421875 10.953125 3.296875 
Q 6 8.015625 6 15.921875 
Q 6 25.140625 12.171875 29.828125 
Q 18.359375 34.515625 30.609375 34.515625 
L 43.21875 34.515625 
L 43.21875 35.40625 
Q 43.21875 41.609375 39.140625 45 
Q 35.0625 48.390625 27.6875 48.390625 
Q 23 48.390625 18.546875 47.265625 
Q 14.109375 46.140625 10.015625 43.890625 
L 10.015625 52.203125 
Q 14.9375 54.109375 19.578125 55.046875 
Q 24.21875 56 28.609375 56 
Q 40.484375 56 46.34375 49.84375 
Q 52.203125 43.703125 52.203125 31.203125 
z
" id="DejaVuSans-97"/>
      <path d="M 44.28125 53.078125 
L 44.28125 44.578125 
Q 40.484375 46.53125 36.375 47.5 
Q 32.28125 48.484375 27.875 48.484375 
Q 21.1875 48.484375 17.84375 46.4375 
Q 14.5 44.390625 14.5 40.28125 
Q 14.5 37.15625 16.890625 35.375 
Q 19.28125 33.59375 26.515625 31.984375 
L 29.59375 31.296875 
Q 39.15625 29.25 43.1875 25.515625 
Q 47.21875 21.78125 47.21875 15.09375 
Q 47.21875 7.46875 41.1875 3.015625 
Q 35.15625 -1.421875 24.609375 -1.421875 
Q 20.21875 -1.421875 15.453125 -0.5625 
Q 10.6875 0.296875 5.421875 2 
L 5.421875 11.28125 
Q 10.40625 8.6875 15.234375 7.390625 
Q 20.0625 6.109375 24.8125 6.109375 
Q 31.15625 6.109375 34.5625 8.28125 
Q 37.984375 10.453125 37.984375 14.40625 
Q 37.984375 18.0625 35.515625 20.015625 
Q 33.0625 21.96875 24.703125 23.78125 
L 21.578125 24.515625 
Q 13.234375 26.265625 9.515625 29.90625 
Q 5.8125 33.546875 5.8125 39.890625 
Q 5.8125 47.609375 11.28125 51.796875 
Q 16.75 56 26.8125 56 
Q 31.78125 56 36.171875 55.265625 
Q 40.578125 54.546875 44.28125 53.078125 
z
" id="DejaVuSans-115"/>
      <path d="M 25.390625 72.90625 
L 33.6875 72.90625 
L 8.296875 -9.28125 
L 0 -9.28125 
z
" id="DejaVuSans-47"/>
      <path d="M 45.40625 46.390625 
L 45.40625 75.984375 
L 54.390625 75.984375 
L 54.390625 0 
L 45.40625 0 
L 45.40625 8.203125 
Q 42.578125 3.328125 38.25 0.953125 
Q 33.9375 -1.421875 27.875 -1.421875 
Q 17.96875 -1.421875 11.734375 6.484375 
Q 5.515625 14.40625 5.515625 27.296875 
Q 5.515625 40.1875 11.734375 48.09375 
Q 17.96875 56 27.875 56 
Q 33.9375 56 38.25 53.625 
Q 42.578125 51.265625 45.40625 46.390625 
z
M 14.796875 27.296875 
Q 14.796875 17.390625 18.875 11.75 
Q 22.953125 6.109375 30.078125 6.109375 
Q 37.203125 6.109375 41.296875 11.75 
Q 45.40625 17.390625 45.40625 27.296875 
Q 45.40625 37.203125 41.296875 42.84375 
Q 37.203125 48.484375 30.078125 48.484375 
Q 22.953125 48.484375 18.875 42.84375 
Q 14.796875 37.203125 14.796875 27.296875 
z
" id="DejaVuSans-100"/>
      <path d="M 9.421875 54.6875 
L 18.40625 54.6875 
L 18.40625 0 
L 9.421875 0 
z
M 9.421875 75.984375 
L 18.40625 75.984375 
L 18.40625 64.59375 
L 9.421875 64.59375 
z
" id="DejaVuSans-105"/>
      <path d="M 52 44.1875 
Q 55.375 50.25 60.0625 53.125 
Q 64.75 56 71.09375 56 
Q 79.640625 56 84.28125 50.015625 
Q 88.921875 44.046875 88.921875 33.015625 
L 88.921875 0 
L 79.890625 0 
L 79.890625 32.71875 
Q 79.890625 40.578125 77.09375 44.375 
Q 74.3125 48.1875 68.609375 48.1875 
Q 61.625 48.1875 57.5625 43.546875 
Q 53.515625 38.921875 53.515625 30.90625 
L 53.515625 0 
L 44.484375 0 
L 44.484375 32.71875 
Q 44.484375 40.625 41.703125 44.40625 
Q 38.921875 48.1875 33.109375 48.1875 
Q 26.21875 48.1875 22.15625 43.53125 
Q 18.109375 38.875 18.109375 30.90625 
L 18.109375 0 
L 9.078125 0 
L 9.078125 54.6875 
L 18.109375 54.6875 
L 18.109375 46.1875 
Q 21.1875 51.21875 25.484375 53.609375 
Q 29.78125 56 35.6875 56 
Q 41.65625 56 45.828125 52.96875 
Q 50 49.953125 52 44.1875 
z
" id="DejaVuSans-109"/>
      <path d="M 54.890625 33.015625 
L 54.890625 0 
L 45.90625 0 
L 45.90625 32.71875 
Q 45.90625 40.484375 42.875 44.328125 
Q 39.84375 48.1875 33.796875 48.1875 
Q 26.515625 48.1875 22.3125 43.546875 
Q 18.109375 38.921875 18.109375 30.90625 
L 18.109375 0 
L 9.078125 0 
L 9.078125 54.6875 
L 18.109375 54.6875 
L 18.109375 46.1875 
Q 21.34375 51.125 25.703125 53.5625 
Q 30.078125 56 35.796875 56 
Q 45.21875 56 50.046875 50.171875 
Q 54.890625 44.34375 54.890625 33.015625 
z
" id="DejaVuSans-110"/>
      <path d="M 8.015625 75.875 
L 15.828125 75.875 
Q 23.140625 64.359375 26.78125 53.3125 
Q 30.421875 42.28125 30.421875 31.390625 
Q 30.421875 20.453125 26.78125 9.375 
Q 23.140625 -1.703125 15.828125 -13.1875 
L 8.015625 -13.1875 
Q 14.5 -2 17.703125 9.0625 
Q 20.90625 20.125 20.90625 31.390625 
Q 20.90625 42.671875 17.703125 53.65625 
Q 14.5 64.65625 8.015625 75.875 
z
" id="DejaVuSans-41"/>
     </defs>
     <g transform="translate(77.764078 342.217594)scale(0.17 -0.17)">
      <use xlink:href="#DejaVuSans-108"/>
      <use x="27.783203" xlink:href="#DejaVuSans-111"/>
      <use x="88.964844" xlink:href="#DejaVuSans-103"/>
      <use x="152.441406" xlink:href="#DejaVuSans-49"/>
      <use x="216.064453" xlink:href="#DejaVuSans-48"/>
      <use x="279.6875" xlink:href="#DejaVuSans-40"/>
      <use x="318.701172" xlink:href="#DejaVuSans-35"/>
      <use x="402.490234" xlink:href="#DejaVuSans-32"/>
      <use x="434.277344" xlink:href="#DejaVuSans-102"/>
      <use x="463.982422" xlink:href="#DejaVuSans-45"/>
      <use x="500.066406" xlink:href="#DejaVuSans-101"/>
      <use x="561.589844" xlink:href="#DejaVuSans-118"/>
      <use x="620.769531" xlink:href="#DejaVuSans-97"/>
      <use x="682.048828" xlink:href="#DejaVuSans-108"/>
      <use x="709.832031" xlink:href="#DejaVuSans-115"/>
      <use x="761.931641" xlink:href="#DejaVuSans-32"/>
      <use x="793.71875" xlink:href="#DejaVuSans-47"/>
      <use x="827.410156" xlink:href="#DejaVuSans-32"/>
      <use x="859.197266" xlink:href="#DejaVuSans-100"/>
      <use x="922.673828" xlink:href="#DejaVuSans-105"/>
      <use x="950.457031" xlink:href="#DejaVuSans-109"/>
      <use x="1047.869141" xlink:href="#DejaVuSans-101"/>
      <use x="1109.392578" xlink:href="#DejaVuSans-110"/>
      <use x="1172.771484" xlink:href="#DejaVuSans-115"/>
      <use x="1224.871094" xlink:href="#DejaVuSans-105"/>
      <use x="1252.654297" xlink:href="#DejaVuSans-111"/>
      <use x="1313.835938" xlink:href="#DejaVuSans-110"/>
      <use x="1377.214844" xlink:href="#DejaVuSans-41"/>
     </g>
    </g>
   </g>
   <g id="matplotlib.axis_2">
    <g id="ytick_1">
     <g id="line2d_17">
      <path clip-path="url(#p9944aca84b)" d="M 57.6 298.944 
L 338.688 298.944 
" style="fill:none;stroke:#b0b0b0;stroke-linecap:square;stroke-width:0.8;"/>
     </g>
     <g id="line2d_18">
      <defs>
       <path d="M 0 0 
L -3.5 0 
" id="m269d677a42" style="stroke:#000000;stroke-width:0.8;"/>
      </defs>
      <g>
       <use style="stroke:#000000;stroke-width:0.8;" x="57.6" xlink:href="#m269d677a42" y="298.944"/>
      </g>
     </g>
     <g id="text_6">
      <!-- 0.0 -->
      <defs>
       <path d="M 10.6875 12.40625 
L 21 12.40625 
L 21 0 
L 10.6875 0 
z
" id="DejaVuSans-46"/>
      </defs>
      <g transform="translate(25.155 305.02275)scale(0.16 -0.16)">
       <use xlink:href="#DejaVuSans-48"/>
       <use x="63.623047" xlink:href="#DejaVuSans-46"/>
       <use x="95.410156" xlink:href="#DejaVuSans-48"/>
      </g>
     </g>
    </g>
    <g id="ytick_2">
     <g id="line2d_19">
      <path clip-path="url(#p9944aca84b)" d="M 57.6 240.431525 
L 338.688 240.431525 
" style="fill:none;stroke:#b0b0b0;stroke-linecap:square;stroke-width:0.8;"/>
     </g>
     <g id="line2d_20">
      <g>
       <use style="stroke:#000000;stroke-width:0.8;" x="57.6" xlink:href="#m269d677a42" y="240.431525"/>
      </g>
     </g>
     <g id="text_7">
      <!-- 0.2 -->
      <g transform="translate(25.155 246.510275)scale(0.16 -0.16)">
       <use xlink:href="#DejaVuSans-48"/>
       <use x="63.623047" xlink:href="#DejaVuSans-46"/>
       <use x="95.410156" xlink:href="#DejaVuSans-50"/>
      </g>
     </g>
    </g>
    <g id="ytick_3">
     <g id="line2d_21">
      <path clip-path="url(#p9944aca84b)" d="M 57.6 181.91905 
L 338.688 181.91905 
" style="fill:none;stroke:#b0b0b0;stroke-linecap:square;stroke-width:0.8;"/>
     </g>
     <g id="line2d_22">
      <g>
       <use style="stroke:#000000;stroke-width:0.8;" x="57.6" xlink:href="#m269d677a42" y="181.91905"/>
      </g>
     </g>
     <g id="text_8">
      <!-- 0.4 -->
      <g transform="translate(25.155 187.9978)scale(0.16 -0.16)">
       <use xlink:href="#DejaVuSans-48"/>
       <use x="63.623047" xlink:href="#DejaVuSans-46"/>
       <use x="95.410156" xlink:href="#DejaVuSans-52"/>
      </g>
     </g>
    </g>
    <g id="ytick_4">
     <g id="line2d_23">
      <path clip-path="url(#p9944aca84b)" d="M 57.6 123.406574 
L 338.688 123.406574 
" style="fill:none;stroke:#b0b0b0;stroke-linecap:square;stroke-width:0.8;"/>
     </g>
     <g id="line2d_24">
      <g>
       <use style="stroke:#000000;stroke-width:0.8;" x="57.6" xlink:href="#m269d677a42" y="123.406574"/>
      </g>
     </g>
     <g id="text_9">
      <!-- 0.6 -->
      <g transform="translate(25.155 129.485324)scale(0.16 -0.16)">
       <use xlink:href="#DejaVuSans-48"/>
       <use x="63.623047" xlink:href="#DejaVuSans-46"/>
       <use x="95.410156" xlink:href="#DejaVuSans-54"/>
      </g>
     </g>
    </g>
    <g id="ytick_5">
     <g id="line2d_25">
      <path clip-path="url(#p9944aca84b)" d="M 57.6 64.894099 
L 338.688 64.894099 
" style="fill:none;stroke:#b0b0b0;stroke-linecap:square;stroke-width:0.8;"/>
     </g>
     <g id="line2d_26">
      <g>
       <use style="stroke:#000000;stroke-width:0.8;" x="57.6" xlink:href="#m269d677a42" y="64.894099"/>
      </g>
     </g>
     <g id="text_10">
      <!-- 0.8 -->
      <defs>
       <path d="M 31.78125 34.625 
Q 24.75 34.625 20.71875 30.859375 
Q 16.703125 27.09375 16.703125 20.515625 
Q 16.703125 13.921875 20.71875 10.15625 
Q 24.75 6.390625 31.78125 6.390625 
Q 38.8125 6.390625 42.859375 10.171875 
Q 46.921875 13.96875 46.921875 20.515625 
Q 46.921875 27.09375 42.890625 30.859375 
Q 38.875 34.625 31.78125 34.625 
z
M 21.921875 38.8125 
Q 15.578125 40.375 12.03125 44.71875 
Q 8.5 49.078125 8.5 55.328125 
Q 8.5 64.0625 14.71875 69.140625 
Q 20.953125 74.21875 31.78125 74.21875 
Q 42.671875 74.21875 48.875 69.140625 
Q 55.078125 64.0625 55.078125 55.328125 
Q 55.078125 49.078125 51.53125 44.71875 
Q 48 40.375 41.703125 38.8125 
Q 48.828125 37.15625 52.796875 32.3125 
Q 56.78125 27.484375 56.78125 20.515625 
Q 56.78125 9.90625 50.3125 4.234375 
Q 43.84375 -1.421875 31.78125 -1.421875 
Q 19.734375 -1.421875 13.25 4.234375 
Q 6.78125 9.90625 6.78125 20.515625 
Q 6.78125 27.484375 10.78125 32.3125 
Q 14.796875 37.15625 21.921875 38.8125 
z
M 18.3125 54.390625 
Q 18.3125 48.734375 21.84375 45.5625 
Q 25.390625 42.390625 31.78125 42.390625 
Q 38.140625 42.390625 41.71875 45.5625 
Q 45.3125 48.734375 45.3125 54.390625 
Q 45.3125 60.0625 41.71875 63.234375 
Q 38.140625 66.40625 31.78125 66.40625 
Q 25.390625 66.40625 21.84375 63.234375 
Q 18.3125 60.0625 18.3125 54.390625 
z
" id="DejaVuSans-56"/>
      </defs>
      <g transform="translate(25.155 70.972849)scale(0.16 -0.16)">
       <use xlink:href="#DejaVuSans-48"/>
       <use x="63.623047" xlink:href="#DejaVuSans-46"/>
       <use x="95.410156" xlink:href="#DejaVuSans-56"/>
      </g>
     </g>
    </g>
    <g id="ytick_6">
     <g id="line2d_27">
      <path clip-path="url(#p9944aca84b)" d="M 57.6 6.381624 
L 338.688 6.381624 
" style="fill:none;stroke:#b0b0b0;stroke-linecap:square;stroke-width:0.8;"/>
     </g>
     <g id="line2d_28">
      <g>
       <use style="stroke:#000000;stroke-width:0.8;" x="57.6" xlink:href="#m269d677a42" y="6.381624"/>
      </g>
     </g>
     <g id="text_11">
      <!-- 1.0 -->
      <g transform="translate(25.155 12.460374)scale(0.16 -0.16)">
       <use xlink:href="#DejaVuSans-49"/>
       <use x="63.623047" xlink:href="#DejaVuSans-46"/>
       <use x="95.410156" xlink:href="#DejaVuSans-48"/>
      </g>
     </g>
    </g>
    <g id="text_12">
     <!-- Fraction of function,target pairs -->
     <defs>
      <path d="M 9.8125 72.90625 
L 51.703125 72.90625 
L 51.703125 64.59375 
L 19.671875 64.59375 
L 19.671875 43.109375 
L 48.578125 43.109375 
L 48.578125 34.8125 
L 19.671875 34.8125 
L 19.671875 0 
L 9.8125 0 
z
" id="DejaVuSans-70"/>
      <path d="M 41.109375 46.296875 
Q 39.59375 47.171875 37.8125 47.578125 
Q 36.03125 48 33.890625 48 
Q 26.265625 48 22.1875 43.046875 
Q 18.109375 38.09375 18.109375 28.8125 
L 18.109375 0 
L 9.078125 0 
L 9.078125 54.6875 
L 18.109375 54.6875 
L 18.109375 46.1875 
Q 20.953125 51.171875 25.484375 53.578125 
Q 30.03125 56 36.53125 56 
Q 37.453125 56 38.578125 55.875 
Q 39.703125 55.765625 41.0625 55.515625 
z
" id="DejaVuSans-114"/>
      <path d="M 48.78125 52.59375 
L 48.78125 44.1875 
Q 44.96875 46.296875 41.140625 47.34375 
Q 37.3125 48.390625 33.40625 48.390625 
Q 24.65625 48.390625 19.8125 42.84375 
Q 14.984375 37.3125 14.984375 27.296875 
Q 14.984375 17.28125 19.8125 11.734375 
Q 24.65625 6.203125 33.40625 6.203125 
Q 37.3125 6.203125 41.140625 7.25 
Q 44.96875 8.296875 48.78125 10.40625 
L 48.78125 2.09375 
Q 45.015625 0.34375 40.984375 -0.53125 
Q 36.96875 -1.421875 32.421875 -1.421875 
Q 20.0625 -1.421875 12.78125 6.34375 
Q 5.515625 14.109375 5.515625 27.296875 
Q 5.515625 40.671875 12.859375 48.328125 
Q 20.21875 56 33.015625 56 
Q 37.15625 56 41.109375 55.140625 
Q 45.0625 54.296875 48.78125 52.59375 
z
" id="DejaVuSans-99"/>
      <path d="M 18.3125 70.21875 
L 18.3125 54.6875 
L 36.8125 54.6875 
L 36.8125 47.703125 
L 18.3125 47.703125 
L 18.3125 18.015625 
Q 18.3125 11.328125 20.140625 9.421875 
Q 21.96875 7.515625 27.59375 7.515625 
L 36.8125 7.515625 
L 36.8125 0 
L 27.59375 0 
Q 17.1875 0 13.234375 3.875 
Q 9.28125 7.765625 9.28125 18.015625 
L 9.28125 47.703125 
L 2.6875 47.703125 
L 2.6875 54.6875 
L 9.28125 54.6875 
L 9.28125 70.21875 
z
" id="DejaVuSans-116"/>
      <path d="M 8.5 21.578125 
L 8.5 54.6875 
L 17.484375 54.6875 
L 17.484375 21.921875 
Q 17.484375 14.15625 20.5 10.265625 
Q 23.53125 6.390625 29.59375 6.390625 
Q 36.859375 6.390625 41.078125 11.03125 
Q 45.3125 15.671875 45.3125 23.6875 
L 45.3125 54.6875 
L 54.296875 54.6875 
L 54.296875 0 
L 45.3125 0 
L 45.3125 8.40625 
Q 42.046875 3.421875 37.71875 1 
Q 33.40625 -1.421875 27.6875 -1.421875 
Q 18.265625 -1.421875 13.375 4.4375 
Q 8.5 10.296875 8.5 21.578125 
z
M 31.109375 56 
z
" id="DejaVuSans-117"/>
      <path d="M 11.71875 12.40625 
L 22.015625 12.40625 
L 22.015625 4 
L 14.015625 -11.625 
L 7.71875 -11.625 
L 11.71875 4 
z
" id="DejaVuSans-44"/>
      <path d="M 18.109375 8.203125 
L 18.109375 -20.796875 
L 9.078125 -20.796875 
L 9.078125 54.6875 
L 18.109375 54.6875 
L 18.109375 46.390625 
Q 20.953125 51.265625 25.265625 53.625 
Q 29.59375 56 35.59375 56 
Q 45.5625 56 51.78125 48.09375 
Q 58.015625 40.1875 58.015625 27.296875 
Q 58.015625 14.40625 51.78125 6.484375 
Q 45.5625 -1.421875 35.59375 -1.421875 
Q 29.59375 -1.421875 25.265625 0.953125 
Q 20.953125 3.328125 18.109375 8.203125 
z
M 48.6875 27.296875 
Q 48.6875 37.203125 44.609375 42.84375 
Q 40.53125 48.484375 33.40625 48.484375 
Q 26.265625 48.484375 22.1875 42.84375 
Q 18.109375 37.203125 18.109375 27.296875 
Q 18.109375 17.390625 22.1875 11.75 
Q 26.265625 6.109375 33.40625 6.109375 
Q 40.53125 6.109375 44.609375 11.75 
Q 48.6875 17.390625 48.6875 27.296875 
z
" id="DejaVuSans-112"/>
     </defs>
     <g transform="translate(17.619531 285.585)rotate(-90)scale(0.17 -0.17)">
      <use xlink:href="#DejaVuSans-70"/>
      <use x="50.269531" xlink:href="#DejaVuSans-114"/>
      <use x="91.382812" xlink:href="#DejaVuSans-97"/>
      <use x="152.662109" xlink:href="#DejaVuSans-99"/>
      <use x="207.642578" xlink:href="#DejaVuSans-116"/>
      <use x="246.851562" xlink:href="#DejaVuSans-105"/>
      <use x="274.634766" xlink:href="#DejaVuSans-111"/>
      <use x="335.816406" xlink:href="#DejaVuSans-110"/>
      <use x="399.195312" xlink:href="#DejaVuSans-32"/>
      <use x="430.982422" xlink:href="#DejaVuSans-111"/>
      <use x="492.164062" xlink:href="#DejaVuSans-102"/>
      <use x="527.369141" xlink:href="#DejaVuSans-32"/>
      <use x="559.15625" xlink:href="#DejaVuSans-102"/>
      <use x="594.361328" xlink:href="#DejaVuSans-117"/>
      <use x="657.740234" xlink:href="#DejaVuSans-110"/>
      <use x="721.119141" xlink:href="#DejaVuSans-99"/>
      <use x="776.099609" xlink:href="#DejaVuSans-116"/>
      <use x="815.308594" xlink:href="#DejaVuSans-105"/>
      <use x="843.091797" xlink:href="#DejaVuSans-111"/>
      <use x="904.273438" xlink:href="#DejaVuSans-110"/>
      <use x="967.652344" xlink:href="#DejaVuSans-44"/>
      <use x="999.439453" xlink:href="#DejaVuSans-116"/>
      <use x="1038.648438" xlink:href="#DejaVuSans-97"/>
      <use x="1099.927734" xlink:href="#DejaVuSans-114"/>
      <use x="1139.291016" xlink:href="#DejaVuSans-103"/>
      <use x="1202.767578" xlink:href="#DejaVuSans-101"/>
      <use x="1264.291016" xlink:href="#DejaVuSans-116"/>
      <use x="1303.5" xlink:href="#DejaVuSans-32"/>
      <use x="1335.287109" xlink:href="#DejaVuSans-112"/>
      <use x="1398.763672" xlink:href="#DejaVuSans-97"/>
      <use x="1460.042969" xlink:href="#DejaVuSans-105"/>
      <use x="1487.826172" xlink:href="#DejaVuSans-114"/>
      <use x="1528.939453" xlink:href="#DejaVuSans-115"/>
     </g>
    </g>
   </g>
   <g id="line2d_29">
    <defs>
     <path d="M 0 1.5 
C 0.397805 1.5 0.77937 1.341951 1.06066 1.06066 
C 1.341951 0.77937 1.5 0.397805 1.5 0 
C 1.5 -0.397805 1.341951 -0.77937 1.06066 -1.06066 
C 0.77937 -1.341951 0.397805 -1.5 0 -1.5 
C -0.397805 -1.5 -0.77937 -1.341951 -1.06066 -1.06066 
C -1.341951 -0.77937 -1.5 -0.397805 -1.5 0 
C -1.5 0.397805 -1.341951 0.77937 -1.06066 1.06066 
C -0.77937 1.341951 -0.397805 1.5 0 1.5 
z
" id="m50644ff167" style="stroke:#000080;"/>
    </defs>
    <g>
     <use style="fill:#000080;stroke:#000080;" x="223.27679" xlink:href="#m50644ff167" y="29.327692"/>
     <use style="fill:#000080;stroke:#000080;" x="223.27679" xlink:href="#m50644ff167" y="29.327692"/>
    </g>
   </g>
   <g id="line2d_30">
    <path d="M 106.48859 298.944 
L 106.48859 266.819504 
L 107.009204 266.819504 
L 107.009204 254.772818 
L 107.514726 254.772818 
L 107.514726 253.625514 
L 109.401893 253.625514 
L 109.401893 251.330907 
L 111.104637 251.330907 
L 111.104637 250.183604 
L 114.751048 250.183604 
L 114.751048 248.462649 
L 131.185181 248.462649 
L 131.185181 247.888997 
L 134.019394 247.888997 
L 134.019394 247.315345 
L 134.55603 247.315345 
L 134.55603 246.741694 
L 135.076644 246.741694 
L 135.076644 246.168042 
L 135.582166 246.168042 
L 135.582166 245.020738 
L 135.878591 245.020738 
L 135.878591 244.447087 
L 136.170062 244.447087 
L 136.170062 242.15248 
L 137.016339 242.15248 
L 137.016339 241.578828 
L 137.198951 241.578828 
L 137.198951 239.857873 
L 138.084384 239.857873 
L 138.084384 238.136918 
L 138.510793 238.136918 
L 138.510793 237.563266 
L 138.67848 237.563266 
L 138.67848 236.989614 
L 138.84457 236.989614 
L 138.84457 236.415963 
L 139.009092 236.415963 
L 139.009092 235.842311 
L 139.172077 235.842311 
L 139.172077 235.268659 
L 139.652088 235.268659 
L 139.652088 234.695008 
L 139.8092 234.695008 
L 139.8092 234.121356 
L 140.499195 234.121356 
L 140.499195 233.547704 
L 141.45 233.547704 
L 141.45 232.974052 
L 141.732423 232.974052 
L 141.732423 232.400401 
L 144.148442 232.400401 
L 144.148442 231.826749 
L 144.981877 231.826749 
L 144.981877 231.253097 
L 146.749392 231.253097 
L 146.749392 230.679446 
L 147.317833 230.679446 
L 147.317833 230.105794 
L 147.71991 230.105794 
L 147.818997 228.384839 
L 148.015498 228.384839 
L 148.015498 227.811187 
L 148.161434 227.811187 
L 148.161434 227.237535 
L 148.354135 227.237535 
L 148.354135 225.51658 
L 148.592055 225.51658 
L 148.592055 224.369277 
L 148.919783 224.369277 
L 149.012299 222.07467 
L 149.104327 222.07467 
L 149.104327 221.501018 
L 149.286939 221.501018 
L 149.377533 218.632759 
L 149.646525 218.632759 
L 149.735275 216.911804 
L 149.823575 216.911804 
L 149.911431 215.190849 
L 149.998846 215.190849 
L 149.998846 214.617197 
L 150.47195 214.617197 
L 150.47195 214.043546 
L 150.891184 214.043546 
L 150.891184 213.469894 
L 151.340991 213.469894 
L 151.421542 210.601635 
L 151.581536 210.601635 
L 151.660987 208.88068 
L 151.818809 208.88068 
L 151.897188 206.586073 
L 152.052897 206.586073 
L 152.052897 205.43877 
L 152.283884 205.43877 
L 152.360205 203.717815 
L 152.436193 203.717815 
L 152.436193 202.570511 
L 152.549559 202.570511 
L 152.624728 200.849556 
L 152.699575 200.849556 
L 152.774102 199.128601 
L 152.922207 199.128601 
L 153.032466 196.833994 
L 157.069866 196.833994 
L 157.069866 196.260342 
L 157.557108 196.260342 
L 157.58535 195.113039 
L 157.781772 195.113039 
L 157.86528 192.24478 
L 157.976006 192.24478 
L 158.086033 191.097477 
L 158.222599 191.097477 
L 158.331086 188.80287 
L 158.358103 188.80287 
L 158.465753 187.655567 
L 158.492562 187.655567 
L 158.492562 187.081915 
L 158.784773 187.081915 
L 158.784773 186.508263 
L 159.020266 186.508263 
L 159.020266 185.934612 
L 159.201253 185.934612 
L 159.201253 185.36096 
L 159.557689 185.36096 
L 159.557689 183.640005 
L 161.667653 183.640005 
L 161.667653 183.066353 
L 161.84538 183.066353 
L 161.955547 181.91905 
L 162.021314 181.91905 
L 162.130378 180.771746 
L 162.152109 180.771746 
L 162.19549 179.624443 
L 162.324991 179.624443 
L 162.324991 179.050791 
L 162.453536 179.050791 
L 162.453536 178.477139 
L 162.581141 178.477139 
L 162.68677 176.756184 
L 163.144084 176.756184 
L 163.205526 175.035229 
L 163.327764 175.035229 
L 163.327764 174.461577 
L 163.52961 174.461577 
L 163.589711 173.314274 
L 163.649606 173.314274 
L 163.669525 171.593319 
L 163.788565 171.593319 
L 163.867476 169.298712 
L 163.946031 169.298712 
L 164.024234 167.004105 
L 164.082658 167.004105 
L 164.140886 165.28315 
L 164.429145 165.28315 
L 164.505216 162.988543 
L 164.543127 162.988543 
L 164.543127 162.414891 
L 164.65637 162.414891 
L 164.712717 161.267588 
L 165.065412 161.267588 
L 165.065412 160.693936 
L 165.248216 160.693936 
L 165.320804 158.972981 
L 166.459886 158.972981 
L 166.459886 158.399329 
L 166.74592 158.399329 
L 166.74592 157.825677 
L 167.576907 157.825677 
L 167.624577 156.104722 
L 167.751064 156.104722 
L 167.751064 155.53107 
L 168.01684 155.53107 
L 168.063324 154.383767 
L 168.171308 154.383767 
L 168.171308 153.810115 
L 168.71633 153.810115 
L 168.731229 152.662812 
L 169.128764 152.662812 
L 169.128764 152.08916 
L 169.259288 152.08916 
L 169.360135 150.941857 
L 169.53167 150.941857 
L 169.53167 150.368205 
L 169.855803 150.368205 
L 169.855803 149.794553 
L 170.077786 149.794553 
L 170.187727 148.073598 
L 170.26973 148.073598 
L 170.310587 146.926295 
L 170.392016 146.926295 
L 170.392016 146.352643 
L 170.526891 146.352643 
L 170.59394 145.20534 
L 170.846398 145.20534 
L 170.938496 143.484384 
L 171.003983 143.484384 
L 171.108254 141.763429 
L 171.198983 141.763429 
L 171.224819 139.468822 
L 171.340609 139.468822 
L 171.391826 137.747867 
L 171.455636 137.747867 
L 171.46837 136.600564 
L 171.569909 136.600564 
L 171.569909 136.026912 
L 171.721118 136.026912 
L 171.721118 134.879609 
L 171.846131 134.879609 
L 171.846131 134.305957 
L 172.409924 134.305957 
L 172.446067 133.158653 
L 172.803442 133.158653 
L 172.83878 132.01135 
L 173.199806 132.01135 
L 173.199806 130.864047 
L 173.371849 130.864047 
L 173.371849 130.290395 
L 173.609893 130.290395 
L 173.609893 129.716743 
L 173.822502 129.716743 
L 173.844732 128.56944 
L 174.010558 128.56944 
L 174.010558 127.995788 
L 174.294307 127.995788 
L 174.305129 126.848485 
L 174.423728 126.848485 
L 174.455933 125.701181 
L 175.025688 125.701181 
L 175.08786 124.553878 
L 175.180705 124.553878 
L 175.180705 123.406574 
L 175.385274 123.406574 
L 175.395439 122.259271 
L 175.717652 122.259271 
L 175.817135 121.111967 
L 175.896315 121.111967 
L 175.896315 120.538316 
L 176.363988 120.538316 
L 176.363988 119.964664 
L 176.498063 119.964664 
L 176.52666 117.670057 
L 176.659495 117.670057 
L 176.744358 115.949102 
L 176.781943 115.949102 
L 176.781943 115.37545 
L 176.94078 115.37545 
L 176.94078 114.801798 
L 177.2176 114.801798 
L 177.226752 113.654495 
L 177.399735 113.654495 
L 177.399735 113.080843 
L 177.517111 113.080843 
L 177.562046 111.93354 
L 177.855749 111.93354 
L 177.934998 110.786236 
L 178.10983 110.786236 
L 178.10983 110.212585 
L 178.556354 110.212585 
L 178.556354 109.065281 
L 178.767027 109.065281 
L 178.783772 107.917978 
L 178.950337 107.917978 
L 178.950337 107.344326 
L 179.139941 107.344326 
L 179.238053 106.197023 
L 179.311276 106.197023 
L 179.311276 105.623371 
L 179.553156 105.623371 
L 179.553156 104.476068 
L 179.839052 104.476068 
L 179.901953 102.181461 
L 180.07377 102.181461 
L 180.07377 101.607809 
L 180.313038 101.607809 
L 180.420028 98.73955 
L 180.427645 98.73955 
L 180.450477 97.592247 
L 180.729632 97.592247 
L 180.729632 97.018595 
L 180.863838 97.018595 
L 180.967511 95.871292 
L 181.440939 95.871292 
L 181.440939 95.29764 
L 181.562667 95.29764 
L 181.584061 94.150337 
L 181.704798 94.150337 
L 181.76838 92.429381 
L 181.887852 92.429381 
L 181.887852 91.85573 
L 182.027367 91.85573 
L 182.117457 90.134775 
L 182.947573 90.134775 
L 183.026484 88.413819 
L 183.072351 88.413819 
L 183.170233 86.692864 
L 183.306352 86.692864 
L 183.37723 84.971909 
L 183.422185 84.971909 
L 183.505367 83.824606 
L 183.594505 83.824606 
L 183.594505 83.250954 
L 184.309967 83.250954 
L 184.309967 82.677302 
L 184.5521 82.677302 
L 184.5521 82.103651 
L 185.241629 82.103651 
L 185.241629 81.529999 
L 185.499738 81.529999 
L 185.51681 80.382695 
L 185.787717 80.382695 
L 185.832462 78.66174 
L 185.904929 78.66174 
L 186.015831 77.514437 
L 186.137014 77.514437 
L 186.246454 76.367133 
L 186.441733 76.367133 
L 186.479451 75.21983 
L 186.693433 75.21983 
L 186.693433 74.646178 
L 186.925819 74.646178 
L 186.925819 74.072526 
L 187.072105 74.072526 
L 187.072105 73.498875 
L 187.222333 73.498875 
L 187.222333 72.925223 
L 187.610002 72.925223 
L 187.720632 71.77792 
L 188.394199 71.77792 
L 188.427926 70.630616 
L 189.024118 70.630616 
L 189.033419 69.483313 
L 189.158498 69.483313 
L 189.158498 68.909661 
L 189.587093 68.909661 
L 189.587093 68.336009 
L 190.014199 68.336009 
L 190.044937 67.188706 
L 190.232575 67.188706 
L 190.336432 65.467751 
L 190.3623 65.467751 
L 190.366607 64.320447 
L 190.779466 64.320447 
L 190.86339 63.173144 
L 190.909376 63.173144 
L 190.913551 62.02584 
L 191.653151 62.02584 
L 191.752884 60.878537 
L 191.792618 60.878537 
L 191.792618 60.304885 
L 191.97031 60.304885 
L 191.997789 59.157582 
L 192.243169 59.157582 
L 192.243169 58.58393 
L 192.519441 58.58393 
L 192.519441 58.010278 
L 192.836322 58.010278 
L 192.873665 56.862975 
L 193.380999 56.862975 
L 193.388244 55.715672 
L 193.767997 55.715672 
L 193.81754 53.994716 
L 193.97584 53.994716 
L 193.97584 53.421065 
L 194.132716 53.421065 
L 194.188156 52.273761 
L 194.479761 52.273761 
L 194.479761 51.700109 
L 194.946358 51.700109 
L 194.946358 51.126458 
L 195.134145 51.126458 
L 195.134145 50.552806 
L 195.355558 50.552806 
L 195.355558 49.979154 
L 195.468434 49.979154 
L 195.468434 49.405503 
L 195.672965 49.405503 
L 195.672965 48.831851 
L 195.997177 48.831851 
L 196.090485 47.684547 
L 196.127669 47.684547 
L 196.127669 47.110896 
L 196.807602 47.110896 
L 196.807602 46.537244 
L 196.976471 46.537244 
L 196.976471 45.963592 
L 197.158315 45.963592 
L 197.158315 45.389941 
L 197.346944 45.389941 
L 197.346944 44.816289 
L 197.66442 44.816289 
L 197.66442 44.242637 
L 198.015154 44.242637 
L 198.015154 43.668985 
L 198.21402 43.668985 
L 198.21402 43.095334 
L 198.551284 43.095334 
L 198.551284 42.521682 
L 199.071423 42.521682 
L 199.071423 41.94803 
L 199.629754 41.94803 
L 199.629754 41.374379 
L 200.077228 41.374379 
L 200.077228 40.800727 
L 202.499762 40.800727 
L 202.499762 40.227075 
L 202.917857 40.227075 
L 202.917857 39.653423 
L 203.387512 39.653423 
L 203.387512 39.079772 
L 204.09558 39.079772 
L 204.177712 37.932468 
L 204.596005 37.932468 
L 204.596005 37.358817 
L 204.956057 37.358817 
L 204.956057 36.785165 
L 208.052389 36.785165 
L 208.052389 36.211513 
L 208.351325 36.211513 
L 208.351325 35.637861 
L 209.865413 35.637861 
L 209.865413 35.06421 
L 210.259388 35.06421 
L 210.259388 34.490558 
L 210.897301 34.490558 
L 210.897301 33.916906 
L 212.561734 33.916906 
L 212.561734 33.343255 
L 212.697514 33.343255 
L 212.697514 32.769603 
L 213.360997 32.769603 
L 213.360997 32.195951 
L 216.627715 32.195951 
L 216.627715 31.622299 
L 217.679737 31.622299 
L 217.679737 31.048648 
L 218.655738 31.048648 
L 218.655738 30.474996 
L 219.658067 30.474996 
L 219.658067 29.901344 
L 223.27679 29.901344 
L 223.27679 29.327692 
L 338.688 29.327692 
L 338.688 29.327692 
" style="fill:none;stroke:#000080;stroke-linecap:square;stroke-width:1.5;"/>
   </g>
   <g id="line2d_31">
    <defs>
     <path d="M 0 6 
C 1.591219 6 3.117479 5.367802 4.242641 4.242641 
C 5.367802 3.117479 6 1.591219 6 0 
C 6 -1.591219 5.367802 -3.117479 4.242641 -4.242641 
C 3.117479 -5.367802 1.591219 -6 0 -6 
C -1.591219 -6 -3.117479 -5.367802 -4.242641 -4.242641 
C -5.367802 -3.117479 -6 -1.591219 -6 0 
C -6 1.591219 -5.367802 3.117479 -4.242641 4.242641 
C -3.117479 5.367802 -1.591219 6 0 6 
z
" id="mbf5b95dce9" style="stroke:#000080;stroke-width:1.5;"/>
    </defs>
    <g>
     <use style="fill-opacity:0;stroke:#000080;stroke-width:1.5;" x="158.358103" xlink:href="#mbf5b95dce9" y="188.229218"/>
     <use style="fill-opacity:0;stroke:#000080;stroke-width:1.5;" x="189.024118" xlink:href="#mbf5b95dce9" y="70.056964"/>
     <use style="fill-opacity:0;stroke:#000080;stroke-width:1.5;" x="223.27679" xlink:href="#mbf5b95dce9" y="29.327692"/>
     <use style="fill-opacity:0;stroke:#000080;stroke-width:1.5;" x="223.27679" xlink:href="#mbf5b95dce9" y="29.327692"/>
     <use style="fill-opacity:0;stroke:#000080;stroke-width:1.5;" x="338.688" xlink:href="#mbf5b95dce9" y="29.327692"/>
    </g>
   </g>
   <g id="line2d_32">
    <path style="fill:none;stroke:#000080;stroke-linecap:square;stroke-width:1.5;"/>
    <g/>
   </g>
   <g id="line2d_33">
    <path clip-path="url(#p9944aca84b)" d="M 152.474064 202.570511 
" style="fill:none;stroke:#000080;stroke-linecap:square;stroke-width:1.5;"/>
    <defs>
     <path d="M -12 12 
L 12 -12 
M -12 -12 
L 12 12 
" id="m9cb2df6a36" style="stroke:#000080;"/>
    </defs>
    <g clip-path="url(#p9944aca84b)">
     <use style="fill:#000080;stroke:#000080;" x="152.474064" xlink:href="#m9cb2df6a36" y="202.570511"/>
    </g>
   </g>
   <g id="line2d_34">
    <defs>
     <path d="M 0 1.5 
C 0.397805 1.5 0.77937 1.341951 1.06066 1.06066 
C 1.341951 0.77937 1.5 0.397805 1.5 0 
C 1.5 -0.397805 1.341951 -0.77937 1.06066 -1.06066 
C 0.77937 -1.341951 0.397805 -1.5 0 -1.5 
C -0.397805 -1.5 -0.77937 -1.341951 -1.06066 -1.06066 
C -1.341951 -0.77937 -1.5 -0.397805 -1.5 0 
C -1.5 0.397805 -1.341951 0.77937 -1.06066 1.06066 
C -0.77937 1.341951 -0.397805 1.5 0 1.5 
z
" id="ma3524a0cbc" style="stroke:#ff00ff;"/>
    </defs>
    <g>
     <use style="fill:#ff00ff;stroke:#ff00ff;" x="179.894103" xlink:href="#ma3524a0cbc" y="6.381624"/>
     <use style="fill:#ff00ff;stroke:#ff00ff;" x="179.894103" xlink:href="#ma3524a0cbc" y="6.381624"/>
    </g>
   </g>
   <g id="line2d_35">
    <path d="M 45.512012 298.944 
L 45.512012 267.966807 
L 93.863965 267.966807 
L 93.863965 267.393156 
L 94.921215 267.393156 
L 94.921215 266.819504 
L 97.755429 266.819504 
L 97.755429 266.245852 
L 99.41757 266.245852 
L 99.41757 265.098549 
L 100.192776 265.098549 
L 100.192776 262.803942 
L 101.646892 262.803942 
L 101.646892 261.656638 
L 102.330873 261.656638 
L 102.330873 261.082987 
L 102.989037 261.082987 
L 102.989037 259.935683 
L 103.623262 259.935683 
L 103.623262 258.78838 
L 104.23523 258.78838 
L 104.23523 258.214728 
L 104.826449 258.214728 
L 104.826449 257.641076 
L 105.398279 257.641076 
L 105.398279 256.493773 
L 113.382559 256.493773 
L 113.382559 255.920121 
L 117.202696 255.920121 
L 117.202696 255.346469 
L 118.039942 255.346469 
L 118.039942 254.772818 
L 118.310324 254.772818 
L 118.310324 253.625514 
L 118.576578 253.625514 
L 118.576578 253.051863 
L 119.097192 253.051863 
L 119.097192 251.904559 
L 119.351785 251.904559 
L 119.351785 251.330907 
L 119.850084 251.330907 
L 119.850084 250.183604 
L 120.093994 250.183604 
L 120.093994 249.609952 
L 120.33454 249.609952 
L 120.33454 246.168042 
L 120.571812 246.168042 
L 120.571812 243.299783 
L 120.8059 243.299783 
L 120.8059 242.726132 
L 121.036887 242.726132 
L 121.036887 242.15248 
L 121.264855 242.15248 
L 121.264855 241.005176 
L 121.712041 241.005176 
L 121.712041 240.431525 
L 121.931406 240.431525 
L 121.931406 237.563266 
L 122.362027 237.563266 
L 122.362027 235.842311 
L 122.782271 235.842311 
L 122.782271 235.268659 
L 122.988655 235.268659 
L 122.988655 233.547704 
L 123.192626 233.547704 
L 123.192626 232.974052 
L 123.394238 232.974052 
L 123.394238 232.400401 
L 123.593547 232.400401 
L 123.593547 227.237535 
L 123.790603 227.237535 
L 123.790603 226.090232 
L 123.985457 226.090232 
L 123.985457 220.353715 
L 124.178158 220.353715 
L 124.178158 216.338153 
L 124.368753 216.338153 
L 124.368753 213.469894 
L 124.557288 213.469894 
L 124.557288 212.896242 
L 124.743806 212.896242 
L 124.743806 209.454332 
L 125.110962 209.454332 
L 125.110962 207.159725 
L 125.470548 207.159725 
L 125.470548 206.012422 
L 125.647598 206.012422 
L 125.647598 201.423208 
L 125.996395 201.423208 
L 125.996395 200.275904 
L 126.338353 200.275904 
L 126.338353 198.554949 
L 126.839037 198.554949 
L 126.839037 196.833994 
L 127.165014 196.833994 
L 127.165014 193.392084 
L 127.48501 193.392084 
L 127.48501 191.671129 
L 128.107907 191.671129 
L 128.107907 187.081915 
L 128.260216 187.081915 
L 128.260216 185.36096 
L 129.290685 185.36096 
L 129.290685 184.787308 
L 129.433047 184.787308 
L 129.433047 183.640005 
L 129.574256 183.640005 
L 129.574256 183.066353 
L 132.422528 183.066353 
L 132.422528 182.492701 
L 132.893889 182.492701 
L 132.893889 181.91905 
L 133.009765 181.91905 
L 133.009765 181.345398 
L 133.239232 181.345398 
L 133.239232 180.198094 
L 133.352844 180.198094 
L 133.352844 178.477139 
L 133.57787 178.477139 
L 133.57787 177.903487 
L 133.800029 177.903487 
L 133.800029 172.740622 
L 134.661403 172.740622 
L 134.661403 172.16697 
L 134.870259 172.16697 
L 134.870259 171.019667 
L 135.076644 171.019667 
L 135.076644 168.151408 
L 135.482227 168.151408 
L 135.482227 167.004105 
L 136.924311 167.004105 
L 136.924311 166.430453 
L 139.172077 166.430453 
L 139.172077 165.28315 
L 139.8092 165.28315 
L 139.8092 164.709498 
L 140.574203 164.709498 
L 140.574203 164.135846 
L 140.944478 164.135846 
L 141.017599 162.988543 
L 141.090414 162.988543 
L 141.162927 160.693936 
L 141.235139 160.693936 
L 141.235139 158.972981 
L 141.591783 158.972981 
L 141.591783 156.678374 
L 141.732423 156.678374 
L 141.732423 156.104722 
L 141.871938 156.104722 
L 141.941279 153.810115 
L 142.147664 153.810115 
L 142.215919 152.08916 
L 142.419098 152.08916 
L 142.419098 151.515508 
L 143.273169 151.515508 
L 143.337167 149.794553 
L 143.464461 149.794553 
L 143.464461 149.220902 
L 143.653678 149.220902 
L 143.716296 148.073598 
L 143.902815 148.073598 
L 143.902815 146.352643 
L 144.026061 146.352643 
L 144.026061 143.484384 
L 144.269971 143.484384 
L 144.269971 142.337081 
L 144.390658 142.337081 
L 144.390658 141.763429 
L 144.570138 141.763429 
L 144.570138 138.895171 
L 144.688773 138.895171 
L 144.688773 138.321519 
L 144.806606 138.321519 
L 144.806606 137.747867 
L 145.097753 137.747867 
L 145.097753 136.026912 
L 146.749392 136.026912 
L 146.854132 133.732305 
L 146.906268 133.732305 
L 146.906268 129.716743 
L 147.164632 129.716743 
L 147.164632 127.995788 
L 147.368603 127.995788 
L 147.419225 126.848485 
L 147.670154 126.848485 
L 147.769524 124.553878 
L 147.96658 124.553878 
L 148.064279 121.111967 
L 148.497276 121.111967 
L 148.497276 120.538316 
L 149.646525 120.538316 
L 149.735275 114.228147 
L 150.042389 114.228147 
L 150.085825 112.507192 
L 150.344189 112.507192 
L 150.344189 111.93354 
L 150.51433 111.93354 
L 150.51433 110.212585 
L 150.640855 110.212585 
L 150.724698 106.770674 
L 150.849711 106.770674 
L 150.849711 103.328764 
L 151.300575 103.328764 
L 151.300575 102.755112 
L 151.421542 102.755112 
L 151.461678 101.607809 
L 151.581536 101.607809 
L 151.660987 97.018595 
L 151.700576 97.018595 
L 151.700576 95.29764 
L 151.975216 95.29764 
L 152.052897 92.429381 
L 152.245598 92.429381 
L 152.245598 89.561123 
L 152.474064 89.561123 
L 152.549559 87.840168 
L 153.537988 87.840168 
L 153.537988 86.119213 
L 153.785358 86.119213 
L 153.785358 85.545561 
L 154.063835 85.545561 
L 154.167129 82.677302 
L 154.201424 82.677302 
L 154.201424 82.103651 
L 154.337936 82.103651 
L 154.439623 79.809044 
L 154.54072 79.809044 
L 154.57429 78.088089 
L 154.873541 78.088089 
L 154.873541 77.514437 
L 155.004911 77.514437 
L 155.070227 76.367133 
L 155.200129 76.367133 
L 155.296925 74.646178 
L 155.329071 74.646178 
L 155.425155 72.351571 
L 155.55245 72.351571 
L 155.61575 71.204268 
L 155.804285 71.204268 
L 155.897793 68.909661 
L 156.205916 68.909661 
L 156.236431 67.188706 
L 156.448553 67.188706 
L 156.448553 66.615054 
L 156.568618 66.615054 
L 156.568618 66.041402 
L 156.747178 66.041402 
L 156.747178 65.467751 
L 156.923929 65.467751 
L 156.923929 64.894099 
L 157.069866 64.894099 
L 157.069866 64.320447 
L 157.214591 64.320447 
L 157.214591 63.746796 
L 157.443681 63.746796 
L 157.443681 63.173144 
L 157.641697 63.173144 
L 157.641697 62.599492 
L 157.976006 62.599492 
L 158.086033 60.878537 
L 158.705563 60.878537 
L 158.811096 58.58393 
L 159.149734 58.58393 
L 159.175513 57.436627 
L 159.557689 57.436627 
L 159.557689 56.862975 
L 159.733212 56.862975 
L 159.832723 55.14202 
L 159.857512 55.14202 
L 159.882266 53.994716 
L 160.103486 53.994716 
L 160.200913 52.273761 
L 160.225184 52.273761 
L 160.225184 51.700109 
L 160.727241 51.700109 
L 160.727241 51.126458 
L 160.938061 51.126458 
L 160.961329 49.979154 
L 161.077205 49.979154 
L 161.146363 47.684547 
L 161.283861 47.684547 
L 161.329454 45.963592 
L 161.397621 45.963592 
L 161.397621 45.389941 
L 161.53316 45.389941 
L 161.53316 44.242637 
L 161.999419 44.242637 
L 161.999419 43.668985 
L 162.173813 43.668985 
L 162.173813 43.095334 
L 162.324991 43.095334 
L 162.324991 42.521682 
L 162.496175 42.521682 
L 162.496175 41.374379 
L 162.875305 41.374379 
L 162.958448 40.227075 
L 163.266752 40.227075 
L 163.307451 38.50612 
L 163.449152 38.50612 
L 163.449152 37.358817 
L 163.569701 37.358817 
L 163.649606 35.06421 
L 163.828065 35.06421 
L 163.828065 34.490558 
L 164.160252 34.490558 
L 164.160252 33.916906 
L 164.333587 33.916906 
L 164.333587 33.343255 
L 164.9363 33.343255 
L 164.991751 32.195951 
L 165.120455 32.195951 
L 165.230021 31.048648 
L 165.46508 31.048648 
L 165.572509 28.754041 
L 165.661531 28.754041 
L 165.661531 28.180389 
L 166.047915 28.180389 
L 166.117256 27.033086 
L 166.306535 27.033086 
L 166.323641 25.31213 
L 166.862349 25.31213 
L 166.91201 23.591175 
L 167.352708 23.591175 
L 167.352708 23.017524 
L 167.87664 23.017524 
L 167.87664 21.87022 
L 168.686493 21.87022 
L 168.686493 21.296568 
L 169.143315 21.296568 
L 169.143315 20.722917 
L 169.446113 20.722917 
L 169.446113 20.149265 
L 169.911564 20.149265 
L 169.911564 19.575613 
L 170.446091 19.575613 
L 170.540321 18.42831 
L 170.59394 18.42831 
L 170.59394 17.854658 
L 170.793552 17.854658 
L 170.806779 16.707355 
L 170.912232 16.707355 
L 170.912232 16.133703 
L 171.198983 16.133703 
L 171.198983 15.560051 
L 171.506517 15.560051 
L 171.506517 14.9864 
L 171.758716 14.9864 
L 171.796233 13.839096 
L 172.167033 13.839096 
L 172.167033 13.265444 
L 173.508272 13.265444 
L 173.508272 12.691793 
L 174.021557 12.691793 
L 174.12024 10.970838 
L 174.337554 10.970838 
L 174.337554 10.397186 
L 175.767465 10.397186 
L 175.767465 9.823534 
L 175.975136 9.823534 
L 175.975136 9.249882 
L 176.564717 9.249882 
L 176.593204 7.528927 
L 179.295031 7.528927 
L 179.295031 6.955275 
L 179.894103 6.955275 
L 179.894103 6.381624 
L 338.688 6.381624 
L 338.688 6.381624 
" style="fill:none;stroke:#ff00ff;stroke-linecap:square;stroke-width:1.5;"/>
   </g>
   <g id="line2d_36">
    <defs>
     <path d="M -0 8.485281 
L 5.091169 0 
L 0 -8.485281 
L -5.091169 -0 
z
" id="m474f69fda6" style="stroke:#ff00ff;stroke-linejoin:miter;stroke-width:1.5;"/>
    </defs>
    <g>
     <use style="fill-opacity:0;stroke:#ff00ff;stroke-linejoin:miter;stroke-width:1.5;" x="128.107907" xlink:href="#m474f69fda6" y="191.671129"/>
     <use style="fill-opacity:0;stroke:#ff00ff;stroke-linejoin:miter;stroke-width:1.5;" x="157.069866" xlink:href="#m474f69fda6" y="64.320447"/>
     <use style="fill-opacity:0;stroke:#ff00ff;stroke-linejoin:miter;stroke-width:1.5;" x="179.894103" xlink:href="#m474f69fda6" y="6.955275"/>
     <use style="fill-opacity:0;stroke:#ff00ff;stroke-linejoin:miter;stroke-width:1.5;" x="179.894103" xlink:href="#m474f69fda6" y="6.381624"/>
     <use style="fill-opacity:0;stroke:#ff00ff;stroke-linejoin:miter;stroke-width:1.5;" x="179.894103" xlink:href="#m474f69fda6" y="6.381624"/>
     <use style="fill-opacity:0;stroke:#ff00ff;stroke-linejoin:miter;stroke-width:1.5;" x="338.688" xlink:href="#m474f69fda6" y="6.381624"/>
    </g>
   </g>
   <g id="line2d_37">
    <path style="fill:none;stroke:#ff00ff;stroke-linecap:square;stroke-width:1.5;"/>
    <g/>
   </g>
   <g id="line2d_38">
    <path clip-path="url(#p9944aca84b)" d="M 151.056095 103.328764 
" style="fill:none;stroke:#ff00ff;stroke-linecap:square;stroke-width:1.5;"/>
    <defs>
     <path d="M -12 12 
L 12 -12 
M -12 -12 
L 12 12 
" id="m2fdae573c0" style="stroke:#ff00ff;"/>
    </defs>
    <g clip-path="url(#p9944aca84b)">
     <use style="fill:#ff00ff;stroke:#ff00ff;" x="151.056095" xlink:href="#m2fdae573c0" y="103.328764"/>
    </g>
   </g>
   <g id="line2d_39">
    <defs>
     <path d="M 0 1.5 
C 0.397805 1.5 0.77937 1.341951 1.06066 1.06066 
C 1.341951 0.77937 1.5 0.397805 1.5 0 
C 1.5 -0.397805 1.341951 -0.77937 1.06066 -1.06066 
C 0.77937 -1.341951 0.397805 -1.5 0 -1.5 
C -0.397805 -1.5 -0.77937 -1.341951 -1.06066 -1.06066 
C -1.341951 -0.77937 -1.5 -0.397805 -1.5 0 
C -1.5 0.397805 -1.341951 0.77937 -1.06066 1.06066 
C -0.77937 1.341951 -0.397805 1.5 0 1.5 
z
" id="m80cebafa48" style="stroke:#ffa500;"/>
    </defs>
    <g>
     <use style="fill:#ffa500;stroke:#ffa500;" x="186.131524" xlink:href="#m80cebafa48" y="6.381624"/>
     <use style="fill:#ffa500;stroke:#ffa500;" x="186.131524" xlink:href="#m80cebafa48" y="6.381624"/>
    </g>
   </g>
   <g id="line2d_40">
    <path d="M 45.512012 298.944 
L 45.512012 275.42428 
L 76.759008 275.42428 
L 76.759008 274.850628 
L 95.918017 274.850628 
L 95.918017 274.276976 
L 99.41757 274.276976 
L 99.41757 273.129673 
L 100.192776 273.129673 
L 100.192776 271.982369 
L 100.934985 271.982369 
L 100.934985 271.408718 
L 101.646892 271.408718 
L 101.646892 270.835066 
L 102.989037 270.835066 
L 102.989037 269.114111 
L 104.23523 269.114111 
L 104.23523 267.393156 
L 104.826449 267.393156 
L 104.826449 266.245852 
L 105.398279 266.245852 
L 105.398279 265.098549 
L 105.951954 265.098549 
L 105.951954 263.377593 
L 107.009204 263.377593 
L 107.009204 262.23029 
L 107.514726 262.23029 
L 107.514726 261.656638 
L 108.006005 261.656638 
L 108.006005 261.082987 
L 108.483824 261.082987 
L 108.483824 260.509335 
L 109.401893 260.509335 
L 109.401893 259.935683 
L 109.843417 259.935683 
L 109.843417 258.78838 
L 110.694282 258.78838 
L 110.694282 258.214728 
L 112.655818 258.214728 
L 112.655818 257.641076 
L 113.382559 257.641076 
L 113.382559 257.067425 
L 115.077025 257.067425 
L 115.077025 256.493773 
L 116.323218 256.493773 
L 116.323218 255.920121 
L 116.621333 255.920121 
L 116.621333 254.772818 
L 116.914437 254.772818 
L 116.914437 250.757256 
L 117.202696 250.757256 
L 117.202696 250.183604 
L 117.765302 250.183604 
L 117.765302 248.462649 
L 118.576578 248.462649 
L 118.576578 247.888997 
L 119.351785 247.888997 
L 119.351785 247.315345 
L 119.602714 247.315345 
L 119.602714 246.741694 
L 120.33454 246.741694 
L 120.33454 242.726132 
L 120.8059 242.726132 
L 120.8059 241.578828 
L 121.036887 241.578828 
L 121.036887 241.005176 
L 121.489881 241.005176 
L 121.489881 240.431525 
L 121.712041 240.431525 
L 121.712041 239.857873 
L 121.931406 239.857873 
L 121.931406 235.268659 
L 122.148045 235.268659 
L 122.148045 234.695008 
L 122.573415 234.695008 
L 122.573415 231.253097 
L 122.782271 231.253097 
L 122.782271 230.105794 
L 123.192626 230.105794 
L 123.192626 229.532142 
L 123.593547 229.532142 
L 123.593547 225.51658 
L 123.985457 225.51658 
L 123.985457 224.369277 
L 124.178158 224.369277 
L 124.178158 223.221973 
L 124.368753 223.221973 
L 124.368753 220.927366 
L 124.557288 220.927366 
L 124.557288 220.353715 
L 124.92835 220.353715 
L 124.92835 219.206411 
L 125.110962 219.206411 
L 125.110962 216.338153 
L 125.291682 216.338153 
L 125.291682 215.764501 
L 125.470548 215.764501 
L 125.470548 212.896242 
L 125.822869 212.896242 
L 125.822869 212.322591 
L 126.168212 212.322591 
L 126.168212 208.88068 
L 126.50685 208.88068 
L 126.50685 206.586073 
L 127.165014 206.586073 
L 127.165014 205.43877 
L 127.325746 205.43877 
L 127.325746 204.865118 
L 127.48501 204.865118 
L 127.48501 202.570511 
L 127.642832 202.570511 
L 127.642832 201.99686 
L 127.799239 201.99686 
L 127.799239 201.423208 
L 127.954256 201.423208 
L 127.954256 200.849556 
L 128.107907 200.849556 
L 128.107907 200.275904 
L 128.560901 200.275904 
L 128.560901 198.554949 
L 128.709321 198.554949 
L 128.709321 197.407646 
L 128.856489 197.407646 
L 128.856489 196.833994 
L 129.002426 196.833994 
L 129.002426 191.671129 
L 129.147151 191.671129 
L 129.147151 191.097477 
L 129.290685 191.097477 
L 129.290685 190.523825 
L 129.433047 190.523825 
L 129.433047 189.950174 
L 129.574256 189.950174 
L 129.574256 189.376522 
L 129.853291 189.376522 
L 129.853291 186.508263 
L 130.263646 186.508263 
L 130.263646 185.934612 
L 130.926816 185.934612 
L 130.926816 180.198094 
L 131.185181 180.198094 
L 131.185181 176.756184 
L 131.938072 176.756184 
L 131.938072 176.182532 
L 132.181982 176.182532 
L 132.181982 168.151408 
L 133.910056 168.151408 
L 133.910056 166.430453 
L 134.343353 166.430453 
L 134.343353 165.856801 
L 134.661403 165.856801 
L 134.661403 164.709498 
L 135.076644 164.709498 
L 135.178927 162.414891 
L 135.381712 162.414891 
L 135.381712 161.267588 
L 135.582166 161.267588 
L 135.582166 160.120284 
L 135.780341 160.120284 
L 135.780341 159.546632 
L 135.97629 159.546632 
L 135.97629 157.825677 
L 136.170062 157.825677 
L 136.170062 155.53107 
L 136.361705 155.53107 
L 136.361705 154.957419 
L 136.551264 154.957419 
L 136.645276 153.236464 
L 136.738785 153.236464 
L 136.831795 151.515508 
L 136.924311 151.515508 
L 137.016339 145.778991 
L 137.107884 145.778991 
L 137.198951 144.058036 
L 137.289545 144.058036 
L 137.37967 140.042474 
L 137.469333 140.042474 
L 137.469333 133.158653 
L 137.823442 133.158653 
L 137.910857 132.01135 
L 138.170504 132.01135 
L 138.170504 129.143091 
L 138.67848 129.143091 
L 138.67848 126.274833 
L 138.84457 126.274833 
L 138.84457 125.701181 
L 139.172077 125.701181 
L 139.172077 124.553878 
L 149.557321 124.553878 
L 149.557321 122.832923 
L 149.911431 122.832923 
L 149.911431 122.259271 
L 150.042389 122.259271 
L 150.042389 121.111967 
L 150.47195 121.111967 
L 150.47195 120.538316 
L 150.849711 120.538316 
L 150.849711 119.964664 
L 150.973835 119.964664 
L 151.015013 118.243709 
L 151.13797 118.243709 
L 151.178764 113.654495 
L 151.381313 113.654495 
L 151.461678 111.359888 
L 151.621307 111.359888 
L 151.700576 107.917978 
L 152.398241 107.917978 
L 152.474064 106.197023 
L 152.549559 106.197023 
L 152.549559 105.623371 
L 152.699575 105.623371 
L 152.699575 105.049719 
L 152.995791 105.049719 
L 153.105587 103.902416 
L 153.178403 103.902416 
L 153.178403 103.328764 
L 153.573542 103.328764 
L 153.679772 101.607809 
L 153.820412 101.607809 
L 153.855395 99.886854 
L 153.959927 99.886854 
L 154.029268 97.018595 
L 154.098334 97.018595 
L 154.201424 95.29764 
L 154.235652 95.29764 
L 154.303908 92.429381 
L 154.371897 92.429381 
L 154.405793 91.282078 
L 154.507086 91.282078 
L 154.57429 87.840168 
L 154.641235 87.840168 
L 154.707925 86.692864 
L 154.77436 86.692864 
L 154.873541 85.545561 
L 154.972161 85.545561 
L 155.004911 83.824606 
L 155.167744 83.824606 
L 155.167744 83.250954 
L 155.361158 83.250954 
L 155.457066 79.809044 
L 155.488919 79.809044 
L 155.584129 78.088089 
L 155.61575 78.088089 
L 155.710272 75.21983 
L 155.741666 75.21983 
L 155.741666 74.646178 
L 155.86668 74.646178 
L 155.959855 71.204268 
L 156.175347 71.204268 
L 156.236431 69.483313 
L 156.327657 69.483313 
L 156.418408 68.336009 
L 156.448553 68.336009 
L 156.508689 66.615054 
L 156.628341 66.615054 
L 156.628341 66.041402 
L 156.747178 66.041402 
L 156.776762 64.894099 
L 156.894595 64.894099 
L 156.98245 63.746796 
L 157.040776 63.746796 
L 157.040776 63.173144 
L 157.156845 63.173144 
L 157.243392 61.452189 
L 157.329512 61.452189 
L 157.38669 60.304885 
L 157.472107 60.304885 
L 157.500487 59.157582 
L 157.58535 59.157582 
L 157.613546 58.010278 
L 157.725877 58.010278 
L 157.753847 56.289323 
L 157.893028 56.289323 
L 158.003578 54.568368 
L 158.140788 54.568368 
L 158.195371 52.847413 
L 158.304027 52.847413 
L 158.412011 51.126458 
L 158.51933 51.126458 
L 158.625992 49.405503 
L 158.83738 49.405503 
L 158.83738 48.831851 
L 162.10862 48.831851 
L 162.10862 48.258199 
L 162.281931 48.258199 
L 162.281931 47.684547 
L 162.581141 47.684547 
L 162.581141 47.110896 
L 162.770815 47.110896 
L 162.791763 45.963592 
L 162.916926 45.963592 
L 162.958448 44.816289 
L 163.287113 44.816289 
L 163.307451 43.668985 
L 163.669525 43.668985 
L 163.689421 42.521682 
L 163.808326 42.521682 
L 163.906798 40.227075 
L 163.985177 40.227075 
L 163.985177 39.653423 
L 164.121498 39.653423 
L 164.121498 39.079772 
L 164.314412 39.079772 
L 164.314412 38.50612 
L 164.580957 38.50612 
L 164.580957 37.932468 
L 164.787563 37.932468 
L 164.787563 37.358817 
L 164.917777 37.358817 
L 164.991751 35.06421 
L 165.447111 35.06421 
L 165.500963 33.916906 
L 165.943384 33.916906 
L 166.030537 31.622299 
L 166.065276 31.622299 
L 166.065276 31.048648 
L 166.186323 31.048648 
L 166.186323 30.474996 
L 166.306535 30.474996 
L 166.408919 28.180389 
L 166.459886 28.180389 
L 166.459886 27.606737 
L 166.6119 27.606737 
L 166.695783 26.459434 
L 166.928532 26.459434 
L 166.928532 25.885782 
L 167.0929 25.885782 
L 167.158215 24.738479 
L 167.271933 24.738479 
L 167.271933 24.164827 
L 169.771826 24.164827 
L 169.771826 23.591175 
L 170.392016 23.591175 
L 170.486538 22.443872 
L 170.687376 22.443872 
L 170.767069 21.296568 
L 171.595202 21.296568 
L 171.595202 20.722917 
L 171.846131 20.722917 
L 171.920711 19.001962 
L 172.00732 19.001962 
L 172.118046 17.281006 
L 172.130306 17.281006 
L 172.130306 16.707355 
L 172.349517 16.707355 
L 172.349517 16.133703 
L 172.470121 16.133703 
L 172.470121 15.560051 
L 172.62567 15.560051 
L 172.62567 14.9864 
L 172.827009 14.9864 
L 172.827009 14.412748 
L 172.944366 14.412748 
L 172.944366 13.839096 
L 174.722024 13.839096 
L 174.722024 13.265444 
L 175.08786 13.265444 
L 175.08786 12.691793 
L 175.232072 12.691793 
L 175.232072 12.118141 
L 176.593204 12.118141 
L 176.593204 11.544489 
L 176.753762 11.544489 
L 176.753762 10.970838 
L 178.716697 10.970838 
L 178.716697 10.397186 
L 178.958624 10.397186 
L 178.958624 9.823534 
L 179.791727 9.823534 
L 179.791727 9.249882 
L 180.714656 9.249882 
L 180.744595 8.102579 
L 181.803604 8.102579 
L 181.803604 7.528927 
L 182.934387 7.528927 
L 182.934387 6.955275 
L 186.131524 6.955275 
L 186.131524 6.381624 
L 338.688 6.381624 
L 338.688 6.381624 
" style="fill:none;stroke:#ffa500;stroke-linecap:square;stroke-width:1.5;"/>
   </g>
   <g id="line2d_41">
    <defs>
     <path d="M 0 -6 
L -1.347084 -1.854102 
L -5.706339 -1.854102 
L -2.179628 0.708204 
L -3.526712 4.854102 
L -0 2.291796 
L 3.526712 4.854102 
L 2.179628 0.708204 
L 5.706339 -1.854102 
L 1.347084 -1.854102 
z
" id="m43128664ca" style="stroke:#ffa500;stroke-linejoin:bevel;stroke-width:1.5;"/>
    </defs>
    <g>
     <use style="fill-opacity:0;stroke:#ffa500;stroke-linejoin:bevel;stroke-width:1.5;" x="120.33454" xlink:href="#m43128664ca" y="246.741694"/>
     <use style="fill-opacity:0;stroke:#ffa500;stroke-linejoin:bevel;stroke-width:1.5;" x="151.700576" xlink:href="#m43128664ca" y="107.917978"/>
     <use style="fill-opacity:0;stroke:#ffa500;stroke-linejoin:bevel;stroke-width:1.5;" x="186.131524" xlink:href="#m43128664ca" y="6.955275"/>
     <use style="fill-opacity:0;stroke:#ffa500;stroke-linejoin:bevel;stroke-width:1.5;" x="186.131524" xlink:href="#m43128664ca" y="6.381624"/>
     <use style="fill-opacity:0;stroke:#ffa500;stroke-linejoin:bevel;stroke-width:1.5;" x="186.131524" xlink:href="#m43128664ca" y="6.381624"/>
     <use style="fill-opacity:0;stroke:#ffa500;stroke-linejoin:bevel;stroke-width:1.5;" x="338.688" xlink:href="#m43128664ca" y="6.381624"/>
    </g>
   </g>
   <g id="line2d_42">
    <path style="fill:none;stroke:#ffa500;stroke-linecap:square;stroke-width:1.5;"/>
    <g/>
   </g>
   <g id="line2d_43">
    <path clip-path="url(#p9944aca84b)" d="M 151.421542 111.93354 
" style="fill:none;stroke:#ffa500;stroke-linecap:square;stroke-width:1.5;"/>
    <defs>
     <path d="M -12 12 
L 12 -12 
M -12 -12 
L 12 12 
" id="mf3eec410e9" style="stroke:#ffa500;"/>
    </defs>
    <g clip-path="url(#p9944aca84b)">
     <use style="fill:#ffa500;stroke:#ffa500;" x="151.421542" xlink:href="#mf3eec410e9" y="111.93354"/>
    </g>
   </g>
   <g id="line2d_44">
    <defs>
     <path d="M 0 1.5 
C 0.397805 1.5 0.77937 1.341951 1.06066 1.06066 
C 1.341951 0.77937 1.5 0.397805 1.5 0 
C 1.5 -0.397805 1.341951 -0.77937 1.06066 -1.06066 
C 0.77937 -1.341951 0.397805 -1.5 0 -1.5 
C -0.397805 -1.5 -0.77937 -1.341951 -1.06066 -1.06066 
C -1.341951 -0.77937 -1.5 -0.397805 -1.5 0 
C -1.5 0.397805 -1.341951 0.77937 -1.06066 1.06066 
C -0.77937 1.341951 -0.397805 1.5 0 1.5 
z
" id="m5c46cdbc79" style="stroke:#6495ed;"/>
    </defs>
    <g>
     <use style="fill:#6495ed;stroke:#6495ed;" x="204.01306" xlink:href="#m5c46cdbc79" y="121.111967"/>
     <use style="fill:#6495ed;stroke:#6495ed;" x="204.01306" xlink:href="#m5c46cdbc79" y="121.111967"/>
    </g>
   </g>
   <g id="line2d_45">
    <path d="M 45.512012 298.944 
L 45.512012 283.455404 
L 76.759008 283.455404 
L 76.759008 282.881752 
L 81.775977 282.881752 
L 81.775977 282.3081 
L 83.830028 282.3081 
L 83.830028 281.734448 
L 88.846997 281.734448 
L 88.846997 280.587145 
L 91.535274 280.587145 
L 91.535274 280.013493 
L 92.73846 280.013493 
L 92.73846 279.439842 
L 93.863965 279.439842 
L 93.863965 278.86619 
L 103.623262 278.86619 
L 103.623262 278.292538 
L 120.093994 278.292538 
L 120.093994 277.145235 
L 120.33454 277.145235 
L 120.33454 276.571583 
L 121.036887 276.571583 
L 121.036887 275.997931 
L 121.712041 275.997931 
L 121.712041 275.42428 
L 122.148045 275.42428 
L 122.148045 274.276976 
L 122.573415 274.276976 
L 122.573415 273.703324 
L 123.192626 273.703324 
L 123.192626 273.129673 
L 123.985457 273.129673 
L 123.985457 271.408718 
L 124.743806 271.408718 
L 124.743806 270.835066 
L 124.92835 270.835066 
L 124.92835 270.261414 
L 125.291682 270.261414 
L 125.291682 269.687762 
L 126.168212 269.687762 
L 126.168212 269.114111 
L 127.002787 269.114111 
L 127.002787 267.966807 
L 127.165014 267.966807 
L 127.165014 267.393156 
L 127.48501 267.393156 
L 127.48501 266.819504 
L 127.799239 266.819504 
L 127.799239 266.245852 
L 127.954256 266.245852 
L 127.954256 264.524897 
L 128.260216 264.524897 
L 128.260216 262.23029 
L 128.411207 262.23029 
L 128.411207 261.656638 
L 128.709321 261.656638 
L 128.709321 259.362031 
L 129.002426 259.362031 
L 129.002426 258.214728 
L 129.574256 258.214728 
L 129.574256 257.067425 
L 129.991152 257.067425 
L 129.991152 256.493773 
L 130.263646 256.493773 
L 130.263646 254.772818 
L 130.531948 254.772818 
L 130.531948 254.199166 
L 130.796184 254.199166 
L 130.796184 252.478211 
L 131.185181 252.478211 
L 131.185181 249.609952 
L 131.312942 249.609952 
L 131.312942 249.036301 
L 131.439773 249.036301 
L 131.439773 248.462649 
L 131.565689 248.462649 
L 131.565689 247.315345 
L 131.814826 247.315345 
L 131.814826 245.59439 
L 132.060454 245.59439 
L 132.060454 245.020738 
L 132.181982 245.020738 
L 132.181982 242.726132 
L 132.30267 242.726132 
L 132.30267 241.578828 
L 132.541568 241.578828 
L 132.541568 241.005176 
L 132.893889 241.005176 
L 132.893889 240.431525 
L 133.124876 240.431525 
L 133.124876 239.284221 
L 133.239232 239.284221 
L 133.239232 238.136918 
L 133.352844 238.136918 
L 133.352844 237.563266 
L 133.57787 237.563266 
L 133.57787 235.842311 
L 133.800029 235.842311 
L 133.910056 234.121356 
L 134.12805 234.121356 
L 134.236034 232.400401 
L 134.343353 232.400401 
L 134.450015 230.679446 
L 134.661403 230.679446 
L 134.661403 230.105794 
L 135.076644 230.105794 
L 135.178927 227.811187 
L 135.381712 227.811187 
L 135.482227 226.663884 
L 135.681535 226.663884 
L 135.681535 226.090232 
L 135.97629 226.090232 
L 135.97629 225.51658 
L 136.361705 225.51658 
L 136.361705 224.369277 
L 136.551264 224.369277 
L 136.645276 222.07467 
L 136.738785 222.07467 
L 136.738785 221.501018 
L 137.016339 221.501018 
L 137.016339 220.927366 
L 137.289545 220.927366 
L 137.37967 218.632759 
L 137.910857 218.632759 
L 137.997836 216.911804 
L 138.084384 216.911804 
L 138.084384 216.338153 
L 138.256201 216.338153 
L 138.341479 215.190849 
L 138.510793 215.190849 
L 138.510793 214.043546 
L 138.67848 214.043546 
L 138.67848 213.469894 
L 138.84457 213.469894 
L 138.927025 211.175287 
L 139.009092 211.175287 
L 139.009092 210.601635 
L 139.172077 210.601635 
L 139.253002 208.88068 
L 139.413734 208.88068 
L 139.413734 204.865118 
L 139.572998 204.865118 
L 139.572998 203.717815 
L 139.730821 203.717815 
L 139.8092 202.570511 
L 139.964909 202.570511 
L 140.042245 199.702253 
L 140.11924 199.702253 
L 140.195896 198.554949 
L 140.272217 198.554949 
L 140.348205 197.407646 
L 140.499195 197.407646 
L 140.574203 193.965736 
L 140.64889 193.965736 
L 140.723258 192.24478 
L 141.017599 192.24478 
L 141.090414 188.80287 
L 141.162927 188.80287 
L 141.235139 187.081915 
L 141.307054 187.081915 
L 141.378673 185.934612 
L 141.521035 185.934612 
L 141.591783 181.345398 
L 141.732423 181.345398 
L 141.732423 180.771746 
L 141.871938 180.771746 
L 141.871938 179.050791 
L 142.010346 179.050791 
L 142.010346 178.477139 
L 142.147664 178.477139 
L 142.215919 176.756184 
L 142.283909 176.756184 
L 142.351634 175.035229 
L 142.419098 175.035229 
L 142.419098 173.887925 
L 142.553247 173.887925 
L 142.619936 172.740622 
L 142.686372 172.740622 
L 142.686372 172.16697 
L 142.818488 172.16697 
L 142.884173 169.872363 
L 143.014805 169.872363 
L 143.079756 167.004105 
L 143.144465 167.004105 
L 143.208936 165.856801 
L 143.273169 165.856801 
L 143.273169 165.28315 
L 143.40093 165.28315 
L 143.464461 164.135846 
L 143.653678 164.135846 
L 143.653678 163.562195 
L 144.026061 163.562195 
L 144.087359 161.267588 
L 144.148442 161.267588 
L 144.148442 160.693936 
L 144.330419 160.693936 
L 144.390658 158.399329 
L 144.629556 158.399329 
L 144.629556 157.252026 
L 144.747789 157.252026 
L 144.747789 156.104722 
L 144.865226 156.104722 
L 144.865226 154.957419 
L 144.981877 154.957419 
L 145.039911 153.810115 
L 145.384119 153.810115 
L 145.384119 152.662812 
L 145.609873 152.662812 
L 145.609873 152.08916 
L 145.721664 152.08916 
L 145.721664 150.941857 
L 147.670154 150.941857 
L 147.670154 150.368205 
L 148.258051 150.368205 
L 148.258051 149.794553 
L 150.129152 149.794553 
L 150.129152 149.220902 
L 150.556607 149.220902 
L 150.556607 148.64725 
L 153.466662 148.64725 
L 153.466662 148.073598 
L 153.609024 148.073598 
L 153.679772 145.778991 
L 154.507086 145.778991 
L 154.507086 145.20534 
L 155.361158 145.20534 
L 155.361158 144.631688 
L 155.804285 144.631688 
L 155.804285 144.058036 
L 156.598505 144.058036 
L 156.598505 143.484384 
L 156.835778 143.484384 
L 156.835778 142.910733 
L 157.214591 142.910733 
L 157.214591 142.337081 
L 157.358125 142.337081 
L 157.358125 141.763429 
L 157.472107 141.763429 
L 157.528821 140.616126 
L 157.613546 140.616126 
L 157.669802 139.468822 
L 158.003578 139.468822 
L 158.086033 138.321519 
L 158.140788 138.321519 
L 158.140788 137.747867 
L 158.276927 137.747867 
L 158.276927 137.174215 
L 158.51933 137.174215 
L 158.572743 136.026912 
L 159.123917 136.026912 
L 159.123917 135.45326 
L 159.303838 135.45326 
L 159.303838 134.879609 
L 159.481921 134.879609 
L 159.481921 134.305957 
L 159.683242 134.305957 
L 159.683242 133.732305 
L 159.882266 133.732305 
L 159.882266 133.158653 
L 160.005512 133.158653 
L 160.005512 132.585002 
L 160.86807 132.585002 
L 160.961329 130.864047 
L 161.215247 130.864047 
L 161.215247 130.290395 
L 161.329454 130.290395 
L 161.329454 129.716743 
L 163.847782 129.716743 
L 163.847782 129.143091 
L 164.043731 129.143091 
L 164.043731 128.56944 
L 164.787563 128.56944 
L 164.787563 127.995788 
L 165.820633 127.995788 
L 165.820633 127.422136 
L 166.442913 127.422136 
L 166.442913 126.848485 
L 167.141909 126.848485 
L 167.141909 126.274833 
L 168.46108 126.274833 
L 168.46108 125.701181 
L 168.701418 125.701181 
L 168.701418 125.127529 
L 169.114201 125.127529 
L 169.114201 124.553878 
L 169.460402 124.553878 
L 169.460402 123.980226 
L 176.02422 123.980226 
L 176.02422 123.406574 
L 179.384193 123.406574 
L 179.384193 122.832923 
L 187.422344 122.832923 
L 187.422344 122.259271 
L 187.58476 122.259271 
L 187.58476 121.685619 
L 204.01306 121.685619 
L 204.01306 121.111967 
L 338.688 121.111967 
L 338.688 121.111967 
" style="fill:none;stroke:#6495ed;stroke-linecap:square;stroke-width:1.5;"/>
   </g>
   <g id="line2d_46">
    <defs>
     <path d="M -0 6 
L 6 -6 
L -6 -6 
z
" id="m12a973365e" style="stroke:#6495ed;stroke-linejoin:miter;stroke-width:1.5;"/>
    </defs>
    <g>
     <use style="fill-opacity:0;stroke:#6495ed;stroke-linejoin:miter;stroke-width:1.5;" x="103.623262" xlink:href="#m12a973365e" y="278.86619"/>
     <use style="fill-opacity:0;stroke:#6495ed;stroke-linejoin:miter;stroke-width:1.5;" x="145.721664" xlink:href="#m12a973365e" y="150.941857"/>
     <use style="fill-opacity:0;stroke:#6495ed;stroke-linejoin:miter;stroke-width:1.5;" x="204.01306" xlink:href="#m12a973365e" y="121.685619"/>
     <use style="fill-opacity:0;stroke:#6495ed;stroke-linejoin:miter;stroke-width:1.5;" x="204.01306" xlink:href="#m12a973365e" y="121.111967"/>
     <use style="fill-opacity:0;stroke:#6495ed;stroke-linejoin:miter;stroke-width:1.5;" x="204.01306" xlink:href="#m12a973365e" y="121.111967"/>
     <use style="fill-opacity:0;stroke:#6495ed;stroke-linejoin:miter;stroke-width:1.5;" x="338.688" xlink:href="#m12a973365e" y="121.111967"/>
    </g>
   </g>
   <g id="line2d_47">
    <path style="fill:none;stroke:#6495ed;stroke-linecap:square;stroke-width:1.5;"/>
    <g/>
   </g>
   <g id="line2d_48">
    <path clip-path="url(#p9944aca84b)" d="M 151.740076 148.64725 
" style="fill:none;stroke:#6495ed;stroke-linecap:square;stroke-width:1.5;"/>
    <defs>
     <path d="M -12 12 
L 12 -12 
M -12 -12 
L 12 12 
" id="mf871df36bd" style="stroke:#6495ed;"/>
    </defs>
    <g clip-path="url(#p9944aca84b)">
     <use style="fill:#6495ed;stroke:#6495ed;" x="151.740076" xlink:href="#mf871df36bd" y="148.64725"/>
    </g>
   </g>
   <g id="line2d_49">
    <defs>
     <path d="M 0 1.5 
C 0.397805 1.5 0.77937 1.341951 1.06066 1.06066 
C 1.341951 0.77937 1.5 0.397805 1.5 0 
C 1.5 -0.397805 1.341951 -0.77937 1.06066 -1.06066 
C 0.77937 -1.341951 0.397805 -1.5 0 -1.5 
C -0.397805 -1.5 -0.77937 -1.341951 -1.06066 -1.06066 
C -1.341951 -0.77937 -1.5 -0.397805 -1.5 0 
C -1.5 0.397805 -1.341951 0.77937 -1.06066 1.06066 
C -0.77937 1.341951 -0.397805 1.5 0 1.5 
z
" id="m545f345895" style="stroke:#ff0000;"/>
    </defs>
    <g>
     <use style="fill:#ff0000;stroke:#ff0000;" x="203.832915" xlink:href="#m545f345895" y="230.105794"/>
     <use style="fill:#ff0000;stroke:#ff0000;" x="203.832915" xlink:href="#m545f345895" y="230.105794"/>
    </g>
   </g>
   <g id="line2d_50">
    <path d="M 45.512012 298.944 
L 45.512012 284.029055 
L 76.759008 284.029055 
L 76.759008 283.455404 
L 83.830028 283.455404 
L 83.830028 282.881752 
L 87.329581 282.881752 
L 87.329581 281.734448 
L 88.846997 281.734448 
L 88.846997 281.160797 
L 91.535274 281.160797 
L 91.535274 280.013493 
L 93.863965 280.013493 
L 93.863965 278.86619 
L 94.921215 278.86619 
L 94.921215 277.145235 
L 95.918017 277.145235 
L 95.918017 276.571583 
L 97.755429 276.571583 
L 97.755429 275.997931 
L 105.398279 275.997931 
L 105.398279 275.42428 
L 107.514726 275.42428 
L 107.514726 274.850628 
L 109.401893 274.850628 
L 109.401893 274.276976 
L 112.655818 274.276976 
L 112.655818 273.129673 
L 113.382559 273.129673 
L 113.382559 272.556021 
L 114.418861 272.556021 
L 114.418861 271.982369 
L 114.751048 271.982369 
L 114.751048 271.408718 
L 115.711251 271.408718 
L 115.711251 270.835066 
L 116.914437 270.835066 
L 116.914437 269.687762 
L 124.557288 269.687762 
L 124.557288 269.114111 
L 126.673734 269.114111 
L 126.673734 268.540459 
L 127.325746 268.540459 
L 127.325746 267.966807 
L 127.954256 267.966807 
L 127.954256 267.393156 
L 128.411207 267.393156 
L 128.411207 266.819504 
L 132.893889 266.819504 
L 132.893889 266.245852 
L 134.12805 266.245852 
L 134.236034 265.098549 
L 134.450015 265.098549 
L 134.450015 264.524897 
L 135.482227 264.524897 
L 135.482227 263.951245 
L 136.645276 263.951245 
L 136.645276 263.377593 
L 137.107884 263.377593 
L 137.107884 262.803942 
L 139.730821 262.803942 
L 139.730821 262.23029 
L 142.949611 262.23029 
L 143.014805 260.509335 
L 143.144465 260.509335 
L 143.144465 259.935683 
L 143.964547 259.935683 
L 143.964547 259.362031 
L 145.097753 259.362031 
L 145.097753 258.214728 
L 145.832743 258.214728 
L 145.832743 257.641076 
L 146.107383 257.641076 
L 146.107383 257.067425 
L 146.484754 257.067425 
L 146.484754 256.493773 
L 150.344189 256.493773 
L 150.344189 255.346469 
L 151.015013 255.346469 
L 151.015013 254.772818 
L 153.925152 254.772818 
L 153.925152 254.199166 
L 156.98245 254.199166 
L 156.98245 253.625514 
L 157.669802 253.625514 
L 157.669802 253.051863 
L 160.37011 253.051863 
L 160.442124 251.330907 
L 161.420284 251.330907 
L 161.510643 250.183604 
L 162.065021 250.183604 
L 162.065021 249.609952 
L 162.53871 249.609952 
L 162.53871 249.036301 
L 162.707819 249.036301 
L 162.707819 248.462649 
L 163.985177 248.462649 
L 163.985177 247.888997 
L 167.703739 247.888997 
L 167.703739 247.315345 
L 168.202038 247.315345 
L 168.202038 246.741694 
L 168.671556 246.741694 
L 168.671556 246.168042 
L 168.967898 246.168042 
L 168.967898 245.59439 
L 169.460402 245.59439 
L 169.460402 245.020738 
L 170.256089 245.020738 
L 170.256089 244.447087 
L 170.806779 244.447087 
L 170.806779 243.873435 
L 173.496944 243.873435 
L 173.496944 243.299783 
L 173.811376 243.299783 
L 173.811376 242.726132 
L 174.359138 242.726132 
L 174.391462 241.578828 
L 174.530849 241.578828 
L 174.530849 241.005176 
L 174.764225 241.005176 
L 174.764225 240.431525 
L 175.015304 240.431525 
L 175.015304 239.857873 
L 175.364924 239.857873 
L 175.364924 239.284221 
L 175.85677 239.284221 
L 175.85677 238.71057 
L 178.231177 238.71057 
L 178.231177 238.136918 
L 179.720498 238.136918 
L 179.720498 237.563266 
L 182.186441 237.563266 
L 182.186441 236.989614 
L 186.576068 236.989614 
L 186.576068 236.415963 
L 189.250575 236.415963 
L 189.250575 235.842311 
L 189.374112 235.842311 
L 189.374112 235.268659 
L 189.532962 235.268659 
L 189.636566 233.547704 
L 191.784679 233.547704 
L 191.784679 232.974052 
L 194.257209 232.974052 
L 194.257209 232.400401 
L 195.824804 232.400401 
L 195.824804 231.826749 
L 196.174038 231.826749 
L 196.174038 231.253097 
L 202.723851 231.253097 
L 202.723851 230.679446 
L 203.832915 230.679446 
L 203.832915 230.105794 
L 338.688 230.105794 
L 338.688 230.105794 
" style="fill:none;stroke:#ff0000;stroke-linecap:square;stroke-width:1.5;"/>
   </g>
   <g id="line2d_51">
    <defs>
     <path d="M 0 -6 
L -5.196152 -3 
L -5.196152 3 
L -0 6 
L 5.196152 3 
L 5.196152 -3 
z
" id="m4c6b614594" style="stroke:#ff0000;stroke-linejoin:miter;stroke-width:1.5;"/>
    </defs>
    <g>
     <use style="fill-opacity:0;stroke:#ff0000;stroke-linejoin:miter;stroke-width:1.5;" x="97.755429" xlink:href="#m4c6b614594" y="275.997931"/>
     <use style="fill-opacity:0;stroke:#ff0000;stroke-linejoin:miter;stroke-width:1.5;" x="169.460402" xlink:href="#m4c6b614594" y="245.020738"/>
     <use style="fill-opacity:0;stroke:#ff0000;stroke-linejoin:miter;stroke-width:1.5;" x="203.832915" xlink:href="#m4c6b614594" y="230.679446"/>
     <use style="fill-opacity:0;stroke:#ff0000;stroke-linejoin:miter;stroke-width:1.5;" x="203.832915" xlink:href="#m4c6b614594" y="230.105794"/>
     <use style="fill-opacity:0;stroke:#ff0000;stroke-linejoin:miter;stroke-width:1.5;" x="203.832915" xlink:href="#m4c6b614594" y="230.105794"/>
     <use style="fill-opacity:0;stroke:#ff0000;stroke-linejoin:miter;stroke-width:1.5;" x="338.688" xlink:href="#m4c6b614594" y="230.105794"/>
    </g>
   </g>
   <g id="line2d_52">
    <path style="fill:none;stroke:#ff0000;stroke-linecap:square;stroke-width:1.5;"/>
    <g/>
   </g>
   <g id="line2d_53">
    <path clip-path="url(#p9944aca84b)" d="M 151.779487 254.772818 
" style="fill:none;stroke:#ff0000;stroke-linecap:square;stroke-width:1.5;"/>
    <defs>
     <path d="M -12 12 
L 12 -12 
M -12 -12 
L 12 12 
" id="m1b5bc34acf" style="stroke:#ff0000;"/>
    </defs>
    <g clip-path="url(#p9944aca84b)">
     <use style="fill:#ff0000;stroke:#ff0000;" x="151.779487" xlink:href="#m1b5bc34acf" y="254.772818"/>
    </g>
   </g>
   <g id="line2d_54">
    <path d="M 338.688 230.105794 
L 369.60768 293.092752 
" style="fill:none;stroke:#ff0000;stroke-linecap:square;stroke-width:1.5;"/>
    <g>
     <use style="fill-opacity:0;stroke:#ff0000;stroke-linejoin:miter;stroke-width:1.5;" x="338.688" xlink:href="#m4c6b614594" y="230.105794"/>
     <use style="fill-opacity:0;stroke:#ff0000;stroke-linejoin:miter;stroke-width:1.5;" x="369.60768" xlink:href="#m4c6b614594" y="293.092752"/>
    </g>
   </g>
   <g id="line2d_55">
    <path d="M 338.688 121.111967 
L 369.60768 222.877782 
" style="fill:none;stroke:#6495ed;stroke-linecap:square;stroke-width:1.5;"/>
    <g>
     <use style="fill-opacity:0;stroke:#6495ed;stroke-linejoin:miter;stroke-width:1.5;" x="338.688" xlink:href="#m12a973365e" y="121.111967"/>
     <use style="fill-opacity:0;stroke:#6495ed;stroke-linejoin:miter;stroke-width:1.5;" x="369.60768" xlink:href="#m12a973365e" y="222.877782"/>
    </g>
   </g>
   <g id="line2d_56">
    <path d="M 338.688 29.327692 
L 369.60768 152.662812 
" style="fill:none;stroke:#000080;stroke-linecap:square;stroke-width:1.5;"/>
    <g>
     <use style="fill-opacity:0;stroke:#000080;stroke-width:1.5;" x="338.688" xlink:href="#mbf5b95dce9" y="29.327692"/>
     <use style="fill-opacity:0;stroke:#000080;stroke-width:1.5;" x="369.60768" xlink:href="#mbf5b95dce9" y="152.662812"/>
    </g>
   </g>
   <g id="line2d_57">
    <path d="M 338.688 6.381624 
L 369.60768 82.447842 
" style="fill:none;stroke:#ffa500;stroke-linecap:square;stroke-width:1.5;"/>
    <g>
     <use style="fill-opacity:0;stroke:#ffa500;stroke-linejoin:bevel;stroke-width:1.5;" x="338.688" xlink:href="#m43128664ca" y="6.381624"/>
     <use style="fill-opacity:0;stroke:#ffa500;stroke-linejoin:bevel;stroke-width:1.5;" x="369.60768" xlink:href="#m43128664ca" y="82.447842"/>
    </g>
   </g>
   <g id="line2d_58">
    <path d="M 338.688 6.381624 
L 369.60768 12.232871 
" style="fill:none;stroke:#ff00ff;stroke-linecap:square;stroke-width:1.5;"/>
    <g>
     <use style="fill-opacity:0;stroke:#ff00ff;stroke-linejoin:miter;stroke-width:1.5;" x="338.688" xlink:href="#m474f69fda6" y="6.381624"/>
     <use style="fill-opacity:0;stroke:#ff00ff;stroke-linejoin:miter;stroke-width:1.5;" x="369.60768" xlink:href="#m474f69fda6" y="12.232871"/>
    </g>
   </g>
   <g id="line2d_59">
    <path d="M 338.688 298.944 
L 338.688 6.381624 
" style="fill:none;stroke:#000000;stroke-linecap:square;stroke-width:1.5;"/>
   </g>
   <g id="patch_3">
    <path d="M 57.6 298.944 
L 57.6 3.456 
" style="fill:none;stroke:#000000;stroke-linecap:square;stroke-linejoin:miter;stroke-width:0.8;"/>
   </g>
   <g id="patch_4">
    <path d="M 338.688 298.944 
L 338.688 3.456 
" style="fill:none;stroke:#000000;stroke-linecap:square;stroke-linejoin:miter;stroke-width:0.8;"/>
   </g>
   <g id="patch_5">
    <path d="M 57.6 298.944 
L 338.688 298.944 
" style="fill:none;stroke:#000000;stroke-linecap:square;stroke-linejoin:miter;stroke-width:0.8;"/>
   </g>
   <g id="patch_6">
    <path d="M 57.6 3.456 
L 338.688 3.456 
" style="fill:none;stroke:#000000;stroke-linecap:square;stroke-linejoin:miter;stroke-width:0.8;"/>
   </g>
   <g id="text_13">
    <!-- f24 -->
    <g transform="translate(375.22944 297.78369)scale(0.17 -0.17)">
     <use xlink:href="#DejaVuSans-102"/>
     <use x="35.205078" xlink:href="#DejaVuSans-50"/>
     <use x="98.828125" xlink:href="#DejaVuSans-52"/>
    </g>
   </g>
   <g id="text_14">
    <!-- f23 -->
    <defs>
     <path d="M 40.578125 39.3125 
Q 47.65625 37.796875 51.625 33 
Q 55.609375 28.21875 55.609375 21.1875 
Q 55.609375 10.40625 48.1875 4.484375 
Q 40.765625 -1.421875 27.09375 -1.421875 
Q 22.515625 -1.421875 17.65625 -0.515625 
Q 12.796875 0.390625 7.625 2.203125 
L 7.625 11.71875 
Q 11.71875 9.328125 16.59375 8.109375 
Q 21.484375 6.890625 26.8125 6.890625 
Q 36.078125 6.890625 40.9375 10.546875 
Q 45.796875 14.203125 45.796875 21.1875 
Q 45.796875 27.640625 41.28125 31.265625 
Q 36.765625 34.90625 28.71875 34.90625 
L 20.21875 34.90625 
L 20.21875 43.015625 
L 29.109375 43.015625 
Q 36.375 43.015625 40.234375 45.921875 
Q 44.09375 48.828125 44.09375 54.296875 
Q 44.09375 59.90625 40.109375 62.90625 
Q 36.140625 65.921875 28.71875 65.921875 
Q 24.65625 65.921875 20.015625 65.03125 
Q 15.375 64.15625 9.8125 62.3125 
L 9.8125 71.09375 
Q 15.4375 72.65625 20.34375 73.4375 
Q 25.25 74.21875 29.59375 74.21875 
Q 40.828125 74.21875 47.359375 69.109375 
Q 53.90625 64.015625 53.90625 55.328125 
Q 53.90625 49.265625 50.4375 45.09375 
Q 46.96875 40.921875 40.578125 39.3125 
z
" id="DejaVuSans-51"/>
    </defs>
    <g transform="translate(375.22944 227.56872)scale(0.17 -0.17)">
     <use xlink:href="#DejaVuSans-102"/>
     <use x="35.205078" xlink:href="#DejaVuSans-50"/>
     <use x="98.828125" xlink:href="#DejaVuSans-51"/>
    </g>
   </g>
   <g id="text_15">
    <!-- f20 -->
    <g transform="translate(375.22944 157.353749)scale(0.17 -0.17)">
     <use xlink:href="#DejaVuSans-102"/>
     <use x="35.205078" xlink:href="#DejaVuSans-50"/>
     <use x="98.828125" xlink:href="#DejaVuSans-48"/>
    </g>
   </g>
   <g id="text_16">
    <!-- f22 -->
    <g transform="translate(375.22944 87.138779)scale(0.17 -0.17)">
     <use xlink:href="#DejaVuSans-102"/>
     <use x="35.205078" xlink:href="#DejaVuSans-50"/>
     <use x="98.828125" xlink:href="#DejaVuSans-50"/>
    </g>
   </g>
   <g id="text_17">
    <!-- f21 -->
    <g transform="translate(375.22944 16.923809)scale(0.17 -0.17)">
     <use xlink:href="#DejaVuSans-102"/>
     <use x="35.205078" xlink:href="#DejaVuSans-50"/>
     <use x="98.828125" xlink:href="#DejaVuSans-49"/>
    </g>
   </g>
   <g id="text_18">
    <!-- bbob -->
    <defs>
     <path d="M 48.6875 27.296875 
Q 48.6875 37.203125 44.609375 42.84375 
Q 40.53125 48.484375 33.40625 48.484375 
Q 26.265625 48.484375 22.1875 42.84375 
Q 18.109375 37.203125 18.109375 27.296875 
Q 18.109375 17.390625 22.1875 11.75 
Q 26.265625 6.109375 33.40625 6.109375 
Q 40.53125 6.109375 44.609375 11.75 
Q 48.6875 17.390625 48.6875 27.296875 
z
M 18.109375 46.390625 
Q 20.953125 51.265625 25.265625 53.625 
Q 29.59375 56 35.59375 56 
Q 45.5625 56 51.78125 48.09375 
Q 58.015625 40.1875 58.015625 27.296875 
Q 58.015625 14.40625 51.78125 6.484375 
Q 45.5625 -1.421875 35.59375 -1.421875 
Q 29.59375 -1.421875 25.265625 0.953125 
Q 20.953125 3.328125 18.109375 8.203125 
L 18.109375 0 
L 9.078125 0 
L 9.078125 75.984375 
L 18.109375 75.984375 
z
" id="DejaVuSans-98"/>
    </defs>
    <g transform="translate(60.41088 14.161286)scale(0.102 -0.102)">
     <use xlink:href="#DejaVuSans-98"/>
     <use x="63.476562" xlink:href="#DejaVuSans-98"/>
     <use x="126.953125" xlink:href="#DejaVuSans-111"/>
     <use x="188.134766" xlink:href="#DejaVuSans-98"/>
    </g>
    <!-- Weak structure functions, 2-D -->
    <defs>
     <path d="M 3.328125 72.90625 
L 13.28125 72.90625 
L 28.609375 11.28125 
L 43.890625 72.90625 
L 54.984375 72.90625 
L 70.3125 11.28125 
L 85.59375 72.90625 
L 95.609375 72.90625 
L 77.296875 0 
L 64.890625 0 
L 49.515625 63.28125 
L 33.984375 0 
L 21.578125 0 
z
" id="DejaVuSans-87"/>
     <path d="M 9.078125 75.984375 
L 18.109375 75.984375 
L 18.109375 31.109375 
L 44.921875 54.6875 
L 56.390625 54.6875 
L 27.390625 29.109375 
L 57.625 0 
L 45.90625 0 
L 18.109375 26.703125 
L 18.109375 0 
L 9.078125 0 
z
" id="DejaVuSans-107"/>
     <path d="M 19.671875 64.796875 
L 19.671875 8.109375 
L 31.59375 8.109375 
Q 46.6875 8.109375 53.6875 14.9375 
Q 60.6875 21.78125 60.6875 36.53125 
Q 60.6875 51.171875 53.6875 57.984375 
Q 46.6875 64.796875 31.59375 64.796875 
z
M 9.8125 72.90625 
L 30.078125 72.90625 
Q 51.265625 72.90625 61.171875 64.09375 
Q 71.09375 55.28125 71.09375 36.53125 
Q 71.09375 17.671875 61.125 8.828125 
Q 51.171875 0 30.078125 0 
L 9.8125 0 
z
" id="DejaVuSans-68"/>
    </defs>
    <g transform="translate(60.41088 25.583055)scale(0.102 -0.102)">
     <use xlink:href="#DejaVuSans-87"/>
     <use x="93.001953" xlink:href="#DejaVuSans-101"/>
     <use x="154.525391" xlink:href="#DejaVuSans-97"/>
     <use x="215.804688" xlink:href="#DejaVuSans-107"/>
     <use x="273.714844" xlink:href="#DejaVuSans-32"/>
     <use x="305.501953" xlink:href="#DejaVuSans-115"/>
     <use x="357.601562" xlink:href="#DejaVuSans-116"/>
     <use x="396.810547" xlink:href="#DejaVuSans-114"/>
     <use x="437.923828" xlink:href="#DejaVuSans-117"/>
     <use x="501.302734" xlink:href="#DejaVuSans-99"/>
     <use x="556.283203" xlink:href="#DejaVuSans-116"/>
     <use x="595.492188" xlink:href="#DejaVuSans-117"/>
     <use x="658.871094" xlink:href="#DejaVuSans-114"/>
     <use x="697.734375" xlink:href="#DejaVuSans-101"/>
     <use x="759.257812" xlink:href="#DejaVuSans-32"/>
     <use x="791.044922" xlink:href="#DejaVuSans-102"/>
     <use x="826.25" xlink:href="#DejaVuSans-117"/>
     <use x="889.628906" xlink:href="#DejaVuSans-110"/>
     <use x="953.007812" xlink:href="#DejaVuSans-99"/>
     <use x="1007.988281" xlink:href="#DejaVuSans-116"/>
     <use x="1047.197266" xlink:href="#DejaVuSans-105"/>
     <use x="1074.980469" xlink:href="#DejaVuSans-111"/>
     <use x="1136.162109" xlink:href="#DejaVuSans-110"/>
     <use x="1199.541016" xlink:href="#DejaVuSans-115"/>
     <use x="1251.640625" xlink:href="#DejaVuSans-44"/>
     <use x="1283.427734" xlink:href="#DejaVuSans-32"/>
     <use x="1315.214844" xlink:href="#DejaVuSans-50"/>
     <use x="1378.837891" xlink:href="#DejaVuSans-45"/>
     <use x="1414.921875" xlink:href="#DejaVuSans-68"/>
    </g>
    <!-- 51 targets: 100..1e-08 -->
    <defs>
     <path d="M 10.796875 72.90625 
L 49.515625 72.90625 
L 49.515625 64.59375 
L 19.828125 64.59375 
L 19.828125 46.734375 
Q 21.96875 47.46875 24.109375 47.828125 
Q 26.265625 48.1875 28.421875 48.1875 
Q 40.625 48.1875 47.75 41.5 
Q 54.890625 34.8125 54.890625 23.390625 
Q 54.890625 11.625 47.5625 5.09375 
Q 40.234375 -1.421875 26.90625 -1.421875 
Q 22.3125 -1.421875 17.546875 -0.640625 
Q 12.796875 0.140625 7.71875 1.703125 
L 7.71875 11.625 
Q 12.109375 9.234375 16.796875 8.0625 
Q 21.484375 6.890625 26.703125 6.890625 
Q 35.15625 6.890625 40.078125 11.328125 
Q 45.015625 15.765625 45.015625 23.390625 
Q 45.015625 31 40.078125 35.4375 
Q 35.15625 39.890625 26.703125 39.890625 
Q 22.75 39.890625 18.8125 39.015625 
Q 14.890625 38.140625 10.796875 36.28125 
z
" id="DejaVuSans-53"/>
     <path d="M 11.71875 12.40625 
L 22.015625 12.40625 
L 22.015625 0 
L 11.71875 0 
z
M 11.71875 51.703125 
L 22.015625 51.703125 
L 22.015625 39.3125 
L 11.71875 39.3125 
z
" id="DejaVuSans-58"/>
    </defs>
    <g transform="translate(60.41088 37.004824)scale(0.102 -0.102)">
     <use xlink:href="#DejaVuSans-53"/>
     <use x="63.623047" xlink:href="#DejaVuSans-49"/>
     <use x="127.246094" xlink:href="#DejaVuSans-32"/>
     <use x="159.033203" xlink:href="#DejaVuSans-116"/>
     <use x="198.242188" xlink:href="#DejaVuSans-97"/>
     <use x="259.521484" xlink:href="#DejaVuSans-114"/>
     <use x="298.884766" xlink:href="#DejaVuSans-103"/>
     <use x="362.361328" xlink:href="#DejaVuSans-101"/>
     <use x="423.884766" xlink:href="#DejaVuSans-116"/>
     <use x="463.09375" xlink:href="#DejaVuSans-115"/>
     <use x="515.193359" xlink:href="#DejaVuSans-58"/>
     <use x="548.884766" xlink:href="#DejaVuSans-32"/>
     <use x="580.671875" xlink:href="#DejaVuSans-49"/>
     <use x="644.294922" xlink:href="#DejaVuSans-48"/>
     <use x="707.917969" xlink:href="#DejaVuSans-48"/>
     <use x="771.541016" xlink:href="#DejaVuSans-46"/>
     <use x="803.328125" xlink:href="#DejaVuSans-46"/>
     <use x="835.115234" xlink:href="#DejaVuSans-49"/>
     <use x="898.738281" xlink:href="#DejaVuSans-101"/>
     <use x="960.261719" xlink:href="#DejaVuSans-45"/>
     <use x="996.345703" xlink:href="#DejaVuSans-48"/>
     <use x="1059.96875" xlink:href="#DejaVuSans-56"/>
    </g>
    <!-- 15 instances -->
    <g transform="translate(60.41088 48.426593)scale(0.102 -0.102)">
     <use xlink:href="#DejaVuSans-49"/>
     <use x="63.623047" xlink:href="#DejaVuSans-53"/>
     <use x="127.246094" xlink:href="#DejaVuSans-32"/>
     <use x="159.033203" xlink:href="#DejaVuSans-105"/>
     <use x="186.816406" xlink:href="#DejaVuSans-110"/>
     <use x="250.195312" xlink:href="#DejaVuSans-115"/>
     <use x="302.294922" xlink:href="#DejaVuSans-116"/>
     <use x="341.503906" xlink:href="#DejaVuSans-97"/>
     <use x="402.783203" xlink:href="#DejaVuSans-110"/>
     <use x="466.162109" xlink:href="#DejaVuSans-99"/>
     <use x="521.142578" xlink:href="#DejaVuSans-101"/>
     <use x="582.666016" xlink:href="#DejaVuSans-115"/>
    </g>
   </g>
   <g id="text_19">
    <!-- v2.3.3.5 -->
    <g style="fill:#808080;" transform="translate(177.692437 293.909432)scale(0.1 -0.1)">
     <use xlink:href="#DejaVuSans-118"/>
     <use x="59.179688" xlink:href="#DejaVuSans-50"/>
     <use x="122.802734" xlink:href="#DejaVuSans-46"/>
     <use x="154.589844" xlink:href="#DejaVuSans-51"/>
     <use x="218.212891" xlink:href="#DejaVuSans-46"/>
     <use x="250" xlink:href="#DejaVuSans-51"/>
     <use x="313.623047" xlink:href="#DejaVuSans-46"/>
     <use x="345.410156" xlink:href="#DejaVuSans-53"/>
    </g>
   </g>
  </g>
 </g>
 <defs>
  <clipPath id="p9944aca84b">
   <rect height="295.488" width="281.088" x="57.6" y="3.456"/>
  </clipPath>
 </defs>
</svg>
