<?xml version="1.0" encoding="utf-8" standalone="no"?>
<!DOCTYPE svg PUBLIC "-//W3C//DTD SVG 1.1//EN"
  "http://www.w3.org/Graphics/SVG/1.1/DTD/svg11.dtd">
<!-- Created with matplotlib (https://matplotlib.org/) -->
<svg height="345.6pt" version="1.1" viewBox="0 0 460.8 345.6" width="460.8pt" xmlns="http://www.w3.org/2000/svg" xmlns:xlink="http://www.w3.org/1999/xlink">
 <defs>
  <style type="text/css">
*{stroke-linecap:butt;stroke-linejoin:round;}
  </style>
 </defs>
 <g id="figure_1">
  <g id="patch_1">
   <path d="M 0 345.6 
L 460.8 345.6 
L 460.8 0 
L 0 0 
z
" style="fill:#ffffff;"/>
  </g>
  <g id="axes_1">
   <g id="patch_2">
    <path d="M 57.6 298.944 
L 338.688 298.944 
L 338.688 3.456 
L 57.6 3.456 
z
" style="fill:#ffffff;"/>
   </g>
   <g id="matplotlib.axis_1">
    <g id="xtick_1">
     <g id="line2d_1">
      <path clip-path="url(#p9c21ddd6c6)" d="M 57.6 298.944 
L 57.6 3.456 
" style="fill:none;stroke:#b0b0b0;stroke-linecap:square;stroke-width:0.8;"/>
     </g>
     <g id="line2d_2">
      <defs>
       <path d="M 0 0 
L 0 3.5 
" id="mda1fa9aa74" style="stroke:#000000;stroke-width:0.8;"/>
      </defs>
      <g>
       <use style="stroke:#000000;stroke-width:0.8;" x="57.6" xlink:href="#mda1fa9aa74" y="298.944"/>
      </g>
     </g>
     <g id="text_1">
      <!-- 0 -->
      <defs>
       <path d="M 31.78125 66.40625 
Q 24.171875 66.40625 20.328125 58.90625 
Q 16.5 51.421875 16.5 36.375 
Q 16.5 21.390625 20.328125 13.890625 
Q 24.171875 6.390625 31.78125 6.390625 
Q 39.453125 6.390625 43.28125 13.890625 
Q 47.125 21.390625 47.125 36.375 
Q 47.125 51.421875 43.28125 58.90625 
Q 39.453125 66.40625 31.78125 66.40625 
z
M 31.78125 74.21875 
Q 44.046875 74.21875 50.515625 64.515625 
Q 56.984375 54.828125 56.984375 36.375 
Q 56.984375 17.96875 50.515625 8.265625 
Q 44.046875 -1.421875 31.78125 -1.421875 
Q 19.53125 -1.421875 13.0625 8.265625 
Q 6.59375 17.96875 6.59375 36.375 
Q 6.59375 54.828125 13.0625 64.515625 
Q 19.53125 74.21875 31.78125 74.21875 
z
" id="DejaVuSans-48"/>
      </defs>
      <g transform="translate(51.2375 321.140875)scale(0.2 -0.2)">
       <use xlink:href="#DejaVuSans-48"/>
      </g>
     </g>
    </g>
    <g id="xtick_2">
     <g id="line2d_3">
      <path clip-path="url(#p9c21ddd6c6)" d="M 137.910857 298.944 
L 137.910857 3.456 
" style="fill:none;stroke:#b0b0b0;stroke-linecap:square;stroke-width:0.8;"/>
     </g>
     <g id="line2d_4">
      <g>
       <use style="stroke:#000000;stroke-width:0.8;" x="137.910857" xlink:href="#mda1fa9aa74" y="298.944"/>
      </g>
     </g>
     <g id="text_2">
      <!-- 2 -->
      <defs>
       <path d="M 19.1875 8.296875 
L 53.609375 8.296875 
L 53.609375 0 
L 7.328125 0 
L 7.328125 8.296875 
Q 12.9375 14.109375 22.625 23.890625 
Q 32.328125 33.6875 34.8125 36.53125 
Q 39.546875 41.84375 41.421875 45.53125 
Q 43.3125 49.21875 43.3125 52.78125 
Q 43.3125 58.59375 39.234375 62.25 
Q 35.15625 65.921875 28.609375 65.921875 
Q 23.96875 65.921875 18.8125 64.3125 
Q 13.671875 62.703125 7.8125 59.421875 
L 7.8125 69.390625 
Q 13.765625 71.78125 18.9375 73 
Q 24.125 74.21875 28.421875 74.21875 
Q 39.75 74.21875 46.484375 68.546875 
Q 53.21875 62.890625 53.21875 53.421875 
Q 53.21875 48.921875 51.53125 44.890625 
Q 49.859375 40.875 45.40625 35.40625 
Q 44.1875 33.984375 37.640625 27.21875 
Q 31.109375 20.453125 19.1875 8.296875 
z
" id="DejaVuSans-50"/>
      </defs>
      <g transform="translate(131.548357 321.140875)scale(0.2 -0.2)">
       <use xlink:href="#DejaVuSans-50"/>
      </g>
     </g>
    </g>
    <g id="xtick_3">
     <g id="line2d_5">
      <path clip-path="url(#p9c21ddd6c6)" d="M 218.221714 298.944 
L 218.221714 3.456 
" style="fill:none;stroke:#b0b0b0;stroke-linecap:square;stroke-width:0.8;"/>
     </g>
     <g id="line2d_6">
      <g>
       <use style="stroke:#000000;stroke-width:0.8;" x="218.221714" xlink:href="#mda1fa9aa74" y="298.944"/>
      </g>
     </g>
     <g id="text_3">
      <!-- 4 -->
      <defs>
       <path d="M 37.796875 64.3125 
L 12.890625 25.390625 
L 37.796875 25.390625 
z
M 35.203125 72.90625 
L 47.609375 72.90625 
L 47.609375 25.390625 
L 58.015625 25.390625 
L 58.015625 17.1875 
L 47.609375 17.1875 
L 47.609375 0 
L 37.796875 0 
L 37.796875 17.1875 
L 4.890625 17.1875 
L 4.890625 26.703125 
z
" id="DejaVuSans-52"/>
      </defs>
      <g transform="translate(211.859214 321.140875)scale(0.2 -0.2)">
       <use xlink:href="#DejaVuSans-52"/>
      </g>
     </g>
    </g>
    <g id="xtick_4">
     <g id="line2d_7">
      <path clip-path="url(#p9c21ddd6c6)" d="M 298.532571 298.944 
L 298.532571 3.456 
" style="fill:none;stroke:#b0b0b0;stroke-linecap:square;stroke-width:0.8;"/>
     </g>
     <g id="line2d_8">
      <g>
       <use style="stroke:#000000;stroke-width:0.8;" x="298.532571" xlink:href="#mda1fa9aa74" y="298.944"/>
      </g>
     </g>
     <g id="text_4">
      <!-- 6 -->
      <defs>
       <path d="M 33.015625 40.375 
Q 26.375 40.375 22.484375 35.828125 
Q 18.609375 31.296875 18.609375 23.390625 
Q 18.609375 15.53125 22.484375 10.953125 
Q 26.375 6.390625 33.015625 6.390625 
Q 39.65625 6.390625 43.53125 10.953125 
Q 47.40625 15.53125 47.40625 23.390625 
Q 47.40625 31.296875 43.53125 35.828125 
Q 39.65625 40.375 33.015625 40.375 
z
M 52.59375 71.296875 
L 52.59375 62.3125 
Q 48.875 64.0625 45.09375 64.984375 
Q 41.3125 65.921875 37.59375 65.921875 
Q 27.828125 65.921875 22.671875 59.328125 
Q 17.53125 52.734375 16.796875 39.40625 
Q 19.671875 43.65625 24.015625 45.921875 
Q 28.375 48.1875 33.59375 48.1875 
Q 44.578125 48.1875 50.953125 41.515625 
Q 57.328125 34.859375 57.328125 23.390625 
Q 57.328125 12.15625 50.6875 5.359375 
Q 44.046875 -1.421875 33.015625 -1.421875 
Q 20.359375 -1.421875 13.671875 8.265625 
Q 6.984375 17.96875 6.984375 36.375 
Q 6.984375 53.65625 15.1875 63.9375 
Q 23.390625 74.21875 37.203125 74.21875 
Q 40.921875 74.21875 44.703125 73.484375 
Q 48.484375 72.75 52.59375 71.296875 
z
" id="DejaVuSans-54"/>
      </defs>
      <g transform="translate(292.170071 321.140875)scale(0.2 -0.2)">
       <use xlink:href="#DejaVuSans-54"/>
      </g>
     </g>
    </g>
    <g id="xtick_5">
     <g id="line2d_9">
      <path clip-path="url(#p9c21ddd6c6)" d="M 97.755429 298.944 
L 97.755429 3.456 
" style="fill:none;stroke:#b0b0b0;stroke-linecap:square;stroke-width:0.8;"/>
     </g>
     <g id="line2d_10">
      <defs>
       <path d="M 0 0 
L 0 2 
" id="mb5963e60da" style="stroke:#000000;stroke-width:0.6;"/>
      </defs>
      <g>
       <use style="stroke:#000000;stroke-width:0.6;" x="97.755429" xlink:href="#mb5963e60da" y="298.944"/>
      </g>
     </g>
    </g>
    <g id="xtick_6">
     <g id="line2d_11">
      <path clip-path="url(#p9c21ddd6c6)" d="M 178.066286 298.944 
L 178.066286 3.456 
" style="fill:none;stroke:#b0b0b0;stroke-linecap:square;stroke-width:0.8;"/>
     </g>
     <g id="line2d_12">
      <g>
       <use style="stroke:#000000;stroke-width:0.6;" x="178.066286" xlink:href="#mb5963e60da" y="298.944"/>
      </g>
     </g>
    </g>
    <g id="xtick_7">
     <g id="line2d_13">
      <path clip-path="url(#p9c21ddd6c6)" d="M 258.377143 298.944 
L 258.377143 3.456 
" style="fill:none;stroke:#b0b0b0;stroke-linecap:square;stroke-width:0.8;"/>
     </g>
     <g id="line2d_14">
      <g>
       <use style="stroke:#000000;stroke-width:0.6;" x="258.377143" xlink:href="#mb5963e60da" y="298.944"/>
      </g>
     </g>
    </g>
    <g id="xtick_8">
     <g id="line2d_15">
      <path clip-path="url(#p9c21ddd6c6)" d="M 338.688 298.944 
L 338.688 3.456 
" style="fill:none;stroke:#b0b0b0;stroke-linecap:square;stroke-width:0.8;"/>
     </g>
     <g id="line2d_16">
      <g>
       <use style="stroke:#000000;stroke-width:0.6;" x="338.688" xlink:href="#mb5963e60da" y="298.944"/>
      </g>
     </g>
    </g>
    <g id="text_5">
     <!-- log10(# f-evals / dimension) -->
     <defs>
      <path d="M 9.421875 75.984375 
L 18.40625 75.984375 
L 18.40625 0 
L 9.421875 0 
z
" id="DejaVuSans-108"/>
      <path d="M 30.609375 48.390625 
Q 23.390625 48.390625 19.1875 42.75 
Q 14.984375 37.109375 14.984375 27.296875 
Q 14.984375 17.484375 19.15625 11.84375 
Q 23.34375 6.203125 30.609375 6.203125 
Q 37.796875 6.203125 41.984375 11.859375 
Q 46.1875 17.53125 46.1875 27.296875 
Q 46.1875 37.015625 41.984375 42.703125 
Q 37.796875 48.390625 30.609375 48.390625 
z
M 30.609375 56 
Q 42.328125 56 49.015625 48.375 
Q 55.71875 40.765625 55.71875 27.296875 
Q 55.71875 13.875 49.015625 6.21875 
Q 42.328125 -1.421875 30.609375 -1.421875 
Q 18.84375 -1.421875 12.171875 6.21875 
Q 5.515625 13.875 5.515625 27.296875 
Q 5.515625 40.765625 12.171875 48.375 
Q 18.84375 56 30.609375 56 
z
" id="DejaVuSans-111"/>
      <path d="M 45.40625 27.984375 
Q 45.40625 37.75 41.375 43.109375 
Q 37.359375 48.484375 30.078125 48.484375 
Q 22.859375 48.484375 18.828125 43.109375 
Q 14.796875 37.75 14.796875 27.984375 
Q 14.796875 18.265625 18.828125 12.890625 
Q 22.859375 7.515625 30.078125 7.515625 
Q 37.359375 7.515625 41.375 12.890625 
Q 45.40625 18.265625 45.40625 27.984375 
z
M 54.390625 6.78125 
Q 54.390625 -7.171875 48.1875 -13.984375 
Q 42 -20.796875 29.203125 -20.796875 
Q 24.46875 -20.796875 20.265625 -20.09375 
Q 16.0625 -19.390625 12.109375 -17.921875 
L 12.109375 -9.1875 
Q 16.0625 -11.328125 19.921875 -12.34375 
Q 23.78125 -13.375 27.78125 -13.375 
Q 36.625 -13.375 41.015625 -8.765625 
Q 45.40625 -4.15625 45.40625 5.171875 
L 45.40625 9.625 
Q 42.625 4.78125 38.28125 2.390625 
Q 33.9375 0 27.875 0 
Q 17.828125 0 11.671875 7.65625 
Q 5.515625 15.328125 5.515625 27.984375 
Q 5.515625 40.671875 11.671875 48.328125 
Q 17.828125 56 27.875 56 
Q 33.9375 56 38.28125 53.609375 
Q 42.625 51.21875 45.40625 46.390625 
L 45.40625 54.6875 
L 54.390625 54.6875 
z
" id="DejaVuSans-103"/>
      <path d="M 12.40625 8.296875 
L 28.515625 8.296875 
L 28.515625 63.921875 
L 10.984375 60.40625 
L 10.984375 69.390625 
L 28.421875 72.90625 
L 38.28125 72.90625 
L 38.28125 8.296875 
L 54.390625 8.296875 
L 54.390625 0 
L 12.40625 0 
z
" id="DejaVuSans-49"/>
      <path d="M 31 75.875 
Q 24.46875 64.65625 21.28125 53.65625 
Q 18.109375 42.671875 18.109375 31.390625 
Q 18.109375 20.125 21.3125 9.0625 
Q 24.515625 -2 31 -13.1875 
L 23.1875 -13.1875 
Q 15.875 -1.703125 12.234375 9.375 
Q 8.59375 20.453125 8.59375 31.390625 
Q 8.59375 42.28125 12.203125 53.3125 
Q 15.828125 64.359375 23.1875 75.875 
z
" id="DejaVuSans-40"/>
      <path d="M 51.125 44 
L 36.921875 44 
L 32.8125 27.6875 
L 47.125 27.6875 
z
M 43.796875 71.78125 
L 38.71875 51.515625 
L 52.984375 51.515625 
L 58.109375 71.78125 
L 65.921875 71.78125 
L 60.890625 51.515625 
L 76.125 51.515625 
L 76.125 44 
L 58.984375 44 
L 54.984375 27.6875 
L 70.515625 27.6875 
L 70.515625 20.21875 
L 53.078125 20.21875 
L 48 0 
L 40.1875 0 
L 45.21875 20.21875 
L 30.90625 20.21875 
L 25.875 0 
L 18.015625 0 
L 23.09375 20.21875 
L 7.71875 20.21875 
L 7.71875 27.6875 
L 24.90625 27.6875 
L 29 44 
L 13.28125 44 
L 13.28125 51.515625 
L 30.90625 51.515625 
L 35.890625 71.78125 
z
" id="DejaVuSans-35"/>
      <path id="DejaVuSans-32"/>
      <path d="M 37.109375 75.984375 
L 37.109375 68.5 
L 28.515625 68.5 
Q 23.6875 68.5 21.796875 66.546875 
Q 19.921875 64.59375 19.921875 59.515625 
L 19.921875 54.6875 
L 34.71875 54.6875 
L 34.71875 47.703125 
L 19.921875 47.703125 
L 19.921875 0 
L 10.890625 0 
L 10.890625 47.703125 
L 2.296875 47.703125 
L 2.296875 54.6875 
L 10.890625 54.6875 
L 10.890625 58.5 
Q 10.890625 67.625 15.140625 71.796875 
Q 19.390625 75.984375 28.609375 75.984375 
z
" id="DejaVuSans-102"/>
      <path d="M 4.890625 31.390625 
L 31.203125 31.390625 
L 31.203125 23.390625 
L 4.890625 23.390625 
z
" id="DejaVuSans-45"/>
      <path d="M 56.203125 29.59375 
L 56.203125 25.203125 
L 14.890625 25.203125 
Q 15.484375 15.921875 20.484375 11.0625 
Q 25.484375 6.203125 34.421875 6.203125 
Q 39.59375 6.203125 44.453125 7.46875 
Q 49.3125 8.734375 54.109375 11.28125 
L 54.109375 2.78125 
Q 49.265625 0.734375 44.1875 -0.34375 
Q 39.109375 -1.421875 33.890625 -1.421875 
Q 20.796875 -1.421875 13.15625 6.1875 
Q 5.515625 13.8125 5.515625 26.8125 
Q 5.515625 40.234375 12.765625 48.109375 
Q 20.015625 56 32.328125 56 
Q 43.359375 56 49.78125 48.890625 
Q 56.203125 41.796875 56.203125 29.59375 
z
M 47.21875 32.234375 
Q 47.125 39.59375 43.09375 43.984375 
Q 39.0625 48.390625 32.421875 48.390625 
Q 24.90625 48.390625 20.390625 44.140625 
Q 15.875 39.890625 15.1875 32.171875 
z
" id="DejaVuSans-101"/>
      <path d="M 2.984375 54.6875 
L 12.5 54.6875 
L 29.59375 8.796875 
L 46.6875 54.6875 
L 56.203125 54.6875 
L 35.6875 0 
L 23.484375 0 
z
" id="DejaVuSans-118"/>
      <path d="M 34.28125 27.484375 
Q 23.390625 27.484375 19.1875 25 
Q 14.984375 22.515625 14.984375 16.5 
Q 14.984375 11.71875 18.140625 8.90625 
Q 21.296875 6.109375 26.703125 6.109375 
Q 34.1875 6.109375 38.703125 11.40625 
Q 43.21875 16.703125 43.21875 25.484375 
L 43.21875 27.484375 
z
M 52.203125 31.203125 
L 52.203125 0 
L 43.21875 0 
L 43.21875 8.296875 
Q 40.140625 3.328125 35.546875 0.953125 
Q 30.953125 -1.421875 24.3125 -1.421875 
Q 15.921875 -1.421875 10.953125 3.296875 
Q 6 8.015625 6 15.921875 
Q 6 25.140625 12.171875 29.828125 
Q 18.359375 34.515625 30.609375 34.515625 
L 43.21875 34.515625 
L 43.21875 35.40625 
Q 43.21875 41.609375 39.140625 45 
Q 35.0625 48.390625 27.6875 48.390625 
Q 23 48.390625 18.546875 47.265625 
Q 14.109375 46.140625 10.015625 43.890625 
L 10.015625 52.203125 
Q 14.9375 54.109375 19.578125 55.046875 
Q 24.21875 56 28.609375 56 
Q 40.484375 56 46.34375 49.84375 
Q 52.203125 43.703125 52.203125 31.203125 
z
" id="DejaVuSans-97"/>
      <path d="M 44.28125 53.078125 
L 44.28125 44.578125 
Q 40.484375 46.53125 36.375 47.5 
Q 32.28125 48.484375 27.875 48.484375 
Q 21.1875 48.484375 17.84375 46.4375 
Q 14.5 44.390625 14.5 40.28125 
Q 14.5 37.15625 16.890625 35.375 
Q 19.28125 33.59375 26.515625 31.984375 
L 29.59375 31.296875 
Q 39.15625 29.25 43.1875 25.515625 
Q 47.21875 21.78125 47.21875 15.09375 
Q 47.21875 7.46875 41.1875 3.015625 
Q 35.15625 -1.421875 24.609375 -1.421875 
Q 20.21875 -1.421875 15.453125 -0.5625 
Q 10.6875 0.296875 5.421875 2 
L 5.421875 11.28125 
Q 10.40625 8.6875 15.234375 7.390625 
Q 20.0625 6.109375 24.8125 6.109375 
Q 31.15625 6.109375 34.5625 8.28125 
Q 37.984375 10.453125 37.984375 14.40625 
Q 37.984375 18.0625 35.515625 20.015625 
Q 33.0625 21.96875 24.703125 23.78125 
L 21.578125 24.515625 
Q 13.234375 26.265625 9.515625 29.90625 
Q 5.8125 33.546875 5.8125 39.890625 
Q 5.8125 47.609375 11.28125 51.796875 
Q 16.75 56 26.8125 56 
Q 31.78125 56 36.171875 55.265625 
Q 40.578125 54.546875 44.28125 53.078125 
z
" id="DejaVuSans-115"/>
      <path d="M 25.390625 72.90625 
L 33.6875 72.90625 
L 8.296875 -9.28125 
L 0 -9.28125 
z
" id="DejaVuSans-47"/>
      <path d="M 45.40625 46.390625 
L 45.40625 75.984375 
L 54.390625 75.984375 
L 54.390625 0 
L 45.40625 0 
L 45.40625 8.203125 
Q 42.578125 3.328125 38.25 0.953125 
Q 33.9375 -1.421875 27.875 -1.421875 
Q 17.96875 -1.421875 11.734375 6.484375 
Q 5.515625 14.40625 5.515625 27.296875 
Q 5.515625 40.1875 11.734375 48.09375 
Q 17.96875 56 27.875 56 
Q 33.9375 56 38.25 53.625 
Q 42.578125 51.265625 45.40625 46.390625 
z
M 14.796875 27.296875 
Q 14.796875 17.390625 18.875 11.75 
Q 22.953125 6.109375 30.078125 6.109375 
Q 37.203125 6.109375 41.296875 11.75 
Q 45.40625 17.390625 45.40625 27.296875 
Q 45.40625 37.203125 41.296875 42.84375 
Q 37.203125 48.484375 30.078125 48.484375 
Q 22.953125 48.484375 18.875 42.84375 
Q 14.796875 37.203125 14.796875 27.296875 
z
" id="DejaVuSans-100"/>
      <path d="M 9.421875 54.6875 
L 18.40625 54.6875 
L 18.40625 0 
L 9.421875 0 
z
M 9.421875 75.984375 
L 18.40625 75.984375 
L 18.40625 64.59375 
L 9.421875 64.59375 
z
" id="DejaVuSans-105"/>
      <path d="M 52 44.1875 
Q 55.375 50.25 60.0625 53.125 
Q 64.75 56 71.09375 56 
Q 79.640625 56 84.28125 50.015625 
Q 88.921875 44.046875 88.921875 33.015625 
L 88.921875 0 
L 79.890625 0 
L 79.890625 32.71875 
Q 79.890625 40.578125 77.09375 44.375 
Q 74.3125 48.1875 68.609375 48.1875 
Q 61.625 48.1875 57.5625 43.546875 
Q 53.515625 38.921875 53.515625 30.90625 
L 53.515625 0 
L 44.484375 0 
L 44.484375 32.71875 
Q 44.484375 40.625 41.703125 44.40625 
Q 38.921875 48.1875 33.109375 48.1875 
Q 26.21875 48.1875 22.15625 43.53125 
Q 18.109375 38.875 18.109375 30.90625 
L 18.109375 0 
L 9.078125 0 
L 9.078125 54.6875 
L 18.109375 54.6875 
L 18.109375 46.1875 
Q 21.1875 51.21875 25.484375 53.609375 
Q 29.78125 56 35.6875 56 
Q 41.65625 56 45.828125 52.96875 
Q 50 49.953125 52 44.1875 
z
" id="DejaVuSans-109"/>
      <path d="M 54.890625 33.015625 
L 54.890625 0 
L 45.90625 0 
L 45.90625 32.71875 
Q 45.90625 40.484375 42.875 44.328125 
Q 39.84375 48.1875 33.796875 48.1875 
Q 26.515625 48.1875 22.3125 43.546875 
Q 18.109375 38.921875 18.109375 30.90625 
L 18.109375 0 
L 9.078125 0 
L 9.078125 54.6875 
L 18.109375 54.6875 
L 18.109375 46.1875 
Q 21.34375 51.125 25.703125 53.5625 
Q 30.078125 56 35.796875 56 
Q 45.21875 56 50.046875 50.171875 
Q 54.890625 44.34375 54.890625 33.015625 
z
" id="DejaVuSans-110"/>
      <path d="M 8.015625 75.875 
L 15.828125 75.875 
Q 23.140625 64.359375 26.78125 53.3125 
Q 30.421875 42.28125 30.421875 31.390625 
Q 30.421875 20.453125 26.78125 9.375 
Q 23.140625 -1.703125 15.828125 -13.1875 
L 8.015625 -13.1875 
Q 14.5 -2 17.703125 9.0625 
Q 20.90625 20.125 20.90625 31.390625 
Q 20.90625 42.671875 17.703125 53.65625 
Q 14.5 64.65625 8.015625 75.875 
z
" id="DejaVuSans-41"/>
     </defs>
     <g transform="translate(77.764078 342.217594)scale(0.17 -0.17)">
      <use xlink:href="#DejaVuSans-108"/>
      <use x="27.783203" xlink:href="#DejaVuSans-111"/>
      <use x="88.964844" xlink:href="#DejaVuSans-103"/>
      <use x="152.441406" xlink:href="#DejaVuSans-49"/>
      <use x="216.064453" xlink:href="#DejaVuSans-48"/>
      <use x="279.6875" xlink:href="#DejaVuSans-40"/>
      <use x="318.701172" xlink:href="#DejaVuSans-35"/>
      <use x="402.490234" xlink:href="#DejaVuSans-32"/>
      <use x="434.277344" xlink:href="#DejaVuSans-102"/>
      <use x="463.982422" xlink:href="#DejaVuSans-45"/>
      <use x="500.066406" xlink:href="#DejaVuSans-101"/>
      <use x="561.589844" xlink:href="#DejaVuSans-118"/>
      <use x="620.769531" xlink:href="#DejaVuSans-97"/>
      <use x="682.048828" xlink:href="#DejaVuSans-108"/>
      <use x="709.832031" xlink:href="#DejaVuSans-115"/>
      <use x="761.931641" xlink:href="#DejaVuSans-32"/>
      <use x="793.71875" xlink:href="#DejaVuSans-47"/>
      <use x="827.410156" xlink:href="#DejaVuSans-32"/>
      <use x="859.197266" xlink:href="#DejaVuSans-100"/>
      <use x="922.673828" xlink:href="#DejaVuSans-105"/>
      <use x="950.457031" xlink:href="#DejaVuSans-109"/>
      <use x="1047.869141" xlink:href="#DejaVuSans-101"/>
      <use x="1109.392578" xlink:href="#DejaVuSans-110"/>
      <use x="1172.771484" xlink:href="#DejaVuSans-115"/>
      <use x="1224.871094" xlink:href="#DejaVuSans-105"/>
      <use x="1252.654297" xlink:href="#DejaVuSans-111"/>
      <use x="1313.835938" xlink:href="#DejaVuSans-110"/>
      <use x="1377.214844" xlink:href="#DejaVuSans-41"/>
     </g>
    </g>
   </g>
   <g id="matplotlib.axis_2">
    <g id="ytick_1">
     <g id="line2d_17">
      <path clip-path="url(#p9c21ddd6c6)" d="M 57.6 298.944 
L 338.688 298.944 
" style="fill:none;stroke:#b0b0b0;stroke-linecap:square;stroke-width:0.8;"/>
     </g>
     <g id="line2d_18">
      <defs>
       <path d="M 0 0 
L -3.5 0 
" id="m885dcdf46f" style="stroke:#000000;stroke-width:0.8;"/>
      </defs>
      <g>
       <use style="stroke:#000000;stroke-width:0.8;" x="57.6" xlink:href="#m885dcdf46f" y="298.944"/>
      </g>
     </g>
     <g id="text_6">
      <!-- 0.0 -->
      <defs>
       <path d="M 10.6875 12.40625 
L 21 12.40625 
L 21 0 
L 10.6875 0 
z
" id="DejaVuSans-46"/>
      </defs>
      <g transform="translate(25.155 305.02275)scale(0.16 -0.16)">
       <use xlink:href="#DejaVuSans-48"/>
       <use x="63.623047" xlink:href="#DejaVuSans-46"/>
       <use x="95.410156" xlink:href="#DejaVuSans-48"/>
      </g>
     </g>
    </g>
    <g id="ytick_2">
     <g id="line2d_19">
      <path clip-path="url(#p9c21ddd6c6)" d="M 57.6 240.431525 
L 338.688 240.431525 
" style="fill:none;stroke:#b0b0b0;stroke-linecap:square;stroke-width:0.8;"/>
     </g>
     <g id="line2d_20">
      <g>
       <use style="stroke:#000000;stroke-width:0.8;" x="57.6" xlink:href="#m885dcdf46f" y="240.431525"/>
      </g>
     </g>
     <g id="text_7">
      <!-- 0.2 -->
      <g transform="translate(25.155 246.510275)scale(0.16 -0.16)">
       <use xlink:href="#DejaVuSans-48"/>
       <use x="63.623047" xlink:href="#DejaVuSans-46"/>
       <use x="95.410156" xlink:href="#DejaVuSans-50"/>
      </g>
     </g>
    </g>
    <g id="ytick_3">
     <g id="line2d_21">
      <path clip-path="url(#p9c21ddd6c6)" d="M 57.6 181.91905 
L 338.688 181.91905 
" style="fill:none;stroke:#b0b0b0;stroke-linecap:square;stroke-width:0.8;"/>
     </g>
     <g id="line2d_22">
      <g>
       <use style="stroke:#000000;stroke-width:0.8;" x="57.6" xlink:href="#m885dcdf46f" y="181.91905"/>
      </g>
     </g>
     <g id="text_8">
      <!-- 0.4 -->
      <g transform="translate(25.155 187.9978)scale(0.16 -0.16)">
       <use xlink:href="#DejaVuSans-48"/>
       <use x="63.623047" xlink:href="#DejaVuSans-46"/>
       <use x="95.410156" xlink:href="#DejaVuSans-52"/>
      </g>
     </g>
    </g>
    <g id="ytick_4">
     <g id="line2d_23">
      <path clip-path="url(#p9c21ddd6c6)" d="M 57.6 123.406574 
L 338.688 123.406574 
" style="fill:none;stroke:#b0b0b0;stroke-linecap:square;stroke-width:0.8;"/>
     </g>
     <g id="line2d_24">
      <g>
       <use style="stroke:#000000;stroke-width:0.8;" x="57.6" xlink:href="#m885dcdf46f" y="123.406574"/>
      </g>
     </g>
     <g id="text_9">
      <!-- 0.6 -->
      <g transform="translate(25.155 129.485324)scale(0.16 -0.16)">
       <use xlink:href="#DejaVuSans-48"/>
       <use x="63.623047" xlink:href="#DejaVuSans-46"/>
       <use x="95.410156" xlink:href="#DejaVuSans-54"/>
      </g>
     </g>
    </g>
    <g id="ytick_5">
     <g id="line2d_25">
      <path clip-path="url(#p9c21ddd6c6)" d="M 57.6 64.894099 
L 338.688 64.894099 
" style="fill:none;stroke:#b0b0b0;stroke-linecap:square;stroke-width:0.8;"/>
     </g>
     <g id="line2d_26">
      <g>
       <use style="stroke:#000000;stroke-width:0.8;" x="57.6" xlink:href="#m885dcdf46f" y="64.894099"/>
      </g>
     </g>
     <g id="text_10">
      <!-- 0.8 -->
      <defs>
       <path d="M 31.78125 34.625 
Q 24.75 34.625 20.71875 30.859375 
Q 16.703125 27.09375 16.703125 20.515625 
Q 16.703125 13.921875 20.71875 10.15625 
Q 24.75 6.390625 31.78125 6.390625 
Q 38.8125 6.390625 42.859375 10.171875 
Q 46.921875 13.96875 46.921875 20.515625 
Q 46.921875 27.09375 42.890625 30.859375 
Q 38.875 34.625 31.78125 34.625 
z
M 21.921875 38.8125 
Q 15.578125 40.375 12.03125 44.71875 
Q 8.5 49.078125 8.5 55.328125 
Q 8.5 64.0625 14.71875 69.140625 
Q 20.953125 74.21875 31.78125 74.21875 
Q 42.671875 74.21875 48.875 69.140625 
Q 55.078125 64.0625 55.078125 55.328125 
Q 55.078125 49.078125 51.53125 44.71875 
Q 48 40.375 41.703125 38.8125 
Q 48.828125 37.15625 52.796875 32.3125 
Q 56.78125 27.484375 56.78125 20.515625 
Q 56.78125 9.90625 50.3125 4.234375 
Q 43.84375 -1.421875 31.78125 -1.421875 
Q 19.734375 -1.421875 13.25 4.234375 
Q 6.78125 9.90625 6.78125 20.515625 
Q 6.78125 27.484375 10.78125 32.3125 
Q 14.796875 37.15625 21.921875 38.8125 
z
M 18.3125 54.390625 
Q 18.3125 48.734375 21.84375 45.5625 
Q 25.390625 42.390625 31.78125 42.390625 
Q 38.140625 42.390625 41.71875 45.5625 
Q 45.3125 48.734375 45.3125 54.390625 
Q 45.3125 60.0625 41.71875 63.234375 
Q 38.140625 66.40625 31.78125 66.40625 
Q 25.390625 66.40625 21.84375 63.234375 
Q 18.3125 60.0625 18.3125 54.390625 
z
" id="DejaVuSans-56"/>
      </defs>
      <g transform="translate(25.155 70.972849)scale(0.16 -0.16)">
       <use xlink:href="#DejaVuSans-48"/>
       <use x="63.623047" xlink:href="#DejaVuSans-46"/>
       <use x="95.410156" xlink:href="#DejaVuSans-56"/>
      </g>
     </g>
    </g>
    <g id="ytick_6">
     <g id="line2d_27">
      <path clip-path="url(#p9c21ddd6c6)" d="M 57.6 6.381624 
L 338.688 6.381624 
" style="fill:none;stroke:#b0b0b0;stroke-linecap:square;stroke-width:0.8;"/>
     </g>
     <g id="line2d_28">
      <g>
       <use style="stroke:#000000;stroke-width:0.8;" x="57.6" xlink:href="#m885dcdf46f" y="6.381624"/>
      </g>
     </g>
     <g id="text_11">
      <!-- 1.0 -->
      <g transform="translate(25.155 12.460374)scale(0.16 -0.16)">
       <use xlink:href="#DejaVuSans-49"/>
       <use x="63.623047" xlink:href="#DejaVuSans-46"/>
       <use x="95.410156" xlink:href="#DejaVuSans-48"/>
      </g>
     </g>
    </g>
    <g id="text_12">
     <!-- Fraction of function,target pairs -->
     <defs>
      <path d="M 9.8125 72.90625 
L 51.703125 72.90625 
L 51.703125 64.59375 
L 19.671875 64.59375 
L 19.671875 43.109375 
L 48.578125 43.109375 
L 48.578125 34.8125 
L 19.671875 34.8125 
L 19.671875 0 
L 9.8125 0 
z
" id="DejaVuSans-70"/>
      <path d="M 41.109375 46.296875 
Q 39.59375 47.171875 37.8125 47.578125 
Q 36.03125 48 33.890625 48 
Q 26.265625 48 22.1875 43.046875 
Q 18.109375 38.09375 18.109375 28.8125 
L 18.109375 0 
L 9.078125 0 
L 9.078125 54.6875 
L 18.109375 54.6875 
L 18.109375 46.1875 
Q 20.953125 51.171875 25.484375 53.578125 
Q 30.03125 56 36.53125 56 
Q 37.453125 56 38.578125 55.875 
Q 39.703125 55.765625 41.0625 55.515625 
z
" id="DejaVuSans-114"/>
      <path d="M 48.78125 52.59375 
L 48.78125 44.1875 
Q 44.96875 46.296875 41.140625 47.34375 
Q 37.3125 48.390625 33.40625 48.390625 
Q 24.65625 48.390625 19.8125 42.84375 
Q 14.984375 37.3125 14.984375 27.296875 
Q 14.984375 17.28125 19.8125 11.734375 
Q 24.65625 6.203125 33.40625 6.203125 
Q 37.3125 6.203125 41.140625 7.25 
Q 44.96875 8.296875 48.78125 10.40625 
L 48.78125 2.09375 
Q 45.015625 0.34375 40.984375 -0.53125 
Q 36.96875 -1.421875 32.421875 -1.421875 
Q 20.0625 -1.421875 12.78125 6.34375 
Q 5.515625 14.109375 5.515625 27.296875 
Q 5.515625 40.671875 12.859375 48.328125 
Q 20.21875 56 33.015625 56 
Q 37.15625 56 41.109375 55.140625 
Q 45.0625 54.296875 48.78125 52.59375 
z
" id="DejaVuSans-99"/>
      <path d="M 18.3125 70.21875 
L 18.3125 54.6875 
L 36.8125 54.6875 
L 36.8125 47.703125 
L 18.3125 47.703125 
L 18.3125 18.015625 
Q 18.3125 11.328125 20.140625 9.421875 
Q 21.96875 7.515625 27.59375 7.515625 
L 36.8125 7.515625 
L 36.8125 0 
L 27.59375 0 
Q 17.1875 0 13.234375 3.875 
Q 9.28125 7.765625 9.28125 18.015625 
L 9.28125 47.703125 
L 2.6875 47.703125 
L 2.6875 54.6875 
L 9.28125 54.6875 
L 9.28125 70.21875 
z
" id="DejaVuSans-116"/>
      <path d="M 8.5 21.578125 
L 8.5 54.6875 
L 17.484375 54.6875 
L 17.484375 21.921875 
Q 17.484375 14.15625 20.5 10.265625 
Q 23.53125 6.390625 29.59375 6.390625 
Q 36.859375 6.390625 41.078125 11.03125 
Q 45.3125 15.671875 45.3125 23.6875 
L 45.3125 54.6875 
L 54.296875 54.6875 
L 54.296875 0 
L 45.3125 0 
L 45.3125 8.40625 
Q 42.046875 3.421875 37.71875 1 
Q 33.40625 -1.421875 27.6875 -1.421875 
Q 18.265625 -1.421875 13.375 4.4375 
Q 8.5 10.296875 8.5 21.578125 
z
M 31.109375 56 
z
" id="DejaVuSans-117"/>
      <path d="M 11.71875 12.40625 
L 22.015625 12.40625 
L 22.015625 4 
L 14.015625 -11.625 
L 7.71875 -11.625 
L 11.71875 4 
z
" id="DejaVuSans-44"/>
      <path d="M 18.109375 8.203125 
L 18.109375 -20.796875 
L 9.078125 -20.796875 
L 9.078125 54.6875 
L 18.109375 54.6875 
L 18.109375 46.390625 
Q 20.953125 51.265625 25.265625 53.625 
Q 29.59375 56 35.59375 56 
Q 45.5625 56 51.78125 48.09375 
Q 58.015625 40.1875 58.015625 27.296875 
Q 58.015625 14.40625 51.78125 6.484375 
Q 45.5625 -1.421875 35.59375 -1.421875 
Q 29.59375 -1.421875 25.265625 0.953125 
Q 20.953125 3.328125 18.109375 8.203125 
z
M 48.6875 27.296875 
Q 48.6875 37.203125 44.609375 42.84375 
Q 40.53125 48.484375 33.40625 48.484375 
Q 26.265625 48.484375 22.1875 42.84375 
Q 18.109375 37.203125 18.109375 27.296875 
Q 18.109375 17.390625 22.1875 11.75 
Q 26.265625 6.109375 33.40625 6.109375 
Q 40.53125 6.109375 44.609375 11.75 
Q 48.6875 17.390625 48.6875 27.296875 
z
" id="DejaVuSans-112"/>
     </defs>
     <g transform="translate(17.619531 285.585)rotate(-90)scale(0.17 -0.17)">
      <use xlink:href="#DejaVuSans-70"/>
      <use x="50.269531" xlink:href="#DejaVuSans-114"/>
      <use x="91.382812" xlink:href="#DejaVuSans-97"/>
      <use x="152.662109" xlink:href="#DejaVuSans-99"/>
      <use x="207.642578" xlink:href="#DejaVuSans-116"/>
      <use x="246.851562" xlink:href="#DejaVuSans-105"/>
      <use x="274.634766" xlink:href="#DejaVuSans-111"/>
      <use x="335.816406" xlink:href="#DejaVuSans-110"/>
      <use x="399.195312" xlink:href="#DejaVuSans-32"/>
      <use x="430.982422" xlink:href="#DejaVuSans-111"/>
      <use x="492.164062" xlink:href="#DejaVuSans-102"/>
      <use x="527.369141" xlink:href="#DejaVuSans-32"/>
      <use x="559.15625" xlink:href="#DejaVuSans-102"/>
      <use x="594.361328" xlink:href="#DejaVuSans-117"/>
      <use x="657.740234" xlink:href="#DejaVuSans-110"/>
      <use x="721.119141" xlink:href="#DejaVuSans-99"/>
      <use x="776.099609" xlink:href="#DejaVuSans-116"/>
      <use x="815.308594" xlink:href="#DejaVuSans-105"/>
      <use x="843.091797" xlink:href="#DejaVuSans-111"/>
      <use x="904.273438" xlink:href="#DejaVuSans-110"/>
      <use x="967.652344" xlink:href="#DejaVuSans-44"/>
      <use x="999.439453" xlink:href="#DejaVuSans-116"/>
      <use x="1038.648438" xlink:href="#DejaVuSans-97"/>
      <use x="1099.927734" xlink:href="#DejaVuSans-114"/>
      <use x="1139.291016" xlink:href="#DejaVuSans-103"/>
      <use x="1202.767578" xlink:href="#DejaVuSans-101"/>
      <use x="1264.291016" xlink:href="#DejaVuSans-116"/>
      <use x="1303.5" xlink:href="#DejaVuSans-32"/>
      <use x="1335.287109" xlink:href="#DejaVuSans-112"/>
      <use x="1398.763672" xlink:href="#DejaVuSans-97"/>
      <use x="1460.042969" xlink:href="#DejaVuSans-105"/>
      <use x="1487.826172" xlink:href="#DejaVuSans-114"/>
      <use x="1528.939453" xlink:href="#DejaVuSans-115"/>
     </g>
    </g>
   </g>
   <g id="line2d_29">
    <defs>
     <path d="M 0 1.5 
C 0.397805 1.5 0.77937 1.341951 1.06066 1.06066 
C 1.341951 0.77937 1.5 0.397805 1.5 0 
C 1.5 -0.397805 1.341951 -0.77937 1.06066 -1.06066 
C 0.77937 -1.341951 0.397805 -1.5 0 -1.5 
C -0.397805 -1.5 -0.77937 -1.341951 -1.06066 -1.06066 
C -1.341951 -0.77937 -1.5 -0.397805 -1.5 0 
C -1.5 0.397805 -1.341951 0.77937 -1.06066 1.06066 
C -0.77937 1.341951 -0.397805 1.5 0 1.5 
z
" id="m439f963bd8" style="stroke:#00bfbf;"/>
    </defs>
    <g>
     <use style="fill:#00bfbf;stroke:#00bfbf;" x="232.890146" xlink:href="#m439f963bd8" y="171.593319"/>
     <use style="fill:#00bfbf;stroke:#00bfbf;" x="232.890146" xlink:href="#m439f963bd8" y="171.593319"/>
    </g>
   </g>
   <g id="line2d_30">
    <path d="M 45.512012 298.944 
L 45.512012 274.047515 
L 69.687988 274.047515 
L 69.687988 273.932785 
L 73.579452 273.932785 
L 73.579452 273.818055 
L 76.759008 273.818055 
L 76.759008 273.588594 
L 79.447285 273.588594 
L 79.447285 273.014942 
L 81.775977 273.014942 
L 81.775977 272.441291 
L 83.830028 272.441291 
L 83.830028 270.949796 
L 85.66744 270.949796 
L 85.66744 269.802493 
L 87.329581 269.802493 
L 87.329581 268.081538 
L 90.242884 268.081538 
L 90.242884 267.966807 
L 92.73846 267.966807 
L 92.73846 267.737347 
L 93.863965 267.737347 
L 93.863965 267.622616 
L 94.921215 267.622616 
L 94.921215 267.278425 
L 95.918017 267.278425 
L 95.918017 267.163695 
L 96.86091 267.163695 
L 96.86091 266.704773 
L 97.755429 266.704773 
L 97.755429 266.475313 
L 98.606294 266.475313 
L 98.606294 266.245852 
L 99.41757 266.245852 
L 99.41757 265.44274 
L 100.192776 265.44274 
L 100.192776 264.639627 
L 100.934985 264.639627 
L 100.934985 264.295436 
L 101.646892 264.295436 
L 101.646892 264.065976 
L 102.330873 264.065976 
L 102.330873 263.721785 
L 102.989037 263.721785 
L 102.989037 263.607054 
L 104.826449 263.607054 
L 104.826449 263.492324 
L 105.398279 263.492324 
L 105.398279 263.262863 
L 113.73488 263.262863 
L 113.73488 262.918672 
L 114.751048 262.918672 
L 114.751048 262.803942 
L 115.077025 262.803942 
L 115.077025 262.689211 
L 115.397021 262.689211 
L 115.397021 262.574481 
L 115.711251 262.574481 
L 115.711251 262.459751 
L 116.323218 262.459751 
L 116.323218 262.34502 
L 116.621333 262.34502 
L 116.621333 262.11556 
L 116.914437 262.11556 
L 116.914437 261.886099 
L 117.765302 261.886099 
L 117.765302 261.656638 
L 118.039942 261.656638 
L 118.039942 261.541908 
L 118.576578 261.541908 
L 118.576578 261.312447 
L 118.838828 261.312447 
L 118.838828 260.853526 
L 119.351785 260.853526 
L 119.351785 260.738796 
L 119.602714 260.738796 
L 119.602714 260.394605 
L 119.850084 260.394605 
L 119.850084 260.165144 
L 120.33454 260.165144 
L 120.33454 260.050414 
L 120.8059 260.050414 
L 120.8059 259.820953 
L 121.036887 259.820953 
L 121.036887 259.476762 
L 121.489881 259.476762 
L 121.489881 259.362031 
L 121.712041 259.362031 
L 121.712041 259.132571 
L 121.931406 259.132571 
L 121.931406 259.01784 
L 122.148045 259.01784 
L 122.148045 258.78838 
L 122.573415 258.78838 
L 122.573415 258.673649 
L 122.988655 258.673649 
L 122.988655 258.558919 
L 123.394238 258.558919 
L 123.394238 258.444189 
L 123.985457 258.444189 
L 123.985457 257.985267 
L 125.470548 257.985267 
L 125.470548 257.870537 
L 125.822869 257.870537 
L 125.822869 257.641076 
L 125.996395 257.641076 
L 125.996395 257.526346 
L 126.673734 257.526346 
L 126.673734 257.411616 
L 127.002787 257.411616 
L 127.002787 257.296885 
L 127.165014 257.296885 
L 127.165014 257.182155 
L 127.642832 257.182155 
L 127.642832 257.067425 
L 127.799239 257.067425 
L 127.799239 256.952694 
L 128.260216 256.952694 
L 128.260216 256.837964 
L 129.147151 256.837964 
L 129.147151 256.723234 
L 130.398313 256.723234 
L 130.398313 256.608503 
L 130.531948 256.608503 
L 130.531948 256.379043 
L 130.664567 256.379043 
L 130.664567 256.264312 
L 131.690703 256.264312 
L 131.690703 256.034851 
L 131.814826 256.034851 
L 131.814826 255.920121 
L 131.938072 255.920121 
L 131.938072 255.69066 
L 132.541568 255.69066 
L 132.541568 255.57593 
L 132.659801 255.57593 
L 132.659801 255.346469 
L 132.893889 255.346469 
L 132.893889 255.231739 
L 133.009765 255.231739 
L 133.009765 255.002278 
L 133.239232 255.002278 
L 133.239232 254.313896 
L 133.46572 254.313896 
L 133.46572 254.199166 
L 133.689303 254.199166 
L 133.689303 253.854975 
L 134.019394 253.854975 
L 134.019394 253.625514 
L 134.343353 253.625514 
L 134.343353 253.510784 
L 134.55603 253.510784 
L 134.55603 252.937132 
L 134.766144 252.937132 
L 134.766144 252.822402 
L 135.681535 252.822402 
L 135.681535 252.707672 
L 135.97629 252.707672 
L 136.073445 252.478211 
L 136.361705 252.478211 
L 136.361705 252.36348 
L 136.645276 252.36348 
L 136.645276 252.24875 
L 136.924311 252.24875 
L 136.924311 252.019289 
L 137.107884 252.019289 
L 137.198951 251.216177 
L 137.647286 251.216177 
L 137.647286 251.101447 
L 137.910857 251.101447 
L 137.910857 250.871986 
L 138.170504 250.871986 
L 138.256201 250.413065 
L 138.426341 250.413065 
L 138.510793 249.609952 
L 140.195896 249.609952 
L 140.195896 249.495222 
L 140.423864 249.495222 
L 140.423864 249.380492 
L 140.79731 249.380492 
L 140.79731 249.265761 
L 141.307054 249.265761 
L 141.307054 249.151031 
L 141.941279 249.151031 
L 141.941279 249.036301 
L 142.215919 249.036301 
L 142.215919 248.577379 
L 142.351634 248.577379 
L 142.351634 248.462649 
L 143.840863 248.462649 
L 143.840863 248.233188 
L 144.865226 248.233188 
L 144.865226 248.118458 
L 145.440832 248.118458 
L 145.440832 247.888997 
L 145.553708 247.888997 
L 145.609873 247.430076 
L 145.943118 247.430076 
L 145.943118 247.315345 
L 146.107383 247.315345 
L 146.107383 247.200615 
L 146.431341 247.200615 
L 146.431341 247.085885 
L 146.749392 247.085885 
L 146.801841 246.741694 
L 147.010073 246.741694 
L 147.010073 246.626963 
L 147.71991 246.626963 
L 147.71991 245.823851 
L 148.161434 245.823851 
L 148.161434 245.59439 
L 148.40198 245.59439 
L 148.497276 245.36493 
L 148.639252 245.36493 
L 148.686322 245.020738 
L 148.780082 245.020738 
L 148.87334 244.791278 
L 148.966103 244.791278 
L 149.012299 244.332356 
L 149.104327 244.332356 
L 149.104327 244.217626 
L 149.241465 244.217626 
L 149.241465 243.988165 
L 149.422654 243.988165 
L 149.422654 243.873435 
L 149.735275 243.873435 
L 149.823575 243.529244 
L 149.867558 243.529244 
L 149.955193 243.070323 
L 150.085825 243.070323 
L 150.085825 242.955592 
L 150.258492 242.955592 
L 150.301393 242.611401 
L 150.38688 242.611401 
L 150.47195 242.381941 
L 150.808139 242.381941 
L 150.808139 242.26721 
L 151.13797 242.26721 
L 151.219462 242.03775 
L 151.621307 242.03775 
L 151.700576 241.693559 
L 151.740076 241.693559 
L 151.818809 241.349368 
L 151.858043 241.349368 
L 151.897188 240.775716 
L 152.245598 240.775716 
L 152.322086 240.202064 
L 152.474064 240.202064 
L 152.474064 239.743143 
L 152.662192 239.743143 
L 152.736878 239.398952 
L 152.885298 239.398952 
L 152.959038 239.169491 
L 153.105587 239.169491 
L 153.105587 239.054761 
L 153.359122 239.054761 
L 153.466662 238.71057 
L 153.679772 238.71057 
L 153.679772 238.595839 
L 153.855395 238.595839 
L 153.855395 238.481109 
L 154.235652 238.481109 
L 154.269814 238.251648 
L 154.371897 238.251648 
L 154.439623 237.907457 
L 154.54072 237.907457 
L 154.54072 237.792727 
L 154.674612 237.792727 
L 154.707925 237.563266 
L 155.004911 237.563266 
L 155.004911 237.448536 
L 155.264719 237.448536 
L 155.264719 237.333805 
L 155.488919 237.333805 
L 155.584129 237.104345 
L 155.710272 237.104345 
L 155.804285 236.760154 
L 156.205916 236.760154 
L 156.205916 236.530693 
L 156.327657 236.530693 
L 156.418408 236.186502 
L 156.598505 236.186502 
L 156.598505 236.071772 
L 156.776762 236.071772 
L 156.776762 235.957041 
L 156.894595 235.957041 
L 156.98245 235.61285 
L 157.098907 235.61285 
L 157.098907 235.49812 
L 157.243392 235.49812 
L 157.329512 235.039199 
L 157.415209 235.039199 
L 157.500487 234.695008 
L 157.528821 234.695008 
L 157.58535 234.465547 
L 157.669802 234.465547 
L 157.753847 234.236086 
L 157.781772 234.236086 
L 157.809652 234.006626 
L 157.893028 234.006626 
L 157.893028 233.777165 
L 158.058592 233.777165 
L 158.168101 233.547704 
L 158.195371 233.547704 
L 158.222599 233.318243 
L 158.546057 233.318243 
L 158.652556 232.974052 
L 158.942121 232.974052 
L 158.942121 232.859322 
L 159.098062 232.859322 
L 159.098062 232.744592 
L 159.608019 232.744592 
L 159.608019 232.629861 
L 159.857512 232.629861 
L 159.857512 232.515131 
L 160.079044 232.515131 
L 160.079044 232.400401 
L 160.680044 232.400401 
L 160.680044 232.28567 
L 160.891432 232.28567 
L 160.891432 232.17094 
L 161.007772 232.17094 
L 161.007772 232.05621 
L 161.397621 232.05621 
L 161.397621 231.712019 
L 161.622937 231.712019 
L 161.712255 231.482558 
L 161.756743 231.482558 
L 161.756743 231.367828 
L 161.933569 231.367828 
L 161.933569 231.253097 
L 162.10862 231.253097 
L 162.19549 231.023637 
L 162.346481 231.023637 
L 162.346481 230.908906 
L 162.517456 230.908906 
L 162.581141 230.564715 
L 162.665696 230.564715 
L 162.770815 230.105794 
L 162.854457 230.105794 
L 162.916926 229.761603 
L 163.103002 229.761603 
L 163.185069 229.532142 
L 163.307451 229.532142 
L 163.368321 229.187951 
L 163.428979 229.187951 
L 163.52961 228.614299 
L 163.709295 228.614299 
L 163.709295 228.499569 
L 163.867476 228.499569 
L 163.946031 228.155378 
L 164.004716 228.155378 
L 164.102088 227.696457 
L 164.140886 227.696457 
L 164.140886 227.581726 
L 164.276 227.581726 
L 164.333587 227.352266 
L 164.467222 227.352266 
L 164.562052 227.008075 
L 164.693955 227.008075 
L 164.768882 226.778614 
L 164.824867 226.778614 
L 164.824867 226.434423 
L 164.973287 226.434423 
L 165.083779 226.204962 
L 165.248216 226.204962 
L 165.302685 225.975501 
L 165.429123 225.975501 
L 165.429123 225.860771 
L 165.714726 225.860771 
L 165.820633 225.63131 
L 165.855793 225.63131 
L 165.855793 225.51658 
L 166.047915 225.51658 
L 166.134549 225.287119 
L 166.255117 225.287119 
L 166.34073 225.057659 
L 166.442913 225.057659 
L 166.527611 224.713468 
L 166.595075 224.713468 
L 166.645502 224.484007 
L 166.712511 224.484007 
L 166.812546 223.910355 
L 166.845764 223.910355 
L 166.945039 223.336704 
L 166.978005 223.336704 
L 167.076532 222.992513 
L 167.158215 222.992513 
L 167.174506 222.763052 
L 167.43311 222.763052 
L 167.497166 222.30413 
L 167.672117 222.30413 
L 167.672117 222.1894 
L 167.907893 222.1894 
L 167.970232 221.959939 
L 168.171308 221.959939 
L 168.202038 221.730479 
L 169.070439 221.730479 
L 169.070439 221.615748 
L 169.186895 221.615748 
L 169.186895 221.501018 
L 169.316986 221.501018 
L 169.345764 221.271557 
L 169.574291 221.271557 
L 169.630959 220.927366 
L 169.883706 220.927366 
L 169.883706 220.812636 
L 170.091567 220.812636 
L 170.187727 220.468445 
L 170.26973 220.468445 
L 170.364915 220.238984 
L 170.392016 220.238984 
L 170.499999 220.009524 
L 170.58055 220.009524 
L 170.687376 219.321142 
L 170.713981 219.321142 
L 170.819995 218.74749 
L 170.96472 218.74749 
L 171.056197 218.288568 
L 171.108254 218.288568 
L 171.198983 217.944377 
L 171.224819 217.944377 
L 171.224819 217.714917 
L 171.404607 217.714917 
L 171.455636 217.485456 
L 171.67086 217.485456 
L 171.771231 217.255995 
L 171.871027 217.255995 
L 171.871027 217.141265 
L 172.203683 217.141265 
L 172.203683 217.026535 
L 172.337411 217.026535 
L 172.373705 216.797074 
L 172.458099 216.797074 
L 172.530112 216.567613 
L 172.803442 216.567613 
L 172.897518 215.993962 
L 172.920958 215.993962 
L 172.920958 215.879231 
L 173.084161 215.879231 
L 173.188276 215.42031 
L 173.280304 215.42031 
L 173.303236 215.190849 
L 173.508272 215.190849 
L 173.598631 214.846658 
L 173.744474 214.846658 
L 173.744474 214.731928 
L 174.010558 214.731928 
L 174.010558 214.617197 
L 174.13117 214.617197 
L 174.13117 214.502467 
L 174.434469 214.502467 
L 174.434469 214.387737 
L 174.626698 214.387737 
L 174.626698 214.273006 
L 174.785287 214.273006 
L 174.816832 214.043546 
L 174.963293 214.043546 
L 175.046437 213.699355 
L 175.232072 213.699355 
L 175.273058 213.355164 
L 175.456309 213.355164 
L 175.466434 213.125703 
L 175.617599 213.125703 
L 175.727626 212.666782 
L 175.747557 212.666782 
L 175.797284 212.437321 
L 175.886437 212.437321 
L 175.975136 212.09313 
L 176.063387 212.09313 
L 176.170646 211.863669 
L 176.335123 211.863669 
L 176.335123 211.748939 
L 176.536182 211.748939 
L 176.536182 211.634209 
L 177.190115 211.634209 
L 177.25418 211.404748 
L 177.354379 211.404748 
L 177.417845 211.060557 
L 177.50811 211.060557 
L 177.526107 210.831096 
L 177.642639 210.831096 
L 177.642639 210.716366 
L 177.785001 210.716366 
L 177.864572 210.372175 
L 177.899821 210.372175 
L 177.899821 210.257444 
L 178.179274 210.257444 
L 178.179274 210.142714 
L 178.716697 210.142714 
L 178.716697 210.027984 
L 179.13174 210.027984 
L 179.13174 209.913253 
L 179.246204 209.913253 
L 179.303155 209.683793 
L 179.440696 209.683793 
L 179.545147 209.224871 
L 179.553156 209.224871 
L 179.648977 208.76595 
L 179.67285 208.76595 
L 179.712566 208.421759 
L 179.791727 208.421759 
L 179.894103 207.962838 
L 179.925483 207.962838 
L 179.925483 207.848107 
L 180.05044 207.848107 
L 180.05044 207.733377 
L 180.236213 207.733377 
L 180.320702 207.389186 
L 180.45808 207.389186 
L 180.45808 207.274455 
L 180.767015 207.274455 
L 180.826662 207.044995 
L 180.930556 207.044995 
L 181.026478 206.586073 
L 181.048539 206.586073 
L 181.048539 206.471343 
L 181.187615 206.471343 
L 181.187615 206.356613 
L 181.591186 206.356613 
L 181.591186 206.241882 
L 181.796565 206.241882 
L 181.81064 205.897691 
L 182.110543 205.897691 
L 182.200205 205.668231 
L 182.255154 205.668231 
L 182.337254 205.43877 
L 182.561055 205.43877 
L 182.635021 204.865118 
L 182.675235 204.865118 
L 182.775365 204.406197 
L 183.124623 204.406197 
L 183.215724 204.176736 
L 183.261097 204.176736 
L 183.312807 203.832545 
L 183.454225 203.832545 
L 183.454225 203.717815 
L 183.600855 203.717815 
L 183.689508 203.488354 
L 183.739965 203.488354 
L 183.802832 203.029433 
L 183.89671 203.029433 
L 183.940347 202.799972 
L 184.082962 202.799972 
L 184.138452 202.455781 
L 184.303871 202.455781 
L 184.358664 202.22632 
L 184.636058 202.22632 
L 184.636058 202.11159 
L 184.838289 202.11159 
L 184.838289 201.99686 
L 185.020655 201.99686 
L 185.020655 201.882129 
L 185.241629 201.882129 
L 185.241629 201.767399 
L 185.368293 201.767399 
L 185.431282 201.537938 
L 185.505431 201.537938 
L 185.613239 200.964287 
L 185.658433 200.964287 
L 185.748471 200.734826 
L 185.838047 200.734826 
L 185.865946 200.505365 
L 186.500968 200.505365 
L 186.565359 199.931713 
L 186.634849 199.931713 
L 186.719997 199.702253 
L 187.014782 199.702253 
L 187.014782 199.587522 
L 187.134425 199.587522 
L 187.232646 199.128601 
L 187.248104 199.128601 
L 187.248104 199.013871 
L 187.620088 199.013871 
L 187.620088 198.89914 
L 187.805641 198.89914 
L 187.805641 198.78441 
L 187.974425 198.78441 
L 188.053292 198.440219 
L 188.146484 198.440219 
L 188.244047 198.096028 
L 188.287773 198.096028 
L 188.287773 197.981298 
L 188.456783 197.981298 
L 188.461588 197.751837 
L 188.681193 197.751837 
L 188.704897 197.292916 
L 189.047361 197.292916 
L 189.079849 197.063455 
L 189.209201 197.063455 
L 189.209201 196.948725 
L 189.346735 196.948725 
L 189.346735 196.833994 
L 189.492253 196.833994 
L 189.532962 196.489803 
L 189.6051 196.489803 
L 189.69933 196.145612 
L 189.752948 196.145612 
L 189.859692 195.801421 
L 189.965787 195.801421 
L 190.018593 195.57196 
L 190.197818 195.57196 
L 190.241253 195.3425 
L 190.413921 195.3425 
L 190.520976 194.998309 
L 190.555096 194.998309 
L 190.555096 194.883578 
L 190.796283 194.883578 
L 190.808886 194.654118 
L 190.980209 194.654118 
L 190.980209 194.539387 
L 191.321964 194.539387 
L 191.321964 194.424657 
L 191.705083 194.424657 
L 191.705083 194.309927 
L 191.82434 194.309927 
L 191.91128 193.736275 
L 192.427836 193.736275 
L 192.44696 193.506814 
L 192.56886 193.506814 
L 192.671055 193.162623 
L 192.70122 193.162623 
L 192.716283 192.933162 
L 192.88858 192.933162 
L 192.948112 192.703702 
L 193.011144 192.703702 
L 193.103425 192.359511 
L 193.15489 192.359511 
L 193.261016 191.900589 
L 193.348358 191.900589 
L 193.384622 191.671129 
L 193.471348 191.671129 
L 193.50376 191.441668 
L 193.632808 191.441668 
L 193.668486 191.212207 
L 193.947803 191.212207 
L 194.052712 190.753286 
L 194.191615 190.753286 
L 194.264099 190.523825 
L 194.445707 190.523825 
L 194.462742 190.294365 
L 194.669247 190.294365 
L 194.76657 190.064904 
L 194.83004 190.064904 
L 194.926473 189.605983 
L 194.943046 189.605983 
L 194.943046 189.491252 
L 195.293975 189.491252 
L 195.336134 189.147061 
L 195.433037 189.147061 
L 195.519792 188.80287 
L 195.593355 188.80287 
L 195.593355 188.68814 
L 195.821654 188.68814 
L 195.821654 188.573409 
L 195.984698 188.573409 
L 195.984698 188.458679 
L 196.105988 188.458679 
L 196.207964 187.999758 
L 196.300154 187.999758 
L 196.300154 187.885027 
L 196.443613 187.885027 
L 196.473984 187.655567 
L 196.594944 187.655567 
L 196.631068 187.426106 
L 196.941055 187.426106 
L 196.949916 187.196645 
L 197.132036 187.196645 
L 197.132036 187.081915 
L 197.303595 187.081915 
L 197.355601 186.852454 
L 197.456281 186.852454 
L 197.510694 186.622994 
L 197.570638 186.622994 
L 197.630376 186.278803 
L 197.813994 186.278803 
L 197.813994 186.164072 
L 197.987353 186.164072 
L 198.04291 185.934612 
L 198.244204 185.934612 
L 198.244204 185.819881 
L 198.445911 185.819881 
L 198.491921 185.590421 
L 198.559364 185.590421 
L 198.559364 185.47569 
L 198.834509 185.47569 
L 198.916476 185.246229 
L 199.042639 185.246229 
L 199.147082 185.016769 
L 199.271593 185.016769 
L 199.369538 184.787308 
L 199.415742 184.787308 
L 199.512882 184.557847 
L 199.614555 184.557847 
L 199.614555 184.443117 
L 199.743333 184.443117 
L 199.833666 184.098926 
L 200.032747 184.098926 
L 200.09203 183.640005 
L 200.332036 183.640005 
L 200.332036 183.525274 
L 200.590364 183.525274 
L 200.590364 183.410544 
L 200.712159 183.410544 
L 200.712159 183.295814 
L 200.870882 183.295814 
L 200.941487 183.066353 
L 200.995424 183.066353 
L 200.995424 182.951623 
L 201.22108 182.951623 
L 201.22108 182.836892 
L 201.359214 182.836892 
L 201.446136 182.492701 
L 201.811914 182.492701 
L 201.898837 182.14851 
L 202.093395 182.14851 
L 202.14389 181.804319 
L 202.504057 181.804319 
L 202.521228 181.574858 
L 202.715367 181.574858 
L 202.747162 181.345398 
L 203.229615 181.345398 
L 203.289251 181.001207 
L 203.35891 181.001207 
L 203.36913 180.771746 
L 203.479132 180.771746 
L 203.525775 180.312825 
L 203.606597 180.312825 
L 203.646867 179.968634 
L 203.852802 179.968634 
L 203.945971 179.739173 
L 204.020936 179.739173 
L 204.020936 179.624443 
L 204.136695 179.624443 
L 204.136695 179.509712 
L 204.261401 179.509712 
L 204.261401 179.394982 
L 204.502425 179.394982 
L 204.603622 179.050791 
L 204.626453 179.050791 
L 204.706128 178.7066 
L 204.853137 178.7066 
L 204.935522 178.247679 
L 204.997056 178.247679 
L 205.089877 177.903487 
L 205.108382 177.903487 
L 205.139796 177.674027 
L 205.410917 177.674027 
L 205.410917 177.559296 
L 205.586351 177.559296 
L 205.586351 177.444566 
L 205.747561 177.444566 
L 205.747561 177.329836 
L 206.06558 177.329836 
L 206.161606 177.100375 
L 206.220705 177.100375 
L 206.295162 176.870914 
L 206.334857 176.870914 
L 206.334857 176.756184 
L 206.508111 176.756184 
L 206.508111 176.641454 
L 207.054209 176.641454 
L 207.054209 176.526723 
L 207.274484 176.526723 
L 207.365721 176.182532 
L 207.580515 176.182532 
L 207.580515 176.067802 
L 208.430998 176.067802 
L 208.430998 175.953072 
L 208.935734 175.953072 
L 209.023134 175.723611 
L 209.247762 175.723611 
L 209.348126 175.49415 
L 209.478174 175.49415 
L 209.492564 175.149959 
L 209.635815 175.149959 
L 209.678562 174.920499 
L 209.779314 174.920499 
L 209.779314 174.805768 
L 209.920238 174.805768 
L 209.920238 174.691038 
L 210.209763 174.691038 
L 210.22632 174.461577 
L 211.062403 174.461577 
L 211.062403 174.346847 
L 211.177704 174.346847 
L 211.177704 174.232116 
L 212.600292 174.232116 
L 212.603903 174.002656 
L 212.81561 174.002656 
L 212.81561 173.887925 
L 212.994209 173.887925 
L 212.994209 173.773195 
L 213.21753 173.773195 
L 213.21753 173.658465 
L 213.41392 173.658465 
L 213.463247 173.314274 
L 214.081059 173.314274 
L 214.081059 173.199543 
L 214.246122 173.199543 
L 214.319348 172.970083 
L 214.457312 172.970083 
L 214.457312 172.855352 
L 214.844677 172.855352 
L 214.844677 172.740622 
L 218.346827 172.740622 
L 218.346827 172.625892 
L 218.531116 172.625892 
L 218.531116 172.511161 
L 218.696516 172.511161 
L 218.696516 172.396431 
L 219.658067 172.396431 
L 219.658067 172.281701 
L 220.187182 172.281701 
L 220.187182 172.16697 
L 220.502163 172.16697 
L 220.502163 172.05224 
L 224.421453 172.05224 
L 224.421453 171.93751 
L 226.261126 171.93751 
L 226.261126 171.822779 
L 230.434383 171.822779 
L 230.434383 171.708049 
L 232.890146 171.708049 
L 232.890146 171.593319 
L 338.688 171.593319 
L 338.688 171.593319 
" style="fill:none;stroke:#00bfbf;stroke-linecap:square;stroke-width:1.5;"/>
   </g>
   <g id="line2d_31">
    <defs>
     <path d="M -6 0 
L 6 0 
M 0 6 
L 0 -6 
" id="m186e9fd560" style="stroke:#00bfbf;stroke-width:1.5;"/>
    </defs>
    <g>
     <use style="fill-opacity:0;stroke:#00bfbf;stroke-width:1.5;" x="116.621333" xlink:href="#m186e9fd560" y="262.11556"/>
     <use style="fill-opacity:0;stroke:#00bfbf;stroke-width:1.5;" x="163.368321" xlink:href="#m186e9fd560" y="229.187951"/>
     <use style="fill-opacity:0;stroke:#00bfbf;stroke-width:1.5;" x="204.997056" xlink:href="#m186e9fd560" y="178.132948"/>
     <use style="fill-opacity:0;stroke:#00bfbf;stroke-width:1.5;" x="232.890146" xlink:href="#m186e9fd560" y="171.593319"/>
     <use style="fill-opacity:0;stroke:#00bfbf;stroke-width:1.5;" x="232.890146" xlink:href="#m186e9fd560" y="171.593319"/>
     <use style="fill-opacity:0;stroke:#00bfbf;stroke-width:1.5;" x="338.688" xlink:href="#m186e9fd560" y="171.593319"/>
    </g>
   </g>
   <g id="line2d_32">
    <path style="fill:none;stroke:#00bfbf;stroke-linecap:square;stroke-width:1.5;"/>
    <g/>
   </g>
   <g id="line2d_33">
    <path clip-path="url(#p9c21ddd6c6)" d="M 151.621307 241.808289 
" style="fill:none;stroke:#00bfbf;stroke-linecap:square;stroke-width:1.5;"/>
    <defs>
     <path d="M -12 12 
L 12 -12 
M -12 -12 
L 12 12 
" id="m55b2e04636" style="stroke:#00bfbf;"/>
    </defs>
    <g clip-path="url(#p9c21ddd6c6)">
     <use style="fill:#00bfbf;stroke:#00bfbf;" x="151.621307" xlink:href="#m55b2e04636" y="241.808289"/>
    </g>
   </g>
   <g id="line2d_34">
    <defs>
     <path d="M 0 1.5 
C 0.397805 1.5 0.77937 1.341951 1.06066 1.06066 
C 1.341951 0.77937 1.5 0.397805 1.5 0 
C 1.5 -0.397805 1.341951 -0.77937 1.06066 -1.06066 
C 0.77937 -1.341951 0.397805 -1.5 0 -1.5 
C -0.397805 -1.5 -0.77937 -1.341951 -1.06066 -1.06066 
C -1.341951 -0.77937 -1.5 -0.397805 -1.5 0 
C -1.5 0.397805 -1.341951 0.77937 -1.06066 1.06066 
C -0.77937 1.341951 -0.397805 1.5 0 1.5 
z
" id="m5bbaf0e562" style="stroke:#008000;"/>
    </defs>
    <g>
     <use style="fill:#008000;stroke:#008000;" x="225.649852" xlink:href="#m5bbaf0e562" y="228.95849"/>
     <use style="fill:#008000;stroke:#008000;" x="225.649852" xlink:href="#m5bbaf0e562" y="228.95849"/>
    </g>
   </g>
   <g id="line2d_35">
    <path d="M 38.440992 298.944 
L 38.440992 271.982369 
L 50.52898 271.982369 
L 50.52898 271.867639 
L 78.59642 271.867639 
L 78.59642 271.752909 
L 80.258561 271.752909 
L 80.258561 271.293987 
L 81.775977 271.293987 
L 81.775977 270.835066 
L 83.171864 270.835066 
L 83.171864 270.605605 
L 84.464254 270.605605 
L 84.464254 270.031953 
L 85.66744 270.031953 
L 85.66744 269.687762 
L 86.792945 269.687762 
L 86.792945 268.88465 
L 87.850195 268.88465 
L 87.850195 268.310998 
L 88.846997 268.310998 
L 88.846997 267.622616 
L 89.78989 267.622616 
L 89.78989 267.278425 
L 90.684409 267.278425 
L 90.684409 267.048964 
L 91.535274 267.048964 
L 91.535274 266.819504 
L 92.34655 266.819504 
L 92.34655 266.475313 
L 93.121756 266.475313 
L 93.121756 266.131122 
L 93.863965 266.131122 
L 93.863965 265.901661 
L 94.575872 265.901661 
L 94.575872 265.6722 
L 95.259853 265.6722 
L 95.259853 265.44274 
L 95.918017 265.44274 
L 95.918017 265.213279 
L 96.552242 265.213279 
L 96.552242 264.983818 
L 97.16421 264.983818 
L 97.16421 264.524897 
L 97.755429 264.524897 
L 97.755429 264.410167 
L 98.32726 264.410167 
L 98.32726 264.295436 
L 99.938184 264.295436 
L 99.938184 264.065976 
L 100.934985 264.065976 
L 100.934985 263.836515 
L 101.877879 263.836515 
L 101.877879 263.721785 
L 103.203018 263.721785 
L 103.203018 263.492324 
L 104.826449 263.492324 
L 104.826449 263.262863 
L 105.209745 263.262863 
L 105.209745 263.148133 
L 105.584798 263.148133 
L 105.584798 263.033402 
L 105.951954 263.033402 
L 105.951954 262.918672 
L 107.347841 262.918672 
L 107.347841 262.803942 
L 108.006005 262.803942 
L 108.006005 262.689211 
L 109.843417 262.689211 
L 109.843417 262.574481 
L 110.694282 262.574481 
L 110.694282 262.459751 
L 110.968922 262.459751 
L 110.968922 262.34502 
L 111.767808 262.34502 
L 111.767808 262.11556 
L 112.026172 262.11556 
L 112.026172 261.886099 
L 112.280765 261.886099 
L 112.280765 261.771369 
L 112.779064 261.771369 
L 112.779064 261.656638 
L 115.291007 261.656638 
L 115.291007 261.541908 
L 117.107138 261.541908 
L 117.107138 261.427178 
L 117.857331 261.427178 
L 117.857331 261.082987 
L 118.220662 261.082987 
L 118.220662 260.968256 
L 119.267333 260.968256 
L 119.267333 260.853526 
L 119.43583 260.853526 
L 119.43583 260.738796 
L 119.602714 260.738796 
L 119.602714 260.624065 
L 120.728219 260.624065 
L 120.728219 260.509335 
L 120.883236 260.509335 
L 120.883236 260.394605 
L 121.189196 260.394605 
L 121.189196 259.820953 
L 121.489881 259.820953 
L 121.489881 259.706222 
L 121.638301 259.706222 
L 121.638301 259.476762 
L 123.056911 259.476762 
L 123.056911 259.362031 
L 123.725164 259.362031 
L 123.725164 259.132571 
L 123.855796 259.132571 
L 123.855796 259.01784 
L 124.989434 259.01784 
L 124.989434 258.90311 
L 125.23165 258.90311 
L 125.23165 258.673649 
L 125.470548 258.673649 
L 125.470548 258.099998 
L 125.822869 258.099998 
L 125.822869 257.985267 
L 125.938745 257.985267 
L 125.938745 257.870537 
L 126.839037 257.870537 
L 126.839037 257.755807 
L 127.165014 257.755807 
L 127.272333 257.526346 
L 128.610515 257.526346 
L 128.610515 257.411616 
L 129.099042 257.411616 
L 129.099042 257.296885 
L 129.480244 257.296885 
L 129.480244 257.182155 
L 131.185181 257.182155 
L 131.185181 257.067425 
L 132.101058 257.067425 
L 132.181982 256.608503 
L 132.262533 256.608503 
L 132.262533 256.379043 
L 132.501978 256.379043 
L 132.501978 256.264312 
L 132.73818 256.264312 
L 132.73818 256.149582 
L 133.124876 256.149582 
L 133.201197 255.805391 
L 133.277185 255.805391 
L 133.277185 255.69066 
L 133.503183 255.69066 
L 133.57787 255.231739 
L 133.800029 255.231739 
L 133.873458 254.887548 
L 133.946579 254.887548 
L 133.946579 254.658087 
L 134.091907 254.658087 
L 134.164119 254.313896 
L 134.37898 254.313896 
L 134.37898 254.199166 
L 135.144899 254.199166 
L 135.212889 253.969705 
L 136.202149 253.969705 
L 136.202149 253.854975 
L 136.32991 253.854975 
L 136.393441 253.625514 
L 137.37967 253.625514 
L 137.37967 253.510784 
L 137.735587 253.510784 
L 137.735587 253.281323 
L 139.413734 253.281323 
L 139.413734 253.051863 
L 139.835248 253.051863 
L 139.835248 252.937132 
L 139.990725 252.937132 
L 140.042245 252.707672 
L 140.599134 252.707672 
L 140.599134 252.592941 
L 143.014805 252.592941 
L 143.058132 252.36348 
L 143.273169 252.36348 
L 143.273169 252.24875 
L 143.485587 252.24875 
L 143.485587 252.13402 
L 143.653678 252.13402 
L 143.653678 252.019289 
L 143.820164 252.019289 
L 143.861538 251.789829 
L 144.229555 251.789829 
L 144.229555 251.675098 
L 144.787023 251.675098 
L 144.787023 251.560368 
L 146.608752 251.560368 
L 146.714338 251.216177 
L 147.130404 251.216177 
L 147.130404 251.101447 
L 147.436066 251.101447 
L 147.436066 250.986716 
L 147.933891 250.986716 
L 147.96658 250.757256 
L 149.195872 250.757256 
L 149.195872 250.642525 
L 149.823575 250.642525 
L 149.823575 250.527795 
L 150.201126 250.527795 
L 150.201126 250.183604 
L 150.570677 250.183604 
L 150.570677 250.068874 
L 151.581536 250.068874 
L 151.581536 249.954143 
L 151.844975 249.954143 
L 151.844975 249.839413 
L 152.001148 249.839413 
L 152.001148 249.724683 
L 153.129893 249.724683 
L 153.226778 249.495222 
L 153.29909 249.495222 
L 153.371104 249.265761 
L 153.442821 249.265761 
L 153.514245 249.036301 
L 153.585377 249.036301 
L 153.585377 248.92157 
L 154.862549 248.92157 
L 154.884527 248.692109 
L 155.059358 248.692109 
L 155.146121 248.462649 
L 155.720743 248.462649 
L 155.720743 248.347918 
L 156.052535 248.347918 
L 156.052535 248.003727 
L 156.677955 248.003727 
L 156.677955 247.888997 
L 156.855406 247.888997 
L 156.855406 247.774267 
L 156.992185 247.774267 
L 156.992185 247.659536 
L 157.566527 247.659536 
L 157.566527 247.544806 
L 158.012759 247.544806 
L 158.012759 247.430076 
L 158.140788 247.430076 
L 158.213527 247.200615 
L 158.340096 247.200615 
L 158.340096 247.085885 
L 158.924708 247.085885 
L 158.924708 246.971154 
L 159.741526 246.971154 
L 159.741526 246.856424 
L 159.98913 246.856424 
L 159.98913 246.741694 
L 160.168498 246.741694 
L 160.168498 246.626963 
L 160.505887 246.626963 
L 160.505887 246.512233 
L 161.238149 246.512233 
L 161.299072 246.168042 
L 162.20271 246.168042 
L 162.20271 246.053312 
L 162.403659 246.053312 
L 162.403659 245.938581 
L 162.644595 245.938581 
L 162.644595 245.823851 
L 162.756836 245.823851 
L 162.756836 245.709121 
L 163.320996 245.709121 
L 163.320996 245.59439 
L 163.788565 245.59439 
L 163.801742 245.36493 
L 164.599841 245.36493 
L 164.700211 245.135469 
L 164.737701 245.135469 
L 164.824867 244.906008 
L 164.886862 244.906008 
L 164.886862 244.791278 
L 165.314766 244.791278 
L 165.314766 244.676547 
L 165.614109 244.676547 
L 165.614109 244.561817 
L 165.732422 244.561817 
L 165.732422 244.447087 
L 166.001534 244.447087 
L 166.001534 244.332356 
L 166.186323 244.332356 
L 166.289413 244.102896 
L 166.662278 244.102896 
L 166.662278 243.988165 
L 167.417059 243.988165 
L 167.417059 243.873435 
L 167.923499 243.873435 
L 167.923499 243.758705 
L 168.089095 243.758705 
L 168.089095 243.643974 
L 168.656606 243.643974 
L 168.656606 243.529244 
L 168.86475 243.529244 
L 168.86475 243.414514 
L 169.626243 243.414514 
L 169.626243 243.299783 
L 169.739058 243.299783 
L 169.78585 243.070323 
L 169.981016 243.070323 
L 170.054794 242.726132 
L 170.446091 242.726132 
L 170.526891 242.496671 
L 170.749391 242.496671 
L 170.749391 242.381941 
L 171.771231 242.381941 
L 171.771231 242.26721 
L 172.077118 242.26721 
L 172.077118 242.15248 
L 172.846623 242.15248 
L 172.846623 242.03775 
L 173.134368 242.03775 
L 173.134368 241.923019 
L 173.310873 241.923019 
L 173.310873 241.808289 
L 173.984866 241.808289 
L 174.00689 241.578828 
L 174.297915 241.578828 
L 174.333954 241.234637 
L 174.59126 241.234637 
L 174.59126 241.119907 
L 175.197844 241.119907 
L 175.197844 241.005176 
L 175.724302 241.005176 
L 175.784037 240.775716 
L 176.637426 240.775716 
L 176.681537 240.546255 
L 176.788199 240.546255 
L 176.83193 240.316794 
L 176.919065 240.316794 
L 176.919065 240.202064 
L 177.08589 240.202064 
L 177.128882 239.972603 
L 177.354379 239.972603 
L 177.354379 239.857873 
L 177.576999 239.857873 
L 177.576999 239.743143 
L 178.411629 239.743143 
L 178.440102 239.513682 
L 178.722297 239.513682 
L 178.822779 239.284221 
L 178.98346 239.284221 
L 178.98346 239.169491 
L 179.664896 239.169491 
L 179.75483 238.94003 
L 179.881012 238.94003 
L 179.98547 238.71057 
L 180.068589 238.71057 
L 180.15647 238.481109 
L 180.223376 238.481109 
L 180.223376 238.366379 
L 180.518792 238.366379 
L 180.518792 238.251648 
L 181.356906 238.251648 
L 181.356906 238.136918 
L 182.229991 238.136918 
L 182.229991 238.022188 
L 183.917503 238.022188 
L 183.917503 237.907457 
L 184.185583 237.907457 
L 184.185583 237.792727 
L 184.465722 237.792727 
L 184.530044 237.333805 
L 184.721598 237.333805 
L 184.812644 236.989614 
L 184.867832 236.989614 
L 184.867832 236.874884 
L 185.943825 236.874884 
L 186.028723 236.530693 
L 186.124201 236.530693 
L 186.124201 236.415963 
L 187.162052 236.415963 
L 187.162052 236.301232 
L 187.739002 236.301232 
L 187.749014 236.071772 
L 187.865398 236.071772 
L 187.901817 235.842311 
L 188.413479 235.842311 
L 188.413479 235.727581 
L 188.563778 235.727581 
L 188.576509 235.49812 
L 189.201528 235.49812 
L 189.30864 235.268659 
L 189.499799 235.268659 
L 189.499799 235.153929 
L 190.896847 235.153929 
L 190.896847 235.039199 
L 191.063174 235.039199 
L 191.063174 234.924468 
L 191.24705 234.924468 
L 191.24705 234.809738 
L 191.803199 234.809738 
L 191.803199 234.695008 
L 192.951826 234.695008 
L 192.951826 234.580277 
L 193.183009 234.580277 
L 193.280463 234.350817 
L 193.48336 234.350817 
L 193.560037 234.121356 
L 195.221309 234.121356 
L 195.221309 234.006626 
L 195.657072 234.006626 
L 195.657072 233.891895 
L 195.986779 233.891895 
L 195.986779 233.777165 
L 196.410143 233.777165 
L 196.472972 233.547704 
L 196.632071 233.547704 
L 196.632071 233.432974 
L 197.211725 233.432974 
L 197.211725 233.318243 
L 197.417995 233.318243 
L 197.417995 233.203513 
L 197.665365 233.203513 
L 197.772731 232.974052 
L 198.558466 232.974052 
L 198.558466 232.859322 
L 199.066193 232.859322 
L 199.118422 232.629861 
L 199.435384 232.629861 
L 199.435384 232.515131 
L 199.896954 232.515131 
L 199.896954 232.400401 
L 200.385463 232.400401 
L 200.385463 232.28567 
L 200.796044 232.28567 
L 200.796044 232.17094 
L 201.392051 232.17094 
L 201.392051 232.05621 
L 202.596153 232.05621 
L 202.596153 231.941479 
L 202.77326 231.941479 
L 202.77326 231.826749 
L 202.994581 231.826749 
L 202.994581 231.712019 
L 203.437115 231.712019 
L 203.437115 231.597288 
L 204.141909 231.597288 
L 204.205653 231.367828 
L 204.845628 231.367828 
L 204.921818 231.023637 
L 206.677406 231.023637 
L 206.677406 230.908906 
L 206.85679 230.908906 
L 206.85679 230.794176 
L 208.83794 230.794176 
L 208.83794 230.679446 
L 210.508587 230.679446 
L 210.508587 230.564715 
L 211.374222 230.564715 
L 211.374222 230.449985 
L 212.906912 230.449985 
L 212.906912 230.335255 
L 213.148851 230.335255 
L 213.148851 230.220524 
L 213.885 230.220524 
L 213.885 230.105794 
L 216.139738 230.105794 
L 216.139738 229.991063 
L 216.717611 229.991063 
L 216.717611 229.876333 
L 217.996462 229.876333 
L 217.996462 229.761603 
L 218.780039 229.761603 
L 218.780039 229.646872 
L 219.767204 229.646872 
L 219.767204 229.532142 
L 220.396774 229.532142 
L 220.396774 229.417412 
L 220.937374 229.417412 
L 220.937374 229.302681 
L 222.05215 229.302681 
L 222.05215 229.187951 
L 223.405301 229.187951 
L 223.405301 229.073221 
L 225.649852 229.073221 
L 225.649852 228.95849 
L 338.688 228.95849 
L 338.688 228.95849 
" style="fill:none;stroke:#008000;stroke-linecap:square;stroke-width:1.5;"/>
   </g>
   <g id="line2d_36">
    <defs>
     <path d="M -0 6 
L 6 -6 
L -6 -6 
z
" id="m70452b77cc" style="stroke:#008000;stroke-linejoin:miter;stroke-width:1.5;"/>
    </defs>
    <g>
     <use style="fill-opacity:0;stroke:#008000;stroke-linejoin:miter;stroke-width:1.5;" x="140.599134" xlink:href="#m70452b77cc" y="252.592941"/>
     <use style="fill-opacity:0;stroke:#008000;stroke-linejoin:miter;stroke-width:1.5;" x="200.385463" xlink:href="#m70452b77cc" y="232.400401"/>
     <use style="fill-opacity:0;stroke:#008000;stroke-linejoin:miter;stroke-width:1.5;" x="225.649852" xlink:href="#m70452b77cc" y="229.073221"/>
     <use style="fill-opacity:0;stroke:#008000;stroke-linejoin:miter;stroke-width:1.5;" x="225.649852" xlink:href="#m70452b77cc" y="228.95849"/>
     <use style="fill-opacity:0;stroke:#008000;stroke-linejoin:miter;stroke-width:1.5;" x="338.688" xlink:href="#m70452b77cc" y="228.95849"/>
    </g>
   </g>
   <g id="line2d_37">
    <path style="fill:none;stroke:#008000;stroke-linecap:square;stroke-width:1.5;"/>
    <g/>
   </g>
   <g id="line2d_38">
    <path clip-path="url(#p9c21ddd6c6)" d="M 158.031107 247.430076 
" style="fill:none;stroke:#008000;stroke-linecap:square;stroke-width:1.5;"/>
    <defs>
     <path d="M -12 12 
L 12 -12 
M -12 -12 
L 12 12 
" id="m40a2ad8208" style="stroke:#008000;"/>
    </defs>
    <g clip-path="url(#p9c21ddd6c6)">
     <use style="fill:#008000;stroke:#008000;" x="158.031107" xlink:href="#m40a2ad8208" y="247.430076"/>
    </g>
   </g>
   <g id="line2d_39">
    <path d="M 338.688 228.95849 
L 369.60768 293.092752 
" style="fill:none;stroke:#008000;stroke-linecap:square;stroke-width:1.5;"/>
    <g>
     <use style="fill-opacity:0;stroke:#008000;stroke-linejoin:miter;stroke-width:1.5;" x="338.688" xlink:href="#m70452b77cc" y="228.95849"/>
     <use style="fill-opacity:0;stroke:#008000;stroke-linejoin:miter;stroke-width:1.5;" x="369.60768" xlink:href="#m70452b77cc" y="293.092752"/>
    </g>
   </g>
   <g id="line2d_40">
    <path d="M 338.688 171.593319 
L 369.60768 12.232871 
" style="fill:none;stroke:#00bfbf;stroke-linecap:square;stroke-width:1.5;"/>
    <g>
     <use style="fill-opacity:0;stroke:#00bfbf;stroke-width:1.5;" x="338.688" xlink:href="#m186e9fd560" y="171.593319"/>
     <use style="fill-opacity:0;stroke:#00bfbf;stroke-width:1.5;" x="369.60768" xlink:href="#m186e9fd560" y="12.232871"/>
    </g>
   </g>
   <g id="line2d_41">
    <path d="M 338.688 298.944 
L 338.688 6.381624 
" style="fill:none;stroke:#000000;stroke-linecap:square;stroke-width:1.5;"/>
   </g>
   <g id="patch_3">
    <path d="M 57.6 298.944 
L 57.6 3.456 
" style="fill:none;stroke:#000000;stroke-linecap:square;stroke-linejoin:miter;stroke-width:0.8;"/>
   </g>
   <g id="patch_4">
    <path d="M 338.688 298.944 
L 338.688 3.456 
" style="fill:none;stroke:#000000;stroke-linecap:square;stroke-linejoin:miter;stroke-width:0.8;"/>
   </g>
   <g id="patch_5">
    <path d="M 57.6 298.944 
L 338.688 298.944 
" style="fill:none;stroke:#000000;stroke-linecap:square;stroke-linejoin:miter;stroke-width:0.8;"/>
   </g>
   <g id="patch_6">
    <path d="M 57.6 3.456 
L 338.688 3.456 
" style="fill:none;stroke:#000000;stroke-linecap:square;stroke-linejoin:miter;stroke-width:0.8;"/>
   </g>
   <g id="text_13">
    <!-- 3-D -->
    <defs>
     <path d="M 40.578125 39.3125 
Q 47.65625 37.796875 51.625 33 
Q 55.609375 28.21875 55.609375 21.1875 
Q 55.609375 10.40625 48.1875 4.484375 
Q 40.765625 -1.421875 27.09375 -1.421875 
Q 22.515625 -1.421875 17.65625 -0.515625 
Q 12.796875 0.390625 7.625 2.203125 
L 7.625 11.71875 
Q 11.71875 9.328125 16.59375 8.109375 
Q 21.484375 6.890625 26.8125 6.890625 
Q 36.078125 6.890625 40.9375 10.546875 
Q 45.796875 14.203125 45.796875 21.1875 
Q 45.796875 27.640625 41.28125 31.265625 
Q 36.765625 34.90625 28.71875 34.90625 
L 20.21875 34.90625 
L 20.21875 43.015625 
L 29.109375 43.015625 
Q 36.375 43.015625 40.234375 45.921875 
Q 44.09375 48.828125 44.09375 54.296875 
Q 44.09375 59.90625 40.109375 62.90625 
Q 36.140625 65.921875 28.71875 65.921875 
Q 24.65625 65.921875 20.015625 65.03125 
Q 15.375 64.15625 9.8125 62.3125 
L 9.8125 71.09375 
Q 15.4375 72.65625 20.34375 73.4375 
Q 25.25 74.21875 29.59375 74.21875 
Q 40.828125 74.21875 47.359375 69.109375 
Q 53.90625 64.015625 53.90625 55.328125 
Q 53.90625 49.265625 50.4375 45.09375 
Q 46.96875 40.921875 40.578125 39.3125 
z
" id="DejaVuSans-51"/>
     <path d="M 19.671875 64.796875 
L 19.671875 8.109375 
L 31.59375 8.109375 
Q 46.6875 8.109375 53.6875 14.9375 
Q 60.6875 21.78125 60.6875 36.53125 
Q 60.6875 51.171875 53.6875 57.984375 
Q 46.6875 64.796875 31.59375 64.796875 
z
M 9.8125 72.90625 
L 30.078125 72.90625 
Q 51.265625 72.90625 61.171875 64.09375 
Q 71.09375 55.28125 71.09375 36.53125 
Q 71.09375 17.671875 61.125 8.828125 
Q 51.171875 0 30.078125 0 
L 9.8125 0 
z
" id="DejaVuSans-68"/>
    </defs>
    <g transform="translate(375.22944 297.78369)scale(0.17 -0.17)">
     <use xlink:href="#DejaVuSans-51"/>
     <use x="63.623047" xlink:href="#DejaVuSans-45"/>
     <use x="99.707031" xlink:href="#DejaVuSans-68"/>
    </g>
   </g>
   <g id="text_14">
    <!-- 2-D -->
    <g transform="translate(375.22944 16.923809)scale(0.17 -0.17)">
     <use xlink:href="#DejaVuSans-50"/>
     <use x="63.623047" xlink:href="#DejaVuSans-45"/>
     <use x="99.707031" xlink:href="#DejaVuSans-68"/>
    </g>
   </g>
   <g id="text_15">
    <!-- bbob f15-f19 -->
    <defs>
     <path d="M 48.6875 27.296875 
Q 48.6875 37.203125 44.609375 42.84375 
Q 40.53125 48.484375 33.40625 48.484375 
Q 26.265625 48.484375 22.1875 42.84375 
Q 18.109375 37.203125 18.109375 27.296875 
Q 18.109375 17.390625 22.1875 11.75 
Q 26.265625 6.109375 33.40625 6.109375 
Q 40.53125 6.109375 44.609375 11.75 
Q 48.6875 17.390625 48.6875 27.296875 
z
M 18.109375 46.390625 
Q 20.953125 51.265625 25.265625 53.625 
Q 29.59375 56 35.59375 56 
Q 45.5625 56 51.78125 48.09375 
Q 58.015625 40.1875 58.015625 27.296875 
Q 58.015625 14.40625 51.78125 6.484375 
Q 45.5625 -1.421875 35.59375 -1.421875 
Q 29.59375 -1.421875 25.265625 0.953125 
Q 20.953125 3.328125 18.109375 8.203125 
L 18.109375 0 
L 9.078125 0 
L 9.078125 75.984375 
L 18.109375 75.984375 
z
" id="DejaVuSans-98"/>
     <path d="M 10.796875 72.90625 
L 49.515625 72.90625 
L 49.515625 64.59375 
L 19.828125 64.59375 
L 19.828125 46.734375 
Q 21.96875 47.46875 24.109375 47.828125 
Q 26.265625 48.1875 28.421875 48.1875 
Q 40.625 48.1875 47.75 41.5 
Q 54.890625 34.8125 54.890625 23.390625 
Q 54.890625 11.625 47.5625 5.09375 
Q 40.234375 -1.421875 26.90625 -1.421875 
Q 22.3125 -1.421875 17.546875 -0.640625 
Q 12.796875 0.140625 7.71875 1.703125 
L 7.71875 11.625 
Q 12.109375 9.234375 16.796875 8.0625 
Q 21.484375 6.890625 26.703125 6.890625 
Q 35.15625 6.890625 40.078125 11.328125 
Q 45.015625 15.765625 45.015625 23.390625 
Q 45.015625 31 40.078125 35.4375 
Q 35.15625 39.890625 26.703125 39.890625 
Q 22.75 39.890625 18.8125 39.015625 
Q 14.890625 38.140625 10.796875 36.28125 
z
" id="DejaVuSans-53"/>
     <path d="M 10.984375 1.515625 
L 10.984375 10.5 
Q 14.703125 8.734375 18.5 7.8125 
Q 22.3125 6.890625 25.984375 6.890625 
Q 35.75 6.890625 40.890625 13.453125 
Q 46.046875 20.015625 46.78125 33.40625 
Q 43.953125 29.203125 39.59375 26.953125 
Q 35.25 24.703125 29.984375 24.703125 
Q 19.046875 24.703125 12.671875 31.3125 
Q 6.296875 37.9375 6.296875 49.421875 
Q 6.296875 60.640625 12.9375 67.421875 
Q 19.578125 74.21875 30.609375 74.21875 
Q 43.265625 74.21875 49.921875 64.515625 
Q 56.59375 54.828125 56.59375 36.375 
Q 56.59375 19.140625 48.40625 8.859375 
Q 40.234375 -1.421875 26.421875 -1.421875 
Q 22.703125 -1.421875 18.890625 -0.6875 
Q 15.09375 0.046875 10.984375 1.515625 
z
M 30.609375 32.421875 
Q 37.25 32.421875 41.125 36.953125 
Q 45.015625 41.5 45.015625 49.421875 
Q 45.015625 57.28125 41.125 61.84375 
Q 37.25 66.40625 30.609375 66.40625 
Q 23.96875 66.40625 20.09375 61.84375 
Q 16.21875 57.28125 16.21875 49.421875 
Q 16.21875 41.5 20.09375 36.953125 
Q 23.96875 32.421875 30.609375 32.421875 
z
" id="DejaVuSans-57"/>
    </defs>
    <g transform="translate(60.41088 14.161286)scale(0.102 -0.102)">
     <use xlink:href="#DejaVuSans-98"/>
     <use x="63.476562" xlink:href="#DejaVuSans-98"/>
     <use x="126.953125" xlink:href="#DejaVuSans-111"/>
     <use x="188.134766" xlink:href="#DejaVuSans-98"/>
     <use x="251.611328" xlink:href="#DejaVuSans-32"/>
     <use x="283.398438" xlink:href="#DejaVuSans-102"/>
     <use x="318.603516" xlink:href="#DejaVuSans-49"/>
     <use x="382.226562" xlink:href="#DejaVuSans-53"/>
     <use x="445.849609" xlink:href="#DejaVuSans-45"/>
     <use x="481.933594" xlink:href="#DejaVuSans-102"/>
     <use x="517.138672" xlink:href="#DejaVuSans-49"/>
     <use x="580.761719" xlink:href="#DejaVuSans-57"/>
    </g>
    <!-- 51 targets: 100..1e-08 -->
    <defs>
     <path d="M 11.71875 12.40625 
L 22.015625 12.40625 
L 22.015625 0 
L 11.71875 0 
z
M 11.71875 51.703125 
L 22.015625 51.703125 
L 22.015625 39.3125 
L 11.71875 39.3125 
z
" id="DejaVuSans-58"/>
    </defs>
    <g transform="translate(60.41088 25.583055)scale(0.102 -0.102)">
     <use xlink:href="#DejaVuSans-53"/>
     <use x="63.623047" xlink:href="#DejaVuSans-49"/>
     <use x="127.246094" xlink:href="#DejaVuSans-32"/>
     <use x="159.033203" xlink:href="#DejaVuSans-116"/>
     <use x="198.242188" xlink:href="#DejaVuSans-97"/>
     <use x="259.521484" xlink:href="#DejaVuSans-114"/>
     <use x="298.884766" xlink:href="#DejaVuSans-103"/>
     <use x="362.361328" xlink:href="#DejaVuSans-101"/>
     <use x="423.884766" xlink:href="#DejaVuSans-116"/>
     <use x="463.09375" xlink:href="#DejaVuSans-115"/>
     <use x="515.193359" xlink:href="#DejaVuSans-58"/>
     <use x="548.884766" xlink:href="#DejaVuSans-32"/>
     <use x="580.671875" xlink:href="#DejaVuSans-49"/>
     <use x="644.294922" xlink:href="#DejaVuSans-48"/>
     <use x="707.917969" xlink:href="#DejaVuSans-48"/>
     <use x="771.541016" xlink:href="#DejaVuSans-46"/>
     <use x="803.328125" xlink:href="#DejaVuSans-46"/>
     <use x="835.115234" xlink:href="#DejaVuSans-49"/>
     <use x="898.738281" xlink:href="#DejaVuSans-101"/>
     <use x="960.261719" xlink:href="#DejaVuSans-45"/>
     <use x="996.345703" xlink:href="#DejaVuSans-48"/>
     <use x="1059.96875" xlink:href="#DejaVuSans-56"/>
    </g>
    <!-- 15 instances -->
    <g transform="translate(60.41088 37.004824)scale(0.102 -0.102)">
     <use xlink:href="#DejaVuSans-49"/>
     <use x="63.623047" xlink:href="#DejaVuSans-53"/>
     <use x="127.246094" xlink:href="#DejaVuSans-32"/>
     <use x="159.033203" xlink:href="#DejaVuSans-105"/>
     <use x="186.816406" xlink:href="#DejaVuSans-110"/>
     <use x="250.195312" xlink:href="#DejaVuSans-115"/>
     <use x="302.294922" xlink:href="#DejaVuSans-116"/>
     <use x="341.503906" xlink:href="#DejaVuSans-97"/>
     <use x="402.783203" xlink:href="#DejaVuSans-110"/>
     <use x="466.162109" xlink:href="#DejaVuSans-99"/>
     <use x="521.142578" xlink:href="#DejaVuSans-101"/>
     <use x="582.666016" xlink:href="#DejaVuSans-115"/>
    </g>
   </g>
   <g id="text_16">
    <!-- v2.3.3.5 -->
    <g style="fill:#808080;" transform="translate(177.692437 293.909432)scale(0.1 -0.1)">
     <use xlink:href="#DejaVuSans-118"/>
     <use x="59.179688" xlink:href="#DejaVuSans-50"/>
     <use x="122.802734" xlink:href="#DejaVuSans-46"/>
     <use x="154.589844" xlink:href="#DejaVuSans-51"/>
     <use x="218.212891" xlink:href="#DejaVuSans-46"/>
     <use x="250" xlink:href="#DejaVuSans-51"/>
     <use x="313.623047" xlink:href="#DejaVuSans-46"/>
     <use x="345.410156" xlink:href="#DejaVuSans-53"/>
    </g>
   </g>
  </g>
 </g>
 <defs>
  <clipPath id="p9c21ddd6c6">
   <rect height="295.488" width="281.088" x="57.6" y="3.456"/>
  </clipPath>
 </defs>
</svg>
