<?xml version="1.0" encoding="utf-8" standalone="no"?>
<!DOCTYPE svg PUBLIC "-//W3C//DTD SVG 1.1//EN"
  "http://www.w3.org/Graphics/SVG/1.1/DTD/svg11.dtd">
<!-- Created with matplotlib (https://matplotlib.org/) -->
<svg height="345.6pt" version="1.1" viewBox="0 0 460.8 345.6" width="460.8pt" xmlns="http://www.w3.org/2000/svg" xmlns:xlink="http://www.w3.org/1999/xlink">
 <defs>
  <style type="text/css">
*{stroke-linecap:butt;stroke-linejoin:round;}
  </style>
 </defs>
 <g id="figure_1">
  <g id="patch_1">
   <path d="M 0 345.6 
L 460.8 345.6 
L 460.8 0 
L 0 0 
z
" style="fill:#ffffff;"/>
  </g>
  <g id="axes_1">
   <g id="patch_2">
    <path d="M 57.6 298.944 
L 338.688 298.944 
L 338.688 3.456 
L 57.6 3.456 
z
" style="fill:#ffffff;"/>
   </g>
   <g id="matplotlib.axis_1">
    <g id="xtick_1">
     <g id="line2d_1">
      <path clip-path="url(#p8a9dd21cd0)" d="M 57.6 298.944 
L 57.6 3.456 
" style="fill:none;stroke:#b0b0b0;stroke-linecap:square;stroke-width:0.8;"/>
     </g>
     <g id="line2d_2">
      <defs>
       <path d="M 0 0 
L 0 3.5 
" id="mb34ef02dee" style="stroke:#000000;stroke-width:0.8;"/>
      </defs>
      <g>
       <use style="stroke:#000000;stroke-width:0.8;" x="57.6" xlink:href="#mb34ef02dee" y="298.944"/>
      </g>
     </g>
     <g id="text_1">
      <!-- 0 -->
      <defs>
       <path d="M 31.78125 66.40625 
Q 24.171875 66.40625 20.328125 58.90625 
Q 16.5 51.421875 16.5 36.375 
Q 16.5 21.390625 20.328125 13.890625 
Q 24.171875 6.390625 31.78125 6.390625 
Q 39.453125 6.390625 43.28125 13.890625 
Q 47.125 21.390625 47.125 36.375 
Q 47.125 51.421875 43.28125 58.90625 
Q 39.453125 66.40625 31.78125 66.40625 
z
M 31.78125 74.21875 
Q 44.046875 74.21875 50.515625 64.515625 
Q 56.984375 54.828125 56.984375 36.375 
Q 56.984375 17.96875 50.515625 8.265625 
Q 44.046875 -1.421875 31.78125 -1.421875 
Q 19.53125 -1.421875 13.0625 8.265625 
Q 6.59375 17.96875 6.59375 36.375 
Q 6.59375 54.828125 13.0625 64.515625 
Q 19.53125 74.21875 31.78125 74.21875 
z
" id="DejaVuSans-48"/>
      </defs>
      <g transform="translate(51.2375 321.140875)scale(0.2 -0.2)">
       <use xlink:href="#DejaVuSans-48"/>
      </g>
     </g>
    </g>
    <g id="xtick_2">
     <g id="line2d_3">
      <path clip-path="url(#p8a9dd21cd0)" d="M 137.910857 298.944 
L 137.910857 3.456 
" style="fill:none;stroke:#b0b0b0;stroke-linecap:square;stroke-width:0.8;"/>
     </g>
     <g id="line2d_4">
      <g>
       <use style="stroke:#000000;stroke-width:0.8;" x="137.910857" xlink:href="#mb34ef02dee" y="298.944"/>
      </g>
     </g>
     <g id="text_2">
      <!-- 2 -->
      <defs>
       <path d="M 19.1875 8.296875 
L 53.609375 8.296875 
L 53.609375 0 
L 7.328125 0 
L 7.328125 8.296875 
Q 12.9375 14.109375 22.625 23.890625 
Q 32.328125 33.6875 34.8125 36.53125 
Q 39.546875 41.84375 41.421875 45.53125 
Q 43.3125 49.21875 43.3125 52.78125 
Q 43.3125 58.59375 39.234375 62.25 
Q 35.15625 65.921875 28.609375 65.921875 
Q 23.96875 65.921875 18.8125 64.3125 
Q 13.671875 62.703125 7.8125 59.421875 
L 7.8125 69.390625 
Q 13.765625 71.78125 18.9375 73 
Q 24.125 74.21875 28.421875 74.21875 
Q 39.75 74.21875 46.484375 68.546875 
Q 53.21875 62.890625 53.21875 53.421875 
Q 53.21875 48.921875 51.53125 44.890625 
Q 49.859375 40.875 45.40625 35.40625 
Q 44.1875 33.984375 37.640625 27.21875 
Q 31.109375 20.453125 19.1875 8.296875 
z
" id="DejaVuSans-50"/>
      </defs>
      <g transform="translate(131.548357 321.140875)scale(0.2 -0.2)">
       <use xlink:href="#DejaVuSans-50"/>
      </g>
     </g>
    </g>
    <g id="xtick_3">
     <g id="line2d_5">
      <path clip-path="url(#p8a9dd21cd0)" d="M 218.221714 298.944 
L 218.221714 3.456 
" style="fill:none;stroke:#b0b0b0;stroke-linecap:square;stroke-width:0.8;"/>
     </g>
     <g id="line2d_6">
      <g>
       <use style="stroke:#000000;stroke-width:0.8;" x="218.221714" xlink:href="#mb34ef02dee" y="298.944"/>
      </g>
     </g>
     <g id="text_3">
      <!-- 4 -->
      <defs>
       <path d="M 37.796875 64.3125 
L 12.890625 25.390625 
L 37.796875 25.390625 
z
M 35.203125 72.90625 
L 47.609375 72.90625 
L 47.609375 25.390625 
L 58.015625 25.390625 
L 58.015625 17.1875 
L 47.609375 17.1875 
L 47.609375 0 
L 37.796875 0 
L 37.796875 17.1875 
L 4.890625 17.1875 
L 4.890625 26.703125 
z
" id="DejaVuSans-52"/>
      </defs>
      <g transform="translate(211.859214 321.140875)scale(0.2 -0.2)">
       <use xlink:href="#DejaVuSans-52"/>
      </g>
     </g>
    </g>
    <g id="xtick_4">
     <g id="line2d_7">
      <path clip-path="url(#p8a9dd21cd0)" d="M 298.532571 298.944 
L 298.532571 3.456 
" style="fill:none;stroke:#b0b0b0;stroke-linecap:square;stroke-width:0.8;"/>
     </g>
     <g id="line2d_8">
      <g>
       <use style="stroke:#000000;stroke-width:0.8;" x="298.532571" xlink:href="#mb34ef02dee" y="298.944"/>
      </g>
     </g>
     <g id="text_4">
      <!-- 6 -->
      <defs>
       <path d="M 33.015625 40.375 
Q 26.375 40.375 22.484375 35.828125 
Q 18.609375 31.296875 18.609375 23.390625 
Q 18.609375 15.53125 22.484375 10.953125 
Q 26.375 6.390625 33.015625 6.390625 
Q 39.65625 6.390625 43.53125 10.953125 
Q 47.40625 15.53125 47.40625 23.390625 
Q 47.40625 31.296875 43.53125 35.828125 
Q 39.65625 40.375 33.015625 40.375 
z
M 52.59375 71.296875 
L 52.59375 62.3125 
Q 48.875 64.0625 45.09375 64.984375 
Q 41.3125 65.921875 37.59375 65.921875 
Q 27.828125 65.921875 22.671875 59.328125 
Q 17.53125 52.734375 16.796875 39.40625 
Q 19.671875 43.65625 24.015625 45.921875 
Q 28.375 48.1875 33.59375 48.1875 
Q 44.578125 48.1875 50.953125 41.515625 
Q 57.328125 34.859375 57.328125 23.390625 
Q 57.328125 12.15625 50.6875 5.359375 
Q 44.046875 -1.421875 33.015625 -1.421875 
Q 20.359375 -1.421875 13.671875 8.265625 
Q 6.984375 17.96875 6.984375 36.375 
Q 6.984375 53.65625 15.1875 63.9375 
Q 23.390625 74.21875 37.203125 74.21875 
Q 40.921875 74.21875 44.703125 73.484375 
Q 48.484375 72.75 52.59375 71.296875 
z
" id="DejaVuSans-54"/>
      </defs>
      <g transform="translate(292.170071 321.140875)scale(0.2 -0.2)">
       <use xlink:href="#DejaVuSans-54"/>
      </g>
     </g>
    </g>
    <g id="xtick_5">
     <g id="line2d_9">
      <path clip-path="url(#p8a9dd21cd0)" d="M 97.755429 298.944 
L 97.755429 3.456 
" style="fill:none;stroke:#b0b0b0;stroke-linecap:square;stroke-width:0.8;"/>
     </g>
     <g id="line2d_10">
      <defs>
       <path d="M 0 0 
L 0 2 
" id="m53e06c1b8b" style="stroke:#000000;stroke-width:0.6;"/>
      </defs>
      <g>
       <use style="stroke:#000000;stroke-width:0.6;" x="97.755429" xlink:href="#m53e06c1b8b" y="298.944"/>
      </g>
     </g>
    </g>
    <g id="xtick_6">
     <g id="line2d_11">
      <path clip-path="url(#p8a9dd21cd0)" d="M 178.066286 298.944 
L 178.066286 3.456 
" style="fill:none;stroke:#b0b0b0;stroke-linecap:square;stroke-width:0.8;"/>
     </g>
     <g id="line2d_12">
      <g>
       <use style="stroke:#000000;stroke-width:0.6;" x="178.066286" xlink:href="#m53e06c1b8b" y="298.944"/>
      </g>
     </g>
    </g>
    <g id="xtick_7">
     <g id="line2d_13">
      <path clip-path="url(#p8a9dd21cd0)" d="M 258.377143 298.944 
L 258.377143 3.456 
" style="fill:none;stroke:#b0b0b0;stroke-linecap:square;stroke-width:0.8;"/>
     </g>
     <g id="line2d_14">
      <g>
       <use style="stroke:#000000;stroke-width:0.6;" x="258.377143" xlink:href="#m53e06c1b8b" y="298.944"/>
      </g>
     </g>
    </g>
    <g id="xtick_8">
     <g id="line2d_15">
      <path clip-path="url(#p8a9dd21cd0)" d="M 338.688 298.944 
L 338.688 3.456 
" style="fill:none;stroke:#b0b0b0;stroke-linecap:square;stroke-width:0.8;"/>
     </g>
     <g id="line2d_16">
      <g>
       <use style="stroke:#000000;stroke-width:0.6;" x="338.688" xlink:href="#m53e06c1b8b" y="298.944"/>
      </g>
     </g>
    </g>
    <g id="text_5">
     <!-- log10(# f-evals / dimension) -->
     <defs>
      <path d="M 9.421875 75.984375 
L 18.40625 75.984375 
L 18.40625 0 
L 9.421875 0 
z
" id="DejaVuSans-108"/>
      <path d="M 30.609375 48.390625 
Q 23.390625 48.390625 19.1875 42.75 
Q 14.984375 37.109375 14.984375 27.296875 
Q 14.984375 17.484375 19.15625 11.84375 
Q 23.34375 6.203125 30.609375 6.203125 
Q 37.796875 6.203125 41.984375 11.859375 
Q 46.1875 17.53125 46.1875 27.296875 
Q 46.1875 37.015625 41.984375 42.703125 
Q 37.796875 48.390625 30.609375 48.390625 
z
M 30.609375 56 
Q 42.328125 56 49.015625 48.375 
Q 55.71875 40.765625 55.71875 27.296875 
Q 55.71875 13.875 49.015625 6.21875 
Q 42.328125 -1.421875 30.609375 -1.421875 
Q 18.84375 -1.421875 12.171875 6.21875 
Q 5.515625 13.875 5.515625 27.296875 
Q 5.515625 40.765625 12.171875 48.375 
Q 18.84375 56 30.609375 56 
z
" id="DejaVuSans-111"/>
      <path d="M 45.40625 27.984375 
Q 45.40625 37.75 41.375 43.109375 
Q 37.359375 48.484375 30.078125 48.484375 
Q 22.859375 48.484375 18.828125 43.109375 
Q 14.796875 37.75 14.796875 27.984375 
Q 14.796875 18.265625 18.828125 12.890625 
Q 22.859375 7.515625 30.078125 7.515625 
Q 37.359375 7.515625 41.375 12.890625 
Q 45.40625 18.265625 45.40625 27.984375 
z
M 54.390625 6.78125 
Q 54.390625 -7.171875 48.1875 -13.984375 
Q 42 -20.796875 29.203125 -20.796875 
Q 24.46875 -20.796875 20.265625 -20.09375 
Q 16.0625 -19.390625 12.109375 -17.921875 
L 12.109375 -9.1875 
Q 16.0625 -11.328125 19.921875 -12.34375 
Q 23.78125 -13.375 27.78125 -13.375 
Q 36.625 -13.375 41.015625 -8.765625 
Q 45.40625 -4.15625 45.40625 5.171875 
L 45.40625 9.625 
Q 42.625 4.78125 38.28125 2.390625 
Q 33.9375 0 27.875 0 
Q 17.828125 0 11.671875 7.65625 
Q 5.515625 15.328125 5.515625 27.984375 
Q 5.515625 40.671875 11.671875 48.328125 
Q 17.828125 56 27.875 56 
Q 33.9375 56 38.28125 53.609375 
Q 42.625 51.21875 45.40625 46.390625 
L 45.40625 54.6875 
L 54.390625 54.6875 
z
" id="DejaVuSans-103"/>
      <path d="M 12.40625 8.296875 
L 28.515625 8.296875 
L 28.515625 63.921875 
L 10.984375 60.40625 
L 10.984375 69.390625 
L 28.421875 72.90625 
L 38.28125 72.90625 
L 38.28125 8.296875 
L 54.390625 8.296875 
L 54.390625 0 
L 12.40625 0 
z
" id="DejaVuSans-49"/>
      <path d="M 31 75.875 
Q 24.46875 64.65625 21.28125 53.65625 
Q 18.109375 42.671875 18.109375 31.390625 
Q 18.109375 20.125 21.3125 9.0625 
Q 24.515625 -2 31 -13.1875 
L 23.1875 -13.1875 
Q 15.875 -1.703125 12.234375 9.375 
Q 8.59375 20.453125 8.59375 31.390625 
Q 8.59375 42.28125 12.203125 53.3125 
Q 15.828125 64.359375 23.1875 75.875 
z
" id="DejaVuSans-40"/>
      <path d="M 51.125 44 
L 36.921875 44 
L 32.8125 27.6875 
L 47.125 27.6875 
z
M 43.796875 71.78125 
L 38.71875 51.515625 
L 52.984375 51.515625 
L 58.109375 71.78125 
L 65.921875 71.78125 
L 60.890625 51.515625 
L 76.125 51.515625 
L 76.125 44 
L 58.984375 44 
L 54.984375 27.6875 
L 70.515625 27.6875 
L 70.515625 20.21875 
L 53.078125 20.21875 
L 48 0 
L 40.1875 0 
L 45.21875 20.21875 
L 30.90625 20.21875 
L 25.875 0 
L 18.015625 0 
L 23.09375 20.21875 
L 7.71875 20.21875 
L 7.71875 27.6875 
L 24.90625 27.6875 
L 29 44 
L 13.28125 44 
L 13.28125 51.515625 
L 30.90625 51.515625 
L 35.890625 71.78125 
z
" id="DejaVuSans-35"/>
      <path id="DejaVuSans-32"/>
      <path d="M 37.109375 75.984375 
L 37.109375 68.5 
L 28.515625 68.5 
Q 23.6875 68.5 21.796875 66.546875 
Q 19.921875 64.59375 19.921875 59.515625 
L 19.921875 54.6875 
L 34.71875 54.6875 
L 34.71875 47.703125 
L 19.921875 47.703125 
L 19.921875 0 
L 10.890625 0 
L 10.890625 47.703125 
L 2.296875 47.703125 
L 2.296875 54.6875 
L 10.890625 54.6875 
L 10.890625 58.5 
Q 10.890625 67.625 15.140625 71.796875 
Q 19.390625 75.984375 28.609375 75.984375 
z
" id="DejaVuSans-102"/>
      <path d="M 4.890625 31.390625 
L 31.203125 31.390625 
L 31.203125 23.390625 
L 4.890625 23.390625 
z
" id="DejaVuSans-45"/>
      <path d="M 56.203125 29.59375 
L 56.203125 25.203125 
L 14.890625 25.203125 
Q 15.484375 15.921875 20.484375 11.0625 
Q 25.484375 6.203125 34.421875 6.203125 
Q 39.59375 6.203125 44.453125 7.46875 
Q 49.3125 8.734375 54.109375 11.28125 
L 54.109375 2.78125 
Q 49.265625 0.734375 44.1875 -0.34375 
Q 39.109375 -1.421875 33.890625 -1.421875 
Q 20.796875 -1.421875 13.15625 6.1875 
Q 5.515625 13.8125 5.515625 26.8125 
Q 5.515625 40.234375 12.765625 48.109375 
Q 20.015625 56 32.328125 56 
Q 43.359375 56 49.78125 48.890625 
Q 56.203125 41.796875 56.203125 29.59375 
z
M 47.21875 32.234375 
Q 47.125 39.59375 43.09375 43.984375 
Q 39.0625 48.390625 32.421875 48.390625 
Q 24.90625 48.390625 20.390625 44.140625 
Q 15.875 39.890625 15.1875 32.171875 
z
" id="DejaVuSans-101"/>
      <path d="M 2.984375 54.6875 
L 12.5 54.6875 
L 29.59375 8.796875 
L 46.6875 54.6875 
L 56.203125 54.6875 
L 35.6875 0 
L 23.484375 0 
z
" id="DejaVuSans-118"/>
      <path d="M 34.28125 27.484375 
Q 23.390625 27.484375 19.1875 25 
Q 14.984375 22.515625 14.984375 16.5 
Q 14.984375 11.71875 18.140625 8.90625 
Q 21.296875 6.109375 26.703125 6.109375 
Q 34.1875 6.109375 38.703125 11.40625 
Q 43.21875 16.703125 43.21875 25.484375 
L 43.21875 27.484375 
z
M 52.203125 31.203125 
L 52.203125 0 
L 43.21875 0 
L 43.21875 8.296875 
Q 40.140625 3.328125 35.546875 0.953125 
Q 30.953125 -1.421875 24.3125 -1.421875 
Q 15.921875 -1.421875 10.953125 3.296875 
Q 6 8.015625 6 15.921875 
Q 6 25.140625 12.171875 29.828125 
Q 18.359375 34.515625 30.609375 34.515625 
L 43.21875 34.515625 
L 43.21875 35.40625 
Q 43.21875 41.609375 39.140625 45 
Q 35.0625 48.390625 27.6875 48.390625 
Q 23 48.390625 18.546875 47.265625 
Q 14.109375 46.140625 10.015625 43.890625 
L 10.015625 52.203125 
Q 14.9375 54.109375 19.578125 55.046875 
Q 24.21875 56 28.609375 56 
Q 40.484375 56 46.34375 49.84375 
Q 52.203125 43.703125 52.203125 31.203125 
z
" id="DejaVuSans-97"/>
      <path d="M 44.28125 53.078125 
L 44.28125 44.578125 
Q 40.484375 46.53125 36.375 47.5 
Q 32.28125 48.484375 27.875 48.484375 
Q 21.1875 48.484375 17.84375 46.4375 
Q 14.5 44.390625 14.5 40.28125 
Q 14.5 37.15625 16.890625 35.375 
Q 19.28125 33.59375 26.515625 31.984375 
L 29.59375 31.296875 
Q 39.15625 29.25 43.1875 25.515625 
Q 47.21875 21.78125 47.21875 15.09375 
Q 47.21875 7.46875 41.1875 3.015625 
Q 35.15625 -1.421875 24.609375 -1.421875 
Q 20.21875 -1.421875 15.453125 -0.5625 
Q 10.6875 0.296875 5.421875 2 
L 5.421875 11.28125 
Q 10.40625 8.6875 15.234375 7.390625 
Q 20.0625 6.109375 24.8125 6.109375 
Q 31.15625 6.109375 34.5625 8.28125 
Q 37.984375 10.453125 37.984375 14.40625 
Q 37.984375 18.0625 35.515625 20.015625 
Q 33.0625 21.96875 24.703125 23.78125 
L 21.578125 24.515625 
Q 13.234375 26.265625 9.515625 29.90625 
Q 5.8125 33.546875 5.8125 39.890625 
Q 5.8125 47.609375 11.28125 51.796875 
Q 16.75 56 26.8125 56 
Q 31.78125 56 36.171875 55.265625 
Q 40.578125 54.546875 44.28125 53.078125 
z
" id="DejaVuSans-115"/>
      <path d="M 25.390625 72.90625 
L 33.6875 72.90625 
L 8.296875 -9.28125 
L 0 -9.28125 
z
" id="DejaVuSans-47"/>
      <path d="M 45.40625 46.390625 
L 45.40625 75.984375 
L 54.390625 75.984375 
L 54.390625 0 
L 45.40625 0 
L 45.40625 8.203125 
Q 42.578125 3.328125 38.25 0.953125 
Q 33.9375 -1.421875 27.875 -1.421875 
Q 17.96875 -1.421875 11.734375 6.484375 
Q 5.515625 14.40625 5.515625 27.296875 
Q 5.515625 40.1875 11.734375 48.09375 
Q 17.96875 56 27.875 56 
Q 33.9375 56 38.25 53.625 
Q 42.578125 51.265625 45.40625 46.390625 
z
M 14.796875 27.296875 
Q 14.796875 17.390625 18.875 11.75 
Q 22.953125 6.109375 30.078125 6.109375 
Q 37.203125 6.109375 41.296875 11.75 
Q 45.40625 17.390625 45.40625 27.296875 
Q 45.40625 37.203125 41.296875 42.84375 
Q 37.203125 48.484375 30.078125 48.484375 
Q 22.953125 48.484375 18.875 42.84375 
Q 14.796875 37.203125 14.796875 27.296875 
z
" id="DejaVuSans-100"/>
      <path d="M 9.421875 54.6875 
L 18.40625 54.6875 
L 18.40625 0 
L 9.421875 0 
z
M 9.421875 75.984375 
L 18.40625 75.984375 
L 18.40625 64.59375 
L 9.421875 64.59375 
z
" id="DejaVuSans-105"/>
      <path d="M 52 44.1875 
Q 55.375 50.25 60.0625 53.125 
Q 64.75 56 71.09375 56 
Q 79.640625 56 84.28125 50.015625 
Q 88.921875 44.046875 88.921875 33.015625 
L 88.921875 0 
L 79.890625 0 
L 79.890625 32.71875 
Q 79.890625 40.578125 77.09375 44.375 
Q 74.3125 48.1875 68.609375 48.1875 
Q 61.625 48.1875 57.5625 43.546875 
Q 53.515625 38.921875 53.515625 30.90625 
L 53.515625 0 
L 44.484375 0 
L 44.484375 32.71875 
Q 44.484375 40.625 41.703125 44.40625 
Q 38.921875 48.1875 33.109375 48.1875 
Q 26.21875 48.1875 22.15625 43.53125 
Q 18.109375 38.875 18.109375 30.90625 
L 18.109375 0 
L 9.078125 0 
L 9.078125 54.6875 
L 18.109375 54.6875 
L 18.109375 46.1875 
Q 21.1875 51.21875 25.484375 53.609375 
Q 29.78125 56 35.6875 56 
Q 41.65625 56 45.828125 52.96875 
Q 50 49.953125 52 44.1875 
z
" id="DejaVuSans-109"/>
      <path d="M 54.890625 33.015625 
L 54.890625 0 
L 45.90625 0 
L 45.90625 32.71875 
Q 45.90625 40.484375 42.875 44.328125 
Q 39.84375 48.1875 33.796875 48.1875 
Q 26.515625 48.1875 22.3125 43.546875 
Q 18.109375 38.921875 18.109375 30.90625 
L 18.109375 0 
L 9.078125 0 
L 9.078125 54.6875 
L 18.109375 54.6875 
L 18.109375 46.1875 
Q 21.34375 51.125 25.703125 53.5625 
Q 30.078125 56 35.796875 56 
Q 45.21875 56 50.046875 50.171875 
Q 54.890625 44.34375 54.890625 33.015625 
z
" id="DejaVuSans-110"/>
      <path d="M 8.015625 75.875 
L 15.828125 75.875 
Q 23.140625 64.359375 26.78125 53.3125 
Q 30.421875 42.28125 30.421875 31.390625 
Q 30.421875 20.453125 26.78125 9.375 
Q 23.140625 -1.703125 15.828125 -13.1875 
L 8.015625 -13.1875 
Q 14.5 -2 17.703125 9.0625 
Q 20.90625 20.125 20.90625 31.390625 
Q 20.90625 42.671875 17.703125 53.65625 
Q 14.5 64.65625 8.015625 75.875 
z
" id="DejaVuSans-41"/>
     </defs>
     <g transform="translate(77.764078 342.217594)scale(0.17 -0.17)">
      <use xlink:href="#DejaVuSans-108"/>
      <use x="27.783203" xlink:href="#DejaVuSans-111"/>
      <use x="88.964844" xlink:href="#DejaVuSans-103"/>
      <use x="152.441406" xlink:href="#DejaVuSans-49"/>
      <use x="216.064453" xlink:href="#DejaVuSans-48"/>
      <use x="279.6875" xlink:href="#DejaVuSans-40"/>
      <use x="318.701172" xlink:href="#DejaVuSans-35"/>
      <use x="402.490234" xlink:href="#DejaVuSans-32"/>
      <use x="434.277344" xlink:href="#DejaVuSans-102"/>
      <use x="463.982422" xlink:href="#DejaVuSans-45"/>
      <use x="500.066406" xlink:href="#DejaVuSans-101"/>
      <use x="561.589844" xlink:href="#DejaVuSans-118"/>
      <use x="620.769531" xlink:href="#DejaVuSans-97"/>
      <use x="682.048828" xlink:href="#DejaVuSans-108"/>
      <use x="709.832031" xlink:href="#DejaVuSans-115"/>
      <use x="761.931641" xlink:href="#DejaVuSans-32"/>
      <use x="793.71875" xlink:href="#DejaVuSans-47"/>
      <use x="827.410156" xlink:href="#DejaVuSans-32"/>
      <use x="859.197266" xlink:href="#DejaVuSans-100"/>
      <use x="922.673828" xlink:href="#DejaVuSans-105"/>
      <use x="950.457031" xlink:href="#DejaVuSans-109"/>
      <use x="1047.869141" xlink:href="#DejaVuSans-101"/>
      <use x="1109.392578" xlink:href="#DejaVuSans-110"/>
      <use x="1172.771484" xlink:href="#DejaVuSans-115"/>
      <use x="1224.871094" xlink:href="#DejaVuSans-105"/>
      <use x="1252.654297" xlink:href="#DejaVuSans-111"/>
      <use x="1313.835938" xlink:href="#DejaVuSans-110"/>
      <use x="1377.214844" xlink:href="#DejaVuSans-41"/>
     </g>
    </g>
   </g>
   <g id="matplotlib.axis_2">
    <g id="ytick_1">
     <g id="line2d_17">
      <path clip-path="url(#p8a9dd21cd0)" d="M 57.6 298.944 
L 338.688 298.944 
" style="fill:none;stroke:#b0b0b0;stroke-linecap:square;stroke-width:0.8;"/>
     </g>
     <g id="line2d_18">
      <defs>
       <path d="M 0 0 
L -3.5 0 
" id="mcdd84fd236" style="stroke:#000000;stroke-width:0.8;"/>
      </defs>
      <g>
       <use style="stroke:#000000;stroke-width:0.8;" x="57.6" xlink:href="#mcdd84fd236" y="298.944"/>
      </g>
     </g>
     <g id="text_6">
      <!-- 0.0 -->
      <defs>
       <path d="M 10.6875 12.40625 
L 21 12.40625 
L 21 0 
L 10.6875 0 
z
" id="DejaVuSans-46"/>
      </defs>
      <g transform="translate(25.155 305.02275)scale(0.16 -0.16)">
       <use xlink:href="#DejaVuSans-48"/>
       <use x="63.623047" xlink:href="#DejaVuSans-46"/>
       <use x="95.410156" xlink:href="#DejaVuSans-48"/>
      </g>
     </g>
    </g>
    <g id="ytick_2">
     <g id="line2d_19">
      <path clip-path="url(#p8a9dd21cd0)" d="M 57.6 240.431525 
L 338.688 240.431525 
" style="fill:none;stroke:#b0b0b0;stroke-linecap:square;stroke-width:0.8;"/>
     </g>
     <g id="line2d_20">
      <g>
       <use style="stroke:#000000;stroke-width:0.8;" x="57.6" xlink:href="#mcdd84fd236" y="240.431525"/>
      </g>
     </g>
     <g id="text_7">
      <!-- 0.2 -->
      <g transform="translate(25.155 246.510275)scale(0.16 -0.16)">
       <use xlink:href="#DejaVuSans-48"/>
       <use x="63.623047" xlink:href="#DejaVuSans-46"/>
       <use x="95.410156" xlink:href="#DejaVuSans-50"/>
      </g>
     </g>
    </g>
    <g id="ytick_3">
     <g id="line2d_21">
      <path clip-path="url(#p8a9dd21cd0)" d="M 57.6 181.91905 
L 338.688 181.91905 
" style="fill:none;stroke:#b0b0b0;stroke-linecap:square;stroke-width:0.8;"/>
     </g>
     <g id="line2d_22">
      <g>
       <use style="stroke:#000000;stroke-width:0.8;" x="57.6" xlink:href="#mcdd84fd236" y="181.91905"/>
      </g>
     </g>
     <g id="text_8">
      <!-- 0.4 -->
      <g transform="translate(25.155 187.9978)scale(0.16 -0.16)">
       <use xlink:href="#DejaVuSans-48"/>
       <use x="63.623047" xlink:href="#DejaVuSans-46"/>
       <use x="95.410156" xlink:href="#DejaVuSans-52"/>
      </g>
     </g>
    </g>
    <g id="ytick_4">
     <g id="line2d_23">
      <path clip-path="url(#p8a9dd21cd0)" d="M 57.6 123.406574 
L 338.688 123.406574 
" style="fill:none;stroke:#b0b0b0;stroke-linecap:square;stroke-width:0.8;"/>
     </g>
     <g id="line2d_24">
      <g>
       <use style="stroke:#000000;stroke-width:0.8;" x="57.6" xlink:href="#mcdd84fd236" y="123.406574"/>
      </g>
     </g>
     <g id="text_9">
      <!-- 0.6 -->
      <g transform="translate(25.155 129.485324)scale(0.16 -0.16)">
       <use xlink:href="#DejaVuSans-48"/>
       <use x="63.623047" xlink:href="#DejaVuSans-46"/>
       <use x="95.410156" xlink:href="#DejaVuSans-54"/>
      </g>
     </g>
    </g>
    <g id="ytick_5">
     <g id="line2d_25">
      <path clip-path="url(#p8a9dd21cd0)" d="M 57.6 64.894099 
L 338.688 64.894099 
" style="fill:none;stroke:#b0b0b0;stroke-linecap:square;stroke-width:0.8;"/>
     </g>
     <g id="line2d_26">
      <g>
       <use style="stroke:#000000;stroke-width:0.8;" x="57.6" xlink:href="#mcdd84fd236" y="64.894099"/>
      </g>
     </g>
     <g id="text_10">
      <!-- 0.8 -->
      <defs>
       <path d="M 31.78125 34.625 
Q 24.75 34.625 20.71875 30.859375 
Q 16.703125 27.09375 16.703125 20.515625 
Q 16.703125 13.921875 20.71875 10.15625 
Q 24.75 6.390625 31.78125 6.390625 
Q 38.8125 6.390625 42.859375 10.171875 
Q 46.921875 13.96875 46.921875 20.515625 
Q 46.921875 27.09375 42.890625 30.859375 
Q 38.875 34.625 31.78125 34.625 
z
M 21.921875 38.8125 
Q 15.578125 40.375 12.03125 44.71875 
Q 8.5 49.078125 8.5 55.328125 
Q 8.5 64.0625 14.71875 69.140625 
Q 20.953125 74.21875 31.78125 74.21875 
Q 42.671875 74.21875 48.875 69.140625 
Q 55.078125 64.0625 55.078125 55.328125 
Q 55.078125 49.078125 51.53125 44.71875 
Q 48 40.375 41.703125 38.8125 
Q 48.828125 37.15625 52.796875 32.3125 
Q 56.78125 27.484375 56.78125 20.515625 
Q 56.78125 9.90625 50.3125 4.234375 
Q 43.84375 -1.421875 31.78125 -1.421875 
Q 19.734375 -1.421875 13.25 4.234375 
Q 6.78125 9.90625 6.78125 20.515625 
Q 6.78125 27.484375 10.78125 32.3125 
Q 14.796875 37.15625 21.921875 38.8125 
z
M 18.3125 54.390625 
Q 18.3125 48.734375 21.84375 45.5625 
Q 25.390625 42.390625 31.78125 42.390625 
Q 38.140625 42.390625 41.71875 45.5625 
Q 45.3125 48.734375 45.3125 54.390625 
Q 45.3125 60.0625 41.71875 63.234375 
Q 38.140625 66.40625 31.78125 66.40625 
Q 25.390625 66.40625 21.84375 63.234375 
Q 18.3125 60.0625 18.3125 54.390625 
z
" id="DejaVuSans-56"/>
      </defs>
      <g transform="translate(25.155 70.972849)scale(0.16 -0.16)">
       <use xlink:href="#DejaVuSans-48"/>
       <use x="63.623047" xlink:href="#DejaVuSans-46"/>
       <use x="95.410156" xlink:href="#DejaVuSans-56"/>
      </g>
     </g>
    </g>
    <g id="ytick_6">
     <g id="line2d_27">
      <path clip-path="url(#p8a9dd21cd0)" d="M 57.6 6.381624 
L 338.688 6.381624 
" style="fill:none;stroke:#b0b0b0;stroke-linecap:square;stroke-width:0.8;"/>
     </g>
     <g id="line2d_28">
      <g>
       <use style="stroke:#000000;stroke-width:0.8;" x="57.6" xlink:href="#mcdd84fd236" y="6.381624"/>
      </g>
     </g>
     <g id="text_11">
      <!-- 1.0 -->
      <g transform="translate(25.155 12.460374)scale(0.16 -0.16)">
       <use xlink:href="#DejaVuSans-49"/>
       <use x="63.623047" xlink:href="#DejaVuSans-46"/>
       <use x="95.410156" xlink:href="#DejaVuSans-48"/>
      </g>
     </g>
    </g>
    <g id="text_12">
     <!-- Fraction of function,target pairs -->
     <defs>
      <path d="M 9.8125 72.90625 
L 51.703125 72.90625 
L 51.703125 64.59375 
L 19.671875 64.59375 
L 19.671875 43.109375 
L 48.578125 43.109375 
L 48.578125 34.8125 
L 19.671875 34.8125 
L 19.671875 0 
L 9.8125 0 
z
" id="DejaVuSans-70"/>
      <path d="M 41.109375 46.296875 
Q 39.59375 47.171875 37.8125 47.578125 
Q 36.03125 48 33.890625 48 
Q 26.265625 48 22.1875 43.046875 
Q 18.109375 38.09375 18.109375 28.8125 
L 18.109375 0 
L 9.078125 0 
L 9.078125 54.6875 
L 18.109375 54.6875 
L 18.109375 46.1875 
Q 20.953125 51.171875 25.484375 53.578125 
Q 30.03125 56 36.53125 56 
Q 37.453125 56 38.578125 55.875 
Q 39.703125 55.765625 41.0625 55.515625 
z
" id="DejaVuSans-114"/>
      <path d="M 48.78125 52.59375 
L 48.78125 44.1875 
Q 44.96875 46.296875 41.140625 47.34375 
Q 37.3125 48.390625 33.40625 48.390625 
Q 24.65625 48.390625 19.8125 42.84375 
Q 14.984375 37.3125 14.984375 27.296875 
Q 14.984375 17.28125 19.8125 11.734375 
Q 24.65625 6.203125 33.40625 6.203125 
Q 37.3125 6.203125 41.140625 7.25 
Q 44.96875 8.296875 48.78125 10.40625 
L 48.78125 2.09375 
Q 45.015625 0.34375 40.984375 -0.53125 
Q 36.96875 -1.421875 32.421875 -1.421875 
Q 20.0625 -1.421875 12.78125 6.34375 
Q 5.515625 14.109375 5.515625 27.296875 
Q 5.515625 40.671875 12.859375 48.328125 
Q 20.21875 56 33.015625 56 
Q 37.15625 56 41.109375 55.140625 
Q 45.0625 54.296875 48.78125 52.59375 
z
" id="DejaVuSans-99"/>
      <path d="M 18.3125 70.21875 
L 18.3125 54.6875 
L 36.8125 54.6875 
L 36.8125 47.703125 
L 18.3125 47.703125 
L 18.3125 18.015625 
Q 18.3125 11.328125 20.140625 9.421875 
Q 21.96875 7.515625 27.59375 7.515625 
L 36.8125 7.515625 
L 36.8125 0 
L 27.59375 0 
Q 17.1875 0 13.234375 3.875 
Q 9.28125 7.765625 9.28125 18.015625 
L 9.28125 47.703125 
L 2.6875 47.703125 
L 2.6875 54.6875 
L 9.28125 54.6875 
L 9.28125 70.21875 
z
" id="DejaVuSans-116"/>
      <path d="M 8.5 21.578125 
L 8.5 54.6875 
L 17.484375 54.6875 
L 17.484375 21.921875 
Q 17.484375 14.15625 20.5 10.265625 
Q 23.53125 6.390625 29.59375 6.390625 
Q 36.859375 6.390625 41.078125 11.03125 
Q 45.3125 15.671875 45.3125 23.6875 
L 45.3125 54.6875 
L 54.296875 54.6875 
L 54.296875 0 
L 45.3125 0 
L 45.3125 8.40625 
Q 42.046875 3.421875 37.71875 1 
Q 33.40625 -1.421875 27.6875 -1.421875 
Q 18.265625 -1.421875 13.375 4.4375 
Q 8.5 10.296875 8.5 21.578125 
z
M 31.109375 56 
z
" id="DejaVuSans-117"/>
      <path d="M 11.71875 12.40625 
L 22.015625 12.40625 
L 22.015625 4 
L 14.015625 -11.625 
L 7.71875 -11.625 
L 11.71875 4 
z
" id="DejaVuSans-44"/>
      <path d="M 18.109375 8.203125 
L 18.109375 -20.796875 
L 9.078125 -20.796875 
L 9.078125 54.6875 
L 18.109375 54.6875 
L 18.109375 46.390625 
Q 20.953125 51.265625 25.265625 53.625 
Q 29.59375 56 35.59375 56 
Q 45.5625 56 51.78125 48.09375 
Q 58.015625 40.1875 58.015625 27.296875 
Q 58.015625 14.40625 51.78125 6.484375 
Q 45.5625 -1.421875 35.59375 -1.421875 
Q 29.59375 -1.421875 25.265625 0.953125 
Q 20.953125 3.328125 18.109375 8.203125 
z
M 48.6875 27.296875 
Q 48.6875 37.203125 44.609375 42.84375 
Q 40.53125 48.484375 33.40625 48.484375 
Q 26.265625 48.484375 22.1875 42.84375 
Q 18.109375 37.203125 18.109375 27.296875 
Q 18.109375 17.390625 22.1875 11.75 
Q 26.265625 6.109375 33.40625 6.109375 
Q 40.53125 6.109375 44.609375 11.75 
Q 48.6875 17.390625 48.6875 27.296875 
z
" id="DejaVuSans-112"/>
     </defs>
     <g transform="translate(17.619531 285.585)rotate(-90)scale(0.17 -0.17)">
      <use xlink:href="#DejaVuSans-70"/>
      <use x="50.269531" xlink:href="#DejaVuSans-114"/>
      <use x="91.382812" xlink:href="#DejaVuSans-97"/>
      <use x="152.662109" xlink:href="#DejaVuSans-99"/>
      <use x="207.642578" xlink:href="#DejaVuSans-116"/>
      <use x="246.851562" xlink:href="#DejaVuSans-105"/>
      <use x="274.634766" xlink:href="#DejaVuSans-111"/>
      <use x="335.816406" xlink:href="#DejaVuSans-110"/>
      <use x="399.195312" xlink:href="#DejaVuSans-32"/>
      <use x="430.982422" xlink:href="#DejaVuSans-111"/>
      <use x="492.164062" xlink:href="#DejaVuSans-102"/>
      <use x="527.369141" xlink:href="#DejaVuSans-32"/>
      <use x="559.15625" xlink:href="#DejaVuSans-102"/>
      <use x="594.361328" xlink:href="#DejaVuSans-117"/>
      <use x="657.740234" xlink:href="#DejaVuSans-110"/>
      <use x="721.119141" xlink:href="#DejaVuSans-99"/>
      <use x="776.099609" xlink:href="#DejaVuSans-116"/>
      <use x="815.308594" xlink:href="#DejaVuSans-105"/>
      <use x="843.091797" xlink:href="#DejaVuSans-111"/>
      <use x="904.273438" xlink:href="#DejaVuSans-110"/>
      <use x="967.652344" xlink:href="#DejaVuSans-44"/>
      <use x="999.439453" xlink:href="#DejaVuSans-116"/>
      <use x="1038.648438" xlink:href="#DejaVuSans-97"/>
      <use x="1099.927734" xlink:href="#DejaVuSans-114"/>
      <use x="1139.291016" xlink:href="#DejaVuSans-103"/>
      <use x="1202.767578" xlink:href="#DejaVuSans-101"/>
      <use x="1264.291016" xlink:href="#DejaVuSans-116"/>
      <use x="1303.5" xlink:href="#DejaVuSans-32"/>
      <use x="1335.287109" xlink:href="#DejaVuSans-112"/>
      <use x="1398.763672" xlink:href="#DejaVuSans-97"/>
      <use x="1460.042969" xlink:href="#DejaVuSans-105"/>
      <use x="1487.826172" xlink:href="#DejaVuSans-114"/>
      <use x="1528.939453" xlink:href="#DejaVuSans-115"/>
     </g>
    </g>
   </g>
   <g id="line2d_29">
    <defs>
     <path d="M 0 1.5 
C 0.397805 1.5 0.77937 1.341951 1.06066 1.06066 
C 1.341951 0.77937 1.5 0.397805 1.5 0 
C 1.5 -0.397805 1.341951 -0.77937 1.06066 -1.06066 
C 0.77937 -1.341951 0.397805 -1.5 0 -1.5 
C -0.397805 -1.5 -0.77937 -1.341951 -1.06066 -1.06066 
C -1.341951 -0.77937 -1.5 -0.397805 -1.5 0 
C -1.5 0.397805 -1.341951 0.77937 -1.06066 1.06066 
C -0.77937 1.341951 -0.397805 1.5 0 1.5 
z
" id="ma9628073ce" style="stroke:#000080;"/>
    </defs>
    <g>
     <use style="fill:#000080;stroke:#000080;" x="220.572409" xlink:href="#ma9628073ce" y="29.327692"/>
     <use style="fill:#000080;stroke:#000080;" x="220.572409" xlink:href="#ma9628073ce" y="29.327692"/>
    </g>
   </g>
   <g id="line2d_30">
    <path d="M 38.440992 298.944 
L 38.440992 297.796697 
L 86.792945 297.796697 
L 86.792945 297.223045 
L 100.934985 297.223045 
L 100.934985 296.649393 
L 102.772397 296.649393 
L 102.772397 293.781135 
L 103.203018 293.781135 
L 103.203018 293.207483 
L 104.434538 293.207483 
L 104.434538 292.633831 
L 105.209745 292.633831 
L 105.209745 290.339224 
L 105.584798 290.339224 
L 105.584798 289.191921 
L 105.951954 289.191921 
L 105.951954 287.470966 
L 106.311539 287.470966 
L 106.311539 285.75001 
L 106.66386 285.75001 
L 106.66386 285.176359 
L 112.779064 285.176359 
L 112.779064 284.029055 
L 117.486268 284.029055 
L 117.486268 283.455404 
L 118.220662 283.455404 
L 118.220662 282.881752 
L 118.751849 282.881752 
L 118.751849 281.734448 
L 119.097192 281.734448 
L 119.097192 281.160797 
L 119.43583 281.160797 
L 119.43583 280.587145 
L 121.036887 280.587145 
L 121.036887 280.013493 
L 121.785469 280.013493 
L 121.785469 278.292538 
L 122.219665 278.292538 
L 122.219665 277.145235 
L 122.362027 277.145235 
L 122.362027 276.571583 
L 123.056911 276.571583 
L 123.056911 275.997931 
L 123.593547 275.997931 
L 123.593547 275.42428 
L 123.725164 275.42428 
L 123.725164 274.850628 
L 123.855796 274.850628 
L 123.855796 274.276976 
L 124.114161 274.276976 
L 124.114161 273.703324 
L 124.241922 273.703324 
L 124.241922 273.129673 
L 124.494669 273.129673 
L 124.494669 271.982369 
L 124.743806 271.982369 
L 124.743806 271.408718 
L 125.110962 271.408718 
L 125.110962 270.835066 
L 125.351508 270.835066 
L 125.351508 270.261414 
L 125.470548 270.261414 
L 125.470548 269.687762 
L 125.706218 269.687762 
L 125.706218 269.114111 
L 125.938745 269.114111 
L 125.938745 266.819504 
L 126.168212 266.819504 
L 126.168212 265.6722 
L 126.281824 265.6722 
L 126.281824 265.098549 
L 126.50685 265.098549 
L 126.50685 264.524897 
L 127.165014 264.524897 
L 127.272333 262.803942 
L 127.590383 262.803942 
L 127.590383 262.23029 
L 127.799239 262.23029 
L 127.799239 261.656638 
L 128.511146 261.656638 
L 128.511146 260.509335 
L 129.574256 260.509335 
L 129.574256 259.935683 
L 129.760775 259.935683 
L 129.760775 259.362031 
L 129.945319 259.362031 
L 129.945319 257.067425 
L 130.218525 257.067425 
L 130.30865 255.920121 
L 130.487516 255.920121 
L 130.487516 255.346469 
L 130.664567 255.346469 
L 130.664567 253.051863 
L 131.099484 253.051863 
L 131.099484 252.478211 
L 131.60746 252.478211 
L 131.60746 251.330907 
L 132.342714 251.330907 
L 132.342714 250.183604 
L 132.501978 250.183604 
L 132.501978 249.609952 
L 132.73818 249.609952 
L 132.73818 249.036301 
L 132.893889 249.036301 
L 132.971225 247.888997 
L 133.352844 247.888997 
L 133.352844 244.447087 
L 133.652238 244.447087 
L 133.652238 243.299783 
L 133.946579 243.299783 
L 134.019394 242.15248 
L 134.307653 242.15248 
L 134.307653 241.578828 
L 134.7313 241.578828 
L 134.800918 236.989614 
L 136.073445 236.989614 
L 136.073445 235.842311 
L 136.769843 235.842311 
L 136.831795 234.695008 
L 136.955041 234.695008 
L 136.955041 234.121356 
L 137.558536 234.121356 
L 137.558536 233.547704 
L 137.794206 233.547704 
L 137.794206 232.400401 
L 138.141844 232.400401 
L 138.199116 230.105794 
L 138.313099 230.105794 
L 138.313099 229.532142 
L 138.426341 229.532142 
L 138.426341 228.95849 
L 138.872098 228.95849 
L 138.981779 226.663884 
L 139.306744 226.663884 
L 139.360321 223.795625 
L 139.520072 223.795625 
L 139.520072 223.221973 
L 139.783113 223.221973 
L 139.783113 222.648321 
L 140.042245 222.648321 
L 140.144829 219.780063 
L 140.297583 219.780063 
L 140.39868 216.911804 
L 140.44901 216.911804 
L 140.44901 215.764501 
L 140.64889 215.764501 
L 140.698504 213.469894 
L 140.944478 213.469894 
L 141.041904 211.748939 
L 141.090414 211.748939 
L 141.187031 210.601635 
L 141.235139 210.601635 
L 141.33096 208.88068 
L 141.521035 208.88068 
L 141.521035 208.307029 
L 141.80232 208.307029 
L 141.895083 205.43877 
L 141.987354 205.43877 
L 142.07914 202.570511 
L 142.261275 202.570511 
L 142.351634 199.702253 
L 142.486301 199.702253 
L 142.486301 199.128601 
L 142.752555 199.128601 
L 142.840411 196.833994 
L 142.971369 196.833994 
L 143.014805 195.686691 
L 143.101352 195.686691 
L 143.144465 193.965736 
L 143.358447 193.965736 
L 143.40093 192.818432 
L 143.737119 192.818432 
L 143.820164 190.523825 
L 143.861538 190.523825 
L 143.902815 189.376522 
L 143.985075 189.376522 
L 144.06695 187.081915 
L 144.189046 187.081915 
L 144.229555 185.36096 
L 144.310293 185.36096 
L 144.310293 184.213656 
L 144.430703 184.213656 
L 144.470655 183.066353 
L 144.589967 183.066353 
L 144.669057 181.345398 
L 144.747789 181.345398 
L 144.826168 179.624443 
L 144.94308 179.624443 
L 144.981877 178.477139 
L 145.097753 178.477139 
L 145.174578 172.740622 
L 145.212864 172.740622 
L 145.289185 170.446015 
L 145.365173 170.446015 
L 145.440832 168.151408 
L 145.516164 168.151408 
L 145.591172 166.430453 
L 145.628555 166.430453 
L 145.703082 164.709498 
L 145.888018 164.709498 
L 145.998045 161.841239 
L 146.071013 161.841239 
L 146.179895 158.972981 
L 146.216039 158.972981 
L 146.288102 154.383767 
L 146.431341 154.383767 
L 146.431341 153.810115 
L 146.608752 153.810115 
L 146.714338 152.08916 
L 146.749392 152.08916 
L 146.854132 149.794553 
L 146.888907 149.794553 
L 146.923612 148.073598 
L 147.027314 148.073598 
L 147.130404 145.778991 
L 147.232888 145.778991 
L 147.232888 144.631688 
L 147.368603 144.631688 
L 147.402367 143.484384 
L 147.570215 143.484384 
L 147.570215 142.337081 
L 147.736463 142.337081 
L 147.802521 139.468822 
L 147.86833 139.468822 
L 147.901141 137.747867 
L 148.064279 137.747867 
L 148.161434 134.305957 
L 148.225905 134.305957 
L 148.322166 132.01135 
L 148.386046 132.01135 
L 148.417899 130.864047 
L 148.513109 130.864047 
L 148.607802 129.143091 
L 148.639252 129.143091 
L 148.733265 125.701181 
L 148.76449 125.701181 
L 148.857832 123.980226 
L 148.950676 123.980226 
L 149.043029 121.111967 
L 149.104327 121.111967 
L 149.165411 119.391012 
L 149.377533 119.391012 
L 149.407627 118.243709 
L 149.646525 118.243709 
L 149.705742 117.096405 
L 149.882194 117.096405 
L 149.969756 114.801798 
L 150.143571 114.801798 
L 150.143571 114.228147 
L 150.372662 114.228147 
L 150.401087 112.507192 
L 150.486088 112.507192 
L 150.570677 110.212585 
L 150.626842 110.212585 
L 150.682827 108.49163 
L 150.766468 108.49163 
L 150.849711 106.197023 
L 150.904986 106.197023 
L 150.904986 105.049719 
L 151.042412 105.049719 
L 151.124351 102.181461 
L 151.178764 102.181461 
L 151.233007 98.73955 
L 151.367883 98.73955 
L 151.475037 95.29764 
L 151.554972 95.29764 
L 151.554972 94.723988 
L 151.76636 94.723988 
L 151.792604 93.003033 
L 152.001148 93.003033 
L 152.104493 91.282078 
L 152.207228 91.282078 
L 152.283884 90.134775 
L 152.461449 90.134775 
L 152.461449 89.561123 
L 152.662192 89.561123 
L 152.736878 88.413819 
L 152.885298 88.413819 
L 152.959038 86.692864 
L 153.008024 86.692864 
L 153.032466 84.971909 
L 153.703291 84.971909 
L 153.726778 83.824606 
L 154.006185 83.824606 
L 154.006185 83.250954 
L 154.685723 83.250954 
L 154.685723 82.677302 
L 155.102793 82.677302 
L 155.12447 81.529999 
L 155.446436 81.529999 
L 155.446436 80.956347 
L 155.845906 80.956347 
L 155.845906 80.382695 
L 156.337763 80.382695 
L 156.337763 79.809044 
L 156.478647 79.809044 
L 156.478647 79.235392 
L 156.796456 79.235392 
L 156.796456 78.66174 
L 156.953214 78.66174 
L 156.953214 78.088089 
L 157.089232 78.088089 
L 157.089232 76.367133 
L 157.697862 76.367133 
L 157.697862 75.793482 
L 157.846757 75.793482 
L 157.86528 74.072526 
L 158.086033 74.072526 
L 158.195371 72.925223 
L 158.231665 72.925223 
L 158.304027 71.77792 
L 158.39406 71.77792 
L 158.48363 69.483313 
L 158.537152 69.483313 
L 158.590511 67.762358 
L 158.714382 67.762358 
L 158.714382 67.188706 
L 158.924708 67.188706 
L 159.028927 64.320447 
L 159.166924 64.320447 
L 159.166924 63.746796 
L 159.286782 63.746796 
L 159.286782 63.173144 
L 159.658204 63.173144 
L 159.658204 62.02584 
L 159.807898 62.02584 
L 159.807898 60.304885 
L 160.038232 60.304885 
L 160.038232 59.731234 
L 160.458086 59.731234 
L 160.474035 58.58393 
L 160.585265 58.58393 
L 160.585265 58.010278 
L 161.161694 58.010278 
L 161.161694 56.862975 
L 161.329454 56.862975 
L 161.420284 54.568368 
L 164.35912 54.568368 
L 164.35912 53.994716 
L 164.574657 53.994716 
L 164.574657 53.421065 
L 164.997901 53.421065 
L 164.997901 52.847413 
L 165.920069 52.847413 
L 166.001534 51.700109 
L 166.232216 51.700109 
L 166.232216 51.126458 
L 166.357802 51.126458 
L 166.357802 50.552806 
L 166.493781 50.552806 
L 166.550128 49.405503 
L 166.795913 49.405503 
L 166.829163 48.258199 
L 166.972515 48.258199 
L 166.972515 47.684547 
L 167.169078 47.684547 
L 167.169078 47.110896 
L 167.427761 47.110896 
L 167.427761 45.963592 
L 167.703739 45.963592 
L 167.7773 44.242637 
L 170.219663 44.242637 
L 170.219663 43.668985 
L 170.907851 43.668985 
L 170.907851 43.095334 
L 172.215882 43.095334 
L 172.215882 42.521682 
L 172.377733 42.521682 
L 172.385786 41.374379 
L 172.62567 41.374379 
L 172.62567 40.800727 
L 174.043535 40.800727 
L 174.043535 39.653423 
L 175.46306 39.653423 
L 175.46306 39.079772 
L 176.209486 39.079772 
L 176.209486 38.50612 
L 176.593204 38.50612 
L 176.593204 37.932468 
L 177.092038 37.932468 
L 177.092038 37.358817 
L 182.008829 37.358817 
L 182.008829 36.785165 
L 182.47549 36.785165 
L 182.47549 36.211513 
L 187.299532 36.211513 
L 187.299532 35.637861 
L 191.041088 35.637861 
L 191.041088 35.06421 
L 191.579649 35.06421 
L 191.579649 34.490558 
L 191.707742 34.490558 
L 191.707742 33.916906 
L 196.545653 33.916906 
L 196.545653 33.343255 
L 197.373862 33.343255 
L 197.373862 32.769603 
L 202.645925 32.769603 
L 202.645925 32.195951 
L 205.671918 32.195951 
L 205.671918 31.622299 
L 214.096163 31.622299 
L 214.096163 31.048648 
L 216.375258 31.048648 
L 216.375258 30.474996 
L 218.011177 30.474996 
L 218.011177 29.901344 
L 220.572409 29.901344 
L 220.572409 29.327692 
L 338.688 29.327692 
L 338.688 29.327692 
" style="fill:none;stroke:#000080;stroke-linecap:square;stroke-width:1.5;"/>
   </g>
   <g id="line2d_31">
    <defs>
     <path d="M 0 6 
C 1.591219 6 3.117479 5.367802 4.242641 4.242641 
C 5.367802 3.117479 6 1.591219 6 0 
C 6 -1.591219 5.367802 -3.117479 4.242641 -4.242641 
C 3.117479 -5.367802 1.591219 -6 0 -6 
C -1.591219 -6 -3.117479 -5.367802 -4.242641 -4.242641 
C -5.367802 -3.117479 -6 -1.591219 -6 0 
C -6 1.591219 -5.367802 3.117479 -4.242641 4.242641 
C -3.117479 5.367802 -1.591219 6 0 6 
z
" id="m65cdf4d679" style="stroke:#000080;stroke-width:1.5;"/>
    </defs>
    <g>
     <use style="fill-opacity:0;stroke:#000080;stroke-width:1.5;" x="119.43583" xlink:href="#m65cdf4d679" y="280.587145"/>
     <use style="fill-opacity:0;stroke:#000080;stroke-width:1.5;" x="144.747789" xlink:href="#m65cdf4d679" y="180.771746"/>
     <use style="fill-opacity:0;stroke:#000080;stroke-width:1.5;" x="152.001148" xlink:href="#m65cdf4d679" y="93.003033"/>
     <use style="fill-opacity:0;stroke:#000080;stroke-width:1.5;" x="220.572409" xlink:href="#m65cdf4d679" y="29.901344"/>
     <use style="fill-opacity:0;stroke:#000080;stroke-width:1.5;" x="220.572409" xlink:href="#m65cdf4d679" y="29.327692"/>
     <use style="fill-opacity:0;stroke:#000080;stroke-width:1.5;" x="338.688" xlink:href="#m65cdf4d679" y="29.327692"/>
    </g>
   </g>
   <g id="line2d_32">
    <path style="fill:none;stroke:#000080;stroke-linecap:square;stroke-width:1.5;"/>
    <g/>
   </g>
   <g id="line2d_33">
    <path clip-path="url(#p8a9dd21cd0)" d="M 160.664283 58.010278 
" style="fill:none;stroke:#000080;stroke-linecap:square;stroke-width:1.5;"/>
    <defs>
     <path d="M -12 12 
L 12 -12 
M -12 -12 
L 12 12 
" id="me37fec3ed9" style="stroke:#000080;"/>
    </defs>
    <g clip-path="url(#p8a9dd21cd0)">
     <use style="fill:#000080;stroke:#000080;" x="160.664283" xlink:href="#me37fec3ed9" y="58.010278"/>
    </g>
   </g>
   <g id="line2d_34">
    <defs>
     <path d="M 0 1.5 
C 0.397805 1.5 0.77937 1.341951 1.06066 1.06066 
C 1.341951 0.77937 1.5 0.397805 1.5 0 
C 1.5 -0.397805 1.341951 -0.77937 1.06066 -1.06066 
C 0.77937 -1.341951 0.397805 -1.5 0 -1.5 
C -0.397805 -1.5 -0.77937 -1.341951 -1.06066 -1.06066 
C -1.341951 -0.77937 -1.5 -0.397805 -1.5 0 
C -1.5 0.397805 -1.341951 0.77937 -1.06066 1.06066 
C -0.77937 1.341951 -0.397805 1.5 0 1.5 
z
" id="m7ed1d836f0" style="stroke:#ff00ff;"/>
    </defs>
    <g>
     <use style="fill:#ff00ff;stroke:#ff00ff;" x="204.655583" xlink:href="#m7ed1d836f0" y="235.842311"/>
     <use style="fill:#ff00ff;stroke:#ff00ff;" x="204.655583" xlink:href="#m7ed1d836f0" y="235.842311"/>
    </g>
   </g>
   <g id="line2d_35">
    <path d="M 38.440992 298.944 
L 38.440992 289.191921 
L 85.66744 289.191921 
L 85.66744 288.618269 
L 89.78989 288.618269 
L 89.78989 288.044617 
L 112.779064 288.044617 
L 112.779064 283.455404 
L 114.860386 283.455404 
L 114.860386 281.734448 
L 123.327293 281.734448 
L 123.327293 281.160797 
L 129.667765 281.160797 
L 129.667765 280.013493 
L 129.853291 280.013493 
L 129.853291 279.439842 
L 135.747468 279.439842 
L 135.747468 278.86619 
L 138.026733 278.86619 
L 138.026733 275.997931 
L 138.141844 275.997931 
L 138.141844 275.42428 
L 142.215919 275.42428 
L 142.215919 274.850628 
L 145.924771 274.850628 
L 145.924771 273.129673 
L 146.107383 273.129673 
L 146.107383 272.556021 
L 150.87737 272.556021 
L 150.87737 270.261414 
L 151.178764 270.261414 
L 151.178764 269.687762 
L 152.130233 269.687762 
L 152.181601 267.966807 
L 153.105587 267.966807 
L 153.105587 267.393156 
L 153.79705 267.393156 
L 153.79705 266.819504 
L 154.098334 266.819504 
L 154.098334 265.6722 
L 154.796449 265.6722 
L 154.796449 263.377593 
L 155.949527 263.377593 
L 155.970177 261.656638 
L 157.166482 261.656638 
L 157.166482 259.935683 
L 158.322071 259.935683 
L 158.358103 258.78838 
L 159.337899 258.78838 
L 159.337899 257.641076 
L 161.238149 257.641076 
L 161.238149 257.067425 
L 162.360793 257.067425 
L 162.360793 256.493773 
L 162.909996 256.493773 
L 162.909996 255.920121 
L 164.637547 255.920121 
L 164.700211 254.772818 
L 167.902688 254.772818 
L 167.902688 254.199166 
L 168.161052 254.199166 
L 168.161052 253.625514 
L 168.845033 253.625514 
L 168.845033 253.051863 
L 169.906925 253.051863 
L 169.906925 252.478211 
L 170.201421 252.478211 
L 170.201421 251.904559 
L 172.175184 251.904559 
L 172.240256 250.757256 
L 175.684365 250.757256 
L 175.684365 250.183604 
L 176.047078 250.183604 
L 176.151193 249.036301 
L 176.931477 249.036301 
L 176.931477 248.462649 
L 180.381893 248.462649 
L 180.381893 247.888997 
L 180.868789 247.888997 
L 180.91822 246.741694 
L 181.041188 246.741694 
L 181.104791 245.020738 
L 182.064383 245.020738 
L 182.064383 244.447087 
L 184.634063 244.447087 
L 184.634063 243.873435 
L 185.179883 243.873435 
L 185.230068 242.726132 
L 185.973401 242.726132 
L 185.973401 242.15248 
L 188.374897 242.15248 
L 188.439154 241.005176 
L 188.535097 241.005176 
L 188.535097 240.431525 
L 188.907435 240.431525 
L 188.907435 239.857873 
L 189.072119 239.857873 
L 189.072119 239.284221 
L 191.50987 239.284221 
L 191.50987 238.71057 
L 191.94541 238.71057 
L 191.94541 238.136918 
L 193.980509 238.136918 
L 193.980509 237.563266 
L 195.861511 237.563266 
L 195.861511 236.989614 
L 199.454151 236.989614 
L 199.454151 236.415963 
L 204.655583 236.415963 
L 204.655583 235.842311 
L 338.688 235.842311 
L 338.688 235.842311 
" style="fill:none;stroke:#ff00ff;stroke-linecap:square;stroke-width:1.5;"/>
   </g>
   <g id="line2d_36">
    <defs>
     <path d="M -0 8.485281 
L 5.091169 0 
L 0 -8.485281 
L -5.091169 -0 
z
" id="mb2fe6e9d8e" style="stroke:#ff00ff;stroke-linejoin:miter;stroke-width:1.5;"/>
    </defs>
    <g>
     <use style="fill-opacity:0;stroke:#ff00ff;stroke-linejoin:miter;stroke-width:1.5;" x="138.026733" xlink:href="#mb2fe6e9d8e" y="278.86619"/>
     <use style="fill-opacity:0;stroke:#ff00ff;stroke-linejoin:miter;stroke-width:1.5;" x="199.454151" xlink:href="#mb2fe6e9d8e" y="236.989614"/>
     <use style="fill-opacity:0;stroke:#ff00ff;stroke-linejoin:miter;stroke-width:1.5;" x="204.655583" xlink:href="#mb2fe6e9d8e" y="236.415963"/>
     <use style="fill-opacity:0;stroke:#ff00ff;stroke-linejoin:miter;stroke-width:1.5;" x="204.655583" xlink:href="#mb2fe6e9d8e" y="235.842311"/>
     <use style="fill-opacity:0;stroke:#ff00ff;stroke-linejoin:miter;stroke-width:1.5;" x="204.655583" xlink:href="#mb2fe6e9d8e" y="235.842311"/>
     <use style="fill-opacity:0;stroke:#ff00ff;stroke-linejoin:miter;stroke-width:1.5;" x="338.688" xlink:href="#mb2fe6e9d8e" y="235.842311"/>
    </g>
   </g>
   <g id="line2d_37">
    <path style="fill:none;stroke:#ff00ff;stroke-linecap:square;stroke-width:1.5;"/>
    <g/>
   </g>
   <g id="line2d_38">
    <path clip-path="url(#p8a9dd21cd0)" d="M 157.58535 259.935683 
" style="fill:none;stroke:#ff00ff;stroke-linecap:square;stroke-width:1.5;"/>
    <defs>
     <path d="M -12 12 
L 12 -12 
M -12 -12 
L 12 12 
" id="m62cab72753" style="stroke:#ff00ff;"/>
    </defs>
    <g clip-path="url(#p8a9dd21cd0)">
     <use style="fill:#ff00ff;stroke:#ff00ff;" x="157.58535" xlink:href="#m62cab72753" y="259.935683"/>
    </g>
   </g>
   <g id="line2d_39">
    <defs>
     <path d="M 0 1.5 
C 0.397805 1.5 0.77937 1.341951 1.06066 1.06066 
C 1.341951 0.77937 1.5 0.397805 1.5 0 
C 1.5 -0.397805 1.341951 -0.77937 1.06066 -1.06066 
C 0.77937 -1.341951 0.397805 -1.5 0 -1.5 
C -0.397805 -1.5 -0.77937 -1.341951 -1.06066 -1.06066 
C -1.341951 -0.77937 -1.5 -0.397805 -1.5 0 
C -1.5 0.397805 -1.341951 0.77937 -1.06066 1.06066 
C -0.77937 1.341951 -0.397805 1.5 0 1.5 
z
" id="m0a56657b9a" style="stroke:#ffa500;"/>
    </defs>
    <g>
     <use style="fill:#ffa500;stroke:#ffa500;" x="153.609024" xlink:href="#m0a56657b9a" y="6.381624"/>
     <use style="fill:#ffa500;stroke:#ffa500;" x="153.609024" xlink:href="#m0a56657b9a" y="6.381624"/>
    </g>
   </g>
   <g id="line2d_40">
    <path d="M 95.918017 298.944 
L 95.918017 298.370348 
L 98.32726 298.370348 
L 98.32726 297.223045 
L 98.880934 297.223045 
L 98.880934 296.649393 
L 99.41757 296.649393 
L 99.41757 296.075741 
L 99.938184 296.075741 
L 99.938184 294.354786 
L 100.443706 294.354786 
L 100.443706 293.781135 
L 104.033617 293.781135 
L 104.033617 293.207483 
L 104.434538 293.207483 
L 104.434538 292.633831 
L 104.826449 292.633831 
L 104.826449 292.060179 
L 105.209745 292.060179 
L 105.209745 290.339224 
L 107.680028 290.339224 
L 107.680028 289.765573 
L 108.326001 289.765573 
L 108.326001 289.191921 
L 113.965867 289.191921 
L 113.965867 288.618269 
L 116.323218 288.618269 
L 116.323218 288.044617 
L 116.522527 288.044617 
L 116.522527 287.470966 
L 116.719583 287.470966 
L 116.719583 286.897314 
L 116.914437 286.897314 
L 116.914437 286.323662 
L 117.107138 286.323662 
L 117.107138 285.75001 
L 117.297733 285.75001 
L 117.297733 285.176359 
L 117.672786 285.176359 
L 117.672786 284.602707 
L 117.857331 284.602707 
L 117.857331 284.029055 
L 118.039942 284.029055 
L 118.039942 282.3081 
L 118.399528 282.3081 
L 118.399528 281.734448 
L 118.576578 281.734448 
L 118.576578 281.160797 
L 118.751849 281.160797 
L 118.751849 279.439842 
L 118.925375 279.439842 
L 118.925375 278.86619 
L 119.43583 278.86619 
L 119.43583 277.718886 
L 119.768017 277.718886 
L 119.768017 276.571583 
L 119.931767 276.571583 
L 119.931767 274.850628 
L 120.093994 274.850628 
L 120.093994 273.129673 
L 120.254726 273.129673 
L 120.254726 272.556021 
L 120.41399 272.556021 
L 120.41399 271.408718 
L 120.571812 271.408718 
L 120.571812 269.687762 
L 120.728219 269.687762 
L 120.728219 267.393156 
L 121.036887 267.393156 
L 121.036887 266.819504 
L 121.189196 266.819504 
L 121.189196 266.245852 
L 121.489881 266.245852 
L 121.489881 265.6722 
L 121.638301 265.6722 
L 121.638301 264.524897 
L 121.785469 264.524897 
L 121.785469 263.951245 
L 121.931406 263.951245 
L 121.931406 262.803942 
L 122.076131 262.803942 
L 122.076131 262.23029 
L 122.362027 262.23029 
L 122.362027 259.935683 
L 122.643312 259.935683 
L 122.643312 259.362031 
L 122.782271 259.362031 
L 122.782271 258.214728 
L 123.192626 258.214728 
L 123.192626 257.641076 
L 123.327293 257.641076 
L 123.327293 255.346469 
L 123.460928 255.346469 
L 123.460928 253.625514 
L 123.593547 253.625514 
L 123.593547 252.478211 
L 123.725164 252.478211 
L 123.725164 251.904559 
L 123.855796 251.904559 
L 123.855796 251.330907 
L 123.985457 251.330907 
L 123.985457 250.183604 
L 124.114161 250.183604 
L 124.114161 247.315345 
L 124.241922 247.315345 
L 124.241922 245.59439 
L 124.494669 245.59439 
L 124.494669 243.873435 
L 124.743806 243.873435 
L 124.743806 242.15248 
L 124.989434 242.15248 
L 124.989434 241.005176 
L 125.110962 241.005176 
L 125.110962 238.71057 
L 125.23165 238.71057 
L 125.23165 238.136918 
L 125.351508 238.136918 
L 125.351508 236.989614 
L 125.470548 236.989614 
L 125.470548 235.842311 
L 125.706218 235.842311 
L 125.706218 234.695008 
L 126.053856 234.695008 
L 126.053856 234.121356 
L 126.168212 234.121356 
L 126.168212 233.547704 
L 126.281824 233.547704 
L 126.281824 232.974052 
L 126.618283 232.974052 
L 126.618283 232.400401 
L 127.165014 232.400401 
L 127.165014 231.826749 
L 127.378995 231.826749 
L 127.378995 231.253097 
L 128.209594 231.253097 
L 128.310692 230.105794 
L 128.511146 230.105794 
L 128.511146 228.95849 
L 128.709321 228.95849 
L 128.807571 227.811187 
L 128.905271 227.811187 
L 129.002426 226.663884 
L 129.195127 226.663884 
L 129.195127 226.090232 
L 129.385722 226.090232 
L 129.385722 225.51658 
L 129.760775 225.51658 
L 129.760775 224.369277 
L 130.576266 224.369277 
L 130.576266 223.795625 
L 131.270459 223.795625 
L 131.270459 223.221973 
L 131.77355 223.221973 
L 131.856005 220.927366 
L 131.938072 220.927366 
L 131.938072 220.353715 
L 132.262533 220.353715 
L 132.262533 219.206411 
L 132.659801 219.206411 
L 132.659801 218.632759 
L 132.971225 218.632759 
L 133.04822 217.485456 
L 133.277185 217.485456 
L 133.277185 215.764501 
L 133.428175 215.764501 
L 133.428175 215.190849 
L 133.652238 215.190849 
L 133.652238 214.617197 
L 133.800029 214.617197 
L 133.873458 213.469894 
L 133.946579 213.469894 
L 133.946579 212.896242 
L 134.236034 212.896242 
L 134.236034 211.175287 
L 134.37898 211.175287 
L 134.37898 210.601635 
L 134.591225 210.601635 
L 134.591225 210.027984 
L 134.800918 210.027984 
L 134.870259 208.88068 
L 134.939326 208.88068 
L 134.939326 207.733377 
L 135.076644 207.733377 
L 135.076644 206.586073 
L 135.348078 206.586073 
L 135.415281 205.43877 
L 135.482227 205.43877 
L 135.548916 203.144163 
L 135.615352 203.144163 
L 135.681535 201.99686 
L 135.878591 201.99686 
L 135.878591 201.423208 
L 136.008736 201.423208 
L 136.073445 199.702253 
L 136.32991 199.702253 
L 136.393441 197.981298 
L 136.519813 197.981298 
L 136.519813 196.833994 
L 136.707671 196.833994 
L 136.769843 194.539387 
L 136.831795 194.539387 
L 136.831795 193.965736 
L 137.077422 193.965736 
L 137.077422 192.818432 
L 137.198951 192.818432 
L 137.259399 191.097477 
L 137.319638 191.097477 
L 137.319638 188.80287 
L 137.499118 188.80287 
L 137.499118 188.229218 
L 137.910857 188.229218 
L 137.910857 187.081915 
L 138.026733 187.081915 
L 138.084384 185.36096 
L 138.141844 185.36096 
L 138.141844 183.066353 
L 138.369812 183.066353 
L 138.369812 181.91905 
L 138.482688 181.91905 
L 138.482688 181.345398 
L 138.594838 181.345398 
L 138.594838 180.198094 
L 138.816998 180.198094 
L 138.927025 176.182532 
L 138.981779 176.182532 
L 139.090775 173.314274 
L 139.253002 173.314274 
L 139.360321 170.446015 
L 139.413734 170.446015 
L 139.520072 165.856801 
L 139.678372 165.856801 
L 139.783113 162.414891 
L 139.835248 162.414891 
L 139.939053 159.546632 
L 140.042245 159.546632 
L 140.144829 156.104722 
L 140.195896 156.104722 
L 140.297583 154.383767 
L 140.348205 154.383767 
L 140.39868 153.236464 
L 140.599134 153.236464 
L 140.698504 150.941857 
L 140.79731 150.941857 
L 140.89556 148.073598 
L 140.993259 148.073598 
L 141.090414 144.631688 
L 141.283115 144.631688 
L 141.378673 141.763429 
L 141.47371 141.763429 
L 141.568232 137.747867 
L 141.662245 137.747867 
L 141.662245 135.45326 
L 141.848763 135.45326 
L 141.941279 133.158653 
L 141.987354 133.158653 
L 142.07914 130.290395 
L 142.124852 130.290395 
L 142.215919 127.422136 
L 142.261275 127.422136 
L 142.351634 123.406574 
L 142.441528 123.406574 
L 142.53096 119.391012 
L 142.619936 119.391012 
L 142.664255 118.243709 
L 142.752555 118.243709 
L 142.796538 115.37545 
L 142.971369 115.37545 
L 143.014805 111.359888 
L 143.101352 111.359888 
L 143.144465 107.917978 
L 143.273169 107.917978 
L 143.358447 105.623371 
L 143.40093 105.623371 
L 143.485587 101.607809 
L 143.527762 101.607809 
L 143.569835 96.444944 
L 143.653678 96.444944 
L 143.737119 94.723988 
L 143.778691 94.723988 
L 143.861538 92.429381 
L 143.902815 92.429381 
L 143.985075 88.987471 
L 144.026061 88.987471 
L 144.107744 87.266516 
L 144.189046 87.266516 
L 144.269971 84.398257 
L 144.350522 84.398257 
L 144.430703 81.529999 
L 144.470655 81.529999 
L 144.510517 76.940785 
L 144.629556 76.940785 
L 144.708467 74.072526 
L 144.787023 74.072526 
L 144.865226 71.204268 
L 144.981877 71.204268 
L 145.059213 64.894099 
L 145.136208 64.894099 
L 145.136208 62.02584 
L 145.327221 62.02584 
L 145.403044 56.289323 
L 145.440832 56.289323 
L 145.516164 53.421065 
L 145.591172 53.421065 
L 145.665858 49.979154 
L 145.777292 49.979154 
L 145.851187 47.684547 
L 145.961446 47.684547 
L 145.998045 45.389941 
L 146.143677 45.389941 
L 146.252108 41.374379 
L 146.324022 41.374379 
L 146.395642 38.50612 
L 146.608752 38.50612 
L 146.679213 35.637861 
L 146.854132 35.637861 
L 146.958248 33.916906 
L 146.992815 33.916906 
L 147.061745 31.048648 
L 147.198794 31.048648 
L 147.300877 28.180389 
L 147.402367 28.180389 
L 147.50327 25.31213 
L 147.670154 25.31213 
L 147.670154 24.164827 
L 147.999207 24.164827 
L 148.096724 21.87022 
L 148.386046 21.87022 
L 148.386046 20.722917 
L 151.260066 20.722917 
L 151.260066 20.149265 
L 151.60806 20.149265 
L 151.60806 19.575613 
L 151.740076 19.575613 
L 151.740076 19.001962 
L 151.871101 19.001962 
L 151.871101 18.42831 
L 152.078714 18.42831 
L 152.078714 14.412748 
L 152.562109 14.412748 
L 152.612222 12.691793 
L 152.712018 12.691793 
L 152.761703 11.544489 
L 152.860649 11.544489 
L 152.909913 9.823534 
L 153.056874 9.823534 
L 153.154164 8.676231 
L 153.250915 8.676231 
L 153.29909 7.528927 
L 153.395042 7.528927 
L 153.395042 6.955275 
L 153.609024 6.955275 
L 153.609024 6.381624 
L 338.688 6.381624 
L 338.688 6.381624 
" style="fill:none;stroke:#ffa500;stroke-linecap:square;stroke-width:1.5;"/>
   </g>
   <g id="line2d_41">
    <defs>
     <path d="M 0 -6 
L -1.347084 -1.854102 
L -5.706339 -1.854102 
L -2.179628 0.708204 
L -3.526712 4.854102 
L -0 2.291796 
L 3.526712 4.854102 
L 2.179628 0.708204 
L 5.706339 -1.854102 
L 1.347084 -1.854102 
z
" id="ma8bdabbf15" style="stroke:#ffa500;stroke-linejoin:bevel;stroke-width:1.5;"/>
    </defs>
    <g>
     <use style="fill-opacity:0;stroke:#ffa500;stroke-linejoin:bevel;stroke-width:1.5;" x="123.593547" xlink:href="#ma8bdabbf15" y="253.625514"/>
     <use style="fill-opacity:0;stroke:#ffa500;stroke-linejoin:bevel;stroke-width:1.5;" x="148.386046" xlink:href="#ma8bdabbf15" y="20.722917"/>
     <use style="fill-opacity:0;stroke:#ffa500;stroke-linejoin:bevel;stroke-width:1.5;" x="153.609024" xlink:href="#ma8bdabbf15" y="6.381624"/>
     <use style="fill-opacity:0;stroke:#ffa500;stroke-linejoin:bevel;stroke-width:1.5;" x="153.609024" xlink:href="#ma8bdabbf15" y="6.381624"/>
     <use style="fill-opacity:0;stroke:#ffa500;stroke-linejoin:bevel;stroke-width:1.5;" x="338.688" xlink:href="#ma8bdabbf15" y="6.381624"/>
    </g>
   </g>
   <g id="line2d_42">
    <path style="fill:none;stroke:#ffa500;stroke-linecap:square;stroke-width:1.5;"/>
    <g/>
   </g>
   <g id="line2d_43">
    <defs>
     <path d="M 0 1.5 
C 0.397805 1.5 0.77937 1.341951 1.06066 1.06066 
C 1.341951 0.77937 1.5 0.397805 1.5 0 
C 1.5 -0.397805 1.341951 -0.77937 1.06066 -1.06066 
C 0.77937 -1.341951 0.397805 -1.5 0 -1.5 
C -0.397805 -1.5 -0.77937 -1.341951 -1.06066 -1.06066 
C -1.341951 -0.77937 -1.5 -0.397805 -1.5 0 
C -1.5 0.397805 -1.341951 0.77937 -1.06066 1.06066 
C -0.77937 1.341951 -0.397805 1.5 0 1.5 
z
" id="m9d364aae18" style="stroke:#6495ed;"/>
    </defs>
    <g>
     <use style="fill:#6495ed;stroke:#6495ed;" x="139.835248" xlink:href="#m9d364aae18" y="6.381624"/>
     <use style="fill:#6495ed;stroke:#6495ed;" x="139.835248" xlink:href="#m9d364aae18" y="6.381624"/>
    </g>
   </g>
   <g id="line2d_44">
    <path d="M 38.440992 298.944 
L 38.440992 270.261414 
L 95.259853 270.261414 
L 95.259853 269.687762 
L 95.918017 269.687762 
L 95.918017 266.819504 
L 96.552242 266.819504 
L 96.552242 265.6722 
L 97.16421 265.6722 
L 97.16421 265.098549 
L 97.755429 265.098549 
L 97.755429 264.524897 
L 98.32726 264.524897 
L 98.32726 262.23029 
L 98.880934 262.23029 
L 98.880934 259.935683 
L 99.41757 259.935683 
L 99.41757 257.067425 
L 99.938184 257.067425 
L 99.938184 253.051863 
L 100.443706 253.051863 
L 100.443706 251.330907 
L 100.934985 251.330907 
L 100.934985 249.609952 
L 103.203018 249.609952 
L 103.203018 248.462649 
L 109.252198 248.462649 
L 109.252198 247.888997 
L 110.968922 247.888997 
L 110.968922 246.741694 
L 111.239304 246.741694 
L 111.239304 246.168042 
L 111.767808 246.168042 
L 111.767808 245.59439 
L 112.026172 245.59439 
L 112.026172 245.020738 
L 112.280765 245.020738 
L 112.280765 244.447087 
L 112.531694 244.447087 
L 112.531694 242.726132 
L 112.779064 242.726132 
L 112.779064 241.578828 
L 113.022974 241.578828 
L 113.022974 241.005176 
L 113.26352 241.005176 
L 113.26352 239.284221 
L 113.500792 239.284221 
L 113.500792 238.71057 
L 113.73488 238.71057 
L 113.73488 237.563266 
L 113.965867 237.563266 
L 113.965867 236.989614 
L 114.193835 236.989614 
L 114.193835 236.415963 
L 114.641021 236.415963 
L 114.641021 235.268659 
L 114.860386 235.268659 
L 114.860386 234.121356 
L 115.077025 234.121356 
L 115.077025 233.547704 
L 115.291007 233.547704 
L 115.291007 231.826749 
L 115.711251 231.826749 
L 115.711251 231.253097 
L 115.917635 231.253097 
L 115.917635 230.679446 
L 116.323218 230.679446 
L 116.323218 228.95849 
L 116.522527 228.95849 
L 116.522527 228.384839 
L 116.719583 228.384839 
L 116.719583 227.811187 
L 116.914437 227.811187 
L 116.914437 227.237535 
L 117.297733 227.237535 
L 117.297733 226.663884 
L 117.857331 226.663884 
L 117.857331 226.090232 
L 118.039942 226.090232 
L 118.039942 225.51658 
L 118.220662 225.51658 
L 118.220662 224.942928 
L 118.399528 224.942928 
L 118.399528 224.369277 
L 118.751849 224.369277 
L 118.751849 223.795625 
L 119.097192 223.795625 
L 119.097192 223.221973 
L 123.985457 223.221973 
L 123.985457 222.648321 
L 125.351508 222.648321 
L 125.351508 222.07467 
L 127.590383 222.07467 
L 127.590383 221.501018 
L 127.799239 221.501018 
L 127.902737 220.353715 
L 128.005624 220.353715 
L 128.005624 219.780063 
L 128.209594 219.780063 
L 128.209594 219.206411 
L 128.411207 219.206411 
L 128.511146 216.911804 
L 128.610515 216.911804 
L 128.610515 216.338153 
L 128.807571 216.338153 
L 128.905271 214.617197 
L 129.002426 214.617197 
L 129.002426 213.469894 
L 129.290685 213.469894 
L 129.290685 212.896242 
L 129.480244 212.896242 
L 129.574256 211.748939 
L 129.667765 211.748939 
L 129.760775 210.601635 
L 129.945319 210.601635 
L 129.945319 208.307029 
L 130.127931 208.307029 
L 130.127931 207.733377 
L 130.30865 207.733377 
L 130.30865 206.586073 
L 130.487516 206.586073 
L 130.576266 203.717815 
L 130.664567 203.717815 
L 130.752422 202.570511 
L 130.839837 202.570511 
L 130.839837 200.849556 
L 131.013364 200.849556 
L 131.099484 198.554949 
L 131.185181 198.554949 
L 131.270459 196.260342 
L 131.355321 196.260342 
L 131.439773 193.965736 
L 131.60746 193.965736 
L 131.690703 192.24478 
L 131.77355 192.24478 
L 131.856005 189.950174 
L 132.019755 189.950174 
L 132.101058 187.655567 
L 132.181982 187.655567 
L 132.262533 183.066353 
L 132.342714 183.066353 
L 132.422528 181.91905 
L 132.501978 181.91905 
L 132.581068 180.771746 
L 132.659801 180.771746 
L 132.73818 173.887925 
L 132.816208 173.887925 
L 132.893889 170.446015 
L 132.971225 170.446015 
L 133.04822 165.856801 
L 133.124876 165.856801 
L 133.124876 164.135846 
L 133.277185 164.135846 
L 133.352844 162.414891 
L 133.503183 162.414891 
L 133.57787 157.825677 
L 133.652238 157.825677 
L 133.72629 152.08916 
L 133.800029 152.08916 
L 133.873458 147.499946 
L 133.946579 147.499946 
L 134.019394 144.058036 
L 134.091907 144.058036 
L 134.164119 138.895171 
L 134.236034 138.895171 
L 134.307653 136.026912 
L 134.450015 136.026912 
L 134.520763 129.716743 
L 134.591225 129.716743 
L 134.661403 126.274833 
L 134.7313 126.274833 
L 134.7313 122.832923 
L 134.870259 122.832923 
L 134.939326 117.670057 
L 135.00812 117.670057 
L 135.076644 115.949102 
L 135.144899 115.949102 
L 135.212889 110.786236 
L 135.280614 110.786236 
L 135.348078 104.476068 
L 135.415281 104.476068 
L 135.482227 97.592247 
L 135.615352 97.592247 
L 135.681535 91.85573 
L 135.747468 91.85573 
L 135.813153 89.561123 
L 135.878591 89.561123 
L 135.943785 84.971909 
L 136.008736 84.971909 
L 136.073445 81.529999 
L 136.137916 81.529999 
L 136.137916 80.382695 
L 136.266147 80.382695 
L 136.32991 76.367133 
L 136.393441 76.367133 
L 136.456742 72.351571 
L 136.519813 72.351571 
L 136.582658 67.188706 
L 136.645276 67.188706 
L 136.645276 62.02584 
L 136.769843 62.02584 
L 136.831795 59.731234 
L 136.893527 59.731234 
L 136.955041 57.436627 
L 137.016339 57.436627 
L 137.077422 52.847413 
L 137.138292 52.847413 
L 137.198951 49.979154 
L 137.259399 49.979154 
L 137.259399 48.258199 
L 137.37967 48.258199 
L 137.439497 46.537244 
L 137.499118 46.537244 
L 137.499118 43.668985 
L 137.617753 43.668985 
L 137.676769 40.227075 
L 137.735587 40.227075 
L 137.794206 37.358817 
L 137.852629 37.358817 
L 137.910857 32.769603 
L 137.968891 32.769603 
L 138.026733 30.474996 
L 138.084384 30.474996 
L 138.141844 29.327692 
L 138.199116 29.327692 
L 138.256201 25.885782 
L 138.313099 25.885782 
L 138.369812 23.591175 
L 138.482688 23.591175 
L 138.538853 20.149265 
L 138.650644 20.149265 
L 138.761723 16.707355 
L 138.816998 16.707355 
L 138.927025 12.691793 
L 138.981779 12.691793 
L 139.090775 9.249882 
L 139.145019 9.249882 
L 139.253002 8.102579 
L 139.306744 8.102579 
L 139.306744 6.955275 
L 139.835248 6.955275 
L 139.835248 6.381624 
L 338.688 6.381624 
L 338.688 6.381624 
" style="fill:none;stroke:#6495ed;stroke-linecap:square;stroke-width:1.5;"/>
   </g>
   <g id="line2d_45">
    <defs>
     <path d="M -0 6 
L 6 -6 
L -6 -6 
z
" id="m793b36b396" style="stroke:#6495ed;stroke-linejoin:miter;stroke-width:1.5;"/>
    </defs>
    <g>
     <use style="fill-opacity:0;stroke:#6495ed;stroke-linejoin:miter;stroke-width:1.5;" x="112.531694" xlink:href="#m793b36b396" y="244.447087"/>
     <use style="fill-opacity:0;stroke:#6495ed;stroke-linejoin:miter;stroke-width:1.5;" x="135.280614" xlink:href="#m793b36b396" y="107.917978"/>
     <use style="fill-opacity:0;stroke:#6495ed;stroke-linejoin:miter;stroke-width:1.5;" x="139.835248" xlink:href="#m793b36b396" y="6.955275"/>
     <use style="fill-opacity:0;stroke:#6495ed;stroke-linejoin:miter;stroke-width:1.5;" x="139.835248" xlink:href="#m793b36b396" y="6.381624"/>
     <use style="fill-opacity:0;stroke:#6495ed;stroke-linejoin:miter;stroke-width:1.5;" x="139.835248" xlink:href="#m793b36b396" y="6.381624"/>
     <use style="fill-opacity:0;stroke:#6495ed;stroke-linejoin:miter;stroke-width:1.5;" x="338.688" xlink:href="#m793b36b396" y="6.381624"/>
    </g>
   </g>
   <g id="line2d_46">
    <path style="fill:none;stroke:#6495ed;stroke-linecap:square;stroke-width:1.5;"/>
    <g/>
   </g>
   <g id="line2d_47">
    <path d="M 338.688 235.842311 
L 369.60768 293.092752 
" style="fill:none;stroke:#ff00ff;stroke-linecap:square;stroke-width:1.5;"/>
    <g>
     <use style="fill-opacity:0;stroke:#ff00ff;stroke-linejoin:miter;stroke-width:1.5;" x="338.688" xlink:href="#mb2fe6e9d8e" y="235.842311"/>
     <use style="fill-opacity:0;stroke:#ff00ff;stroke-linejoin:miter;stroke-width:1.5;" x="369.60768" xlink:href="#mb2fe6e9d8e" y="293.092752"/>
    </g>
   </g>
   <g id="line2d_48">
    <path d="M 338.688 29.327692 
L 369.60768 199.472792 
" style="fill:none;stroke:#000080;stroke-linecap:square;stroke-width:1.5;"/>
    <g>
     <use style="fill-opacity:0;stroke:#000080;stroke-width:1.5;" x="338.688" xlink:href="#m65cdf4d679" y="29.327692"/>
     <use style="fill-opacity:0;stroke:#000080;stroke-width:1.5;" x="369.60768" xlink:href="#m65cdf4d679" y="199.472792"/>
    </g>
   </g>
   <g id="line2d_49">
    <path d="M 338.688 6.381624 
L 369.60768 105.852832 
" style="fill:none;stroke:#ffa500;stroke-linecap:square;stroke-width:1.5;"/>
    <g>
     <use style="fill-opacity:0;stroke:#ffa500;stroke-linejoin:bevel;stroke-width:1.5;" x="338.688" xlink:href="#ma8bdabbf15" y="6.381624"/>
     <use style="fill-opacity:0;stroke:#ffa500;stroke-linejoin:bevel;stroke-width:1.5;" x="369.60768" xlink:href="#ma8bdabbf15" y="105.852832"/>
    </g>
   </g>
   <g id="line2d_50">
    <path d="M 338.688 6.381624 
L 369.60768 12.232871 
" style="fill:none;stroke:#6495ed;stroke-linecap:square;stroke-width:1.5;"/>
    <g>
     <use style="fill-opacity:0;stroke:#6495ed;stroke-linejoin:miter;stroke-width:1.5;" x="338.688" xlink:href="#m793b36b396" y="6.381624"/>
     <use style="fill-opacity:0;stroke:#6495ed;stroke-linejoin:miter;stroke-width:1.5;" x="369.60768" xlink:href="#m793b36b396" y="12.232871"/>
    </g>
   </g>
   <g id="line2d_51">
    <path d="M 338.688 298.944 
L 338.688 6.381624 
" style="fill:none;stroke:#000000;stroke-linecap:square;stroke-width:1.5;"/>
   </g>
   <g id="patch_3">
    <path d="M 57.6 298.944 
L 57.6 3.456 
" style="fill:none;stroke:#000000;stroke-linecap:square;stroke-linejoin:miter;stroke-width:0.8;"/>
   </g>
   <g id="patch_4">
    <path d="M 338.688 298.944 
L 338.688 3.456 
" style="fill:none;stroke:#000000;stroke-linecap:square;stroke-linejoin:miter;stroke-width:0.8;"/>
   </g>
   <g id="patch_5">
    <path d="M 57.6 298.944 
L 338.688 298.944 
" style="fill:none;stroke:#000000;stroke-linecap:square;stroke-linejoin:miter;stroke-width:0.8;"/>
   </g>
   <g id="patch_6">
    <path d="M 57.6 3.456 
L 338.688 3.456 
" style="fill:none;stroke:#000000;stroke-linecap:square;stroke-linejoin:miter;stroke-width:0.8;"/>
   </g>
   <g id="text_13">
    <!-- f7 -->
    <defs>
     <path d="M 8.203125 72.90625 
L 55.078125 72.90625 
L 55.078125 68.703125 
L 28.609375 0 
L 18.3125 0 
L 43.21875 64.59375 
L 8.203125 64.59375 
z
" id="DejaVuSans-55"/>
    </defs>
    <g transform="translate(375.22944 297.78369)scale(0.17 -0.17)">
     <use xlink:href="#DejaVuSans-102"/>
     <use x="35.205078" xlink:href="#DejaVuSans-55"/>
    </g>
   </g>
   <g id="text_14">
    <!-- f6 -->
    <g transform="translate(375.22944 204.16373)scale(0.17 -0.17)">
     <use xlink:href="#DejaVuSans-102"/>
     <use x="35.205078" xlink:href="#DejaVuSans-54"/>
    </g>
   </g>
   <g id="text_15">
    <!-- f8 -->
    <g transform="translate(375.22944 110.543769)scale(0.17 -0.17)">
     <use xlink:href="#DejaVuSans-102"/>
     <use x="35.205078" xlink:href="#DejaVuSans-56"/>
    </g>
   </g>
   <g id="text_16">
    <!-- f9 -->
    <defs>
     <path d="M 10.984375 1.515625 
L 10.984375 10.5 
Q 14.703125 8.734375 18.5 7.8125 
Q 22.3125 6.890625 25.984375 6.890625 
Q 35.75 6.890625 40.890625 13.453125 
Q 46.046875 20.015625 46.78125 33.40625 
Q 43.953125 29.203125 39.59375 26.953125 
Q 35.25 24.703125 29.984375 24.703125 
Q 19.046875 24.703125 12.671875 31.3125 
Q 6.296875 37.9375 6.296875 49.421875 
Q 6.296875 60.640625 12.9375 67.421875 
Q 19.578125 74.21875 30.609375 74.21875 
Q 43.265625 74.21875 49.921875 64.515625 
Q 56.59375 54.828125 56.59375 36.375 
Q 56.59375 19.140625 48.40625 8.859375 
Q 40.234375 -1.421875 26.421875 -1.421875 
Q 22.703125 -1.421875 18.890625 -0.6875 
Q 15.09375 0.046875 10.984375 1.515625 
z
M 30.609375 32.421875 
Q 37.25 32.421875 41.125 36.953125 
Q 45.015625 41.5 45.015625 49.421875 
Q 45.015625 57.28125 41.125 61.84375 
Q 37.25 66.40625 30.609375 66.40625 
Q 23.96875 66.40625 20.09375 61.84375 
Q 16.21875 57.28125 16.21875 49.421875 
Q 16.21875 41.5 20.09375 36.953125 
Q 23.96875 32.421875 30.609375 32.421875 
z
" id="DejaVuSans-57"/>
    </defs>
    <g transform="translate(375.22944 16.923809)scale(0.17 -0.17)">
     <use xlink:href="#DejaVuSans-102"/>
     <use x="35.205078" xlink:href="#DejaVuSans-57"/>
    </g>
   </g>
   <g id="text_17">
    <!-- bbob -->
    <defs>
     <path d="M 48.6875 27.296875 
Q 48.6875 37.203125 44.609375 42.84375 
Q 40.53125 48.484375 33.40625 48.484375 
Q 26.265625 48.484375 22.1875 42.84375 
Q 18.109375 37.203125 18.109375 27.296875 
Q 18.109375 17.390625 22.1875 11.75 
Q 26.265625 6.109375 33.40625 6.109375 
Q 40.53125 6.109375 44.609375 11.75 
Q 48.6875 17.390625 48.6875 27.296875 
z
M 18.109375 46.390625 
Q 20.953125 51.265625 25.265625 53.625 
Q 29.59375 56 35.59375 56 
Q 45.5625 56 51.78125 48.09375 
Q 58.015625 40.1875 58.015625 27.296875 
Q 58.015625 14.40625 51.78125 6.484375 
Q 45.5625 -1.421875 35.59375 -1.421875 
Q 29.59375 -1.421875 25.265625 0.953125 
Q 20.953125 3.328125 18.109375 8.203125 
L 18.109375 0 
L 9.078125 0 
L 9.078125 75.984375 
L 18.109375 75.984375 
z
" id="DejaVuSans-98"/>
    </defs>
    <g transform="translate(60.41088 14.161286)scale(0.102 -0.102)">
     <use xlink:href="#DejaVuSans-98"/>
     <use x="63.476562" xlink:href="#DejaVuSans-98"/>
     <use x="126.953125" xlink:href="#DejaVuSans-111"/>
     <use x="188.134766" xlink:href="#DejaVuSans-98"/>
    </g>
    <!-- Misc. moderate functions, 3-D -->
    <defs>
     <path d="M 9.8125 72.90625 
L 24.515625 72.90625 
L 43.109375 23.296875 
L 61.8125 72.90625 
L 76.515625 72.90625 
L 76.515625 0 
L 66.890625 0 
L 66.890625 64.015625 
L 48.09375 14.015625 
L 38.1875 14.015625 
L 19.390625 64.015625 
L 19.390625 0 
L 9.8125 0 
z
" id="DejaVuSans-77"/>
     <path d="M 40.578125 39.3125 
Q 47.65625 37.796875 51.625 33 
Q 55.609375 28.21875 55.609375 21.1875 
Q 55.609375 10.40625 48.1875 4.484375 
Q 40.765625 -1.421875 27.09375 -1.421875 
Q 22.515625 -1.421875 17.65625 -0.515625 
Q 12.796875 0.390625 7.625 2.203125 
L 7.625 11.71875 
Q 11.71875 9.328125 16.59375 8.109375 
Q 21.484375 6.890625 26.8125 6.890625 
Q 36.078125 6.890625 40.9375 10.546875 
Q 45.796875 14.203125 45.796875 21.1875 
Q 45.796875 27.640625 41.28125 31.265625 
Q 36.765625 34.90625 28.71875 34.90625 
L 20.21875 34.90625 
L 20.21875 43.015625 
L 29.109375 43.015625 
Q 36.375 43.015625 40.234375 45.921875 
Q 44.09375 48.828125 44.09375 54.296875 
Q 44.09375 59.90625 40.109375 62.90625 
Q 36.140625 65.921875 28.71875 65.921875 
Q 24.65625 65.921875 20.015625 65.03125 
Q 15.375 64.15625 9.8125 62.3125 
L 9.8125 71.09375 
Q 15.4375 72.65625 20.34375 73.4375 
Q 25.25 74.21875 29.59375 74.21875 
Q 40.828125 74.21875 47.359375 69.109375 
Q 53.90625 64.015625 53.90625 55.328125 
Q 53.90625 49.265625 50.4375 45.09375 
Q 46.96875 40.921875 40.578125 39.3125 
z
" id="DejaVuSans-51"/>
     <path d="M 19.671875 64.796875 
L 19.671875 8.109375 
L 31.59375 8.109375 
Q 46.6875 8.109375 53.6875 14.9375 
Q 60.6875 21.78125 60.6875 36.53125 
Q 60.6875 51.171875 53.6875 57.984375 
Q 46.6875 64.796875 31.59375 64.796875 
z
M 9.8125 72.90625 
L 30.078125 72.90625 
Q 51.265625 72.90625 61.171875 64.09375 
Q 71.09375 55.28125 71.09375 36.53125 
Q 71.09375 17.671875 61.125 8.828125 
Q 51.171875 0 30.078125 0 
L 9.8125 0 
z
" id="DejaVuSans-68"/>
    </defs>
    <g transform="translate(60.41088 25.583055)scale(0.102 -0.102)">
     <use xlink:href="#DejaVuSans-77"/>
     <use x="86.279297" xlink:href="#DejaVuSans-105"/>
     <use x="114.0625" xlink:href="#DejaVuSans-115"/>
     <use x="166.162109" xlink:href="#DejaVuSans-99"/>
     <use x="221.142578" xlink:href="#DejaVuSans-46"/>
     <use x="252.929688" xlink:href="#DejaVuSans-32"/>
     <use x="284.716797" xlink:href="#DejaVuSans-109"/>
     <use x="382.128906" xlink:href="#DejaVuSans-111"/>
     <use x="443.310547" xlink:href="#DejaVuSans-100"/>
     <use x="506.787109" xlink:href="#DejaVuSans-101"/>
     <use x="568.310547" xlink:href="#DejaVuSans-114"/>
     <use x="609.423828" xlink:href="#DejaVuSans-97"/>
     <use x="670.703125" xlink:href="#DejaVuSans-116"/>
     <use x="709.912109" xlink:href="#DejaVuSans-101"/>
     <use x="771.435547" xlink:href="#DejaVuSans-32"/>
     <use x="803.222656" xlink:href="#DejaVuSans-102"/>
     <use x="838.427734" xlink:href="#DejaVuSans-117"/>
     <use x="901.806641" xlink:href="#DejaVuSans-110"/>
     <use x="965.185547" xlink:href="#DejaVuSans-99"/>
     <use x="1020.166016" xlink:href="#DejaVuSans-116"/>
     <use x="1059.375" xlink:href="#DejaVuSans-105"/>
     <use x="1087.158203" xlink:href="#DejaVuSans-111"/>
     <use x="1148.339844" xlink:href="#DejaVuSans-110"/>
     <use x="1211.71875" xlink:href="#DejaVuSans-115"/>
     <use x="1263.818359" xlink:href="#DejaVuSans-44"/>
     <use x="1295.605469" xlink:href="#DejaVuSans-32"/>
     <use x="1327.392578" xlink:href="#DejaVuSans-51"/>
     <use x="1391.015625" xlink:href="#DejaVuSans-45"/>
     <use x="1427.099609" xlink:href="#DejaVuSans-68"/>
    </g>
    <!-- 51 targets: 100..1e-08 -->
    <defs>
     <path d="M 10.796875 72.90625 
L 49.515625 72.90625 
L 49.515625 64.59375 
L 19.828125 64.59375 
L 19.828125 46.734375 
Q 21.96875 47.46875 24.109375 47.828125 
Q 26.265625 48.1875 28.421875 48.1875 
Q 40.625 48.1875 47.75 41.5 
Q 54.890625 34.8125 54.890625 23.390625 
Q 54.890625 11.625 47.5625 5.09375 
Q 40.234375 -1.421875 26.90625 -1.421875 
Q 22.3125 -1.421875 17.546875 -0.640625 
Q 12.796875 0.140625 7.71875 1.703125 
L 7.71875 11.625 
Q 12.109375 9.234375 16.796875 8.0625 
Q 21.484375 6.890625 26.703125 6.890625 
Q 35.15625 6.890625 40.078125 11.328125 
Q 45.015625 15.765625 45.015625 23.390625 
Q 45.015625 31 40.078125 35.4375 
Q 35.15625 39.890625 26.703125 39.890625 
Q 22.75 39.890625 18.8125 39.015625 
Q 14.890625 38.140625 10.796875 36.28125 
z
" id="DejaVuSans-53"/>
     <path d="M 11.71875 12.40625 
L 22.015625 12.40625 
L 22.015625 0 
L 11.71875 0 
z
M 11.71875 51.703125 
L 22.015625 51.703125 
L 22.015625 39.3125 
L 11.71875 39.3125 
z
" id="DejaVuSans-58"/>
    </defs>
    <g transform="translate(60.41088 37.004824)scale(0.102 -0.102)">
     <use xlink:href="#DejaVuSans-53"/>
     <use x="63.623047" xlink:href="#DejaVuSans-49"/>
     <use x="127.246094" xlink:href="#DejaVuSans-32"/>
     <use x="159.033203" xlink:href="#DejaVuSans-116"/>
     <use x="198.242188" xlink:href="#DejaVuSans-97"/>
     <use x="259.521484" xlink:href="#DejaVuSans-114"/>
     <use x="298.884766" xlink:href="#DejaVuSans-103"/>
     <use x="362.361328" xlink:href="#DejaVuSans-101"/>
     <use x="423.884766" xlink:href="#DejaVuSans-116"/>
     <use x="463.09375" xlink:href="#DejaVuSans-115"/>
     <use x="515.193359" xlink:href="#DejaVuSans-58"/>
     <use x="548.884766" xlink:href="#DejaVuSans-32"/>
     <use x="580.671875" xlink:href="#DejaVuSans-49"/>
     <use x="644.294922" xlink:href="#DejaVuSans-48"/>
     <use x="707.917969" xlink:href="#DejaVuSans-48"/>
     <use x="771.541016" xlink:href="#DejaVuSans-46"/>
     <use x="803.328125" xlink:href="#DejaVuSans-46"/>
     <use x="835.115234" xlink:href="#DejaVuSans-49"/>
     <use x="898.738281" xlink:href="#DejaVuSans-101"/>
     <use x="960.261719" xlink:href="#DejaVuSans-45"/>
     <use x="996.345703" xlink:href="#DejaVuSans-48"/>
     <use x="1059.96875" xlink:href="#DejaVuSans-56"/>
    </g>
    <!-- 15 instances -->
    <g transform="translate(60.41088 48.426593)scale(0.102 -0.102)">
     <use xlink:href="#DejaVuSans-49"/>
     <use x="63.623047" xlink:href="#DejaVuSans-53"/>
     <use x="127.246094" xlink:href="#DejaVuSans-32"/>
     <use x="159.033203" xlink:href="#DejaVuSans-105"/>
     <use x="186.816406" xlink:href="#DejaVuSans-110"/>
     <use x="250.195312" xlink:href="#DejaVuSans-115"/>
     <use x="302.294922" xlink:href="#DejaVuSans-116"/>
     <use x="341.503906" xlink:href="#DejaVuSans-97"/>
     <use x="402.783203" xlink:href="#DejaVuSans-110"/>
     <use x="466.162109" xlink:href="#DejaVuSans-99"/>
     <use x="521.142578" xlink:href="#DejaVuSans-101"/>
     <use x="582.666016" xlink:href="#DejaVuSans-115"/>
    </g>
   </g>
   <g id="text_18">
    <!-- v2.3.3.5 -->
    <g style="fill:#808080;" transform="translate(177.692437 293.909432)scale(0.1 -0.1)">
     <use xlink:href="#DejaVuSans-118"/>
     <use x="59.179688" xlink:href="#DejaVuSans-50"/>
     <use x="122.802734" xlink:href="#DejaVuSans-46"/>
     <use x="154.589844" xlink:href="#DejaVuSans-51"/>
     <use x="218.212891" xlink:href="#DejaVuSans-46"/>
     <use x="250" xlink:href="#DejaVuSans-51"/>
     <use x="313.623047" xlink:href="#DejaVuSans-46"/>
     <use x="345.410156" xlink:href="#DejaVuSans-53"/>
    </g>
   </g>
  </g>
 </g>
 <defs>
  <clipPath id="p8a9dd21cd0">
   <rect height="295.488" width="281.088" x="57.6" y="3.456"/>
  </clipPath>
 </defs>
</svg>
