<?xml version="1.0" encoding="utf-8" standalone="no"?>
<!DOCTYPE svg PUBLIC "-//W3C//DTD SVG 1.1//EN"
  "http://www.w3.org/Graphics/SVG/1.1/DTD/svg11.dtd">
<!-- Created with matplotlib (https://matplotlib.org/) -->
<svg height="345.6pt" version="1.1" viewBox="0 0 460.8 345.6" width="460.8pt" xmlns="http://www.w3.org/2000/svg" xmlns:xlink="http://www.w3.org/1999/xlink">
 <defs>
  <style type="text/css">
*{stroke-linecap:butt;stroke-linejoin:round;}
  </style>
 </defs>
 <g id="figure_1">
  <g id="patch_1">
   <path d="M 0 345.6 
L 460.8 345.6 
L 460.8 0 
L 0 0 
z
" style="fill:#ffffff;"/>
  </g>
  <g id="axes_1">
   <g id="patch_2">
    <path d="M 57.6 298.944 
L 338.688 298.944 
L 338.688 3.456 
L 57.6 3.456 
z
" style="fill:#ffffff;"/>
   </g>
   <g id="matplotlib.axis_1">
    <g id="xtick_1">
     <g id="line2d_1">
      <path clip-path="url(#p7f0a86057c)" d="M 57.6 298.944 
L 57.6 3.456 
" style="fill:none;stroke:#b0b0b0;stroke-linecap:square;stroke-width:0.8;"/>
     </g>
     <g id="line2d_2">
      <defs>
       <path d="M 0 0 
L 0 3.5 
" id="ma3a9b39b83" style="stroke:#000000;stroke-width:0.8;"/>
      </defs>
      <g>
       <use style="stroke:#000000;stroke-width:0.8;" x="57.6" xlink:href="#ma3a9b39b83" y="298.944"/>
      </g>
     </g>
     <g id="text_1">
      <!-- 0 -->
      <defs>
       <path d="M 31.78125 66.40625 
Q 24.171875 66.40625 20.328125 58.90625 
Q 16.5 51.421875 16.5 36.375 
Q 16.5 21.390625 20.328125 13.890625 
Q 24.171875 6.390625 31.78125 6.390625 
Q 39.453125 6.390625 43.28125 13.890625 
Q 47.125 21.390625 47.125 36.375 
Q 47.125 51.421875 43.28125 58.90625 
Q 39.453125 66.40625 31.78125 66.40625 
z
M 31.78125 74.21875 
Q 44.046875 74.21875 50.515625 64.515625 
Q 56.984375 54.828125 56.984375 36.375 
Q 56.984375 17.96875 50.515625 8.265625 
Q 44.046875 -1.421875 31.78125 -1.421875 
Q 19.53125 -1.421875 13.0625 8.265625 
Q 6.59375 17.96875 6.59375 36.375 
Q 6.59375 54.828125 13.0625 64.515625 
Q 19.53125 74.21875 31.78125 74.21875 
z
" id="DejaVuSans-48"/>
      </defs>
      <g transform="translate(51.2375 321.140875)scale(0.2 -0.2)">
       <use xlink:href="#DejaVuSans-48"/>
      </g>
     </g>
    </g>
    <g id="xtick_2">
     <g id="line2d_3">
      <path clip-path="url(#p7f0a86057c)" d="M 137.910857 298.944 
L 137.910857 3.456 
" style="fill:none;stroke:#b0b0b0;stroke-linecap:square;stroke-width:0.8;"/>
     </g>
     <g id="line2d_4">
      <g>
       <use style="stroke:#000000;stroke-width:0.8;" x="137.910857" xlink:href="#ma3a9b39b83" y="298.944"/>
      </g>
     </g>
     <g id="text_2">
      <!-- 2 -->
      <defs>
       <path d="M 19.1875 8.296875 
L 53.609375 8.296875 
L 53.609375 0 
L 7.328125 0 
L 7.328125 8.296875 
Q 12.9375 14.109375 22.625 23.890625 
Q 32.328125 33.6875 34.8125 36.53125 
Q 39.546875 41.84375 41.421875 45.53125 
Q 43.3125 49.21875 43.3125 52.78125 
Q 43.3125 58.59375 39.234375 62.25 
Q 35.15625 65.921875 28.609375 65.921875 
Q 23.96875 65.921875 18.8125 64.3125 
Q 13.671875 62.703125 7.8125 59.421875 
L 7.8125 69.390625 
Q 13.765625 71.78125 18.9375 73 
Q 24.125 74.21875 28.421875 74.21875 
Q 39.75 74.21875 46.484375 68.546875 
Q 53.21875 62.890625 53.21875 53.421875 
Q 53.21875 48.921875 51.53125 44.890625 
Q 49.859375 40.875 45.40625 35.40625 
Q 44.1875 33.984375 37.640625 27.21875 
Q 31.109375 20.453125 19.1875 8.296875 
z
" id="DejaVuSans-50"/>
      </defs>
      <g transform="translate(131.548357 321.140875)scale(0.2 -0.2)">
       <use xlink:href="#DejaVuSans-50"/>
      </g>
     </g>
    </g>
    <g id="xtick_3">
     <g id="line2d_5">
      <path clip-path="url(#p7f0a86057c)" d="M 218.221714 298.944 
L 218.221714 3.456 
" style="fill:none;stroke:#b0b0b0;stroke-linecap:square;stroke-width:0.8;"/>
     </g>
     <g id="line2d_6">
      <g>
       <use style="stroke:#000000;stroke-width:0.8;" x="218.221714" xlink:href="#ma3a9b39b83" y="298.944"/>
      </g>
     </g>
     <g id="text_3">
      <!-- 4 -->
      <defs>
       <path d="M 37.796875 64.3125 
L 12.890625 25.390625 
L 37.796875 25.390625 
z
M 35.203125 72.90625 
L 47.609375 72.90625 
L 47.609375 25.390625 
L 58.015625 25.390625 
L 58.015625 17.1875 
L 47.609375 17.1875 
L 47.609375 0 
L 37.796875 0 
L 37.796875 17.1875 
L 4.890625 17.1875 
L 4.890625 26.703125 
z
" id="DejaVuSans-52"/>
      </defs>
      <g transform="translate(211.859214 321.140875)scale(0.2 -0.2)">
       <use xlink:href="#DejaVuSans-52"/>
      </g>
     </g>
    </g>
    <g id="xtick_4">
     <g id="line2d_7">
      <path clip-path="url(#p7f0a86057c)" d="M 298.532571 298.944 
L 298.532571 3.456 
" style="fill:none;stroke:#b0b0b0;stroke-linecap:square;stroke-width:0.8;"/>
     </g>
     <g id="line2d_8">
      <g>
       <use style="stroke:#000000;stroke-width:0.8;" x="298.532571" xlink:href="#ma3a9b39b83" y="298.944"/>
      </g>
     </g>
     <g id="text_4">
      <!-- 6 -->
      <defs>
       <path d="M 33.015625 40.375 
Q 26.375 40.375 22.484375 35.828125 
Q 18.609375 31.296875 18.609375 23.390625 
Q 18.609375 15.53125 22.484375 10.953125 
Q 26.375 6.390625 33.015625 6.390625 
Q 39.65625 6.390625 43.53125 10.953125 
Q 47.40625 15.53125 47.40625 23.390625 
Q 47.40625 31.296875 43.53125 35.828125 
Q 39.65625 40.375 33.015625 40.375 
z
M 52.59375 71.296875 
L 52.59375 62.3125 
Q 48.875 64.0625 45.09375 64.984375 
Q 41.3125 65.921875 37.59375 65.921875 
Q 27.828125 65.921875 22.671875 59.328125 
Q 17.53125 52.734375 16.796875 39.40625 
Q 19.671875 43.65625 24.015625 45.921875 
Q 28.375 48.1875 33.59375 48.1875 
Q 44.578125 48.1875 50.953125 41.515625 
Q 57.328125 34.859375 57.328125 23.390625 
Q 57.328125 12.15625 50.6875 5.359375 
Q 44.046875 -1.421875 33.015625 -1.421875 
Q 20.359375 -1.421875 13.671875 8.265625 
Q 6.984375 17.96875 6.984375 36.375 
Q 6.984375 53.65625 15.1875 63.9375 
Q 23.390625 74.21875 37.203125 74.21875 
Q 40.921875 74.21875 44.703125 73.484375 
Q 48.484375 72.75 52.59375 71.296875 
z
" id="DejaVuSans-54"/>
      </defs>
      <g transform="translate(292.170071 321.140875)scale(0.2 -0.2)">
       <use xlink:href="#DejaVuSans-54"/>
      </g>
     </g>
    </g>
    <g id="xtick_5">
     <g id="line2d_9">
      <path clip-path="url(#p7f0a86057c)" d="M 97.755429 298.944 
L 97.755429 3.456 
" style="fill:none;stroke:#b0b0b0;stroke-linecap:square;stroke-width:0.8;"/>
     </g>
     <g id="line2d_10">
      <defs>
       <path d="M 0 0 
L 0 2 
" id="m834757eb23" style="stroke:#000000;stroke-width:0.6;"/>
      </defs>
      <g>
       <use style="stroke:#000000;stroke-width:0.6;" x="97.755429" xlink:href="#m834757eb23" y="298.944"/>
      </g>
     </g>
    </g>
    <g id="xtick_6">
     <g id="line2d_11">
      <path clip-path="url(#p7f0a86057c)" d="M 178.066286 298.944 
L 178.066286 3.456 
" style="fill:none;stroke:#b0b0b0;stroke-linecap:square;stroke-width:0.8;"/>
     </g>
     <g id="line2d_12">
      <g>
       <use style="stroke:#000000;stroke-width:0.6;" x="178.066286" xlink:href="#m834757eb23" y="298.944"/>
      </g>
     </g>
    </g>
    <g id="xtick_7">
     <g id="line2d_13">
      <path clip-path="url(#p7f0a86057c)" d="M 258.377143 298.944 
L 258.377143 3.456 
" style="fill:none;stroke:#b0b0b0;stroke-linecap:square;stroke-width:0.8;"/>
     </g>
     <g id="line2d_14">
      <g>
       <use style="stroke:#000000;stroke-width:0.6;" x="258.377143" xlink:href="#m834757eb23" y="298.944"/>
      </g>
     </g>
    </g>
    <g id="xtick_8">
     <g id="line2d_15">
      <path clip-path="url(#p7f0a86057c)" d="M 338.688 298.944 
L 338.688 3.456 
" style="fill:none;stroke:#b0b0b0;stroke-linecap:square;stroke-width:0.8;"/>
     </g>
     <g id="line2d_16">
      <g>
       <use style="stroke:#000000;stroke-width:0.6;" x="338.688" xlink:href="#m834757eb23" y="298.944"/>
      </g>
     </g>
    </g>
    <g id="text_5">
     <!-- log10(# f-evals / dimension) -->
     <defs>
      <path d="M 9.421875 75.984375 
L 18.40625 75.984375 
L 18.40625 0 
L 9.421875 0 
z
" id="DejaVuSans-108"/>
      <path d="M 30.609375 48.390625 
Q 23.390625 48.390625 19.1875 42.75 
Q 14.984375 37.109375 14.984375 27.296875 
Q 14.984375 17.484375 19.15625 11.84375 
Q 23.34375 6.203125 30.609375 6.203125 
Q 37.796875 6.203125 41.984375 11.859375 
Q 46.1875 17.53125 46.1875 27.296875 
Q 46.1875 37.015625 41.984375 42.703125 
Q 37.796875 48.390625 30.609375 48.390625 
z
M 30.609375 56 
Q 42.328125 56 49.015625 48.375 
Q 55.71875 40.765625 55.71875 27.296875 
Q 55.71875 13.875 49.015625 6.21875 
Q 42.328125 -1.421875 30.609375 -1.421875 
Q 18.84375 -1.421875 12.171875 6.21875 
Q 5.515625 13.875 5.515625 27.296875 
Q 5.515625 40.765625 12.171875 48.375 
Q 18.84375 56 30.609375 56 
z
" id="DejaVuSans-111"/>
      <path d="M 45.40625 27.984375 
Q 45.40625 37.75 41.375 43.109375 
Q 37.359375 48.484375 30.078125 48.484375 
Q 22.859375 48.484375 18.828125 43.109375 
Q 14.796875 37.75 14.796875 27.984375 
Q 14.796875 18.265625 18.828125 12.890625 
Q 22.859375 7.515625 30.078125 7.515625 
Q 37.359375 7.515625 41.375 12.890625 
Q 45.40625 18.265625 45.40625 27.984375 
z
M 54.390625 6.78125 
Q 54.390625 -7.171875 48.1875 -13.984375 
Q 42 -20.796875 29.203125 -20.796875 
Q 24.46875 -20.796875 20.265625 -20.09375 
Q 16.0625 -19.390625 12.109375 -17.921875 
L 12.109375 -9.1875 
Q 16.0625 -11.328125 19.921875 -12.34375 
Q 23.78125 -13.375 27.78125 -13.375 
Q 36.625 -13.375 41.015625 -8.765625 
Q 45.40625 -4.15625 45.40625 5.171875 
L 45.40625 9.625 
Q 42.625 4.78125 38.28125 2.390625 
Q 33.9375 0 27.875 0 
Q 17.828125 0 11.671875 7.65625 
Q 5.515625 15.328125 5.515625 27.984375 
Q 5.515625 40.671875 11.671875 48.328125 
Q 17.828125 56 27.875 56 
Q 33.9375 56 38.28125 53.609375 
Q 42.625 51.21875 45.40625 46.390625 
L 45.40625 54.6875 
L 54.390625 54.6875 
z
" id="DejaVuSans-103"/>
      <path d="M 12.40625 8.296875 
L 28.515625 8.296875 
L 28.515625 63.921875 
L 10.984375 60.40625 
L 10.984375 69.390625 
L 28.421875 72.90625 
L 38.28125 72.90625 
L 38.28125 8.296875 
L 54.390625 8.296875 
L 54.390625 0 
L 12.40625 0 
z
" id="DejaVuSans-49"/>
      <path d="M 31 75.875 
Q 24.46875 64.65625 21.28125 53.65625 
Q 18.109375 42.671875 18.109375 31.390625 
Q 18.109375 20.125 21.3125 9.0625 
Q 24.515625 -2 31 -13.1875 
L 23.1875 -13.1875 
Q 15.875 -1.703125 12.234375 9.375 
Q 8.59375 20.453125 8.59375 31.390625 
Q 8.59375 42.28125 12.203125 53.3125 
Q 15.828125 64.359375 23.1875 75.875 
z
" id="DejaVuSans-40"/>
      <path d="M 51.125 44 
L 36.921875 44 
L 32.8125 27.6875 
L 47.125 27.6875 
z
M 43.796875 71.78125 
L 38.71875 51.515625 
L 52.984375 51.515625 
L 58.109375 71.78125 
L 65.921875 71.78125 
L 60.890625 51.515625 
L 76.125 51.515625 
L 76.125 44 
L 58.984375 44 
L 54.984375 27.6875 
L 70.515625 27.6875 
L 70.515625 20.21875 
L 53.078125 20.21875 
L 48 0 
L 40.1875 0 
L 45.21875 20.21875 
L 30.90625 20.21875 
L 25.875 0 
L 18.015625 0 
L 23.09375 20.21875 
L 7.71875 20.21875 
L 7.71875 27.6875 
L 24.90625 27.6875 
L 29 44 
L 13.28125 44 
L 13.28125 51.515625 
L 30.90625 51.515625 
L 35.890625 71.78125 
z
" id="DejaVuSans-35"/>
      <path id="DejaVuSans-32"/>
      <path d="M 37.109375 75.984375 
L 37.109375 68.5 
L 28.515625 68.5 
Q 23.6875 68.5 21.796875 66.546875 
Q 19.921875 64.59375 19.921875 59.515625 
L 19.921875 54.6875 
L 34.71875 54.6875 
L 34.71875 47.703125 
L 19.921875 47.703125 
L 19.921875 0 
L 10.890625 0 
L 10.890625 47.703125 
L 2.296875 47.703125 
L 2.296875 54.6875 
L 10.890625 54.6875 
L 10.890625 58.5 
Q 10.890625 67.625 15.140625 71.796875 
Q 19.390625 75.984375 28.609375 75.984375 
z
" id="DejaVuSans-102"/>
      <path d="M 4.890625 31.390625 
L 31.203125 31.390625 
L 31.203125 23.390625 
L 4.890625 23.390625 
z
" id="DejaVuSans-45"/>
      <path d="M 56.203125 29.59375 
L 56.203125 25.203125 
L 14.890625 25.203125 
Q 15.484375 15.921875 20.484375 11.0625 
Q 25.484375 6.203125 34.421875 6.203125 
Q 39.59375 6.203125 44.453125 7.46875 
Q 49.3125 8.734375 54.109375 11.28125 
L 54.109375 2.78125 
Q 49.265625 0.734375 44.1875 -0.34375 
Q 39.109375 -1.421875 33.890625 -1.421875 
Q 20.796875 -1.421875 13.15625 6.1875 
Q 5.515625 13.8125 5.515625 26.8125 
Q 5.515625 40.234375 12.765625 48.109375 
Q 20.015625 56 32.328125 56 
Q 43.359375 56 49.78125 48.890625 
Q 56.203125 41.796875 56.203125 29.59375 
z
M 47.21875 32.234375 
Q 47.125 39.59375 43.09375 43.984375 
Q 39.0625 48.390625 32.421875 48.390625 
Q 24.90625 48.390625 20.390625 44.140625 
Q 15.875 39.890625 15.1875 32.171875 
z
" id="DejaVuSans-101"/>
      <path d="M 2.984375 54.6875 
L 12.5 54.6875 
L 29.59375 8.796875 
L 46.6875 54.6875 
L 56.203125 54.6875 
L 35.6875 0 
L 23.484375 0 
z
" id="DejaVuSans-118"/>
      <path d="M 34.28125 27.484375 
Q 23.390625 27.484375 19.1875 25 
Q 14.984375 22.515625 14.984375 16.5 
Q 14.984375 11.71875 18.140625 8.90625 
Q 21.296875 6.109375 26.703125 6.109375 
Q 34.1875 6.109375 38.703125 11.40625 
Q 43.21875 16.703125 43.21875 25.484375 
L 43.21875 27.484375 
z
M 52.203125 31.203125 
L 52.203125 0 
L 43.21875 0 
L 43.21875 8.296875 
Q 40.140625 3.328125 35.546875 0.953125 
Q 30.953125 -1.421875 24.3125 -1.421875 
Q 15.921875 -1.421875 10.953125 3.296875 
Q 6 8.015625 6 15.921875 
Q 6 25.140625 12.171875 29.828125 
Q 18.359375 34.515625 30.609375 34.515625 
L 43.21875 34.515625 
L 43.21875 35.40625 
Q 43.21875 41.609375 39.140625 45 
Q 35.0625 48.390625 27.6875 48.390625 
Q 23 48.390625 18.546875 47.265625 
Q 14.109375 46.140625 10.015625 43.890625 
L 10.015625 52.203125 
Q 14.9375 54.109375 19.578125 55.046875 
Q 24.21875 56 28.609375 56 
Q 40.484375 56 46.34375 49.84375 
Q 52.203125 43.703125 52.203125 31.203125 
z
" id="DejaVuSans-97"/>
      <path d="M 44.28125 53.078125 
L 44.28125 44.578125 
Q 40.484375 46.53125 36.375 47.5 
Q 32.28125 48.484375 27.875 48.484375 
Q 21.1875 48.484375 17.84375 46.4375 
Q 14.5 44.390625 14.5 40.28125 
Q 14.5 37.15625 16.890625 35.375 
Q 19.28125 33.59375 26.515625 31.984375 
L 29.59375 31.296875 
Q 39.15625 29.25 43.1875 25.515625 
Q 47.21875 21.78125 47.21875 15.09375 
Q 47.21875 7.46875 41.1875 3.015625 
Q 35.15625 -1.421875 24.609375 -1.421875 
Q 20.21875 -1.421875 15.453125 -0.5625 
Q 10.6875 0.296875 5.421875 2 
L 5.421875 11.28125 
Q 10.40625 8.6875 15.234375 7.390625 
Q 20.0625 6.109375 24.8125 6.109375 
Q 31.15625 6.109375 34.5625 8.28125 
Q 37.984375 10.453125 37.984375 14.40625 
Q 37.984375 18.0625 35.515625 20.015625 
Q 33.0625 21.96875 24.703125 23.78125 
L 21.578125 24.515625 
Q 13.234375 26.265625 9.515625 29.90625 
Q 5.8125 33.546875 5.8125 39.890625 
Q 5.8125 47.609375 11.28125 51.796875 
Q 16.75 56 26.8125 56 
Q 31.78125 56 36.171875 55.265625 
Q 40.578125 54.546875 44.28125 53.078125 
z
" id="DejaVuSans-115"/>
      <path d="M 25.390625 72.90625 
L 33.6875 72.90625 
L 8.296875 -9.28125 
L 0 -9.28125 
z
" id="DejaVuSans-47"/>
      <path d="M 45.40625 46.390625 
L 45.40625 75.984375 
L 54.390625 75.984375 
L 54.390625 0 
L 45.40625 0 
L 45.40625 8.203125 
Q 42.578125 3.328125 38.25 0.953125 
Q 33.9375 -1.421875 27.875 -1.421875 
Q 17.96875 -1.421875 11.734375 6.484375 
Q 5.515625 14.40625 5.515625 27.296875 
Q 5.515625 40.1875 11.734375 48.09375 
Q 17.96875 56 27.875 56 
Q 33.9375 56 38.25 53.625 
Q 42.578125 51.265625 45.40625 46.390625 
z
M 14.796875 27.296875 
Q 14.796875 17.390625 18.875 11.75 
Q 22.953125 6.109375 30.078125 6.109375 
Q 37.203125 6.109375 41.296875 11.75 
Q 45.40625 17.390625 45.40625 27.296875 
Q 45.40625 37.203125 41.296875 42.84375 
Q 37.203125 48.484375 30.078125 48.484375 
Q 22.953125 48.484375 18.875 42.84375 
Q 14.796875 37.203125 14.796875 27.296875 
z
" id="DejaVuSans-100"/>
      <path d="M 9.421875 54.6875 
L 18.40625 54.6875 
L 18.40625 0 
L 9.421875 0 
z
M 9.421875 75.984375 
L 18.40625 75.984375 
L 18.40625 64.59375 
L 9.421875 64.59375 
z
" id="DejaVuSans-105"/>
      <path d="M 52 44.1875 
Q 55.375 50.25 60.0625 53.125 
Q 64.75 56 71.09375 56 
Q 79.640625 56 84.28125 50.015625 
Q 88.921875 44.046875 88.921875 33.015625 
L 88.921875 0 
L 79.890625 0 
L 79.890625 32.71875 
Q 79.890625 40.578125 77.09375 44.375 
Q 74.3125 48.1875 68.609375 48.1875 
Q 61.625 48.1875 57.5625 43.546875 
Q 53.515625 38.921875 53.515625 30.90625 
L 53.515625 0 
L 44.484375 0 
L 44.484375 32.71875 
Q 44.484375 40.625 41.703125 44.40625 
Q 38.921875 48.1875 33.109375 48.1875 
Q 26.21875 48.1875 22.15625 43.53125 
Q 18.109375 38.875 18.109375 30.90625 
L 18.109375 0 
L 9.078125 0 
L 9.078125 54.6875 
L 18.109375 54.6875 
L 18.109375 46.1875 
Q 21.1875 51.21875 25.484375 53.609375 
Q 29.78125 56 35.6875 56 
Q 41.65625 56 45.828125 52.96875 
Q 50 49.953125 52 44.1875 
z
" id="DejaVuSans-109"/>
      <path d="M 54.890625 33.015625 
L 54.890625 0 
L 45.90625 0 
L 45.90625 32.71875 
Q 45.90625 40.484375 42.875 44.328125 
Q 39.84375 48.1875 33.796875 48.1875 
Q 26.515625 48.1875 22.3125 43.546875 
Q 18.109375 38.921875 18.109375 30.90625 
L 18.109375 0 
L 9.078125 0 
L 9.078125 54.6875 
L 18.109375 54.6875 
L 18.109375 46.1875 
Q 21.34375 51.125 25.703125 53.5625 
Q 30.078125 56 35.796875 56 
Q 45.21875 56 50.046875 50.171875 
Q 54.890625 44.34375 54.890625 33.015625 
z
" id="DejaVuSans-110"/>
      <path d="M 8.015625 75.875 
L 15.828125 75.875 
Q 23.140625 64.359375 26.78125 53.3125 
Q 30.421875 42.28125 30.421875 31.390625 
Q 30.421875 20.453125 26.78125 9.375 
Q 23.140625 -1.703125 15.828125 -13.1875 
L 8.015625 -13.1875 
Q 14.5 -2 17.703125 9.0625 
Q 20.90625 20.125 20.90625 31.390625 
Q 20.90625 42.671875 17.703125 53.65625 
Q 14.5 64.65625 8.015625 75.875 
z
" id="DejaVuSans-41"/>
     </defs>
     <g transform="translate(77.764078 342.217594)scale(0.17 -0.17)">
      <use xlink:href="#DejaVuSans-108"/>
      <use x="27.783203" xlink:href="#DejaVuSans-111"/>
      <use x="88.964844" xlink:href="#DejaVuSans-103"/>
      <use x="152.441406" xlink:href="#DejaVuSans-49"/>
      <use x="216.064453" xlink:href="#DejaVuSans-48"/>
      <use x="279.6875" xlink:href="#DejaVuSans-40"/>
      <use x="318.701172" xlink:href="#DejaVuSans-35"/>
      <use x="402.490234" xlink:href="#DejaVuSans-32"/>
      <use x="434.277344" xlink:href="#DejaVuSans-102"/>
      <use x="463.982422" xlink:href="#DejaVuSans-45"/>
      <use x="500.066406" xlink:href="#DejaVuSans-101"/>
      <use x="561.589844" xlink:href="#DejaVuSans-118"/>
      <use x="620.769531" xlink:href="#DejaVuSans-97"/>
      <use x="682.048828" xlink:href="#DejaVuSans-108"/>
      <use x="709.832031" xlink:href="#DejaVuSans-115"/>
      <use x="761.931641" xlink:href="#DejaVuSans-32"/>
      <use x="793.71875" xlink:href="#DejaVuSans-47"/>
      <use x="827.410156" xlink:href="#DejaVuSans-32"/>
      <use x="859.197266" xlink:href="#DejaVuSans-100"/>
      <use x="922.673828" xlink:href="#DejaVuSans-105"/>
      <use x="950.457031" xlink:href="#DejaVuSans-109"/>
      <use x="1047.869141" xlink:href="#DejaVuSans-101"/>
      <use x="1109.392578" xlink:href="#DejaVuSans-110"/>
      <use x="1172.771484" xlink:href="#DejaVuSans-115"/>
      <use x="1224.871094" xlink:href="#DejaVuSans-105"/>
      <use x="1252.654297" xlink:href="#DejaVuSans-111"/>
      <use x="1313.835938" xlink:href="#DejaVuSans-110"/>
      <use x="1377.214844" xlink:href="#DejaVuSans-41"/>
     </g>
    </g>
   </g>
   <g id="matplotlib.axis_2">
    <g id="ytick_1">
     <g id="line2d_17">
      <path clip-path="url(#p7f0a86057c)" d="M 57.6 298.944 
L 338.688 298.944 
" style="fill:none;stroke:#b0b0b0;stroke-linecap:square;stroke-width:0.8;"/>
     </g>
     <g id="line2d_18">
      <defs>
       <path d="M 0 0 
L -3.5 0 
" id="mb379b44246" style="stroke:#000000;stroke-width:0.8;"/>
      </defs>
      <g>
       <use style="stroke:#000000;stroke-width:0.8;" x="57.6" xlink:href="#mb379b44246" y="298.944"/>
      </g>
     </g>
     <g id="text_6">
      <!-- 0.0 -->
      <defs>
       <path d="M 10.6875 12.40625 
L 21 12.40625 
L 21 0 
L 10.6875 0 
z
" id="DejaVuSans-46"/>
      </defs>
      <g transform="translate(25.155 305.02275)scale(0.16 -0.16)">
       <use xlink:href="#DejaVuSans-48"/>
       <use x="63.623047" xlink:href="#DejaVuSans-46"/>
       <use x="95.410156" xlink:href="#DejaVuSans-48"/>
      </g>
     </g>
    </g>
    <g id="ytick_2">
     <g id="line2d_19">
      <path clip-path="url(#p7f0a86057c)" d="M 57.6 240.431525 
L 338.688 240.431525 
" style="fill:none;stroke:#b0b0b0;stroke-linecap:square;stroke-width:0.8;"/>
     </g>
     <g id="line2d_20">
      <g>
       <use style="stroke:#000000;stroke-width:0.8;" x="57.6" xlink:href="#mb379b44246" y="240.431525"/>
      </g>
     </g>
     <g id="text_7">
      <!-- 0.2 -->
      <g transform="translate(25.155 246.510275)scale(0.16 -0.16)">
       <use xlink:href="#DejaVuSans-48"/>
       <use x="63.623047" xlink:href="#DejaVuSans-46"/>
       <use x="95.410156" xlink:href="#DejaVuSans-50"/>
      </g>
     </g>
    </g>
    <g id="ytick_3">
     <g id="line2d_21">
      <path clip-path="url(#p7f0a86057c)" d="M 57.6 181.91905 
L 338.688 181.91905 
" style="fill:none;stroke:#b0b0b0;stroke-linecap:square;stroke-width:0.8;"/>
     </g>
     <g id="line2d_22">
      <g>
       <use style="stroke:#000000;stroke-width:0.8;" x="57.6" xlink:href="#mb379b44246" y="181.91905"/>
      </g>
     </g>
     <g id="text_8">
      <!-- 0.4 -->
      <g transform="translate(25.155 187.9978)scale(0.16 -0.16)">
       <use xlink:href="#DejaVuSans-48"/>
       <use x="63.623047" xlink:href="#DejaVuSans-46"/>
       <use x="95.410156" xlink:href="#DejaVuSans-52"/>
      </g>
     </g>
    </g>
    <g id="ytick_4">
     <g id="line2d_23">
      <path clip-path="url(#p7f0a86057c)" d="M 57.6 123.406574 
L 338.688 123.406574 
" style="fill:none;stroke:#b0b0b0;stroke-linecap:square;stroke-width:0.8;"/>
     </g>
     <g id="line2d_24">
      <g>
       <use style="stroke:#000000;stroke-width:0.8;" x="57.6" xlink:href="#mb379b44246" y="123.406574"/>
      </g>
     </g>
     <g id="text_9">
      <!-- 0.6 -->
      <g transform="translate(25.155 129.485324)scale(0.16 -0.16)">
       <use xlink:href="#DejaVuSans-48"/>
       <use x="63.623047" xlink:href="#DejaVuSans-46"/>
       <use x="95.410156" xlink:href="#DejaVuSans-54"/>
      </g>
     </g>
    </g>
    <g id="ytick_5">
     <g id="line2d_25">
      <path clip-path="url(#p7f0a86057c)" d="M 57.6 64.894099 
L 338.688 64.894099 
" style="fill:none;stroke:#b0b0b0;stroke-linecap:square;stroke-width:0.8;"/>
     </g>
     <g id="line2d_26">
      <g>
       <use style="stroke:#000000;stroke-width:0.8;" x="57.6" xlink:href="#mb379b44246" y="64.894099"/>
      </g>
     </g>
     <g id="text_10">
      <!-- 0.8 -->
      <defs>
       <path d="M 31.78125 34.625 
Q 24.75 34.625 20.71875 30.859375 
Q 16.703125 27.09375 16.703125 20.515625 
Q 16.703125 13.921875 20.71875 10.15625 
Q 24.75 6.390625 31.78125 6.390625 
Q 38.8125 6.390625 42.859375 10.171875 
Q 46.921875 13.96875 46.921875 20.515625 
Q 46.921875 27.09375 42.890625 30.859375 
Q 38.875 34.625 31.78125 34.625 
z
M 21.921875 38.8125 
Q 15.578125 40.375 12.03125 44.71875 
Q 8.5 49.078125 8.5 55.328125 
Q 8.5 64.0625 14.71875 69.140625 
Q 20.953125 74.21875 31.78125 74.21875 
Q 42.671875 74.21875 48.875 69.140625 
Q 55.078125 64.0625 55.078125 55.328125 
Q 55.078125 49.078125 51.53125 44.71875 
Q 48 40.375 41.703125 38.8125 
Q 48.828125 37.15625 52.796875 32.3125 
Q 56.78125 27.484375 56.78125 20.515625 
Q 56.78125 9.90625 50.3125 4.234375 
Q 43.84375 -1.421875 31.78125 -1.421875 
Q 19.734375 -1.421875 13.25 4.234375 
Q 6.78125 9.90625 6.78125 20.515625 
Q 6.78125 27.484375 10.78125 32.3125 
Q 14.796875 37.15625 21.921875 38.8125 
z
M 18.3125 54.390625 
Q 18.3125 48.734375 21.84375 45.5625 
Q 25.390625 42.390625 31.78125 42.390625 
Q 38.140625 42.390625 41.71875 45.5625 
Q 45.3125 48.734375 45.3125 54.390625 
Q 45.3125 60.0625 41.71875 63.234375 
Q 38.140625 66.40625 31.78125 66.40625 
Q 25.390625 66.40625 21.84375 63.234375 
Q 18.3125 60.0625 18.3125 54.390625 
z
" id="DejaVuSans-56"/>
      </defs>
      <g transform="translate(25.155 70.972849)scale(0.16 -0.16)">
       <use xlink:href="#DejaVuSans-48"/>
       <use x="63.623047" xlink:href="#DejaVuSans-46"/>
       <use x="95.410156" xlink:href="#DejaVuSans-56"/>
      </g>
     </g>
    </g>
    <g id="ytick_6">
     <g id="line2d_27">
      <path clip-path="url(#p7f0a86057c)" d="M 57.6 6.381624 
L 338.688 6.381624 
" style="fill:none;stroke:#b0b0b0;stroke-linecap:square;stroke-width:0.8;"/>
     </g>
     <g id="line2d_28">
      <g>
       <use style="stroke:#000000;stroke-width:0.8;" x="57.6" xlink:href="#mb379b44246" y="6.381624"/>
      </g>
     </g>
     <g id="text_11">
      <!-- 1.0 -->
      <g transform="translate(25.155 12.460374)scale(0.16 -0.16)">
       <use xlink:href="#DejaVuSans-49"/>
       <use x="63.623047" xlink:href="#DejaVuSans-46"/>
       <use x="95.410156" xlink:href="#DejaVuSans-48"/>
      </g>
     </g>
    </g>
    <g id="text_12">
     <!-- Fraction of function,target pairs -->
     <defs>
      <path d="M 9.8125 72.90625 
L 51.703125 72.90625 
L 51.703125 64.59375 
L 19.671875 64.59375 
L 19.671875 43.109375 
L 48.578125 43.109375 
L 48.578125 34.8125 
L 19.671875 34.8125 
L 19.671875 0 
L 9.8125 0 
z
" id="DejaVuSans-70"/>
      <path d="M 41.109375 46.296875 
Q 39.59375 47.171875 37.8125 47.578125 
Q 36.03125 48 33.890625 48 
Q 26.265625 48 22.1875 43.046875 
Q 18.109375 38.09375 18.109375 28.8125 
L 18.109375 0 
L 9.078125 0 
L 9.078125 54.6875 
L 18.109375 54.6875 
L 18.109375 46.1875 
Q 20.953125 51.171875 25.484375 53.578125 
Q 30.03125 56 36.53125 56 
Q 37.453125 56 38.578125 55.875 
Q 39.703125 55.765625 41.0625 55.515625 
z
" id="DejaVuSans-114"/>
      <path d="M 48.78125 52.59375 
L 48.78125 44.1875 
Q 44.96875 46.296875 41.140625 47.34375 
Q 37.3125 48.390625 33.40625 48.390625 
Q 24.65625 48.390625 19.8125 42.84375 
Q 14.984375 37.3125 14.984375 27.296875 
Q 14.984375 17.28125 19.8125 11.734375 
Q 24.65625 6.203125 33.40625 6.203125 
Q 37.3125 6.203125 41.140625 7.25 
Q 44.96875 8.296875 48.78125 10.40625 
L 48.78125 2.09375 
Q 45.015625 0.34375 40.984375 -0.53125 
Q 36.96875 -1.421875 32.421875 -1.421875 
Q 20.0625 -1.421875 12.78125 6.34375 
Q 5.515625 14.109375 5.515625 27.296875 
Q 5.515625 40.671875 12.859375 48.328125 
Q 20.21875 56 33.015625 56 
Q 37.15625 56 41.109375 55.140625 
Q 45.0625 54.296875 48.78125 52.59375 
z
" id="DejaVuSans-99"/>
      <path d="M 18.3125 70.21875 
L 18.3125 54.6875 
L 36.8125 54.6875 
L 36.8125 47.703125 
L 18.3125 47.703125 
L 18.3125 18.015625 
Q 18.3125 11.328125 20.140625 9.421875 
Q 21.96875 7.515625 27.59375 7.515625 
L 36.8125 7.515625 
L 36.8125 0 
L 27.59375 0 
Q 17.1875 0 13.234375 3.875 
Q 9.28125 7.765625 9.28125 18.015625 
L 9.28125 47.703125 
L 2.6875 47.703125 
L 2.6875 54.6875 
L 9.28125 54.6875 
L 9.28125 70.21875 
z
" id="DejaVuSans-116"/>
      <path d="M 8.5 21.578125 
L 8.5 54.6875 
L 17.484375 54.6875 
L 17.484375 21.921875 
Q 17.484375 14.15625 20.5 10.265625 
Q 23.53125 6.390625 29.59375 6.390625 
Q 36.859375 6.390625 41.078125 11.03125 
Q 45.3125 15.671875 45.3125 23.6875 
L 45.3125 54.6875 
L 54.296875 54.6875 
L 54.296875 0 
L 45.3125 0 
L 45.3125 8.40625 
Q 42.046875 3.421875 37.71875 1 
Q 33.40625 -1.421875 27.6875 -1.421875 
Q 18.265625 -1.421875 13.375 4.4375 
Q 8.5 10.296875 8.5 21.578125 
z
M 31.109375 56 
z
" id="DejaVuSans-117"/>
      <path d="M 11.71875 12.40625 
L 22.015625 12.40625 
L 22.015625 4 
L 14.015625 -11.625 
L 7.71875 -11.625 
L 11.71875 4 
z
" id="DejaVuSans-44"/>
      <path d="M 18.109375 8.203125 
L 18.109375 -20.796875 
L 9.078125 -20.796875 
L 9.078125 54.6875 
L 18.109375 54.6875 
L 18.109375 46.390625 
Q 20.953125 51.265625 25.265625 53.625 
Q 29.59375 56 35.59375 56 
Q 45.5625 56 51.78125 48.09375 
Q 58.015625 40.1875 58.015625 27.296875 
Q 58.015625 14.40625 51.78125 6.484375 
Q 45.5625 -1.421875 35.59375 -1.421875 
Q 29.59375 -1.421875 25.265625 0.953125 
Q 20.953125 3.328125 18.109375 8.203125 
z
M 48.6875 27.296875 
Q 48.6875 37.203125 44.609375 42.84375 
Q 40.53125 48.484375 33.40625 48.484375 
Q 26.265625 48.484375 22.1875 42.84375 
Q 18.109375 37.203125 18.109375 27.296875 
Q 18.109375 17.390625 22.1875 11.75 
Q 26.265625 6.109375 33.40625 6.109375 
Q 40.53125 6.109375 44.609375 11.75 
Q 48.6875 17.390625 48.6875 27.296875 
z
" id="DejaVuSans-112"/>
     </defs>
     <g transform="translate(17.619531 285.585)rotate(-90)scale(0.17 -0.17)">
      <use xlink:href="#DejaVuSans-70"/>
      <use x="50.269531" xlink:href="#DejaVuSans-114"/>
      <use x="91.382812" xlink:href="#DejaVuSans-97"/>
      <use x="152.662109" xlink:href="#DejaVuSans-99"/>
      <use x="207.642578" xlink:href="#DejaVuSans-116"/>
      <use x="246.851562" xlink:href="#DejaVuSans-105"/>
      <use x="274.634766" xlink:href="#DejaVuSans-111"/>
      <use x="335.816406" xlink:href="#DejaVuSans-110"/>
      <use x="399.195312" xlink:href="#DejaVuSans-32"/>
      <use x="430.982422" xlink:href="#DejaVuSans-111"/>
      <use x="492.164062" xlink:href="#DejaVuSans-102"/>
      <use x="527.369141" xlink:href="#DejaVuSans-32"/>
      <use x="559.15625" xlink:href="#DejaVuSans-102"/>
      <use x="594.361328" xlink:href="#DejaVuSans-117"/>
      <use x="657.740234" xlink:href="#DejaVuSans-110"/>
      <use x="721.119141" xlink:href="#DejaVuSans-99"/>
      <use x="776.099609" xlink:href="#DejaVuSans-116"/>
      <use x="815.308594" xlink:href="#DejaVuSans-105"/>
      <use x="843.091797" xlink:href="#DejaVuSans-111"/>
      <use x="904.273438" xlink:href="#DejaVuSans-110"/>
      <use x="967.652344" xlink:href="#DejaVuSans-44"/>
      <use x="999.439453" xlink:href="#DejaVuSans-116"/>
      <use x="1038.648438" xlink:href="#DejaVuSans-97"/>
      <use x="1099.927734" xlink:href="#DejaVuSans-114"/>
      <use x="1139.291016" xlink:href="#DejaVuSans-103"/>
      <use x="1202.767578" xlink:href="#DejaVuSans-101"/>
      <use x="1264.291016" xlink:href="#DejaVuSans-116"/>
      <use x="1303.5" xlink:href="#DejaVuSans-32"/>
      <use x="1335.287109" xlink:href="#DejaVuSans-112"/>
      <use x="1398.763672" xlink:href="#DejaVuSans-97"/>
      <use x="1460.042969" xlink:href="#DejaVuSans-105"/>
      <use x="1487.826172" xlink:href="#DejaVuSans-114"/>
      <use x="1528.939453" xlink:href="#DejaVuSans-115"/>
     </g>
    </g>
   </g>
   <g id="line2d_29">
    <defs>
     <path d="M 0 1.5 
C 0.397805 1.5 0.77937 1.341951 1.06066 1.06066 
C 1.341951 0.77937 1.5 0.397805 1.5 0 
C 1.5 -0.397805 1.341951 -0.77937 1.06066 -1.06066 
C 0.77937 -1.341951 0.397805 -1.5 0 -1.5 
C -0.397805 -1.5 -0.77937 -1.341951 -1.06066 -1.06066 
C -1.341951 -0.77937 -1.5 -0.397805 -1.5 0 
C -1.5 0.397805 -1.341951 0.77937 -1.06066 1.06066 
C -0.77937 1.341951 -0.397805 1.5 0 1.5 
z
" id="me2e1a231ff" style="stroke:#00bfbf;"/>
    </defs>
    <g>
     <use style="fill:#00bfbf;stroke:#00bfbf;" x="195.189762" xlink:href="#me2e1a231ff" y="7.528927"/>
     <use style="fill:#00bfbf;stroke:#00bfbf;" x="195.189762" xlink:href="#me2e1a231ff" y="7.528927"/>
    </g>
   </g>
   <g id="line2d_30">
    <path d="M 45.512012 298.944 
L 45.512012 292.060179 
L 83.830028 292.060179 
L 83.830028 291.945449 
L 94.921215 291.945449 
L 94.921215 291.830719 
L 95.918017 291.830719 
L 95.918017 291.601258 
L 96.86091 291.601258 
L 96.86091 291.027606 
L 97.755429 291.027606 
L 97.755429 290.683415 
L 98.606294 290.683415 
L 98.606294 290.568685 
L 100.192776 290.568685 
L 100.192776 290.453955 
L 101.646892 290.453955 
L 101.646892 290.224494 
L 102.330873 290.224494 
L 102.330873 289.995033 
L 103.623262 289.995033 
L 103.623262 289.880303 
L 104.23523 289.880303 
L 104.23523 289.306651 
L 104.826449 289.306651 
L 104.826449 288.96246 
L 105.398279 288.96246 
L 105.398279 287.929887 
L 105.951954 287.929887 
L 105.951954 287.585696 
L 106.48859 287.585696 
L 106.48859 286.094202 
L 107.009204 286.094202 
L 107.009204 284.946898 
L 107.514726 284.946898 
L 107.514726 284.029055 
L 108.006005 284.029055 
L 108.006005 282.996482 
L 108.483824 282.996482 
L 108.483824 282.3081 
L 108.948899 282.3081 
L 108.948899 281.849179 
L 109.401893 281.849179 
L 109.401893 281.734448 
L 109.843417 281.734448 
L 109.843417 280.128224 
L 110.274038 280.128224 
L 110.274038 279.784033 
L 110.694282 279.784033 
L 110.694282 278.063077 
L 111.104637 278.063077 
L 111.104637 277.145235 
L 111.505558 277.145235 
L 111.505558 276.915774 
L 111.897469 276.915774 
L 111.897469 275.309549 
L 112.280765 275.309549 
L 112.280765 274.850628 
L 112.655818 274.850628 
L 112.655818 273.703324 
L 113.022974 273.703324 
L 113.022974 272.785482 
L 113.382559 272.785482 
L 113.382559 271.752909 
L 113.73488 271.752909 
L 113.73488 270.835066 
L 114.080224 270.835066 
L 114.080224 270.031953 
L 114.418861 270.031953 
L 114.418861 269.228841 
L 114.751048 269.228841 
L 114.751048 267.622616 
L 115.077025 267.622616 
L 115.077025 267.163695 
L 115.397021 267.163695 
L 115.397021 265.098549 
L 115.711251 265.098549 
L 115.711251 263.492324 
L 116.019919 263.492324 
L 116.019919 260.968256 
L 116.323218 260.968256 
L 116.323218 258.099998 
L 116.621333 258.099998 
L 116.621333 257.296885 
L 116.914437 257.296885 
L 116.914437 256.952694 
L 117.202696 256.952694 
L 117.202696 256.034851 
L 117.486268 256.034851 
L 117.486268 255.117009 
L 117.765302 255.117009 
L 117.765302 254.772818 
L 118.039942 254.772818 
L 118.039942 253.166593 
L 118.310324 253.166593 
L 118.310324 252.36348 
L 118.576578 252.36348 
L 118.576578 251.789829 
L 119.097192 251.789829 
L 119.097192 251.101447 
L 119.351785 251.101447 
L 119.351785 250.757256 
L 119.602714 250.757256 
L 119.602714 250.298334 
L 119.850084 250.298334 
L 119.850084 249.380492 
L 120.33454 249.380492 
L 120.33454 249.036301 
L 120.571812 249.036301 
L 120.571812 248.80684 
L 120.8059 248.80684 
L 120.8059 248.577379 
L 121.036887 248.577379 
L 121.036887 248.347918 
L 121.264855 248.347918 
L 121.264855 248.003727 
L 121.489881 248.003727 
L 121.489881 247.544806 
L 121.712041 247.544806 
L 121.712041 247.200615 
L 121.931406 247.200615 
L 121.931406 246.512233 
L 122.148045 246.512233 
L 122.148045 246.397503 
L 122.362027 246.397503 
L 122.362027 245.36493 
L 122.573415 245.36493 
L 122.573415 244.676547 
L 122.782271 244.676547 
L 122.782271 244.217626 
L 123.192626 244.217626 
L 123.192626 243.988165 
L 123.593547 243.988165 
L 123.593547 243.185053 
L 123.790603 243.185053 
L 123.790603 242.955592 
L 123.985457 242.955592 
L 123.985457 242.840862 
L 124.178158 242.840862 
L 124.178158 242.03775 
L 124.368753 242.03775 
L 124.368753 241.464098 
L 124.557288 241.464098 
L 124.557288 240.775716 
L 124.743806 240.775716 
L 124.743806 240.316794 
L 124.92835 240.316794 
L 124.92835 239.743143 
L 125.110962 239.743143 
L 125.110962 238.8253 
L 125.291682 238.8253 
L 125.291682 238.022188 
L 125.470548 238.022188 
L 125.470548 237.448536 
L 125.647598 237.448536 
L 125.647598 236.301232 
L 125.822869 236.301232 
L 125.822869 235.842311 
L 125.996395 235.842311 
L 125.996395 234.924468 
L 126.168212 234.924468 
L 126.168212 234.465547 
L 126.338353 234.465547 
L 126.338353 234.006626 
L 126.50685 234.006626 
L 126.50685 233.203513 
L 126.673734 233.203513 
L 126.673734 231.597288 
L 126.839037 231.597288 
L 126.839037 231.023637 
L 127.002787 231.023637 
L 127.002787 230.794176 
L 127.165014 230.794176 
L 127.165014 230.220524 
L 127.325746 230.220524 
L 127.325746 229.302681 
L 127.48501 229.302681 
L 127.48501 228.155378 
L 127.642832 228.155378 
L 127.642832 226.204962 
L 127.799239 226.204962 
L 127.799239 224.484007 
L 127.954256 224.484007 
L 127.954256 222.648321 
L 128.107907 222.648321 
L 128.107907 222.1894 
L 128.260216 222.1894 
L 128.260216 220.468445 
L 128.411207 220.468445 
L 128.411207 219.780063 
L 128.560901 219.780063 
L 128.560901 216.682344 
L 128.709321 216.682344 
L 128.709321 215.53504 
L 128.856489 215.53504 
L 128.856489 214.273006 
L 129.002426 214.273006 
L 129.002426 211.748939 
L 129.147151 211.748939 
L 129.147151 210.601635 
L 129.290685 210.601635 
L 129.290685 207.733377 
L 129.433047 207.733377 
L 129.433047 205.668231 
L 129.574256 205.668231 
L 129.574256 203.603084 
L 129.714332 203.603084 
L 129.714332 201.767399 
L 129.853291 201.767399 
L 129.853291 199.816983 
L 129.991152 199.816983 
L 129.991152 197.637107 
L 130.127931 197.637107 
L 130.127931 195.801421 
L 130.263646 195.801421 
L 130.263646 194.424657 
L 130.398313 194.424657 
L 130.398313 191.212207 
L 130.531948 191.212207 
L 130.531948 189.491252 
L 130.664567 189.491252 
L 130.664567 187.081915 
L 130.796184 187.081915 
L 130.796184 184.557847 
L 130.926816 184.557847 
L 130.926816 183.869465 
L 131.056477 183.869465 
L 131.056477 181.001207 
L 131.185181 181.001207 
L 131.185181 179.165521 
L 131.312942 179.165521 
L 131.312942 176.756184 
L 131.439773 176.756184 
L 131.439773 175.37942 
L 131.565689 175.37942 
L 131.565689 171.593319 
L 131.690703 171.593319 
L 131.690703 169.642903 
L 131.814826 169.642903 
L 131.814826 166.889374 
L 131.938072 166.889374 
L 131.938072 165.28315 
L 132.060454 165.28315 
L 132.060454 164.250577 
L 132.181982 164.250577 
L 132.181982 162.414891 
L 132.30267 162.414891 
L 132.30267 160.120284 
L 132.422528 160.120284 
L 132.422528 157.710947 
L 132.541568 157.710947 
L 132.541568 156.563644 
L 132.659801 156.563644 
L 132.659801 153.924846 
L 132.777237 153.924846 
L 132.777237 151.171317 
L 132.893889 151.171317 
L 132.893889 148.303059 
L 133.009765 148.303059 
L 133.009765 147.155755 
L 133.124876 147.155755 
L 133.124876 145.090609 
L 133.239232 145.090609 
L 133.239232 142.10762 
L 133.352844 142.10762 
L 133.352844 139.354092 
L 133.46572 139.354092 
L 133.46572 136.256373 
L 133.57787 136.256373 
L 133.57787 134.191227 
L 133.689303 134.191227 
L 133.800029 131.208238 
L 133.910056 131.208238 
L 134.019394 125.127529 
L 134.12805 125.127529 
L 134.236034 120.194125 
L 134.343353 120.194125 
L 134.450015 115.490181 
L 134.55603 115.490181 
L 134.661403 111.93354 
L 134.766144 111.93354 
L 134.870259 108.147439 
L 134.973757 108.147439 
L 135.076644 104.246607 
L 135.178927 104.246607 
L 135.280614 100.345775 
L 135.381712 100.345775 
L 135.482227 96.789135 
L 135.582166 96.789135 
L 135.681535 94.150337 
L 135.780341 94.150337 
L 135.878591 90.823157 
L 135.97629 90.823157 
L 136.073445 88.069628 
L 136.170062 88.069628 
L 136.266147 85.775022 
L 136.361705 85.775022 
L 136.456742 81.300538 
L 136.551264 81.300538 
L 136.645276 79.120662 
L 136.738785 79.120662 
L 136.831795 76.826055 
L 136.924311 76.826055 
L 137.016339 72.466302 
L 137.107884 72.466302 
L 137.198951 70.171695 
L 137.289545 70.171695 
L 137.37967 67.877088 
L 137.469333 67.877088 
L 137.558536 65.697211 
L 137.647286 65.697211 
L 137.735587 62.599492 
L 137.823442 62.599492 
L 137.910857 60.075425 
L 137.997836 60.075425 
L 138.084384 57.207166 
L 138.170504 57.207166 
L 138.256201 56.174593 
L 138.341479 56.174593 
L 138.426341 53.879986 
L 138.510793 53.879986 
L 138.594838 51.585379 
L 138.67848 51.585379 
L 138.761723 50.552806 
L 138.84457 50.552806 
L 138.927025 48.60239 
L 139.009092 48.60239 
L 139.090775 48.028738 
L 139.172077 48.028738 
L 139.253002 46.537244 
L 139.333553 46.537244 
L 139.413734 44.586828 
L 139.493548 44.586828 
L 139.493548 44.013176 
L 139.730821 44.013176 
L 139.8092 41.603839 
L 139.887228 41.603839 
L 139.964909 40.571266 
L 140.042245 40.571266 
L 140.11924 39.309232 
L 140.195896 39.309232 
L 140.272217 38.735581 
L 140.348205 38.735581 
L 140.348205 38.047199 
L 140.499195 38.047199 
L 140.574203 37.588277 
L 140.64889 37.588277 
L 140.723258 36.899895 
L 140.871049 36.899895 
L 140.944478 36.211513 
L 141.017599 36.211513 
L 141.090414 35.637861 
L 141.162927 35.637861 
L 141.235139 34.720019 
L 141.45 34.720019 
L 141.521035 34.146367 
L 141.662245 34.146367 
L 141.662245 33.916906 
L 141.871938 33.916906 
L 141.941279 33.228524 
L 142.010346 33.228524 
L 142.07914 32.769603 
L 142.147664 32.769603 
L 142.147664 32.654872 
L 142.283909 32.654872 
L 142.283909 32.081221 
L 142.619936 32.081221 
L 142.686372 31.622299 
L 142.752555 31.622299 
L 142.818488 31.163378 
L 142.884173 31.163378 
L 142.949611 30.704457 
L 143.014805 30.704457 
L 143.014805 30.589726 
L 143.144465 30.589726 
L 143.208936 30.360266 
L 143.273169 30.360266 
L 143.337167 29.901344 
L 143.590833 29.901344 
L 143.653678 29.442423 
L 143.716296 29.442423 
L 143.778691 28.754041 
L 143.840863 28.754041 
L 143.840863 28.52458 
L 143.964547 28.52458 
L 143.964547 28.295119 
L 144.269971 28.295119 
L 144.330419 27.950928 
L 144.45069 27.950928 
L 144.45069 27.721468 
L 144.629556 27.721468 
L 144.688773 27.377277 
L 144.865226 27.377277 
L 144.923649 26.918355 
L 144.981877 26.918355 
L 144.981877 26.574164 
L 145.097753 26.574164 
L 145.097753 26.459434 
L 145.270136 26.459434 
L 145.327221 26.115243 
L 145.553708 26.115243 
L 145.609873 25.885782 
L 145.777292 25.885782 
L 145.832743 25.426861 
L 146.107383 25.426861 
L 146.107383 25.31213 
L 146.431341 25.31213 
L 146.431341 25.1974 
L 146.644018 25.1974 
L 146.644018 25.08267 
L 146.958248 25.08267 
L 147.061745 24.623748 
L 147.164632 24.623748 
L 147.164632 24.509018 
L 147.317833 24.509018 
L 147.317833 24.394288 
L 147.620256 24.394288 
L 147.71991 24.164827 
L 148.161434 24.164827 
L 148.258051 23.820636 
L 148.780082 23.820636 
L 148.780082 23.705906 
L 148.966103 23.705906 
L 149.012299 23.476445 
L 149.104327 23.476445 
L 149.104327 23.361715 
L 149.286939 23.361715 
L 149.332295 23.132254 
L 149.557321 23.132254 
L 149.646525 22.902793 
L 149.690956 22.902793 
L 149.690956 22.788063 
L 150.38688 22.788063 
L 150.38688 22.329142 
L 150.932558 22.329142 
L 150.932558 22.214411 
L 151.381313 22.214411 
L 151.381313 21.98495 
L 151.700576 21.98495 
L 151.700576 21.87022 
L 152.360205 21.87022 
L 152.360205 21.75549 
L 153.959927 21.75549 
L 153.959927 21.640759 
L 154.167129 21.640759 
L 154.167129 21.411299 
L 154.405793 21.411299 
L 154.405793 21.296568 
L 154.77436 21.296568 
L 154.77436 21.181838 
L 155.004911 21.181838 
L 155.004911 21.067108 
L 155.264719 21.067108 
L 155.329071 20.837647 
L 155.425155 20.837647 
L 155.520713 20.378726 
L 155.647315 20.378726 
L 155.710272 20.034535 
L 155.804285 20.034535 
L 155.804285 19.919804 
L 156.021696 19.919804 
L 156.021696 19.690344 
L 156.266892 19.690344 
L 156.357959 19.460883 
L 156.658127 19.460883 
L 156.658127 19.346153 
L 156.776762 19.346153 
L 156.835778 18.772501 
L 156.923929 18.772501 
L 157.011638 18.54304 
L 157.243392 18.54304 
L 157.272146 18.313579 
L 157.38669 18.313579 
L 157.443681 17.969388 
L 157.500487 17.969388 
L 157.58535 17.281006 
L 157.613546 17.281006 
L 157.697862 16.936815 
L 157.753847 16.936815 
L 157.837488 16.477894 
L 157.86528 16.477894 
L 157.976006 15.789512 
L 158.113432 15.789512 
L 158.140788 15.560051 
L 158.249784 15.560051 
L 158.358103 14.9864 
L 158.492562 14.9864 
L 158.599388 14.527478 
L 158.75841 14.527478 
L 158.75841 14.412748 
L 159.046236 14.412748 
L 159.123917 14.068557 
L 159.252621 14.068557 
L 159.252621 13.724366 
L 159.456591 13.724366 
L 159.557689 13.380175 
L 159.658204 13.380175 
L 159.658204 13.265444 
L 159.783038 13.265444 
L 159.832723 13.035984 
L 160.821253 13.035984 
L 160.821253 12.921253 
L 161.442917 12.921253 
L 161.488097 12.691793 
L 161.84538 12.691793 
L 161.84538 12.577062 
L 163.428979 12.577062 
L 163.449152 12.347602 
L 164.390984 12.347602 
L 164.390984 12.232871 
L 164.843488 12.232871 
L 164.843488 12.118141 
L 165.518877 12.118141 
L 165.518877 12.003411 
L 165.838222 12.003411 
L 165.838222 11.77395 
L 166.34073 11.77395 
L 166.442913 11.544489 
L 166.476842 11.544489 
L 166.544502 10.970838 
L 166.779265 10.970838 
L 166.779265 10.856107 
L 167.010909 10.856107 
L 167.010909 10.741377 
L 167.255733 10.741377 
L 167.255733 10.626646 
L 167.368818 10.626646 
L 167.368818 10.511916 
L 167.76681 10.511916 
L 167.798261 10.282455 
L 167.93909 10.282455 
L 168.001318 10.052995 
L 168.566635 10.052995 
L 168.566635 9.938264 
L 168.805533 9.938264 
L 168.805533 9.823534 
L 168.982583 9.823534 
L 169.026567 9.594073 
L 169.288161 9.594073 
L 169.288161 9.479343 
L 170.256089 9.479343 
L 170.364915 9.249882 
L 170.846398 9.249882 
L 170.846398 9.135152 
L 173.31469 9.135152 
L 173.337576 8.905691 
L 173.609893 8.905691 
L 173.609893 8.790961 
L 173.777957 8.790961 
L 173.777957 8.676231 
L 174.743137 8.676231 
L 174.743137 8.5615 
L 177.517111 8.5615 
L 177.517111 8.44677 
L 178.282926 8.44677 
L 178.282926 8.33204 
L 179.368015 8.33204 
L 179.368015 8.217309 
L 180.526366 8.217309 
L 180.526366 8.102579 
L 186.804731 8.102579 
L 186.804731 7.987849 
L 188.879315 7.987849 
L 188.879315 7.873118 
L 190.044937 7.873118 
L 190.044937 7.758388 
L 194.952982 7.758388 
L 194.952982 7.643658 
L 195.189762 7.643658 
L 195.189762 7.528927 
L 338.688 7.528927 
L 338.688 7.528927 
" style="fill:none;stroke:#00bfbf;stroke-linecap:square;stroke-width:1.5;"/>
   </g>
   <g id="line2d_31">
    <defs>
     <path d="M -6 0 
L 6 0 
M 0 6 
L 0 -6 
" id="me3939fe9e6" style="stroke:#00bfbf;stroke-width:1.5;"/>
    </defs>
    <g>
     <use style="fill-opacity:0;stroke:#00bfbf;stroke-width:1.5;" x="131.439773" xlink:href="#me3939fe9e6" y="176.756184"/>
     <use style="fill-opacity:0;stroke:#00bfbf;stroke-width:1.5;" x="136.456742" xlink:href="#me3939fe9e6" y="82.792033"/>
     <use style="fill-opacity:0;stroke:#00bfbf;stroke-width:1.5;" x="195.189762" xlink:href="#me3939fe9e6" y="7.643658"/>
     <use style="fill-opacity:0;stroke:#00bfbf;stroke-width:1.5;" x="195.189762" xlink:href="#me3939fe9e6" y="7.528927"/>
     <use style="fill-opacity:0;stroke:#00bfbf;stroke-width:1.5;" x="195.189762" xlink:href="#me3939fe9e6" y="7.528927"/>
     <use style="fill-opacity:0;stroke:#00bfbf;stroke-width:1.5;" x="338.688" xlink:href="#me3939fe9e6" y="7.528927"/>
    </g>
   </g>
   <g id="line2d_32">
    <path style="fill:none;stroke:#00bfbf;stroke-linecap:square;stroke-width:1.5;"/>
    <g/>
   </g>
   <g id="line2d_33">
    <path clip-path="url(#p7f0a86057c)" d="M 153.178403 21.75549 
" style="fill:none;stroke:#00bfbf;stroke-linecap:square;stroke-width:1.5;"/>
    <defs>
     <path d="M -12 12 
L 12 -12 
M -12 -12 
L 12 12 
" id="mc087cab4c2" style="stroke:#00bfbf;"/>
    </defs>
    <g clip-path="url(#p7f0a86057c)">
     <use style="fill:#00bfbf;stroke:#00bfbf;" x="153.178403" xlink:href="#mc087cab4c2" y="21.75549"/>
    </g>
   </g>
   <g id="line2d_34">
    <defs>
     <path d="M 0 1.5 
C 0.397805 1.5 0.77937 1.341951 1.06066 1.06066 
C 1.341951 0.77937 1.5 0.397805 1.5 0 
C 1.5 -0.397805 1.341951 -0.77937 1.06066 -1.06066 
C 0.77937 -1.341951 0.397805 -1.5 0 -1.5 
C -0.397805 -1.5 -0.77937 -1.341951 -1.06066 -1.06066 
C -1.341951 -0.77937 -1.5 -0.397805 -1.5 0 
C -1.5 0.397805 -1.341951 0.77937 -1.06066 1.06066 
C -0.77937 1.341951 -0.397805 1.5 0 1.5 
z
" id="m8db7cd2b6b" style="stroke:#008000;"/>
    </defs>
    <g>
     <use style="fill:#008000;stroke:#008000;" x="211.000068" xlink:href="#m8db7cd2b6b" y="10.970838"/>
     <use style="fill:#008000;stroke:#008000;" x="211.000068" xlink:href="#m8db7cd2b6b" y="10.970838"/>
    </g>
   </g>
   <g id="line2d_35">
    <path d="M 38.440992 298.944 
L 38.440992 293.092752 
L 90.684409 293.092752 
L 90.684409 292.978022 
L 98.880934 292.978022 
L 98.880934 292.863292 
L 99.938184 292.863292 
L 99.938184 292.748561 
L 100.934985 292.748561 
L 100.934985 292.633831 
L 101.877879 292.633831 
L 101.877879 292.17491 
L 102.330873 292.17491 
L 102.330873 291.945449 
L 102.772397 291.945449 
L 102.772397 291.601258 
L 103.203018 291.601258 
L 103.203018 291.486528 
L 103.623262 291.486528 
L 103.623262 291.027606 
L 104.033617 291.027606 
L 104.033617 290.683415 
L 104.434538 290.683415 
L 104.434538 290.339224 
L 104.826449 290.339224 
L 104.826449 289.536112 
L 105.209745 289.536112 
L 105.209745 289.421381 
L 105.584798 289.421381 
L 105.584798 288.732999 
L 105.951954 288.732999 
L 105.951954 288.503539 
L 106.311539 288.503539 
L 106.311539 288.274078 
L 106.66386 288.274078 
L 106.66386 287.815157 
L 107.347841 287.815157 
L 107.347841 287.585696 
L 108.326001 287.585696 
L 108.326001 287.356235 
L 108.640231 287.356235 
L 108.640231 287.012044 
L 108.948899 287.012044 
L 108.948899 286.667853 
L 109.550313 286.667853 
L 109.550313 286.323662 
L 110.694282 286.323662 
L 110.694282 286.208932 
L 110.968922 286.208932 
L 110.968922 285.979471 
L 111.505558 285.979471 
L 111.505558 285.864741 
L 112.280765 285.864741 
L 112.280765 285.63528 
L 112.531694 285.63528 
L 112.531694 285.52055 
L 112.779064 285.52055 
L 112.779064 285.405819 
L 113.022974 285.405819 
L 113.022974 285.176359 
L 113.500792 285.176359 
L 113.500792 285.061628 
L 113.73488 285.061628 
L 113.73488 284.832168 
L 113.965867 284.832168 
L 113.965867 284.602707 
L 114.193835 284.602707 
L 114.193835 284.258516 
L 114.418861 284.258516 
L 114.418861 283.914325 
L 114.860386 283.914325 
L 114.860386 283.570134 
L 115.502395 283.570134 
L 115.502395 283.225943 
L 115.711251 283.225943 
L 115.711251 283.111213 
L 116.323218 283.111213 
L 116.323218 282.996482 
L 116.522527 282.996482 
L 116.522527 282.767022 
L 116.719583 282.767022 
L 116.719583 282.537561 
L 117.107138 282.537561 
L 117.107138 282.3081 
L 117.297733 282.3081 
L 117.297733 282.078639 
L 117.486268 282.078639 
L 117.486268 281.849179 
L 117.672786 281.849179 
L 117.672786 281.734448 
L 117.857331 281.734448 
L 117.857331 281.619718 
L 118.039942 281.619718 
L 118.039942 281.504988 
L 118.220662 281.504988 
L 118.220662 281.390257 
L 118.399528 281.390257 
L 118.399528 281.275527 
L 118.576578 281.275527 
L 118.576578 281.046066 
L 118.925375 281.046066 
L 118.925375 280.816606 
L 119.097192 280.816606 
L 119.097192 280.587145 
L 119.267333 280.587145 
L 119.267333 280.357684 
L 120.093994 280.357684 
L 120.093994 280.242954 
L 120.41399 280.242954 
L 120.41399 279.554572 
L 120.571812 279.554572 
L 120.571812 279.325111 
L 120.728219 279.325111 
L 120.728219 279.210381 
L 121.036887 279.210381 
L 121.036887 279.095651 
L 121.189196 279.095651 
L 121.189196 278.636729 
L 121.489881 278.636729 
L 121.489881 278.521999 
L 121.638301 278.521999 
L 121.638301 278.177808 
L 121.785469 278.177808 
L 121.785469 277.948347 
L 122.076131 277.948347 
L 122.076131 277.604156 
L 122.219665 277.604156 
L 122.219665 277.489426 
L 122.362027 277.489426 
L 122.362027 277.145235 
L 122.503236 277.145235 
L 122.503236 277.030504 
L 122.643312 277.030504 
L 122.643312 276.686313 
L 122.782271 276.686313 
L 122.782271 276.571583 
L 122.920132 276.571583 
L 122.920132 276.227392 
L 123.056911 276.227392 
L 123.056911 275.768471 
L 123.192626 275.768471 
L 123.192626 275.53901 
L 123.327293 275.53901 
L 123.327293 275.42428 
L 123.460928 275.42428 
L 123.460928 274.850628 
L 123.593547 274.850628 
L 123.593547 274.735897 
L 123.725164 274.735897 
L 123.725164 274.276976 
L 123.985457 274.276976 
L 123.985457 273.818055 
L 124.114161 273.818055 
L 124.114161 273.588594 
L 124.241922 273.588594 
L 124.241922 273.359133 
L 124.494669 273.359133 
L 124.494669 273.244403 
L 124.619683 273.244403 
L 124.619683 273.014942 
L 124.743806 273.014942 
L 124.743806 272.670751 
L 124.867052 272.670751 
L 124.867052 272.441291 
L 124.989434 272.441291 
L 124.989434 272.32656 
L 125.23165 272.32656 
L 125.23165 272.21183 
L 125.351508 272.21183 
L 125.351508 272.0971 
L 125.470548 272.0971 
L 125.470548 271.638178 
L 125.588781 271.638178 
L 125.588781 271.523448 
L 125.706218 271.523448 
L 125.706218 271.179257 
L 125.822869 271.179257 
L 125.822869 271.064526 
L 125.938745 271.064526 
L 125.938745 270.949796 
L 126.053856 270.949796 
L 126.053856 270.835066 
L 126.168212 270.835066 
L 126.168212 270.720335 
L 126.281824 270.720335 
L 126.281824 270.261414 
L 126.50685 270.261414 
L 126.50685 270.146684 
L 126.729009 270.146684 
L 126.839037 269.343571 
L 126.948374 269.343571 
L 127.05703 268.99938 
L 127.165014 268.99938 
L 127.272333 268.655189 
L 127.378995 268.655189 
L 127.48501 268.310998 
L 127.590383 268.310998 
L 127.590383 267.852077 
L 127.799239 267.852077 
L 127.902737 267.278425 
L 128.005624 267.278425 
L 128.107907 266.590043 
L 128.209594 266.590043 
L 128.310692 266.360582 
L 128.411207 266.360582 
L 128.511146 266.131122 
L 128.610515 266.131122 
L 128.709321 265.55747 
L 128.807571 265.55747 
L 128.905271 264.983818 
L 129.002426 264.983818 
L 129.002426 264.639627 
L 129.195127 264.639627 
L 129.290685 263.836515 
L 129.385722 263.836515 
L 129.480244 263.262863 
L 129.574256 263.262863 
L 129.574256 262.803942 
L 129.760775 262.803942 
L 129.760775 262.11556 
L 129.945319 262.11556 
L 130.036864 260.968256 
L 130.127931 260.968256 
L 130.218525 260.279874 
L 130.30865 260.279874 
L 130.398313 259.476762 
L 130.487516 259.476762 
L 130.576266 259.247301 
L 130.664567 259.247301 
L 130.752422 258.558919 
L 130.839837 258.558919 
L 130.926816 257.870537 
L 131.013364 257.870537 
L 131.099484 257.067425 
L 131.185181 257.067425 
L 131.185181 256.723234 
L 131.355321 256.723234 
L 131.439773 256.034851 
L 131.523818 256.034851 
L 131.60746 255.231739 
L 131.690703 255.231739 
L 131.77355 254.199166 
L 131.856005 254.199166 
L 131.938072 253.396054 
L 132.019755 253.396054 
L 132.101058 252.478211 
L 132.181982 252.478211 
L 132.262533 252.13402 
L 132.342714 252.13402 
L 132.422528 251.216177 
L 132.501978 251.216177 
L 132.581068 250.871986 
L 132.73818 250.871986 
L 132.816208 250.068874 
L 132.893889 250.068874 
L 132.971225 249.380492 
L 133.04822 249.380492 
L 133.124876 249.151031 
L 133.201197 249.151031 
L 133.277185 248.462649 
L 133.352844 248.462649 
L 133.428175 247.888997 
L 133.503183 247.888997 
L 133.57787 247.430076 
L 133.652238 247.430076 
L 133.72629 247.085885 
L 133.800029 247.085885 
L 133.873458 246.512233 
L 133.946579 246.512233 
L 134.019394 246.168042 
L 134.164119 246.168042 
L 134.236034 245.59439 
L 134.307653 245.59439 
L 134.37898 245.135469 
L 134.450015 245.135469 
L 134.450015 244.906008 
L 134.591225 244.906008 
L 134.661403 244.561817 
L 134.7313 244.561817 
L 134.800918 243.414514 
L 134.939326 243.414514 
L 135.00812 243.070323 
L 135.076644 243.070323 
L 135.144899 242.03775 
L 135.280614 242.03775 
L 135.280614 241.923019 
L 135.415281 241.923019 
L 135.482227 241.464098 
L 135.548916 241.464098 
L 135.615352 241.234637 
L 135.681535 241.234637 
L 135.747468 240.316794 
L 135.813153 240.316794 
L 135.878591 239.513682 
L 135.943785 239.513682 
L 135.943785 239.054761 
L 136.073445 239.054761 
L 136.137916 238.71057 
L 136.202149 238.71057 
L 136.266147 238.251648 
L 136.32991 238.251648 
L 136.393441 237.563266 
L 136.456742 237.563266 
L 136.519813 237.104345 
L 136.582658 237.104345 
L 136.645276 236.301232 
L 136.769843 236.301232 
L 136.831795 235.957041 
L 136.893527 235.957041 
L 136.955041 235.268659 
L 137.016339 235.268659 
L 137.016339 234.580277 
L 137.259399 234.580277 
L 137.319638 234.350817 
L 137.37967 234.350817 
L 137.439497 233.777165 
L 137.499118 233.777165 
L 137.558536 232.974052 
L 137.617753 232.974052 
L 137.676769 232.28567 
L 137.735587 232.28567 
L 137.735587 232.17094 
L 137.852629 232.17094 
L 137.910857 230.794176 
L 137.968891 230.794176 
L 138.026733 230.105794 
L 138.084384 230.105794 
L 138.141844 229.876333 
L 138.199116 229.876333 
L 138.256201 229.187951 
L 138.313099 229.187951 
L 138.369812 228.614299 
L 138.426341 228.614299 
L 138.482688 227.696457 
L 138.538853 227.696457 
L 138.594838 227.352266 
L 138.650644 227.352266 
L 138.761723 226.549153 
L 138.816998 226.549153 
L 138.927025 226.090232 
L 138.981779 226.090232 
L 139.090775 224.828198 
L 139.145019 224.828198 
L 139.253002 224.254546 
L 139.306744 224.254546 
L 139.413734 223.680895 
L 139.466984 223.680895 
L 139.572998 222.533591 
L 139.625765 222.533591 
L 139.730821 221.386288 
L 139.783113 221.386288 
L 139.887228 220.468445 
L 139.939053 220.468445 
L 140.042245 218.86222 
L 140.093612 218.86222 
L 140.195896 218.288568 
L 140.246813 218.288568 
L 140.348205 217.600186 
L 140.39868 217.600186 
L 140.499195 215.879231 
L 140.549236 215.879231 
L 140.599134 215.190849 
L 140.698504 215.190849 
L 140.79731 214.502467 
L 140.846504 214.502467 
L 140.944478 213.125703 
L 140.993259 213.125703 
L 141.090414 211.404748 
L 141.187031 211.404748 
L 141.283115 210.257444 
L 141.33096 210.257444 
L 141.426256 208.65122 
L 141.47371 208.65122 
L 141.568232 207.733377 
L 141.615302 207.733377 
L 141.709062 206.815534 
L 141.755753 206.815534 
L 141.848763 205.5535 
L 141.895083 205.5535 
L 141.987354 204.176736 
L 142.033307 204.176736 
L 142.124852 203.144163 
L 142.170445 203.144163 
L 142.261275 201.767399 
L 142.306513 201.767399 
L 142.396639 201.308478 
L 142.441528 201.308478 
L 142.53096 199.243331 
L 142.619936 199.243331 
L 142.664255 198.440219 
L 142.752555 198.440219 
L 142.796538 197.178185 
L 142.884173 197.178185 
L 142.971369 194.883578 
L 143.014805 194.883578 
L 143.101352 194.309927 
L 143.144465 194.309927 
L 143.230373 193.392084 
L 143.273169 193.392084 
L 143.358447 192.01532 
L 143.40093 192.01532 
L 143.485587 191.212207 
L 143.527762 191.212207 
L 143.611807 189.720713 
L 143.653678 189.720713 
L 143.737119 189.376522 
L 143.778691 189.376522 
L 143.861538 188.68814 
L 143.902815 188.68814 
L 143.943994 188.229218 
L 144.026061 188.229218 
L 144.107744 187.655567 
L 144.148442 187.655567 
L 144.229555 187.196645 
L 144.269971 187.196645 
L 144.350522 186.164072 
L 144.390658 186.164072 
L 144.470655 185.705151 
L 144.510517 185.705151 
L 144.589967 185.47569 
L 144.629556 185.47569 
L 144.708467 184.213656 
L 144.747789 184.213656 
L 144.826168 183.295814 
L 144.904196 183.295814 
L 144.94308 182.14851 
L 145.020588 182.14851 
L 145.059213 181.804319 
L 145.136208 181.804319 
L 145.212864 181.001207 
L 145.289185 181.001207 
L 145.365173 179.968634 
L 145.403044 179.968634 
L 145.478539 179.280252 
L 145.516164 179.280252 
L 145.591172 177.788757 
L 145.628555 177.788757 
L 145.665858 177.444566 
L 145.740226 177.444566 
L 145.851187 176.870914 
L 145.888018 176.870914 
L 145.998045 176.067802 
L 146.143677 176.067802 
L 146.252108 175.26469 
L 146.288102 175.26469 
L 146.395642 174.232116 
L 146.431341 174.232116 
L 146.538004 173.199543 
L 146.573414 173.199543 
L 146.679213 171.708049 
L 146.714338 171.708049 
L 146.819289 170.790206 
L 146.854132 170.790206 
L 146.958248 169.298712 
L 146.992815 169.298712 
L 147.061745 168.266139 
L 147.130404 168.266139 
L 147.232888 167.004105 
L 147.266916 167.004105 
L 147.368603 165.51261 
L 147.402367 165.51261 
L 147.50327 162.529621 
L 147.603592 162.529621 
L 147.70334 161.038127 
L 147.736463 161.038127 
L 147.835457 159.087711 
L 147.86833 159.087711 
L 147.96658 158.284599 
L 147.999207 158.284599 
L 148.096724 154.613228 
L 148.129109 154.613228 
L 148.225905 152.548082 
L 148.258051 152.548082 
L 148.354135 150.712396 
L 148.386046 150.712396 
L 148.48143 148.188328 
L 148.513109 148.188328 
L 148.607802 145.20534 
L 148.639252 145.20534 
L 148.733265 143.140193 
L 148.76449 143.140193 
L 148.857832 141.189778 
L 148.888835 141.189778 
L 148.981515 138.206789 
L 149.012299 138.206789 
L 149.104327 135.109069 
L 149.134896 135.109069 
L 149.226281 133.158653 
L 149.256637 133.158653 
L 149.347388 130.634586 
L 149.377533 130.634586 
L 149.467659 126.848485 
L 149.497598 126.848485 
L 149.587107 123.291844 
L 149.616841 123.291844 
L 149.705742 121.685619 
L 149.735275 121.685619 
L 149.823575 118.932091 
L 149.852909 118.932091 
L 149.940618 116.637484 
L 149.969756 116.637484 
L 150.05688 114.228147 
L 150.085825 114.228147 
L 150.172372 112.277731 
L 150.201126 112.277731 
L 150.287105 109.868394 
L 150.31567 109.868394 
L 150.401087 108.49163 
L 150.429467 108.49163 
L 150.51433 105.967562 
L 150.542526 105.967562 
L 150.598782 104.705528 
L 150.654857 104.705528 
L 150.738632 103.902416 
L 150.766468 103.902416 
L 150.87737 102.181461 
L 150.904986 102.181461 
L 151.015013 100.919427 
L 151.042412 100.919427 
L 151.124351 100.116315 
L 151.178764 100.116315 
L 151.287083 98.73955 
L 151.314058 98.73955 
L 151.421542 97.362786 
L 151.44831 97.362786 
L 151.554972 96.330213 
L 151.581536 96.330213 
L 151.68739 95.18291 
L 151.713753 95.18291 
L 151.818809 93.117764 
L 151.844975 93.117764 
L 151.923236 91.85573 
L 151.975216 91.85573 
L 152.078714 90.478966 
L 152.104493 90.478966 
L 152.207228 88.64328 
L 152.232818 88.64328 
L 152.309362 87.381246 
L 152.410901 87.381246 
L 152.511852 86.348673 
L 152.536999 86.348673 
L 152.612222 85.20137 
L 152.687123 85.20137 
L 152.786492 84.512988 
L 152.835965 84.512988 
L 152.909913 83.824606 
L 152.959038 83.824606 
L 153.032466 83.136224 
L 153.129893 83.136224 
L 153.226778 82.218381 
L 153.275019 82.218381 
L 153.371104 81.415268 
L 153.395042 81.415268 
L 153.49047 80.612156 
L 153.537988 80.612156 
L 153.632638 80.153235 
L 153.656221 80.153235 
L 153.726778 79.809044 
L 153.820412 79.809044 
L 153.890309 79.579583 
L 153.936752 79.579583 
L 154.006185 79.005931 
L 154.098334 79.005931 
L 154.19 78.54701 
L 154.235652 78.54701 
L 154.303908 78.202819 
L 154.371897 78.202819 
L 154.46214 77.858628 
L 154.484627 77.858628 
L 154.57429 77.629167 
L 154.596634 77.629167 
L 154.685723 77.055515 
L 154.707925 77.055515 
L 154.796449 76.481864 
L 154.840544 76.481864 
L 154.906477 76.252403 
L 154.994001 76.252403 
L 155.059358 75.678751 
L 155.146121 75.678751 
L 155.232454 75.33456 
L 155.275461 75.33456 
L 155.296925 74.875639 
L 155.425155 74.875639 
L 155.531298 73.728335 
L 155.55245 73.728335 
L 155.657823 73.039953 
L 155.678822 73.039953 
L 155.783437 72.351571 
L 155.804285 72.351571 
L 155.887428 71.433729 
L 155.928852 71.433729 
L 156.031982 70.860077 
L 156.052535 70.860077 
L 156.154939 69.712773 
L 156.175347 69.712773 
L 156.256744 68.6802 
L 156.297301 68.6802 
L 156.398281 66.729785 
L 156.418408 66.729785 
L 156.518691 65.926672 
L 156.538679 65.926672 
L 156.638275 65.008829 
L 156.677955 65.008829 
L 156.776762 64.205717 
L 156.796456 64.205717 
L 156.894595 62.828953 
L 156.914157 62.828953 
L 157.011638 61.79638 
L 157.031069 61.79638 
L 157.108577 61.337458 
L 157.147202 61.337458 
L 157.243392 60.649076 
L 157.262567 60.649076 
L 157.358125 59.272312 
L 157.377174 59.272312 
L 157.472107 58.58393 
L 157.509937 58.58393 
L 157.58535 57.895548 
L 157.697862 57.895548 
L 157.79107 57.207166 
L 157.828215 57.207166 
L 157.939176 56.633514 
L 157.957601 56.633514 
L 158.067744 56.174593 
L 158.122556 56.174593 
L 158.231665 55.37148 
L 158.340096 55.37148 
L 158.412011 55.14202 
L 158.625992 55.14202 
L 158.625992 55.027289 
L 159.906985 55.027289 
L 159.98913 54.683098 
L 160.02188 54.683098 
L 160.103486 54.109447 
L 160.329974 54.109447 
L 160.410154 53.879986 
L 160.489968 53.879986 
L 160.585265 53.535795 
L 160.601097 53.535795 
L 160.69579 52.962143 
L 160.727241 52.962143 
L 160.80562 52.388492 
L 160.852479 52.388492 
L 160.961329 51.92957 
L 160.976823 51.92957 
L 161.069504 51.241188 
L 161.11566 51.241188 
L 161.222884 50.896997 
L 161.283861 50.896997 
L 161.374928 50.208615 
L 161.420284 50.208615 
L 161.510643 49.864424 
L 161.570623 49.864424 
L 161.570623 49.520233 
L 161.70483 49.520233 
L 161.70483 49.290772 
L 161.823263 49.290772 
L 161.88218 48.946581 
L 161.940898 48.946581 
L 161.999419 48.60239 
L 162.072295 48.60239 
L 162.159347 48.258199 
L 162.217141 48.258199 
L 162.217141 48.143469 
L 162.403659 48.143469 
L 162.403659 48.028738 
L 162.531628 48.028738 
L 162.616422 47.799278 
L 162.644595 47.799278 
L 162.644595 47.684547 
L 162.784783 47.684547 
L 162.826621 47.455087 
L 162.909996 47.455087 
L 163.020547 46.996165 
L 163.048075 46.996165 
L 163.130401 46.766705 
L 163.185069 46.766705 
L 163.225959 46.422514 
L 163.307451 46.422514 
L 163.320996 46.193053 
L 163.428979 46.193053 
L 163.50953 45.963592 
L 163.563025 45.963592 
L 163.629664 45.27521 
L 163.682792 45.27521 
L 163.775378 44.816289 
L 163.854349 44.816289 
L 163.946031 44.357368 
L 164.037234 44.357368 
L 164.11503 43.898446 
L 164.166702 43.898446 
L 164.243924 43.668985 
L 164.295217 43.668985 
L 164.384616 43.210064 
L 164.460881 43.210064 
L 164.460881 43.095334 
L 164.700211 43.095334 
L 164.75018 42.751143 
L 164.899235 42.751143 
L 164.923954 42.521682 
L 165.034758 42.521682 
L 165.144862 42.292221 
L 165.169236 42.292221 
L 165.230021 41.94803 
L 165.314766 41.94803 
L 165.338904 41.71857 
L 165.459092 41.71857 
L 165.53081 41.489109 
L 165.896723 41.489109 
L 165.896723 41.374379 
L 166.197807 41.374379 
L 166.232216 40.800727 
L 166.516342 40.800727 
L 166.617505 40.456536 
L 166.639906 40.456536 
L 166.740356 39.997614 
L 166.773712 39.997614 
L 166.773712 39.882884 
L 167.00543 39.882884 
L 167.038282 39.653423 
L 167.125588 39.653423 
L 167.125588 39.538693 
L 167.363449 39.538693 
L 167.470505 38.965041 
L 167.587512 38.965041 
L 167.619287 38.735581 
L 167.745812 38.735581 
L 167.840107 38.161929 
L 167.860992 38.161929 
L 167.860992 38.047199 
L 168.027181 38.047199 
L 168.13025 37.703008 
L 168.161052 37.703008 
L 168.263336 37.244086 
L 168.273531 37.244086 
L 168.304082 36.899895 
L 168.48627 36.899895 
L 168.596677 36.555704 
L 168.626667 36.555704 
L 168.656606 36.326243 
L 168.8746 36.326243 
L 168.972794 35.982052 
L 169.196565 35.982052 
L 169.225542 35.752592 
L 169.312185 35.752592 
L 169.312185 35.637861 
L 169.436581 35.637861 
L 169.48419 35.06421 
L 169.729685 35.06421 
L 169.832517 34.605288 
L 169.925477 34.605288 
L 169.925477 34.490558 
L 170.045589 34.490558 
L 170.100748 34.146367 
L 170.28336 34.146367 
L 170.328715 33.802176 
L 170.482048 33.802176 
L 170.482048 33.687446 
L 170.687376 33.687446 
L 170.767069 33.457985 
L 170.863978 33.457985 
L 170.863978 33.343255 
L 170.986544 33.343255 
L 170.986544 33.113794 
L 171.177424 33.113794 
L 171.24632 32.884333 
L 171.787903 32.884333 
L 171.871027 32.654872 
L 171.920711 32.654872 
L 172.019658 32.425412 
L 172.036094 32.425412 
L 172.036094 32.310681 
L 172.224011 32.310681 
L 172.296995 31.96649 
L 172.498143 31.96649 
L 172.60183 31.622299 
L 172.673253 31.622299 
L 172.720707 31.392839 
L 172.901427 31.392839 
L 172.994977 31.048648 
L 173.134368 31.048648 
L 173.134368 30.933917 
L 173.333764 30.933917 
L 173.432614 30.704457 
L 173.561039 30.704457 
L 173.621148 30.474996 
L 173.681051 30.474996 
L 173.710926 30.245535 
L 173.792818 30.245535 
L 173.822502 30.016075 
L 174.00689 30.016075 
L 174.021557 29.786614 
L 174.182087 29.786614 
L 174.225613 29.557153 
L 174.662065 29.557153 
L 174.718503 29.327692 
L 174.949398 29.327692 
L 175.018766 29.098232 
L 175.108535 29.098232 
L 175.142939 28.868771 
L 175.23891 28.868771 
L 175.347948 28.52458 
L 175.388663 28.52458 
L 175.422519 28.295119 
L 175.750876 28.295119 
L 175.750876 28.180389 
L 175.88973 28.180389 
L 175.88973 28.065659 
L 176.215951 28.065659 
L 176.274029 27.836198 
L 176.459861 27.836198 
L 176.459861 27.721468 
L 176.794453 27.721468 
L 176.794453 27.606737 
L 176.931477 27.606737 
L 176.931477 27.492007 
L 177.08589 27.492007 
L 177.135015 27.147816 
L 177.360434 27.147816 
L 177.360434 27.033086 
L 177.624761 27.033086 
L 177.624761 26.918355 
L 177.967182 26.918355 
L 178.048838 26.459434 
L 178.193707 26.459434 
L 178.193707 26.344704 
L 178.308742 26.344704 
L 178.337383 26.115243 
L 178.457163 26.115243 
L 178.462846 25.885782 
L 178.643741 25.885782 
L 178.750267 25.426861 
L 178.889448 25.426861 
L 178.889448 25.31213 
L 179.049518 25.31213 
L 179.104376 25.08267 
L 179.251636 25.08267 
L 179.284192 24.853209 
L 179.381498 24.853209 
L 179.435323 24.623748 
L 179.601132 24.623748 
L 179.601132 24.509018 
L 179.733711 24.509018 
L 179.791727 24.279557 
L 179.865289 24.279557 
L 179.865289 24.164827 
L 180.021883 24.164827 
L 180.032273 23.935366 
L 180.182234 23.935366 
L 180.182234 23.820636 
L 180.376802 23.820636 
L 180.473278 23.591175 
L 180.569223 23.591175 
L 180.669651 23.017524 
L 180.729632 23.017524 
L 180.729632 22.902793 
L 180.863838 22.902793 
L 180.868789 22.673333 
L 180.977353 22.673333 
L 180.977353 22.558602 
L 181.090134 22.558602 
L 181.168162 21.98495 
L 181.226455 21.98495 
L 181.226455 21.87022 
L 181.714232 21.87022 
L 181.784827 21.526029 
L 181.827047 21.526029 
L 181.827047 21.411299 
L 181.953098 21.411299 
L 181.953098 21.296568 
L 182.142783 21.296568 
L 182.151983 21.067108 
L 182.646201 21.067108 
L 182.646201 20.952377 
L 182.775365 20.952377 
L 182.815256 20.493456 
L 183.052709 20.493456 
L 183.157214 20.263995 
L 183.278351 20.263995 
L 183.338605 20.034535 
L 183.445687 20.034535 
L 183.53513 19.575613 
L 183.670549 19.575613 
L 183.670549 19.460883 
L 183.996292 19.460883 
L 184.087079 19.231422 
L 184.1364 19.231422 
L 184.1364 19.116692 
L 184.38903 19.116692 
L 184.38903 19.001962 
L 185.129553 19.001962 
L 185.156672 18.772501 
L 185.372117 18.772501 
L 185.387404 18.54304 
L 185.550905 18.54304 
L 185.550905 18.42831 
L 185.754083 18.42831 
L 185.754083 18.313579 
L 185.91049 18.313579 
L 185.91049 18.198849 
L 186.160784 18.198849 
L 186.215516 17.969388 
L 186.277338 17.969388 
L 186.317224 17.739928 
L 186.661502 17.739928 
L 186.682796 17.510467 
L 186.855725 17.510467 
L 186.855725 17.395737 
L 187.148244 17.395737 
L 187.1724 17.166276 
L 187.611683 17.166276 
L 187.611683 17.051546 
L 188.700159 17.051546 
L 188.700159 16.936815 
L 189.943737 16.936815 
L 189.943737 16.822085 
L 190.107707 16.822085 
L 190.107707 16.707355 
L 190.293233 16.707355 
L 190.293233 16.592624 
L 190.482512 16.592624 
L 190.482512 16.477894 
L 190.604734 16.477894 
L 190.604734 16.363164 
L 190.742974 16.363164 
L 190.742974 16.248433 
L 191.099003 16.248433 
L 191.178666 15.674782 
L 191.678471 15.674782 
L 191.678471 15.560051 
L 191.877083 15.560051 
L 191.877083 15.445321 
L 191.997789 15.445321 
L 192.036969 15.21586 
L 192.216075 15.21586 
L 192.216075 15.10113 
L 192.591622 15.10113 
L 192.591622 14.9864 
L 192.802644 14.9864 
L 192.802644 14.871669 
L 193.367708 14.871669 
L 193.367708 14.756939 
L 193.557646 14.756939 
L 193.557646 14.642209 
L 193.844612 14.642209 
L 193.844612 14.527478 
L 193.959491 14.527478 
L 194.036434 14.298017 
L 194.168541 14.298017 
L 194.193921 14.068557 
L 194.36142 14.068557 
L 194.36142 13.953826 
L 194.599557 13.953826 
L 194.599557 13.839096 
L 194.740894 13.839096 
L 194.740894 13.724366 
L 195.061905 13.724366 
L 195.061905 13.609635 
L 195.377114 13.609635 
L 195.377114 13.494905 
L 195.62949 13.494905 
L 195.62949 13.380175 
L 195.750104 13.380175 
L 195.750104 13.265444 
L 195.978455 13.265444 
L 195.978455 13.150714 
L 196.575847 13.150714 
L 196.575847 13.035984 
L 196.839328 13.035984 
L 196.839328 12.921253 
L 197.248531 12.921253 
L 197.248531 12.806523 
L 198.182867 12.806523 
L 198.182867 12.691793 
L 198.594331 12.691793 
L 198.594331 12.577062 
L 199.734945 12.577062 
L 199.734945 12.462332 
L 199.88365 12.462332 
L 199.88365 12.347602 
L 200.047587 12.347602 
L 200.12816 12.118141 
L 200.551178 12.118141 
L 200.551178 12.003411 
L 202.122685 12.003411 
L 202.122685 11.88868 
L 202.30609 11.88868 
L 202.30609 11.77395 
L 205.501567 11.77395 
L 205.501567 11.65922 
L 205.884313 11.65922 
L 205.884313 11.544489 
L 206.17553 11.544489 
L 206.17553 11.429759 
L 207.698358 11.429759 
L 207.698358 11.315029 
L 208.957007 11.315029 
L 208.957007 11.200298 
L 209.233656 11.200298 
L 209.233656 11.085568 
L 211.000068 11.085568 
L 211.000068 10.970838 
L 338.688 10.970838 
L 338.688 10.970838 
" style="fill:none;stroke:#008000;stroke-linecap:square;stroke-width:1.5;"/>
   </g>
   <g id="line2d_36">
    <defs>
     <path d="M -0 6 
L 6 -6 
L -6 -6 
z
" id="m8f47e07b03" style="stroke:#008000;stroke-linejoin:miter;stroke-width:1.5;"/>
    </defs>
    <g>
     <use style="fill-opacity:0;stroke:#008000;stroke-linejoin:miter;stroke-width:1.5;" x="139.036363" xlink:href="#m8f47e07b03" y="225.172389"/>
     <use style="fill-opacity:0;stroke:#008000;stroke-linejoin:miter;stroke-width:1.5;" x="151.042412" xlink:href="#m8f47e07b03" y="100.689966"/>
     <use style="fill-opacity:0;stroke:#008000;stroke-linejoin:miter;stroke-width:1.5;" x="209.233656" xlink:href="#m8f47e07b03" y="11.085568"/>
     <use style="fill-opacity:0;stroke:#008000;stroke-linejoin:miter;stroke-width:1.5;" x="211.000068" xlink:href="#m8f47e07b03" y="10.970838"/>
     <use style="fill-opacity:0;stroke:#008000;stroke-linejoin:miter;stroke-width:1.5;" x="211.000068" xlink:href="#m8f47e07b03" y="10.970838"/>
     <use style="fill-opacity:0;stroke:#008000;stroke-linejoin:miter;stroke-width:1.5;" x="338.688" xlink:href="#m8f47e07b03" y="10.970838"/>
    </g>
   </g>
   <g id="line2d_37">
    <path style="fill:none;stroke:#008000;stroke-linecap:square;stroke-width:1.5;"/>
    <g/>
   </g>
   <g id="line2d_38">
    <path clip-path="url(#p7f0a86057c)" d="M 160.410154 53.879986 
" style="fill:none;stroke:#008000;stroke-linecap:square;stroke-width:1.5;"/>
    <defs>
     <path d="M -12 12 
L 12 -12 
M -12 -12 
L 12 12 
" id="mefecabfdb8" style="stroke:#008000;"/>
    </defs>
    <g clip-path="url(#p7f0a86057c)">
     <use style="fill:#008000;stroke:#008000;" x="160.410154" xlink:href="#mefecabfdb8" y="53.879986"/>
    </g>
   </g>
   <g id="line2d_39">
    <path d="M 338.688 10.970838 
L 369.60768 293.092752 
" style="fill:none;stroke:#008000;stroke-linecap:square;stroke-width:1.5;"/>
    <g>
     <use style="fill-opacity:0;stroke:#008000;stroke-linejoin:miter;stroke-width:1.5;" x="338.688" xlink:href="#m8f47e07b03" y="10.970838"/>
     <use style="fill-opacity:0;stroke:#008000;stroke-linejoin:miter;stroke-width:1.5;" x="369.60768" xlink:href="#m8f47e07b03" y="293.092752"/>
    </g>
   </g>
   <g id="line2d_40">
    <path d="M 338.688 7.528927 
L 369.60768 12.232871 
" style="fill:none;stroke:#00bfbf;stroke-linecap:square;stroke-width:1.5;"/>
    <g>
     <use style="fill-opacity:0;stroke:#00bfbf;stroke-width:1.5;" x="338.688" xlink:href="#me3939fe9e6" y="7.528927"/>
     <use style="fill-opacity:0;stroke:#00bfbf;stroke-width:1.5;" x="369.60768" xlink:href="#me3939fe9e6" y="12.232871"/>
    </g>
   </g>
   <g id="line2d_41">
    <path d="M 338.688 298.944 
L 338.688 6.381624 
" style="fill:none;stroke:#000000;stroke-linecap:square;stroke-width:1.5;"/>
   </g>
   <g id="patch_3">
    <path d="M 57.6 298.944 
L 57.6 3.456 
" style="fill:none;stroke:#000000;stroke-linecap:square;stroke-linejoin:miter;stroke-width:0.8;"/>
   </g>
   <g id="patch_4">
    <path d="M 338.688 298.944 
L 338.688 3.456 
" style="fill:none;stroke:#000000;stroke-linecap:square;stroke-linejoin:miter;stroke-width:0.8;"/>
   </g>
   <g id="patch_5">
    <path d="M 57.6 298.944 
L 338.688 298.944 
" style="fill:none;stroke:#000000;stroke-linecap:square;stroke-linejoin:miter;stroke-width:0.8;"/>
   </g>
   <g id="patch_6">
    <path d="M 57.6 3.456 
L 338.688 3.456 
" style="fill:none;stroke:#000000;stroke-linecap:square;stroke-linejoin:miter;stroke-width:0.8;"/>
   </g>
   <g id="text_13">
    <!-- 3-D -->
    <defs>
     <path d="M 40.578125 39.3125 
Q 47.65625 37.796875 51.625 33 
Q 55.609375 28.21875 55.609375 21.1875 
Q 55.609375 10.40625 48.1875 4.484375 
Q 40.765625 -1.421875 27.09375 -1.421875 
Q 22.515625 -1.421875 17.65625 -0.515625 
Q 12.796875 0.390625 7.625 2.203125 
L 7.625 11.71875 
Q 11.71875 9.328125 16.59375 8.109375 
Q 21.484375 6.890625 26.8125 6.890625 
Q 36.078125 6.890625 40.9375 10.546875 
Q 45.796875 14.203125 45.796875 21.1875 
Q 45.796875 27.640625 41.28125 31.265625 
Q 36.765625 34.90625 28.71875 34.90625 
L 20.21875 34.90625 
L 20.21875 43.015625 
L 29.109375 43.015625 
Q 36.375 43.015625 40.234375 45.921875 
Q 44.09375 48.828125 44.09375 54.296875 
Q 44.09375 59.90625 40.109375 62.90625 
Q 36.140625 65.921875 28.71875 65.921875 
Q 24.65625 65.921875 20.015625 65.03125 
Q 15.375 64.15625 9.8125 62.3125 
L 9.8125 71.09375 
Q 15.4375 72.65625 20.34375 73.4375 
Q 25.25 74.21875 29.59375 74.21875 
Q 40.828125 74.21875 47.359375 69.109375 
Q 53.90625 64.015625 53.90625 55.328125 
Q 53.90625 49.265625 50.4375 45.09375 
Q 46.96875 40.921875 40.578125 39.3125 
z
" id="DejaVuSans-51"/>
     <path d="M 19.671875 64.796875 
L 19.671875 8.109375 
L 31.59375 8.109375 
Q 46.6875 8.109375 53.6875 14.9375 
Q 60.6875 21.78125 60.6875 36.53125 
Q 60.6875 51.171875 53.6875 57.984375 
Q 46.6875 64.796875 31.59375 64.796875 
z
M 9.8125 72.90625 
L 30.078125 72.90625 
Q 51.265625 72.90625 61.171875 64.09375 
Q 71.09375 55.28125 71.09375 36.53125 
Q 71.09375 17.671875 61.125 8.828125 
Q 51.171875 0 30.078125 0 
L 9.8125 0 
z
" id="DejaVuSans-68"/>
    </defs>
    <g transform="translate(375.22944 297.78369)scale(0.17 -0.17)">
     <use xlink:href="#DejaVuSans-51"/>
     <use x="63.623047" xlink:href="#DejaVuSans-45"/>
     <use x="99.707031" xlink:href="#DejaVuSans-68"/>
    </g>
   </g>
   <g id="text_14">
    <!-- 2-D -->
    <g transform="translate(375.22944 16.923809)scale(0.17 -0.17)">
     <use xlink:href="#DejaVuSans-50"/>
     <use x="63.623047" xlink:href="#DejaVuSans-45"/>
     <use x="99.707031" xlink:href="#DejaVuSans-68"/>
    </g>
   </g>
   <g id="text_15">
    <!-- bbob f10-f14 -->
    <defs>
     <path d="M 48.6875 27.296875 
Q 48.6875 37.203125 44.609375 42.84375 
Q 40.53125 48.484375 33.40625 48.484375 
Q 26.265625 48.484375 22.1875 42.84375 
Q 18.109375 37.203125 18.109375 27.296875 
Q 18.109375 17.390625 22.1875 11.75 
Q 26.265625 6.109375 33.40625 6.109375 
Q 40.53125 6.109375 44.609375 11.75 
Q 48.6875 17.390625 48.6875 27.296875 
z
M 18.109375 46.390625 
Q 20.953125 51.265625 25.265625 53.625 
Q 29.59375 56 35.59375 56 
Q 45.5625 56 51.78125 48.09375 
Q 58.015625 40.1875 58.015625 27.296875 
Q 58.015625 14.40625 51.78125 6.484375 
Q 45.5625 -1.421875 35.59375 -1.421875 
Q 29.59375 -1.421875 25.265625 0.953125 
Q 20.953125 3.328125 18.109375 8.203125 
L 18.109375 0 
L 9.078125 0 
L 9.078125 75.984375 
L 18.109375 75.984375 
z
" id="DejaVuSans-98"/>
    </defs>
    <g transform="translate(60.41088 14.161286)scale(0.102 -0.102)">
     <use xlink:href="#DejaVuSans-98"/>
     <use x="63.476562" xlink:href="#DejaVuSans-98"/>
     <use x="126.953125" xlink:href="#DejaVuSans-111"/>
     <use x="188.134766" xlink:href="#DejaVuSans-98"/>
     <use x="251.611328" xlink:href="#DejaVuSans-32"/>
     <use x="283.398438" xlink:href="#DejaVuSans-102"/>
     <use x="318.603516" xlink:href="#DejaVuSans-49"/>
     <use x="382.226562" xlink:href="#DejaVuSans-48"/>
     <use x="445.849609" xlink:href="#DejaVuSans-45"/>
     <use x="481.933594" xlink:href="#DejaVuSans-102"/>
     <use x="517.138672" xlink:href="#DejaVuSans-49"/>
     <use x="580.761719" xlink:href="#DejaVuSans-52"/>
    </g>
    <!-- 51 targets: 100..1e-08 -->
    <defs>
     <path d="M 10.796875 72.90625 
L 49.515625 72.90625 
L 49.515625 64.59375 
L 19.828125 64.59375 
L 19.828125 46.734375 
Q 21.96875 47.46875 24.109375 47.828125 
Q 26.265625 48.1875 28.421875 48.1875 
Q 40.625 48.1875 47.75 41.5 
Q 54.890625 34.8125 54.890625 23.390625 
Q 54.890625 11.625 47.5625 5.09375 
Q 40.234375 -1.421875 26.90625 -1.421875 
Q 22.3125 -1.421875 17.546875 -0.640625 
Q 12.796875 0.140625 7.71875 1.703125 
L 7.71875 11.625 
Q 12.109375 9.234375 16.796875 8.0625 
Q 21.484375 6.890625 26.703125 6.890625 
Q 35.15625 6.890625 40.078125 11.328125 
Q 45.015625 15.765625 45.015625 23.390625 
Q 45.015625 31 40.078125 35.4375 
Q 35.15625 39.890625 26.703125 39.890625 
Q 22.75 39.890625 18.8125 39.015625 
Q 14.890625 38.140625 10.796875 36.28125 
z
" id="DejaVuSans-53"/>
     <path d="M 11.71875 12.40625 
L 22.015625 12.40625 
L 22.015625 0 
L 11.71875 0 
z
M 11.71875 51.703125 
L 22.015625 51.703125 
L 22.015625 39.3125 
L 11.71875 39.3125 
z
" id="DejaVuSans-58"/>
    </defs>
    <g transform="translate(60.41088 25.583055)scale(0.102 -0.102)">
     <use xlink:href="#DejaVuSans-53"/>
     <use x="63.623047" xlink:href="#DejaVuSans-49"/>
     <use x="127.246094" xlink:href="#DejaVuSans-32"/>
     <use x="159.033203" xlink:href="#DejaVuSans-116"/>
     <use x="198.242188" xlink:href="#DejaVuSans-97"/>
     <use x="259.521484" xlink:href="#DejaVuSans-114"/>
     <use x="298.884766" xlink:href="#DejaVuSans-103"/>
     <use x="362.361328" xlink:href="#DejaVuSans-101"/>
     <use x="423.884766" xlink:href="#DejaVuSans-116"/>
     <use x="463.09375" xlink:href="#DejaVuSans-115"/>
     <use x="515.193359" xlink:href="#DejaVuSans-58"/>
     <use x="548.884766" xlink:href="#DejaVuSans-32"/>
     <use x="580.671875" xlink:href="#DejaVuSans-49"/>
     <use x="644.294922" xlink:href="#DejaVuSans-48"/>
     <use x="707.917969" xlink:href="#DejaVuSans-48"/>
     <use x="771.541016" xlink:href="#DejaVuSans-46"/>
     <use x="803.328125" xlink:href="#DejaVuSans-46"/>
     <use x="835.115234" xlink:href="#DejaVuSans-49"/>
     <use x="898.738281" xlink:href="#DejaVuSans-101"/>
     <use x="960.261719" xlink:href="#DejaVuSans-45"/>
     <use x="996.345703" xlink:href="#DejaVuSans-48"/>
     <use x="1059.96875" xlink:href="#DejaVuSans-56"/>
    </g>
    <!-- 15 instances -->
    <g transform="translate(60.41088 37.004824)scale(0.102 -0.102)">
     <use xlink:href="#DejaVuSans-49"/>
     <use x="63.623047" xlink:href="#DejaVuSans-53"/>
     <use x="127.246094" xlink:href="#DejaVuSans-32"/>
     <use x="159.033203" xlink:href="#DejaVuSans-105"/>
     <use x="186.816406" xlink:href="#DejaVuSans-110"/>
     <use x="250.195312" xlink:href="#DejaVuSans-115"/>
     <use x="302.294922" xlink:href="#DejaVuSans-116"/>
     <use x="341.503906" xlink:href="#DejaVuSans-97"/>
     <use x="402.783203" xlink:href="#DejaVuSans-110"/>
     <use x="466.162109" xlink:href="#DejaVuSans-99"/>
     <use x="521.142578" xlink:href="#DejaVuSans-101"/>
     <use x="582.666016" xlink:href="#DejaVuSans-115"/>
    </g>
   </g>
   <g id="text_16">
    <!-- v2.3.3.5 -->
    <g style="fill:#808080;" transform="translate(177.692437 293.909432)scale(0.1 -0.1)">
     <use xlink:href="#DejaVuSans-118"/>
     <use x="59.179688" xlink:href="#DejaVuSans-50"/>
     <use x="122.802734" xlink:href="#DejaVuSans-46"/>
     <use x="154.589844" xlink:href="#DejaVuSans-51"/>
     <use x="218.212891" xlink:href="#DejaVuSans-46"/>
     <use x="250" xlink:href="#DejaVuSans-51"/>
     <use x="313.623047" xlink:href="#DejaVuSans-46"/>
     <use x="345.410156" xlink:href="#DejaVuSans-53"/>
    </g>
   </g>
  </g>
 </g>
 <defs>
  <clipPath id="p7f0a86057c">
   <rect height="295.488" width="281.088" x="57.6" y="3.456"/>
  </clipPath>
 </defs>
</svg>
