<?xml version="1.0" encoding="utf-8" standalone="no"?>
<!DOCTYPE svg PUBLIC "-//W3C//DTD SVG 1.1//EN"
  "http://www.w3.org/Graphics/SVG/1.1/DTD/svg11.dtd">
<!-- Created with matplotlib (https://matplotlib.org/) -->
<svg height="345.6pt" version="1.1" viewBox="0 0 460.8 345.6" width="460.8pt" xmlns="http://www.w3.org/2000/svg" xmlns:xlink="http://www.w3.org/1999/xlink">
 <defs>
  <style type="text/css">
*{stroke-linecap:butt;stroke-linejoin:round;}
  </style>
 </defs>
 <g id="figure_1">
  <g id="patch_1">
   <path d="M 0 345.6 
L 460.8 345.6 
L 460.8 0 
L 0 0 
z
" style="fill:#ffffff;"/>
  </g>
  <g id="axes_1">
   <g id="patch_2">
    <path d="M 57.6 298.944 
L 338.688 298.944 
L 338.688 3.456 
L 57.6 3.456 
z
" style="fill:#ffffff;"/>
   </g>
   <g id="matplotlib.axis_1">
    <g id="xtick_1">
     <g id="line2d_1">
      <path clip-path="url(#p9ab27e42b7)" d="M 57.6 298.944 
L 57.6 3.456 
" style="fill:none;stroke:#b0b0b0;stroke-linecap:square;stroke-width:0.8;"/>
     </g>
     <g id="line2d_2">
      <defs>
       <path d="M 0 0 
L 0 3.5 
" id="m043b8b7818" style="stroke:#000000;stroke-width:0.8;"/>
      </defs>
      <g>
       <use style="stroke:#000000;stroke-width:0.8;" x="57.6" xlink:href="#m043b8b7818" y="298.944"/>
      </g>
     </g>
     <g id="text_1">
      <!-- 0 -->
      <defs>
       <path d="M 31.78125 66.40625 
Q 24.171875 66.40625 20.328125 58.90625 
Q 16.5 51.421875 16.5 36.375 
Q 16.5 21.390625 20.328125 13.890625 
Q 24.171875 6.390625 31.78125 6.390625 
Q 39.453125 6.390625 43.28125 13.890625 
Q 47.125 21.390625 47.125 36.375 
Q 47.125 51.421875 43.28125 58.90625 
Q 39.453125 66.40625 31.78125 66.40625 
z
M 31.78125 74.21875 
Q 44.046875 74.21875 50.515625 64.515625 
Q 56.984375 54.828125 56.984375 36.375 
Q 56.984375 17.96875 50.515625 8.265625 
Q 44.046875 -1.421875 31.78125 -1.421875 
Q 19.53125 -1.421875 13.0625 8.265625 
Q 6.59375 17.96875 6.59375 36.375 
Q 6.59375 54.828125 13.0625 64.515625 
Q 19.53125 74.21875 31.78125 74.21875 
z
" id="DejaVuSans-48"/>
      </defs>
      <g transform="translate(51.2375 321.140875)scale(0.2 -0.2)">
       <use xlink:href="#DejaVuSans-48"/>
      </g>
     </g>
    </g>
    <g id="xtick_2">
     <g id="line2d_3">
      <path clip-path="url(#p9ab27e42b7)" d="M 137.910857 298.944 
L 137.910857 3.456 
" style="fill:none;stroke:#b0b0b0;stroke-linecap:square;stroke-width:0.8;"/>
     </g>
     <g id="line2d_4">
      <g>
       <use style="stroke:#000000;stroke-width:0.8;" x="137.910857" xlink:href="#m043b8b7818" y="298.944"/>
      </g>
     </g>
     <g id="text_2">
      <!-- 2 -->
      <defs>
       <path d="M 19.1875 8.296875 
L 53.609375 8.296875 
L 53.609375 0 
L 7.328125 0 
L 7.328125 8.296875 
Q 12.9375 14.109375 22.625 23.890625 
Q 32.328125 33.6875 34.8125 36.53125 
Q 39.546875 41.84375 41.421875 45.53125 
Q 43.3125 49.21875 43.3125 52.78125 
Q 43.3125 58.59375 39.234375 62.25 
Q 35.15625 65.921875 28.609375 65.921875 
Q 23.96875 65.921875 18.8125 64.3125 
Q 13.671875 62.703125 7.8125 59.421875 
L 7.8125 69.390625 
Q 13.765625 71.78125 18.9375 73 
Q 24.125 74.21875 28.421875 74.21875 
Q 39.75 74.21875 46.484375 68.546875 
Q 53.21875 62.890625 53.21875 53.421875 
Q 53.21875 48.921875 51.53125 44.890625 
Q 49.859375 40.875 45.40625 35.40625 
Q 44.1875 33.984375 37.640625 27.21875 
Q 31.109375 20.453125 19.1875 8.296875 
z
" id="DejaVuSans-50"/>
      </defs>
      <g transform="translate(131.548357 321.140875)scale(0.2 -0.2)">
       <use xlink:href="#DejaVuSans-50"/>
      </g>
     </g>
    </g>
    <g id="xtick_3">
     <g id="line2d_5">
      <path clip-path="url(#p9ab27e42b7)" d="M 218.221714 298.944 
L 218.221714 3.456 
" style="fill:none;stroke:#b0b0b0;stroke-linecap:square;stroke-width:0.8;"/>
     </g>
     <g id="line2d_6">
      <g>
       <use style="stroke:#000000;stroke-width:0.8;" x="218.221714" xlink:href="#m043b8b7818" y="298.944"/>
      </g>
     </g>
     <g id="text_3">
      <!-- 4 -->
      <defs>
       <path d="M 37.796875 64.3125 
L 12.890625 25.390625 
L 37.796875 25.390625 
z
M 35.203125 72.90625 
L 47.609375 72.90625 
L 47.609375 25.390625 
L 58.015625 25.390625 
L 58.015625 17.1875 
L 47.609375 17.1875 
L 47.609375 0 
L 37.796875 0 
L 37.796875 17.1875 
L 4.890625 17.1875 
L 4.890625 26.703125 
z
" id="DejaVuSans-52"/>
      </defs>
      <g transform="translate(211.859214 321.140875)scale(0.2 -0.2)">
       <use xlink:href="#DejaVuSans-52"/>
      </g>
     </g>
    </g>
    <g id="xtick_4">
     <g id="line2d_7">
      <path clip-path="url(#p9ab27e42b7)" d="M 298.532571 298.944 
L 298.532571 3.456 
" style="fill:none;stroke:#b0b0b0;stroke-linecap:square;stroke-width:0.8;"/>
     </g>
     <g id="line2d_8">
      <g>
       <use style="stroke:#000000;stroke-width:0.8;" x="298.532571" xlink:href="#m043b8b7818" y="298.944"/>
      </g>
     </g>
     <g id="text_4">
      <!-- 6 -->
      <defs>
       <path d="M 33.015625 40.375 
Q 26.375 40.375 22.484375 35.828125 
Q 18.609375 31.296875 18.609375 23.390625 
Q 18.609375 15.53125 22.484375 10.953125 
Q 26.375 6.390625 33.015625 6.390625 
Q 39.65625 6.390625 43.53125 10.953125 
Q 47.40625 15.53125 47.40625 23.390625 
Q 47.40625 31.296875 43.53125 35.828125 
Q 39.65625 40.375 33.015625 40.375 
z
M 52.59375 71.296875 
L 52.59375 62.3125 
Q 48.875 64.0625 45.09375 64.984375 
Q 41.3125 65.921875 37.59375 65.921875 
Q 27.828125 65.921875 22.671875 59.328125 
Q 17.53125 52.734375 16.796875 39.40625 
Q 19.671875 43.65625 24.015625 45.921875 
Q 28.375 48.1875 33.59375 48.1875 
Q 44.578125 48.1875 50.953125 41.515625 
Q 57.328125 34.859375 57.328125 23.390625 
Q 57.328125 12.15625 50.6875 5.359375 
Q 44.046875 -1.421875 33.015625 -1.421875 
Q 20.359375 -1.421875 13.671875 8.265625 
Q 6.984375 17.96875 6.984375 36.375 
Q 6.984375 53.65625 15.1875 63.9375 
Q 23.390625 74.21875 37.203125 74.21875 
Q 40.921875 74.21875 44.703125 73.484375 
Q 48.484375 72.75 52.59375 71.296875 
z
" id="DejaVuSans-54"/>
      </defs>
      <g transform="translate(292.170071 321.140875)scale(0.2 -0.2)">
       <use xlink:href="#DejaVuSans-54"/>
      </g>
     </g>
    </g>
    <g id="xtick_5">
     <g id="line2d_9">
      <path clip-path="url(#p9ab27e42b7)" d="M 97.755429 298.944 
L 97.755429 3.456 
" style="fill:none;stroke:#b0b0b0;stroke-linecap:square;stroke-width:0.8;"/>
     </g>
     <g id="line2d_10">
      <defs>
       <path d="M 0 0 
L 0 2 
" id="m00e03572d6" style="stroke:#000000;stroke-width:0.6;"/>
      </defs>
      <g>
       <use style="stroke:#000000;stroke-width:0.6;" x="97.755429" xlink:href="#m00e03572d6" y="298.944"/>
      </g>
     </g>
    </g>
    <g id="xtick_6">
     <g id="line2d_11">
      <path clip-path="url(#p9ab27e42b7)" d="M 178.066286 298.944 
L 178.066286 3.456 
" style="fill:none;stroke:#b0b0b0;stroke-linecap:square;stroke-width:0.8;"/>
     </g>
     <g id="line2d_12">
      <g>
       <use style="stroke:#000000;stroke-width:0.6;" x="178.066286" xlink:href="#m00e03572d6" y="298.944"/>
      </g>
     </g>
    </g>
    <g id="xtick_7">
     <g id="line2d_13">
      <path clip-path="url(#p9ab27e42b7)" d="M 258.377143 298.944 
L 258.377143 3.456 
" style="fill:none;stroke:#b0b0b0;stroke-linecap:square;stroke-width:0.8;"/>
     </g>
     <g id="line2d_14">
      <g>
       <use style="stroke:#000000;stroke-width:0.6;" x="258.377143" xlink:href="#m00e03572d6" y="298.944"/>
      </g>
     </g>
    </g>
    <g id="xtick_8">
     <g id="line2d_15">
      <path clip-path="url(#p9ab27e42b7)" d="M 338.688 298.944 
L 338.688 3.456 
" style="fill:none;stroke:#b0b0b0;stroke-linecap:square;stroke-width:0.8;"/>
     </g>
     <g id="line2d_16">
      <g>
       <use style="stroke:#000000;stroke-width:0.6;" x="338.688" xlink:href="#m00e03572d6" y="298.944"/>
      </g>
     </g>
    </g>
    <g id="text_5">
     <!-- log10(# f-evals / dimension) -->
     <defs>
      <path d="M 9.421875 75.984375 
L 18.40625 75.984375 
L 18.40625 0 
L 9.421875 0 
z
" id="DejaVuSans-108"/>
      <path d="M 30.609375 48.390625 
Q 23.390625 48.390625 19.1875 42.75 
Q 14.984375 37.109375 14.984375 27.296875 
Q 14.984375 17.484375 19.15625 11.84375 
Q 23.34375 6.203125 30.609375 6.203125 
Q 37.796875 6.203125 41.984375 11.859375 
Q 46.1875 17.53125 46.1875 27.296875 
Q 46.1875 37.015625 41.984375 42.703125 
Q 37.796875 48.390625 30.609375 48.390625 
z
M 30.609375 56 
Q 42.328125 56 49.015625 48.375 
Q 55.71875 40.765625 55.71875 27.296875 
Q 55.71875 13.875 49.015625 6.21875 
Q 42.328125 -1.421875 30.609375 -1.421875 
Q 18.84375 -1.421875 12.171875 6.21875 
Q 5.515625 13.875 5.515625 27.296875 
Q 5.515625 40.765625 12.171875 48.375 
Q 18.84375 56 30.609375 56 
z
" id="DejaVuSans-111"/>
      <path d="M 45.40625 27.984375 
Q 45.40625 37.75 41.375 43.109375 
Q 37.359375 48.484375 30.078125 48.484375 
Q 22.859375 48.484375 18.828125 43.109375 
Q 14.796875 37.75 14.796875 27.984375 
Q 14.796875 18.265625 18.828125 12.890625 
Q 22.859375 7.515625 30.078125 7.515625 
Q 37.359375 7.515625 41.375 12.890625 
Q 45.40625 18.265625 45.40625 27.984375 
z
M 54.390625 6.78125 
Q 54.390625 -7.171875 48.1875 -13.984375 
Q 42 -20.796875 29.203125 -20.796875 
Q 24.46875 -20.796875 20.265625 -20.09375 
Q 16.0625 -19.390625 12.109375 -17.921875 
L 12.109375 -9.1875 
Q 16.0625 -11.328125 19.921875 -12.34375 
Q 23.78125 -13.375 27.78125 -13.375 
Q 36.625 -13.375 41.015625 -8.765625 
Q 45.40625 -4.15625 45.40625 5.171875 
L 45.40625 9.625 
Q 42.625 4.78125 38.28125 2.390625 
Q 33.9375 0 27.875 0 
Q 17.828125 0 11.671875 7.65625 
Q 5.515625 15.328125 5.515625 27.984375 
Q 5.515625 40.671875 11.671875 48.328125 
Q 17.828125 56 27.875 56 
Q 33.9375 56 38.28125 53.609375 
Q 42.625 51.21875 45.40625 46.390625 
L 45.40625 54.6875 
L 54.390625 54.6875 
z
" id="DejaVuSans-103"/>
      <path d="M 12.40625 8.296875 
L 28.515625 8.296875 
L 28.515625 63.921875 
L 10.984375 60.40625 
L 10.984375 69.390625 
L 28.421875 72.90625 
L 38.28125 72.90625 
L 38.28125 8.296875 
L 54.390625 8.296875 
L 54.390625 0 
L 12.40625 0 
z
" id="DejaVuSans-49"/>
      <path d="M 31 75.875 
Q 24.46875 64.65625 21.28125 53.65625 
Q 18.109375 42.671875 18.109375 31.390625 
Q 18.109375 20.125 21.3125 9.0625 
Q 24.515625 -2 31 -13.1875 
L 23.1875 -13.1875 
Q 15.875 -1.703125 12.234375 9.375 
Q 8.59375 20.453125 8.59375 31.390625 
Q 8.59375 42.28125 12.203125 53.3125 
Q 15.828125 64.359375 23.1875 75.875 
z
" id="DejaVuSans-40"/>
      <path d="M 51.125 44 
L 36.921875 44 
L 32.8125 27.6875 
L 47.125 27.6875 
z
M 43.796875 71.78125 
L 38.71875 51.515625 
L 52.984375 51.515625 
L 58.109375 71.78125 
L 65.921875 71.78125 
L 60.890625 51.515625 
L 76.125 51.515625 
L 76.125 44 
L 58.984375 44 
L 54.984375 27.6875 
L 70.515625 27.6875 
L 70.515625 20.21875 
L 53.078125 20.21875 
L 48 0 
L 40.1875 0 
L 45.21875 20.21875 
L 30.90625 20.21875 
L 25.875 0 
L 18.015625 0 
L 23.09375 20.21875 
L 7.71875 20.21875 
L 7.71875 27.6875 
L 24.90625 27.6875 
L 29 44 
L 13.28125 44 
L 13.28125 51.515625 
L 30.90625 51.515625 
L 35.890625 71.78125 
z
" id="DejaVuSans-35"/>
      <path id="DejaVuSans-32"/>
      <path d="M 37.109375 75.984375 
L 37.109375 68.5 
L 28.515625 68.5 
Q 23.6875 68.5 21.796875 66.546875 
Q 19.921875 64.59375 19.921875 59.515625 
L 19.921875 54.6875 
L 34.71875 54.6875 
L 34.71875 47.703125 
L 19.921875 47.703125 
L 19.921875 0 
L 10.890625 0 
L 10.890625 47.703125 
L 2.296875 47.703125 
L 2.296875 54.6875 
L 10.890625 54.6875 
L 10.890625 58.5 
Q 10.890625 67.625 15.140625 71.796875 
Q 19.390625 75.984375 28.609375 75.984375 
z
" id="DejaVuSans-102"/>
      <path d="M 4.890625 31.390625 
L 31.203125 31.390625 
L 31.203125 23.390625 
L 4.890625 23.390625 
z
" id="DejaVuSans-45"/>
      <path d="M 56.203125 29.59375 
L 56.203125 25.203125 
L 14.890625 25.203125 
Q 15.484375 15.921875 20.484375 11.0625 
Q 25.484375 6.203125 34.421875 6.203125 
Q 39.59375 6.203125 44.453125 7.46875 
Q 49.3125 8.734375 54.109375 11.28125 
L 54.109375 2.78125 
Q 49.265625 0.734375 44.1875 -0.34375 
Q 39.109375 -1.421875 33.890625 -1.421875 
Q 20.796875 -1.421875 13.15625 6.1875 
Q 5.515625 13.8125 5.515625 26.8125 
Q 5.515625 40.234375 12.765625 48.109375 
Q 20.015625 56 32.328125 56 
Q 43.359375 56 49.78125 48.890625 
Q 56.203125 41.796875 56.203125 29.59375 
z
M 47.21875 32.234375 
Q 47.125 39.59375 43.09375 43.984375 
Q 39.0625 48.390625 32.421875 48.390625 
Q 24.90625 48.390625 20.390625 44.140625 
Q 15.875 39.890625 15.1875 32.171875 
z
" id="DejaVuSans-101"/>
      <path d="M 2.984375 54.6875 
L 12.5 54.6875 
L 29.59375 8.796875 
L 46.6875 54.6875 
L 56.203125 54.6875 
L 35.6875 0 
L 23.484375 0 
z
" id="DejaVuSans-118"/>
      <path d="M 34.28125 27.484375 
Q 23.390625 27.484375 19.1875 25 
Q 14.984375 22.515625 14.984375 16.5 
Q 14.984375 11.71875 18.140625 8.90625 
Q 21.296875 6.109375 26.703125 6.109375 
Q 34.1875 6.109375 38.703125 11.40625 
Q 43.21875 16.703125 43.21875 25.484375 
L 43.21875 27.484375 
z
M 52.203125 31.203125 
L 52.203125 0 
L 43.21875 0 
L 43.21875 8.296875 
Q 40.140625 3.328125 35.546875 0.953125 
Q 30.953125 -1.421875 24.3125 -1.421875 
Q 15.921875 -1.421875 10.953125 3.296875 
Q 6 8.015625 6 15.921875 
Q 6 25.140625 12.171875 29.828125 
Q 18.359375 34.515625 30.609375 34.515625 
L 43.21875 34.515625 
L 43.21875 35.40625 
Q 43.21875 41.609375 39.140625 45 
Q 35.0625 48.390625 27.6875 48.390625 
Q 23 48.390625 18.546875 47.265625 
Q 14.109375 46.140625 10.015625 43.890625 
L 10.015625 52.203125 
Q 14.9375 54.109375 19.578125 55.046875 
Q 24.21875 56 28.609375 56 
Q 40.484375 56 46.34375 49.84375 
Q 52.203125 43.703125 52.203125 31.203125 
z
" id="DejaVuSans-97"/>
      <path d="M 44.28125 53.078125 
L 44.28125 44.578125 
Q 40.484375 46.53125 36.375 47.5 
Q 32.28125 48.484375 27.875 48.484375 
Q 21.1875 48.484375 17.84375 46.4375 
Q 14.5 44.390625 14.5 40.28125 
Q 14.5 37.15625 16.890625 35.375 
Q 19.28125 33.59375 26.515625 31.984375 
L 29.59375 31.296875 
Q 39.15625 29.25 43.1875 25.515625 
Q 47.21875 21.78125 47.21875 15.09375 
Q 47.21875 7.46875 41.1875 3.015625 
Q 35.15625 -1.421875 24.609375 -1.421875 
Q 20.21875 -1.421875 15.453125 -0.5625 
Q 10.6875 0.296875 5.421875 2 
L 5.421875 11.28125 
Q 10.40625 8.6875 15.234375 7.390625 
Q 20.0625 6.109375 24.8125 6.109375 
Q 31.15625 6.109375 34.5625 8.28125 
Q 37.984375 10.453125 37.984375 14.40625 
Q 37.984375 18.0625 35.515625 20.015625 
Q 33.0625 21.96875 24.703125 23.78125 
L 21.578125 24.515625 
Q 13.234375 26.265625 9.515625 29.90625 
Q 5.8125 33.546875 5.8125 39.890625 
Q 5.8125 47.609375 11.28125 51.796875 
Q 16.75 56 26.8125 56 
Q 31.78125 56 36.171875 55.265625 
Q 40.578125 54.546875 44.28125 53.078125 
z
" id="DejaVuSans-115"/>
      <path d="M 25.390625 72.90625 
L 33.6875 72.90625 
L 8.296875 -9.28125 
L 0 -9.28125 
z
" id="DejaVuSans-47"/>
      <path d="M 45.40625 46.390625 
L 45.40625 75.984375 
L 54.390625 75.984375 
L 54.390625 0 
L 45.40625 0 
L 45.40625 8.203125 
Q 42.578125 3.328125 38.25 0.953125 
Q 33.9375 -1.421875 27.875 -1.421875 
Q 17.96875 -1.421875 11.734375 6.484375 
Q 5.515625 14.40625 5.515625 27.296875 
Q 5.515625 40.1875 11.734375 48.09375 
Q 17.96875 56 27.875 56 
Q 33.9375 56 38.25 53.625 
Q 42.578125 51.265625 45.40625 46.390625 
z
M 14.796875 27.296875 
Q 14.796875 17.390625 18.875 11.75 
Q 22.953125 6.109375 30.078125 6.109375 
Q 37.203125 6.109375 41.296875 11.75 
Q 45.40625 17.390625 45.40625 27.296875 
Q 45.40625 37.203125 41.296875 42.84375 
Q 37.203125 48.484375 30.078125 48.484375 
Q 22.953125 48.484375 18.875 42.84375 
Q 14.796875 37.203125 14.796875 27.296875 
z
" id="DejaVuSans-100"/>
      <path d="M 9.421875 54.6875 
L 18.40625 54.6875 
L 18.40625 0 
L 9.421875 0 
z
M 9.421875 75.984375 
L 18.40625 75.984375 
L 18.40625 64.59375 
L 9.421875 64.59375 
z
" id="DejaVuSans-105"/>
      <path d="M 52 44.1875 
Q 55.375 50.25 60.0625 53.125 
Q 64.75 56 71.09375 56 
Q 79.640625 56 84.28125 50.015625 
Q 88.921875 44.046875 88.921875 33.015625 
L 88.921875 0 
L 79.890625 0 
L 79.890625 32.71875 
Q 79.890625 40.578125 77.09375 44.375 
Q 74.3125 48.1875 68.609375 48.1875 
Q 61.625 48.1875 57.5625 43.546875 
Q 53.515625 38.921875 53.515625 30.90625 
L 53.515625 0 
L 44.484375 0 
L 44.484375 32.71875 
Q 44.484375 40.625 41.703125 44.40625 
Q 38.921875 48.1875 33.109375 48.1875 
Q 26.21875 48.1875 22.15625 43.53125 
Q 18.109375 38.875 18.109375 30.90625 
L 18.109375 0 
L 9.078125 0 
L 9.078125 54.6875 
L 18.109375 54.6875 
L 18.109375 46.1875 
Q 21.1875 51.21875 25.484375 53.609375 
Q 29.78125 56 35.6875 56 
Q 41.65625 56 45.828125 52.96875 
Q 50 49.953125 52 44.1875 
z
" id="DejaVuSans-109"/>
      <path d="M 54.890625 33.015625 
L 54.890625 0 
L 45.90625 0 
L 45.90625 32.71875 
Q 45.90625 40.484375 42.875 44.328125 
Q 39.84375 48.1875 33.796875 48.1875 
Q 26.515625 48.1875 22.3125 43.546875 
Q 18.109375 38.921875 18.109375 30.90625 
L 18.109375 0 
L 9.078125 0 
L 9.078125 54.6875 
L 18.109375 54.6875 
L 18.109375 46.1875 
Q 21.34375 51.125 25.703125 53.5625 
Q 30.078125 56 35.796875 56 
Q 45.21875 56 50.046875 50.171875 
Q 54.890625 44.34375 54.890625 33.015625 
z
" id="DejaVuSans-110"/>
      <path d="M 8.015625 75.875 
L 15.828125 75.875 
Q 23.140625 64.359375 26.78125 53.3125 
Q 30.421875 42.28125 30.421875 31.390625 
Q 30.421875 20.453125 26.78125 9.375 
Q 23.140625 -1.703125 15.828125 -13.1875 
L 8.015625 -13.1875 
Q 14.5 -2 17.703125 9.0625 
Q 20.90625 20.125 20.90625 31.390625 
Q 20.90625 42.671875 17.703125 53.65625 
Q 14.5 64.65625 8.015625 75.875 
z
" id="DejaVuSans-41"/>
     </defs>
     <g transform="translate(77.764078 342.217594)scale(0.17 -0.17)">
      <use xlink:href="#DejaVuSans-108"/>
      <use x="27.783203" xlink:href="#DejaVuSans-111"/>
      <use x="88.964844" xlink:href="#DejaVuSans-103"/>
      <use x="152.441406" xlink:href="#DejaVuSans-49"/>
      <use x="216.064453" xlink:href="#DejaVuSans-48"/>
      <use x="279.6875" xlink:href="#DejaVuSans-40"/>
      <use x="318.701172" xlink:href="#DejaVuSans-35"/>
      <use x="402.490234" xlink:href="#DejaVuSans-32"/>
      <use x="434.277344" xlink:href="#DejaVuSans-102"/>
      <use x="463.982422" xlink:href="#DejaVuSans-45"/>
      <use x="500.066406" xlink:href="#DejaVuSans-101"/>
      <use x="561.589844" xlink:href="#DejaVuSans-118"/>
      <use x="620.769531" xlink:href="#DejaVuSans-97"/>
      <use x="682.048828" xlink:href="#DejaVuSans-108"/>
      <use x="709.832031" xlink:href="#DejaVuSans-115"/>
      <use x="761.931641" xlink:href="#DejaVuSans-32"/>
      <use x="793.71875" xlink:href="#DejaVuSans-47"/>
      <use x="827.410156" xlink:href="#DejaVuSans-32"/>
      <use x="859.197266" xlink:href="#DejaVuSans-100"/>
      <use x="922.673828" xlink:href="#DejaVuSans-105"/>
      <use x="950.457031" xlink:href="#DejaVuSans-109"/>
      <use x="1047.869141" xlink:href="#DejaVuSans-101"/>
      <use x="1109.392578" xlink:href="#DejaVuSans-110"/>
      <use x="1172.771484" xlink:href="#DejaVuSans-115"/>
      <use x="1224.871094" xlink:href="#DejaVuSans-105"/>
      <use x="1252.654297" xlink:href="#DejaVuSans-111"/>
      <use x="1313.835938" xlink:href="#DejaVuSans-110"/>
      <use x="1377.214844" xlink:href="#DejaVuSans-41"/>
     </g>
    </g>
   </g>
   <g id="matplotlib.axis_2">
    <g id="ytick_1">
     <g id="line2d_17">
      <path clip-path="url(#p9ab27e42b7)" d="M 57.6 298.944 
L 338.688 298.944 
" style="fill:none;stroke:#b0b0b0;stroke-linecap:square;stroke-width:0.8;"/>
     </g>
     <g id="line2d_18">
      <defs>
       <path d="M 0 0 
L -3.5 0 
" id="m921ef6859e" style="stroke:#000000;stroke-width:0.8;"/>
      </defs>
      <g>
       <use style="stroke:#000000;stroke-width:0.8;" x="57.6" xlink:href="#m921ef6859e" y="298.944"/>
      </g>
     </g>
     <g id="text_6">
      <!-- 0.0 -->
      <defs>
       <path d="M 10.6875 12.40625 
L 21 12.40625 
L 21 0 
L 10.6875 0 
z
" id="DejaVuSans-46"/>
      </defs>
      <g transform="translate(25.155 305.02275)scale(0.16 -0.16)">
       <use xlink:href="#DejaVuSans-48"/>
       <use x="63.623047" xlink:href="#DejaVuSans-46"/>
       <use x="95.410156" xlink:href="#DejaVuSans-48"/>
      </g>
     </g>
    </g>
    <g id="ytick_2">
     <g id="line2d_19">
      <path clip-path="url(#p9ab27e42b7)" d="M 57.6 240.431525 
L 338.688 240.431525 
" style="fill:none;stroke:#b0b0b0;stroke-linecap:square;stroke-width:0.8;"/>
     </g>
     <g id="line2d_20">
      <g>
       <use style="stroke:#000000;stroke-width:0.8;" x="57.6" xlink:href="#m921ef6859e" y="240.431525"/>
      </g>
     </g>
     <g id="text_7">
      <!-- 0.2 -->
      <g transform="translate(25.155 246.510275)scale(0.16 -0.16)">
       <use xlink:href="#DejaVuSans-48"/>
       <use x="63.623047" xlink:href="#DejaVuSans-46"/>
       <use x="95.410156" xlink:href="#DejaVuSans-50"/>
      </g>
     </g>
    </g>
    <g id="ytick_3">
     <g id="line2d_21">
      <path clip-path="url(#p9ab27e42b7)" d="M 57.6 181.91905 
L 338.688 181.91905 
" style="fill:none;stroke:#b0b0b0;stroke-linecap:square;stroke-width:0.8;"/>
     </g>
     <g id="line2d_22">
      <g>
       <use style="stroke:#000000;stroke-width:0.8;" x="57.6" xlink:href="#m921ef6859e" y="181.91905"/>
      </g>
     </g>
     <g id="text_8">
      <!-- 0.4 -->
      <g transform="translate(25.155 187.9978)scale(0.16 -0.16)">
       <use xlink:href="#DejaVuSans-48"/>
       <use x="63.623047" xlink:href="#DejaVuSans-46"/>
       <use x="95.410156" xlink:href="#DejaVuSans-52"/>
      </g>
     </g>
    </g>
    <g id="ytick_4">
     <g id="line2d_23">
      <path clip-path="url(#p9ab27e42b7)" d="M 57.6 123.406574 
L 338.688 123.406574 
" style="fill:none;stroke:#b0b0b0;stroke-linecap:square;stroke-width:0.8;"/>
     </g>
     <g id="line2d_24">
      <g>
       <use style="stroke:#000000;stroke-width:0.8;" x="57.6" xlink:href="#m921ef6859e" y="123.406574"/>
      </g>
     </g>
     <g id="text_9">
      <!-- 0.6 -->
      <g transform="translate(25.155 129.485324)scale(0.16 -0.16)">
       <use xlink:href="#DejaVuSans-48"/>
       <use x="63.623047" xlink:href="#DejaVuSans-46"/>
       <use x="95.410156" xlink:href="#DejaVuSans-54"/>
      </g>
     </g>
    </g>
    <g id="ytick_5">
     <g id="line2d_25">
      <path clip-path="url(#p9ab27e42b7)" d="M 57.6 64.894099 
L 338.688 64.894099 
" style="fill:none;stroke:#b0b0b0;stroke-linecap:square;stroke-width:0.8;"/>
     </g>
     <g id="line2d_26">
      <g>
       <use style="stroke:#000000;stroke-width:0.8;" x="57.6" xlink:href="#m921ef6859e" y="64.894099"/>
      </g>
     </g>
     <g id="text_10">
      <!-- 0.8 -->
      <defs>
       <path d="M 31.78125 34.625 
Q 24.75 34.625 20.71875 30.859375 
Q 16.703125 27.09375 16.703125 20.515625 
Q 16.703125 13.921875 20.71875 10.15625 
Q 24.75 6.390625 31.78125 6.390625 
Q 38.8125 6.390625 42.859375 10.171875 
Q 46.921875 13.96875 46.921875 20.515625 
Q 46.921875 27.09375 42.890625 30.859375 
Q 38.875 34.625 31.78125 34.625 
z
M 21.921875 38.8125 
Q 15.578125 40.375 12.03125 44.71875 
Q 8.5 49.078125 8.5 55.328125 
Q 8.5 64.0625 14.71875 69.140625 
Q 20.953125 74.21875 31.78125 74.21875 
Q 42.671875 74.21875 48.875 69.140625 
Q 55.078125 64.0625 55.078125 55.328125 
Q 55.078125 49.078125 51.53125 44.71875 
Q 48 40.375 41.703125 38.8125 
Q 48.828125 37.15625 52.796875 32.3125 
Q 56.78125 27.484375 56.78125 20.515625 
Q 56.78125 9.90625 50.3125 4.234375 
Q 43.84375 -1.421875 31.78125 -1.421875 
Q 19.734375 -1.421875 13.25 4.234375 
Q 6.78125 9.90625 6.78125 20.515625 
Q 6.78125 27.484375 10.78125 32.3125 
Q 14.796875 37.15625 21.921875 38.8125 
z
M 18.3125 54.390625 
Q 18.3125 48.734375 21.84375 45.5625 
Q 25.390625 42.390625 31.78125 42.390625 
Q 38.140625 42.390625 41.71875 45.5625 
Q 45.3125 48.734375 45.3125 54.390625 
Q 45.3125 60.0625 41.71875 63.234375 
Q 38.140625 66.40625 31.78125 66.40625 
Q 25.390625 66.40625 21.84375 63.234375 
Q 18.3125 60.0625 18.3125 54.390625 
z
" id="DejaVuSans-56"/>
      </defs>
      <g transform="translate(25.155 70.972849)scale(0.16 -0.16)">
       <use xlink:href="#DejaVuSans-48"/>
       <use x="63.623047" xlink:href="#DejaVuSans-46"/>
       <use x="95.410156" xlink:href="#DejaVuSans-56"/>
      </g>
     </g>
    </g>
    <g id="ytick_6">
     <g id="line2d_27">
      <path clip-path="url(#p9ab27e42b7)" d="M 57.6 6.381624 
L 338.688 6.381624 
" style="fill:none;stroke:#b0b0b0;stroke-linecap:square;stroke-width:0.8;"/>
     </g>
     <g id="line2d_28">
      <g>
       <use style="stroke:#000000;stroke-width:0.8;" x="57.6" xlink:href="#m921ef6859e" y="6.381624"/>
      </g>
     </g>
     <g id="text_11">
      <!-- 1.0 -->
      <g transform="translate(25.155 12.460374)scale(0.16 -0.16)">
       <use xlink:href="#DejaVuSans-49"/>
       <use x="63.623047" xlink:href="#DejaVuSans-46"/>
       <use x="95.410156" xlink:href="#DejaVuSans-48"/>
      </g>
     </g>
    </g>
    <g id="text_12">
     <!-- Fraction of function,target pairs -->
     <defs>
      <path d="M 9.8125 72.90625 
L 51.703125 72.90625 
L 51.703125 64.59375 
L 19.671875 64.59375 
L 19.671875 43.109375 
L 48.578125 43.109375 
L 48.578125 34.8125 
L 19.671875 34.8125 
L 19.671875 0 
L 9.8125 0 
z
" id="DejaVuSans-70"/>
      <path d="M 41.109375 46.296875 
Q 39.59375 47.171875 37.8125 47.578125 
Q 36.03125 48 33.890625 48 
Q 26.265625 48 22.1875 43.046875 
Q 18.109375 38.09375 18.109375 28.8125 
L 18.109375 0 
L 9.078125 0 
L 9.078125 54.6875 
L 18.109375 54.6875 
L 18.109375 46.1875 
Q 20.953125 51.171875 25.484375 53.578125 
Q 30.03125 56 36.53125 56 
Q 37.453125 56 38.578125 55.875 
Q 39.703125 55.765625 41.0625 55.515625 
z
" id="DejaVuSans-114"/>
      <path d="M 48.78125 52.59375 
L 48.78125 44.1875 
Q 44.96875 46.296875 41.140625 47.34375 
Q 37.3125 48.390625 33.40625 48.390625 
Q 24.65625 48.390625 19.8125 42.84375 
Q 14.984375 37.3125 14.984375 27.296875 
Q 14.984375 17.28125 19.8125 11.734375 
Q 24.65625 6.203125 33.40625 6.203125 
Q 37.3125 6.203125 41.140625 7.25 
Q 44.96875 8.296875 48.78125 10.40625 
L 48.78125 2.09375 
Q 45.015625 0.34375 40.984375 -0.53125 
Q 36.96875 -1.421875 32.421875 -1.421875 
Q 20.0625 -1.421875 12.78125 6.34375 
Q 5.515625 14.109375 5.515625 27.296875 
Q 5.515625 40.671875 12.859375 48.328125 
Q 20.21875 56 33.015625 56 
Q 37.15625 56 41.109375 55.140625 
Q 45.0625 54.296875 48.78125 52.59375 
z
" id="DejaVuSans-99"/>
      <path d="M 18.3125 70.21875 
L 18.3125 54.6875 
L 36.8125 54.6875 
L 36.8125 47.703125 
L 18.3125 47.703125 
L 18.3125 18.015625 
Q 18.3125 11.328125 20.140625 9.421875 
Q 21.96875 7.515625 27.59375 7.515625 
L 36.8125 7.515625 
L 36.8125 0 
L 27.59375 0 
Q 17.1875 0 13.234375 3.875 
Q 9.28125 7.765625 9.28125 18.015625 
L 9.28125 47.703125 
L 2.6875 47.703125 
L 2.6875 54.6875 
L 9.28125 54.6875 
L 9.28125 70.21875 
z
" id="DejaVuSans-116"/>
      <path d="M 8.5 21.578125 
L 8.5 54.6875 
L 17.484375 54.6875 
L 17.484375 21.921875 
Q 17.484375 14.15625 20.5 10.265625 
Q 23.53125 6.390625 29.59375 6.390625 
Q 36.859375 6.390625 41.078125 11.03125 
Q 45.3125 15.671875 45.3125 23.6875 
L 45.3125 54.6875 
L 54.296875 54.6875 
L 54.296875 0 
L 45.3125 0 
L 45.3125 8.40625 
Q 42.046875 3.421875 37.71875 1 
Q 33.40625 -1.421875 27.6875 -1.421875 
Q 18.265625 -1.421875 13.375 4.4375 
Q 8.5 10.296875 8.5 21.578125 
z
M 31.109375 56 
z
" id="DejaVuSans-117"/>
      <path d="M 11.71875 12.40625 
L 22.015625 12.40625 
L 22.015625 4 
L 14.015625 -11.625 
L 7.71875 -11.625 
L 11.71875 4 
z
" id="DejaVuSans-44"/>
      <path d="M 18.109375 8.203125 
L 18.109375 -20.796875 
L 9.078125 -20.796875 
L 9.078125 54.6875 
L 18.109375 54.6875 
L 18.109375 46.390625 
Q 20.953125 51.265625 25.265625 53.625 
Q 29.59375 56 35.59375 56 
Q 45.5625 56 51.78125 48.09375 
Q 58.015625 40.1875 58.015625 27.296875 
Q 58.015625 14.40625 51.78125 6.484375 
Q 45.5625 -1.421875 35.59375 -1.421875 
Q 29.59375 -1.421875 25.265625 0.953125 
Q 20.953125 3.328125 18.109375 8.203125 
z
M 48.6875 27.296875 
Q 48.6875 37.203125 44.609375 42.84375 
Q 40.53125 48.484375 33.40625 48.484375 
Q 26.265625 48.484375 22.1875 42.84375 
Q 18.109375 37.203125 18.109375 27.296875 
Q 18.109375 17.390625 22.1875 11.75 
Q 26.265625 6.109375 33.40625 6.109375 
Q 40.53125 6.109375 44.609375 11.75 
Q 48.6875 17.390625 48.6875 27.296875 
z
" id="DejaVuSans-112"/>
     </defs>
     <g transform="translate(17.619531 285.585)rotate(-90)scale(0.17 -0.17)">
      <use xlink:href="#DejaVuSans-70"/>
      <use x="50.269531" xlink:href="#DejaVuSans-114"/>
      <use x="91.382812" xlink:href="#DejaVuSans-97"/>
      <use x="152.662109" xlink:href="#DejaVuSans-99"/>
      <use x="207.642578" xlink:href="#DejaVuSans-116"/>
      <use x="246.851562" xlink:href="#DejaVuSans-105"/>
      <use x="274.634766" xlink:href="#DejaVuSans-111"/>
      <use x="335.816406" xlink:href="#DejaVuSans-110"/>
      <use x="399.195312" xlink:href="#DejaVuSans-32"/>
      <use x="430.982422" xlink:href="#DejaVuSans-111"/>
      <use x="492.164062" xlink:href="#DejaVuSans-102"/>
      <use x="527.369141" xlink:href="#DejaVuSans-32"/>
      <use x="559.15625" xlink:href="#DejaVuSans-102"/>
      <use x="594.361328" xlink:href="#DejaVuSans-117"/>
      <use x="657.740234" xlink:href="#DejaVuSans-110"/>
      <use x="721.119141" xlink:href="#DejaVuSans-99"/>
      <use x="776.099609" xlink:href="#DejaVuSans-116"/>
      <use x="815.308594" xlink:href="#DejaVuSans-105"/>
      <use x="843.091797" xlink:href="#DejaVuSans-111"/>
      <use x="904.273438" xlink:href="#DejaVuSans-110"/>
      <use x="967.652344" xlink:href="#DejaVuSans-44"/>
      <use x="999.439453" xlink:href="#DejaVuSans-116"/>
      <use x="1038.648438" xlink:href="#DejaVuSans-97"/>
      <use x="1099.927734" xlink:href="#DejaVuSans-114"/>
      <use x="1139.291016" xlink:href="#DejaVuSans-103"/>
      <use x="1202.767578" xlink:href="#DejaVuSans-101"/>
      <use x="1264.291016" xlink:href="#DejaVuSans-116"/>
      <use x="1303.5" xlink:href="#DejaVuSans-32"/>
      <use x="1335.287109" xlink:href="#DejaVuSans-112"/>
      <use x="1398.763672" xlink:href="#DejaVuSans-97"/>
      <use x="1460.042969" xlink:href="#DejaVuSans-105"/>
      <use x="1487.826172" xlink:href="#DejaVuSans-114"/>
      <use x="1528.939453" xlink:href="#DejaVuSans-115"/>
     </g>
    </g>
   </g>
   <g id="line2d_29">
    <defs>
     <path d="M 0 1.5 
C 0.397805 1.5 0.77937 1.341951 1.06066 1.06066 
C 1.341951 0.77937 1.5 0.397805 1.5 0 
C 1.5 -0.397805 1.341951 -0.77937 1.06066 -1.06066 
C 0.77937 -1.341951 0.397805 -1.5 0 -1.5 
C -0.397805 -1.5 -0.77937 -1.341951 -1.06066 -1.06066 
C -1.341951 -0.77937 -1.5 -0.397805 -1.5 0 
C -1.5 0.397805 -1.341951 0.77937 -1.06066 1.06066 
C -0.77937 1.341951 -0.397805 1.5 0 1.5 
z
" id="me36ea1243d" style="stroke:#000080;"/>
    </defs>
    <g>
     <use style="fill:#000080;stroke:#000080;" x="171.442893" xlink:href="#me36ea1243d" y="6.381624"/>
     <use style="fill:#000080;stroke:#000080;" x="171.442893" xlink:href="#me36ea1243d" y="6.381624"/>
    </g>
   </g>
   <g id="line2d_30">
    <path d="M 120.093994 298.944 
L 120.093994 298.370348 
L 130.036864 298.370348 
L 130.036864 296.649393 
L 130.30865 296.649393 
L 130.30865 295.50209 
L 130.752422 295.50209 
L 130.839837 293.207483 
L 131.013364 293.207483 
L 131.013364 292.060179 
L 131.355321 292.060179 
L 131.355321 290.912876 
L 131.523818 290.912876 
L 131.60746 289.191921 
L 131.77355 289.191921 
L 131.77355 287.470966 
L 131.938072 287.470966 
L 131.938072 286.897314 
L 132.342714 286.897314 
L 132.422528 284.602707 
L 132.73818 284.602707 
L 132.816208 282.3081 
L 132.893889 282.3081 
L 132.971225 281.160797 
L 133.04822 281.160797 
L 133.04822 280.587145 
L 133.201197 280.587145 
L 133.277185 278.292538 
L 133.352844 278.292538 
L 133.352844 277.718886 
L 133.503183 277.718886 
L 133.503183 277.145235 
L 133.800029 277.145235 
L 133.800029 275.997931 
L 134.091907 275.997931 
L 134.091907 275.42428 
L 134.450015 275.42428 
L 134.450015 274.850628 
L 134.7313 274.850628 
L 134.7313 274.276976 
L 135.878591 274.276976 
L 135.943785 272.556021 
L 136.32991 272.556021 
L 136.393441 271.408718 
L 136.893527 271.408718 
L 136.893527 270.261414 
L 137.735587 270.261414 
L 137.735587 269.687762 
L 138.084384 269.687762 
L 138.084384 269.114111 
L 138.313099 269.114111 
L 138.313099 267.966807 
L 138.426341 267.966807 
L 138.426341 266.245852 
L 139.253002 266.245852 
L 139.253002 265.6722 
L 139.572998 265.6722 
L 139.572998 265.098549 
L 139.783113 265.098549 
L 139.887228 263.951245 
L 139.990725 263.951245 
L 139.990725 263.377593 
L 140.195896 263.377593 
L 140.195896 261.656638 
L 140.499195 261.656638 
L 140.599134 260.509335 
L 140.698504 260.509335 
L 140.698504 259.362031 
L 141.187031 259.362031 
L 141.187031 255.920121 
L 141.662245 255.920121 
L 141.662245 255.346469 
L 141.895083 255.346469 
L 141.987354 252.478211 
L 142.07914 252.478211 
L 142.07914 251.330907 
L 142.215919 251.330907 
L 142.215919 249.609952 
L 142.441528 249.609952 
L 142.53096 245.59439 
L 142.619936 245.59439 
L 142.619936 244.447087 
L 142.927826 244.447087 
L 143.014805 242.15248 
L 143.058132 242.15248 
L 143.101352 241.005176 
L 143.273169 241.005176 
L 143.273169 239.857873 
L 143.40093 239.857873 
L 143.485587 237.563266 
L 143.527762 237.563266 
L 143.527762 235.842311 
L 143.653678 235.842311 
L 143.737119 234.695008 
L 143.820164 234.695008 
L 143.820164 233.547704 
L 144.026061 233.547704 
L 144.107744 232.400401 
L 144.189046 232.400401 
L 144.269971 230.679446 
L 144.629556 230.679446 
L 144.629556 228.95849 
L 145.020588 228.95849 
L 145.059213 227.811187 
L 145.136208 227.811187 
L 145.136208 226.663884 
L 145.365173 226.663884 
L 145.440832 224.942928 
L 145.516164 224.942928 
L 145.516164 224.369277 
L 145.740226 224.369277 
L 145.740226 223.795625 
L 146.359869 223.795625 
L 146.466968 220.927366 
L 146.538004 220.927366 
L 146.538004 219.206411 
L 146.679213 219.206411 
L 146.714338 214.617197 
L 146.819289 214.617197 
L 146.888907 211.175287 
L 146.958248 211.175287 
L 147.027314 207.733377 
L 147.096109 207.733377 
L 147.198794 205.43877 
L 147.232888 205.43877 
L 147.334773 200.275904 
L 147.368603 200.275904 
L 147.4697 195.686691 
L 147.50327 195.686691 
L 147.603592 193.392084 
L 147.636905 193.392084 
L 147.736463 188.80287 
L 147.769524 188.80287 
L 147.835457 184.213656 
L 147.999207 184.213656 
L 148.096724 178.477139 
L 148.129109 178.477139 
L 148.225905 172.16697 
L 148.258051 172.16697 
L 148.354135 167.004105 
L 148.386046 167.004105 
L 148.48143 158.972981 
L 148.513109 158.972981 
L 148.607802 153.810115 
L 148.639252 153.810115 
L 148.733265 146.352643 
L 148.76449 146.352643 
L 148.826773 143.484384 
L 148.888835 143.484384 
L 148.981515 133.732305 
L 149.012299 133.732305 
L 149.104327 125.701181 
L 149.134896 125.701181 
L 149.226281 119.391012 
L 149.256637 119.391012 
L 149.347388 114.228147 
L 149.377533 114.228147 
L 149.467659 105.623371 
L 149.497598 105.623371 
L 149.587107 98.73955 
L 149.616841 98.73955 
L 149.676158 95.871292 
L 149.735275 95.871292 
L 149.823575 91.282078 
L 149.852909 91.282078 
L 149.940618 86.119213 
L 149.969756 86.119213 
L 150.05688 81.529999 
L 150.114722 81.529999 
L 150.201126 75.793482 
L 150.229833 75.793482 
L 150.287105 69.483313 
L 150.372662 69.483313 
L 150.457801 66.615054 
L 150.486088 66.615054 
L 150.570677 56.862975 
L 150.626842 56.862975 
L 150.682827 54.568368 
L 150.738632 54.568368 
L 150.849711 52.273761 
L 150.904986 52.273761 
L 151.015013 48.831851 
L 151.069768 48.831851 
L 151.151579 46.537244 
L 151.233007 46.537244 
L 151.314058 44.242637 
L 151.475037 44.242637 
L 151.528368 41.94803 
L 151.60806 41.94803 
L 151.713753 40.227075 
L 151.818809 40.227075 
L 151.923236 36.211513 
L 152.027042 36.211513 
L 152.130233 32.769603 
L 152.207228 32.769603 
L 152.309362 31.622299 
L 152.587184 31.622299 
L 152.587184 28.754041 
L 152.786492 28.754041 
L 152.786492 27.606737 
L 152.983548 27.606737 
L 153.032466 26.459434 
L 153.178403 26.459434 
L 153.226778 25.31213 
L 153.418948 25.31213 
L 153.49047 23.591175 
L 156.638275 23.591175 
L 156.638275 23.017524 
L 156.796456 23.017524 
L 156.894595 21.296568 
L 156.972711 21.296568 
L 156.972711 20.722917 
L 157.089232 20.722917 
L 157.089232 19.001962 
L 157.243392 19.001962 
L 157.243392 18.42831 
L 157.377174 18.42831 
L 157.377174 16.133703 
L 157.528821 16.133703 
L 157.528821 14.9864 
L 157.753847 14.9864 
L 157.809652 12.691793 
L 157.883783 12.691793 
L 157.883783 12.118141 
L 158.104304 12.118141 
L 158.177196 10.397186 
L 158.231665 10.397186 
L 158.340096 8.676231 
L 158.412011 8.676231 
L 158.412011 7.528927 
L 164.997901 7.528927 
L 164.997901 6.955275 
L 171.442893 6.955275 
L 171.442893 6.381624 
L 338.688 6.381624 
L 338.688 6.381624 
" style="fill:none;stroke:#000080;stroke-linecap:square;stroke-width:1.5;"/>
   </g>
   <g id="line2d_31">
    <defs>
     <path d="M 0 6 
C 1.591219 6 3.117479 5.367802 4.242641 4.242641 
C 5.367802 3.117479 6 1.591219 6 0 
C 6 -1.591219 5.367802 -3.117479 4.242641 -4.242641 
C 3.117479 -5.367802 1.591219 -6 0 -6 
C -1.591219 -6 -3.117479 -5.367802 -4.242641 -4.242641 
C -5.367802 -3.117479 -6 -1.591219 -6 0 
C -6 1.591219 -5.367802 3.117479 -4.242641 4.242641 
C -3.117479 5.367802 -1.591219 6 0 6 
z
" id="mec67b80280" style="stroke:#000080;stroke-width:1.5;"/>
    </defs>
    <g>
     <use style="fill-opacity:0;stroke:#000080;stroke-width:1.5;" x="148.161434" xlink:href="#mec67b80280" y="175.608881"/>
     <use style="fill-opacity:0;stroke:#000080;stroke-width:1.5;" x="164.997901" xlink:href="#mec67b80280" y="6.955275"/>
     <use style="fill-opacity:0;stroke:#000080;stroke-width:1.5;" x="171.442893" xlink:href="#mec67b80280" y="6.381624"/>
     <use style="fill-opacity:0;stroke:#000080;stroke-width:1.5;" x="171.442893" xlink:href="#mec67b80280" y="6.381624"/>
     <use style="fill-opacity:0;stroke:#000080;stroke-width:1.5;" x="338.688" xlink:href="#mec67b80280" y="6.381624"/>
    </g>
   </g>
   <g id="line2d_32">
    <path style="fill:none;stroke:#000080;stroke-linecap:square;stroke-width:1.5;"/>
    <g/>
   </g>
   <g id="line2d_33">
    <path clip-path="url(#p9ab27e42b7)" d="M 160.249422 7.528927 
" style="fill:none;stroke:#000080;stroke-linecap:square;stroke-width:1.5;"/>
    <defs>
     <path d="M -12 12 
L 12 -12 
M -12 -12 
L 12 12 
" id="m1127941aaa" style="stroke:#000080;"/>
    </defs>
    <g clip-path="url(#p9ab27e42b7)">
     <use style="fill:#000080;stroke:#000080;" x="160.249422" xlink:href="#m1127941aaa" y="7.528927"/>
    </g>
   </g>
   <g id="line2d_34">
    <defs>
     <path d="M 0 1.5 
C 0.397805 1.5 0.77937 1.341951 1.06066 1.06066 
C 1.341951 0.77937 1.5 0.397805 1.5 0 
C 1.5 -0.397805 1.341951 -0.77937 1.06066 -1.06066 
C 0.77937 -1.341951 0.397805 -1.5 0 -1.5 
C -0.397805 -1.5 -0.77937 -1.341951 -1.06066 -1.06066 
C -1.341951 -0.77937 -1.5 -0.397805 -1.5 0 
C -1.5 0.397805 -1.341951 0.77937 -1.06066 1.06066 
C -0.77937 1.341951 -0.397805 1.5 0 1.5 
z
" id="md7c476ddb4" style="stroke:#ff00ff;"/>
    </defs>
    <g>
     <use style="fill:#ff00ff;stroke:#ff00ff;" x="175.347948" xlink:href="#md7c476ddb4" y="6.381624"/>
     <use style="fill:#ff00ff;stroke:#ff00ff;" x="175.347948" xlink:href="#md7c476ddb4" y="6.381624"/>
    </g>
   </g>
   <g id="line2d_35">
    <path d="M 104.826449 298.944 
L 104.826449 297.796697 
L 107.347841 297.796697 
L 107.347841 296.649393 
L 108.326001 296.649393 
L 108.326001 296.075741 
L 108.640231 296.075741 
L 108.640231 295.50209 
L 108.948899 295.50209 
L 108.948899 293.781135 
L 109.252198 293.781135 
L 109.252198 293.207483 
L 109.550313 293.207483 
L 109.550313 292.633831 
L 110.694282 292.633831 
L 110.694282 292.060179 
L 110.968922 292.060179 
L 110.968922 291.486528 
L 111.505558 291.486528 
L 111.505558 290.912876 
L 112.026172 290.912876 
L 112.026172 290.339224 
L 112.280765 290.339224 
L 112.280765 288.618269 
L 112.531694 288.618269 
L 112.531694 288.044617 
L 112.779064 288.044617 
L 112.779064 286.897314 
L 113.022974 286.897314 
L 113.022974 285.75001 
L 113.500792 285.75001 
L 113.500792 285.176359 
L 113.73488 285.176359 
L 113.73488 284.602707 
L 113.965867 284.602707 
L 113.965867 283.455404 
L 114.193835 283.455404 
L 114.193835 282.881752 
L 114.418861 282.881752 
L 114.418861 281.160797 
L 114.860386 281.160797 
L 114.860386 279.439842 
L 115.077025 279.439842 
L 115.077025 278.86619 
L 115.917635 278.86619 
L 115.917635 277.145235 
L 116.121606 277.145235 
L 116.121606 276.571583 
L 116.323218 276.571583 
L 116.323218 275.997931 
L 116.719583 275.997931 
L 116.719583 274.850628 
L 117.297733 274.850628 
L 117.297733 272.556021 
L 117.486268 272.556021 
L 117.486268 271.982369 
L 117.857331 271.982369 
L 117.857331 271.408718 
L 118.925375 271.408718 
L 118.925375 270.835066 
L 130.127931 270.835066 
L 130.127931 270.261414 
L 130.487516 270.261414 
L 130.487516 269.687762 
L 130.664567 269.687762 
L 130.664567 269.114111 
L 131.690703 269.114111 
L 131.690703 268.540459 
L 132.101058 268.540459 
L 132.101058 267.393156 
L 135.415281 267.393156 
L 135.415281 266.819504 
L 135.681535 266.819504 
L 135.681535 265.6722 
L 135.943785 265.6722 
L 135.943785 265.098549 
L 136.32991 265.098549 
L 136.393441 263.377593 
L 137.077422 263.377593 
L 137.077422 262.803942 
L 137.617753 262.803942 
L 137.676769 261.082987 
L 137.968891 261.082987 
L 137.968891 260.509335 
L 138.872098 260.509335 
L 138.872098 259.935683 
L 139.199094 259.935683 
L 139.199094 259.362031 
L 139.360321 259.362031 
L 139.466984 257.067425 
L 139.678372 257.067425 
L 139.730821 254.772818 
L 139.939053 254.772818 
L 140.042245 253.051863 
L 140.093612 253.051863 
L 140.093612 252.478211 
L 140.246813 252.478211 
L 140.297583 250.757256 
L 140.44901 250.757256 
L 140.44901 247.888997 
L 140.599134 247.888997 
L 140.64889 246.741694 
L 140.747977 246.741694 
L 140.846504 245.020738 
L 140.944478 245.020738 
L 140.993259 243.299783 
L 141.090414 243.299783 
L 141.090414 242.15248 
L 141.33096 242.15248 
L 141.378673 240.431525 
L 141.47371 240.431525 
L 141.47371 239.857873 
L 141.615302 239.857873 
L 141.662245 238.136918 
L 141.848763 238.136918 
L 141.848763 236.415963 
L 141.987354 236.415963 
L 142.033307 234.695008 
L 142.215919 234.695008 
L 142.215919 234.121356 
L 142.441528 234.121356 
L 142.53096 230.105794 
L 142.619936 230.105794 
L 142.664255 228.384839 
L 142.884173 228.384839 
L 142.971369 223.221973 
L 143.014805 223.221973 
L 143.014805 222.648321 
L 143.187472 222.648321 
L 143.273169 219.780063 
L 143.31586 219.780063 
L 143.358447 216.911804 
L 143.527762 216.911804 
L 143.611807 214.617197 
L 143.653678 214.617197 
L 143.737119 213.469894 
L 143.778691 213.469894 
L 143.820164 212.322591 
L 143.943994 212.322591 
L 143.943994 211.748939 
L 144.107744 211.748939 
L 144.107744 211.175287 
L 144.229555 211.175287 
L 144.229555 210.601635 
L 144.350522 210.601635 
L 144.430703 207.733377 
L 144.510517 207.733377 
L 144.510517 207.159725 
L 144.826168 207.159725 
L 144.826168 206.012422 
L 144.94308 206.012422 
L 144.94308 201.99686 
L 145.212864 201.99686 
L 145.212864 201.423208 
L 145.365173 201.423208 
L 145.365173 198.554949 
L 145.665858 198.554949 
L 145.665858 197.981298 
L 145.851187 197.981298 
L 145.961446 195.686691 
L 145.998045 195.686691 
L 146.071013 194.539387 
L 146.143677 194.539387 
L 146.143677 193.392084 
L 146.288102 193.392084 
L 146.324022 192.24478 
L 146.431341 192.24478 
L 146.431341 191.671129 
L 146.573414 191.671129 
L 146.644018 188.229218 
L 146.714338 188.229218 
L 146.749392 186.508263 
L 146.854132 186.508263 
L 146.854132 185.934612 
L 147.027314 185.934612 
L 147.130404 183.066353 
L 147.164632 183.066353 
L 147.232888 181.345398 
L 147.300877 181.345398 
L 147.402367 178.477139 
L 147.436066 178.477139 
L 147.50327 175.608881 
L 147.636905 175.608881 
L 147.736463 172.16697 
L 147.769524 172.16697 
L 147.86833 169.872363 
L 147.999207 169.872363 
L 148.096724 160.120284 
L 148.193699 160.120284 
L 148.258051 158.972981 
L 148.322166 158.972981 
L 148.417899 154.957419 
L 148.48143 154.957419 
L 148.576295 150.368205 
L 148.607802 150.368205 
L 148.607802 149.794553 
L 148.733265 149.794553 
L 148.826773 145.20534 
L 148.888835 145.20534 
L 148.919783 141.763429 
L 149.043029 141.763429 
L 149.104327 136.600564 
L 149.165411 136.600564 
L 149.256637 132.585002 
L 149.31719 132.585002 
L 149.377533 125.127529 
L 149.467659 125.127529 
L 149.557321 120.538316 
L 149.587107 120.538316 
L 149.646525 118.243709 
L 149.705742 118.243709 
L 149.794191 114.801798 
L 149.823575 114.801798 
L 149.911431 110.786236 
L 149.940618 110.786236 
L 149.998846 107.344326 
L 150.05688 107.344326 
L 150.143571 103.328764 
L 150.172372 103.328764 
L 150.229833 99.313202 
L 150.287105 99.313202 
L 150.31567 93.576685 
L 150.401087 93.576685 
L 150.457801 90.708426 
L 150.738632 90.708426 
L 150.849711 87.840168 
L 151.042412 87.840168 
L 151.124351 85.545561 
L 151.178764 85.545561 
L 151.178764 84.971909 
L 151.314058 84.971909 
L 151.394733 82.103651 
L 151.528368 82.103651 
L 151.528368 81.529999 
L 151.660987 81.529999 
L 151.713753 79.235392 
L 151.871101 79.235392 
L 151.949246 78.088089 
L 152.001148 78.088089 
L 152.078714 74.072526 
L 152.130233 74.072526 
L 152.181601 72.925223 
L 152.283884 72.925223 
L 152.283884 72.351571 
L 152.410901 72.351571 
L 152.410901 71.77792 
L 152.612222 71.77792 
L 152.612222 71.204268 
L 153.395042 71.204268 
L 153.442821 70.056964 
L 155.275461 70.056964 
L 155.275461 69.483313 
L 155.510121 69.483313 
L 155.510121 67.762358 
L 155.657823 67.762358 
L 155.741666 66.615054 
L 155.825108 66.615054 
L 155.887428 64.320447 
L 156.052535 64.320447 
L 156.093569 63.173144 
L 156.175347 63.173144 
L 156.277034 60.878537 
L 156.297301 60.878537 
L 156.297301 60.304885 
L 156.418408 60.304885 
L 156.418408 58.58393 
L 156.598505 58.58393 
L 156.598505 57.436627 
L 156.816128 57.436627 
L 156.875011 55.14202 
L 156.953214 55.14202 
L 157.031069 51.700109 
L 157.147202 51.700109 
L 157.224197 49.979154 
L 157.262567 49.979154 
L 157.339055 47.684547 
L 157.377174 47.684547 
L 157.472107 45.389941 
L 157.509937 45.389941 
L 157.58535 43.095334 
L 157.716543 43.095334 
L 157.79107 41.374379 
L 157.828215 41.374379 
L 157.939176 38.50612 
L 158.159001 38.50612 
L 158.195371 36.211513 
L 160.648508 36.211513 
L 160.758635 34.490558 
L 160.774311 34.490558 
L 160.86807 32.195951 
L 160.961329 32.195951 
L 161.069504 28.180389 
L 161.222884 28.180389 
L 161.314269 25.885782 
L 161.435376 25.885782 
L 161.510643 24.164827 
L 161.570623 24.164827 
L 161.570623 20.722917 
L 161.838011 20.722917 
L 161.940898 17.281006 
L 161.955547 17.281006 
L 161.955547 16.133703 
L 162.159347 16.133703 
L 162.159347 15.560051 
L 162.274744 15.560051 
L 162.274744 14.9864 
L 164.140886 14.9864 
L 164.140886 14.412748 
L 164.700211 14.412748 
L 164.700211 13.839096 
L 165.98992 13.839096 
L 166.013141 12.691793 
L 166.220754 12.691793 
L 166.220754 12.118141 
L 166.448573 12.118141 
L 166.448573 11.544489 
L 166.673454 11.544489 
L 166.673454 10.970838 
L 167.04922 10.970838 
L 167.04922 10.397186 
L 167.331204 10.397186 
L 167.331204 9.823534 
L 167.481174 9.823534 
L 167.481174 9.249882 
L 169.626243 9.249882 
L 169.626243 8.676231 
L 170.027164 8.676231 
L 170.027164 8.102579 
L 172.569992 8.102579 
L 172.569992 7.528927 
L 173.545979 7.528927 
L 173.545979 6.955275 
L 175.347948 6.955275 
L 175.347948 6.381624 
L 338.688 6.381624 
L 338.688 6.381624 
" style="fill:none;stroke:#ff00ff;stroke-linecap:square;stroke-width:1.5;"/>
   </g>
   <g id="line2d_36">
    <defs>
     <path d="M -0 8.485281 
L 5.091169 0 
L 0 -8.485281 
L -5.091169 -0 
z
" id="maf780b0fd2" style="stroke:#ff00ff;stroke-linejoin:miter;stroke-width:1.5;"/>
    </defs>
    <g>
     <use style="fill-opacity:0;stroke:#ff00ff;stroke-linejoin:miter;stroke-width:1.5;" x="148.79566" xlink:href="#maf780b0fd2" y="146.926295"/>
     <use style="fill-opacity:0;stroke:#ff00ff;stroke-linejoin:miter;stroke-width:1.5;" x="175.347948" xlink:href="#maf780b0fd2" y="6.955275"/>
     <use style="fill-opacity:0;stroke:#ff00ff;stroke-linejoin:miter;stroke-width:1.5;" x="175.347948" xlink:href="#maf780b0fd2" y="6.381624"/>
     <use style="fill-opacity:0;stroke:#ff00ff;stroke-linejoin:miter;stroke-width:1.5;" x="175.347948" xlink:href="#maf780b0fd2" y="6.381624"/>
     <use style="fill-opacity:0;stroke:#ff00ff;stroke-linejoin:miter;stroke-width:1.5;" x="338.688" xlink:href="#maf780b0fd2" y="6.381624"/>
    </g>
   </g>
   <g id="line2d_37">
    <path style="fill:none;stroke:#ff00ff;stroke-linecap:square;stroke-width:1.5;"/>
    <g/>
   </g>
   <g id="line2d_38">
    <path clip-path="url(#p9ab27e42b7)" d="M 158.625992 36.211513 
" style="fill:none;stroke:#ff00ff;stroke-linecap:square;stroke-width:1.5;"/>
    <defs>
     <path d="M -12 12 
L 12 -12 
M -12 -12 
L 12 12 
" id="mc2e14c8302" style="stroke:#ff00ff;"/>
    </defs>
    <g clip-path="url(#p9ab27e42b7)">
     <use style="fill:#ff00ff;stroke:#ff00ff;" x="158.625992" xlink:href="#mc2e14c8302" y="36.211513"/>
    </g>
   </g>
   <g id="line2d_39">
    <defs>
     <path d="M 0 1.5 
C 0.397805 1.5 0.77937 1.341951 1.06066 1.06066 
C 1.341951 0.77937 1.5 0.397805 1.5 0 
C 1.5 -0.397805 1.341951 -0.77937 1.06066 -1.06066 
C 0.77937 -1.341951 0.397805 -1.5 0 -1.5 
C -0.397805 -1.5 -0.77937 -1.341951 -1.06066 -1.06066 
C -1.341951 -0.77937 -1.5 -0.397805 -1.5 0 
C -1.5 0.397805 -1.341951 0.77937 -1.06066 1.06066 
C -0.77937 1.341951 -0.397805 1.5 0 1.5 
z
" id="m5c782ef8c9" style="stroke:#ffa500;"/>
    </defs>
    <g>
     <use style="fill:#ffa500;stroke:#ffa500;" x="217.658136" xlink:href="#m5c782ef8c9" y="6.381624"/>
     <use style="fill:#ffa500;stroke:#ffa500;" x="217.658136" xlink:href="#m5c782ef8c9" y="6.381624"/>
    </g>
   </g>
   <g id="line2d_40">
    <path d="M 122.076131 298.944 
L 122.076131 297.796697 
L 122.643312 297.796697 
L 122.643312 296.649393 
L 122.920132 296.649393 
L 122.920132 295.50209 
L 123.056911 295.50209 
L 123.056911 294.354786 
L 123.192626 294.354786 
L 123.192626 293.781135 
L 123.460928 293.781135 
L 123.460928 292.060179 
L 123.725164 292.060179 
L 123.725164 290.339224 
L 123.985457 290.339224 
L 123.985457 289.191921 
L 124.241922 289.191921 
L 124.241922 288.618269 
L 124.619683 288.618269 
L 124.619683 286.897314 
L 124.743806 286.897314 
L 124.743806 285.75001 
L 124.867052 285.75001 
L 124.867052 285.176359 
L 124.989434 285.176359 
L 124.989434 284.602707 
L 125.351508 284.602707 
L 125.351508 284.029055 
L 125.470548 284.029055 
L 125.470548 281.160797 
L 125.588781 281.160797 
L 125.588781 280.587145 
L 125.706218 280.587145 
L 125.706218 279.439842 
L 125.822869 279.439842 
L 125.822869 278.86619 
L 126.281824 278.86619 
L 126.281824 277.145235 
L 126.729009 277.145235 
L 126.729009 273.129673 
L 126.948374 273.129673 
L 126.948374 272.556021 
L 127.590383 272.556021 
L 127.590383 271.982369 
L 127.799239 271.982369 
L 127.799239 271.408718 
L 128.005624 271.408718 
L 128.107907 269.687762 
L 128.411207 269.687762 
L 128.511146 268.540459 
L 128.709321 268.540459 
L 128.709321 266.245852 
L 129.002426 266.245852 
L 129.002426 265.6722 
L 129.195127 265.6722 
L 129.290685 263.951245 
L 129.480244 263.951245 
L 129.574256 262.803942 
L 129.760775 262.803942 
L 129.760775 261.082987 
L 129.945319 261.082987 
L 129.945319 260.509335 
L 130.30865 260.509335 
L 130.398313 259.362031 
L 130.487516 259.362031 
L 130.487516 258.214728 
L 131.185181 258.214728 
L 131.185181 257.641076 
L 131.523818 257.641076 
L 131.523818 257.067425 
L 131.690703 257.067425 
L 131.690703 255.920121 
L 132.181982 255.920121 
L 132.181982 255.346469 
L 132.342714 255.346469 
L 132.342714 254.772818 
L 133.201197 254.772818 
L 133.201197 254.199166 
L 135.548916 254.199166 
L 135.615352 253.051863 
L 135.681535 253.051863 
L 135.681535 252.478211 
L 137.910857 252.478211 
L 137.910857 251.904559 
L 138.369812 251.904559 
L 138.426341 250.757256 
L 139.466984 250.757256 
L 139.572998 249.609952 
L 139.678372 249.609952 
L 139.678372 248.462649 
L 139.887228 248.462649 
L 139.887228 247.888997 
L 140.093612 247.888997 
L 140.093612 246.168042 
L 140.846504 246.168042 
L 140.846504 245.59439 
L 141.378673 245.59439 
L 141.378673 244.447087 
L 142.124852 244.447087 
L 142.124852 243.873435 
L 142.396639 243.873435 
L 142.441528 242.726132 
L 142.619936 242.726132 
L 142.664255 241.578828 
L 142.927826 241.578828 
L 142.927826 240.431525 
L 143.485587 240.431525 
L 143.485587 239.284221 
L 143.943994 239.284221 
L 143.943994 238.71057 
L 144.269971 238.71057 
L 144.269971 237.563266 
L 144.470655 237.563266 
L 144.510517 236.415963 
L 144.708467 236.415963 
L 144.708467 234.121356 
L 144.826168 234.121356 
L 144.826168 233.547704 
L 145.097753 233.547704 
L 145.097753 232.974052 
L 145.212864 232.974052 
L 145.212864 232.400401 
L 145.403044 232.400401 
L 145.478539 230.105794 
L 145.516164 230.105794 
L 145.553708 228.95849 
L 145.628555 228.95849 
L 145.628555 228.384839 
L 146.179895 228.384839 
L 146.252108 227.237535 
L 146.502522 227.237535 
L 146.608752 223.795625 
L 146.923612 223.795625 
L 146.958248 221.501018 
L 147.164632 221.501018 
L 147.164632 220.927366 
L 147.368603 220.927366 
L 147.402367 219.206411 
L 147.536775 219.206411 
L 147.536775 218.632759 
L 147.802521 218.632759 
L 147.835457 217.485456 
L 147.933891 217.485456 
L 147.933891 216.911804 
L 148.064279 216.911804 
L 148.096724 215.764501 
L 148.258051 215.764501 
L 148.258051 215.190849 
L 148.670646 215.190849 
L 148.670646 214.617197 
L 148.79566 214.617197 
L 148.79566 214.043546 
L 149.073705 214.043546 
L 149.165411 212.896242 
L 149.226281 212.896242 
L 149.226281 212.322591 
L 149.377533 212.322591 
L 149.467659 209.454332 
L 149.616841 209.454332 
L 149.705742 208.307029 
L 149.969756 208.307029 
L 149.969756 207.733377 
L 150.258492 207.733377 
L 150.31567 206.012422 
L 150.570677 206.012422 
L 150.598782 204.291467 
L 150.87737 204.291467 
L 150.904986 202.570511 
L 151.124351 202.570511 
L 151.124351 201.99686 
L 151.314058 201.99686 
L 151.314058 201.423208 
L 151.44831 201.423208 
L 151.44831 200.849556 
L 151.581536 200.849556 
L 151.660987 199.702253 
L 151.740076 199.702253 
L 151.818809 197.407646 
L 151.871101 197.407646 
L 151.871101 196.833994 
L 152.130233 196.833994 
L 152.232818 195.686691 
L 152.410901 195.686691 
L 152.511852 194.539387 
L 152.612222 194.539387 
L 152.662192 193.392084 
L 152.736878 193.392084 
L 152.835965 192.24478 
L 152.860649 192.24478 
L 152.860649 191.097477 
L 153.008024 191.097477 
L 153.032466 189.950174 
L 153.129893 189.950174 
L 153.202607 187.655567 
L 153.632638 187.655567 
L 153.726778 185.934612 
L 153.936752 185.934612 
L 154.006185 184.787308 
L 154.235652 184.787308 
L 154.235652 184.213656 
L 154.46214 184.213656 
L 154.46214 183.640005 
L 154.707925 183.640005 
L 154.796449 182.492701 
L 154.928399 182.492701 
L 154.928399 181.91905 
L 155.167744 181.91905 
L 155.167744 181.345398 
L 155.403849 181.345398 
L 155.488919 178.477139 
L 155.657823 178.477139 
L 155.678822 177.329836 
L 155.783437 177.329836 
L 155.804285 176.182532 
L 156.175347 176.182532 
L 156.236431 174.461577 
L 156.398281 174.461577 
L 156.398281 172.16697 
L 156.578586 172.16697 
L 156.578586 171.593319 
L 156.796456 171.593319 
L 156.796456 169.872363 
L 156.992185 169.872363 
L 156.992185 168.151408 
L 157.185742 168.151408 
L 157.243392 166.430453 
L 157.319964 166.430453 
L 157.358125 163.562195 
L 157.472107 163.562195 
L 157.472107 162.988543 
L 158.122556 162.988543 
L 158.122556 162.414891 
L 158.625992 162.414891 
L 158.625992 161.841239 
L 159.608019 161.841239 
L 159.608019 161.267588 
L 159.906985 161.267588 
L 159.98913 158.399329 
L 160.02188 158.399329 
L 160.103486 154.957419 
L 160.329974 154.957419 
L 160.410154 153.236464 
L 160.585265 153.236464 
L 160.69579 150.368205 
L 160.727241 150.368205 
L 160.789972 148.64725 
L 160.852479 148.64725 
L 160.86807 146.926295 
L 160.976823 146.926295 
L 161.069504 144.631688 
L 161.161694 144.631688 
L 161.207607 143.484384 
L 161.329454 143.484384 
L 161.435376 140.042474 
L 161.510643 140.042474 
L 161.510643 139.468822 
L 161.70483 139.468822 
L 161.70483 138.321519 
L 161.984807 138.321519 
L 162.072295 136.600564 
L 162.403659 136.600564 
L 162.403659 136.026912 
L 162.644595 136.026912 
L 162.672723 134.305957 
L 163.020547 134.305957 
L 163.130401 132.585002 
L 163.185069 132.585002 
L 163.21234 130.864047 
L 163.320996 130.864047 
L 163.428979 129.716743 
L 163.576373 129.716743 
L 163.682792 127.995788 
L 163.841212 127.995788 
L 163.841212 127.422136 
L 163.998206 127.422136 
L 163.998206 126.848485 
L 164.166702 126.848485 
L 164.179597 125.701181 
L 164.384616 125.701181 
L 164.384616 125.127529 
L 164.612418 125.127529 
L 164.612418 124.553878 
L 164.923954 124.553878 
L 164.997901 123.406574 
L 165.661531 123.406574 
L 165.661531 122.832923 
L 165.9084 122.832923 
L 165.9084 122.259271 
L 166.163331 122.259271 
L 166.163331 121.685619 
L 166.928532 121.685619 
L 166.994465 120.538316 
L 167.147346 120.538316 
L 167.147346 119.964664 
L 167.534424 119.964664 
L 167.587512 118.817361 
L 167.850553 118.817361 
L 167.871425 117.670057 
L 168.171308 117.670057 
L 168.273531 115.949102 
L 168.304082 115.949102 
L 168.304082 115.37545 
L 168.48627 115.37545 
L 168.48627 114.801798 
L 168.676537 114.801798 
L 168.676537 114.228147 
L 168.894283 114.228147 
L 168.894283 113.654495 
L 169.080173 113.654495 
L 169.080173 113.080843 
L 169.331381 113.080843 
L 169.331381 112.507192 
L 169.48419 112.507192 
L 169.512694 110.786236 
L 169.673338 110.786236 
L 169.673338 110.212585 
L 169.860457 110.212585 
L 169.888352 109.065281 
L 170.017944 109.065281 
L 170.119095 107.344326 
L 170.14658 107.344326 
L 170.14658 106.770674 
L 170.337772 106.770674 
L 170.373953 105.623371 
L 170.793552 105.623371 
L 170.846398 103.902416 
L 170.969087 103.902416 
L 171.021405 102.755112 
L 171.203291 102.755112 
L 171.24632 101.607809 
L 171.417378 101.607809 
L 171.417378 101.034157 
L 171.578344 101.034157 
L 171.645677 99.886854 
L 171.72948 99.886854 
L 171.829514 98.165899 
L 171.91244 98.165899 
L 171.986738 97.018595 
L 172.044307 97.018595 
L 172.13439 94.150337 
L 172.361615 94.150337 
L 172.361615 93.576685 
L 172.490141 93.576685 
L 172.490141 93.003033 
L 172.736497 93.003033 
L 172.830933 91.85573 
L 172.854463 91.85573 
L 172.870132 90.708426 
L 173.00275 90.708426 
L 173.041565 88.987471 
L 173.303236 88.987471 
L 173.333764 87.840168 
L 173.462916 87.840168 
L 173.462916 87.266516 
L 173.636143 87.266516 
L 173.636143 86.692864 
L 173.770522 86.692864 
L 173.822502 85.545561 
L 173.955458 85.545561 
L 173.962814 84.398257 
L 174.138453 84.398257 
L 174.138453 83.824606 
L 174.31234 83.824606 
L 174.348349 82.677302 
L 174.48451 82.677302 
L 174.48451 81.529999 
L 174.718503 81.529999 
L 174.760712 80.382695 
L 174.914609 80.382695 
L 174.914609 79.809044 
L 175.307139 79.809044 
L 175.341154 78.66174 
L 175.469807 78.66174 
L 175.469807 78.088089 
L 175.883143 78.088089 
L 175.883143 77.514437 
L 176.066647 77.514437 
L 176.15768 75.793482 
L 176.769424 75.793482 
L 176.800705 74.646178 
L 177.079739 74.646178 
L 177.190115 72.925223 
L 177.324077 72.925223 
L 177.324077 72.351571 
L 177.444973 72.351571 
L 177.444973 71.77792 
L 177.588952 71.77792 
L 177.648594 70.056964 
L 177.796812 70.056964 
L 177.896886 68.909661 
L 178.037196 68.909661 
L 178.037196 68.336009 
L 178.417327 68.336009 
L 178.457163 66.615054 
L 178.649364 66.615054 
L 178.744676 65.467751 
L 178.817212 65.467751 
L 178.817212 64.894099 
L 178.966907 64.894099 
L 179.022024 63.746796 
L 179.087937 63.746796 
L 179.19724 62.02584 
L 179.316688 62.02584 
L 179.392276 60.878537 
L 179.435323 60.878537 
L 179.435323 60.304885 
L 179.670199 60.304885 
L 179.670199 59.731234 
L 179.854799 59.731234 
L 179.933319 58.58393 
L 180.11 58.58393 
L 180.11 58.010278 
L 180.249041 58.010278 
L 180.249041 57.436627 
L 180.417488 57.436627 
L 180.442869 56.289323 
L 180.789406 56.289323 
L 180.789406 55.715672 
L 181.031383 55.715672 
L 181.119435 53.994716 
L 181.20219 53.994716 
L 181.20219 53.421065 
L 181.619658 53.421065 
L 181.619658 52.847413 
L 181.86449 52.847413 
L 181.86449 52.273761 
L 182.664074 52.273761 
L 182.664074 51.700109 
L 182.779802 51.700109 
L 182.779802 51.126458 
L 182.987073 51.126458 
L 183.030858 49.979154 
L 183.252464 49.979154 
L 183.342901 48.831851 
L 183.424323 48.831851 
L 183.424323 48.258199 
L 183.61989 48.258199 
L 183.61989 47.684547 
L 183.746262 47.684547 
L 183.821648 46.537244 
L 183.950721 46.537244 
L 183.950721 45.963592 
L 184.303871 45.963592 
L 184.352584 44.816289 
L 184.879635 44.816289 
L 184.89929 43.668985 
L 185.121797 43.668985 
L 185.156672 42.521682 
L 185.364468 42.521682 
L 185.364468 41.94803 
L 185.6302 41.94803 
L 185.656552 40.800727 
L 185.742857 40.800727 
L 185.742857 40.227075 
L 185.991862 40.227075 
L 185.991862 39.653423 
L 186.244636 39.653423 
L 186.244636 39.079772 
L 186.540346 39.079772 
L 186.576068 37.358817 
L 186.806491 37.358817 
L 186.806491 36.785165 
L 187.285833 36.785165 
L 187.285833 36.211513 
L 187.466482 36.211513 
L 187.557796 35.06421 
L 187.615046 35.06421 
L 187.682159 33.916906 
L 187.961246 33.916906 
L 187.961246 33.343255 
L 188.636858 33.343255 
L 188.671702 32.195951 
L 188.810385 32.195951 
L 188.810385 31.622299 
L 188.966652 31.622299 
L 188.98531 29.901344 
L 189.348257 29.901344 
L 189.351301 28.754041 
L 189.463549 28.754041 
L 189.572074 27.033086 
L 189.638063 27.033086 
L 189.706787 25.885782 
L 189.787118 25.885782 
L 189.787118 25.31213 
L 189.9555 25.31213 
L 189.9555 24.738479 
L 190.284581 24.738479 
L 190.284581 24.164827 
L 190.666936 24.164827 
L 190.666936 23.591175 
L 190.818681 23.591175 
L 190.824276 22.443872 
L 191.104509 22.443872 
L 191.104509 21.87022 
L 191.442511 21.87022 
L 191.442511 21.296568 
L 191.705083 21.296568 
L 191.705083 20.722917 
L 191.845456 20.722917 
L 191.887612 19.575613 
L 192.847533 19.575613 
L 192.897274 17.854658 
L 193.6768 17.854658 
L 193.752633 16.707355 
L 194.094499 16.707355 
L 194.143125 15.560051 
L 194.443434 15.560051 
L 194.443434 14.9864 
L 194.785524 14.9864 
L 194.785524 14.412748 
L 196.381694 14.412748 
L 196.46083 12.691793 
L 196.922335 12.691793 
L 196.967624 11.544489 
L 198.703266 11.544489 
L 198.703266 10.970838 
L 199.886977 10.970838 
L 199.886977 10.397186 
L 201.58326 10.397186 
L 201.58326 9.823534 
L 202.972296 9.823534 
L 202.972296 9.249882 
L 203.755803 9.249882 
L 203.755803 8.676231 
L 204.301481 8.676231 
L 204.301481 8.102579 
L 205.161937 8.102579 
L 205.161937 7.528927 
L 214.614936 7.528927 
L 214.614936 6.955275 
L 217.658136 6.955275 
L 217.658136 6.381624 
L 338.688 6.381624 
L 338.688 6.381624 
" style="fill:none;stroke:#ffa500;stroke-linecap:square;stroke-width:1.5;"/>
   </g>
   <g id="line2d_41">
    <defs>
     <path d="M 0 -6 
L -1.347084 -1.854102 
L -5.706339 -1.854102 
L -2.179628 0.708204 
L -3.526712 4.854102 
L -0 2.291796 
L 3.526712 4.854102 
L 2.179628 0.708204 
L 5.706339 -1.854102 
L 1.347084 -1.854102 
z
" id="md2c5540577" style="stroke:#ffa500;stroke-linejoin:bevel;stroke-width:1.5;"/>
    </defs>
    <g>
     <use style="fill-opacity:0;stroke:#ffa500;stroke-linejoin:bevel;stroke-width:1.5;" x="160.69579" xlink:href="#md2c5540577" y="150.368205"/>
     <use style="fill-opacity:0;stroke:#ffa500;stroke-linejoin:bevel;stroke-width:1.5;" x="205.161937" xlink:href="#md2c5540577" y="8.102579"/>
     <use style="fill-opacity:0;stroke:#ffa500;stroke-linejoin:bevel;stroke-width:1.5;" x="217.658136" xlink:href="#md2c5540577" y="6.381624"/>
     <use style="fill-opacity:0;stroke:#ffa500;stroke-linejoin:bevel;stroke-width:1.5;" x="217.658136" xlink:href="#md2c5540577" y="6.381624"/>
     <use style="fill-opacity:0;stroke:#ffa500;stroke-linejoin:bevel;stroke-width:1.5;" x="338.688" xlink:href="#md2c5540577" y="6.381624"/>
    </g>
   </g>
   <g id="line2d_42">
    <path style="fill:none;stroke:#ffa500;stroke-linecap:square;stroke-width:1.5;"/>
    <g/>
   </g>
   <g id="line2d_43">
    <path clip-path="url(#p9ab27e42b7)" d="M 162.115875 136.600564 
" style="fill:none;stroke:#ffa500;stroke-linecap:square;stroke-width:1.5;"/>
    <defs>
     <path d="M -12 12 
L 12 -12 
M -12 -12 
L 12 12 
" id="mb48593787d" style="stroke:#ffa500;"/>
    </defs>
    <g clip-path="url(#p9ab27e42b7)">
     <use style="fill:#ffa500;stroke:#ffa500;" x="162.115875" xlink:href="#mb48593787d" y="136.600564"/>
    </g>
   </g>
   <g id="line2d_44">
    <defs>
     <path d="M 0 1.5 
C 0.397805 1.5 0.77937 1.341951 1.06066 1.06066 
C 1.341951 0.77937 1.5 0.397805 1.5 0 
C 1.5 -0.397805 1.341951 -0.77937 1.06066 -1.06066 
C 0.77937 -1.341951 0.397805 -1.5 0 -1.5 
C -0.397805 -1.5 -0.77937 -1.341951 -1.06066 -1.06066 
C -1.341951 -0.77937 -1.5 -0.397805 -1.5 0 
C -1.5 0.397805 -1.341951 0.77937 -1.06066 1.06066 
C -0.77937 1.341951 -0.397805 1.5 0 1.5 
z
" id="maf64dc46a7" style="stroke:#6495ed;"/>
    </defs>
    <g>
     <use style="fill:#6495ed;stroke:#6495ed;" x="197.371941" xlink:href="#maf64dc46a7" y="29.327692"/>
     <use style="fill:#6495ed;stroke:#6495ed;" x="197.371941" xlink:href="#maf64dc46a7" y="29.327692"/>
    </g>
   </g>
   <g id="line2d_45">
    <path d="M 102.772397 298.944 
L 102.772397 298.370348 
L 104.434538 298.370348 
L 104.434538 297.796697 
L 115.502395 297.796697 
L 115.502395 297.223045 
L 117.107138 297.223045 
L 117.107138 296.649393 
L 117.672786 296.649393 
L 117.672786 296.075741 
L 117.857331 296.075741 
L 117.857331 295.50209 
L 118.039942 295.50209 
L 118.039942 294.354786 
L 118.220662 294.354786 
L 118.220662 293.781135 
L 118.925375 293.781135 
L 118.925375 292.633831 
L 120.254726 292.633831 
L 120.254726 291.486528 
L 120.41399 291.486528 
L 120.41399 289.765573 
L 120.571812 289.765573 
L 120.571812 289.191921 
L 121.489881 289.191921 
L 121.489881 288.618269 
L 121.638301 288.618269 
L 121.638301 288.044617 
L 121.785469 288.044617 
L 121.785469 286.897314 
L 122.076131 286.897314 
L 122.076131 285.75001 
L 122.362027 285.75001 
L 122.362027 285.176359 
L 122.503236 285.176359 
L 122.503236 284.602707 
L 122.643312 284.602707 
L 122.643312 284.029055 
L 122.782271 284.029055 
L 122.782271 283.455404 
L 123.056911 283.455404 
L 123.056911 282.881752 
L 123.192626 282.881752 
L 123.192626 282.3081 
L 123.460928 282.3081 
L 123.460928 281.734448 
L 123.593547 281.734448 
L 123.593547 281.160797 
L 123.725164 281.160797 
L 123.725164 280.013493 
L 123.985457 280.013493 
L 123.985457 279.439842 
L 124.114161 279.439842 
L 124.114161 278.292538 
L 124.494669 278.292538 
L 124.494669 277.718886 
L 124.743806 277.718886 
L 124.743806 276.571583 
L 124.989434 276.571583 
L 124.989434 275.997931 
L 125.23165 275.997931 
L 125.23165 274.850628 
L 125.470548 274.850628 
L 125.470548 274.276976 
L 125.706218 274.276976 
L 125.706218 273.129673 
L 126.281824 273.129673 
L 126.281824 272.556021 
L 126.839037 272.556021 
L 126.948374 271.408718 
L 127.48501 271.408718 
L 127.590383 270.261414 
L 127.902737 270.261414 
L 127.902737 269.687762 
L 128.310692 269.687762 
L 128.411207 268.540459 
L 128.905271 268.540459 
L 129.002426 267.393156 
L 129.290685 267.393156 
L 129.290685 266.819504 
L 129.574256 266.819504 
L 129.574256 265.6722 
L 129.945319 265.6722 
L 129.945319 265.098549 
L 130.127931 265.098549 
L 130.127931 264.524897 
L 130.30865 264.524897 
L 130.30865 263.951245 
L 130.576266 263.951245 
L 130.664567 262.803942 
L 130.752422 262.803942 
L 130.752422 262.23029 
L 131.185181 262.23029 
L 131.185181 261.656638 
L 131.690703 261.656638 
L 131.690703 261.082987 
L 133.352844 261.082987 
L 133.352844 260.509335 
L 133.800029 260.509335 
L 133.800029 259.935683 
L 134.164119 259.935683 
L 134.164119 258.78838 
L 134.7313 258.78838 
L 134.800918 257.641076 
L 135.076644 257.641076 
L 135.076644 257.067425 
L 135.747468 257.067425 
L 135.747468 256.493773 
L 135.943785 256.493773 
L 135.943785 255.920121 
L 136.519813 255.920121 
L 136.519813 255.346469 
L 136.893527 255.346469 
L 136.893527 254.772818 
L 137.319638 254.772818 
L 137.319638 254.199166 
L 137.499118 254.199166 
L 137.499118 253.625514 
L 138.256201 253.625514 
L 138.256201 253.051863 
L 139.360321 253.051863 
L 139.360321 252.478211 
L 139.783113 252.478211 
L 139.783113 251.904559 
L 140.246813 251.904559 
L 140.348205 250.757256 
L 140.599134 250.757256 
L 140.599134 250.183604 
L 140.846504 250.183604 
L 140.944478 248.462649 
L 141.426256 248.462649 
L 141.426256 247.888997 
L 141.662245 247.888997 
L 141.662245 247.315345 
L 141.941279 247.315345 
L 141.987354 246.168042 
L 142.261275 246.168042 
L 142.261275 245.59439 
L 142.796538 245.59439 
L 142.796538 244.447087 
L 143.058132 244.447087 
L 143.144465 243.299783 
L 143.230373 243.299783 
L 143.230373 242.726132 
L 143.611807 242.726132 
L 143.611807 242.15248 
L 143.861538 242.15248 
L 143.943994 240.431525 
L 144.747789 240.431525 
L 144.747789 239.284221 
L 145.212864 239.284221 
L 145.212864 238.71057 
L 145.591172 238.71057 
L 145.665858 236.989614 
L 145.814278 236.989614 
L 145.814278 236.415963 
L 145.998045 236.415963 
L 145.998045 235.842311 
L 146.288102 235.842311 
L 146.395642 234.695008 
L 146.466968 234.695008 
L 146.573414 232.974052 
L 146.679213 232.974052 
L 146.784375 231.826749 
L 146.958248 231.826749 
L 146.958248 230.679446 
L 147.096109 230.679446 
L 147.198794 228.384839 
L 147.232888 228.384839 
L 147.266916 227.237535 
L 147.368603 227.237535 
L 147.4697 224.369277 
L 147.50327 224.369277 
L 147.570215 222.648321 
L 147.636905 222.648321 
L 147.70334 219.780063 
L 147.769524 219.780063 
L 147.86833 216.338153 
L 147.901141 216.338153 
L 147.999207 214.617197 
L 148.031773 214.617197 
L 148.129109 210.601635 
L 148.161434 210.601635 
L 148.258051 207.733377 
L 148.290138 207.733377 
L 148.354135 204.865118 
L 148.417899 204.865118 
L 148.513109 203.717815 
L 148.576295 203.717815 
L 148.639252 199.128601 
L 148.733265 199.128601 
L 148.826773 196.833994 
L 148.857832 196.833994 
L 148.950676 193.965736 
L 149.043029 193.965736 
L 149.134896 189.376522 
L 149.195872 189.376522 
L 149.256637 186.508263 
L 149.347388 186.508263 
L 149.437669 183.640005 
L 149.497598 183.640005 
L 149.587107 179.050791 
L 149.616841 179.050791 
L 149.646525 177.903487 
L 149.764758 177.903487 
L 149.852909 174.461577 
L 149.940618 174.461577 
L 150.027887 171.593319 
L 150.143571 171.593319 
L 150.229833 168.151408 
L 150.258492 168.151408 
L 150.31567 166.430453 
L 150.429467 166.430453 
L 150.51433 164.135846 
L 150.570677 164.135846 
L 150.654857 161.267588 
L 150.710752 161.267588 
L 150.79426 158.972981 
L 150.849711 158.972981 
L 150.932558 156.678374 
L 150.987572 156.678374 
L 151.015013 155.53107 
L 151.178764 155.53107 
L 151.260066 153.236464 
L 151.314058 153.236464 
L 151.421542 149.794553 
L 151.501723 149.794553 
L 151.60806 145.20534 
L 151.68739 145.20534 
L 151.76636 142.910733 
L 151.818809 142.910733 
L 151.923236 140.042474 
L 151.975216 140.042474 
L 152.078714 136.600564 
L 152.104493 136.600564 
L 152.207228 132.585002 
L 152.232818 132.585002 
L 152.309362 127.422136 
L 152.385571 127.422136 
L 152.486669 125.127529 
L 152.536999 125.127529 
L 152.587184 123.406574 
L 152.687123 123.406574 
L 152.761703 121.111967 
L 152.885298 121.111967 
L 152.909913 119.391012 
L 153.008024 119.391012 
L 153.056874 118.243709 
L 153.129893 118.243709 
L 153.202607 116.522754 
L 153.275019 116.522754 
L 153.347132 113.654495 
L 153.418948 113.654495 
L 153.442821 111.359888 
L 153.585377 111.359888 
L 153.656221 109.638933 
L 153.820412 109.638933 
L 153.890309 108.49163 
L 153.936752 108.49163 
L 153.936752 107.344326 
L 154.098334 107.344326 
L 154.19 104.476068 
L 154.484627 104.476068 
L 154.484627 103.328764 
L 154.596634 103.328764 
L 154.685723 99.886854 
L 154.81851 99.886854 
L 154.862549 98.165899 
L 155.0376 98.165899 
L 155.146121 95.871292 
L 155.210911 95.871292 
L 155.318362 94.150337 
L 155.425155 94.150337 
L 155.531298 91.282078 
L 155.55245 91.282078 
L 155.657823 89.561123 
L 155.678822 89.561123 
L 155.699795 88.413819 
L 155.804285 88.413819 
L 155.86668 86.692864 
L 155.928852 86.692864 
L 155.990803 84.971909 
L 156.154939 84.971909 
L 156.256744 83.824606 
L 156.297301 83.824606 
L 156.378132 79.809044 
L 156.478647 79.809044 
L 156.558644 76.367133 
L 156.697761 76.367133 
L 156.697761 74.646178 
L 156.835778 74.646178 
L 156.914157 73.498875 
L 157.069866 73.498875 
L 157.147202 72.351571 
L 157.28172 72.351571 
L 157.358125 70.056964 
L 157.434196 70.056964 
L 157.434196 69.483313 
L 161.88218 69.483313 
L 161.88218 68.909661 
L 162.616422 68.909661 
L 162.68677 67.762358 
L 162.784783 67.762358 
L 162.784783 67.188706 
L 162.923853 67.188706 
L 162.923853 66.615054 
L 163.225959 66.615054 
L 163.225959 66.041402 
L 163.402046 66.041402 
L 163.402046 65.467751 
L 163.563025 65.467751 
L 163.563025 64.894099 
L 163.735759 64.894099 
L 163.775378 63.746796 
L 163.946031 63.746796 
L 164.037234 62.599492 
L 164.243924 62.599492 
L 164.269589 61.452189 
L 165.423123 61.452189 
L 165.53081 58.58393 
L 166.729224 58.58393 
L 166.729224 58.010278 
L 167.016388 58.010278 
L 167.016388 57.436627 
L 167.223287 57.436627 
L 167.223287 56.862975 
L 167.860992 56.862975 
L 167.881853 55.715672 
L 167.985782 55.715672 
L 168.058166 53.994716 
L 168.253135 53.994716 
L 168.273531 52.847413 
L 168.405532 52.847413 
L 168.496336 51.126458 
L 168.536542 51.126458 
L 168.536542 50.552806 
L 168.894283 50.552806 
L 168.992367 49.405503 
L 169.070439 49.405503 
L 169.128764 48.258199 
L 169.860457 48.258199 
L 169.860457 47.684547 
L 170.119095 47.684547 
L 170.137423 46.537244 
L 170.256089 46.537244 
L 170.256089 45.963592 
L 170.491026 45.963592 
L 170.491026 45.389941 
L 170.986544 45.389941 
L 170.986544 44.816289 
L 173.440194 44.816289 
L 173.440194 44.242637 
L 174.211117 44.242637 
L 174.211117 43.668985 
L 174.326753 43.668985 
L 174.326753 43.095334 
L 174.935491 43.095334 
L 174.935491 42.521682 
L 175.23891 42.521682 
L 175.23891 41.94803 
L 175.671032 41.94803 
L 175.671032 40.800727 
L 176.215951 40.800727 
L 176.215951 40.227075 
L 176.681537 40.227075 
L 176.681537 39.653423 
L 177.967182 39.653423 
L 177.967182 39.079772 
L 181.794218 39.079772 
L 181.794218 38.50612 
L 182.637258 38.50612 
L 182.637258 37.932468 
L 183.200574 37.932468 
L 183.200574 37.358817 
L 183.437144 37.358817 
L 183.445687 36.211513 
L 184.773118 36.211513 
L 184.773118 35.637861 
L 185.001137 35.637861 
L 185.001137 35.06421 
L 186.43274 35.06421 
L 186.43274 34.490558 
L 188.313633 34.490558 
L 188.313633 33.916906 
L 188.923038 33.916906 
L 188.923038 33.343255 
L 189.311691 33.343255 
L 189.311691 32.769603 
L 190.573549 32.769603 
L 190.573549 32.195951 
L 190.686682 32.195951 
L 190.686682 31.622299 
L 191.126514 31.622299 
L 191.126514 31.048648 
L 192.710009 31.048648 
L 192.710009 30.474996 
L 192.852514 30.474996 
L 192.852514 29.901344 
L 197.371941 29.901344 
L 197.371941 29.327692 
L 338.688 29.327692 
L 338.688 29.327692 
" style="fill:none;stroke:#6495ed;stroke-linecap:square;stroke-width:1.5;"/>
   </g>
   <g id="line2d_46">
    <defs>
     <path d="M -0 6 
L 6 -6 
L -6 -6 
z
" id="me9c064966c" style="stroke:#6495ed;stroke-linejoin:miter;stroke-width:1.5;"/>
    </defs>
    <g>
     <use style="fill-opacity:0;stroke:#6495ed;stroke-linejoin:miter;stroke-width:1.5;" x="143.943994" xlink:href="#me9c064966c" y="240.431525"/>
     <use style="fill-opacity:0;stroke:#6495ed;stroke-linejoin:miter;stroke-width:1.5;" x="170.986544" xlink:href="#me9c064966c" y="45.389941"/>
     <use style="fill-opacity:0;stroke:#6495ed;stroke-linejoin:miter;stroke-width:1.5;" x="197.371941" xlink:href="#me9c064966c" y="29.327692"/>
     <use style="fill-opacity:0;stroke:#6495ed;stroke-linejoin:miter;stroke-width:1.5;" x="197.371941" xlink:href="#me9c064966c" y="29.327692"/>
     <use style="fill-opacity:0;stroke:#6495ed;stroke-linejoin:miter;stroke-width:1.5;" x="338.688" xlink:href="#me9c064966c" y="29.327692"/>
    </g>
   </g>
   <g id="line2d_47">
    <path style="fill:none;stroke:#6495ed;stroke-linecap:square;stroke-width:1.5;"/>
    <g/>
   </g>
   <g id="line2d_48">
    <path clip-path="url(#p9ab27e42b7)" d="M 159.824452 69.483313 
" style="fill:none;stroke:#6495ed;stroke-linecap:square;stroke-width:1.5;"/>
    <defs>
     <path d="M -12 12 
L 12 -12 
M -12 -12 
L 12 12 
" id="mde38ece13a" style="stroke:#6495ed;"/>
    </defs>
    <g clip-path="url(#p9ab27e42b7)">
     <use style="fill:#6495ed;stroke:#6495ed;" x="159.824452" xlink:href="#mde38ece13a" y="69.483313"/>
    </g>
   </g>
   <g id="line2d_49">
    <defs>
     <path d="M 0 1.5 
C 0.397805 1.5 0.77937 1.341951 1.06066 1.06066 
C 1.341951 0.77937 1.5 0.397805 1.5 0 
C 1.5 -0.397805 1.341951 -0.77937 1.06066 -1.06066 
C 0.77937 -1.341951 0.397805 -1.5 0 -1.5 
C -0.397805 -1.5 -0.77937 -1.341951 -1.06066 -1.06066 
C -1.341951 -0.77937 -1.5 -0.397805 -1.5 0 
C -1.5 0.397805 -1.341951 0.77937 -1.06066 1.06066 
C -0.77937 1.341951 -0.397805 1.5 0 1.5 
z
" id="m5c1e0196f3" style="stroke:#ff0000;"/>
    </defs>
    <g>
     <use style="fill:#ff0000;stroke:#ff0000;" x="149.134896" xlink:href="#m5c1e0196f3" y="6.381624"/>
     <use style="fill:#ff0000;stroke:#ff0000;" x="149.134896" xlink:href="#m5c1e0196f3" y="6.381624"/>
    </g>
   </g>
   <g id="line2d_50">
    <path d="M 38.440992 298.944 
L 38.440992 269.687762 
L 90.684409 269.687762 
L 90.684409 269.114111 
L 93.863965 269.114111 
L 93.863965 268.540459 
L 99.938184 268.540459 
L 99.938184 267.966807 
L 100.934985 267.966807 
L 100.934985 267.393156 
L 101.877879 267.393156 
L 101.877879 266.245852 
L 102.330873 266.245852 
L 102.330873 265.098549 
L 102.772397 265.098549 
L 102.772397 263.377593 
L 103.203018 263.377593 
L 103.203018 262.803942 
L 103.623262 262.803942 
L 103.623262 260.509335 
L 104.033617 260.509335 
L 104.033617 258.78838 
L 104.434538 258.78838 
L 104.434538 258.214728 
L 104.826449 258.214728 
L 104.826449 254.199166 
L 105.584798 254.199166 
L 105.584798 250.757256 
L 105.951954 250.757256 
L 105.951954 249.036301 
L 106.311539 249.036301 
L 106.311539 248.462649 
L 106.66386 248.462649 
L 106.66386 246.168042 
L 108.640231 246.168042 
L 108.640231 245.59439 
L 112.531694 245.59439 
L 112.531694 245.020738 
L 114.193835 245.020738 
L 114.193835 244.447087 
L 116.719583 244.447087 
L 116.719583 243.873435 
L 117.486268 243.873435 
L 117.486268 243.299783 
L 117.857331 243.299783 
L 117.857331 242.15248 
L 118.220662 242.15248 
L 118.220662 241.578828 
L 118.399528 241.578828 
L 118.399528 241.005176 
L 119.267333 241.005176 
L 119.267333 240.431525 
L 120.41399 240.431525 
L 120.41399 239.857873 
L 120.571812 239.857873 
L 120.571812 239.284221 
L 120.728219 239.284221 
L 120.728219 238.71057 
L 121.189196 238.71057 
L 121.189196 236.989614 
L 121.638301 236.989614 
L 121.638301 235.842311 
L 121.785469 235.842311 
L 121.785469 235.268659 
L 122.219665 235.268659 
L 122.219665 234.695008 
L 122.362027 234.695008 
L 122.362027 234.121356 
L 122.920132 234.121356 
L 122.920132 233.547704 
L 123.056911 233.547704 
L 123.056911 232.400401 
L 123.192626 232.400401 
L 123.192626 231.253097 
L 123.593547 231.253097 
L 123.593547 230.679446 
L 124.619683 230.679446 
L 124.619683 230.105794 
L 125.110962 230.105794 
L 125.110962 229.532142 
L 126.053856 229.532142 
L 126.053856 228.95849 
L 126.618283 228.95849 
L 126.618283 228.384839 
L 127.05703 228.384839 
L 127.05703 227.811187 
L 127.272333 227.811187 
L 127.272333 227.237535 
L 127.590383 227.237535 
L 127.590383 226.663884 
L 127.902737 226.663884 
L 127.902737 226.090232 
L 128.209594 226.090232 
L 128.209594 224.942928 
L 128.807571 224.942928 
L 128.905271 223.221973 
L 129.195127 223.221973 
L 129.195127 222.648321 
L 129.385722 222.648321 
L 129.480244 220.927366 
L 129.574256 220.927366 
L 129.574256 220.353715 
L 129.853291 220.353715 
L 129.945319 217.485456 
L 130.127931 217.485456 
L 130.218525 214.617197 
L 130.30865 214.617197 
L 130.398313 211.748939 
L 130.576266 211.748939 
L 130.576266 211.175287 
L 130.926816 211.175287 
L 131.013364 208.88068 
L 131.099484 208.88068 
L 131.185181 206.586073 
L 131.270459 206.586073 
L 131.270459 206.012422 
L 131.439773 206.012422 
L 131.523818 203.717815 
L 131.60746 203.717815 
L 131.690703 199.702253 
L 131.77355 199.702253 
L 131.856005 197.407646 
L 132.101058 197.407646 
L 132.101058 195.113039 
L 132.342714 195.113039 
L 132.422528 192.24478 
L 132.501978 192.24478 
L 132.581068 191.097477 
L 132.73818 191.097477 
L 132.816208 188.229218 
L 132.893889 188.229218 
L 132.893889 187.081915 
L 133.124876 187.081915 
L 133.201197 185.934612 
L 133.352844 185.934612 
L 133.428175 182.492701 
L 133.57787 182.492701 
L 133.57787 181.91905 
L 133.72629 181.91905 
L 133.72629 180.771746 
L 133.873458 180.771746 
L 133.946579 179.624443 
L 134.019394 179.624443 
L 134.019394 179.050791 
L 134.164119 179.050791 
L 134.236034 177.903487 
L 134.307653 177.903487 
L 134.37898 176.182532 
L 134.450015 176.182532 
L 134.450015 175.608881 
L 134.591225 175.608881 
L 134.661403 172.740622 
L 134.7313 172.740622 
L 134.800918 169.872363 
L 134.939326 169.872363 
L 135.00812 168.72506 
L 135.076644 168.72506 
L 135.144899 164.709498 
L 135.280614 164.709498 
L 135.280614 164.135846 
L 135.415281 164.135846 
L 135.482227 162.414891 
L 135.615352 162.414891 
L 135.681535 160.120284 
L 135.747468 160.120284 
L 135.813153 157.252026 
L 135.878591 157.252026 
L 135.878591 154.957419 
L 136.073445 154.957419 
L 136.137916 152.662812 
L 136.202149 152.662812 
L 136.266147 149.794553 
L 136.456742 149.794553 
L 136.519813 148.64725 
L 136.582658 148.64725 
L 136.645276 145.20534 
L 136.769843 145.20534 
L 136.831795 143.484384 
L 136.893527 143.484384 
L 136.955041 141.189778 
L 137.016339 141.189778 
L 137.077422 138.895171 
L 137.138292 138.895171 
L 137.198951 137.174215 
L 137.319638 137.174215 
L 137.37967 134.305957 
L 137.439497 134.305957 
L 137.499118 131.437698 
L 137.558536 131.437698 
L 137.558536 130.864047 
L 137.676769 130.864047 
L 137.676769 128.56944 
L 137.852629 128.56944 
L 137.910857 125.127529 
L 137.968891 125.127529 
L 138.026733 121.685619 
L 138.199116 121.685619 
L 138.256201 119.964664 
L 138.313099 119.964664 
L 138.313099 118.817361 
L 138.426341 118.817361 
L 138.482688 116.522754 
L 138.538853 116.522754 
L 138.594838 114.801798 
L 138.706272 114.801798 
L 138.816998 113.080843 
L 138.872098 113.080843 
L 138.981779 109.065281 
L 139.036363 109.065281 
L 139.145019 103.902416 
L 139.199094 103.902416 
L 139.199094 102.181461 
L 139.360321 102.181461 
L 139.466984 98.73955 
L 139.520072 98.73955 
L 139.625765 95.871292 
L 139.678372 95.871292 
L 139.678372 94.723988 
L 139.835248 94.723988 
L 139.939053 89.561123 
L 139.990725 89.561123 
L 140.042245 88.413819 
L 140.144829 88.413819 
L 140.246813 85.545561 
L 140.39868 85.545561 
L 140.499195 82.677302 
L 140.549236 82.677302 
L 140.64889 79.809044 
L 140.846504 79.809044 
L 140.944478 76.367133 
L 140.993259 76.367133 
L 141.090414 72.351571 
L 141.235139 72.351571 
L 141.33096 68.909661 
L 141.378673 68.909661 
L 141.47371 64.894099 
L 141.521035 64.894099 
L 141.568232 62.599492 
L 141.662245 62.599492 
L 141.755753 59.157582 
L 141.80232 59.157582 
L 141.895083 56.862975 
L 141.941279 56.862975 
L 142.033307 53.994716 
L 142.07914 53.994716 
L 142.170445 52.847413 
L 142.215919 52.847413 
L 142.306513 51.126458 
L 142.351634 51.126458 
L 142.441528 48.831851 
L 142.486301 48.831851 
L 142.486301 48.258199 
L 142.619936 48.258199 
L 142.664255 46.537244 
L 142.752555 46.537244 
L 142.752555 44.242637 
L 142.884173 44.242637 
L 142.971369 40.227075 
L 143.058132 40.227075 
L 143.058132 39.653423 
L 143.187472 39.653423 
L 143.273169 37.932468 
L 143.358447 37.932468 
L 143.44331 35.637861 
L 143.527762 35.637861 
L 143.569835 33.916906 
L 143.861538 33.916906 
L 143.902815 31.622299 
L 144.148442 31.622299 
L 144.148442 30.474996 
L 144.310293 30.474996 
L 144.390658 29.327692 
L 144.510517 29.327692 
L 144.589967 27.606737 
L 144.669057 27.606737 
L 144.747789 24.738479 
L 144.787023 24.738479 
L 144.787023 24.164827 
L 144.981877 24.164827 
L 144.981877 23.591175 
L 145.174578 23.591175 
L 145.174578 23.017524 
L 145.365173 23.017524 
L 145.440832 21.296568 
L 145.553708 21.296568 
L 145.591172 19.575613 
L 145.665858 19.575613 
L 145.665858 19.001962 
L 145.777292 19.001962 
L 145.814278 17.281006 
L 146.143677 17.281006 
L 146.143677 16.707355 
L 146.359869 16.707355 
L 146.466968 15.560051 
L 146.644018 15.560051 
L 146.644018 14.9864 
L 146.958248 14.9864 
L 146.958248 14.412748 
L 147.164632 14.412748 
L 147.164632 13.839096 
L 147.636905 13.839096 
L 147.70334 12.118141 
L 147.802521 12.118141 
L 147.802521 11.544489 
L 148.064279 11.544489 
L 148.064279 10.397186 
L 148.225905 10.397186 
L 148.225905 9.823534 
L 148.386046 9.823534 
L 148.48143 8.102579 
L 148.670646 8.102579 
L 148.670646 7.528927 
L 148.857832 7.528927 
L 148.857832 6.955275 
L 149.134896 6.955275 
L 149.134896 6.381624 
L 338.688 6.381624 
L 338.688 6.381624 
" style="fill:none;stroke:#ff0000;stroke-linecap:square;stroke-width:1.5;"/>
   </g>
   <g id="line2d_51">
    <defs>
     <path d="M 0 -6 
L -5.196152 -3 
L -5.196152 3 
L -0 6 
L 5.196152 3 
L 5.196152 -3 
z
" id="mb0fcee099c" style="stroke:#ff0000;stroke-linejoin:miter;stroke-width:1.5;"/>
    </defs>
    <g>
     <use style="fill-opacity:0;stroke:#ff0000;stroke-linejoin:miter;stroke-width:1.5;" x="137.676769" xlink:href="#mb0fcee099c" y="128.56944"/>
     <use style="fill-opacity:0;stroke:#ff0000;stroke-linejoin:miter;stroke-width:1.5;" x="149.134896" xlink:href="#mb0fcee099c" y="6.955275"/>
     <use style="fill-opacity:0;stroke:#ff0000;stroke-linejoin:miter;stroke-width:1.5;" x="149.134896" xlink:href="#mb0fcee099c" y="6.381624"/>
     <use style="fill-opacity:0;stroke:#ff0000;stroke-linejoin:miter;stroke-width:1.5;" x="149.134896" xlink:href="#mb0fcee099c" y="6.381624"/>
     <use style="fill-opacity:0;stroke:#ff0000;stroke-linejoin:miter;stroke-width:1.5;" x="338.688" xlink:href="#mb0fcee099c" y="6.381624"/>
    </g>
   </g>
   <g id="line2d_52">
    <path style="fill:none;stroke:#ff0000;stroke-linecap:square;stroke-width:1.5;"/>
    <g/>
   </g>
   <g id="line2d_53">
    <path d="M 338.688 29.327692 
L 369.60768 293.092752 
" style="fill:none;stroke:#6495ed;stroke-linecap:square;stroke-width:1.5;"/>
    <g>
     <use style="fill-opacity:0;stroke:#6495ed;stroke-linejoin:miter;stroke-width:1.5;" x="338.688" xlink:href="#me9c064966c" y="29.327692"/>
     <use style="fill-opacity:0;stroke:#6495ed;stroke-linejoin:miter;stroke-width:1.5;" x="369.60768" xlink:href="#me9c064966c" y="293.092752"/>
    </g>
   </g>
   <g id="line2d_54">
    <path d="M 338.688 6.381624 
L 369.60768 222.877782 
" style="fill:none;stroke:#ffa500;stroke-linecap:square;stroke-width:1.5;"/>
    <g>
     <use style="fill-opacity:0;stroke:#ffa500;stroke-linejoin:bevel;stroke-width:1.5;" x="338.688" xlink:href="#md2c5540577" y="6.381624"/>
     <use style="fill-opacity:0;stroke:#ffa500;stroke-linejoin:bevel;stroke-width:1.5;" x="369.60768" xlink:href="#md2c5540577" y="222.877782"/>
    </g>
   </g>
   <g id="line2d_55">
    <path d="M 338.688 6.381624 
L 369.60768 152.662812 
" style="fill:none;stroke:#ff00ff;stroke-linecap:square;stroke-width:1.5;"/>
    <g>
     <use style="fill-opacity:0;stroke:#ff00ff;stroke-linejoin:miter;stroke-width:1.5;" x="338.688" xlink:href="#maf780b0fd2" y="6.381624"/>
     <use style="fill-opacity:0;stroke:#ff00ff;stroke-linejoin:miter;stroke-width:1.5;" x="369.60768" xlink:href="#maf780b0fd2" y="152.662812"/>
    </g>
   </g>
   <g id="line2d_56">
    <path d="M 338.688 6.381624 
L 369.60768 82.447842 
" style="fill:none;stroke:#000080;stroke-linecap:square;stroke-width:1.5;"/>
    <g>
     <use style="fill-opacity:0;stroke:#000080;stroke-width:1.5;" x="338.688" xlink:href="#mec67b80280" y="6.381624"/>
     <use style="fill-opacity:0;stroke:#000080;stroke-width:1.5;" x="369.60768" xlink:href="#mec67b80280" y="82.447842"/>
    </g>
   </g>
   <g id="line2d_57">
    <path d="M 338.688 6.381624 
L 369.60768 12.232871 
" style="fill:none;stroke:#ff0000;stroke-linecap:square;stroke-width:1.5;"/>
    <g>
     <use style="fill-opacity:0;stroke:#ff0000;stroke-linejoin:miter;stroke-width:1.5;" x="338.688" xlink:href="#mb0fcee099c" y="6.381624"/>
     <use style="fill-opacity:0;stroke:#ff0000;stroke-linejoin:miter;stroke-width:1.5;" x="369.60768" xlink:href="#mb0fcee099c" y="12.232871"/>
    </g>
   </g>
   <g id="line2d_58">
    <path d="M 338.688 298.944 
L 338.688 6.381624 
" style="fill:none;stroke:#000000;stroke-linecap:square;stroke-width:1.5;"/>
   </g>
   <g id="patch_3">
    <path d="M 57.6 298.944 
L 57.6 3.456 
" style="fill:none;stroke:#000000;stroke-linecap:square;stroke-linejoin:miter;stroke-width:0.8;"/>
   </g>
   <g id="patch_4">
    <path d="M 338.688 298.944 
L 338.688 3.456 
" style="fill:none;stroke:#000000;stroke-linecap:square;stroke-linejoin:miter;stroke-width:0.8;"/>
   </g>
   <g id="patch_5">
    <path d="M 57.6 298.944 
L 338.688 298.944 
" style="fill:none;stroke:#000000;stroke-linecap:square;stroke-linejoin:miter;stroke-width:0.8;"/>
   </g>
   <g id="patch_6">
    <path d="M 57.6 3.456 
L 338.688 3.456 
" style="fill:none;stroke:#000000;stroke-linecap:square;stroke-linejoin:miter;stroke-width:0.8;"/>
   </g>
   <g id="text_13">
    <!-- f13 -->
    <defs>
     <path d="M 40.578125 39.3125 
Q 47.65625 37.796875 51.625 33 
Q 55.609375 28.21875 55.609375 21.1875 
Q 55.609375 10.40625 48.1875 4.484375 
Q 40.765625 -1.421875 27.09375 -1.421875 
Q 22.515625 -1.421875 17.65625 -0.515625 
Q 12.796875 0.390625 7.625 2.203125 
L 7.625 11.71875 
Q 11.71875 9.328125 16.59375 8.109375 
Q 21.484375 6.890625 26.8125 6.890625 
Q 36.078125 6.890625 40.9375 10.546875 
Q 45.796875 14.203125 45.796875 21.1875 
Q 45.796875 27.640625 41.28125 31.265625 
Q 36.765625 34.90625 28.71875 34.90625 
L 20.21875 34.90625 
L 20.21875 43.015625 
L 29.109375 43.015625 
Q 36.375 43.015625 40.234375 45.921875 
Q 44.09375 48.828125 44.09375 54.296875 
Q 44.09375 59.90625 40.109375 62.90625 
Q 36.140625 65.921875 28.71875 65.921875 
Q 24.65625 65.921875 20.015625 65.03125 
Q 15.375 64.15625 9.8125 62.3125 
L 9.8125 71.09375 
Q 15.4375 72.65625 20.34375 73.4375 
Q 25.25 74.21875 29.59375 74.21875 
Q 40.828125 74.21875 47.359375 69.109375 
Q 53.90625 64.015625 53.90625 55.328125 
Q 53.90625 49.265625 50.4375 45.09375 
Q 46.96875 40.921875 40.578125 39.3125 
z
" id="DejaVuSans-51"/>
    </defs>
    <g transform="translate(375.22944 297.78369)scale(0.17 -0.17)">
     <use xlink:href="#DejaVuSans-102"/>
     <use x="35.205078" xlink:href="#DejaVuSans-49"/>
     <use x="98.828125" xlink:href="#DejaVuSans-51"/>
    </g>
   </g>
   <g id="text_14">
    <!-- f12 -->
    <g transform="translate(375.22944 227.56872)scale(0.17 -0.17)">
     <use xlink:href="#DejaVuSans-102"/>
     <use x="35.205078" xlink:href="#DejaVuSans-49"/>
     <use x="98.828125" xlink:href="#DejaVuSans-50"/>
    </g>
   </g>
   <g id="text_15">
    <!-- f11 -->
    <g transform="translate(375.22944 157.353749)scale(0.17 -0.17)">
     <use xlink:href="#DejaVuSans-102"/>
     <use x="35.205078" xlink:href="#DejaVuSans-49"/>
     <use x="98.828125" xlink:href="#DejaVuSans-49"/>
    </g>
   </g>
   <g id="text_16">
    <!-- f10 -->
    <g transform="translate(375.22944 87.138779)scale(0.17 -0.17)">
     <use xlink:href="#DejaVuSans-102"/>
     <use x="35.205078" xlink:href="#DejaVuSans-49"/>
     <use x="98.828125" xlink:href="#DejaVuSans-48"/>
    </g>
   </g>
   <g id="text_17">
    <!-- f14 -->
    <g transform="translate(375.22944 16.923809)scale(0.17 -0.17)">
     <use xlink:href="#DejaVuSans-102"/>
     <use x="35.205078" xlink:href="#DejaVuSans-49"/>
     <use x="98.828125" xlink:href="#DejaVuSans-52"/>
    </g>
   </g>
   <g id="text_18">
    <!-- bbob -->
    <defs>
     <path d="M 48.6875 27.296875 
Q 48.6875 37.203125 44.609375 42.84375 
Q 40.53125 48.484375 33.40625 48.484375 
Q 26.265625 48.484375 22.1875 42.84375 
Q 18.109375 37.203125 18.109375 27.296875 
Q 18.109375 17.390625 22.1875 11.75 
Q 26.265625 6.109375 33.40625 6.109375 
Q 40.53125 6.109375 44.609375 11.75 
Q 48.6875 17.390625 48.6875 27.296875 
z
M 18.109375 46.390625 
Q 20.953125 51.265625 25.265625 53.625 
Q 29.59375 56 35.59375 56 
Q 45.5625 56 51.78125 48.09375 
Q 58.015625 40.1875 58.015625 27.296875 
Q 58.015625 14.40625 51.78125 6.484375 
Q 45.5625 -1.421875 35.59375 -1.421875 
Q 29.59375 -1.421875 25.265625 0.953125 
Q 20.953125 3.328125 18.109375 8.203125 
L 18.109375 0 
L 9.078125 0 
L 9.078125 75.984375 
L 18.109375 75.984375 
z
" id="DejaVuSans-98"/>
    </defs>
    <g transform="translate(60.41088 14.161286)scale(0.102 -0.102)">
     <use xlink:href="#DejaVuSans-98"/>
     <use x="63.476562" xlink:href="#DejaVuSans-98"/>
     <use x="126.953125" xlink:href="#DejaVuSans-111"/>
     <use x="188.134766" xlink:href="#DejaVuSans-98"/>
    </g>
    <!-- Ill-conditioned functions, 3-D -->
    <defs>
     <path d="M 9.8125 72.90625 
L 19.671875 72.90625 
L 19.671875 0 
L 9.8125 0 
z
" id="DejaVuSans-73"/>
     <path d="M 19.671875 64.796875 
L 19.671875 8.109375 
L 31.59375 8.109375 
Q 46.6875 8.109375 53.6875 14.9375 
Q 60.6875 21.78125 60.6875 36.53125 
Q 60.6875 51.171875 53.6875 57.984375 
Q 46.6875 64.796875 31.59375 64.796875 
z
M 9.8125 72.90625 
L 30.078125 72.90625 
Q 51.265625 72.90625 61.171875 64.09375 
Q 71.09375 55.28125 71.09375 36.53125 
Q 71.09375 17.671875 61.125 8.828125 
Q 51.171875 0 30.078125 0 
L 9.8125 0 
z
" id="DejaVuSans-68"/>
    </defs>
    <g transform="translate(60.41088 25.583055)scale(0.102 -0.102)">
     <use xlink:href="#DejaVuSans-73"/>
     <use x="29.492188" xlink:href="#DejaVuSans-108"/>
     <use x="57.275391" xlink:href="#DejaVuSans-108"/>
     <use x="85.058594" xlink:href="#DejaVuSans-45"/>
     <use x="121.142578" xlink:href="#DejaVuSans-99"/>
     <use x="176.123047" xlink:href="#DejaVuSans-111"/>
     <use x="237.304688" xlink:href="#DejaVuSans-110"/>
     <use x="300.683594" xlink:href="#DejaVuSans-100"/>
     <use x="364.160156" xlink:href="#DejaVuSans-105"/>
     <use x="391.943359" xlink:href="#DejaVuSans-116"/>
     <use x="431.152344" xlink:href="#DejaVuSans-105"/>
     <use x="458.935547" xlink:href="#DejaVuSans-111"/>
     <use x="520.117188" xlink:href="#DejaVuSans-110"/>
     <use x="583.496094" xlink:href="#DejaVuSans-101"/>
     <use x="645.019531" xlink:href="#DejaVuSans-100"/>
     <use x="708.496094" xlink:href="#DejaVuSans-32"/>
     <use x="740.283203" xlink:href="#DejaVuSans-102"/>
     <use x="775.488281" xlink:href="#DejaVuSans-117"/>
     <use x="838.867188" xlink:href="#DejaVuSans-110"/>
     <use x="902.246094" xlink:href="#DejaVuSans-99"/>
     <use x="957.226562" xlink:href="#DejaVuSans-116"/>
     <use x="996.435547" xlink:href="#DejaVuSans-105"/>
     <use x="1024.21875" xlink:href="#DejaVuSans-111"/>
     <use x="1085.400391" xlink:href="#DejaVuSans-110"/>
     <use x="1148.779297" xlink:href="#DejaVuSans-115"/>
     <use x="1200.878906" xlink:href="#DejaVuSans-44"/>
     <use x="1232.666016" xlink:href="#DejaVuSans-32"/>
     <use x="1264.453125" xlink:href="#DejaVuSans-51"/>
     <use x="1328.076172" xlink:href="#DejaVuSans-45"/>
     <use x="1364.160156" xlink:href="#DejaVuSans-68"/>
    </g>
    <!-- 51 targets: 100..1e-08 -->
    <defs>
     <path d="M 10.796875 72.90625 
L 49.515625 72.90625 
L 49.515625 64.59375 
L 19.828125 64.59375 
L 19.828125 46.734375 
Q 21.96875 47.46875 24.109375 47.828125 
Q 26.265625 48.1875 28.421875 48.1875 
Q 40.625 48.1875 47.75 41.5 
Q 54.890625 34.8125 54.890625 23.390625 
Q 54.890625 11.625 47.5625 5.09375 
Q 40.234375 -1.421875 26.90625 -1.421875 
Q 22.3125 -1.421875 17.546875 -0.640625 
Q 12.796875 0.140625 7.71875 1.703125 
L 7.71875 11.625 
Q 12.109375 9.234375 16.796875 8.0625 
Q 21.484375 6.890625 26.703125 6.890625 
Q 35.15625 6.890625 40.078125 11.328125 
Q 45.015625 15.765625 45.015625 23.390625 
Q 45.015625 31 40.078125 35.4375 
Q 35.15625 39.890625 26.703125 39.890625 
Q 22.75 39.890625 18.8125 39.015625 
Q 14.890625 38.140625 10.796875 36.28125 
z
" id="DejaVuSans-53"/>
     <path d="M 11.71875 12.40625 
L 22.015625 12.40625 
L 22.015625 0 
L 11.71875 0 
z
M 11.71875 51.703125 
L 22.015625 51.703125 
L 22.015625 39.3125 
L 11.71875 39.3125 
z
" id="DejaVuSans-58"/>
    </defs>
    <g transform="translate(60.41088 37.004824)scale(0.102 -0.102)">
     <use xlink:href="#DejaVuSans-53"/>
     <use x="63.623047" xlink:href="#DejaVuSans-49"/>
     <use x="127.246094" xlink:href="#DejaVuSans-32"/>
     <use x="159.033203" xlink:href="#DejaVuSans-116"/>
     <use x="198.242188" xlink:href="#DejaVuSans-97"/>
     <use x="259.521484" xlink:href="#DejaVuSans-114"/>
     <use x="298.884766" xlink:href="#DejaVuSans-103"/>
     <use x="362.361328" xlink:href="#DejaVuSans-101"/>
     <use x="423.884766" xlink:href="#DejaVuSans-116"/>
     <use x="463.09375" xlink:href="#DejaVuSans-115"/>
     <use x="515.193359" xlink:href="#DejaVuSans-58"/>
     <use x="548.884766" xlink:href="#DejaVuSans-32"/>
     <use x="580.671875" xlink:href="#DejaVuSans-49"/>
     <use x="644.294922" xlink:href="#DejaVuSans-48"/>
     <use x="707.917969" xlink:href="#DejaVuSans-48"/>
     <use x="771.541016" xlink:href="#DejaVuSans-46"/>
     <use x="803.328125" xlink:href="#DejaVuSans-46"/>
     <use x="835.115234" xlink:href="#DejaVuSans-49"/>
     <use x="898.738281" xlink:href="#DejaVuSans-101"/>
     <use x="960.261719" xlink:href="#DejaVuSans-45"/>
     <use x="996.345703" xlink:href="#DejaVuSans-48"/>
     <use x="1059.96875" xlink:href="#DejaVuSans-56"/>
    </g>
    <!-- 15 instances -->
    <g transform="translate(60.41088 48.426593)scale(0.102 -0.102)">
     <use xlink:href="#DejaVuSans-49"/>
     <use x="63.623047" xlink:href="#DejaVuSans-53"/>
     <use x="127.246094" xlink:href="#DejaVuSans-32"/>
     <use x="159.033203" xlink:href="#DejaVuSans-105"/>
     <use x="186.816406" xlink:href="#DejaVuSans-110"/>
     <use x="250.195312" xlink:href="#DejaVuSans-115"/>
     <use x="302.294922" xlink:href="#DejaVuSans-116"/>
     <use x="341.503906" xlink:href="#DejaVuSans-97"/>
     <use x="402.783203" xlink:href="#DejaVuSans-110"/>
     <use x="466.162109" xlink:href="#DejaVuSans-99"/>
     <use x="521.142578" xlink:href="#DejaVuSans-101"/>
     <use x="582.666016" xlink:href="#DejaVuSans-115"/>
    </g>
   </g>
   <g id="text_19">
    <!-- v2.3.3.5 -->
    <g style="fill:#808080;" transform="translate(177.692437 293.909432)scale(0.1 -0.1)">
     <use xlink:href="#DejaVuSans-118"/>
     <use x="59.179688" xlink:href="#DejaVuSans-50"/>
     <use x="122.802734" xlink:href="#DejaVuSans-46"/>
     <use x="154.589844" xlink:href="#DejaVuSans-51"/>
     <use x="218.212891" xlink:href="#DejaVuSans-46"/>
     <use x="250" xlink:href="#DejaVuSans-51"/>
     <use x="313.623047" xlink:href="#DejaVuSans-46"/>
     <use x="345.410156" xlink:href="#DejaVuSans-53"/>
    </g>
   </g>
  </g>
 </g>
 <defs>
  <clipPath id="p9ab27e42b7">
   <rect height="295.488" width="281.088" x="57.6" y="3.456"/>
  </clipPath>
 </defs>
</svg>
