<?xml version="1.0" encoding="utf-8" standalone="no"?>
<!DOCTYPE svg PUBLIC "-//W3C//DTD SVG 1.1//EN"
  "http://www.w3.org/Graphics/SVG/1.1/DTD/svg11.dtd">
<!-- Created with matplotlib (https://matplotlib.org/) -->
<svg height="345.6pt" version="1.1" viewBox="0 0 460.8 345.6" width="460.8pt" xmlns="http://www.w3.org/2000/svg" xmlns:xlink="http://www.w3.org/1999/xlink">
 <defs>
  <style type="text/css">
*{stroke-linecap:butt;stroke-linejoin:round;}
  </style>
 </defs>
 <g id="figure_1">
  <g id="patch_1">
   <path d="M 0 345.6 
L 460.8 345.6 
L 460.8 0 
L 0 0 
z
" style="fill:#ffffff;"/>
  </g>
  <g id="axes_1">
   <g id="patch_2">
    <path d="M 57.6 298.944 
L 338.688 298.944 
L 338.688 3.456 
L 57.6 3.456 
z
" style="fill:#ffffff;"/>
   </g>
   <g id="matplotlib.axis_1">
    <g id="xtick_1">
     <g id="line2d_1">
      <path clip-path="url(#pa4116de74d)" d="M 57.6 298.944 
L 57.6 3.456 
" style="fill:none;stroke:#b0b0b0;stroke-linecap:square;stroke-width:0.8;"/>
     </g>
     <g id="line2d_2">
      <defs>
       <path d="M 0 0 
L 0 3.5 
" id="mb1dc5c154d" style="stroke:#000000;stroke-width:0.8;"/>
      </defs>
      <g>
       <use style="stroke:#000000;stroke-width:0.8;" x="57.6" xlink:href="#mb1dc5c154d" y="298.944"/>
      </g>
     </g>
     <g id="text_1">
      <!-- 0 -->
      <defs>
       <path d="M 31.78125 66.40625 
Q 24.171875 66.40625 20.328125 58.90625 
Q 16.5 51.421875 16.5 36.375 
Q 16.5 21.390625 20.328125 13.890625 
Q 24.171875 6.390625 31.78125 6.390625 
Q 39.453125 6.390625 43.28125 13.890625 
Q 47.125 21.390625 47.125 36.375 
Q 47.125 51.421875 43.28125 58.90625 
Q 39.453125 66.40625 31.78125 66.40625 
z
M 31.78125 74.21875 
Q 44.046875 74.21875 50.515625 64.515625 
Q 56.984375 54.828125 56.984375 36.375 
Q 56.984375 17.96875 50.515625 8.265625 
Q 44.046875 -1.421875 31.78125 -1.421875 
Q 19.53125 -1.421875 13.0625 8.265625 
Q 6.59375 17.96875 6.59375 36.375 
Q 6.59375 54.828125 13.0625 64.515625 
Q 19.53125 74.21875 31.78125 74.21875 
z
" id="DejaVuSans-48"/>
      </defs>
      <g transform="translate(51.2375 321.140875)scale(0.2 -0.2)">
       <use xlink:href="#DejaVuSans-48"/>
      </g>
     </g>
    </g>
    <g id="xtick_2">
     <g id="line2d_3">
      <path clip-path="url(#pa4116de74d)" d="M 137.910857 298.944 
L 137.910857 3.456 
" style="fill:none;stroke:#b0b0b0;stroke-linecap:square;stroke-width:0.8;"/>
     </g>
     <g id="line2d_4">
      <g>
       <use style="stroke:#000000;stroke-width:0.8;" x="137.910857" xlink:href="#mb1dc5c154d" y="298.944"/>
      </g>
     </g>
     <g id="text_2">
      <!-- 2 -->
      <defs>
       <path d="M 19.1875 8.296875 
L 53.609375 8.296875 
L 53.609375 0 
L 7.328125 0 
L 7.328125 8.296875 
Q 12.9375 14.109375 22.625 23.890625 
Q 32.328125 33.6875 34.8125 36.53125 
Q 39.546875 41.84375 41.421875 45.53125 
Q 43.3125 49.21875 43.3125 52.78125 
Q 43.3125 58.59375 39.234375 62.25 
Q 35.15625 65.921875 28.609375 65.921875 
Q 23.96875 65.921875 18.8125 64.3125 
Q 13.671875 62.703125 7.8125 59.421875 
L 7.8125 69.390625 
Q 13.765625 71.78125 18.9375 73 
Q 24.125 74.21875 28.421875 74.21875 
Q 39.75 74.21875 46.484375 68.546875 
Q 53.21875 62.890625 53.21875 53.421875 
Q 53.21875 48.921875 51.53125 44.890625 
Q 49.859375 40.875 45.40625 35.40625 
Q 44.1875 33.984375 37.640625 27.21875 
Q 31.109375 20.453125 19.1875 8.296875 
z
" id="DejaVuSans-50"/>
      </defs>
      <g transform="translate(131.548357 321.140875)scale(0.2 -0.2)">
       <use xlink:href="#DejaVuSans-50"/>
      </g>
     </g>
    </g>
    <g id="xtick_3">
     <g id="line2d_5">
      <path clip-path="url(#pa4116de74d)" d="M 218.221714 298.944 
L 218.221714 3.456 
" style="fill:none;stroke:#b0b0b0;stroke-linecap:square;stroke-width:0.8;"/>
     </g>
     <g id="line2d_6">
      <g>
       <use style="stroke:#000000;stroke-width:0.8;" x="218.221714" xlink:href="#mb1dc5c154d" y="298.944"/>
      </g>
     </g>
     <g id="text_3">
      <!-- 4 -->
      <defs>
       <path d="M 37.796875 64.3125 
L 12.890625 25.390625 
L 37.796875 25.390625 
z
M 35.203125 72.90625 
L 47.609375 72.90625 
L 47.609375 25.390625 
L 58.015625 25.390625 
L 58.015625 17.1875 
L 47.609375 17.1875 
L 47.609375 0 
L 37.796875 0 
L 37.796875 17.1875 
L 4.890625 17.1875 
L 4.890625 26.703125 
z
" id="DejaVuSans-52"/>
      </defs>
      <g transform="translate(211.859214 321.140875)scale(0.2 -0.2)">
       <use xlink:href="#DejaVuSans-52"/>
      </g>
     </g>
    </g>
    <g id="xtick_4">
     <g id="line2d_7">
      <path clip-path="url(#pa4116de74d)" d="M 298.532571 298.944 
L 298.532571 3.456 
" style="fill:none;stroke:#b0b0b0;stroke-linecap:square;stroke-width:0.8;"/>
     </g>
     <g id="line2d_8">
      <g>
       <use style="stroke:#000000;stroke-width:0.8;" x="298.532571" xlink:href="#mb1dc5c154d" y="298.944"/>
      </g>
     </g>
     <g id="text_4">
      <!-- 6 -->
      <defs>
       <path d="M 33.015625 40.375 
Q 26.375 40.375 22.484375 35.828125 
Q 18.609375 31.296875 18.609375 23.390625 
Q 18.609375 15.53125 22.484375 10.953125 
Q 26.375 6.390625 33.015625 6.390625 
Q 39.65625 6.390625 43.53125 10.953125 
Q 47.40625 15.53125 47.40625 23.390625 
Q 47.40625 31.296875 43.53125 35.828125 
Q 39.65625 40.375 33.015625 40.375 
z
M 52.59375 71.296875 
L 52.59375 62.3125 
Q 48.875 64.0625 45.09375 64.984375 
Q 41.3125 65.921875 37.59375 65.921875 
Q 27.828125 65.921875 22.671875 59.328125 
Q 17.53125 52.734375 16.796875 39.40625 
Q 19.671875 43.65625 24.015625 45.921875 
Q 28.375 48.1875 33.59375 48.1875 
Q 44.578125 48.1875 50.953125 41.515625 
Q 57.328125 34.859375 57.328125 23.390625 
Q 57.328125 12.15625 50.6875 5.359375 
Q 44.046875 -1.421875 33.015625 -1.421875 
Q 20.359375 -1.421875 13.671875 8.265625 
Q 6.984375 17.96875 6.984375 36.375 
Q 6.984375 53.65625 15.1875 63.9375 
Q 23.390625 74.21875 37.203125 74.21875 
Q 40.921875 74.21875 44.703125 73.484375 
Q 48.484375 72.75 52.59375 71.296875 
z
" id="DejaVuSans-54"/>
      </defs>
      <g transform="translate(292.170071 321.140875)scale(0.2 -0.2)">
       <use xlink:href="#DejaVuSans-54"/>
      </g>
     </g>
    </g>
    <g id="xtick_5">
     <g id="line2d_9">
      <path clip-path="url(#pa4116de74d)" d="M 97.755429 298.944 
L 97.755429 3.456 
" style="fill:none;stroke:#b0b0b0;stroke-linecap:square;stroke-width:0.8;"/>
     </g>
     <g id="line2d_10">
      <defs>
       <path d="M 0 0 
L 0 2 
" id="ma582b630e0" style="stroke:#000000;stroke-width:0.6;"/>
      </defs>
      <g>
       <use style="stroke:#000000;stroke-width:0.6;" x="97.755429" xlink:href="#ma582b630e0" y="298.944"/>
      </g>
     </g>
    </g>
    <g id="xtick_6">
     <g id="line2d_11">
      <path clip-path="url(#pa4116de74d)" d="M 178.066286 298.944 
L 178.066286 3.456 
" style="fill:none;stroke:#b0b0b0;stroke-linecap:square;stroke-width:0.8;"/>
     </g>
     <g id="line2d_12">
      <g>
       <use style="stroke:#000000;stroke-width:0.6;" x="178.066286" xlink:href="#ma582b630e0" y="298.944"/>
      </g>
     </g>
    </g>
    <g id="xtick_7">
     <g id="line2d_13">
      <path clip-path="url(#pa4116de74d)" d="M 258.377143 298.944 
L 258.377143 3.456 
" style="fill:none;stroke:#b0b0b0;stroke-linecap:square;stroke-width:0.8;"/>
     </g>
     <g id="line2d_14">
      <g>
       <use style="stroke:#000000;stroke-width:0.6;" x="258.377143" xlink:href="#ma582b630e0" y="298.944"/>
      </g>
     </g>
    </g>
    <g id="xtick_8">
     <g id="line2d_15">
      <path clip-path="url(#pa4116de74d)" d="M 338.688 298.944 
L 338.688 3.456 
" style="fill:none;stroke:#b0b0b0;stroke-linecap:square;stroke-width:0.8;"/>
     </g>
     <g id="line2d_16">
      <g>
       <use style="stroke:#000000;stroke-width:0.6;" x="338.688" xlink:href="#ma582b630e0" y="298.944"/>
      </g>
     </g>
    </g>
    <g id="text_5">
     <!-- log10(# f-evals / dimension) -->
     <defs>
      <path d="M 9.421875 75.984375 
L 18.40625 75.984375 
L 18.40625 0 
L 9.421875 0 
z
" id="DejaVuSans-108"/>
      <path d="M 30.609375 48.390625 
Q 23.390625 48.390625 19.1875 42.75 
Q 14.984375 37.109375 14.984375 27.296875 
Q 14.984375 17.484375 19.15625 11.84375 
Q 23.34375 6.203125 30.609375 6.203125 
Q 37.796875 6.203125 41.984375 11.859375 
Q 46.1875 17.53125 46.1875 27.296875 
Q 46.1875 37.015625 41.984375 42.703125 
Q 37.796875 48.390625 30.609375 48.390625 
z
M 30.609375 56 
Q 42.328125 56 49.015625 48.375 
Q 55.71875 40.765625 55.71875 27.296875 
Q 55.71875 13.875 49.015625 6.21875 
Q 42.328125 -1.421875 30.609375 -1.421875 
Q 18.84375 -1.421875 12.171875 6.21875 
Q 5.515625 13.875 5.515625 27.296875 
Q 5.515625 40.765625 12.171875 48.375 
Q 18.84375 56 30.609375 56 
z
" id="DejaVuSans-111"/>
      <path d="M 45.40625 27.984375 
Q 45.40625 37.75 41.375 43.109375 
Q 37.359375 48.484375 30.078125 48.484375 
Q 22.859375 48.484375 18.828125 43.109375 
Q 14.796875 37.75 14.796875 27.984375 
Q 14.796875 18.265625 18.828125 12.890625 
Q 22.859375 7.515625 30.078125 7.515625 
Q 37.359375 7.515625 41.375 12.890625 
Q 45.40625 18.265625 45.40625 27.984375 
z
M 54.390625 6.78125 
Q 54.390625 -7.171875 48.1875 -13.984375 
Q 42 -20.796875 29.203125 -20.796875 
Q 24.46875 -20.796875 20.265625 -20.09375 
Q 16.0625 -19.390625 12.109375 -17.921875 
L 12.109375 -9.1875 
Q 16.0625 -11.328125 19.921875 -12.34375 
Q 23.78125 -13.375 27.78125 -13.375 
Q 36.625 -13.375 41.015625 -8.765625 
Q 45.40625 -4.15625 45.40625 5.171875 
L 45.40625 9.625 
Q 42.625 4.78125 38.28125 2.390625 
Q 33.9375 0 27.875 0 
Q 17.828125 0 11.671875 7.65625 
Q 5.515625 15.328125 5.515625 27.984375 
Q 5.515625 40.671875 11.671875 48.328125 
Q 17.828125 56 27.875 56 
Q 33.9375 56 38.28125 53.609375 
Q 42.625 51.21875 45.40625 46.390625 
L 45.40625 54.6875 
L 54.390625 54.6875 
z
" id="DejaVuSans-103"/>
      <path d="M 12.40625 8.296875 
L 28.515625 8.296875 
L 28.515625 63.921875 
L 10.984375 60.40625 
L 10.984375 69.390625 
L 28.421875 72.90625 
L 38.28125 72.90625 
L 38.28125 8.296875 
L 54.390625 8.296875 
L 54.390625 0 
L 12.40625 0 
z
" id="DejaVuSans-49"/>
      <path d="M 31 75.875 
Q 24.46875 64.65625 21.28125 53.65625 
Q 18.109375 42.671875 18.109375 31.390625 
Q 18.109375 20.125 21.3125 9.0625 
Q 24.515625 -2 31 -13.1875 
L 23.1875 -13.1875 
Q 15.875 -1.703125 12.234375 9.375 
Q 8.59375 20.453125 8.59375 31.390625 
Q 8.59375 42.28125 12.203125 53.3125 
Q 15.828125 64.359375 23.1875 75.875 
z
" id="DejaVuSans-40"/>
      <path d="M 51.125 44 
L 36.921875 44 
L 32.8125 27.6875 
L 47.125 27.6875 
z
M 43.796875 71.78125 
L 38.71875 51.515625 
L 52.984375 51.515625 
L 58.109375 71.78125 
L 65.921875 71.78125 
L 60.890625 51.515625 
L 76.125 51.515625 
L 76.125 44 
L 58.984375 44 
L 54.984375 27.6875 
L 70.515625 27.6875 
L 70.515625 20.21875 
L 53.078125 20.21875 
L 48 0 
L 40.1875 0 
L 45.21875 20.21875 
L 30.90625 20.21875 
L 25.875 0 
L 18.015625 0 
L 23.09375 20.21875 
L 7.71875 20.21875 
L 7.71875 27.6875 
L 24.90625 27.6875 
L 29 44 
L 13.28125 44 
L 13.28125 51.515625 
L 30.90625 51.515625 
L 35.890625 71.78125 
z
" id="DejaVuSans-35"/>
      <path id="DejaVuSans-32"/>
      <path d="M 37.109375 75.984375 
L 37.109375 68.5 
L 28.515625 68.5 
Q 23.6875 68.5 21.796875 66.546875 
Q 19.921875 64.59375 19.921875 59.515625 
L 19.921875 54.6875 
L 34.71875 54.6875 
L 34.71875 47.703125 
L 19.921875 47.703125 
L 19.921875 0 
L 10.890625 0 
L 10.890625 47.703125 
L 2.296875 47.703125 
L 2.296875 54.6875 
L 10.890625 54.6875 
L 10.890625 58.5 
Q 10.890625 67.625 15.140625 71.796875 
Q 19.390625 75.984375 28.609375 75.984375 
z
" id="DejaVuSans-102"/>
      <path d="M 4.890625 31.390625 
L 31.203125 31.390625 
L 31.203125 23.390625 
L 4.890625 23.390625 
z
" id="DejaVuSans-45"/>
      <path d="M 56.203125 29.59375 
L 56.203125 25.203125 
L 14.890625 25.203125 
Q 15.484375 15.921875 20.484375 11.0625 
Q 25.484375 6.203125 34.421875 6.203125 
Q 39.59375 6.203125 44.453125 7.46875 
Q 49.3125 8.734375 54.109375 11.28125 
L 54.109375 2.78125 
Q 49.265625 0.734375 44.1875 -0.34375 
Q 39.109375 -1.421875 33.890625 -1.421875 
Q 20.796875 -1.421875 13.15625 6.1875 
Q 5.515625 13.8125 5.515625 26.8125 
Q 5.515625 40.234375 12.765625 48.109375 
Q 20.015625 56 32.328125 56 
Q 43.359375 56 49.78125 48.890625 
Q 56.203125 41.796875 56.203125 29.59375 
z
M 47.21875 32.234375 
Q 47.125 39.59375 43.09375 43.984375 
Q 39.0625 48.390625 32.421875 48.390625 
Q 24.90625 48.390625 20.390625 44.140625 
Q 15.875 39.890625 15.1875 32.171875 
z
" id="DejaVuSans-101"/>
      <path d="M 2.984375 54.6875 
L 12.5 54.6875 
L 29.59375 8.796875 
L 46.6875 54.6875 
L 56.203125 54.6875 
L 35.6875 0 
L 23.484375 0 
z
" id="DejaVuSans-118"/>
      <path d="M 34.28125 27.484375 
Q 23.390625 27.484375 19.1875 25 
Q 14.984375 22.515625 14.984375 16.5 
Q 14.984375 11.71875 18.140625 8.90625 
Q 21.296875 6.109375 26.703125 6.109375 
Q 34.1875 6.109375 38.703125 11.40625 
Q 43.21875 16.703125 43.21875 25.484375 
L 43.21875 27.484375 
z
M 52.203125 31.203125 
L 52.203125 0 
L 43.21875 0 
L 43.21875 8.296875 
Q 40.140625 3.328125 35.546875 0.953125 
Q 30.953125 -1.421875 24.3125 -1.421875 
Q 15.921875 -1.421875 10.953125 3.296875 
Q 6 8.015625 6 15.921875 
Q 6 25.140625 12.171875 29.828125 
Q 18.359375 34.515625 30.609375 34.515625 
L 43.21875 34.515625 
L 43.21875 35.40625 
Q 43.21875 41.609375 39.140625 45 
Q 35.0625 48.390625 27.6875 48.390625 
Q 23 48.390625 18.546875 47.265625 
Q 14.109375 46.140625 10.015625 43.890625 
L 10.015625 52.203125 
Q 14.9375 54.109375 19.578125 55.046875 
Q 24.21875 56 28.609375 56 
Q 40.484375 56 46.34375 49.84375 
Q 52.203125 43.703125 52.203125 31.203125 
z
" id="DejaVuSans-97"/>
      <path d="M 44.28125 53.078125 
L 44.28125 44.578125 
Q 40.484375 46.53125 36.375 47.5 
Q 32.28125 48.484375 27.875 48.484375 
Q 21.1875 48.484375 17.84375 46.4375 
Q 14.5 44.390625 14.5 40.28125 
Q 14.5 37.15625 16.890625 35.375 
Q 19.28125 33.59375 26.515625 31.984375 
L 29.59375 31.296875 
Q 39.15625 29.25 43.1875 25.515625 
Q 47.21875 21.78125 47.21875 15.09375 
Q 47.21875 7.46875 41.1875 3.015625 
Q 35.15625 -1.421875 24.609375 -1.421875 
Q 20.21875 -1.421875 15.453125 -0.5625 
Q 10.6875 0.296875 5.421875 2 
L 5.421875 11.28125 
Q 10.40625 8.6875 15.234375 7.390625 
Q 20.0625 6.109375 24.8125 6.109375 
Q 31.15625 6.109375 34.5625 8.28125 
Q 37.984375 10.453125 37.984375 14.40625 
Q 37.984375 18.0625 35.515625 20.015625 
Q 33.0625 21.96875 24.703125 23.78125 
L 21.578125 24.515625 
Q 13.234375 26.265625 9.515625 29.90625 
Q 5.8125 33.546875 5.8125 39.890625 
Q 5.8125 47.609375 11.28125 51.796875 
Q 16.75 56 26.8125 56 
Q 31.78125 56 36.171875 55.265625 
Q 40.578125 54.546875 44.28125 53.078125 
z
" id="DejaVuSans-115"/>
      <path d="M 25.390625 72.90625 
L 33.6875 72.90625 
L 8.296875 -9.28125 
L 0 -9.28125 
z
" id="DejaVuSans-47"/>
      <path d="M 45.40625 46.390625 
L 45.40625 75.984375 
L 54.390625 75.984375 
L 54.390625 0 
L 45.40625 0 
L 45.40625 8.203125 
Q 42.578125 3.328125 38.25 0.953125 
Q 33.9375 -1.421875 27.875 -1.421875 
Q 17.96875 -1.421875 11.734375 6.484375 
Q 5.515625 14.40625 5.515625 27.296875 
Q 5.515625 40.1875 11.734375 48.09375 
Q 17.96875 56 27.875 56 
Q 33.9375 56 38.25 53.625 
Q 42.578125 51.265625 45.40625 46.390625 
z
M 14.796875 27.296875 
Q 14.796875 17.390625 18.875 11.75 
Q 22.953125 6.109375 30.078125 6.109375 
Q 37.203125 6.109375 41.296875 11.75 
Q 45.40625 17.390625 45.40625 27.296875 
Q 45.40625 37.203125 41.296875 42.84375 
Q 37.203125 48.484375 30.078125 48.484375 
Q 22.953125 48.484375 18.875 42.84375 
Q 14.796875 37.203125 14.796875 27.296875 
z
" id="DejaVuSans-100"/>
      <path d="M 9.421875 54.6875 
L 18.40625 54.6875 
L 18.40625 0 
L 9.421875 0 
z
M 9.421875 75.984375 
L 18.40625 75.984375 
L 18.40625 64.59375 
L 9.421875 64.59375 
z
" id="DejaVuSans-105"/>
      <path d="M 52 44.1875 
Q 55.375 50.25 60.0625 53.125 
Q 64.75 56 71.09375 56 
Q 79.640625 56 84.28125 50.015625 
Q 88.921875 44.046875 88.921875 33.015625 
L 88.921875 0 
L 79.890625 0 
L 79.890625 32.71875 
Q 79.890625 40.578125 77.09375 44.375 
Q 74.3125 48.1875 68.609375 48.1875 
Q 61.625 48.1875 57.5625 43.546875 
Q 53.515625 38.921875 53.515625 30.90625 
L 53.515625 0 
L 44.484375 0 
L 44.484375 32.71875 
Q 44.484375 40.625 41.703125 44.40625 
Q 38.921875 48.1875 33.109375 48.1875 
Q 26.21875 48.1875 22.15625 43.53125 
Q 18.109375 38.875 18.109375 30.90625 
L 18.109375 0 
L 9.078125 0 
L 9.078125 54.6875 
L 18.109375 54.6875 
L 18.109375 46.1875 
Q 21.1875 51.21875 25.484375 53.609375 
Q 29.78125 56 35.6875 56 
Q 41.65625 56 45.828125 52.96875 
Q 50 49.953125 52 44.1875 
z
" id="DejaVuSans-109"/>
      <path d="M 54.890625 33.015625 
L 54.890625 0 
L 45.90625 0 
L 45.90625 32.71875 
Q 45.90625 40.484375 42.875 44.328125 
Q 39.84375 48.1875 33.796875 48.1875 
Q 26.515625 48.1875 22.3125 43.546875 
Q 18.109375 38.921875 18.109375 30.90625 
L 18.109375 0 
L 9.078125 0 
L 9.078125 54.6875 
L 18.109375 54.6875 
L 18.109375 46.1875 
Q 21.34375 51.125 25.703125 53.5625 
Q 30.078125 56 35.796875 56 
Q 45.21875 56 50.046875 50.171875 
Q 54.890625 44.34375 54.890625 33.015625 
z
" id="DejaVuSans-110"/>
      <path d="M 8.015625 75.875 
L 15.828125 75.875 
Q 23.140625 64.359375 26.78125 53.3125 
Q 30.421875 42.28125 30.421875 31.390625 
Q 30.421875 20.453125 26.78125 9.375 
Q 23.140625 -1.703125 15.828125 -13.1875 
L 8.015625 -13.1875 
Q 14.5 -2 17.703125 9.0625 
Q 20.90625 20.125 20.90625 31.390625 
Q 20.90625 42.671875 17.703125 53.65625 
Q 14.5 64.65625 8.015625 75.875 
z
" id="DejaVuSans-41"/>
     </defs>
     <g transform="translate(77.764078 342.217594)scale(0.17 -0.17)">
      <use xlink:href="#DejaVuSans-108"/>
      <use x="27.783203" xlink:href="#DejaVuSans-111"/>
      <use x="88.964844" xlink:href="#DejaVuSans-103"/>
      <use x="152.441406" xlink:href="#DejaVuSans-49"/>
      <use x="216.064453" xlink:href="#DejaVuSans-48"/>
      <use x="279.6875" xlink:href="#DejaVuSans-40"/>
      <use x="318.701172" xlink:href="#DejaVuSans-35"/>
      <use x="402.490234" xlink:href="#DejaVuSans-32"/>
      <use x="434.277344" xlink:href="#DejaVuSans-102"/>
      <use x="463.982422" xlink:href="#DejaVuSans-45"/>
      <use x="500.066406" xlink:href="#DejaVuSans-101"/>
      <use x="561.589844" xlink:href="#DejaVuSans-118"/>
      <use x="620.769531" xlink:href="#DejaVuSans-97"/>
      <use x="682.048828" xlink:href="#DejaVuSans-108"/>
      <use x="709.832031" xlink:href="#DejaVuSans-115"/>
      <use x="761.931641" xlink:href="#DejaVuSans-32"/>
      <use x="793.71875" xlink:href="#DejaVuSans-47"/>
      <use x="827.410156" xlink:href="#DejaVuSans-32"/>
      <use x="859.197266" xlink:href="#DejaVuSans-100"/>
      <use x="922.673828" xlink:href="#DejaVuSans-105"/>
      <use x="950.457031" xlink:href="#DejaVuSans-109"/>
      <use x="1047.869141" xlink:href="#DejaVuSans-101"/>
      <use x="1109.392578" xlink:href="#DejaVuSans-110"/>
      <use x="1172.771484" xlink:href="#DejaVuSans-115"/>
      <use x="1224.871094" xlink:href="#DejaVuSans-105"/>
      <use x="1252.654297" xlink:href="#DejaVuSans-111"/>
      <use x="1313.835938" xlink:href="#DejaVuSans-110"/>
      <use x="1377.214844" xlink:href="#DejaVuSans-41"/>
     </g>
    </g>
   </g>
   <g id="matplotlib.axis_2">
    <g id="ytick_1">
     <g id="line2d_17">
      <path clip-path="url(#pa4116de74d)" d="M 57.6 298.944 
L 338.688 298.944 
" style="fill:none;stroke:#b0b0b0;stroke-linecap:square;stroke-width:0.8;"/>
     </g>
     <g id="line2d_18">
      <defs>
       <path d="M 0 0 
L -3.5 0 
" id="m27949840db" style="stroke:#000000;stroke-width:0.8;"/>
      </defs>
      <g>
       <use style="stroke:#000000;stroke-width:0.8;" x="57.6" xlink:href="#m27949840db" y="298.944"/>
      </g>
     </g>
     <g id="text_6">
      <!-- 0.0 -->
      <defs>
       <path d="M 10.6875 12.40625 
L 21 12.40625 
L 21 0 
L 10.6875 0 
z
" id="DejaVuSans-46"/>
      </defs>
      <g transform="translate(25.155 305.02275)scale(0.16 -0.16)">
       <use xlink:href="#DejaVuSans-48"/>
       <use x="63.623047" xlink:href="#DejaVuSans-46"/>
       <use x="95.410156" xlink:href="#DejaVuSans-48"/>
      </g>
     </g>
    </g>
    <g id="ytick_2">
     <g id="line2d_19">
      <path clip-path="url(#pa4116de74d)" d="M 57.6 240.431525 
L 338.688 240.431525 
" style="fill:none;stroke:#b0b0b0;stroke-linecap:square;stroke-width:0.8;"/>
     </g>
     <g id="line2d_20">
      <g>
       <use style="stroke:#000000;stroke-width:0.8;" x="57.6" xlink:href="#m27949840db" y="240.431525"/>
      </g>
     </g>
     <g id="text_7">
      <!-- 0.2 -->
      <g transform="translate(25.155 246.510275)scale(0.16 -0.16)">
       <use xlink:href="#DejaVuSans-48"/>
       <use x="63.623047" xlink:href="#DejaVuSans-46"/>
       <use x="95.410156" xlink:href="#DejaVuSans-50"/>
      </g>
     </g>
    </g>
    <g id="ytick_3">
     <g id="line2d_21">
      <path clip-path="url(#pa4116de74d)" d="M 57.6 181.91905 
L 338.688 181.91905 
" style="fill:none;stroke:#b0b0b0;stroke-linecap:square;stroke-width:0.8;"/>
     </g>
     <g id="line2d_22">
      <g>
       <use style="stroke:#000000;stroke-width:0.8;" x="57.6" xlink:href="#m27949840db" y="181.91905"/>
      </g>
     </g>
     <g id="text_8">
      <!-- 0.4 -->
      <g transform="translate(25.155 187.9978)scale(0.16 -0.16)">
       <use xlink:href="#DejaVuSans-48"/>
       <use x="63.623047" xlink:href="#DejaVuSans-46"/>
       <use x="95.410156" xlink:href="#DejaVuSans-52"/>
      </g>
     </g>
    </g>
    <g id="ytick_4">
     <g id="line2d_23">
      <path clip-path="url(#pa4116de74d)" d="M 57.6 123.406574 
L 338.688 123.406574 
" style="fill:none;stroke:#b0b0b0;stroke-linecap:square;stroke-width:0.8;"/>
     </g>
     <g id="line2d_24">
      <g>
       <use style="stroke:#000000;stroke-width:0.8;" x="57.6" xlink:href="#m27949840db" y="123.406574"/>
      </g>
     </g>
     <g id="text_9">
      <!-- 0.6 -->
      <g transform="translate(25.155 129.485324)scale(0.16 -0.16)">
       <use xlink:href="#DejaVuSans-48"/>
       <use x="63.623047" xlink:href="#DejaVuSans-46"/>
       <use x="95.410156" xlink:href="#DejaVuSans-54"/>
      </g>
     </g>
    </g>
    <g id="ytick_5">
     <g id="line2d_25">
      <path clip-path="url(#pa4116de74d)" d="M 57.6 64.894099 
L 338.688 64.894099 
" style="fill:none;stroke:#b0b0b0;stroke-linecap:square;stroke-width:0.8;"/>
     </g>
     <g id="line2d_26">
      <g>
       <use style="stroke:#000000;stroke-width:0.8;" x="57.6" xlink:href="#m27949840db" y="64.894099"/>
      </g>
     </g>
     <g id="text_10">
      <!-- 0.8 -->
      <defs>
       <path d="M 31.78125 34.625 
Q 24.75 34.625 20.71875 30.859375 
Q 16.703125 27.09375 16.703125 20.515625 
Q 16.703125 13.921875 20.71875 10.15625 
Q 24.75 6.390625 31.78125 6.390625 
Q 38.8125 6.390625 42.859375 10.171875 
Q 46.921875 13.96875 46.921875 20.515625 
Q 46.921875 27.09375 42.890625 30.859375 
Q 38.875 34.625 31.78125 34.625 
z
M 21.921875 38.8125 
Q 15.578125 40.375 12.03125 44.71875 
Q 8.5 49.078125 8.5 55.328125 
Q 8.5 64.0625 14.71875 69.140625 
Q 20.953125 74.21875 31.78125 74.21875 
Q 42.671875 74.21875 48.875 69.140625 
Q 55.078125 64.0625 55.078125 55.328125 
Q 55.078125 49.078125 51.53125 44.71875 
Q 48 40.375 41.703125 38.8125 
Q 48.828125 37.15625 52.796875 32.3125 
Q 56.78125 27.484375 56.78125 20.515625 
Q 56.78125 9.90625 50.3125 4.234375 
Q 43.84375 -1.421875 31.78125 -1.421875 
Q 19.734375 -1.421875 13.25 4.234375 
Q 6.78125 9.90625 6.78125 20.515625 
Q 6.78125 27.484375 10.78125 32.3125 
Q 14.796875 37.15625 21.921875 38.8125 
z
M 18.3125 54.390625 
Q 18.3125 48.734375 21.84375 45.5625 
Q 25.390625 42.390625 31.78125 42.390625 
Q 38.140625 42.390625 41.71875 45.5625 
Q 45.3125 48.734375 45.3125 54.390625 
Q 45.3125 60.0625 41.71875 63.234375 
Q 38.140625 66.40625 31.78125 66.40625 
Q 25.390625 66.40625 21.84375 63.234375 
Q 18.3125 60.0625 18.3125 54.390625 
z
" id="DejaVuSans-56"/>
      </defs>
      <g transform="translate(25.155 70.972849)scale(0.16 -0.16)">
       <use xlink:href="#DejaVuSans-48"/>
       <use x="63.623047" xlink:href="#DejaVuSans-46"/>
       <use x="95.410156" xlink:href="#DejaVuSans-56"/>
      </g>
     </g>
    </g>
    <g id="ytick_6">
     <g id="line2d_27">
      <path clip-path="url(#pa4116de74d)" d="M 57.6 6.381624 
L 338.688 6.381624 
" style="fill:none;stroke:#b0b0b0;stroke-linecap:square;stroke-width:0.8;"/>
     </g>
     <g id="line2d_28">
      <g>
       <use style="stroke:#000000;stroke-width:0.8;" x="57.6" xlink:href="#m27949840db" y="6.381624"/>
      </g>
     </g>
     <g id="text_11">
      <!-- 1.0 -->
      <g transform="translate(25.155 12.460374)scale(0.16 -0.16)">
       <use xlink:href="#DejaVuSans-49"/>
       <use x="63.623047" xlink:href="#DejaVuSans-46"/>
       <use x="95.410156" xlink:href="#DejaVuSans-48"/>
      </g>
     </g>
    </g>
    <g id="text_12">
     <!-- Fraction of function,target pairs -->
     <defs>
      <path d="M 9.8125 72.90625 
L 51.703125 72.90625 
L 51.703125 64.59375 
L 19.671875 64.59375 
L 19.671875 43.109375 
L 48.578125 43.109375 
L 48.578125 34.8125 
L 19.671875 34.8125 
L 19.671875 0 
L 9.8125 0 
z
" id="DejaVuSans-70"/>
      <path d="M 41.109375 46.296875 
Q 39.59375 47.171875 37.8125 47.578125 
Q 36.03125 48 33.890625 48 
Q 26.265625 48 22.1875 43.046875 
Q 18.109375 38.09375 18.109375 28.8125 
L 18.109375 0 
L 9.078125 0 
L 9.078125 54.6875 
L 18.109375 54.6875 
L 18.109375 46.1875 
Q 20.953125 51.171875 25.484375 53.578125 
Q 30.03125 56 36.53125 56 
Q 37.453125 56 38.578125 55.875 
Q 39.703125 55.765625 41.0625 55.515625 
z
" id="DejaVuSans-114"/>
      <path d="M 48.78125 52.59375 
L 48.78125 44.1875 
Q 44.96875 46.296875 41.140625 47.34375 
Q 37.3125 48.390625 33.40625 48.390625 
Q 24.65625 48.390625 19.8125 42.84375 
Q 14.984375 37.3125 14.984375 27.296875 
Q 14.984375 17.28125 19.8125 11.734375 
Q 24.65625 6.203125 33.40625 6.203125 
Q 37.3125 6.203125 41.140625 7.25 
Q 44.96875 8.296875 48.78125 10.40625 
L 48.78125 2.09375 
Q 45.015625 0.34375 40.984375 -0.53125 
Q 36.96875 -1.421875 32.421875 -1.421875 
Q 20.0625 -1.421875 12.78125 6.34375 
Q 5.515625 14.109375 5.515625 27.296875 
Q 5.515625 40.671875 12.859375 48.328125 
Q 20.21875 56 33.015625 56 
Q 37.15625 56 41.109375 55.140625 
Q 45.0625 54.296875 48.78125 52.59375 
z
" id="DejaVuSans-99"/>
      <path d="M 18.3125 70.21875 
L 18.3125 54.6875 
L 36.8125 54.6875 
L 36.8125 47.703125 
L 18.3125 47.703125 
L 18.3125 18.015625 
Q 18.3125 11.328125 20.140625 9.421875 
Q 21.96875 7.515625 27.59375 7.515625 
L 36.8125 7.515625 
L 36.8125 0 
L 27.59375 0 
Q 17.1875 0 13.234375 3.875 
Q 9.28125 7.765625 9.28125 18.015625 
L 9.28125 47.703125 
L 2.6875 47.703125 
L 2.6875 54.6875 
L 9.28125 54.6875 
L 9.28125 70.21875 
z
" id="DejaVuSans-116"/>
      <path d="M 8.5 21.578125 
L 8.5 54.6875 
L 17.484375 54.6875 
L 17.484375 21.921875 
Q 17.484375 14.15625 20.5 10.265625 
Q 23.53125 6.390625 29.59375 6.390625 
Q 36.859375 6.390625 41.078125 11.03125 
Q 45.3125 15.671875 45.3125 23.6875 
L 45.3125 54.6875 
L 54.296875 54.6875 
L 54.296875 0 
L 45.3125 0 
L 45.3125 8.40625 
Q 42.046875 3.421875 37.71875 1 
Q 33.40625 -1.421875 27.6875 -1.421875 
Q 18.265625 -1.421875 13.375 4.4375 
Q 8.5 10.296875 8.5 21.578125 
z
M 31.109375 56 
z
" id="DejaVuSans-117"/>
      <path d="M 11.71875 12.40625 
L 22.015625 12.40625 
L 22.015625 4 
L 14.015625 -11.625 
L 7.71875 -11.625 
L 11.71875 4 
z
" id="DejaVuSans-44"/>
      <path d="M 18.109375 8.203125 
L 18.109375 -20.796875 
L 9.078125 -20.796875 
L 9.078125 54.6875 
L 18.109375 54.6875 
L 18.109375 46.390625 
Q 20.953125 51.265625 25.265625 53.625 
Q 29.59375 56 35.59375 56 
Q 45.5625 56 51.78125 48.09375 
Q 58.015625 40.1875 58.015625 27.296875 
Q 58.015625 14.40625 51.78125 6.484375 
Q 45.5625 -1.421875 35.59375 -1.421875 
Q 29.59375 -1.421875 25.265625 0.953125 
Q 20.953125 3.328125 18.109375 8.203125 
z
M 48.6875 27.296875 
Q 48.6875 37.203125 44.609375 42.84375 
Q 40.53125 48.484375 33.40625 48.484375 
Q 26.265625 48.484375 22.1875 42.84375 
Q 18.109375 37.203125 18.109375 27.296875 
Q 18.109375 17.390625 22.1875 11.75 
Q 26.265625 6.109375 33.40625 6.109375 
Q 40.53125 6.109375 44.609375 11.75 
Q 48.6875 17.390625 48.6875 27.296875 
z
" id="DejaVuSans-112"/>
     </defs>
     <g transform="translate(17.619531 285.585)rotate(-90)scale(0.17 -0.17)">
      <use xlink:href="#DejaVuSans-70"/>
      <use x="50.269531" xlink:href="#DejaVuSans-114"/>
      <use x="91.382812" xlink:href="#DejaVuSans-97"/>
      <use x="152.662109" xlink:href="#DejaVuSans-99"/>
      <use x="207.642578" xlink:href="#DejaVuSans-116"/>
      <use x="246.851562" xlink:href="#DejaVuSans-105"/>
      <use x="274.634766" xlink:href="#DejaVuSans-111"/>
      <use x="335.816406" xlink:href="#DejaVuSans-110"/>
      <use x="399.195312" xlink:href="#DejaVuSans-32"/>
      <use x="430.982422" xlink:href="#DejaVuSans-111"/>
      <use x="492.164062" xlink:href="#DejaVuSans-102"/>
      <use x="527.369141" xlink:href="#DejaVuSans-32"/>
      <use x="559.15625" xlink:href="#DejaVuSans-102"/>
      <use x="594.361328" xlink:href="#DejaVuSans-117"/>
      <use x="657.740234" xlink:href="#DejaVuSans-110"/>
      <use x="721.119141" xlink:href="#DejaVuSans-99"/>
      <use x="776.099609" xlink:href="#DejaVuSans-116"/>
      <use x="815.308594" xlink:href="#DejaVuSans-105"/>
      <use x="843.091797" xlink:href="#DejaVuSans-111"/>
      <use x="904.273438" xlink:href="#DejaVuSans-110"/>
      <use x="967.652344" xlink:href="#DejaVuSans-44"/>
      <use x="999.439453" xlink:href="#DejaVuSans-116"/>
      <use x="1038.648438" xlink:href="#DejaVuSans-97"/>
      <use x="1099.927734" xlink:href="#DejaVuSans-114"/>
      <use x="1139.291016" xlink:href="#DejaVuSans-103"/>
      <use x="1202.767578" xlink:href="#DejaVuSans-101"/>
      <use x="1264.291016" xlink:href="#DejaVuSans-116"/>
      <use x="1303.5" xlink:href="#DejaVuSans-32"/>
      <use x="1335.287109" xlink:href="#DejaVuSans-112"/>
      <use x="1398.763672" xlink:href="#DejaVuSans-97"/>
      <use x="1460.042969" xlink:href="#DejaVuSans-105"/>
      <use x="1487.826172" xlink:href="#DejaVuSans-114"/>
      <use x="1528.939453" xlink:href="#DejaVuSans-115"/>
     </g>
    </g>
   </g>
   <g id="line2d_29">
    <defs>
     <path d="M 0 1.5 
C 0.397805 1.5 0.77937 1.341951 1.06066 1.06066 
C 1.341951 0.77937 1.5 0.397805 1.5 0 
C 1.5 -0.397805 1.341951 -0.77937 1.06066 -1.06066 
C 0.77937 -1.341951 0.397805 -1.5 0 -1.5 
C -0.397805 -1.5 -0.77937 -1.341951 -1.06066 -1.06066 
C -1.341951 -0.77937 -1.5 -0.397805 -1.5 0 
C -1.5 0.397805 -1.341951 0.77937 -1.06066 1.06066 
C -0.77937 1.341951 -0.397805 1.5 0 1.5 
z
" id="mb5e28e4583" style="stroke:#00bfbf;"/>
    </defs>
    <g>
     <use style="fill:#00bfbf;stroke:#00bfbf;" x="214.235166" xlink:href="#mb5e28e4583" y="52.273761"/>
     <use style="fill:#00bfbf;stroke:#00bfbf;" x="214.235166" xlink:href="#mb5e28e4583" y="52.273761"/>
    </g>
   </g>
   <g id="line2d_30">
    <path d="M 45.512012 298.944 
L 45.512012 282.021274 
L 85.66744 282.021274 
L 85.66744 281.734448 
L 87.329581 281.734448 
L 87.329581 281.160797 
L 88.846997 281.160797 
L 88.846997 280.443732 
L 90.242884 280.443732 
L 90.242884 280.300319 
L 91.535274 280.300319 
L 91.535274 280.156906 
L 93.863965 280.156906 
L 93.863965 279.87008 
L 96.86091 279.87008 
L 96.86091 279.439842 
L 97.755429 279.439842 
L 97.755429 278.86619 
L 98.606294 278.86619 
L 98.606294 278.149125 
L 99.41757 278.149125 
L 99.41757 276.714996 
L 100.192776 276.714996 
L 100.192776 275.42428 
L 100.934985 275.42428 
L 100.934985 273.846737 
L 101.646892 273.846737 
L 101.646892 270.118001 
L 102.330873 270.118001 
L 102.330873 268.540459 
L 102.989037 268.540459 
L 102.989037 266.389265 
L 103.623262 266.389265 
L 103.623262 265.959026 
L 104.23523 265.959026 
L 104.23523 265.815613 
L 104.826449 265.815613 
L 104.826449 265.6722 
L 105.398279 265.6722 
L 105.398279 264.66831 
L 105.951954 264.66831 
L 105.951954 263.664419 
L 106.48859 263.664419 
L 106.48859 260.509335 
L 107.009204 260.509335 
L 107.009204 257.641076 
L 107.514726 257.641076 
L 107.514726 256.780599 
L 108.006005 256.780599 
L 108.006005 255.203056 
L 108.483824 255.203056 
L 108.483824 254.342579 
L 108.948899 254.342579 
L 108.948899 252.334798 
L 109.401893 252.334798 
L 109.401893 251.47432 
L 109.843417 251.47432 
L 109.843417 249.896778 
L 110.274038 249.896778 
L 110.274038 249.179713 
L 110.694282 249.179713 
L 110.694282 248.175823 
L 111.104637 248.175823 
L 111.104637 247.458758 
L 111.897469 247.458758 
L 111.897469 247.171932 
L 112.280765 247.171932 
L 112.280765 246.168042 
L 112.655818 246.168042 
L 112.655818 245.737803 
L 113.022974 245.737803 
L 113.022974 245.164151 
L 113.382559 245.164151 
L 113.382559 244.877326 
L 113.73488 244.877326 
L 113.73488 244.733913 
L 114.418861 244.733913 
L 114.418861 244.5905 
L 114.751048 244.5905 
L 114.751048 244.303674 
L 115.077025 244.303674 
L 115.077025 242.726132 
L 115.397021 242.726132 
L 115.397021 241.722241 
L 115.711251 241.722241 
L 115.711251 241.292002 
L 116.019919 241.292002 
L 116.019919 241.148589 
L 116.323218 241.148589 
L 116.323218 241.005176 
L 116.621333 241.005176 
L 116.621333 240.861764 
L 116.914437 240.861764 
L 116.914437 240.574938 
L 117.202696 240.574938 
L 117.202696 240.288112 
L 117.765302 240.288112 
L 117.765302 240.144699 
L 118.039942 240.144699 
L 118.039942 240.001286 
L 118.310324 240.001286 
L 118.310324 239.571047 
L 118.838828 239.571047 
L 118.838828 238.280331 
L 119.097192 238.280331 
L 119.097192 237.850092 
L 119.351785 237.850092 
L 119.351785 237.419853 
L 119.602714 237.419853 
L 119.602714 237.27644 
L 119.850084 237.27644 
L 119.850084 237.133027 
L 120.093994 237.133027 
L 120.093994 236.702789 
L 120.33454 236.702789 
L 120.33454 235.842311 
L 120.571812 235.842311 
L 120.571812 235.555485 
L 120.8059 235.555485 
L 120.8059 233.83453 
L 121.036887 233.83453 
L 121.036887 233.260878 
L 121.264855 233.260878 
L 121.264855 233.117465 
L 121.489881 233.117465 
L 121.489881 232.687227 
L 121.712041 232.687227 
L 121.712041 231.683336 
L 121.931406 231.683336 
L 121.931406 230.822858 
L 122.148045 230.822858 
L 122.148045 230.105794 
L 122.362027 230.105794 
L 122.362027 229.818968 
L 122.573415 229.818968 
L 122.573415 228.95849 
L 122.782271 228.95849 
L 122.782271 227.667774 
L 122.988655 227.667774 
L 122.988655 227.380948 
L 123.192626 227.380948 
L 123.192626 226.663884 
L 123.394238 226.663884 
L 123.394238 226.377058 
L 123.593547 226.377058 
L 123.593547 224.942928 
L 123.790603 224.942928 
L 123.790603 223.939038 
L 123.985457 223.939038 
L 123.985457 222.648321 
L 124.178158 222.648321 
L 124.178158 221.357605 
L 124.368753 221.357605 
L 124.368753 220.497128 
L 124.557288 220.497128 
L 124.557288 219.206411 
L 124.743806 219.206411 
L 124.743806 216.19474 
L 124.92835 216.19474 
L 124.92835 215.907914 
L 125.110962 215.907914 
L 125.110962 214.76061 
L 125.291682 214.76061 
L 125.291682 214.186959 
L 125.470548 214.186959 
L 125.470548 213.183068 
L 125.647598 213.183068 
L 125.647598 211.605526 
L 125.822869 211.605526 
L 125.822869 208.593854 
L 125.996395 208.593854 
L 125.996395 206.729486 
L 126.168212 206.729486 
L 126.168212 205.43877 
L 126.338353 205.43877 
L 126.338353 203.144163 
L 126.50685 203.144163 
L 126.50685 201.423208 
L 126.673734 201.423208 
L 126.673734 199.128601 
L 126.839037 199.128601 
L 126.839037 196.403755 
L 127.002787 196.403755 
L 127.002787 194.969626 
L 127.165014 194.969626 
L 127.165014 193.822323 
L 127.325746 193.822323 
L 127.325746 190.236999 
L 127.48501 190.236999 
L 127.48501 188.659457 
L 127.642832 188.659457 
L 127.642832 186.508263 
L 127.799239 186.508263 
L 127.799239 184.930721 
L 127.954256 184.930721 
L 127.954256 183.209766 
L 128.107907 183.209766 
L 128.107907 182.92294 
L 128.260216 182.92294 
L 128.260216 181.91905 
L 128.411207 181.91905 
L 128.411207 181.632224 
L 128.560901 181.632224 
L 128.560901 177.329836 
L 128.709321 177.329836 
L 128.709321 175.608881 
L 128.856489 175.608881 
L 128.856489 173.744513 
L 129.002426 173.744513 
L 129.002426 171.880144 
L 129.147151 171.880144 
L 129.147151 170.732841 
L 129.290685 170.732841 
L 129.290685 168.438234 
L 129.433047 168.438234 
L 129.433047 166.430453 
L 129.574256 166.430453 
L 129.574256 163.275369 
L 129.714332 163.275369 
L 129.714332 160.980762 
L 129.853291 160.980762 
L 129.853291 159.259807 
L 129.991152 159.259807 
L 129.991152 158.542742 
L 130.127931 158.542742 
L 130.127931 155.53107 
L 130.263646 155.53107 
L 130.263646 153.236464 
L 130.398313 153.236464 
L 130.398313 151.658921 
L 130.531948 151.658921 
L 130.531948 150.368205 
L 130.664567 150.368205 
L 130.664567 146.639469 
L 130.796184 146.639469 
L 130.796184 144.488275 
L 130.926816 144.488275 
L 130.926816 142.480494 
L 131.056477 142.480494 
L 131.056477 141.046365 
L 131.185181 141.046365 
L 131.185181 139.325409 
L 131.312942 139.325409 
L 131.312942 138.751758 
L 131.439773 138.751758 
L 131.439773 137.604454 
L 131.565689 137.604454 
L 131.565689 136.743977 
L 131.690703 136.743977 
L 131.690703 135.023022 
L 131.814826 135.023022 
L 131.814826 132.728415 
L 131.938072 132.728415 
L 131.938072 131.437698 
L 132.060454 131.437698 
L 132.060454 129.429917 
L 132.181982 129.429917 
L 132.181982 128.282614 
L 132.30267 128.282614 
L 132.30267 127.278723 
L 132.422528 127.278723 
L 132.422528 126.418246 
L 132.541568 126.418246 
L 132.541568 124.697291 
L 132.659801 124.697291 
L 132.659801 121.111967 
L 132.777237 121.111967 
L 132.777237 120.108077 
L 132.893889 120.108077 
L 132.893889 117.81347 
L 133.009765 117.81347 
L 133.009765 117.096405 
L 133.124876 117.096405 
L 133.124876 114.945211 
L 133.239232 114.945211 
L 133.239232 113.511082 
L 133.352844 113.511082 
L 133.352844 112.076953 
L 133.46572 112.076953 
L 133.46572 111.359888 
L 133.57787 111.359888 
L 133.57787 110.929649 
L 133.689303 110.929649 
L 133.800029 108.348217 
L 133.910056 108.348217 
L 134.019394 107.344326 
L 134.12805 107.344326 
L 134.236034 105.766784 
L 134.343353 105.766784 
L 134.450015 102.755112 
L 134.661403 102.755112 
L 134.766144 100.317093 
L 134.870259 100.317093 
L 134.973757 99.600028 
L 135.076644 99.600028 
L 135.178927 96.875182 
L 135.280614 96.875182 
L 135.381712 95.871292 
L 135.482227 95.871292 
L 135.482227 95.727879 
L 135.681535 95.727879 
L 135.780341 94.29375 
L 135.878591 94.29375 
L 135.97629 93.576685 
L 136.073445 93.576685 
L 136.170062 92.572794 
L 136.266147 92.572794 
L 136.361705 91.282078 
L 136.456742 91.282078 
L 136.551264 89.561123 
L 136.645276 89.561123 
L 136.645276 88.557232 
L 136.831795 88.557232 
L 136.924311 87.696755 
L 137.016339 87.696755 
L 137.016339 87.553342 
L 137.198951 87.553342 
L 137.198951 87.409929 
L 137.37967 87.409929 
L 137.469333 86.262626 
L 137.558536 86.262626 
L 137.647286 85.115322 
L 137.735587 85.115322 
L 137.823442 84.685083 
L 137.910857 84.685083 
L 137.910857 84.54167 
L 138.170504 84.54167 
L 138.256201 84.111432 
L 138.341479 84.111432 
L 138.426341 83.250954 
L 138.761723 83.250954 
L 138.84457 81.816825 
L 138.927025 81.816825 
L 138.927025 81.529999 
L 139.172077 81.529999 
L 139.172077 81.386586 
L 139.493548 81.386586 
L 139.493548 81.09976 
L 139.652088 81.09976 
L 139.730821 80.382695 
L 140.042245 80.382695 
L 140.11924 79.665631 
L 140.272217 79.665631 
L 140.272217 79.522218 
L 140.499195 79.522218 
L 140.574203 79.091979 
L 140.723258 79.091979 
L 140.79731 78.66174 
L 140.944478 78.66174 
L 141.017599 78.374914 
L 141.090414 78.374914 
L 141.162927 76.653959 
L 141.307054 76.653959 
L 141.307054 76.510546 
L 141.521035 76.510546 
L 141.521035 75.936895 
L 141.871938 75.936895 
L 141.871938 75.650069 
L 142.010346 75.650069 
L 142.010346 75.363243 
L 142.147664 75.363243 
L 142.215919 74.215939 
L 142.419098 74.215939 
L 142.419098 74.072526 
L 142.553247 74.072526 
L 142.553247 73.929114 
L 142.686372 73.929114 
L 142.686372 73.642288 
L 143.208936 73.642288 
L 143.208936 73.212049 
L 143.716296 73.212049 
L 143.778691 72.638397 
L 143.902815 72.638397 
L 143.964547 72.208158 
L 144.747789 72.208158 
L 144.747789 72.064745 
L 145.212864 72.064745 
L 145.212864 71.921333 
L 145.384119 71.921333 
L 145.440832 71.634507 
L 145.553708 71.634507 
L 145.553708 70.917442 
L 145.888018 70.917442 
L 145.888018 70.34379 
L 146.161795 70.34379 
L 146.161795 69.913552 
L 146.591092 69.913552 
L 146.591092 69.626726 
L 147.96658 69.626726 
L 147.96658 69.483313 
L 150.129152 69.483313 
L 150.129152 69.3399 
L 150.598782 69.3399 
L 150.598782 69.196487 
L 150.766468 69.196487 
L 150.766468 69.053074 
L 151.097081 69.053074 
L 151.097081 68.909661 
L 151.858043 68.909661 
L 151.858043 68.766248 
L 152.436193 68.766248 
L 152.436193 68.479422 
L 152.811246 68.479422 
L 152.922207 68.049183 
L 153.287059 68.049183 
L 153.287059 67.762358 
L 154.167129 67.762358 
L 154.167129 67.618945 
L 154.57429 67.618945 
L 154.57429 67.475532 
L 155.647315 67.475532 
L 155.647315 67.332119 
L 155.959855 67.332119 
L 156.052535 66.90188 
L 156.114049 66.90188 
L 156.175347 66.615054 
L 156.508689 66.615054 
L 156.568618 66.328228 
L 156.747178 66.328228 
L 156.776762 66.041402 
L 157.185742 66.041402 
L 157.185742 65.89799 
L 158.331086 65.89799 
L 158.412011 65.611164 
L 158.625992 65.611164 
L 158.625992 65.467751 
L 158.811096 65.467751 
L 158.811096 65.324338 
L 159.046236 65.324338 
L 159.123917 65.037512 
L 159.278248 65.037512 
L 159.32939 64.750686 
L 159.456591 64.750686 
L 159.456591 64.607273 
L 160.054568 64.607273 
L 160.054568 64.46386 
L 160.321935 64.46386 
L 160.321935 64.320447 
L 160.442124 64.320447 
L 160.537682 64.033621 
L 161.734513 64.033621 
L 161.734513 63.890209 
L 162.517456 63.890209 
L 162.517456 63.746796 
L 162.68677 63.746796 
L 162.68677 63.603383 
L 163.327764 63.603383 
L 163.327764 63.45997 
L 164.102088 63.45997 
L 164.102088 63.316557 
L 164.448194 63.316557 
L 164.448194 63.173144 
L 165.46508 63.173144 
L 165.46508 63.029731 
L 165.679281 63.029731 
L 165.679281 62.886318 
L 165.873346 62.886318 
L 165.873346 62.742905 
L 166.013141 62.742905 
L 166.047915 62.456079 
L 167.304287 62.456079 
L 167.304287 62.169253 
L 167.449146 62.169253 
L 167.449146 62.02584 
L 167.672117 62.02584 
L 167.672117 61.882427 
L 167.860992 61.882427 
L 167.860992 61.739015 
L 168.354881 61.739015 
L 168.354881 61.595602 
L 168.71633 61.595602 
L 168.77585 61.308776 
L 169.201398 61.308776 
L 169.288161 61.02195 
L 170.740545 61.02195 
L 170.740545 60.878537 
L 170.912232 60.878537 
L 170.912232 60.735124 
L 171.173108 60.735124 
L 171.173108 60.591711 
L 171.49381 60.591711 
L 171.49381 60.448298 
L 171.871027 60.448298 
L 171.871027 60.304885 
L 172.779844 60.304885 
L 172.779844 60.161472 
L 173.188276 60.161472 
L 173.211329 59.874646 
L 173.474266 59.874646 
L 173.564801 59.587821 
L 173.966492 59.587821 
L 174.043535 59.300995 
L 174.142093 59.300995 
L 174.142093 59.157582 
L 174.402224 59.157582 
L 174.402224 59.014169 
L 174.605444 59.014169 
L 174.605444 58.870756 
L 175.077514 58.870756 
L 175.098201 58.58393 
L 175.415753 58.58393 
L 175.415753 58.440517 
L 176.55521 58.440517 
L 176.640581 58.010278 
L 176.922168 58.010278 
L 176.922168 57.866865 
L 177.245042 57.866865 
L 177.245042 57.723453 
L 177.642639 57.723453 
L 177.642639 57.58004 
L 178.775401 57.58004 
L 178.775401 57.436627 
L 179.033027 57.436627 
L 179.033027 57.293214 
L 179.400355 57.293214 
L 179.424571 56.862975 
L 180.952739 56.862975 
L 180.952739 56.719562 
L 181.66228 56.719562 
L 181.66228 56.576149 
L 182.234569 56.576149 
L 182.234569 56.432736 
L 182.391773 56.432736 
L 182.391773 56.289323 
L 183.065806 56.289323 
L 183.065806 56.14591 
L 183.996292 56.14591 
L 183.996292 56.002497 
L 185.038202 56.002497 
L 185.038202 55.859084 
L 186.328086 55.859084 
L 186.328086 55.715672 
L 187.335442 55.715672 
L 187.335442 55.572259 
L 187.5291 55.572259 
L 187.5291 55.428846 
L 187.705587 55.428846 
L 187.705587 55.285433 
L 187.875338 55.285433 
L 187.875338 55.14202 
L 188.097498 55.14202 
L 188.097498 54.998607 
L 189.079849 54.998607 
L 189.079849 54.855194 
L 190.550835 54.855194 
L 190.550835 54.711781 
L 191.075585 54.711781 
L 191.075585 54.568368 
L 191.768789 54.568368 
L 191.768789 54.424955 
L 192.674828 54.424955 
L 192.674828 54.281542 
L 192.88858 54.281542 
L 192.910928 53.994716 
L 193.081322 53.994716 
L 193.081322 53.851303 
L 194.346571 53.851303 
L 194.346571 53.707891 
L 195.79328 53.707891 
L 195.79328 53.564478 
L 199.134061 53.564478 
L 199.134061 53.421065 
L 199.34639 53.421065 
L 199.34639 53.277652 
L 199.60695 53.277652 
L 199.60695 53.134239 
L 200.407273 53.134239 
L 200.407273 52.990826 
L 201.294888 52.990826 
L 201.294888 52.847413 
L 201.836475 52.847413 
L 201.836475 52.704 
L 203.064038 52.704 
L 203.064038 52.560587 
L 211.683525 52.560587 
L 211.683525 52.417174 
L 214.235166 52.417174 
L 214.235166 52.273761 
L 338.688 52.273761 
L 338.688 52.273761 
" style="fill:none;stroke:#00bfbf;stroke-linecap:square;stroke-width:1.5;"/>
   </g>
   <g id="line2d_31">
    <defs>
     <path d="M -6 0 
L 6 0 
M 0 6 
L 0 -6 
" id="m2989a2ce83" style="stroke:#00bfbf;stroke-width:1.5;"/>
    </defs>
    <g>
     <use style="fill-opacity:0;stroke:#00bfbf;stroke-width:1.5;" x="122.782271" xlink:href="#m2989a2ce83" y="228.95849"/>
     <use style="fill-opacity:0;stroke:#00bfbf;stroke-width:1.5;" x="134.661403" xlink:href="#m2989a2ce83" y="102.755112"/>
     <use style="fill-opacity:0;stroke:#00bfbf;stroke-width:1.5;" x="201.294888" xlink:href="#m2989a2ce83" y="52.847413"/>
     <use style="fill-opacity:0;stroke:#00bfbf;stroke-width:1.5;" x="214.235166" xlink:href="#m2989a2ce83" y="52.273761"/>
     <use style="fill-opacity:0;stroke:#00bfbf;stroke-width:1.5;" x="214.235166" xlink:href="#m2989a2ce83" y="52.273761"/>
     <use style="fill-opacity:0;stroke:#00bfbf;stroke-width:1.5;" x="338.688" xlink:href="#m2989a2ce83" y="52.273761"/>
    </g>
   </g>
   <g id="line2d_32">
    <path style="fill:none;stroke:#00bfbf;stroke-linecap:square;stroke-width:1.5;"/>
    <g/>
   </g>
   <g id="line2d_33">
    <path clip-path="url(#pa4116de74d)" d="M 150.808139 69.053074 
" style="fill:none;stroke:#00bfbf;stroke-linecap:square;stroke-width:1.5;"/>
    <defs>
     <path d="M -12 12 
L 12 -12 
M -12 -12 
L 12 12 
" id="m7adeaee79a" style="stroke:#00bfbf;"/>
    </defs>
    <g clip-path="url(#pa4116de74d)">
     <use style="fill:#00bfbf;stroke:#00bfbf;" x="150.808139" xlink:href="#m7adeaee79a" y="69.053074"/>
    </g>
   </g>
   <g id="line2d_34">
    <defs>
     <path d="M 0 1.5 
C 0.397805 1.5 0.77937 1.341951 1.06066 1.06066 
C 1.341951 0.77937 1.5 0.397805 1.5 0 
C 1.5 -0.397805 1.341951 -0.77937 1.06066 -1.06066 
C 0.77937 -1.341951 0.397805 -1.5 0 -1.5 
C -0.397805 -1.5 -0.77937 -1.341951 -1.06066 -1.06066 
C -1.341951 -0.77937 -1.5 -0.397805 -1.5 0 
C -1.5 0.397805 -1.341951 0.77937 -1.06066 1.06066 
C -0.77937 1.341951 -0.397805 1.5 0 1.5 
z
" id="m54798c41b1" style="stroke:#008000;"/>
    </defs>
    <g>
     <use style="fill:#008000;stroke:#008000;" x="216.912324" xlink:href="#m54798c41b1" y="69.483313"/>
     <use style="fill:#008000;stroke:#008000;" x="216.912324" xlink:href="#m54798c41b1" y="69.483313"/>
    </g>
   </g>
   <g id="line2d_35">
    <path d="M 38.440992 298.944 
L 38.440992 289.335334 
L 85.66744 289.335334 
L 85.66744 288.618269 
L 86.792945 288.618269 
L 86.792945 288.474856 
L 89.78989 288.474856 
L 89.78989 288.331443 
L 92.34655 288.331443 
L 92.34655 288.18803 
L 95.259853 288.18803 
L 95.259853 287.901204 
L 95.918017 287.901204 
L 95.918017 287.18414 
L 96.552242 287.18414 
L 96.552242 286.753901 
L 97.755429 286.753901 
L 97.755429 286.610488 
L 98.32726 286.610488 
L 98.32726 285.463185 
L 98.880934 285.463185 
L 98.880934 284.74612 
L 99.41757 284.74612 
L 99.41757 283.742229 
L 99.938184 283.742229 
L 99.938184 282.451513 
L 100.443706 282.451513 
L 100.443706 281.591036 
L 100.934985 281.591036 
L 100.934985 280.873971 
L 102.772397 280.873971 
L 102.772397 279.583255 
L 103.203018 279.583255 
L 103.203018 279.296429 
L 104.434538 279.296429 
L 104.434538 279.153016 
L 104.826449 279.153016 
L 104.826449 278.722777 
L 105.209745 278.722777 
L 105.209745 278.005712 
L 105.584798 278.005712 
L 105.584798 277.575474 
L 105.951954 277.575474 
L 105.951954 277.432061 
L 106.311539 277.432061 
L 106.311539 276.858409 
L 107.680028 276.858409 
L 107.680028 276.714996 
L 108.948899 276.714996 
L 108.948899 276.571583 
L 109.252198 276.571583 
L 109.252198 276.42817 
L 110.968922 276.42817 
L 110.968922 276.141344 
L 111.239304 276.141344 
L 111.239304 275.997931 
L 111.767808 275.997931 
L 111.767808 275.854518 
L 112.026172 275.854518 
L 112.026172 275.711105 
L 112.280765 275.711105 
L 112.280765 275.567692 
L 112.531694 275.567692 
L 112.531694 275.42428 
L 112.779064 275.42428 
L 112.779064 273.846737 
L 113.26352 273.846737 
L 113.26352 273.559911 
L 113.500792 273.559911 
L 113.500792 273.416499 
L 113.73488 273.416499 
L 113.73488 273.273086 
L 113.965867 273.273086 
L 113.965867 272.98626 
L 114.193835 272.98626 
L 114.193835 272.842847 
L 114.418861 272.842847 
L 114.418861 272.699434 
L 114.641021 272.699434 
L 114.641021 272.556021 
L 114.860386 272.556021 
L 114.860386 272.125782 
L 115.077025 272.125782 
L 115.077025 271.695543 
L 115.291007 271.695543 
L 115.291007 271.121892 
L 115.711251 271.121892 
L 115.711251 270.978479 
L 115.917635 270.978479 
L 115.917635 270.835066 
L 116.323218 270.835066 
L 116.323218 270.54824 
L 116.522527 270.54824 
L 116.522527 270.404827 
L 116.719583 270.404827 
L 116.719583 270.118001 
L 116.914437 270.118001 
L 116.914437 269.687762 
L 117.107138 269.687762 
L 117.107138 269.400937 
L 117.297733 269.400937 
L 117.297733 269.114111 
L 117.486268 269.114111 
L 117.486268 268.970698 
L 117.672786 268.970698 
L 117.672786 268.827285 
L 117.857331 268.827285 
L 117.857331 268.683872 
L 118.039942 268.683872 
L 118.039942 268.253633 
L 118.220662 268.253633 
L 118.220662 267.966807 
L 118.399528 267.966807 
L 118.399528 267.823394 
L 118.576578 267.823394 
L 118.576578 267.679981 
L 118.751849 267.679981 
L 118.751849 266.962917 
L 118.925375 266.962917 
L 118.925375 266.819504 
L 119.097192 266.819504 
L 119.097192 266.532678 
L 119.43583 266.532678 
L 119.43583 266.102439 
L 119.768017 266.102439 
L 119.768017 265.815613 
L 120.093994 265.815613 
L 120.093994 265.385374 
L 120.254726 265.385374 
L 120.254726 265.098549 
L 120.41399 265.098549 
L 120.41399 264.524897 
L 120.571812 264.524897 
L 120.571812 264.094658 
L 120.728219 264.094658 
L 120.728219 263.521006 
L 121.036887 263.521006 
L 121.036887 262.803942 
L 121.489881 262.803942 
L 121.489881 262.373703 
L 121.638301 262.373703 
L 121.638301 261.943464 
L 121.785469 261.943464 
L 121.785469 261.2264 
L 121.931406 261.2264 
L 121.931406 260.509335 
L 122.076131 260.509335 
L 122.076131 260.365922 
L 122.219665 260.365922 
L 122.219665 260.079096 
L 122.362027 260.079096 
L 122.362027 259.362031 
L 122.643312 259.362031 
L 122.643312 259.075206 
L 122.782271 259.075206 
L 122.782271 258.644967 
L 123.056911 258.644967 
L 123.056911 258.501554 
L 123.192626 258.501554 
L 123.192626 258.358141 
L 123.327293 258.358141 
L 123.327293 257.641076 
L 123.460928 257.641076 
L 123.460928 257.497663 
L 123.593547 257.497663 
L 123.593547 257.35425 
L 123.855796 257.35425 
L 123.855796 256.780599 
L 123.985457 256.780599 
L 123.985457 256.493773 
L 124.114161 256.493773 
L 124.114161 255.489882 
L 124.241922 255.489882 
L 124.241922 255.059644 
L 124.494669 255.059644 
L 124.494669 254.629405 
L 124.743806 254.629405 
L 124.743806 254.055753 
L 124.989434 254.055753 
L 124.989434 253.91234 
L 125.110962 253.91234 
L 125.110962 253.768927 
L 125.23165 253.768927 
L 125.23165 253.625514 
L 125.351508 253.625514 
L 125.351508 253.195275 
L 125.470548 253.195275 
L 125.470548 252.90845 
L 125.706218 252.90845 
L 125.706218 252.334798 
L 125.938745 252.334798 
L 125.938745 251.617733 
L 126.053856 251.617733 
L 126.053856 251.47432 
L 126.168212 251.47432 
L 126.168212 250.900669 
L 126.281824 250.900669 
L 126.281824 250.757256 
L 126.50685 250.757256 
L 126.50685 250.327017 
L 126.618283 250.327017 
L 126.729009 249.896778 
L 126.839037 249.896778 
L 126.839037 249.609952 
L 127.165014 249.609952 
L 127.272333 248.892888 
L 127.590383 248.892888 
L 127.695124 248.175823 
L 127.799239 248.175823 
L 127.902737 247.745584 
L 128.005624 247.745584 
L 128.107907 247.458758 
L 128.209594 247.458758 
L 128.209594 247.315345 
L 128.411207 247.315345 
L 128.511146 246.598281 
L 128.610515 246.598281 
L 128.709321 246.168042 
L 128.807571 246.168042 
L 128.905271 245.164151 
L 129.002426 245.164151 
L 129.002426 244.5905 
L 129.195127 244.5905 
L 129.290685 244.160261 
L 129.385722 244.160261 
L 129.480244 243.730022 
L 129.574256 243.730022 
L 129.667765 242.726132 
L 129.760775 242.726132 
L 129.853291 241.865654 
L 129.945319 241.865654 
L 130.036864 240.861764 
L 130.127931 240.861764 
L 130.218525 240.574938 
L 130.30865 240.574938 
L 130.30865 240.431525 
L 130.487516 240.431525 
L 130.576266 239.571047 
L 130.664567 239.571047 
L 130.664567 238.567157 
L 130.839837 238.567157 
L 130.839837 238.136918 
L 131.013364 238.136918 
L 131.099484 237.706679 
L 131.185181 237.706679 
L 131.185181 237.419853 
L 131.355321 237.419853 
L 131.439773 236.559376 
L 131.523818 236.559376 
L 131.60746 235.698898 
L 131.690703 235.698898 
L 131.77355 235.268659 
L 131.856005 235.268659 
L 131.938072 234.551595 
L 132.019755 234.551595 
L 132.101058 234.264769 
L 132.181982 234.264769 
L 132.262533 232.687227 
L 132.342714 232.687227 
L 132.342714 232.256988 
L 132.501978 232.256988 
L 132.581068 231.826749 
L 132.659801 231.826749 
L 132.73818 230.39262 
L 132.816208 230.39262 
L 132.893889 229.675555 
L 132.971225 229.675555 
L 133.04822 228.241426 
L 133.124876 228.241426 
L 133.201197 227.380948 
L 133.277185 227.380948 
L 133.352844 225.229754 
L 133.428175 225.229754 
L 133.503183 223.652212 
L 133.57787 223.652212 
L 133.652238 222.648321 
L 133.72629 222.648321 
L 133.800029 221.644431 
L 133.873458 221.644431 
L 133.946579 220.64054 
L 134.019394 220.64054 
L 134.091907 219.349824 
L 134.164119 219.349824 
L 134.236034 218.776172 
L 134.307653 218.776172 
L 134.37898 217.628869 
L 134.450015 217.628869 
L 134.520763 216.19474 
L 134.591225 216.19474 
L 134.661403 214.904023 
L 134.7313 214.904023 
L 134.800918 212.466003 
L 134.870259 212.466003 
L 134.939326 210.458222 
L 135.00812 210.458222 
L 135.076644 209.597745 
L 135.144899 209.597745 
L 135.212889 207.87679 
L 135.280614 207.87679 
L 135.348078 206.155835 
L 135.415281 206.155835 
L 135.482227 204.865118 
L 135.548916 204.865118 
L 135.615352 202.857337 
L 135.681535 202.857337 
L 135.747468 202.140273 
L 135.813153 202.140273 
L 135.878591 200.992969 
L 135.943785 200.992969 
L 136.008736 199.989079 
L 136.073445 199.989079 
L 136.137916 198.124711 
L 136.202149 198.124711 
L 136.266147 197.694472 
L 136.32991 197.694472 
L 136.393441 196.260342 
L 136.456742 196.260342 
L 136.519813 193.965736 
L 136.582658 193.965736 
L 136.645276 192.961845 
L 136.707671 192.961845 
L 136.769843 192.388193 
L 136.831795 192.388193 
L 136.893527 191.24089 
L 136.955041 191.24089 
L 137.016339 190.523825 
L 137.077422 190.523825 
L 137.138292 189.233109 
L 137.198951 189.233109 
L 137.259399 187.942393 
L 137.319638 187.942393 
L 137.37967 186.651676 
L 137.439497 186.651676 
L 137.499118 185.504373 
L 137.558536 185.504373 
L 137.617753 184.357069 
L 137.676769 184.357069 
L 137.735587 183.926831 
L 137.794206 183.926831 
L 137.852629 182.779527 
L 137.910857 182.779527 
L 137.968891 181.632224 
L 138.026733 181.632224 
L 138.084384 179.767856 
L 138.141844 179.767856 
L 138.199116 178.333726 
L 138.256201 178.333726 
L 138.313099 177.329836 
L 138.369812 177.329836 
L 138.426341 176.469358 
L 138.482688 176.469358 
L 138.482688 175.752294 
L 138.594838 175.752294 
L 138.650644 175.035229 
L 138.706272 175.035229 
L 138.816998 173.457687 
L 138.872098 173.457687 
L 138.981779 171.593319 
L 139.036363 171.593319 
L 139.145019 170.876254 
L 139.253002 170.876254 
L 139.360321 169.155299 
L 139.413734 169.155299 
L 139.520072 167.721169 
L 139.625765 167.721169 
L 139.730821 166.860692 
L 139.783113 166.860692 
L 139.835248 165.856801 
L 139.939053 165.856801 
L 140.042245 164.852911 
L 140.093612 164.852911 
L 140.195896 163.562195 
L 140.246813 163.562195 
L 140.348205 162.84513 
L 140.39868 162.84513 
L 140.44901 162.271478 
L 140.549236 162.271478 
L 140.64889 161.697826 
L 140.698504 161.697826 
L 140.698504 161.124175 
L 140.846504 161.124175 
L 140.944478 160.40711 
L 141.041904 160.40711 
L 141.090414 159.546632 
L 141.187031 159.546632 
L 141.283115 158.829568 
L 141.33096 158.829568 
L 141.378673 158.399329 
L 141.47371 158.399329 
L 141.568232 157.108613 
L 141.662245 157.108613 
L 141.662245 156.534961 
L 141.80232 156.534961 
L 141.895083 155.674483 
L 141.941279 155.674483 
L 141.987354 155.244245 
L 142.07914 155.244245 
L 142.170445 153.666702 
L 142.215919 153.666702 
L 142.306513 152.232573 
L 142.351634 152.232573 
L 142.441528 151.228683 
L 142.486301 151.228683 
L 142.53096 150.368205 
L 142.619936 150.368205 
L 142.708461 149.794553 
L 142.752555 149.794553 
L 142.840411 148.360424 
L 142.884173 148.360424 
L 142.971369 146.926295 
L 143.014805 146.926295 
L 143.101352 145.492165 
L 143.144465 145.492165 
L 143.187472 144.631688 
L 143.273169 144.631688 
L 143.358447 143.484384 
L 143.40093 143.484384 
L 143.485587 142.480494 
L 143.527762 142.480494 
L 143.611807 140.616126 
L 143.653678 140.616126 
L 143.737119 139.612235 
L 143.778691 139.612235 
L 143.861538 138.751758 
L 143.902815 138.751758 
L 143.985075 137.317628 
L 144.026061 137.317628 
L 144.107744 136.313738 
L 144.148442 136.313738 
L 144.229555 135.45326 
L 144.269971 135.45326 
L 144.350522 134.592783 
L 144.390658 134.592783 
L 144.470655 134.019131 
L 144.510517 134.019131 
L 144.589967 133.015241 
L 144.629556 133.015241 
L 144.708467 131.867937 
L 144.787023 131.867937 
L 144.865226 130.864047 
L 144.94308 130.864047 
L 145.020588 130.146982 
L 145.059213 130.146982 
L 145.136208 127.565549 
L 145.174578 127.565549 
L 145.251067 126.848485 
L 145.289185 126.848485 
L 145.365173 125.988007 
L 145.403044 125.988007 
L 145.440832 125.127529 
L 145.516164 125.127529 
L 145.591172 123.6934 
L 145.628555 123.6934 
L 145.703082 122.976335 
L 145.851187 122.976335 
L 145.961446 120.968554 
L 145.998045 120.968554 
L 146.107383 120.25149 
L 146.143677 120.25149 
L 146.252108 118.530535 
L 146.288102 118.530535 
L 146.359869 117.096405 
L 146.431341 117.096405 
L 146.502522 116.809579 
L 146.573414 116.809579 
L 146.679213 115.662276 
L 146.714338 115.662276 
L 146.749392 115.088624 
L 146.888907 115.088624 
L 146.923612 114.228147 
L 147.027314 114.228147 
L 147.130404 112.220366 
L 147.164632 112.220366 
L 147.266916 111.359888 
L 147.300877 111.359888 
L 147.402367 110.786236 
L 147.436066 110.786236 
L 147.50327 110.069172 
L 147.570215 110.069172 
L 147.670154 109.49552 
L 147.70334 109.49552 
L 147.802521 108.921868 
L 147.86833 108.921868 
L 147.96658 108.49163 
L 147.999207 108.49163 
L 148.096724 108.061391 
L 148.129109 108.061391 
L 148.225905 107.631152 
L 148.290138 107.631152 
L 148.386046 106.627262 
L 148.417899 106.627262 
L 148.513109 106.340436 
L 148.607802 106.340436 
L 148.701984 105.766784 
L 148.733265 105.766784 
L 148.826773 105.336545 
L 148.857832 105.336545 
L 148.950676 104.906306 
L 149.012299 104.906306 
L 149.043029 104.61948 
L 149.165411 104.61948 
L 149.165411 104.045829 
L 149.407627 104.045829 
L 149.407627 103.902416 
L 149.557321 103.902416 
L 149.646525 103.328764 
L 149.794191 103.328764 
L 149.882194 103.041938 
L 149.911431 103.041938 
L 149.940618 102.755112 
L 150.114722 102.755112 
L 150.114722 102.611699 
L 150.258492 102.611699 
L 150.344189 102.181461 
L 150.372662 102.181461 
L 150.401087 101.607809 
L 150.51433 101.607809 
L 150.570677 101.320983 
L 150.626842 101.320983 
L 150.682827 100.890744 
L 150.738632 100.890744 
L 150.738632 100.747331 
L 150.87737 100.747331 
L 150.904986 100.17368 
L 151.042412 100.17368 
L 151.124351 99.600028 
L 151.178764 99.600028 
L 151.260066 98.022486 
L 151.367883 98.022486 
L 151.475037 97.162008 
L 151.554972 97.162008 
L 151.60806 96.731769 
L 151.740076 96.731769 
L 151.76636 96.444944 
L 151.871101 96.444944 
L 151.871101 96.301531 
L 152.001148 96.301531 
L 152.104493 94.867401 
L 152.130233 94.867401 
L 152.207228 94.580575 
L 152.283884 94.580575 
L 152.283884 94.437162 
L 152.461449 94.437162 
L 152.562109 94.150337 
L 152.612222 94.150337 
L 152.712018 93.576685 
L 152.736878 93.576685 
L 152.761703 93.003033 
L 152.860649 93.003033 
L 152.959038 92.429381 
L 153.008024 92.429381 
L 153.056874 91.85573 
L 153.154164 91.85573 
L 153.250915 91.568904 
L 153.29909 91.568904 
L 153.395042 90.851839 
L 153.703291 90.851839 
L 153.79705 90.278188 
L 154.098334 90.278188 
L 154.098334 89.991362 
L 154.57429 89.991362 
L 154.57429 89.847949 
L 154.796449 89.847949 
L 154.906477 88.557232 
L 155.12447 88.557232 
L 155.12447 88.270407 
L 155.446436 88.270407 
L 155.446436 88.126994 
L 155.949527 88.126994 
L 155.970177 87.696755 
L 156.134506 87.696755 
L 156.236431 87.409929 
L 156.297301 87.409929 
L 156.337763 87.123103 
L 156.478647 87.123103 
L 156.478647 86.97969 
L 156.796456 86.97969 
L 156.796456 86.836277 
L 156.953214 86.836277 
L 156.953214 86.692864 
L 157.089232 86.692864 
L 157.089232 86.549451 
L 157.509937 86.549451 
L 157.528821 86.119213 
L 158.086033 86.119213 
L 158.195371 85.832387 
L 158.231665 85.832387 
L 158.231665 85.688974 
L 158.429943 85.688974 
L 158.537152 84.971909 
L 158.590511 84.971909 
L 158.608261 84.398257 
L 158.819862 84.398257 
L 158.924708 84.111432 
L 158.942121 84.111432 
L 158.959517 83.53778 
L 159.658204 83.53778 
L 159.658204 83.394367 
L 159.807898 83.394367 
L 159.807898 82.964128 
L 160.038232 82.964128 
L 160.038232 82.820715 
L 160.281688 82.820715 
L 160.281688 82.677302 
L 160.458086 82.677302 
L 160.474035 82.390476 
L 161.161694 82.390476 
L 161.161694 82.247063 
L 161.329454 82.247063 
L 161.420284 81.386586 
L 162.173813 81.386586 
L 162.173813 81.243173 
L 162.44642 81.243173 
L 162.44642 81.09976 
L 162.559939 81.09976 
L 162.559939 80.956347 
L 162.854457 80.956347 
L 162.854457 80.812934 
L 163.034316 80.812934 
L 163.034316 80.669521 
L 163.946031 80.669521 
L 163.946031 80.526108 
L 164.218222 80.526108 
L 164.308016 80.239282 
L 164.574657 80.239282 
L 164.574657 80.09587 
L 165.506937 80.09587 
L 165.506937 79.952457 
L 165.873346 79.952457 
L 165.896723 79.665631 
L 165.98992 79.665631 
L 165.98992 79.522218 
L 166.48249 79.522218 
L 166.48249 79.378805 
L 166.639906 79.378805 
L 166.639906 79.235392 
L 166.851294 79.235392 
L 166.939538 78.948566 
L 167.374185 78.948566 
L 167.427761 78.66174 
L 168.099393 78.66174 
L 168.202038 78.374914 
L 168.212269 78.374914 
L 168.253135 78.088089 
L 168.60668 78.088089 
L 168.656606 77.65785 
L 168.943394 77.65785 
L 168.943394 77.514437 
L 170.775901 77.514437 
L 170.775901 77.371024 
L 172.101686 77.371024 
L 172.101686 77.227611 
L 172.393836 77.227611 
L 172.393836 77.084198 
L 172.538095 77.084198 
L 172.538095 76.940785 
L 172.736497 76.940785 
L 172.736497 76.797372 
L 173.126653 76.797372 
L 173.22668 76.510546 
L 175.149812 76.510546 
L 175.156681 76.22372 
L 175.691027 76.22372 
L 175.724302 75.936895 
L 175.896315 75.936895 
L 175.896315 75.793482 
L 176.215951 75.793482 
L 176.215951 75.650069 
L 176.813202 75.650069 
L 176.8631 75.363243 
L 177.005766 75.363243 
L 177.098184 75.076417 
L 177.147274 75.076417 
L 177.147274 74.933004 
L 178.060472 74.933004 
L 178.060472 74.789591 
L 178.176386 74.789591 
L 178.176386 74.646178 
L 178.705493 74.646178 
L 178.705493 74.502765 
L 179.413813 74.502765 
L 179.413813 74.359352 
L 179.617095 74.359352 
L 179.617095 74.215939 
L 180.371709 74.215939 
L 180.371709 74.072526 
L 180.508688 74.072526 
L 180.508688 73.929114 
L 181.153558 73.929114 
L 181.153558 73.785701 
L 181.270047 73.785701 
L 181.270047 73.642288 
L 182.008829 73.642288 
L 182.045885 73.355462 
L 183.074532 73.355462 
L 183.074532 73.212049 
L 184.263172 73.212049 
L 184.263172 73.068636 
L 184.907145 73.068636 
L 184.907145 72.925223 
L 185.063517 72.925223 
L 185.063517 72.78181 
L 185.260879 72.78181 
L 185.260879 72.638397 
L 185.440806 72.638397 
L 185.440806 72.494984 
L 185.761563 72.494984 
L 185.761563 72.351571 
L 188.125274 72.351571 
L 188.125274 72.208158 
L 188.725415 72.208158 
L 188.725415 72.064745 
L 188.863673 72.064745 
L 188.863673 71.921333 
L 189.170803 71.921333 
L 189.170803 71.77792 
L 191.614434 71.77792 
L 191.614434 71.634507 
L 191.861277 71.634507 
L 191.861277 71.491094 
L 193.437673 71.491094 
L 193.437673 71.347681 
L 193.702905 71.347681 
L 193.702905 71.204268 
L 194.516013 71.204268 
L 194.516013 71.060855 
L 197.124242 71.060855 
L 197.124242 70.917442 
L 197.735134 70.917442 
L 197.735134 70.774029 
L 199.62891 70.774029 
L 199.62891 70.630616 
L 206.11395 70.630616 
L 206.11395 70.487203 
L 206.681913 70.487203 
L 206.681913 70.34379 
L 207.203555 70.34379 
L 207.203555 70.200377 
L 209.297774 70.200377 
L 209.346192 69.913552 
L 213.980896 69.913552 
L 213.980896 69.770139 
L 216.790331 69.770139 
L 216.790331 69.626726 
L 216.912324 69.626726 
L 216.912324 69.483313 
L 338.688 69.483313 
L 338.688 69.483313 
" style="fill:none;stroke:#008000;stroke-linecap:square;stroke-width:1.5;"/>
   </g>
   <g id="line2d_36">
    <defs>
     <path d="M -0 6 
L 6 -6 
L -6 -6 
z
" id="m5120ad5fe9" style="stroke:#008000;stroke-linejoin:miter;stroke-width:1.5;"/>
    </defs>
    <g>
     <use style="fill-opacity:0;stroke:#008000;stroke-linejoin:miter;stroke-width:1.5;" x="98.32726" xlink:href="#m5120ad5fe9" y="286.610488"/>
     <use style="fill-opacity:0;stroke:#008000;stroke-linejoin:miter;stroke-width:1.5;" x="136.769843" xlink:href="#m5120ad5fe9" y="192.388193"/>
     <use style="fill-opacity:0;stroke:#008000;stroke-linejoin:miter;stroke-width:1.5;" x="168.943394" xlink:href="#m5120ad5fe9" y="77.514437"/>
     <use style="fill-opacity:0;stroke:#008000;stroke-linejoin:miter;stroke-width:1.5;" x="216.912324" xlink:href="#m5120ad5fe9" y="69.626726"/>
     <use style="fill-opacity:0;stroke:#008000;stroke-linejoin:miter;stroke-width:1.5;" x="216.912324" xlink:href="#m5120ad5fe9" y="69.483313"/>
     <use style="fill-opacity:0;stroke:#008000;stroke-linejoin:miter;stroke-width:1.5;" x="338.688" xlink:href="#m5120ad5fe9" y="69.483313"/>
    </g>
   </g>
   <g id="line2d_37">
    <path style="fill:none;stroke:#008000;stroke-linecap:square;stroke-width:1.5;"/>
    <g/>
   </g>
   <g id="line2d_38">
    <path clip-path="url(#pa4116de74d)" d="M 157.622935 86.119213 
" style="fill:none;stroke:#008000;stroke-linecap:square;stroke-width:1.5;"/>
    <defs>
     <path d="M -12 12 
L 12 -12 
M -12 -12 
L 12 12 
" id="me8f8c6dffc" style="stroke:#008000;"/>
    </defs>
    <g clip-path="url(#pa4116de74d)">
     <use style="fill:#008000;stroke:#008000;" x="157.622935" xlink:href="#me8f8c6dffc" y="86.119213"/>
    </g>
   </g>
   <g id="line2d_39">
    <path d="M 338.688 69.483313 
L 369.60768 293.092752 
" style="fill:none;stroke:#008000;stroke-linecap:square;stroke-width:1.5;"/>
    <g>
     <use style="fill-opacity:0;stroke:#008000;stroke-linejoin:miter;stroke-width:1.5;" x="338.688" xlink:href="#m5120ad5fe9" y="69.483313"/>
     <use style="fill-opacity:0;stroke:#008000;stroke-linejoin:miter;stroke-width:1.5;" x="369.60768" xlink:href="#m5120ad5fe9" y="293.092752"/>
    </g>
   </g>
   <g id="line2d_40">
    <path d="M 338.688 52.273761 
L 369.60768 12.232871 
" style="fill:none;stroke:#00bfbf;stroke-linecap:square;stroke-width:1.5;"/>
    <g>
     <use style="fill-opacity:0;stroke:#00bfbf;stroke-width:1.5;" x="338.688" xlink:href="#m2989a2ce83" y="52.273761"/>
     <use style="fill-opacity:0;stroke:#00bfbf;stroke-width:1.5;" x="369.60768" xlink:href="#m2989a2ce83" y="12.232871"/>
    </g>
   </g>
   <g id="line2d_41">
    <path d="M 338.688 298.944 
L 338.688 6.381624 
" style="fill:none;stroke:#000000;stroke-linecap:square;stroke-width:1.5;"/>
   </g>
   <g id="patch_3">
    <path d="M 57.6 298.944 
L 57.6 3.456 
" style="fill:none;stroke:#000000;stroke-linecap:square;stroke-linejoin:miter;stroke-width:0.8;"/>
   </g>
   <g id="patch_4">
    <path d="M 338.688 298.944 
L 338.688 3.456 
" style="fill:none;stroke:#000000;stroke-linecap:square;stroke-linejoin:miter;stroke-width:0.8;"/>
   </g>
   <g id="patch_5">
    <path d="M 57.6 298.944 
L 338.688 298.944 
" style="fill:none;stroke:#000000;stroke-linecap:square;stroke-linejoin:miter;stroke-width:0.8;"/>
   </g>
   <g id="patch_6">
    <path d="M 57.6 3.456 
L 338.688 3.456 
" style="fill:none;stroke:#000000;stroke-linecap:square;stroke-linejoin:miter;stroke-width:0.8;"/>
   </g>
   <g id="text_13">
    <!-- 3-D -->
    <defs>
     <path d="M 40.578125 39.3125 
Q 47.65625 37.796875 51.625 33 
Q 55.609375 28.21875 55.609375 21.1875 
Q 55.609375 10.40625 48.1875 4.484375 
Q 40.765625 -1.421875 27.09375 -1.421875 
Q 22.515625 -1.421875 17.65625 -0.515625 
Q 12.796875 0.390625 7.625 2.203125 
L 7.625 11.71875 
Q 11.71875 9.328125 16.59375 8.109375 
Q 21.484375 6.890625 26.8125 6.890625 
Q 36.078125 6.890625 40.9375 10.546875 
Q 45.796875 14.203125 45.796875 21.1875 
Q 45.796875 27.640625 41.28125 31.265625 
Q 36.765625 34.90625 28.71875 34.90625 
L 20.21875 34.90625 
L 20.21875 43.015625 
L 29.109375 43.015625 
Q 36.375 43.015625 40.234375 45.921875 
Q 44.09375 48.828125 44.09375 54.296875 
Q 44.09375 59.90625 40.109375 62.90625 
Q 36.140625 65.921875 28.71875 65.921875 
Q 24.65625 65.921875 20.015625 65.03125 
Q 15.375 64.15625 9.8125 62.3125 
L 9.8125 71.09375 
Q 15.4375 72.65625 20.34375 73.4375 
Q 25.25 74.21875 29.59375 74.21875 
Q 40.828125 74.21875 47.359375 69.109375 
Q 53.90625 64.015625 53.90625 55.328125 
Q 53.90625 49.265625 50.4375 45.09375 
Q 46.96875 40.921875 40.578125 39.3125 
z
" id="DejaVuSans-51"/>
     <path d="M 19.671875 64.796875 
L 19.671875 8.109375 
L 31.59375 8.109375 
Q 46.6875 8.109375 53.6875 14.9375 
Q 60.6875 21.78125 60.6875 36.53125 
Q 60.6875 51.171875 53.6875 57.984375 
Q 46.6875 64.796875 31.59375 64.796875 
z
M 9.8125 72.90625 
L 30.078125 72.90625 
Q 51.265625 72.90625 61.171875 64.09375 
Q 71.09375 55.28125 71.09375 36.53125 
Q 71.09375 17.671875 61.125 8.828125 
Q 51.171875 0 30.078125 0 
L 9.8125 0 
z
" id="DejaVuSans-68"/>
    </defs>
    <g transform="translate(375.22944 297.78369)scale(0.17 -0.17)">
     <use xlink:href="#DejaVuSans-51"/>
     <use x="63.623047" xlink:href="#DejaVuSans-45"/>
     <use x="99.707031" xlink:href="#DejaVuSans-68"/>
    </g>
   </g>
   <g id="text_14">
    <!-- 2-D -->
    <g transform="translate(375.22944 16.923809)scale(0.17 -0.17)">
     <use xlink:href="#DejaVuSans-50"/>
     <use x="63.623047" xlink:href="#DejaVuSans-45"/>
     <use x="99.707031" xlink:href="#DejaVuSans-68"/>
    </g>
   </g>
   <g id="text_15">
    <!-- bbob f6-f9 -->
    <defs>
     <path d="M 48.6875 27.296875 
Q 48.6875 37.203125 44.609375 42.84375 
Q 40.53125 48.484375 33.40625 48.484375 
Q 26.265625 48.484375 22.1875 42.84375 
Q 18.109375 37.203125 18.109375 27.296875 
Q 18.109375 17.390625 22.1875 11.75 
Q 26.265625 6.109375 33.40625 6.109375 
Q 40.53125 6.109375 44.609375 11.75 
Q 48.6875 17.390625 48.6875 27.296875 
z
M 18.109375 46.390625 
Q 20.953125 51.265625 25.265625 53.625 
Q 29.59375 56 35.59375 56 
Q 45.5625 56 51.78125 48.09375 
Q 58.015625 40.1875 58.015625 27.296875 
Q 58.015625 14.40625 51.78125 6.484375 
Q 45.5625 -1.421875 35.59375 -1.421875 
Q 29.59375 -1.421875 25.265625 0.953125 
Q 20.953125 3.328125 18.109375 8.203125 
L 18.109375 0 
L 9.078125 0 
L 9.078125 75.984375 
L 18.109375 75.984375 
z
" id="DejaVuSans-98"/>
     <path d="M 10.984375 1.515625 
L 10.984375 10.5 
Q 14.703125 8.734375 18.5 7.8125 
Q 22.3125 6.890625 25.984375 6.890625 
Q 35.75 6.890625 40.890625 13.453125 
Q 46.046875 20.015625 46.78125 33.40625 
Q 43.953125 29.203125 39.59375 26.953125 
Q 35.25 24.703125 29.984375 24.703125 
Q 19.046875 24.703125 12.671875 31.3125 
Q 6.296875 37.9375 6.296875 49.421875 
Q 6.296875 60.640625 12.9375 67.421875 
Q 19.578125 74.21875 30.609375 74.21875 
Q 43.265625 74.21875 49.921875 64.515625 
Q 56.59375 54.828125 56.59375 36.375 
Q 56.59375 19.140625 48.40625 8.859375 
Q 40.234375 -1.421875 26.421875 -1.421875 
Q 22.703125 -1.421875 18.890625 -0.6875 
Q 15.09375 0.046875 10.984375 1.515625 
z
M 30.609375 32.421875 
Q 37.25 32.421875 41.125 36.953125 
Q 45.015625 41.5 45.015625 49.421875 
Q 45.015625 57.28125 41.125 61.84375 
Q 37.25 66.40625 30.609375 66.40625 
Q 23.96875 66.40625 20.09375 61.84375 
Q 16.21875 57.28125 16.21875 49.421875 
Q 16.21875 41.5 20.09375 36.953125 
Q 23.96875 32.421875 30.609375 32.421875 
z
" id="DejaVuSans-57"/>
    </defs>
    <g transform="translate(60.41088 14.161286)scale(0.102 -0.102)">
     <use xlink:href="#DejaVuSans-98"/>
     <use x="63.476562" xlink:href="#DejaVuSans-98"/>
     <use x="126.953125" xlink:href="#DejaVuSans-111"/>
     <use x="188.134766" xlink:href="#DejaVuSans-98"/>
     <use x="251.611328" xlink:href="#DejaVuSans-32"/>
     <use x="283.398438" xlink:href="#DejaVuSans-102"/>
     <use x="318.603516" xlink:href="#DejaVuSans-54"/>
     <use x="382.226562" xlink:href="#DejaVuSans-45"/>
     <use x="418.310547" xlink:href="#DejaVuSans-102"/>
     <use x="453.515625" xlink:href="#DejaVuSans-57"/>
    </g>
    <!-- 51 targets: 100..1e-08 -->
    <defs>
     <path d="M 10.796875 72.90625 
L 49.515625 72.90625 
L 49.515625 64.59375 
L 19.828125 64.59375 
L 19.828125 46.734375 
Q 21.96875 47.46875 24.109375 47.828125 
Q 26.265625 48.1875 28.421875 48.1875 
Q 40.625 48.1875 47.75 41.5 
Q 54.890625 34.8125 54.890625 23.390625 
Q 54.890625 11.625 47.5625 5.09375 
Q 40.234375 -1.421875 26.90625 -1.421875 
Q 22.3125 -1.421875 17.546875 -0.640625 
Q 12.796875 0.140625 7.71875 1.703125 
L 7.71875 11.625 
Q 12.109375 9.234375 16.796875 8.0625 
Q 21.484375 6.890625 26.703125 6.890625 
Q 35.15625 6.890625 40.078125 11.328125 
Q 45.015625 15.765625 45.015625 23.390625 
Q 45.015625 31 40.078125 35.4375 
Q 35.15625 39.890625 26.703125 39.890625 
Q 22.75 39.890625 18.8125 39.015625 
Q 14.890625 38.140625 10.796875 36.28125 
z
" id="DejaVuSans-53"/>
     <path d="M 11.71875 12.40625 
L 22.015625 12.40625 
L 22.015625 0 
L 11.71875 0 
z
M 11.71875 51.703125 
L 22.015625 51.703125 
L 22.015625 39.3125 
L 11.71875 39.3125 
z
" id="DejaVuSans-58"/>
    </defs>
    <g transform="translate(60.41088 25.583055)scale(0.102 -0.102)">
     <use xlink:href="#DejaVuSans-53"/>
     <use x="63.623047" xlink:href="#DejaVuSans-49"/>
     <use x="127.246094" xlink:href="#DejaVuSans-32"/>
     <use x="159.033203" xlink:href="#DejaVuSans-116"/>
     <use x="198.242188" xlink:href="#DejaVuSans-97"/>
     <use x="259.521484" xlink:href="#DejaVuSans-114"/>
     <use x="298.884766" xlink:href="#DejaVuSans-103"/>
     <use x="362.361328" xlink:href="#DejaVuSans-101"/>
     <use x="423.884766" xlink:href="#DejaVuSans-116"/>
     <use x="463.09375" xlink:href="#DejaVuSans-115"/>
     <use x="515.193359" xlink:href="#DejaVuSans-58"/>
     <use x="548.884766" xlink:href="#DejaVuSans-32"/>
     <use x="580.671875" xlink:href="#DejaVuSans-49"/>
     <use x="644.294922" xlink:href="#DejaVuSans-48"/>
     <use x="707.917969" xlink:href="#DejaVuSans-48"/>
     <use x="771.541016" xlink:href="#DejaVuSans-46"/>
     <use x="803.328125" xlink:href="#DejaVuSans-46"/>
     <use x="835.115234" xlink:href="#DejaVuSans-49"/>
     <use x="898.738281" xlink:href="#DejaVuSans-101"/>
     <use x="960.261719" xlink:href="#DejaVuSans-45"/>
     <use x="996.345703" xlink:href="#DejaVuSans-48"/>
     <use x="1059.96875" xlink:href="#DejaVuSans-56"/>
    </g>
    <!-- 15 instances -->
    <g transform="translate(60.41088 37.004824)scale(0.102 -0.102)">
     <use xlink:href="#DejaVuSans-49"/>
     <use x="63.623047" xlink:href="#DejaVuSans-53"/>
     <use x="127.246094" xlink:href="#DejaVuSans-32"/>
     <use x="159.033203" xlink:href="#DejaVuSans-105"/>
     <use x="186.816406" xlink:href="#DejaVuSans-110"/>
     <use x="250.195312" xlink:href="#DejaVuSans-115"/>
     <use x="302.294922" xlink:href="#DejaVuSans-116"/>
     <use x="341.503906" xlink:href="#DejaVuSans-97"/>
     <use x="402.783203" xlink:href="#DejaVuSans-110"/>
     <use x="466.162109" xlink:href="#DejaVuSans-99"/>
     <use x="521.142578" xlink:href="#DejaVuSans-101"/>
     <use x="582.666016" xlink:href="#DejaVuSans-115"/>
    </g>
   </g>
   <g id="text_16">
    <!-- v2.3.3.5 -->
    <g style="fill:#808080;" transform="translate(177.692437 293.909432)scale(0.1 -0.1)">
     <use xlink:href="#DejaVuSans-118"/>
     <use x="59.179688" xlink:href="#DejaVuSans-50"/>
     <use x="122.802734" xlink:href="#DejaVuSans-46"/>
     <use x="154.589844" xlink:href="#DejaVuSans-51"/>
     <use x="218.212891" xlink:href="#DejaVuSans-46"/>
     <use x="250" xlink:href="#DejaVuSans-51"/>
     <use x="313.623047" xlink:href="#DejaVuSans-46"/>
     <use x="345.410156" xlink:href="#DejaVuSans-53"/>
    </g>
   </g>
  </g>
 </g>
 <defs>
  <clipPath id="pa4116de74d">
   <rect height="295.488" width="281.088" x="57.6" y="3.456"/>
  </clipPath>
 </defs>
</svg>
