<?xml version="1.0" encoding="utf-8" standalone="no"?>
<!DOCTYPE svg PUBLIC "-//W3C//DTD SVG 1.1//EN"
  "http://www.w3.org/Graphics/SVG/1.1/DTD/svg11.dtd">
<!-- Created with matplotlib (https://matplotlib.org/) -->
<svg height="345.6pt" version="1.1" viewBox="0 0 460.8 345.6" width="460.8pt" xmlns="http://www.w3.org/2000/svg" xmlns:xlink="http://www.w3.org/1999/xlink">
 <defs>
  <style type="text/css">
*{stroke-linecap:butt;stroke-linejoin:round;}
  </style>
 </defs>
 <g id="figure_1">
  <g id="patch_1">
   <path d="M 0 345.6 
L 460.8 345.6 
L 460.8 0 
L 0 0 
z
" style="fill:#ffffff;"/>
  </g>
  <g id="axes_1">
   <g id="patch_2">
    <path d="M 22.78 315.44 
L 453.192 315.44 
L 453.192 27.72 
L 22.78 27.72 
z
" style="fill:#ffffff;"/>
   </g>
   <g id="line2d_1">
    <path clip-path="url(#p2a4f7c5f17)" d="M 36.868282 176.203475 
L 91.085051 165.330595 
L 159.390103 132.544497 
L 252.074282 136.039865 
L 344.758461 118.757353 
L 437.442641 115.595635 
" style="fill:none;stroke:#f5deb3;stroke-linecap:square;stroke-width:10;"/>
    <defs>
     <path d="M -0 17.67767 
L 10.606602 0 
L 0 -17.67767 
L -10.606602 -0 
z
" id="mf3f64f27ed" style="stroke:#000000;stroke-linejoin:miter;"/>
    </defs>
    <g clip-path="url(#p2a4f7c5f17)">
     <use style="fill:#f5deb3;stroke:#000000;stroke-linejoin:miter;" x="36.868282" xlink:href="#mf3f64f27ed" y="176.203475"/>
     <use style="fill:#f5deb3;stroke:#000000;stroke-linejoin:miter;" x="91.085051" xlink:href="#mf3f64f27ed" y="165.330595"/>
     <use style="fill:#f5deb3;stroke:#000000;stroke-linejoin:miter;" x="159.390103" xlink:href="#mf3f64f27ed" y="132.544497"/>
     <use style="fill:#f5deb3;stroke:#000000;stroke-linejoin:miter;" x="252.074282" xlink:href="#mf3f64f27ed" y="136.039865"/>
     <use style="fill:#f5deb3;stroke:#000000;stroke-linejoin:miter;" x="344.758461" xlink:href="#mf3f64f27ed" y="118.757353"/>
     <use style="fill:#f5deb3;stroke:#000000;stroke-linejoin:miter;" x="437.442641" xlink:href="#mf3f64f27ed" y="115.595635"/>
    </g>
   </g>
   <g id="line2d_2">
    <defs>
     <path d="M -15 0 
L 15 0 
M 0 15 
L 0 -15 
" id="m4a07b27a64" style="stroke:#bf00bf;stroke-width:5;"/>
    </defs>
    <g clip-path="url(#p2a4f7c5f17)">
     <use style="fill:#bf00bf;stroke:#bf00bf;stroke-width:5;" x="91.085051" xlink:href="#m4a07b27a64" y="143.156018"/>
    </g>
   </g>
   <g id="line2d_3">
    <defs>
     <path d="M -15 0 
L 15 0 
M 0 15 
L 0 -15 
" id="m0835d4e3cf" style="stroke:#ff0000;stroke-width:5;"/>
    </defs>
    <g clip-path="url(#p2a4f7c5f17)">
     <use style="fill:#ff0000;stroke:#ff0000;stroke-width:5;" x="36.868282" xlink:href="#m0835d4e3cf" y="160.249811"/>
    </g>
   </g>
   <g id="matplotlib.axis_1">
    <g id="xtick_1">
     <g id="line2d_4">
      <defs>
       <path d="M 0 0 
L 0 3.5 
" id="mfdecf19b3d" style="stroke:#000000;stroke-width:0.8;"/>
      </defs>
      <g>
       <use style="stroke:#000000;stroke-width:0.8;" x="36.868282" xlink:href="#mfdecf19b3d" y="315.44"/>
      </g>
     </g>
     <g id="text_1">
      <!-- 2 -->
      <defs>
       <path d="M 19.1875 8.296875 
L 53.609375 8.296875 
L 53.609375 0 
L 7.328125 0 
L 7.328125 8.296875 
Q 12.9375 14.109375 22.625 23.890625 
Q 32.328125 33.6875 34.8125 36.53125 
Q 39.546875 41.84375 41.421875 45.53125 
Q 43.3125 49.21875 43.3125 52.78125 
Q 43.3125 58.59375 39.234375 62.25 
Q 35.15625 65.921875 28.609375 65.921875 
Q 23.96875 65.921875 18.8125 64.3125 
Q 13.671875 62.703125 7.8125 59.421875 
L 7.8125 69.390625 
Q 13.765625 71.78125 18.9375 73 
Q 24.125 74.21875 28.421875 74.21875 
Q 39.75 74.21875 46.484375 68.546875 
Q 53.21875 62.890625 53.21875 53.421875 
Q 53.21875 48.921875 51.53125 44.890625 
Q 49.859375 40.875 45.40625 35.40625 
Q 44.1875 33.984375 37.640625 27.21875 
Q 31.109375 20.453125 19.1875 8.296875 
z
" id="DejaVuSans-50"/>
      </defs>
      <g transform="translate(30.505782 337.636875)scale(0.2 -0.2)">
       <use xlink:href="#DejaVuSans-50"/>
      </g>
     </g>
    </g>
    <g id="xtick_2">
     <g id="line2d_5">
      <g>
       <use style="stroke:#000000;stroke-width:0.8;" x="91.085051" xlink:href="#mfdecf19b3d" y="315.44"/>
      </g>
     </g>
     <g id="text_2">
      <!-- 3 -->
      <defs>
       <path d="M 40.578125 39.3125 
Q 47.65625 37.796875 51.625 33 
Q 55.609375 28.21875 55.609375 21.1875 
Q 55.609375 10.40625 48.1875 4.484375 
Q 40.765625 -1.421875 27.09375 -1.421875 
Q 22.515625 -1.421875 17.65625 -0.515625 
Q 12.796875 0.390625 7.625 2.203125 
L 7.625 11.71875 
Q 11.71875 9.328125 16.59375 8.109375 
Q 21.484375 6.890625 26.8125 6.890625 
Q 36.078125 6.890625 40.9375 10.546875 
Q 45.796875 14.203125 45.796875 21.1875 
Q 45.796875 27.640625 41.28125 31.265625 
Q 36.765625 34.90625 28.71875 34.90625 
L 20.21875 34.90625 
L 20.21875 43.015625 
L 29.109375 43.015625 
Q 36.375 43.015625 40.234375 45.921875 
Q 44.09375 48.828125 44.09375 54.296875 
Q 44.09375 59.90625 40.109375 62.90625 
Q 36.140625 65.921875 28.71875 65.921875 
Q 24.65625 65.921875 20.015625 65.03125 
Q 15.375 64.15625 9.8125 62.3125 
L 9.8125 71.09375 
Q 15.4375 72.65625 20.34375 73.4375 
Q 25.25 74.21875 29.59375 74.21875 
Q 40.828125 74.21875 47.359375 69.109375 
Q 53.90625 64.015625 53.90625 55.328125 
Q 53.90625 49.265625 50.4375 45.09375 
Q 46.96875 40.921875 40.578125 39.3125 
z
" id="DejaVuSans-51"/>
      </defs>
      <g transform="translate(84.722551 337.636875)scale(0.2 -0.2)">
       <use xlink:href="#DejaVuSans-51"/>
      </g>
     </g>
    </g>
    <g id="xtick_3">
     <g id="line2d_6">
      <g>
       <use style="stroke:#000000;stroke-width:0.8;" x="159.390103" xlink:href="#mfdecf19b3d" y="315.44"/>
      </g>
     </g>
     <g id="text_3">
      <!-- 5 -->
      <defs>
       <path d="M 10.796875 72.90625 
L 49.515625 72.90625 
L 49.515625 64.59375 
L 19.828125 64.59375 
L 19.828125 46.734375 
Q 21.96875 47.46875 24.109375 47.828125 
Q 26.265625 48.1875 28.421875 48.1875 
Q 40.625 48.1875 47.75 41.5 
Q 54.890625 34.8125 54.890625 23.390625 
Q 54.890625 11.625 47.5625 5.09375 
Q 40.234375 -1.421875 26.90625 -1.421875 
Q 22.3125 -1.421875 17.546875 -0.640625 
Q 12.796875 0.140625 7.71875 1.703125 
L 7.71875 11.625 
Q 12.109375 9.234375 16.796875 8.0625 
Q 21.484375 6.890625 26.703125 6.890625 
Q 35.15625 6.890625 40.078125 11.328125 
Q 45.015625 15.765625 45.015625 23.390625 
Q 45.015625 31 40.078125 35.4375 
Q 35.15625 39.890625 26.703125 39.890625 
Q 22.75 39.890625 18.8125 39.015625 
Q 14.890625 38.140625 10.796875 36.28125 
z
" id="DejaVuSans-53"/>
      </defs>
      <g transform="translate(153.027603 337.636875)scale(0.2 -0.2)">
       <use xlink:href="#DejaVuSans-53"/>
      </g>
     </g>
    </g>
    <g id="xtick_4">
     <g id="line2d_7">
      <g>
       <use style="stroke:#000000;stroke-width:0.8;" x="252.074282" xlink:href="#mfdecf19b3d" y="315.44"/>
      </g>
     </g>
     <g id="text_4">
      <!-- 10 -->
      <defs>
       <path d="M 12.40625 8.296875 
L 28.515625 8.296875 
L 28.515625 63.921875 
L 10.984375 60.40625 
L 10.984375 69.390625 
L 28.421875 72.90625 
L 38.28125 72.90625 
L 38.28125 8.296875 
L 54.390625 8.296875 
L 54.390625 0 
L 12.40625 0 
z
" id="DejaVuSans-49"/>
       <path d="M 31.78125 66.40625 
Q 24.171875 66.40625 20.328125 58.90625 
Q 16.5 51.421875 16.5 36.375 
Q 16.5 21.390625 20.328125 13.890625 
Q 24.171875 6.390625 31.78125 6.390625 
Q 39.453125 6.390625 43.28125 13.890625 
Q 47.125 21.390625 47.125 36.375 
Q 47.125 51.421875 43.28125 58.90625 
Q 39.453125 66.40625 31.78125 66.40625 
z
M 31.78125 74.21875 
Q 44.046875 74.21875 50.515625 64.515625 
Q 56.984375 54.828125 56.984375 36.375 
Q 56.984375 17.96875 50.515625 8.265625 
Q 44.046875 -1.421875 31.78125 -1.421875 
Q 19.53125 -1.421875 13.0625 8.265625 
Q 6.59375 17.96875 6.59375 36.375 
Q 6.59375 54.828125 13.0625 64.515625 
Q 19.53125 74.21875 31.78125 74.21875 
z
" id="DejaVuSans-48"/>
      </defs>
      <g transform="translate(239.349282 337.636875)scale(0.2 -0.2)">
       <use xlink:href="#DejaVuSans-49"/>
       <use x="63.623047" xlink:href="#DejaVuSans-48"/>
      </g>
     </g>
    </g>
    <g id="xtick_5">
     <g id="line2d_8">
      <g>
       <use style="stroke:#000000;stroke-width:0.8;" x="344.758461" xlink:href="#mfdecf19b3d" y="315.44"/>
      </g>
     </g>
     <g id="text_5">
      <!-- 20 -->
      <g transform="translate(332.033461 337.636875)scale(0.2 -0.2)">
       <use xlink:href="#DejaVuSans-50"/>
       <use x="63.623047" xlink:href="#DejaVuSans-48"/>
      </g>
     </g>
    </g>
    <g id="xtick_6">
     <g id="line2d_9">
      <g>
       <use style="stroke:#000000;stroke-width:0.8;" x="437.442641" xlink:href="#mfdecf19b3d" y="315.44"/>
      </g>
     </g>
     <g id="text_6">
      <!-- 40 -->
      <defs>
       <path d="M 37.796875 64.3125 
L 12.890625 25.390625 
L 37.796875 25.390625 
z
M 35.203125 72.90625 
L 47.609375 72.90625 
L 47.609375 25.390625 
L 58.015625 25.390625 
L 58.015625 17.1875 
L 47.609375 17.1875 
L 47.609375 0 
L 37.796875 0 
L 37.796875 17.1875 
L 4.890625 17.1875 
L 4.890625 26.703125 
z
" id="DejaVuSans-52"/>
      </defs>
      <g transform="translate(424.717641 337.636875)scale(0.2 -0.2)">
       <use xlink:href="#DejaVuSans-52"/>
       <use x="63.623047" xlink:href="#DejaVuSans-48"/>
      </g>
     </g>
    </g>
    <g id="xtick_7">
     <g id="line2d_10">
      <defs>
       <path d="M 0 0 
L 0 2 
" id="mc0168d717b" style="stroke:#000000;stroke-width:0.6;"/>
      </defs>
      <g>
       <use style="stroke:#000000;stroke-width:0.6;" x="129.552461" xlink:href="#mc0168d717b" y="315.44"/>
      </g>
     </g>
    </g>
    <g id="xtick_8">
     <g id="line2d_11">
      <g>
       <use style="stroke:#000000;stroke-width:0.6;" x="183.769231" xlink:href="#mc0168d717b" y="315.44"/>
      </g>
     </g>
    </g>
    <g id="xtick_9">
     <g id="line2d_12">
      <g>
       <use style="stroke:#000000;stroke-width:0.6;" x="204.38149" xlink:href="#mc0168d717b" y="315.44"/>
      </g>
     </g>
    </g>
    <g id="xtick_10">
     <g id="line2d_13">
      <g>
       <use style="stroke:#000000;stroke-width:0.6;" x="222.236641" xlink:href="#mc0168d717b" y="315.44"/>
      </g>
     </g>
    </g>
    <g id="xtick_11">
     <g id="line2d_14">
      <g>
       <use style="stroke:#000000;stroke-width:0.6;" x="237.986" xlink:href="#mc0168d717b" y="315.44"/>
      </g>
     </g>
    </g>
    <g id="xtick_12">
     <g id="line2d_15">
      <g>
       <use style="stroke:#000000;stroke-width:0.6;" x="398.975231" xlink:href="#mc0168d717b" y="315.44"/>
      </g>
     </g>
    </g>
   </g>
   <g id="matplotlib.axis_2">
    <g id="ytick_1">
     <g id="line2d_16">
      <path clip-path="url(#p2a4f7c5f17)" d="M 22.78 301.739049 
L 453.192 301.739049 
" style="fill:none;stroke:#b0b0b0;stroke-linecap:square;stroke-width:0.8;"/>
     </g>
     <g id="line2d_17">
      <defs>
       <path d="M 0 0 
L -3.5 0 
" id="m07ab86a892" style="stroke:#000000;stroke-width:0.8;"/>
      </defs>
      <g>
       <use style="stroke:#000000;stroke-width:0.8;" x="22.78" xlink:href="#m07ab86a892" y="301.739049"/>
      </g>
     </g>
     <g id="text_7">
      <!-- 0 -->
      <g transform="translate(3.055 309.337487)scale(0.2 -0.2)">
       <use xlink:href="#DejaVuSans-48"/>
      </g>
     </g>
    </g>
    <g id="ytick_2">
     <g id="line2d_18">
      <path clip-path="url(#p2a4f7c5f17)" d="M 22.78 233.234294 
L 453.192 233.234294 
" style="fill:none;stroke:#b0b0b0;stroke-linecap:square;stroke-width:0.8;"/>
     </g>
     <g id="line2d_19">
      <g>
       <use style="stroke:#000000;stroke-width:0.8;" x="22.78" xlink:href="#m07ab86a892" y="233.234294"/>
      </g>
     </g>
     <g id="text_8">
      <!-- 1 -->
      <g transform="translate(3.055 240.832732)scale(0.2 -0.2)">
       <use xlink:href="#DejaVuSans-49"/>
      </g>
     </g>
    </g>
    <g id="ytick_3">
     <g id="line2d_20">
      <path clip-path="url(#p2a4f7c5f17)" d="M 22.78 164.729539 
L 453.192 164.729539 
" style="fill:none;stroke:#b0b0b0;stroke-linecap:square;stroke-width:0.8;"/>
     </g>
     <g id="line2d_21">
      <g>
       <use style="stroke:#000000;stroke-width:0.8;" x="22.78" xlink:href="#m07ab86a892" y="164.729539"/>
      </g>
     </g>
     <g id="text_9">
      <!-- 2 -->
      <g transform="translate(3.055 172.327977)scale(0.2 -0.2)">
       <use xlink:href="#DejaVuSans-50"/>
      </g>
     </g>
    </g>
    <g id="ytick_4">
     <g id="line2d_22">
      <path clip-path="url(#p2a4f7c5f17)" d="M 22.78 96.224785 
L 453.192 96.224785 
" style="fill:none;stroke:#b0b0b0;stroke-linecap:square;stroke-width:0.8;"/>
     </g>
     <g id="line2d_23">
      <g>
       <use style="stroke:#000000;stroke-width:0.8;" x="22.78" xlink:href="#m07ab86a892" y="96.224785"/>
      </g>
     </g>
     <g id="text_10">
      <!-- 3 -->
      <g transform="translate(3.055 103.823222)scale(0.2 -0.2)">
       <use xlink:href="#DejaVuSans-51"/>
      </g>
     </g>
    </g>
    <g id="ytick_5">
     <g id="line2d_24">
      <path clip-path="url(#p2a4f7c5f17)" d="M 22.78 27.72003 
L 453.192 27.72003 
" style="fill:none;stroke:#b0b0b0;stroke-linecap:square;stroke-width:0.8;"/>
     </g>
     <g id="line2d_25">
      <g>
       <use style="stroke:#000000;stroke-width:0.8;" x="22.78" xlink:href="#m07ab86a892" y="27.72003"/>
      </g>
     </g>
     <g id="text_11">
      <!-- 4 -->
      <g transform="translate(3.055 35.318467)scale(0.2 -0.2)">
       <use xlink:href="#DejaVuSans-52"/>
      </g>
     </g>
    </g>
    <g id="ytick_6">
     <g id="line2d_26">
      <defs>
       <path d="M 0 0 
L -2 0 
" id="mbc28dfcecf" style="stroke:#000000;stroke-width:0.6;"/>
      </defs>
      <g>
       <use style="stroke:#000000;stroke-width:0.6;" x="22.78" xlink:href="#mbc28dfcecf" y="312.35057"/>
      </g>
     </g>
    </g>
    <g id="ytick_7">
     <g id="line2d_27">
      <g>
       <use style="stroke:#000000;stroke-width:0.6;" x="22.78" xlink:href="#mbc28dfcecf" y="308.377846"/>
      </g>
     </g>
    </g>
    <g id="ytick_8">
     <g id="line2d_28">
      <g>
       <use style="stroke:#000000;stroke-width:0.6;" x="22.78" xlink:href="#mbc28dfcecf" y="304.873655"/>
      </g>
     </g>
    </g>
    <g id="ytick_9">
     <g id="line2d_29">
      <g>
       <use style="stroke:#000000;stroke-width:0.6;" x="22.78" xlink:href="#mbc28dfcecf" y="281.117063"/>
      </g>
     </g>
    </g>
    <g id="ytick_10">
     <g id="line2d_30">
      <g>
       <use style="stroke:#000000;stroke-width:0.6;" x="22.78" xlink:href="#mbc28dfcecf" y="269.053974"/>
      </g>
     </g>
    </g>
    <g id="ytick_11">
     <g id="line2d_31">
      <g>
       <use style="stroke:#000000;stroke-width:0.6;" x="22.78" xlink:href="#mbc28dfcecf" y="260.495077"/>
      </g>
     </g>
    </g>
    <g id="ytick_12">
     <g id="line2d_32">
      <g>
       <use style="stroke:#000000;stroke-width:0.6;" x="22.78" xlink:href="#mbc28dfcecf" y="253.85628"/>
      </g>
     </g>
    </g>
    <g id="ytick_13">
     <g id="line2d_33">
      <g>
       <use style="stroke:#000000;stroke-width:0.6;" x="22.78" xlink:href="#mbc28dfcecf" y="248.431988"/>
      </g>
     </g>
    </g>
    <g id="ytick_14">
     <g id="line2d_34">
      <g>
       <use style="stroke:#000000;stroke-width:0.6;" x="22.78" xlink:href="#mbc28dfcecf" y="243.845815"/>
      </g>
     </g>
    </g>
    <g id="ytick_15">
     <g id="line2d_35">
      <g>
       <use style="stroke:#000000;stroke-width:0.6;" x="22.78" xlink:href="#mbc28dfcecf" y="239.873091"/>
      </g>
     </g>
    </g>
    <g id="ytick_16">
     <g id="line2d_36">
      <g>
       <use style="stroke:#000000;stroke-width:0.6;" x="22.78" xlink:href="#mbc28dfcecf" y="236.3689"/>
      </g>
     </g>
    </g>
    <g id="ytick_17">
     <g id="line2d_37">
      <g>
       <use style="stroke:#000000;stroke-width:0.6;" x="22.78" xlink:href="#mbc28dfcecf" y="212.612308"/>
      </g>
     </g>
    </g>
    <g id="ytick_18">
     <g id="line2d_38">
      <g>
       <use style="stroke:#000000;stroke-width:0.6;" x="22.78" xlink:href="#mbc28dfcecf" y="200.54922"/>
      </g>
     </g>
    </g>
    <g id="ytick_19">
     <g id="line2d_39">
      <g>
       <use style="stroke:#000000;stroke-width:0.6;" x="22.78" xlink:href="#mbc28dfcecf" y="191.990322"/>
      </g>
     </g>
    </g>
    <g id="ytick_20">
     <g id="line2d_40">
      <g>
       <use style="stroke:#000000;stroke-width:0.6;" x="22.78" xlink:href="#mbc28dfcecf" y="185.351525"/>
      </g>
     </g>
    </g>
    <g id="ytick_21">
     <g id="line2d_41">
      <g>
       <use style="stroke:#000000;stroke-width:0.6;" x="22.78" xlink:href="#mbc28dfcecf" y="179.927234"/>
      </g>
     </g>
    </g>
    <g id="ytick_22">
     <g id="line2d_42">
      <g>
       <use style="stroke:#000000;stroke-width:0.6;" x="22.78" xlink:href="#mbc28dfcecf" y="175.34106"/>
      </g>
     </g>
    </g>
    <g id="ytick_23">
     <g id="line2d_43">
      <g>
       <use style="stroke:#000000;stroke-width:0.6;" x="22.78" xlink:href="#mbc28dfcecf" y="171.368336"/>
      </g>
     </g>
    </g>
    <g id="ytick_24">
     <g id="line2d_44">
      <g>
       <use style="stroke:#000000;stroke-width:0.6;" x="22.78" xlink:href="#mbc28dfcecf" y="167.864145"/>
      </g>
     </g>
    </g>
    <g id="ytick_25">
     <g id="line2d_45">
      <g>
       <use style="stroke:#000000;stroke-width:0.6;" x="22.78" xlink:href="#mbc28dfcecf" y="144.107553"/>
      </g>
     </g>
    </g>
    <g id="ytick_26">
     <g id="line2d_46">
      <g>
       <use style="stroke:#000000;stroke-width:0.6;" x="22.78" xlink:href="#mbc28dfcecf" y="132.044465"/>
      </g>
     </g>
    </g>
    <g id="ytick_27">
     <g id="line2d_47">
      <g>
       <use style="stroke:#000000;stroke-width:0.6;" x="22.78" xlink:href="#mbc28dfcecf" y="123.485567"/>
      </g>
     </g>
    </g>
    <g id="ytick_28">
     <g id="line2d_48">
      <g>
       <use style="stroke:#000000;stroke-width:0.6;" x="22.78" xlink:href="#mbc28dfcecf" y="116.846771"/>
      </g>
     </g>
    </g>
    <g id="ytick_29">
     <g id="line2d_49">
      <g>
       <use style="stroke:#000000;stroke-width:0.6;" x="22.78" xlink:href="#mbc28dfcecf" y="111.422479"/>
      </g>
     </g>
    </g>
    <g id="ytick_30">
     <g id="line2d_50">
      <g>
       <use style="stroke:#000000;stroke-width:0.6;" x="22.78" xlink:href="#mbc28dfcecf" y="106.836305"/>
      </g>
     </g>
    </g>
    <g id="ytick_31">
     <g id="line2d_51">
      <g>
       <use style="stroke:#000000;stroke-width:0.6;" x="22.78" xlink:href="#mbc28dfcecf" y="102.863581"/>
      </g>
     </g>
    </g>
    <g id="ytick_32">
     <g id="line2d_52">
      <g>
       <use style="stroke:#000000;stroke-width:0.6;" x="22.78" xlink:href="#mbc28dfcecf" y="99.35939"/>
      </g>
     </g>
    </g>
    <g id="ytick_33">
     <g id="line2d_53">
      <g>
       <use style="stroke:#000000;stroke-width:0.6;" x="22.78" xlink:href="#mbc28dfcecf" y="75.602799"/>
      </g>
     </g>
    </g>
    <g id="ytick_34">
     <g id="line2d_54">
      <g>
       <use style="stroke:#000000;stroke-width:0.6;" x="22.78" xlink:href="#mbc28dfcecf" y="63.53971"/>
      </g>
     </g>
    </g>
    <g id="ytick_35">
     <g id="line2d_55">
      <g>
       <use style="stroke:#000000;stroke-width:0.6;" x="22.78" xlink:href="#mbc28dfcecf" y="54.980812"/>
      </g>
     </g>
    </g>
    <g id="ytick_36">
     <g id="line2d_56">
      <g>
       <use style="stroke:#000000;stroke-width:0.6;" x="22.78" xlink:href="#mbc28dfcecf" y="48.342016"/>
      </g>
     </g>
    </g>
    <g id="ytick_37">
     <g id="line2d_57">
      <g>
       <use style="stroke:#000000;stroke-width:0.6;" x="22.78" xlink:href="#mbc28dfcecf" y="42.917724"/>
      </g>
     </g>
    </g>
    <g id="ytick_38">
     <g id="line2d_58">
      <g>
       <use style="stroke:#000000;stroke-width:0.6;" x="22.78" xlink:href="#mbc28dfcecf" y="38.331551"/>
      </g>
     </g>
    </g>
    <g id="ytick_39">
     <g id="line2d_59">
      <g>
       <use style="stroke:#000000;stroke-width:0.6;" x="22.78" xlink:href="#mbc28dfcecf" y="34.358826"/>
      </g>
     </g>
    </g>
    <g id="ytick_40">
     <g id="line2d_60">
      <g>
       <use style="stroke:#000000;stroke-width:0.6;" x="22.78" xlink:href="#mbc28dfcecf" y="30.854635"/>
      </g>
     </g>
    </g>
   </g>
   <g id="line2d_61">
    <path clip-path="url(#p2a4f7c5f17)" d="M 33.682182 215.746914 
L 35.912452 214.532409 
L 33.682182 189.154726 
L 40.054382 189.154726 
L 37.824112 214.532409 
L 40.054382 215.746914 
L 33.682182 215.746914 
" style="fill:none;stroke:#000000;stroke-linecap:square;"/>
   </g>
   <g id="line2d_62">
    <path clip-path="url(#p2a4f7c5f17)" d="M 33.682182 215.746914 
L 40.054382 215.746914 
L 40.054382 189.154726 
L 33.682182 189.154726 
L 33.682182 215.746914 
" style="fill:none;"/>
    <defs>
     <path d="M 0 3 
C 0.795609 3 1.55874 2.683901 2.12132 2.12132 
C 2.683901 1.55874 3 0.795609 3 0 
C 3 -0.795609 2.683901 -1.55874 2.12132 -2.12132 
C 1.55874 -2.683901 0.795609 -3 0 -3 
C -0.795609 -3 -1.55874 -2.683901 -2.12132 -2.12132 
C -2.683901 -1.55874 -3 -0.795609 -3 0 
C -3 0.795609 -2.683901 1.55874 -2.12132 2.12132 
C -1.55874 2.683901 -0.795609 3 0 3 
z
" id="m4d55d87e0d" style="stroke:#000000;stroke-width:2;"/>
    </defs>
    <g clip-path="url(#p2a4f7c5f17)">
     <use style="stroke:#000000;stroke-width:2;" x="33.682182" xlink:href="#m4d55d87e0d" y="215.746914"/>
     <use style="stroke:#000000;stroke-width:2;" x="40.054382" xlink:href="#m4d55d87e0d" y="215.746914"/>
     <use style="stroke:#000000;stroke-width:2;" x="40.054382" xlink:href="#m4d55d87e0d" y="189.154726"/>
     <use style="stroke:#000000;stroke-width:2;" x="33.682182" xlink:href="#m4d55d87e0d" y="189.154726"/>
     <use style="stroke:#000000;stroke-width:2;" x="33.682182" xlink:href="#m4d55d87e0d" y="215.746914"/>
    </g>
   </g>
   <g id="line2d_63">
    <path clip-path="url(#p2a4f7c5f17)" d="M 33.682182 214.532409 
L 40.054382 214.532409 
" style="fill:none;stroke:#000000;stroke-linecap:square;stroke-width:2;"/>
   </g>
   <g id="line2d_64">
    <path clip-path="url(#p2a4f7c5f17)" d="M 87.898951 196.825461 
L 90.129221 188.818551 
L 87.898951 173.554075 
L 94.271152 173.554075 
L 92.040881 188.818551 
L 94.271152 196.825461 
L 87.898951 196.825461 
" style="fill:none;stroke:#000000;stroke-linecap:square;"/>
   </g>
   <g id="line2d_65">
    <path clip-path="url(#p2a4f7c5f17)" d="M 87.898951 196.825461 
L 94.271152 196.825461 
L 94.271152 173.554075 
L 87.898951 173.554075 
L 87.898951 196.825461 
" style="fill:none;"/>
    <g clip-path="url(#p2a4f7c5f17)">
     <use style="stroke:#000000;stroke-width:2;" x="87.898951" xlink:href="#m4d55d87e0d" y="196.825461"/>
     <use style="stroke:#000000;stroke-width:2;" x="94.271152" xlink:href="#m4d55d87e0d" y="196.825461"/>
     <use style="stroke:#000000;stroke-width:2;" x="94.271152" xlink:href="#m4d55d87e0d" y="173.554075"/>
     <use style="stroke:#000000;stroke-width:2;" x="87.898951" xlink:href="#m4d55d87e0d" y="173.554075"/>
     <use style="stroke:#000000;stroke-width:2;" x="87.898951" xlink:href="#m4d55d87e0d" y="196.825461"/>
    </g>
   </g>
   <g id="line2d_66">
    <path clip-path="url(#p2a4f7c5f17)" d="M 87.898951 188.818551 
L 94.271152 188.818551 
" style="fill:none;stroke:#000000;stroke-linecap:square;stroke-width:2;"/>
   </g>
   <g id="line2d_67">
    <path clip-path="url(#p2a4f7c5f17)" d="M 36.868282 199.22385 
L 91.085051 173.332546 
" style="fill:none;stroke:#000000;stroke-linecap:square;stroke-width:4;"/>
   </g>
   <g id="line2d_68">
    <path clip-path="url(#p2a4f7c5f17)" d="M 36.868282 199.22385 
L 91.085051 173.332546 
" style="fill:none;"/>
    <defs>
     <path d="M 0 10 
C 2.652031 10 5.195799 8.946337 7.071068 7.071068 
C 8.946337 5.195799 10 2.652031 10 0 
C 10 -2.652031 8.946337 -5.195799 7.071068 -7.071068 
C 5.195799 -8.946337 2.652031 -10 0 -10 
C -2.652031 -10 -5.195799 -8.946337 -7.071068 -7.071068 
C -8.946337 -5.195799 -10 -2.652031 -10 0 
C -10 2.652031 -8.946337 5.195799 -7.071068 7.071068 
C -5.195799 8.946337 -2.652031 10 0 10 
z
" id="m66b7f68568" style="stroke:#000000;stroke-width:2;"/>
    </defs>
    <g clip-path="url(#p2a4f7c5f17)">
     <use style="stroke:#000000;stroke-width:2;" x="36.868282" xlink:href="#m66b7f68568" y="199.22385"/>
     <use style="stroke:#000000;stroke-width:2;" x="91.085051" xlink:href="#m66b7f68568" y="173.332546"/>
    </g>
   </g>
   <g id="line2d_69">
    <path clip-path="url(#p2a4f7c5f17)" d="M 32.620148 194.309774 
L 35.593842 187.192395 
L 32.620148 177.091638 
L 41.116416 177.091638 
L 38.142722 187.192395 
L 41.116416 194.309774 
L 32.620148 194.309774 
" style="fill:none;stroke:#0000ff;stroke-linecap:square;"/>
   </g>
   <g id="line2d_70">
    <path clip-path="url(#p2a4f7c5f17)" d="M 32.620148 194.309774 
L 41.116416 194.309774 
L 41.116416 177.091638 
L 32.620148 177.091638 
L 32.620148 194.309774 
" style="fill:none;"/>
    <defs>
     <path d="M 0 1.5 
C 0.397805 1.5 0.77937 1.341951 1.06066 1.06066 
C 1.341951 0.77937 1.5 0.397805 1.5 0 
C 1.5 -0.397805 1.341951 -0.77937 1.06066 -1.06066 
C 0.77937 -1.341951 0.397805 -1.5 0 -1.5 
C -0.397805 -1.5 -0.77937 -1.341951 -1.06066 -1.06066 
C -1.341951 -0.77937 -1.5 -0.397805 -1.5 0 
C -1.5 0.397805 -1.341951 0.77937 -1.06066 1.06066 
C -0.77937 1.341951 -0.397805 1.5 0 1.5 
z
" id="mc693fd8e2a" style="stroke:#0000ff;"/>
    </defs>
    <g clip-path="url(#p2a4f7c5f17)">
     <use style="fill:#0000ff;stroke:#0000ff;" x="32.620148" xlink:href="#mc693fd8e2a" y="194.309774"/>
     <use style="fill:#0000ff;stroke:#0000ff;" x="41.116416" xlink:href="#mc693fd8e2a" y="194.309774"/>
     <use style="fill:#0000ff;stroke:#0000ff;" x="41.116416" xlink:href="#mc693fd8e2a" y="177.091638"/>
     <use style="fill:#0000ff;stroke:#0000ff;" x="32.620148" xlink:href="#mc693fd8e2a" y="177.091638"/>
     <use style="fill:#0000ff;stroke:#0000ff;" x="32.620148" xlink:href="#mc693fd8e2a" y="194.309774"/>
    </g>
   </g>
   <g id="line2d_71">
    <path clip-path="url(#p2a4f7c5f17)" d="M 32.620148 187.192395 
L 41.116416 187.192395 
" style="fill:none;stroke:#0000ff;stroke-linecap:square;stroke-width:2;"/>
   </g>
   <g id="line2d_72">
    <path clip-path="url(#p2a4f7c5f17)" d="M 86.836918 170.153831 
L 89.810611 158.772864 
L 86.836918 154.297064 
L 95.333185 154.297064 
L 92.359491 158.772864 
L 95.333185 170.153831 
L 86.836918 170.153831 
" style="fill:none;stroke:#0000ff;stroke-linecap:square;"/>
   </g>
   <g id="line2d_73">
    <path clip-path="url(#p2a4f7c5f17)" d="M 86.836918 170.153831 
L 95.333185 170.153831 
L 95.333185 154.297064 
L 86.836918 154.297064 
L 86.836918 170.153831 
" style="fill:none;"/>
    <g clip-path="url(#p2a4f7c5f17)">
     <use style="fill:#0000ff;stroke:#0000ff;" x="86.836918" xlink:href="#mc693fd8e2a" y="170.153831"/>
     <use style="fill:#0000ff;stroke:#0000ff;" x="95.333185" xlink:href="#mc693fd8e2a" y="170.153831"/>
     <use style="fill:#0000ff;stroke:#0000ff;" x="95.333185" xlink:href="#mc693fd8e2a" y="154.297064"/>
     <use style="fill:#0000ff;stroke:#0000ff;" x="86.836918" xlink:href="#mc693fd8e2a" y="154.297064"/>
     <use style="fill:#0000ff;stroke:#0000ff;" x="86.836918" xlink:href="#mc693fd8e2a" y="170.153831"/>
    </g>
   </g>
   <g id="line2d_74">
    <path clip-path="url(#p2a4f7c5f17)" d="M 86.836918 158.772864 
L 95.333185 158.772864 
" style="fill:none;stroke:#0000ff;stroke-linecap:square;stroke-width:2;"/>
   </g>
   <g id="line2d_75">
    <path clip-path="url(#p2a4f7c5f17)" d="M 36.868282 186.01336 
L 91.085051 158.829742 
" style="fill:none;stroke:#0000ff;stroke-linecap:square;stroke-width:4;"/>
   </g>
   <g id="line2d_76">
    <path clip-path="url(#p2a4f7c5f17)" d="M 36.868282 186.01336 
L 91.085051 158.829742 
" style="fill:none;"/>
    <defs>
     <path d="M 0 5 
C 1.326016 5 2.597899 4.473168 3.535534 3.535534 
C 4.473168 2.597899 5 1.326016 5 0 
C 5 -1.326016 4.473168 -2.597899 3.535534 -3.535534 
C 2.597899 -4.473168 1.326016 -5 0 -5 
C -1.326016 -5 -2.597899 -4.473168 -3.535534 -3.535534 
C -4.473168 -2.597899 -5 -1.326016 -5 0 
C -5 1.326016 -4.473168 2.597899 -3.535534 3.535534 
C -2.597899 4.473168 -1.326016 5 0 5 
z
" id="m74f236190a" style="stroke:#0000ff;"/>
    </defs>
    <g clip-path="url(#p2a4f7c5f17)">
     <use style="fill:#0000ff;stroke:#0000ff;" x="36.868282" xlink:href="#m74f236190a" y="186.01336"/>
     <use style="fill:#0000ff;stroke:#0000ff;" x="91.085051" xlink:href="#m74f236190a" y="158.829742"/>
    </g>
   </g>
   <g id="line2d_77">
    <path clip-path="url(#p2a4f7c5f17)" d="M 31.558115 184.762373 
L 35.275232 181.32307 
L 31.558115 174.710268 
L 42.178449 174.710268 
L 38.461332 181.32307 
L 42.178449 184.762373 
L 31.558115 184.762373 
" style="fill:none;stroke:#00bfbf;stroke-linecap:square;"/>
   </g>
   <g id="line2d_78">
    <path clip-path="url(#p2a4f7c5f17)" d="M 31.558115 184.762373 
L 42.178449 184.762373 
L 42.178449 174.710268 
L 31.558115 174.710268 
L 31.558115 184.762373 
" style="fill:none;"/>
    <defs>
     <path d="M -0 3 
L 3 -3 
L -3 -3 
z
" id="m1253231d88" style="stroke:#00bfbf;stroke-linejoin:miter;stroke-width:2;"/>
    </defs>
    <g clip-path="url(#p2a4f7c5f17)">
     <use style="fill:#00bfbf;stroke:#00bfbf;stroke-linejoin:miter;stroke-width:2;" x="31.558115" xlink:href="#m1253231d88" y="184.762373"/>
     <use style="fill:#00bfbf;stroke:#00bfbf;stroke-linejoin:miter;stroke-width:2;" x="42.178449" xlink:href="#m1253231d88" y="184.762373"/>
     <use style="fill:#00bfbf;stroke:#00bfbf;stroke-linejoin:miter;stroke-width:2;" x="42.178449" xlink:href="#m1253231d88" y="174.710268"/>
     <use style="fill:#00bfbf;stroke:#00bfbf;stroke-linejoin:miter;stroke-width:2;" x="31.558115" xlink:href="#m1253231d88" y="174.710268"/>
     <use style="fill:#00bfbf;stroke:#00bfbf;stroke-linejoin:miter;stroke-width:2;" x="31.558115" xlink:href="#m1253231d88" y="184.762373"/>
    </g>
   </g>
   <g id="line2d_79">
    <path clip-path="url(#p2a4f7c5f17)" d="M 31.558115 181.32307 
L 42.178449 181.32307 
" style="fill:none;stroke:#00bfbf;stroke-linecap:square;stroke-width:2;"/>
   </g>
   <g id="line2d_80">
    <path clip-path="url(#p2a4f7c5f17)" d="M 85.774884 172.505464 
L 89.492001 158.772864 
L 85.774884 152.932089 
L 96.395219 152.932089 
L 92.678101 158.772864 
L 96.395219 172.505464 
L 85.774884 172.505464 
" style="fill:none;stroke:#00bfbf;stroke-linecap:square;"/>
   </g>
   <g id="line2d_81">
    <path clip-path="url(#p2a4f7c5f17)" d="M 85.774884 172.505464 
L 96.395219 172.505464 
L 96.395219 152.932089 
L 85.774884 152.932089 
L 85.774884 172.505464 
" style="fill:none;"/>
    <g clip-path="url(#p2a4f7c5f17)">
     <use style="fill:#00bfbf;stroke:#00bfbf;stroke-linejoin:miter;stroke-width:2;" x="85.774884" xlink:href="#m1253231d88" y="172.505464"/>
     <use style="fill:#00bfbf;stroke:#00bfbf;stroke-linejoin:miter;stroke-width:2;" x="96.395219" xlink:href="#m1253231d88" y="172.505464"/>
     <use style="fill:#00bfbf;stroke:#00bfbf;stroke-linejoin:miter;stroke-width:2;" x="96.395219" xlink:href="#m1253231d88" y="152.932089"/>
     <use style="fill:#00bfbf;stroke:#00bfbf;stroke-linejoin:miter;stroke-width:2;" x="85.774884" xlink:href="#m1253231d88" y="152.932089"/>
     <use style="fill:#00bfbf;stroke:#00bfbf;stroke-linejoin:miter;stroke-width:2;" x="85.774884" xlink:href="#m1253231d88" y="172.505464"/>
    </g>
   </g>
   <g id="line2d_82">
    <path clip-path="url(#p2a4f7c5f17)" d="M 85.774884 158.772864 
L 96.395219 158.772864 
" style="fill:none;stroke:#00bfbf;stroke-linecap:square;stroke-width:2;"/>
   </g>
   <g id="line2d_83">
    <path clip-path="url(#p2a4f7c5f17)" d="M 36.868282 180.663522 
L 91.085051 154.615362 
" style="fill:none;stroke:#00bfbf;stroke-linecap:square;stroke-width:4;"/>
   </g>
   <g id="line2d_84">
    <path clip-path="url(#p2a4f7c5f17)" d="M 36.868282 180.663522 
L 91.085051 154.615362 
" style="fill:none;"/>
    <defs>
     <path d="M -0 10 
L 10 -10 
L -10 -10 
z
" id="m36513eb831" style="stroke:#000000;stroke-linejoin:miter;stroke-width:2;"/>
    </defs>
    <g clip-path="url(#p2a4f7c5f17)">
     <use style="fill:#00bfbf;stroke:#000000;stroke-linejoin:miter;stroke-width:2;" x="36.868282" xlink:href="#m36513eb831" y="180.663522"/>
     <use style="fill:#00bfbf;stroke:#000000;stroke-linejoin:miter;stroke-width:2;" x="91.085051" xlink:href="#m36513eb831" y="154.615362"/>
    </g>
   </g>
   <g id="line2d_85">
    <path clip-path="url(#p2a4f7c5f17)" d="M 30.496081 185.650535 
L 34.956622 181.064362 
L 30.496081 175.129307 
L 43.240483 175.129307 
L 38.779942 181.064362 
L 43.240483 185.650535 
L 30.496081 185.650535 
" style="fill:none;stroke:#008000;stroke-linecap:square;"/>
   </g>
   <g id="line2d_86">
    <path clip-path="url(#p2a4f7c5f17)" d="M 30.496081 185.650535 
L 43.240483 185.650535 
L 43.240483 175.129307 
L 30.496081 175.129307 
L 30.496081 185.650535 
" style="fill:none;"/>
    <defs>
     <path d="M 0 1.5 
C 0.397805 1.5 0.77937 1.341951 1.06066 1.06066 
C 1.341951 0.77937 1.5 0.397805 1.5 0 
C 1.5 -0.397805 1.341951 -0.77937 1.06066 -1.06066 
C 0.77937 -1.341951 0.397805 -1.5 0 -1.5 
C -0.397805 -1.5 -0.77937 -1.341951 -1.06066 -1.06066 
C -1.341951 -0.77937 -1.5 -0.397805 -1.5 0 
C -1.5 0.397805 -1.341951 0.77937 -1.06066 1.06066 
C -0.77937 1.341951 -0.397805 1.5 0 1.5 
z
" id="m21075669ea" style="stroke:#008000;"/>
    </defs>
    <g clip-path="url(#p2a4f7c5f17)">
     <use style="fill:#008000;stroke:#008000;" x="30.496081" xlink:href="#m21075669ea" y="185.650535"/>
     <use style="fill:#008000;stroke:#008000;" x="43.240483" xlink:href="#m21075669ea" y="185.650535"/>
     <use style="fill:#008000;stroke:#008000;" x="43.240483" xlink:href="#m21075669ea" y="175.129307"/>
     <use style="fill:#008000;stroke:#008000;" x="30.496081" xlink:href="#m21075669ea" y="175.129307"/>
     <use style="fill:#008000;stroke:#008000;" x="30.496081" xlink:href="#m21075669ea" y="185.650535"/>
    </g>
   </g>
   <g id="line2d_87">
    <path clip-path="url(#p2a4f7c5f17)" d="M 30.496081 181.064362 
L 43.240483 181.064362 
" style="fill:none;stroke:#008000;stroke-linecap:square;stroke-width:2;"/>
   </g>
   <g id="line2d_88">
    <path clip-path="url(#p2a4f7c5f17)" d="M 84.712851 170.035064 
L 89.173391 157.192082 
L 84.712851 151.436083 
L 97.457252 151.436083 
L 92.996711 157.192082 
L 97.457252 170.035064 
L 84.712851 170.035064 
" style="fill:none;stroke:#008000;stroke-linecap:square;"/>
   </g>
   <g id="line2d_89">
    <path clip-path="url(#p2a4f7c5f17)" d="M 84.712851 170.035064 
L 97.457252 170.035064 
L 97.457252 151.436083 
L 84.712851 151.436083 
L 84.712851 170.035064 
" style="fill:none;"/>
    <g clip-path="url(#p2a4f7c5f17)">
     <use style="fill:#008000;stroke:#008000;" x="84.712851" xlink:href="#m21075669ea" y="170.035064"/>
     <use style="fill:#008000;stroke:#008000;" x="97.457252" xlink:href="#m21075669ea" y="170.035064"/>
     <use style="fill:#008000;stroke:#008000;" x="97.457252" xlink:href="#m21075669ea" y="151.436083"/>
     <use style="fill:#008000;stroke:#008000;" x="84.712851" xlink:href="#m21075669ea" y="151.436083"/>
     <use style="fill:#008000;stroke:#008000;" x="84.712851" xlink:href="#m21075669ea" y="170.035064"/>
    </g>
   </g>
   <g id="line2d_90">
    <path clip-path="url(#p2a4f7c5f17)" d="M 84.712851 157.192082 
L 97.457252 157.192082 
" style="fill:none;stroke:#008000;stroke-linecap:square;stroke-width:2;"/>
   </g>
   <g id="line2d_91">
    <path clip-path="url(#p2a4f7c5f17)" d="M 36.868282 177.960683 
L 91.085051 152.803401 
" style="fill:none;stroke:#008000;stroke-linecap:square;stroke-width:4;"/>
   </g>
   <g id="line2d_92">
    <path clip-path="url(#p2a4f7c5f17)" d="M 36.868282 177.960683 
L 91.085051 152.803401 
" style="fill:none;"/>
    <defs>
     <path d="M 0 5 
C 1.326016 5 2.597899 4.473168 3.535534 3.535534 
C 4.473168 2.597899 5 1.326016 5 0 
C 5 -1.326016 4.473168 -2.597899 3.535534 -3.535534 
C 2.597899 -4.473168 1.326016 -5 0 -5 
C -1.326016 -5 -2.597899 -4.473168 -3.535534 -3.535534 
C -4.473168 -2.597899 -5 -1.326016 -5 0 
C -5 1.326016 -4.473168 2.597899 -3.535534 3.535534 
C -2.597899 4.473168 -1.326016 5 0 5 
z
" id="m007b8a386a" style="stroke:#008000;"/>
    </defs>
    <g clip-path="url(#p2a4f7c5f17)">
     <use style="fill:#008000;stroke:#008000;" x="36.868282" xlink:href="#m007b8a386a" y="177.960683"/>
     <use style="fill:#008000;stroke:#008000;" x="91.085051" xlink:href="#m007b8a386a" y="152.803401"/>
    </g>
   </g>
   <g id="line2d_93">
    <path clip-path="url(#p2a4f7c5f17)" d="M 29.434048 180.68047 
L 34.638012 175.554332 
L 29.434048 173.687788 
L 44.302516 173.687788 
L 39.098552 175.554332 
L 44.302516 180.68047 
L 29.434048 180.68047 
" style="fill:none;stroke:#bfbf00;stroke-linecap:square;"/>
   </g>
   <g id="line2d_94">
    <path clip-path="url(#p2a4f7c5f17)" d="M 29.434048 180.68047 
L 44.302516 180.68047 
L 44.302516 173.687788 
L 29.434048 173.687788 
L 29.434048 180.68047 
" style="fill:none;"/>
    <defs>
     <path d="M 0 -3 
L -3 3 
L 3 3 
z
" id="ma332a50924" style="stroke:#bfbf00;stroke-linejoin:miter;stroke-width:2;"/>
    </defs>
    <g clip-path="url(#p2a4f7c5f17)">
     <use style="fill:#bfbf00;stroke:#bfbf00;stroke-linejoin:miter;stroke-width:2;" x="29.434048" xlink:href="#ma332a50924" y="180.68047"/>
     <use style="fill:#bfbf00;stroke:#bfbf00;stroke-linejoin:miter;stroke-width:2;" x="44.302516" xlink:href="#ma332a50924" y="180.68047"/>
     <use style="fill:#bfbf00;stroke:#bfbf00;stroke-linejoin:miter;stroke-width:2;" x="44.302516" xlink:href="#ma332a50924" y="173.687788"/>
     <use style="fill:#bfbf00;stroke:#bfbf00;stroke-linejoin:miter;stroke-width:2;" x="29.434048" xlink:href="#ma332a50924" y="173.687788"/>
     <use style="fill:#bfbf00;stroke:#bfbf00;stroke-linejoin:miter;stroke-width:2;" x="29.434048" xlink:href="#ma332a50924" y="180.68047"/>
    </g>
   </g>
   <g id="line2d_95">
    <path clip-path="url(#p2a4f7c5f17)" d="M 29.434048 175.554332 
L 44.302516 175.554332 
" style="fill:none;stroke:#bfbf00;stroke-linecap:square;stroke-width:2;"/>
   </g>
   <g id="line2d_96">
    <path clip-path="url(#p2a4f7c5f17)" d="M 83.650817 149.176955 
L 88.854781 146.696249 
L 83.650817 140.691645 
L 98.519285 140.691645 
L 93.315322 146.696249 
L 98.519285 149.176955 
L 83.650817 149.176955 
" style="fill:none;stroke:#bfbf00;stroke-linecap:square;"/>
   </g>
   <g id="line2d_97">
    <path clip-path="url(#p2a4f7c5f17)" d="M 83.650817 149.176955 
L 98.519285 149.176955 
L 98.519285 140.691645 
L 83.650817 140.691645 
L 83.650817 149.176955 
" style="fill:none;"/>
    <g clip-path="url(#p2a4f7c5f17)">
     <use style="fill:#bfbf00;stroke:#bfbf00;stroke-linejoin:miter;stroke-width:2;" x="83.650817" xlink:href="#ma332a50924" y="149.176955"/>
     <use style="fill:#bfbf00;stroke:#bfbf00;stroke-linejoin:miter;stroke-width:2;" x="98.519285" xlink:href="#ma332a50924" y="149.176955"/>
     <use style="fill:#bfbf00;stroke:#bfbf00;stroke-linejoin:miter;stroke-width:2;" x="98.519285" xlink:href="#ma332a50924" y="140.691645"/>
     <use style="fill:#bfbf00;stroke:#bfbf00;stroke-linejoin:miter;stroke-width:2;" x="83.650817" xlink:href="#ma332a50924" y="140.691645"/>
     <use style="fill:#bfbf00;stroke:#bfbf00;stroke-linejoin:miter;stroke-width:2;" x="83.650817" xlink:href="#ma332a50924" y="149.176955"/>
    </g>
   </g>
   <g id="line2d_98">
    <path clip-path="url(#p2a4f7c5f17)" d="M 83.650817 146.696249 
L 98.519285 146.696249 
" style="fill:none;stroke:#bfbf00;stroke-linecap:square;stroke-width:2;"/>
   </g>
   <g id="line2d_99">
    <path clip-path="url(#p2a4f7c5f17)" d="M 36.868282 174.379236 
L 91.085051 145.108839 
" style="fill:none;stroke:#bfbf00;stroke-linecap:square;stroke-width:4;"/>
   </g>
   <g id="line2d_100">
    <path clip-path="url(#p2a4f7c5f17)" d="M 36.868282 174.379236 
L 91.085051 145.108839 
" style="fill:none;"/>
    <defs>
     <path d="M 0 -10 
L -10 10 
L 10 10 
z
" id="m1c3a5c2c53" style="stroke:#000000;stroke-linejoin:miter;stroke-width:2;"/>
    </defs>
    <g clip-path="url(#p2a4f7c5f17)">
     <use style="fill:#bfbf00;stroke:#000000;stroke-linejoin:miter;stroke-width:2;" x="36.868282" xlink:href="#m1c3a5c2c53" y="174.379236"/>
     <use style="fill:#bfbf00;stroke:#000000;stroke-linejoin:miter;stroke-width:2;" x="91.085051" xlink:href="#m1c3a5c2c53" y="145.108839"/>
    </g>
   </g>
   <g id="line2d_101">
    <path clip-path="url(#p2a4f7c5f17)" d="M 28.372014 173.288437 
L 34.319402 171.64857 
L 28.372014 161.6247 
L 45.364549 161.6247 
L 39.417162 171.64857 
L 45.364549 173.288437 
L 28.372014 173.288437 
" style="fill:none;stroke:#bf00bf;stroke-linecap:square;"/>
   </g>
   <g id="line2d_102">
    <path clip-path="url(#p2a4f7c5f17)" d="M 28.372014 173.288437 
L 45.364549 173.288437 
L 45.364549 161.6247 
L 28.372014 161.6247 
L 28.372014 173.288437 
" style="fill:none;"/>
    <defs>
     <path d="M 0 1.5 
C 0.397805 1.5 0.77937 1.341951 1.06066 1.06066 
C 1.341951 0.77937 1.5 0.397805 1.5 0 
C 1.5 -0.397805 1.341951 -0.77937 1.06066 -1.06066 
C 0.77937 -1.341951 0.397805 -1.5 0 -1.5 
C -0.397805 -1.5 -0.77937 -1.341951 -1.06066 -1.06066 
C -1.341951 -0.77937 -1.5 -0.397805 -1.5 0 
C -1.5 0.397805 -1.341951 0.77937 -1.06066 1.06066 
C -0.77937 1.341951 -0.397805 1.5 0 1.5 
z
" id="m9fdd0e0ee8" style="stroke:#bf00bf;"/>
    </defs>
    <g clip-path="url(#p2a4f7c5f17)">
     <use style="fill:#bf00bf;stroke:#bf00bf;" x="28.372014" xlink:href="#m9fdd0e0ee8" y="173.288437"/>
     <use style="fill:#bf00bf;stroke:#bf00bf;" x="45.364549" xlink:href="#m9fdd0e0ee8" y="173.288437"/>
     <use style="fill:#bf00bf;stroke:#bf00bf;" x="45.364549" xlink:href="#m9fdd0e0ee8" y="161.6247"/>
     <use style="fill:#bf00bf;stroke:#bf00bf;" x="28.372014" xlink:href="#m9fdd0e0ee8" y="161.6247"/>
     <use style="fill:#bf00bf;stroke:#bf00bf;" x="28.372014" xlink:href="#m9fdd0e0ee8" y="173.288437"/>
    </g>
   </g>
   <g id="line2d_103">
    <path clip-path="url(#p2a4f7c5f17)" d="M 28.372014 171.64857 
L 45.364549 171.64857 
" style="fill:none;stroke:#bf00bf;stroke-linecap:square;stroke-width:2;"/>
   </g>
   <g id="line2d_104">
    <path clip-path="url(#p2a4f7c5f17)" d="M 82.588784 149.001086 
L 88.536171 144.860789 
L 82.588784 138.39541 
L 99.581319 138.39541 
L 93.633932 144.860789 
L 99.581319 149.001086 
L 82.588784 149.001086 
" style="fill:none;stroke:#bf00bf;stroke-linecap:square;"/>
   </g>
   <g id="line2d_105">
    <path clip-path="url(#p2a4f7c5f17)" d="M 82.588784 149.001086 
L 99.581319 149.001086 
L 99.581319 138.39541 
L 82.588784 138.39541 
L 82.588784 149.001086 
" style="fill:none;"/>
    <g clip-path="url(#p2a4f7c5f17)">
     <use style="fill:#bf00bf;stroke:#bf00bf;" x="82.588784" xlink:href="#m9fdd0e0ee8" y="149.001086"/>
     <use style="fill:#bf00bf;stroke:#bf00bf;" x="99.581319" xlink:href="#m9fdd0e0ee8" y="149.001086"/>
     <use style="fill:#bf00bf;stroke:#bf00bf;" x="99.581319" xlink:href="#m9fdd0e0ee8" y="138.39541"/>
     <use style="fill:#bf00bf;stroke:#bf00bf;" x="82.588784" xlink:href="#m9fdd0e0ee8" y="138.39541"/>
     <use style="fill:#bf00bf;stroke:#bf00bf;" x="82.588784" xlink:href="#m9fdd0e0ee8" y="149.001086"/>
    </g>
   </g>
   <g id="line2d_106">
    <path clip-path="url(#p2a4f7c5f17)" d="M 82.588784 144.860789 
L 99.581319 144.860789 
" style="fill:none;stroke:#bf00bf;stroke-linecap:square;stroke-width:2;"/>
   </g>
   <g id="line2d_107">
    <path clip-path="url(#p2a4f7c5f17)" d="M 36.868282 168.895565 
L 91.085051 138.647864 
" style="fill:none;stroke:#bf00bf;stroke-linecap:square;stroke-width:4;"/>
   </g>
   <g id="line2d_108">
    <path clip-path="url(#p2a4f7c5f17)" d="M 36.868282 168.895565 
L 91.085051 138.647864 
" style="fill:none;"/>
    <defs>
     <path d="M 0 5 
C 1.326016 5 2.597899 4.473168 3.535534 3.535534 
C 4.473168 2.597899 5 1.326016 5 0 
C 5 -1.326016 4.473168 -2.597899 3.535534 -3.535534 
C 2.597899 -4.473168 1.326016 -5 0 -5 
C -1.326016 -5 -2.597899 -4.473168 -3.535534 -3.535534 
C -4.473168 -2.597899 -5 -1.326016 -5 0 
C -5 1.326016 -4.473168 2.597899 -3.535534 3.535534 
C -2.597899 4.473168 -1.326016 5 0 5 
z
" id="madca350abb" style="stroke:#bf00bf;"/>
    </defs>
    <g clip-path="url(#p2a4f7c5f17)">
     <use style="fill:#bf00bf;stroke:#bf00bf;" x="36.868282" xlink:href="#madca350abb" y="168.895565"/>
     <use style="fill:#bf00bf;stroke:#bf00bf;" x="91.085051" xlink:href="#madca350abb" y="138.647864"/>
    </g>
   </g>
   <g id="line2d_109">
    <path clip-path="url(#p2a4f7c5f17)" d="M 27.309981 124.391766 
L 34.000792 96.538824 
L 27.309981 76.455371 
L 46.426583 76.455371 
L 39.735772 96.538824 
L 46.426583 124.391766 
L 27.309981 124.391766 
" style="fill:none;stroke:#ff0000;stroke-linecap:square;"/>
   </g>
   <g id="line2d_110">
    <path clip-path="url(#p2a4f7c5f17)" d="M 27.309981 124.391766 
L 46.426583 124.391766 
L 46.426583 76.455371 
L 27.309981 76.455371 
L 27.309981 124.391766 
" style="fill:none;"/>
    <defs>
     <path d="M 0 3 
C 0.795609 3 1.55874 2.683901 2.12132 2.12132 
C 2.683901 1.55874 3 0.795609 3 0 
C 3 -0.795609 2.683901 -1.55874 2.12132 -2.12132 
C 1.55874 -2.683901 0.795609 -3 0 -3 
C -0.795609 -3 -1.55874 -2.683901 -2.12132 -2.12132 
C -2.683901 -1.55874 -3 -0.795609 -3 0 
C -3 0.795609 -2.683901 1.55874 -2.12132 2.12132 
C -1.55874 2.683901 -0.795609 3 0 3 
z
" id="m8ed103382e" style="stroke:#ff0000;stroke-width:2;"/>
    </defs>
    <g clip-path="url(#p2a4f7c5f17)">
     <use style="fill:#ff0000;stroke:#ff0000;stroke-width:2;" x="27.309981" xlink:href="#m8ed103382e" y="124.391766"/>
     <use style="fill:#ff0000;stroke:#ff0000;stroke-width:2;" x="46.426583" xlink:href="#m8ed103382e" y="124.391766"/>
     <use style="fill:#ff0000;stroke:#ff0000;stroke-width:2;" x="46.426583" xlink:href="#m8ed103382e" y="76.455371"/>
     <use style="fill:#ff0000;stroke:#ff0000;stroke-width:2;" x="27.309981" xlink:href="#m8ed103382e" y="76.455371"/>
     <use style="fill:#ff0000;stroke:#ff0000;stroke-width:2;" x="27.309981" xlink:href="#m8ed103382e" y="124.391766"/>
    </g>
   </g>
   <g id="line2d_111">
    <path clip-path="url(#p2a4f7c5f17)" d="M 27.309981 96.538824 
L 46.426583 96.538824 
" style="fill:none;stroke:#ff0000;stroke-linecap:square;stroke-width:2;"/>
   </g>
   <g id="line2d_112">
    <path clip-path="url(#p2a4f7c5f17)" d="M 36.868282 81.375727 
" style="fill:none;"/>
    <defs>
     <path d="M 0 10 
C 2.652031 10 5.195799 8.946337 7.071068 7.071068 
C 8.946337 5.195799 10 2.652031 10 0 
C 10 -2.652031 8.946337 -5.195799 7.071068 -7.071068 
C 5.195799 -8.946337 2.652031 -10 0 -10 
C -2.652031 -10 -5.195799 -8.946337 -7.071068 -7.071068 
C -8.946337 -5.195799 -10 -2.652031 -10 0 
C -10 2.652031 -8.946337 5.195799 -7.071068 7.071068 
C -5.195799 8.946337 -2.652031 10 0 10 
z
" id="m2509956ee8" style="stroke:#000000;stroke-width:2;"/>
    </defs>
    <g clip-path="url(#p2a4f7c5f17)">
     <use style="fill:#ff0000;stroke:#000000;stroke-width:2;" x="36.868282" xlink:href="#m2509956ee8" y="81.375727"/>
    </g>
   </g>
   <g id="line2d_113"/>
   <g id="line2d_114"/>
   <g id="line2d_115"/>
   <g id="line2d_116"/>
   <g id="line2d_117"/>
   <g id="line2d_118"/>
   <g id="line2d_119"/>
   <g id="line2d_120">
    <defs>
     <path d="M -10 10 
L 10 -10 
M -10 -10 
L 10 10 
" id="mcdb52e4570" style="stroke:#ff0000;"/>
    </defs>
    <g clip-path="url(#p2a4f7c5f17)">
     <use style="fill:#ff0000;stroke:#ff0000;" x="36.868282" xlink:href="#mcdb52e4570" y="135.234216"/>
     <use style="fill:#ff0000;stroke:#ff0000;" x="91.085051" xlink:href="#mcdb52e4570" y="118.185498"/>
    </g>
   </g>
   <g id="line2d_121">
    <path clip-path="url(#p2a4f7c5f17)" d="M 143.133826 346.6 
L 461.8 275.697615 
" style="fill:none;stroke:#000000;stroke-dasharray:0.5,0.825;stroke-dashoffset:0;stroke-width:0.5;"/>
   </g>
   <g id="line2d_122">
    <path clip-path="url(#p2a4f7c5f17)" d="M -1 310.164642 
L 461.8 207.19286 
" style="fill:none;stroke:#000000;stroke-dasharray:0.5,0.825;stroke-dashoffset:0;stroke-width:0.5;"/>
   </g>
   <g id="line2d_123">
    <path clip-path="url(#p2a4f7c5f17)" d="M -1 241.659887 
L 461.8 138.688105 
" style="fill:none;stroke:#000000;stroke-dasharray:0.5,0.825;stroke-dashoffset:0;stroke-width:0.5;"/>
   </g>
   <g id="line2d_124">
    <path clip-path="url(#p2a4f7c5f17)" d="M -1 173.155132 
L 461.8 70.18335 
" style="fill:none;stroke:#000000;stroke-dasharray:0.5,0.825;stroke-dashoffset:0;stroke-width:0.5;"/>
   </g>
   <g id="line2d_125">
    <path clip-path="url(#p2a4f7c5f17)" d="M -1 104.650378 
L 461.8 1.678595 
" style="fill:none;stroke:#000000;stroke-dasharray:0.5,0.825;stroke-dashoffset:0;stroke-width:0.5;"/>
   </g>
   <g id="line2d_126">
    <path clip-path="url(#p2a4f7c5f17)" d="M -1 36.145623 
L 165.948594 -1 
" style="fill:none;stroke:#000000;stroke-dasharray:0.5,0.825;stroke-dashoffset:0;stroke-width:0.5;"/>
   </g>
   <g id="line2d_127">
    <path clip-path="url(#p2a4f7c5f17)" style="fill:none;stroke:#000000;stroke-dasharray:0.5,0.825;stroke-dashoffset:0;stroke-width:0.5;"/>
   </g>
   <g id="line2d_128">
    <path clip-path="url(#p2a4f7c5f17)" style="fill:none;stroke:#000000;stroke-dasharray:0.5,0.825;stroke-dashoffset:0;stroke-width:0.5;"/>
   </g>
   <g id="line2d_129">
    <path clip-path="url(#p2a4f7c5f17)" style="fill:none;stroke:#000000;stroke-dasharray:0.5,0.825;stroke-dashoffset:0;stroke-width:0.5;"/>
   </g>
   <g id="patch_3">
    <path d="M 22.78 315.44 
L 22.78 27.72 
" style="fill:none;stroke:#000000;stroke-linecap:square;stroke-linejoin:miter;stroke-width:0.8;"/>
   </g>
   <g id="patch_4">
    <path d="M 453.192 315.44 
L 453.192 27.72 
" style="fill:none;stroke:#000000;stroke-linecap:square;stroke-linejoin:miter;stroke-width:0.8;"/>
   </g>
   <g id="patch_5">
    <path d="M 22.78 315.44 
L 453.192 315.44 
" style="fill:none;stroke:#000000;stroke-linecap:square;stroke-linejoin:miter;stroke-width:0.8;"/>
   </g>
   <g id="patch_6">
    <path d="M 22.78 27.72 
L 453.192 27.72 
" style="fill:none;stroke:#000000;stroke-linecap:square;stroke-linejoin:miter;stroke-width:0.8;"/>
   </g>
   <g id="text_12">
    <!-- 14 -->
    <g transform="translate(80.268801 123.049307)scale(0.17 -0.17)">
     <use xlink:href="#DejaVuSans-49"/>
     <use x="63.623047" xlink:href="#DejaVuSans-52"/>
    </g>
   </g>
   <g id="text_13">
    <!-- 2 -->
    <g transform="translate(31.460157 65.77717)scale(0.17 -0.17)">
     <use xlink:href="#DejaVuSans-50"/>
    </g>
   </g>
   <g id="text_14">
    <!-- 15 instances -->
    <defs>
     <path id="DejaVuSans-32"/>
     <path d="M 9.421875 54.6875 
L 18.40625 54.6875 
L 18.40625 0 
L 9.421875 0 
z
M 9.421875 75.984375 
L 18.40625 75.984375 
L 18.40625 64.59375 
L 9.421875 64.59375 
z
" id="DejaVuSans-105"/>
     <path d="M 54.890625 33.015625 
L 54.890625 0 
L 45.90625 0 
L 45.90625 32.71875 
Q 45.90625 40.484375 42.875 44.328125 
Q 39.84375 48.1875 33.796875 48.1875 
Q 26.515625 48.1875 22.3125 43.546875 
Q 18.109375 38.921875 18.109375 30.90625 
L 18.109375 0 
L 9.078125 0 
L 9.078125 54.6875 
L 18.109375 54.6875 
L 18.109375 46.1875 
Q 21.34375 51.125 25.703125 53.5625 
Q 30.078125 56 35.796875 56 
Q 45.21875 56 50.046875 50.171875 
Q 54.890625 44.34375 54.890625 33.015625 
z
" id="DejaVuSans-110"/>
     <path d="M 44.28125 53.078125 
L 44.28125 44.578125 
Q 40.484375 46.53125 36.375 47.5 
Q 32.28125 48.484375 27.875 48.484375 
Q 21.1875 48.484375 17.84375 46.4375 
Q 14.5 44.390625 14.5 40.28125 
Q 14.5 37.15625 16.890625 35.375 
Q 19.28125 33.59375 26.515625 31.984375 
L 29.59375 31.296875 
Q 39.15625 29.25 43.1875 25.515625 
Q 47.21875 21.78125 47.21875 15.09375 
Q 47.21875 7.46875 41.1875 3.015625 
Q 35.15625 -1.421875 24.609375 -1.421875 
Q 20.21875 -1.421875 15.453125 -0.5625 
Q 10.6875 0.296875 5.421875 2 
L 5.421875 11.28125 
Q 10.40625 8.6875 15.234375 7.390625 
Q 20.0625 6.109375 24.8125 6.109375 
Q 31.15625 6.109375 34.5625 8.28125 
Q 37.984375 10.453125 37.984375 14.40625 
Q 37.984375 18.0625 35.515625 20.015625 
Q 33.0625 21.96875 24.703125 23.78125 
L 21.578125 24.515625 
Q 13.234375 26.265625 9.515625 29.90625 
Q 5.8125 33.546875 5.8125 39.890625 
Q 5.8125 47.609375 11.28125 51.796875 
Q 16.75 56 26.8125 56 
Q 31.78125 56 36.171875 55.265625 
Q 40.578125 54.546875 44.28125 53.078125 
z
" id="DejaVuSans-115"/>
     <path d="M 18.3125 70.21875 
L 18.3125 54.6875 
L 36.8125 54.6875 
L 36.8125 47.703125 
L 18.3125 47.703125 
L 18.3125 18.015625 
Q 18.3125 11.328125 20.140625 9.421875 
Q 21.96875 7.515625 27.59375 7.515625 
L 36.8125 7.515625 
L 36.8125 0 
L 27.59375 0 
Q 17.1875 0 13.234375 3.875 
Q 9.28125 7.765625 9.28125 18.015625 
L 9.28125 47.703125 
L 2.6875 47.703125 
L 2.6875 54.6875 
L 9.28125 54.6875 
L 9.28125 70.21875 
z
" id="DejaVuSans-116"/>
     <path d="M 34.28125 27.484375 
Q 23.390625 27.484375 19.1875 25 
Q 14.984375 22.515625 14.984375 16.5 
Q 14.984375 11.71875 18.140625 8.90625 
Q 21.296875 6.109375 26.703125 6.109375 
Q 34.1875 6.109375 38.703125 11.40625 
Q 43.21875 16.703125 43.21875 25.484375 
L 43.21875 27.484375 
z
M 52.203125 31.203125 
L 52.203125 0 
L 43.21875 0 
L 43.21875 8.296875 
Q 40.140625 3.328125 35.546875 0.953125 
Q 30.953125 -1.421875 24.3125 -1.421875 
Q 15.921875 -1.421875 10.953125 3.296875 
Q 6 8.015625 6 15.921875 
Q 6 25.140625 12.171875 29.828125 
Q 18.359375 34.515625 30.609375 34.515625 
L 43.21875 34.515625 
L 43.21875 35.40625 
Q 43.21875 41.609375 39.140625 45 
Q 35.0625 48.390625 27.6875 48.390625 
Q 23 48.390625 18.546875 47.265625 
Q 14.109375 46.140625 10.015625 43.890625 
L 10.015625 52.203125 
Q 14.9375 54.109375 19.578125 55.046875 
Q 24.21875 56 28.609375 56 
Q 40.484375 56 46.34375 49.84375 
Q 52.203125 43.703125 52.203125 31.203125 
z
" id="DejaVuSans-97"/>
     <path d="M 48.78125 52.59375 
L 48.78125 44.1875 
Q 44.96875 46.296875 41.140625 47.34375 
Q 37.3125 48.390625 33.40625 48.390625 
Q 24.65625 48.390625 19.8125 42.84375 
Q 14.984375 37.3125 14.984375 27.296875 
Q 14.984375 17.28125 19.8125 11.734375 
Q 24.65625 6.203125 33.40625 6.203125 
Q 37.3125 6.203125 41.140625 7.25 
Q 44.96875 8.296875 48.78125 10.40625 
L 48.78125 2.09375 
Q 45.015625 0.34375 40.984375 -0.53125 
Q 36.96875 -1.421875 32.421875 -1.421875 
Q 20.0625 -1.421875 12.78125 6.34375 
Q 5.515625 14.109375 5.515625 27.296875 
Q 5.515625 40.671875 12.859375 48.328125 
Q 20.21875 56 33.015625 56 
Q 37.15625 56 41.109375 55.140625 
Q 45.0625 54.296875 48.78125 52.59375 
z
" id="DejaVuSans-99"/>
     <path d="M 56.203125 29.59375 
L 56.203125 25.203125 
L 14.890625 25.203125 
Q 15.484375 15.921875 20.484375 11.0625 
Q 25.484375 6.203125 34.421875 6.203125 
Q 39.59375 6.203125 44.453125 7.46875 
Q 49.3125 8.734375 54.109375 11.28125 
L 54.109375 2.78125 
Q 49.265625 0.734375 44.1875 -0.34375 
Q 39.109375 -1.421875 33.890625 -1.421875 
Q 20.796875 -1.421875 13.15625 6.1875 
Q 5.515625 13.8125 5.515625 26.8125 
Q 5.515625 40.234375 12.765625 48.109375 
Q 20.015625 56 32.328125 56 
Q 43.359375 56 49.78125 48.890625 
Q 56.203125 41.796875 56.203125 29.59375 
z
M 47.21875 32.234375 
Q 47.125 39.59375 43.09375 43.984375 
Q 39.0625 48.390625 32.421875 48.390625 
Q 24.90625 48.390625 20.390625 44.140625 
Q 15.875 39.890625 15.1875 32.171875 
z
" id="DejaVuSans-101"/>
    </defs>
    <g transform="translate(22.78 296.8515)scale(0.14 -0.14)">
     <use xlink:href="#DejaVuSans-49"/>
     <use x="63.623047" xlink:href="#DejaVuSans-53"/>
     <use x="127.246094" xlink:href="#DejaVuSans-32"/>
     <use x="159.033203" xlink:href="#DejaVuSans-105"/>
     <use x="186.816406" xlink:href="#DejaVuSans-110"/>
     <use x="250.195312" xlink:href="#DejaVuSans-115"/>
     <use x="302.294922" xlink:href="#DejaVuSans-116"/>
     <use x="341.503906" xlink:href="#DejaVuSans-97"/>
     <use x="402.783203" xlink:href="#DejaVuSans-110"/>
     <use x="466.162109" xlink:href="#DejaVuSans-99"/>
     <use x="521.142578" xlink:href="#DejaVuSans-101"/>
     <use x="582.666016" xlink:href="#DejaVuSans-115"/>
    </g>
    <!-- absolute targets -->
    <defs>
     <path d="M 48.6875 27.296875 
Q 48.6875 37.203125 44.609375 42.84375 
Q 40.53125 48.484375 33.40625 48.484375 
Q 26.265625 48.484375 22.1875 42.84375 
Q 18.109375 37.203125 18.109375 27.296875 
Q 18.109375 17.390625 22.1875 11.75 
Q 26.265625 6.109375 33.40625 6.109375 
Q 40.53125 6.109375 44.609375 11.75 
Q 48.6875 17.390625 48.6875 27.296875 
z
M 18.109375 46.390625 
Q 20.953125 51.265625 25.265625 53.625 
Q 29.59375 56 35.59375 56 
Q 45.5625 56 51.78125 48.09375 
Q 58.015625 40.1875 58.015625 27.296875 
Q 58.015625 14.40625 51.78125 6.484375 
Q 45.5625 -1.421875 35.59375 -1.421875 
Q 29.59375 -1.421875 25.265625 0.953125 
Q 20.953125 3.328125 18.109375 8.203125 
L 18.109375 0 
L 9.078125 0 
L 9.078125 75.984375 
L 18.109375 75.984375 
z
" id="DejaVuSans-98"/>
     <path d="M 30.609375 48.390625 
Q 23.390625 48.390625 19.1875 42.75 
Q 14.984375 37.109375 14.984375 27.296875 
Q 14.984375 17.484375 19.15625 11.84375 
Q 23.34375 6.203125 30.609375 6.203125 
Q 37.796875 6.203125 41.984375 11.859375 
Q 46.1875 17.53125 46.1875 27.296875 
Q 46.1875 37.015625 41.984375 42.703125 
Q 37.796875 48.390625 30.609375 48.390625 
z
M 30.609375 56 
Q 42.328125 56 49.015625 48.375 
Q 55.71875 40.765625 55.71875 27.296875 
Q 55.71875 13.875 49.015625 6.21875 
Q 42.328125 -1.421875 30.609375 -1.421875 
Q 18.84375 -1.421875 12.171875 6.21875 
Q 5.515625 13.875 5.515625 27.296875 
Q 5.515625 40.765625 12.171875 48.375 
Q 18.84375 56 30.609375 56 
z
" id="DejaVuSans-111"/>
     <path d="M 9.421875 75.984375 
L 18.40625 75.984375 
L 18.40625 0 
L 9.421875 0 
z
" id="DejaVuSans-108"/>
     <path d="M 8.5 21.578125 
L 8.5 54.6875 
L 17.484375 54.6875 
L 17.484375 21.921875 
Q 17.484375 14.15625 20.5 10.265625 
Q 23.53125 6.390625 29.59375 6.390625 
Q 36.859375 6.390625 41.078125 11.03125 
Q 45.3125 15.671875 45.3125 23.6875 
L 45.3125 54.6875 
L 54.296875 54.6875 
L 54.296875 0 
L 45.3125 0 
L 45.3125 8.40625 
Q 42.046875 3.421875 37.71875 1 
Q 33.40625 -1.421875 27.6875 -1.421875 
Q 18.265625 -1.421875 13.375 4.4375 
Q 8.5 10.296875 8.5 21.578125 
z
M 31.109375 56 
z
" id="DejaVuSans-117"/>
     <path d="M 41.109375 46.296875 
Q 39.59375 47.171875 37.8125 47.578125 
Q 36.03125 48 33.890625 48 
Q 26.265625 48 22.1875 43.046875 
Q 18.109375 38.09375 18.109375 28.8125 
L 18.109375 0 
L 9.078125 0 
L 9.078125 54.6875 
L 18.109375 54.6875 
L 18.109375 46.1875 
Q 20.953125 51.171875 25.484375 53.578125 
Q 30.03125 56 36.53125 56 
Q 37.453125 56 38.578125 55.875 
Q 39.703125 55.765625 41.0625 55.515625 
z
" id="DejaVuSans-114"/>
     <path d="M 45.40625 27.984375 
Q 45.40625 37.75 41.375 43.109375 
Q 37.359375 48.484375 30.078125 48.484375 
Q 22.859375 48.484375 18.828125 43.109375 
Q 14.796875 37.75 14.796875 27.984375 
Q 14.796875 18.265625 18.828125 12.890625 
Q 22.859375 7.515625 30.078125 7.515625 
Q 37.359375 7.515625 41.375 12.890625 
Q 45.40625 18.265625 45.40625 27.984375 
z
M 54.390625 6.78125 
Q 54.390625 -7.171875 48.1875 -13.984375 
Q 42 -20.796875 29.203125 -20.796875 
Q 24.46875 -20.796875 20.265625 -20.09375 
Q 16.0625 -19.390625 12.109375 -17.921875 
L 12.109375 -9.1875 
Q 16.0625 -11.328125 19.921875 -12.34375 
Q 23.78125 -13.375 27.78125 -13.375 
Q 36.625 -13.375 41.015625 -8.765625 
Q 45.40625 -4.15625 45.40625 5.171875 
L 45.40625 9.625 
Q 42.625 4.78125 38.28125 2.390625 
Q 33.9375 0 27.875 0 
Q 17.828125 0 11.671875 7.65625 
Q 5.515625 15.328125 5.515625 27.984375 
Q 5.515625 40.671875 11.671875 48.328125 
Q 17.828125 56 27.875 56 
Q 33.9375 56 38.28125 53.609375 
Q 42.625 51.21875 45.40625 46.390625 
L 45.40625 54.6875 
L 54.390625 54.6875 
z
" id="DejaVuSans-103"/>
    </defs>
    <g transform="translate(22.78 312.528437)scale(0.14 -0.14)">
     <use xlink:href="#DejaVuSans-97"/>
     <use x="61.279297" xlink:href="#DejaVuSans-98"/>
     <use x="124.755859" xlink:href="#DejaVuSans-115"/>
     <use x="176.855469" xlink:href="#DejaVuSans-111"/>
     <use x="238.037109" xlink:href="#DejaVuSans-108"/>
     <use x="265.820312" xlink:href="#DejaVuSans-117"/>
     <use x="329.199219" xlink:href="#DejaVuSans-116"/>
     <use x="368.408203" xlink:href="#DejaVuSans-101"/>
     <use x="429.931641" xlink:href="#DejaVuSans-32"/>
     <use x="461.71875" xlink:href="#DejaVuSans-116"/>
     <use x="500.927734" xlink:href="#DejaVuSans-97"/>
     <use x="562.207031" xlink:href="#DejaVuSans-114"/>
     <use x="601.570312" xlink:href="#DejaVuSans-103"/>
     <use x="665.046875" xlink:href="#DejaVuSans-101"/>
     <use x="726.570312" xlink:href="#DejaVuSans-116"/>
     <use x="765.779297" xlink:href="#DejaVuSans-115"/>
    </g>
   </g>
   <g id="text_15">
    <!-- v2.3.3.5 -->
    <defs>
     <path d="M 2.984375 54.6875 
L 12.5 54.6875 
L 29.59375 8.796875 
L 46.6875 54.6875 
L 56.203125 54.6875 
L 35.6875 0 
L 23.484375 0 
z
" id="DejaVuSans-118"/>
     <path d="M 10.6875 12.40625 
L 21 12.40625 
L 21 0 
L 10.6875 0 
z
" id="DejaVuSans-46"/>
    </defs>
    <g style="fill:#808080;" transform="translate(217.534438 310.483113)scale(0.1 -0.1)">
     <use xlink:href="#DejaVuSans-118"/>
     <use x="59.179688" xlink:href="#DejaVuSans-50"/>
     <use x="122.802734" xlink:href="#DejaVuSans-46"/>
     <use x="154.589844" xlink:href="#DejaVuSans-51"/>
     <use x="218.212891" xlink:href="#DejaVuSans-46"/>
     <use x="250" xlink:href="#DejaVuSans-51"/>
     <use x="313.623047" xlink:href="#DejaVuSans-46"/>
     <use x="345.410156" xlink:href="#DejaVuSans-53"/>
    </g>
   </g>
   <g id="text_16">
    <!-- 6 Attractive sector -->
    <defs>
     <path d="M 33.015625 40.375 
Q 26.375 40.375 22.484375 35.828125 
Q 18.609375 31.296875 18.609375 23.390625 
Q 18.609375 15.53125 22.484375 10.953125 
Q 26.375 6.390625 33.015625 6.390625 
Q 39.65625 6.390625 43.53125 10.953125 
Q 47.40625 15.53125 47.40625 23.390625 
Q 47.40625 31.296875 43.53125 35.828125 
Q 39.65625 40.375 33.015625 40.375 
z
M 52.59375 71.296875 
L 52.59375 62.3125 
Q 48.875 64.0625 45.09375 64.984375 
Q 41.3125 65.921875 37.59375 65.921875 
Q 27.828125 65.921875 22.671875 59.328125 
Q 17.53125 52.734375 16.796875 39.40625 
Q 19.671875 43.65625 24.015625 45.921875 
Q 28.375 48.1875 33.59375 48.1875 
Q 44.578125 48.1875 50.953125 41.515625 
Q 57.328125 34.859375 57.328125 23.390625 
Q 57.328125 12.15625 50.6875 5.359375 
Q 44.046875 -1.421875 33.015625 -1.421875 
Q 20.359375 -1.421875 13.671875 8.265625 
Q 6.984375 17.96875 6.984375 36.375 
Q 6.984375 53.65625 15.1875 63.9375 
Q 23.390625 74.21875 37.203125 74.21875 
Q 40.921875 74.21875 44.703125 73.484375 
Q 48.484375 72.75 52.59375 71.296875 
z
" id="DejaVuSans-54"/>
     <path d="M 34.1875 63.1875 
L 20.796875 26.90625 
L 47.609375 26.90625 
z
M 28.609375 72.90625 
L 39.796875 72.90625 
L 67.578125 0 
L 57.328125 0 
L 50.6875 18.703125 
L 17.828125 18.703125 
L 11.1875 0 
L 0.78125 0 
z
" id="DejaVuSans-65"/>
    </defs>
    <g transform="translate(126.6935 21.72)scale(0.24 -0.24)">
     <use xlink:href="#DejaVuSans-54"/>
     <use x="63.623047" xlink:href="#DejaVuSans-32"/>
     <use x="95.410156" xlink:href="#DejaVuSans-65"/>
     <use x="162.068359" xlink:href="#DejaVuSans-116"/>
     <use x="201.277344" xlink:href="#DejaVuSans-116"/>
     <use x="240.486328" xlink:href="#DejaVuSans-114"/>
     <use x="281.599609" xlink:href="#DejaVuSans-97"/>
     <use x="342.878906" xlink:href="#DejaVuSans-99"/>
     <use x="397.859375" xlink:href="#DejaVuSans-116"/>
     <use x="437.068359" xlink:href="#DejaVuSans-105"/>
     <use x="464.851562" xlink:href="#DejaVuSans-118"/>
     <use x="524.03125" xlink:href="#DejaVuSans-101"/>
     <use x="585.554688" xlink:href="#DejaVuSans-32"/>
     <use x="617.341797" xlink:href="#DejaVuSans-115"/>
     <use x="669.441406" xlink:href="#DejaVuSans-101"/>
     <use x="730.964844" xlink:href="#DejaVuSans-99"/>
     <use x="785.945312" xlink:href="#DejaVuSans-116"/>
     <use x="825.154297" xlink:href="#DejaVuSans-111"/>
     <use x="886.335938" xlink:href="#DejaVuSans-114"/>
    </g>
   </g>
  </g>
 </g>
 <defs>
  <clipPath id="p2a4f7c5f17">
   <rect height="287.72" width="430.412" x="22.78" y="27.72"/>
  </clipPath>
 </defs>
</svg>
